<?xml version="1.0" encoding="utf-8" standalone="no"?>
<!DOCTYPE svg PUBLIC "-//W3C//DTD SVG 1.1//EN"
  "http://www.w3.org/Graphics/SVG/1.1/DTD/svg11.dtd">
<svg xmlns:xlink="http://www.w3.org/1999/xlink" width="316.509125pt" height="335.425604pt" viewBox="0 0 316.509125 335.425604" xmlns="http://www.w3.org/2000/svg" version="1.1">
 <metadata>
  <rdf:RDF xmlns:dc="http://purl.org/dc/elements/1.1/" xmlns:cc="http://creativecommons.org/ns#" xmlns:rdf="http://www.w3.org/1999/02/22-rdf-syntax-ns#">
   <cc:Work>
    <dc:type rdf:resource="http://purl.org/dc/dcmitype/StillImage"/>
    <dc:date>2022-10-27T19:59:26.164096</dc:date>
    <dc:format>image/svg+xml</dc:format>
    <dc:creator>
     <cc:Agent>
      <dc:title>Matplotlib v3.5.1, https://matplotlib.org/</dc:title>
     </cc:Agent>
    </dc:creator>
   </cc:Work>
  </rdf:RDF>
 </metadata>
 <defs>
  <style type="text/css">*{stroke-linejoin: round; stroke-linecap: butt}</style>
 </defs>
 <g id="figure_1">
  <g id="patch_1">
   <path d="M 0 335.425604 
L 316.509125 335.425604 
L 316.509125 0 
L 0 0 
z
" style="fill: #ffffff"/>
  </g>
  <g id="axes_1">
   <g id="patch_2">
    <path d="M 24.678036 317.515077 
L 306.782652 317.515077 
L 306.782652 7.2 
L 24.678036 7.2 
z
" style="fill: #ffffff"/>
   </g>
   <g id="patch_3">
    <path d="M 301.357563 40.293041 
L 299.36017 44.27312 
L 298.556248 45.866741 
L 296.788071 49.355048 
L 296.030915 50.841737 
L 294.451597 53.929152 
L 292.975479 56.798194 
L 291.212862 60.20304 
L 290.641696 61.301446 
L 289.012484 64.421361 
L 288.028587 66.29603 
L 286.068362 70.00967 
L 284.345951 73.249388 
L 283.615065 74.617518 
L 281.757248 78.077392 
L 280.65682 80.114753 
L 279.347409 82.527399 
L 278.660489 83.788023 
L 276.845419 87.102269 
L 274.779714 90.844608 
L 273.96388 92.313949 
L 273.393353 93.33857 
L 271.134703 97.371364 
L 269.509704 100.249517 
L 268.561176 101.920524 
L 266.787511 105.02736 
L 266.08538 106.250839 
L 265.138167 107.895618 
L 262.514347 112.417185 
L 262.241338 112.88474 
L 260.96676 115.060304 
L 258.896904 118.567804 
L 258.347169 119.494055 
L 256.088263 123.276706 
L 255.155746 124.827282 
L 253.837129 127.008914 
L 252.156096 129.771571 
L 251.186319 131.355852 
L 249.792605 133.620556 
L 248.865271 135.119485 
L 246.391767 139.086608 
L 245.687155 140.208442 
L 244.19728 142.568466 
L 243.167942 144.189421 
L 241.810412 146.315251 
L 239.868643 149.332354 
L 238.588196 151.306691 
L 237.022096 153.705046 
L 236.058354 155.17195 
L 235.085586 156.645648 
L 233.378721 159.214606 
L 231.342453 162.251241 
L 230.975739 162.794864 
L 228.492983 166.449261 
L 227.361309 168.099905 
L 226.77732 168.94801 
L 225.509906 170.779975 
L 223.072295 174.270092 
L 222.043592 175.729819 
L 220.945009 177.280092 
L 220.165787 178.374301 
L 217.784397 181.690581 
L 216.656881 183.246154 
L 216.119932 183.983658 
L 214.180688 186.629526 
L 212.909123 188.349373 
L 211.034081 190.863699 
L 209.436994 192.98486 
L 208.045794 194.817247 
L 207.197064 195.928124 
L 205.743662 197.818103 
L 205.060042 198.701684 
L 202.765048 201.642771 
L 202.134477 202.444062 
L 199.955564 205.190321 
L 199.177359 206.162672 
L 197.958672 207.676424 
L 195.837666 210.284849 
L 194.700555 211.669615 
L 193.756964 212.811476 
L 192.889973 213.854855 
L 190.970363 216.145286 
L 190.196188 217.061324 
L 188.549393 218.995187 
L 187.306353 220.441671 
L 186.031456 221.91339 
L 184.336148 223.851862 
L 182.345475 226.101013 
L 180.725392 227.90989 
L 180.555546 228.098408 
L 178.70937 230.133822 
L 176.77571 232.238741 
L 176.218302 232.840399 
L 173.970597 235.243292 
L 173.117124 236.145933 
L 171.81007 237.517876 
L 169.931788 239.46735 
L 169.549722 239.860713 
L 168.376211 241.062195 
L 166.852912 242.606656 
L 165.728813 243.735401 
L 163.021409 246.415751 
L 162.915068 246.519926 
L 160.415823 248.944266 
L 159.497337 249.823652 
L 158.082953 251.16566 
L 157.36746 251.838923 
L 155.450593 253.624048 
L 153.774185 255.163033 
L 152.817329 256.032163 
L 150.895945 257.757003 
L 149.953384 258.593196 
L 148.143464 260.180498 
L 147.391227 260.833106 
L 145.599559 262.370675 
L 144.128695 263.615247 
L 142.972775 264.582136 
L 142.465114 265.003664 
L 141.092353 266.133997 
L 138.98893 267.839002 
L 137.890184 268.716659 
L 135.922259 270.266351 
L 134.431915 271.42096 
L 133.475023 272.153657 
L 132.916262 272.57838 
L 131.168695 273.891876 
L 129.339834 275.242361 
L 127.950676 276.251676 
L 126.395487 277.364743 
L 126.054135 277.606666 
L 123.716156 279.240544 
L 123.166307 279.618948 
L 120.904654 281.151967 
L 119.783271 281.89809 
L 118.124759 282.984599 
L 117.27892 283.530908 
L 115.299376 284.788834 
L 114.609184 285.220632 
L 113.59543 285.848489 
L 112.030729 286.802696 
L 110.075129 287.969906 
L 109.768955 288.150095 
L 107.218603 289.624163 
L 105.793018 290.427235 
L 104.630502 291.071022 
L 103.540801 291.665437 
L 102.60647 292.168128 
L 101.137913 292.945236 
L 100.165871 293.45086 
L 98.414024 294.34452 
L 96.837111 295.129592 
L 95.383367 295.8371 
L 94.748326 296.141272 
L 92.679271 297.111682 
L 92.022801 297.412978 
L 89.421522 298.575628 
L 88.184566 299.110987 
L 87.539647 299.385636 
L 85.441382 300.257995 
L 84.895691 300.479549 
L 83.616464 300.990316 
L 81.57082 301.782022 
L 80.285502 302.263683 
L 78.499882 302.912612 
L 77.879353 303.13262 
L 76.319099 303.673262 
L 74.875927 304.157356 
L 74.230024 304.369041 
L 72.977642 304.770727 
L 71.160718 305.332923 
L 69.845961 305.724559 
L 68.305466 306.167221 
L 66.45654 306.675409 
L 65.222632 307.000532 
L 63.784803 307.365223 
L 62.186438 307.752743 
L 61.01215 308.025444 
L 60.019987 308.247926 
L 58.594921 308.554782 
L 57.431656 308.794165 
L 56.086308 309.058577 
L 55.215608 309.222589 
L 53.811068 309.475378 
L 51.253893 309.898271 
L 49.97233 310.092073 
L 49.246581 310.196453 
L 47.770086 310.39682 
L 46.347473 310.57467 
L 44.871818 310.743384 
L 43.237637 310.911488 
L 42.119536 311.015159 
L 40.394667 311.157013 
L 39.039246 311.253091 
L 38.46319 311.289822 
L 36.533033 311.395063 
L 35.823857 311.42683 
L 34.803637 311.466025 
L 33.137998 311.513524 
L 31.453579 311.540756 
L 30.103125 311.547479 
L 30.103125 40.293041 
L 31.989991 40.293041 
L 32.701572 40.293041 
L 33.612986 40.293041 
L 35.425058 40.293041 
L 36.850319 40.293041 
L 38.793519 40.293041 
L 39.429711 40.293041 
L 41.384611 40.293041 
L 42.469903 40.293041 
L 44.344712 40.293041 
L 45.294148 40.293041 
L 45.897237 40.293041 
L 47.27459 40.293041 
L 48.58979 40.293041 
L 50.807573 40.293041 
L 51.715038 40.293041 
L 53.031329 40.293041 
L 54.738915 40.293041 
L 55.645193 40.293041 
L 57.406255 40.293041 
L 59.123639 40.293041 
L 59.905955 40.293041 
L 61.210105 40.293041 
L 62.244622 40.293041 
L 64.009158 40.293041 
L 65.39209 40.293041 
L 66.467949 40.293041 
L 68.759484 40.293041 
L 69.259944 40.293041 
L 71.237117 40.293041 
L 72.288013 40.293041 
L 73.227242 40.293041 
L 75.551733 40.293041 
L 76.782186 40.293041 
L 77.901348 40.293041 
L 79.60521 40.293041 
L 80.676773 40.293041 
L 81.264455 40.293041 
L 83.656418 40.293041 
L 84.9695 40.293041 
L 86.048552 40.293041 
L 87.192093 40.293041 
L 88.261838 40.293041 
L 90.734247 40.293041 
L 92.067948 40.293041 
L 93.179243 40.293041 
L 94.278895 40.293041 
L 96.03074 40.293041 
L 97.265283 40.293041 
L 98.9103 40.293041 
L 99.015528 40.293041 
L 100.839876 40.293041 
L 102.559505 40.293041 
L 104.323775 40.293041 
L 104.473435 40.293041 
L 105.888059 40.293041 
L 107.386855 40.293041 
L 108.604593 40.293041 
L 110.443573 40.293041 
L 111.790911 40.293041 
L 112.985134 40.293041 
L 114.177557 40.293041 
L 116.201655 40.293041 
L 116.949465 40.293041 
L 118.832111 40.293041 
L 119.692158 40.293041 
L 121.534265 40.293041 
L 122.726808 40.293041 
L 124.612612 40.293041 
L 125.966472 40.293041 
L 126.774742 40.293041 
L 128.109159 40.293041 
L 129.295531 40.293041 
L 131.340225 40.293041 
L 132.54622 40.293041 
L 133.167989 40.293041 
L 134.741589 40.293041 
L 136.210062 40.293041 
L 138.319717 40.293041 
L 139.813852 40.293041 
L 140.857409 40.293041 
L 142.001048 40.293041 
L 143.769384 40.293041 
L 145.011721 40.293041 
L 145.455534 40.293041 
L 146.929589 40.293041 
L 148.742331 40.293041 
L 149.949419 40.293041 
L 151.765283 40.293041 
L 152.911182 40.293041 
L 153.719167 40.293041 
L 155.00094 40.293041 
L 156.668455 40.293041 
L 157.801913 40.293041 
L 159.166322 40.293041 
L 160.37922 40.293041 
L 161.718565 40.293041 
L 163.907397 40.293041 
L 164.745835 40.293041 
L 166.476837 40.293041 
L 167.143651 40.293041 
L 169.070434 40.293041 
L 170.707525 40.293041 
L 172.535774 40.293041 
L 172.566291 40.293041 
L 174.987684 40.293041 
L 176.011215 40.293041 
L 177.435099 40.293041 
L 179.05778 40.293041 
L 179.703522 40.293041 
L 181.189771 40.293041 
L 182.408306 40.293041 
L 183.841681 40.293041 
L 185.450271 40.293041 
L 187.410712 40.293041 
L 188.079966 40.293041 
L 189.997476 40.293041 
L 190.988416 40.293041 
L 192.20239 40.293041 
L 194.142261 40.293041 
L 194.885156 40.293041 
L 196.654231 40.293041 
L 197.339182 40.293041 
L 199.524561 40.293041 
L 200.241958 40.293041 
L 201.640333 40.293041 
L 203.239332 40.293041 
L 204.06188 40.293041 
L 206.024164 40.293041 
L 207.531402 40.293041 
L 209.234434 40.293041 
L 210.417288 40.293041 
L 211.495568 40.293041 
L 212.934286 40.293041 
L 214.7365 40.293041 
L 215.152216 40.293041 
L 216.798366 40.293041 
L 218.310774 40.293041 
L 219.284489 40.293041 
L 220.634274 40.293041 
L 222.432266 40.293041 
L 223.653738 40.293041 
L 225.095602 40.293041 
L 226.577829 40.293041 
L 227.824475 40.293041 
L 228.940919 40.293041 
L 230.709944 40.293041 
L 232.00839 40.293041 
L 232.977758 40.293041 
L 234.507326 40.293041 
L 236.341255 40.293041 
L 237.605101 40.293041 
L 238.190003 40.293041 
L 239.752213 40.293041 
L 241.257219 40.293041 
L 242.656836 40.293041 
L 243.450985 40.293041 
L 244.856165 40.293041 
L 246.395277 40.293041 
L 247.697714 40.293041 
L 248.953327 40.293041 
L 251.097254 40.293041 
L 252.958458 40.293041 
L 254.251065 40.293041 
L 254.639475 40.293041 
L 256.449603 40.293041 
L 257.065834 40.293041 
L 258.577195 40.293041 
L 260.877939 40.293041 
L 262.267774 40.293041 
L 263.646084 40.293041 
L 263.889552 40.293041 
L 265.586479 40.293041 
L 267.582562 40.293041 
L 268.860372 40.293041 
L 270.32447 40.293041 
L 271.51473 40.293041 
L 273.312906 40.293041 
L 274.516506 40.293041 
L 275.516958 40.293041 
L 276.184587 40.293041 
L 278.865255 40.293041 
L 279.011799 40.293041 
L 280.981579 40.293041 
L 282.222765 40.293041 
L 283.423809 40.293041 
L 285.448447 40.293041 
L 286.005491 40.293041 
L 288.323984 40.293041 
L 289.637567 40.293041 
L 290.891166 40.293041 
L 291.353706 40.293041 
L 293.80726 40.293041 
L 295.118354 40.293041 
L 296.000819 40.293041 
L 297.120694 40.293041 
L 299.273549 40.293041 
L 300.659474 40.293041 
z
" clip-path="url(#pacb39a6e46)" style="fill: #008000; opacity: 0.5"/>
   </g>
   <g id="matplotlib.axis_1">
    <g id="xtick_1">
     <g id="line2d_1">
      <defs>
       <path id="m8382635a33" d="M 0 0 
L 0 3.5 
" style="stroke: #000000; stroke-width: 0.8"/>
      </defs>
      <g>
       <use xlink:href="#m8382635a33" x="30.103125" y="311.547479" style="stroke: #000000; stroke-width: 0.8"/>
      </g>
     </g>
    </g>
    <g id="xtick_2">
     <g id="line2d_2">
      <g>
       <use xlink:href="#m8382635a33" x="84.354013" y="311.547479" style="stroke: #000000; stroke-width: 0.8"/>
      </g>
     </g>
     <g id="text_1">
      <!-- 0.2 -->
      <g transform="translate(76.40245 326.145917)scale(0.1 -0.1)">
       <defs>
        <path id="DejaVuSans-30" d="M 2034 4250 
Q 1547 4250 1301 3770 
Q 1056 3291 1056 2328 
Q 1056 1369 1301 889 
Q 1547 409 2034 409 
Q 2525 409 2770 889 
Q 3016 1369 3016 2328 
Q 3016 3291 2770 3770 
Q 2525 4250 2034 4250 
z
M 2034 4750 
Q 2819 4750 3233 4129 
Q 3647 3509 3647 2328 
Q 3647 1150 3233 529 
Q 2819 -91 2034 -91 
Q 1250 -91 836 529 
Q 422 1150 422 2328 
Q 422 3509 836 4129 
Q 1250 4750 2034 4750 
z
" transform="scale(0.015625)"/>
        <path id="DejaVuSans-2e" d="M 684 794 
L 1344 794 
L 1344 0 
L 684 0 
L 684 794 
z
" transform="scale(0.015625)"/>
        <path id="DejaVuSans-32" d="M 1228 531 
L 3431 531 
L 3431 0 
L 469 0 
L 469 531 
Q 828 903 1448 1529 
Q 2069 2156 2228 2338 
Q 2531 2678 2651 2914 
Q 2772 3150 2772 3378 
Q 2772 3750 2511 3984 
Q 2250 4219 1831 4219 
Q 1534 4219 1204 4116 
Q 875 4013 500 3803 
L 500 4441 
Q 881 4594 1212 4672 
Q 1544 4750 1819 4750 
Q 2544 4750 2975 4387 
Q 3406 4025 3406 3419 
Q 3406 3131 3298 2873 
Q 3191 2616 2906 2266 
Q 2828 2175 2409 1742 
Q 1991 1309 1228 531 
z
" transform="scale(0.015625)"/>
       </defs>
       <use xlink:href="#DejaVuSans-30"/>
       <use xlink:href="#DejaVuSans-2e" x="63.623047"/>
       <use xlink:href="#DejaVuSans-32" x="95.410156"/>
      </g>
     </g>
    </g>
    <g id="xtick_3">
     <g id="line2d_3">
      <g>
       <use xlink:href="#m8382635a33" x="138.6049" y="311.547479" style="stroke: #000000; stroke-width: 0.8"/>
      </g>
     </g>
     <g id="text_2">
      <!-- 0.4 -->
      <g transform="translate(130.653338 326.145917)scale(0.1 -0.1)">
       <defs>
        <path id="DejaVuSans-34" d="M 2419 4116 
L 825 1625 
L 2419 1625 
L 2419 4116 
z
M 2253 4666 
L 3047 4666 
L 3047 1625 
L 3713 1625 
L 3713 1100 
L 3047 1100 
L 3047 0 
L 2419 0 
L 2419 1100 
L 313 1100 
L 313 1709 
L 2253 4666 
z
" transform="scale(0.015625)"/>
       </defs>
       <use xlink:href="#DejaVuSans-30"/>
       <use xlink:href="#DejaVuSans-2e" x="63.623047"/>
       <use xlink:href="#DejaVuSans-34" x="95.410156"/>
      </g>
     </g>
    </g>
    <g id="xtick_4">
     <g id="line2d_4">
      <g>
       <use xlink:href="#m8382635a33" x="192.855788" y="311.547479" style="stroke: #000000; stroke-width: 0.8"/>
      </g>
     </g>
     <g id="text_3">
      <!-- 0.6 -->
      <g transform="translate(184.904225 326.145917)scale(0.1 -0.1)">
       <defs>
        <path id="DejaVuSans-36" d="M 2113 2584 
Q 1688 2584 1439 2293 
Q 1191 2003 1191 1497 
Q 1191 994 1439 701 
Q 1688 409 2113 409 
Q 2538 409 2786 701 
Q 3034 994 3034 1497 
Q 3034 2003 2786 2293 
Q 2538 2584 2113 2584 
z
M 3366 4563 
L 3366 3988 
Q 3128 4100 2886 4159 
Q 2644 4219 2406 4219 
Q 1781 4219 1451 3797 
Q 1122 3375 1075 2522 
Q 1259 2794 1537 2939 
Q 1816 3084 2150 3084 
Q 2853 3084 3261 2657 
Q 3669 2231 3669 1497 
Q 3669 778 3244 343 
Q 2819 -91 2113 -91 
Q 1303 -91 875 529 
Q 447 1150 447 2328 
Q 447 3434 972 4092 
Q 1497 4750 2381 4750 
Q 2619 4750 2861 4703 
Q 3103 4656 3366 4563 
z
" transform="scale(0.015625)"/>
       </defs>
       <use xlink:href="#DejaVuSans-30"/>
       <use xlink:href="#DejaVuSans-2e" x="63.623047"/>
       <use xlink:href="#DejaVuSans-36" x="95.410156"/>
      </g>
     </g>
    </g>
    <g id="xtick_5">
     <g id="line2d_5">
      <g>
       <use xlink:href="#m8382635a33" x="247.106675" y="311.547479" style="stroke: #000000; stroke-width: 0.8"/>
      </g>
     </g>
     <g id="text_4">
      <!-- 0.8 -->
      <g transform="translate(239.155113 326.145917)scale(0.1 -0.1)">
       <defs>
        <path id="DejaVuSans-38" d="M 2034 2216 
Q 1584 2216 1326 1975 
Q 1069 1734 1069 1313 
Q 1069 891 1326 650 
Q 1584 409 2034 409 
Q 2484 409 2743 651 
Q 3003 894 3003 1313 
Q 3003 1734 2745 1975 
Q 2488 2216 2034 2216 
z
M 1403 2484 
Q 997 2584 770 2862 
Q 544 3141 544 3541 
Q 544 4100 942 4425 
Q 1341 4750 2034 4750 
Q 2731 4750 3128 4425 
Q 3525 4100 3525 3541 
Q 3525 3141 3298 2862 
Q 3072 2584 2669 2484 
Q 3125 2378 3379 2068 
Q 3634 1759 3634 1313 
Q 3634 634 3220 271 
Q 2806 -91 2034 -91 
Q 1263 -91 848 271 
Q 434 634 434 1313 
Q 434 1759 690 2068 
Q 947 2378 1403 2484 
z
M 1172 3481 
Q 1172 3119 1398 2916 
Q 1625 2713 2034 2713 
Q 2441 2713 2670 2916 
Q 2900 3119 2900 3481 
Q 2900 3844 2670 4047 
Q 2441 4250 2034 4250 
Q 1625 4250 1398 4047 
Q 1172 3844 1172 3481 
z
" transform="scale(0.015625)"/>
       </defs>
       <use xlink:href="#DejaVuSans-30"/>
       <use xlink:href="#DejaVuSans-2e" x="63.623047"/>
       <use xlink:href="#DejaVuSans-38" x="95.410156"/>
      </g>
     </g>
    </g>
    <g id="xtick_6">
     <g id="line2d_6">
      <g>
       <use xlink:href="#m8382635a33" x="301.357563" y="311.547479" style="stroke: #000000; stroke-width: 0.8"/>
      </g>
     </g>
     <g id="text_5">
      <!-- 1.0 -->
      <g transform="translate(293.406 326.145917)scale(0.1 -0.1)">
       <defs>
        <path id="DejaVuSans-31" d="M 794 531 
L 1825 531 
L 1825 4091 
L 703 3866 
L 703 4441 
L 1819 4666 
L 2450 4666 
L 2450 531 
L 3481 531 
L 3481 0 
L 794 0 
L 794 531 
z
" transform="scale(0.015625)"/>
       </defs>
       <use xlink:href="#DejaVuSans-31"/>
       <use xlink:href="#DejaVuSans-2e" x="63.623047"/>
       <use xlink:href="#DejaVuSans-30" x="95.410156"/>
      </g>
     </g>
    </g>
    <g id="xtick_7">
     <g id="line2d_7">
      <defs>
       <path id="mc06b259696" d="M 0 0 
L 0 2 
" style="stroke: #000000; stroke-width: 0.6"/>
      </defs>
      <g>
       <use xlink:href="#mc06b259696" x="43.665847" y="311.547479" style="stroke: #000000; stroke-width: 0.6"/>
      </g>
     </g>
    </g>
    <g id="xtick_8">
     <g id="line2d_8">
      <g>
       <use xlink:href="#mc06b259696" x="57.228569" y="311.547479" style="stroke: #000000; stroke-width: 0.6"/>
      </g>
     </g>
    </g>
    <g id="xtick_9">
     <g id="line2d_9">
      <g>
       <use xlink:href="#mc06b259696" x="70.791291" y="311.547479" style="stroke: #000000; stroke-width: 0.6"/>
      </g>
     </g>
    </g>
    <g id="xtick_10">
     <g id="line2d_10">
      <g>
       <use xlink:href="#mc06b259696" x="97.916734" y="311.547479" style="stroke: #000000; stroke-width: 0.6"/>
      </g>
     </g>
    </g>
    <g id="xtick_11">
     <g id="line2d_11">
      <g>
       <use xlink:href="#mc06b259696" x="111.479456" y="311.547479" style="stroke: #000000; stroke-width: 0.6"/>
      </g>
     </g>
    </g>
    <g id="xtick_12">
     <g id="line2d_12">
      <g>
       <use xlink:href="#mc06b259696" x="125.042178" y="311.547479" style="stroke: #000000; stroke-width: 0.6"/>
      </g>
     </g>
    </g>
    <g id="xtick_13">
     <g id="line2d_13">
      <g>
       <use xlink:href="#mc06b259696" x="152.167622" y="311.547479" style="stroke: #000000; stroke-width: 0.6"/>
      </g>
     </g>
    </g>
    <g id="xtick_14">
     <g id="line2d_14">
      <g>
       <use xlink:href="#mc06b259696" x="165.730344" y="311.547479" style="stroke: #000000; stroke-width: 0.6"/>
      </g>
     </g>
    </g>
    <g id="xtick_15">
     <g id="line2d_15">
      <g>
       <use xlink:href="#mc06b259696" x="179.293066" y="311.547479" style="stroke: #000000; stroke-width: 0.6"/>
      </g>
     </g>
    </g>
    <g id="xtick_16">
     <g id="line2d_16">
      <g>
       <use xlink:href="#mc06b259696" x="206.41851" y="311.547479" style="stroke: #000000; stroke-width: 0.6"/>
      </g>
     </g>
    </g>
    <g id="xtick_17">
     <g id="line2d_17">
      <g>
       <use xlink:href="#mc06b259696" x="219.981232" y="311.547479" style="stroke: #000000; stroke-width: 0.6"/>
      </g>
     </g>
    </g>
    <g id="xtick_18">
     <g id="line2d_18">
      <g>
       <use xlink:href="#mc06b259696" x="233.543953" y="311.547479" style="stroke: #000000; stroke-width: 0.6"/>
      </g>
     </g>
    </g>
    <g id="xtick_19">
     <g id="line2d_19">
      <g>
       <use xlink:href="#mc06b259696" x="260.669397" y="311.547479" style="stroke: #000000; stroke-width: 0.6"/>
      </g>
     </g>
    </g>
    <g id="xtick_20">
     <g id="line2d_20">
      <g>
       <use xlink:href="#mc06b259696" x="274.232119" y="311.547479" style="stroke: #000000; stroke-width: 0.6"/>
      </g>
     </g>
    </g>
    <g id="xtick_21">
     <g id="line2d_21">
      <g>
       <use xlink:href="#mc06b259696" x="287.794841" y="311.547479" style="stroke: #000000; stroke-width: 0.6"/>
      </g>
     </g>
    </g>
   </g>
   <g id="matplotlib.axis_2">
    <g id="ytick_1">
     <g id="line2d_22">
      <defs>
       <path id="m8abcce3bba" d="M 0 0 
L -3.5 0 
" style="stroke: #000000; stroke-width: 0.8"/>
      </defs>
      <g>
       <use xlink:href="#m8abcce3bba" x="30.103125" y="311.547479" style="stroke: #000000; stroke-width: 0.8"/>
      </g>
     </g>
    </g>
    <g id="ytick_2">
     <g id="line2d_23">
      <g>
       <use xlink:href="#m8abcce3bba" x="30.103125" y="257.296592" style="stroke: #000000; stroke-width: 0.8"/>
      </g>
     </g>
     <g id="text_6">
      <!-- 0.2 -->
      <g transform="translate(7.2 261.09581)scale(0.1 -0.1)">
       <use xlink:href="#DejaVuSans-30"/>
       <use xlink:href="#DejaVuSans-2e" x="63.623047"/>
       <use xlink:href="#DejaVuSans-32" x="95.410156"/>
      </g>
     </g>
    </g>
    <g id="ytick_3">
     <g id="line2d_24">
      <g>
       <use xlink:href="#m8abcce3bba" x="30.103125" y="203.045704" style="stroke: #000000; stroke-width: 0.8"/>
      </g>
     </g>
     <g id="text_7">
      <!-- 0.4 -->
      <g transform="translate(7.2 206.844923)scale(0.1 -0.1)">
       <use xlink:href="#DejaVuSans-30"/>
       <use xlink:href="#DejaVuSans-2e" x="63.623047"/>
       <use xlink:href="#DejaVuSans-34" x="95.410156"/>
      </g>
     </g>
    </g>
    <g id="ytick_4">
     <g id="line2d_25">
      <g>
       <use xlink:href="#m8abcce3bba" x="30.103125" y="148.794817" style="stroke: #000000; stroke-width: 0.8"/>
      </g>
     </g>
     <g id="text_8">
      <!-- 0.6 -->
      <g transform="translate(7.2 152.594035)scale(0.1 -0.1)">
       <use xlink:href="#DejaVuSans-30"/>
       <use xlink:href="#DejaVuSans-2e" x="63.623047"/>
       <use xlink:href="#DejaVuSans-36" x="95.410156"/>
      </g>
     </g>
    </g>
    <g id="ytick_5">
     <g id="line2d_26">
      <g>
       <use xlink:href="#m8abcce3bba" x="30.103125" y="94.543929" style="stroke: #000000; stroke-width: 0.8"/>
      </g>
     </g>
     <g id="text_9">
      <!-- 0.8 -->
      <g transform="translate(7.2 98.343148)scale(0.1 -0.1)">
       <use xlink:href="#DejaVuSans-30"/>
       <use xlink:href="#DejaVuSans-2e" x="63.623047"/>
       <use xlink:href="#DejaVuSans-38" x="95.410156"/>
      </g>
     </g>
    </g>
    <g id="ytick_6">
     <g id="line2d_27">
      <g>
       <use xlink:href="#m8abcce3bba" x="30.103125" y="40.293041" style="stroke: #000000; stroke-width: 0.8"/>
      </g>
     </g>
     <g id="text_10">
      <!-- 1.0 -->
      <g transform="translate(7.2 44.09226)scale(0.1 -0.1)">
       <use xlink:href="#DejaVuSans-31"/>
       <use xlink:href="#DejaVuSans-2e" x="63.623047"/>
       <use xlink:href="#DejaVuSans-30" x="95.410156"/>
      </g>
     </g>
    </g>
    <g id="ytick_7">
     <g id="line2d_28">
      <defs>
       <path id="mf671bc997b" d="M 0 0 
L -2 0 
" style="stroke: #000000; stroke-width: 0.6"/>
      </defs>
      <g>
       <use xlink:href="#mf671bc997b" x="30.103125" y="297.984757" style="stroke: #000000; stroke-width: 0.6"/>
      </g>
     </g>
    </g>
    <g id="ytick_8">
     <g id="line2d_29">
      <g>
       <use xlink:href="#mf671bc997b" x="30.103125" y="284.422036" style="stroke: #000000; stroke-width: 0.6"/>
      </g>
     </g>
    </g>
    <g id="ytick_9">
     <g id="line2d_30">
      <g>
       <use xlink:href="#mf671bc997b" x="30.103125" y="270.859314" style="stroke: #000000; stroke-width: 0.6"/>
      </g>
     </g>
    </g>
    <g id="ytick_10">
     <g id="line2d_31">
      <g>
       <use xlink:href="#mf671bc997b" x="30.103125" y="243.73387" style="stroke: #000000; stroke-width: 0.6"/>
      </g>
     </g>
    </g>
    <g id="ytick_11">
     <g id="line2d_32">
      <g>
       <use xlink:href="#mf671bc997b" x="30.103125" y="230.171148" style="stroke: #000000; stroke-width: 0.6"/>
      </g>
     </g>
    </g>
    <g id="ytick_12">
     <g id="line2d_33">
      <g>
       <use xlink:href="#mf671bc997b" x="30.103125" y="216.608426" style="stroke: #000000; stroke-width: 0.6"/>
      </g>
     </g>
    </g>
    <g id="ytick_13">
     <g id="line2d_34">
      <g>
       <use xlink:href="#mf671bc997b" x="30.103125" y="189.482982" style="stroke: #000000; stroke-width: 0.6"/>
      </g>
     </g>
    </g>
    <g id="ytick_14">
     <g id="line2d_35">
      <g>
       <use xlink:href="#mf671bc997b" x="30.103125" y="175.92026" style="stroke: #000000; stroke-width: 0.6"/>
      </g>
     </g>
    </g>
    <g id="ytick_15">
     <g id="line2d_36">
      <g>
       <use xlink:href="#mf671bc997b" x="30.103125" y="162.357538" style="stroke: #000000; stroke-width: 0.6"/>
      </g>
     </g>
    </g>
    <g id="ytick_16">
     <g id="line2d_37">
      <g>
       <use xlink:href="#mf671bc997b" x="30.103125" y="135.232095" style="stroke: #000000; stroke-width: 0.6"/>
      </g>
     </g>
    </g>
    <g id="ytick_17">
     <g id="line2d_38">
      <g>
       <use xlink:href="#mf671bc997b" x="30.103125" y="121.669373" style="stroke: #000000; stroke-width: 0.6"/>
      </g>
     </g>
    </g>
    <g id="ytick_18">
     <g id="line2d_39">
      <g>
       <use xlink:href="#mf671bc997b" x="30.103125" y="108.106651" style="stroke: #000000; stroke-width: 0.6"/>
      </g>
     </g>
    </g>
    <g id="ytick_19">
     <g id="line2d_40">
      <g>
       <use xlink:href="#mf671bc997b" x="30.103125" y="80.981207" style="stroke: #000000; stroke-width: 0.6"/>
      </g>
     </g>
    </g>
    <g id="ytick_20">
     <g id="line2d_41">
      <g>
       <use xlink:href="#mf671bc997b" x="30.103125" y="67.418485" style="stroke: #000000; stroke-width: 0.6"/>
      </g>
     </g>
    </g>
    <g id="ytick_21">
     <g id="line2d_42">
      <g>
       <use xlink:href="#mf671bc997b" x="30.103125" y="53.855763" style="stroke: #000000; stroke-width: 0.6"/>
      </g>
     </g>
    </g>
    <g id="ytick_22">
     <g id="line2d_43">
      <g>
       <use xlink:href="#mf671bc997b" x="30.103125" y="26.73032" style="stroke: #000000; stroke-width: 0.6"/>
      </g>
     </g>
    </g>
    <g id="ytick_23">
     <g id="line2d_44">
      <g>
       <use xlink:href="#mf671bc997b" x="30.103125" y="13.167598" style="stroke: #000000; stroke-width: 0.6"/>
      </g>
     </g>
    </g>
   </g>
   <g id="line2d_45">
    <path d="M 30.103125 40.293041 
L 301.357563 40.293041 
L 301.357563 40.293041 
" clip-path="url(#pacb39a6e46)" style="fill: none; stroke: #0000ff; stroke-linecap: square"/>
   </g>
   <g id="line2d_46">
    <path d="M 30.103125 311.547479 
L 36.310611 311.405425 
L 40.665024 311.136228 
L 46.765161 310.524 
L 51.321855 309.887656 
L 57.953537 308.688004 
L 63.466128 307.443989 
L 68.243238 306.184735 
L 74.461738 304.293454 
L 80.453866 302.201283 
L 85.875977 300.079977 
L 92.232189 297.317221 
L 98.858264 294.120044 
L 103.159551 291.871335 
L 110.237503 287.874066 
L 116.291321 284.162102 
L 122.339499 280.183758 
L 127.928982 276.267325 
L 134.878296 271.076855 
L 140.546961 266.579216 
L 147.292561 260.918394 
L 154.085862 254.878474 
L 160.796844 248.57764 
L 167.249005 242.206707 
L 174.284061 234.91042 
L 181.123672 227.466991 
L 188.190751 219.413696 
L 195.864966 210.251486 
L 203.416394 200.812004 
L 210.75498 191.235742 
L 218.291944 180.987287 
L 225.339709 171.025083 
L 233.28841 159.349933 
L 240.378307 148.543134 
L 247.82761 136.789227 
L 256.0754 123.298138 
L 264.582196 108.857948 
L 273.028048 93.993367 
L 280.787635 79.873027 
L 287.492469 67.314519 
L 295.80021 51.293889 
L 301.357563 40.293041 
L 301.357563 40.293041 
" clip-path="url(#pacb39a6e46)" style="fill: none; stroke: #ff0000; stroke-linecap: square"/>
   </g>
   <g id="patch_4">
    <path d="M 30.103125 317.515077 
L 30.103125 7.2 
" style="fill: none; stroke: #000000; stroke-width: 0.8; stroke-linejoin: miter; stroke-linecap: square"/>
   </g>
   <g id="patch_5">
    <path d="M 24.678036 311.547479 
L 306.782652 311.547479 
" style="fill: none; stroke: #000000; stroke-width: 0.8; stroke-linejoin: miter; stroke-linecap: square"/>
   </g>
   <g id="text_11">
    <!-- $y=1$ -->
    <g transform="translate(153.010344 16.454473)scale(0.12 -0.12)">
     <defs>
      <path id="Cmmi10-79" d="M 538 -916 
Q 672 -1147 1006 -1147 
Q 1309 -1147 1531 -934 
Q 1753 -722 1889 -420 
Q 2025 -119 2100 197 
Q 1816 -72 1484 -72 
Q 1231 -72 1053 15 
Q 875 103 776 276 
Q 678 450 678 697 
Q 678 906 734 1126 
Q 791 1347 892 1617 
Q 994 1888 1069 2088 
Q 1153 2322 1153 2472 
Q 1153 2663 1013 2663 
Q 759 2663 595 2402 
Q 431 2141 353 1819 
Q 341 1778 300 1778 
L 225 1778 
Q 172 1778 172 1838 
L 172 1856 
Q 275 2238 487 2533 
Q 700 2828 1025 2828 
Q 1253 2828 1411 2678 
Q 1569 2528 1569 2297 
Q 1569 2178 1516 2047 
Q 1488 1969 1388 1706 
Q 1288 1444 1234 1272 
Q 1181 1100 1147 934 
Q 1113 769 1113 603 
Q 1113 391 1203 244 
Q 1294 97 1491 97 
Q 1888 97 2203 581 
L 2688 2553 
Q 2709 2638 2787 2698 
Q 2866 2759 2956 2759 
Q 3034 2759 3092 2709 
Q 3150 2659 3150 2578 
Q 3150 2541 3144 2528 
L 2509 -19 
Q 2425 -347 2200 -647 
Q 1975 -947 1658 -1130 
Q 1341 -1313 997 -1313 
Q 831 -1313 668 -1248 
Q 506 -1184 406 -1056 
Q 306 -928 306 -756 
Q 306 -581 409 -453 
Q 513 -325 684 -325 
Q 788 -325 858 -389 
Q 928 -453 928 -556 
Q 928 -703 818 -812 
Q 709 -922 563 -922 
Q 556 -919 550 -917 
Q 544 -916 538 -916 
z
" transform="scale(0.015625)"/>
      <path id="Cmr10-3d" d="M 481 850 
Q 428 850 393 890 
Q 359 931 359 978 
Q 359 1031 393 1068 
Q 428 1106 481 1106 
L 4500 1106 
Q 4547 1106 4581 1068 
Q 4616 1031 4616 978 
Q 4616 931 4581 890 
Q 4547 850 4500 850 
L 481 850 
z
M 481 2094 
Q 428 2094 393 2131 
Q 359 2169 359 2222 
Q 359 2269 393 2309 
Q 428 2350 481 2350 
L 4500 2350 
Q 4547 2350 4581 2309 
Q 4616 2269 4616 2222 
Q 4616 2169 4581 2131 
Q 4547 2094 4500 2094 
L 481 2094 
z
" transform="scale(0.015625)"/>
      <path id="Cmr10-31" d="M 594 0 
L 594 225 
Q 1394 225 1394 428 
L 1394 3788 
Q 1063 3628 556 3628 
L 556 3853 
Q 1341 3853 1741 4263 
L 1831 4263 
Q 1853 4263 1873 4245 
Q 1894 4228 1894 4206 
L 1894 428 
Q 1894 225 2694 225 
L 2694 0 
L 594 0 
z
" transform="scale(0.015625)"/>
     </defs>
     <use xlink:href="#Cmmi10-79" transform="translate(0 0.390625)"/>
     <use xlink:href="#Cmr10-3d" transform="translate(66.582031 0.390625)"/>
     <use xlink:href="#Cmr10-31" transform="translate(161.826172 0.390625)"/>
    </g>
   </g>
   <g id="text_12">
    <!-- $y=x^2$ -->
    <g transform="translate(149.710344 220.448426)scale(0.12 -0.12)">
     <defs>
      <path id="Cmmi10-78" d="M 500 184 
Q 613 97 819 97 
Q 1019 97 1172 289 
Q 1325 481 1381 709 
L 1672 1844 
Q 1741 2153 1741 2266 
Q 1741 2425 1652 2544 
Q 1563 2663 1403 2663 
Q 1200 2663 1022 2536 
Q 844 2409 722 2214 
Q 600 2019 550 1819 
Q 538 1778 500 1778 
L 422 1778 
Q 372 1778 372 1838 
L 372 1856 
Q 434 2094 584 2320 
Q 734 2547 951 2687 
Q 1169 2828 1416 2828 
Q 1650 2828 1839 2703 
Q 2028 2578 2106 2363 
Q 2216 2559 2386 2693 
Q 2556 2828 2759 2828 
Q 2897 2828 3040 2779 
Q 3184 2731 3275 2631 
Q 3366 2531 3366 2381 
Q 3366 2219 3261 2101 
Q 3156 1984 2994 1984 
Q 2891 1984 2822 2050 
Q 2753 2116 2753 2216 
Q 2753 2350 2845 2451 
Q 2938 2553 3066 2572 
Q 2950 2663 2747 2663 
Q 2541 2663 2389 2472 
Q 2238 2281 2175 2047 
L 1894 916 
Q 1825 659 1825 494 
Q 1825 331 1917 214 
Q 2009 97 2163 97 
Q 2463 97 2698 361 
Q 2934 625 3009 941 
Q 3022 978 3059 978 
L 3138 978 
Q 3163 978 3178 961 
Q 3194 944 3194 922 
Q 3194 916 3188 903 
Q 3097 522 2806 225 
Q 2516 -72 2150 -72 
Q 1916 -72 1727 54 
Q 1538 181 1459 397 
Q 1359 209 1182 68 
Q 1006 -72 806 -72 
Q 669 -72 523 -23 
Q 378 25 287 125 
Q 197 225 197 378 
Q 197 528 301 651 
Q 406 775 563 775 
Q 669 775 741 711 
Q 813 647 813 544 
Q 813 409 723 309 
Q 634 209 500 184 
z
" transform="scale(0.015625)"/>
      <path id="Cmr10-32" d="M 319 0 
L 319 172 
Q 319 188 331 206 
L 1325 1306 
Q 1550 1550 1690 1715 
Q 1831 1881 1968 2097 
Q 2106 2313 2186 2536 
Q 2266 2759 2266 3009 
Q 2266 3272 2169 3511 
Q 2072 3750 1880 3894 
Q 1688 4038 1416 4038 
Q 1138 4038 916 3870 
Q 694 3703 603 3438 
Q 628 3444 672 3444 
Q 816 3444 917 3347 
Q 1019 3250 1019 3097 
Q 1019 2950 917 2848 
Q 816 2747 672 2747 
Q 522 2747 420 2851 
Q 319 2956 319 3097 
Q 319 3338 409 3548 
Q 500 3759 670 3923 
Q 841 4088 1055 4175 
Q 1269 4263 1509 4263 
Q 1875 4263 2190 4108 
Q 2506 3953 2690 3670 
Q 2875 3388 2875 3009 
Q 2875 2731 2753 2481 
Q 2631 2231 2440 2026 
Q 2250 1822 1953 1562 
Q 1656 1303 1563 1216 
L 838 519 
L 1453 519 
Q 1906 519 2211 526 
Q 2516 534 2534 550 
Q 2609 631 2688 1141 
L 2875 1141 
L 2694 0 
L 319 0 
z
" transform="scale(0.015625)"/>
     </defs>
     <use xlink:href="#Cmmi10-79" transform="translate(0 0.109375)"/>
     <use xlink:href="#Cmr10-3d" transform="translate(66.582031 0.109375)"/>
     <use xlink:href="#Cmmi10-78" transform="translate(161.826172 0.109375)"/>
     <use xlink:href="#Cmr10-32" transform="translate(225.209531 38.373438)scale(0.7)"/>
    </g>
   </g>
   <g id="text_13">
    <!-- $\mathcal{R}$ -->
    <g transform="translate(79.254013 97.855179)scale(0.12 -0.12)">
     <defs>
      <path id="Cmsy10-52" d="M 738 -91 
Q 738 -78 744 -56 
Q 966 475 1128 959 
Q 1291 1444 1428 1991 
Q 1678 2959 1766 3994 
Q 1425 3994 1094 3872 
Q 922 3803 833 3695 
Q 744 3588 684 3397 
Q 622 3291 472 3197 
Q 322 3103 206 3103 
L 166 3103 
Q 122 3131 122 3169 
Q 234 3556 581 3828 
Q 928 4100 1387 4236 
Q 1847 4372 2259 4372 
L 2931 4372 
Q 3378 4372 3739 4331 
Q 4100 4291 4392 4112 
Q 4684 3934 4684 3572 
Q 4684 3281 4548 3014 
Q 4413 2747 4189 2533 
Q 3966 2319 3697 2158 
Q 3428 1997 3156 1900 
Q 3253 1784 3383 1501 
Q 3513 1219 3659 911 
Q 3806 603 3951 420 
Q 4097 238 4256 238 
Q 4444 238 4551 308 
Q 4659 378 4775 520 
Q 4891 663 4997 745 
Q 5103 828 5281 844 
L 5319 844 
Q 5363 822 5363 794 
Q 5363 784 5356 768 
Q 5350 753 5344 738 
Q 5188 503 4936 297 
Q 4684 91 4393 -25 
Q 4103 -141 3828 -141 
L 3788 -141 
Q 3541 -141 3372 98 
Q 3203 338 3003 811 
Q 2803 1284 2651 1515 
Q 2500 1747 2278 1747 
Q 2266 1753 2250 1765 
Q 2234 1778 2234 1797 
Q 2234 1900 2420 2006 
Q 2606 2113 2719 2125 
Q 3072 2125 3395 2262 
Q 3719 2400 3917 2667 
Q 4116 2934 4116 3291 
Q 4116 3613 3833 3767 
Q 3550 3922 3203 3958 
Q 2856 3994 2450 3994 
L 2309 3994 
Q 2209 3041 1954 2070 
Q 1700 1100 1300 153 
Q 1238 41 1092 -43 
Q 947 -128 813 -141 
L 781 -141 
Q 769 -134 753 -121 
Q 738 -109 738 -91 
z
" transform="scale(0.015625)"/>
     </defs>
     <use xlink:href="#Cmsy10-52" transform="translate(0 0.6875)"/>
    </g>
   </g>
  </g>
 </g>
 <defs>
  <clipPath id="pacb39a6e46">
   <rect x="24.678036" y="7.2" width="282.104615" height="310.315077"/>
  </clipPath>
 </defs>
</svg>
