<?xml version="1.0" encoding="utf-8" standalone="no"?>
<!DOCTYPE svg PUBLIC "-//W3C//DTD SVG 1.1//EN"
  "http://www.w3.org/Graphics/SVG/1.1/DTD/svg11.dtd">
<svg xmlns:xlink="http://www.w3.org/1999/xlink" width="282.957746pt" height="337.397018pt" viewBox="0 0 282.957746 337.397018" xmlns="http://www.w3.org/2000/svg" version="1.1">
 <metadata>
  <rdf:RDF xmlns:dc="http://purl.org/dc/elements/1.1/" xmlns:cc="http://creativecommons.org/ns#" xmlns:rdf="http://www.w3.org/1999/02/22-rdf-syntax-ns#">
   <cc:Work>
    <dc:type rdf:resource="http://purl.org/dc/dcmitype/StillImage"/>
    <dc:date>2022-11-10T16:45:53.395982</dc:date>
    <dc:format>image/svg+xml</dc:format>
    <dc:creator>
     <cc:Agent>
      <dc:title>Matplotlib v3.5.1, https://matplotlib.org/</dc:title>
     </cc:Agent>
    </dc:creator>
   </cc:Work>
  </rdf:RDF>
 </metadata>
 <defs>
  <style type="text/css">*{stroke-linejoin: round; stroke-linecap: butt}</style>
 </defs>
 <g id="figure_1">
  <g id="patch_1">
   <path d="M 0 337.397018 
L 282.957746 337.397018 
L 282.957746 0 
L 0 0 
z
" style="fill: #ffffff"/>
  </g>
  <g id="axes_1">
   <g id="patch_2">
    <path d="M 14.372595 330.197018 
L 272.775469 330.197018 
L 272.775469 7.2 
L 14.372595 7.2 
z
" style="fill: #ffffff"/>
   </g>
   <g id="matplotlib.axis_1">
    <g id="xtick_1">
     <g id="line2d_1">
      <defs>
       <path id="m4dcdf78be7" d="M 0 0 
L 0 3.5 
" style="stroke: #000000; stroke-width: 0.8"/>
      </defs>
      <g>
       <use xlink:href="#m4dcdf78be7" x="19.341406" y="199.75378" style="stroke: #000000; stroke-width: 0.8"/>
      </g>
     </g>
     <g id="text_1">
      <!-- −2.0 -->
      <g transform="translate(7.2 214.352218)scale(0.1 -0.1)">
       <defs>
        <path id="DejaVuSans-2212" d="M 678 2272 
L 4684 2272 
L 4684 1741 
L 678 1741 
L 678 2272 
z
" transform="scale(0.015625)"/>
        <path id="DejaVuSans-32" d="M 1228 531 
L 3431 531 
L 3431 0 
L 469 0 
L 469 531 
Q 828 903 1448 1529 
Q 2069 2156 2228 2338 
Q 2531 2678 2651 2914 
Q 2772 3150 2772 3378 
Q 2772 3750 2511 3984 
Q 2250 4219 1831 4219 
Q 1534 4219 1204 4116 
Q 875 4013 500 3803 
L 500 4441 
Q 881 4594 1212 4672 
Q 1544 4750 1819 4750 
Q 2544 4750 2975 4387 
Q 3406 4025 3406 3419 
Q 3406 3131 3298 2873 
Q 3191 2616 2906 2266 
Q 2828 2175 2409 1742 
Q 1991 1309 1228 531 
z
" transform="scale(0.015625)"/>
        <path id="DejaVuSans-2e" d="M 684 794 
L 1344 794 
L 1344 0 
L 684 0 
L 684 794 
z
" transform="scale(0.015625)"/>
        <path id="DejaVuSans-30" d="M 2034 4250 
Q 1547 4250 1301 3770 
Q 1056 3291 1056 2328 
Q 1056 1369 1301 889 
Q 1547 409 2034 409 
Q 2525 409 2770 889 
Q 3016 1369 3016 2328 
Q 3016 3291 2770 3770 
Q 2525 4250 2034 4250 
z
M 2034 4750 
Q 2819 4750 3233 4129 
Q 3647 3509 3647 2328 
Q 3647 1150 3233 529 
Q 2819 -91 2034 -91 
Q 1250 -91 836 529 
Q 422 1150 422 2328 
Q 422 3509 836 4129 
Q 1250 4750 2034 4750 
z
" transform="scale(0.015625)"/>
       </defs>
       <use xlink:href="#DejaVuSans-2212"/>
       <use xlink:href="#DejaVuSans-32" x="83.789062"/>
       <use xlink:href="#DejaVuSans-2e" x="147.412109"/>
       <use xlink:href="#DejaVuSans-30" x="179.199219"/>
      </g>
     </g>
    </g>
    <g id="xtick_2">
     <g id="line2d_2">
      <g>
       <use xlink:href="#m4dcdf78be7" x="50.399503" y="199.75378" style="stroke: #000000; stroke-width: 0.8"/>
      </g>
     </g>
     <g id="text_2">
      <!-- −1.5 -->
      <g transform="translate(38.258097 214.352218)scale(0.1 -0.1)">
       <defs>
        <path id="DejaVuSans-31" d="M 794 531 
L 1825 531 
L 1825 4091 
L 703 3866 
L 703 4441 
L 1819 4666 
L 2450 4666 
L 2450 531 
L 3481 531 
L 3481 0 
L 794 0 
L 794 531 
z
" transform="scale(0.015625)"/>
        <path id="DejaVuSans-35" d="M 691 4666 
L 3169 4666 
L 3169 4134 
L 1269 4134 
L 1269 2991 
Q 1406 3038 1543 3061 
Q 1681 3084 1819 3084 
Q 2600 3084 3056 2656 
Q 3513 2228 3513 1497 
Q 3513 744 3044 326 
Q 2575 -91 1722 -91 
Q 1428 -91 1123 -41 
Q 819 9 494 109 
L 494 744 
Q 775 591 1075 516 
Q 1375 441 1709 441 
Q 2250 441 2565 725 
Q 2881 1009 2881 1497 
Q 2881 1984 2565 2268 
Q 2250 2553 1709 2553 
Q 1456 2553 1204 2497 
Q 953 2441 691 2322 
L 691 4666 
z
" transform="scale(0.015625)"/>
       </defs>
       <use xlink:href="#DejaVuSans-2212"/>
       <use xlink:href="#DejaVuSans-31" x="83.789062"/>
       <use xlink:href="#DejaVuSans-2e" x="147.412109"/>
       <use xlink:href="#DejaVuSans-35" x="179.199219"/>
      </g>
     </g>
    </g>
    <g id="xtick_3">
     <g id="line2d_3">
      <g>
       <use xlink:href="#m4dcdf78be7" x="81.457601" y="199.75378" style="stroke: #000000; stroke-width: 0.8"/>
      </g>
     </g>
     <g id="text_3">
      <!-- −1.0 -->
      <g transform="translate(69.316194 214.352218)scale(0.1 -0.1)">
       <use xlink:href="#DejaVuSans-2212"/>
       <use xlink:href="#DejaVuSans-31" x="83.789062"/>
       <use xlink:href="#DejaVuSans-2e" x="147.412109"/>
       <use xlink:href="#DejaVuSans-30" x="179.199219"/>
      </g>
     </g>
    </g>
    <g id="xtick_4">
     <g id="line2d_4">
      <g>
       <use xlink:href="#m4dcdf78be7" x="112.515698" y="199.75378" style="stroke: #000000; stroke-width: 0.8"/>
      </g>
     </g>
     <g id="text_4">
      <!-- −0.5 -->
      <g transform="translate(100.374291 214.352218)scale(0.1 -0.1)">
       <use xlink:href="#DejaVuSans-2212"/>
       <use xlink:href="#DejaVuSans-30" x="83.789062"/>
       <use xlink:href="#DejaVuSans-2e" x="147.412109"/>
       <use xlink:href="#DejaVuSans-35" x="179.199219"/>
      </g>
     </g>
    </g>
    <g id="xtick_5">
     <g id="line2d_5">
      <g>
       <use xlink:href="#m4dcdf78be7" x="143.573795" y="199.75378" style="stroke: #000000; stroke-width: 0.8"/>
      </g>
     </g>
    </g>
    <g id="xtick_6">
     <g id="line2d_6">
      <g>
       <use xlink:href="#m4dcdf78be7" x="174.631892" y="199.75378" style="stroke: #000000; stroke-width: 0.8"/>
      </g>
     </g>
     <g id="text_5">
      <!-- 0.5 -->
      <g transform="translate(166.680329 214.352218)scale(0.1 -0.1)">
       <use xlink:href="#DejaVuSans-30"/>
       <use xlink:href="#DejaVuSans-2e" x="63.623047"/>
       <use xlink:href="#DejaVuSans-35" x="95.410156"/>
      </g>
     </g>
    </g>
    <g id="xtick_7">
     <g id="line2d_7">
      <g>
       <use xlink:href="#m4dcdf78be7" x="205.689989" y="199.75378" style="stroke: #000000; stroke-width: 0.8"/>
      </g>
     </g>
     <g id="text_6">
      <!-- 1.0 -->
      <g transform="translate(197.738427 214.352218)scale(0.1 -0.1)">
       <use xlink:href="#DejaVuSans-31"/>
       <use xlink:href="#DejaVuSans-2e" x="63.623047"/>
       <use xlink:href="#DejaVuSans-30" x="95.410156"/>
      </g>
     </g>
    </g>
    <g id="xtick_8">
     <g id="line2d_8">
      <g>
       <use xlink:href="#m4dcdf78be7" x="236.748086" y="199.75378" style="stroke: #000000; stroke-width: 0.8"/>
      </g>
     </g>
     <g id="text_7">
      <!-- 1.5 -->
      <g transform="translate(228.796524 214.352218)scale(0.1 -0.1)">
       <use xlink:href="#DejaVuSans-31"/>
       <use xlink:href="#DejaVuSans-2e" x="63.623047"/>
       <use xlink:href="#DejaVuSans-35" x="95.410156"/>
      </g>
     </g>
    </g>
    <g id="xtick_9">
     <g id="line2d_9">
      <g>
       <use xlink:href="#m4dcdf78be7" x="267.806183" y="199.75378" style="stroke: #000000; stroke-width: 0.8"/>
      </g>
     </g>
     <g id="text_8">
      <!-- 2.0 -->
      <g transform="translate(259.854621 214.352218)scale(0.1 -0.1)">
       <use xlink:href="#DejaVuSans-32"/>
       <use xlink:href="#DejaVuSans-2e" x="63.623047"/>
       <use xlink:href="#DejaVuSans-30" x="95.410156"/>
      </g>
     </g>
    </g>
    <g id="xtick_10">
     <g id="line2d_10">
      <defs>
       <path id="m71a584a31f" d="M 0 0 
L 0 2 
" style="stroke: #000000; stroke-width: 0.6"/>
      </defs>
      <g>
       <use xlink:href="#m71a584a31f" x="25.553026" y="199.75378" style="stroke: #000000; stroke-width: 0.6"/>
      </g>
     </g>
    </g>
    <g id="xtick_11">
     <g id="line2d_11">
      <g>
       <use xlink:href="#m71a584a31f" x="31.764645" y="199.75378" style="stroke: #000000; stroke-width: 0.6"/>
      </g>
     </g>
    </g>
    <g id="xtick_12">
     <g id="line2d_12">
      <g>
       <use xlink:href="#m71a584a31f" x="37.976265" y="199.75378" style="stroke: #000000; stroke-width: 0.6"/>
      </g>
     </g>
    </g>
    <g id="xtick_13">
     <g id="line2d_13">
      <g>
       <use xlink:href="#m71a584a31f" x="44.187884" y="199.75378" style="stroke: #000000; stroke-width: 0.6"/>
      </g>
     </g>
    </g>
    <g id="xtick_14">
     <g id="line2d_14">
      <g>
       <use xlink:href="#m71a584a31f" x="56.611123" y="199.75378" style="stroke: #000000; stroke-width: 0.6"/>
      </g>
     </g>
    </g>
    <g id="xtick_15">
     <g id="line2d_15">
      <g>
       <use xlink:href="#m71a584a31f" x="62.822742" y="199.75378" style="stroke: #000000; stroke-width: 0.6"/>
      </g>
     </g>
    </g>
    <g id="xtick_16">
     <g id="line2d_16">
      <g>
       <use xlink:href="#m71a584a31f" x="69.034362" y="199.75378" style="stroke: #000000; stroke-width: 0.6"/>
      </g>
     </g>
    </g>
    <g id="xtick_17">
     <g id="line2d_17">
      <g>
       <use xlink:href="#m71a584a31f" x="75.245981" y="199.75378" style="stroke: #000000; stroke-width: 0.6"/>
      </g>
     </g>
    </g>
    <g id="xtick_18">
     <g id="line2d_18">
      <g>
       <use xlink:href="#m71a584a31f" x="87.66922" y="199.75378" style="stroke: #000000; stroke-width: 0.6"/>
      </g>
     </g>
    </g>
    <g id="xtick_19">
     <g id="line2d_19">
      <g>
       <use xlink:href="#m71a584a31f" x="93.880839" y="199.75378" style="stroke: #000000; stroke-width: 0.6"/>
      </g>
     </g>
    </g>
    <g id="xtick_20">
     <g id="line2d_20">
      <g>
       <use xlink:href="#m71a584a31f" x="100.092459" y="199.75378" style="stroke: #000000; stroke-width: 0.6"/>
      </g>
     </g>
    </g>
    <g id="xtick_21">
     <g id="line2d_21">
      <g>
       <use xlink:href="#m71a584a31f" x="106.304078" y="199.75378" style="stroke: #000000; stroke-width: 0.6"/>
      </g>
     </g>
    </g>
    <g id="xtick_22">
     <g id="line2d_22">
      <g>
       <use xlink:href="#m71a584a31f" x="118.727317" y="199.75378" style="stroke: #000000; stroke-width: 0.6"/>
      </g>
     </g>
    </g>
    <g id="xtick_23">
     <g id="line2d_23">
      <g>
       <use xlink:href="#m71a584a31f" x="124.938937" y="199.75378" style="stroke: #000000; stroke-width: 0.6"/>
      </g>
     </g>
    </g>
    <g id="xtick_24">
     <g id="line2d_24">
      <g>
       <use xlink:href="#m71a584a31f" x="131.150556" y="199.75378" style="stroke: #000000; stroke-width: 0.6"/>
      </g>
     </g>
    </g>
    <g id="xtick_25">
     <g id="line2d_25">
      <g>
       <use xlink:href="#m71a584a31f" x="137.362175" y="199.75378" style="stroke: #000000; stroke-width: 0.6"/>
      </g>
     </g>
    </g>
    <g id="xtick_26">
     <g id="line2d_26">
      <g>
       <use xlink:href="#m71a584a31f" x="149.785414" y="199.75378" style="stroke: #000000; stroke-width: 0.6"/>
      </g>
     </g>
    </g>
    <g id="xtick_27">
     <g id="line2d_27">
      <g>
       <use xlink:href="#m71a584a31f" x="155.997034" y="199.75378" style="stroke: #000000; stroke-width: 0.6"/>
      </g>
     </g>
    </g>
    <g id="xtick_28">
     <g id="line2d_28">
      <g>
       <use xlink:href="#m71a584a31f" x="162.208653" y="199.75378" style="stroke: #000000; stroke-width: 0.6"/>
      </g>
     </g>
    </g>
    <g id="xtick_29">
     <g id="line2d_29">
      <g>
       <use xlink:href="#m71a584a31f" x="168.420273" y="199.75378" style="stroke: #000000; stroke-width: 0.6"/>
      </g>
     </g>
    </g>
    <g id="xtick_30">
     <g id="line2d_30">
      <g>
       <use xlink:href="#m71a584a31f" x="180.843511" y="199.75378" style="stroke: #000000; stroke-width: 0.6"/>
      </g>
     </g>
    </g>
    <g id="xtick_31">
     <g id="line2d_31">
      <g>
       <use xlink:href="#m71a584a31f" x="187.055131" y="199.75378" style="stroke: #000000; stroke-width: 0.6"/>
      </g>
     </g>
    </g>
    <g id="xtick_32">
     <g id="line2d_32">
      <g>
       <use xlink:href="#m71a584a31f" x="193.26675" y="199.75378" style="stroke: #000000; stroke-width: 0.6"/>
      </g>
     </g>
    </g>
    <g id="xtick_33">
     <g id="line2d_33">
      <g>
       <use xlink:href="#m71a584a31f" x="199.47837" y="199.75378" style="stroke: #000000; stroke-width: 0.6"/>
      </g>
     </g>
    </g>
    <g id="xtick_34">
     <g id="line2d_34">
      <g>
       <use xlink:href="#m71a584a31f" x="211.901609" y="199.75378" style="stroke: #000000; stroke-width: 0.6"/>
      </g>
     </g>
    </g>
    <g id="xtick_35">
     <g id="line2d_35">
      <g>
       <use xlink:href="#m71a584a31f" x="218.113228" y="199.75378" style="stroke: #000000; stroke-width: 0.6"/>
      </g>
     </g>
    </g>
    <g id="xtick_36">
     <g id="line2d_36">
      <g>
       <use xlink:href="#m71a584a31f" x="224.324847" y="199.75378" style="stroke: #000000; stroke-width: 0.6"/>
      </g>
     </g>
    </g>
    <g id="xtick_37">
     <g id="line2d_37">
      <g>
       <use xlink:href="#m71a584a31f" x="230.536467" y="199.75378" style="stroke: #000000; stroke-width: 0.6"/>
      </g>
     </g>
    </g>
    <g id="xtick_38">
     <g id="line2d_38">
      <g>
       <use xlink:href="#m71a584a31f" x="242.959706" y="199.75378" style="stroke: #000000; stroke-width: 0.6"/>
      </g>
     </g>
    </g>
    <g id="xtick_39">
     <g id="line2d_39">
      <g>
       <use xlink:href="#m71a584a31f" x="249.171325" y="199.75378" style="stroke: #000000; stroke-width: 0.6"/>
      </g>
     </g>
    </g>
    <g id="xtick_40">
     <g id="line2d_40">
      <g>
       <use xlink:href="#m71a584a31f" x="255.382944" y="199.75378" style="stroke: #000000; stroke-width: 0.6"/>
      </g>
     </g>
    </g>
    <g id="xtick_41">
     <g id="line2d_41">
      <g>
       <use xlink:href="#m71a584a31f" x="261.594564" y="199.75378" style="stroke: #000000; stroke-width: 0.6"/>
      </g>
     </g>
    </g>
   </g>
   <g id="matplotlib.axis_2">
    <g id="ytick_1">
     <g id="line2d_42">
      <defs>
       <path id="m0518092aa0" d="M 0 0 
L -3.5 0 
" style="stroke: #000000; stroke-width: 0.8"/>
      </defs>
      <g>
       <use xlink:href="#m0518092aa0" x="143.573795" y="323.986169" style="stroke: #000000; stroke-width: 0.8"/>
      </g>
     </g>
     <g id="text_9">
      <!-- −2 -->
      <g transform="translate(121.831607 327.785387)scale(0.1 -0.1)">
       <use xlink:href="#DejaVuSans-2212"/>
       <use xlink:href="#DejaVuSans-32" x="83.789062"/>
      </g>
     </g>
    </g>
    <g id="ytick_2">
     <g id="line2d_43">
      <g>
       <use xlink:href="#m0518092aa0" x="143.573795" y="261.869974" style="stroke: #000000; stroke-width: 0.8"/>
      </g>
     </g>
     <g id="text_10">
      <!-- −1 -->
      <g transform="translate(121.831607 265.669193)scale(0.1 -0.1)">
       <use xlink:href="#DejaVuSans-2212"/>
       <use xlink:href="#DejaVuSans-31" x="83.789062"/>
      </g>
     </g>
    </g>
    <g id="ytick_3">
     <g id="line2d_44">
      <g>
       <use xlink:href="#m0518092aa0" x="143.573795" y="199.75378" style="stroke: #000000; stroke-width: 0.8"/>
      </g>
     </g>
    </g>
    <g id="ytick_4">
     <g id="line2d_45">
      <g>
       <use xlink:href="#m0518092aa0" x="143.573795" y="137.637586" style="stroke: #000000; stroke-width: 0.8"/>
      </g>
     </g>
     <g id="text_11">
      <!-- 1 -->
      <g transform="translate(130.211295 141.436805)scale(0.1 -0.1)">
       <use xlink:href="#DejaVuSans-31"/>
      </g>
     </g>
    </g>
    <g id="ytick_5">
     <g id="line2d_46">
      <g>
       <use xlink:href="#m0518092aa0" x="143.573795" y="75.521391" style="stroke: #000000; stroke-width: 0.8"/>
      </g>
     </g>
     <g id="text_12">
      <!-- 2 -->
      <g transform="translate(130.211295 79.32061)scale(0.1 -0.1)">
       <use xlink:href="#DejaVuSans-32"/>
      </g>
     </g>
    </g>
    <g id="ytick_6">
     <g id="line2d_47">
      <g>
       <use xlink:href="#m0518092aa0" x="143.573795" y="13.405197" style="stroke: #000000; stroke-width: 0.8"/>
      </g>
     </g>
     <g id="text_13">
      <!-- 3 -->
      <g transform="translate(130.211295 17.204416)scale(0.1 -0.1)">
       <defs>
        <path id="DejaVuSans-33" d="M 2597 2516 
Q 3050 2419 3304 2112 
Q 3559 1806 3559 1356 
Q 3559 666 3084 287 
Q 2609 -91 1734 -91 
Q 1441 -91 1130 -33 
Q 819 25 488 141 
L 488 750 
Q 750 597 1062 519 
Q 1375 441 1716 441 
Q 2309 441 2620 675 
Q 2931 909 2931 1356 
Q 2931 1769 2642 2001 
Q 2353 2234 1838 2234 
L 1294 2234 
L 1294 2753 
L 1863 2753 
Q 2328 2753 2575 2939 
Q 2822 3125 2822 3475 
Q 2822 3834 2567 4026 
Q 2313 4219 1838 4219 
Q 1578 4219 1281 4162 
Q 984 4106 628 3988 
L 628 4550 
Q 988 4650 1302 4700 
Q 1616 4750 1894 4750 
Q 2613 4750 3031 4423 
Q 3450 4097 3450 3541 
Q 3450 3153 3228 2886 
Q 3006 2619 2597 2516 
z
" transform="scale(0.015625)"/>
       </defs>
       <use xlink:href="#DejaVuSans-33"/>
      </g>
     </g>
    </g>
    <g id="ytick_7">
     <g id="line2d_48">
      <defs>
       <path id="m86d35b6eb3" d="M 0 0 
L -2 0 
" style="stroke: #000000; stroke-width: 0.6"/>
      </defs>
      <g>
       <use xlink:href="#m86d35b6eb3" x="143.573795" y="311.56293" style="stroke: #000000; stroke-width: 0.6"/>
      </g>
     </g>
    </g>
    <g id="ytick_8">
     <g id="line2d_49">
      <g>
       <use xlink:href="#m86d35b6eb3" x="143.573795" y="299.139691" style="stroke: #000000; stroke-width: 0.6"/>
      </g>
     </g>
    </g>
    <g id="ytick_9">
     <g id="line2d_50">
      <g>
       <use xlink:href="#m86d35b6eb3" x="143.573795" y="286.716452" style="stroke: #000000; stroke-width: 0.6"/>
      </g>
     </g>
    </g>
    <g id="ytick_10">
     <g id="line2d_51">
      <g>
       <use xlink:href="#m86d35b6eb3" x="143.573795" y="274.293213" style="stroke: #000000; stroke-width: 0.6"/>
      </g>
     </g>
    </g>
    <g id="ytick_11">
     <g id="line2d_52">
      <g>
       <use xlink:href="#m86d35b6eb3" x="143.573795" y="249.446735" style="stroke: #000000; stroke-width: 0.6"/>
      </g>
     </g>
    </g>
    <g id="ytick_12">
     <g id="line2d_53">
      <g>
       <use xlink:href="#m86d35b6eb3" x="143.573795" y="237.023497" style="stroke: #000000; stroke-width: 0.6"/>
      </g>
     </g>
    </g>
    <g id="ytick_13">
     <g id="line2d_54">
      <g>
       <use xlink:href="#m86d35b6eb3" x="143.573795" y="224.600258" style="stroke: #000000; stroke-width: 0.6"/>
      </g>
     </g>
    </g>
    <g id="ytick_14">
     <g id="line2d_55">
      <g>
       <use xlink:href="#m86d35b6eb3" x="143.573795" y="212.177019" style="stroke: #000000; stroke-width: 0.6"/>
      </g>
     </g>
    </g>
    <g id="ytick_15">
     <g id="line2d_56">
      <g>
       <use xlink:href="#m86d35b6eb3" x="143.573795" y="187.330541" style="stroke: #000000; stroke-width: 0.6"/>
      </g>
     </g>
    </g>
    <g id="ytick_16">
     <g id="line2d_57">
      <g>
       <use xlink:href="#m86d35b6eb3" x="143.573795" y="174.907302" style="stroke: #000000; stroke-width: 0.6"/>
      </g>
     </g>
    </g>
    <g id="ytick_17">
     <g id="line2d_58">
      <g>
       <use xlink:href="#m86d35b6eb3" x="143.573795" y="162.484063" style="stroke: #000000; stroke-width: 0.6"/>
      </g>
     </g>
    </g>
    <g id="ytick_18">
     <g id="line2d_59">
      <g>
       <use xlink:href="#m86d35b6eb3" x="143.573795" y="150.060825" style="stroke: #000000; stroke-width: 0.6"/>
      </g>
     </g>
    </g>
    <g id="ytick_19">
     <g id="line2d_60">
      <g>
       <use xlink:href="#m86d35b6eb3" x="143.573795" y="125.214347" style="stroke: #000000; stroke-width: 0.6"/>
      </g>
     </g>
    </g>
    <g id="ytick_20">
     <g id="line2d_61">
      <g>
       <use xlink:href="#m86d35b6eb3" x="143.573795" y="112.791108" style="stroke: #000000; stroke-width: 0.6"/>
      </g>
     </g>
    </g>
    <g id="ytick_21">
     <g id="line2d_62">
      <g>
       <use xlink:href="#m86d35b6eb3" x="143.573795" y="100.367869" style="stroke: #000000; stroke-width: 0.6"/>
      </g>
     </g>
    </g>
    <g id="ytick_22">
     <g id="line2d_63">
      <g>
       <use xlink:href="#m86d35b6eb3" x="143.573795" y="87.94463" style="stroke: #000000; stroke-width: 0.6"/>
      </g>
     </g>
    </g>
    <g id="ytick_23">
     <g id="line2d_64">
      <g>
       <use xlink:href="#m86d35b6eb3" x="143.573795" y="63.098153" style="stroke: #000000; stroke-width: 0.6"/>
      </g>
     </g>
    </g>
    <g id="ytick_24">
     <g id="line2d_65">
      <g>
       <use xlink:href="#m86d35b6eb3" x="143.573795" y="50.674914" style="stroke: #000000; stroke-width: 0.6"/>
      </g>
     </g>
    </g>
    <g id="ytick_25">
     <g id="line2d_66">
      <g>
       <use xlink:href="#m86d35b6eb3" x="143.573795" y="38.251675" style="stroke: #000000; stroke-width: 0.6"/>
      </g>
     </g>
    </g>
    <g id="ytick_26">
     <g id="line2d_67">
      <g>
       <use xlink:href="#m86d35b6eb3" x="143.573795" y="25.828436" style="stroke: #000000; stroke-width: 0.6"/>
      </g>
     </g>
    </g>
   </g>
   <g id="line2d_68">
    <path d="M 205.689989 199.75378 
L 207.729806 198.69573 
L 213.845569 195.04073 
L 216.168578 193.447214 
L 223.512481 187.549967 
L 226.660957 184.558793 
L 230.543184 180.40483 
L 233.906562 176.308626 
L 235.989817 173.491703 
L 240.255012 166.869591 
L 241.763783 164.177064 
L 243.740563 160.280675 
L 246.098487 154.905964 
L 248.340955 148.683668 
L 250.287431 141.70423 
L 251.297691 136.918791 
L 252.14403 131.460297 
L 252.808703 123.668358 
L 252.842806 115.594152 
L 252.338739 108.576989 
L 250.981399 99.677001 
L 249.293636 92.522344 
L 248.283316 89.073098 
L 246.81141 84.699491 
L 244.132284 78.019309 
L 241.913079 73.313307 
L 239.891082 69.484761 
L 237.706201 65.729072 
L 234.253148 60.425012 
L 230.287626 55.075015 
L 227.401878 51.57829 
L 224.362707 48.196245 
L 221.491181 45.247153 
L 218.870888 42.741362 
L 216.163095 40.319483 
L 211.195233 36.271496 
L 208.582833 34.328197 
L 205.605744 32.255407 
L 200.28057 28.893901 
L 196.515254 26.763485 
L 192.663378 24.779128 
L 189.16829 23.139289 
L 185.727276 21.666589 
L 182.234887 20.309377 
L 178.423957 18.979969 
L 174.563739 17.788617 
L 170.295325 16.646826 
L 164.792603 15.437686 
L 158.052558 14.346755 
L 155.491407 14.042212 
L 150.798362 13.638858 
L 146.091464 13.433547 
L 142.388402 13.411481 
L 135.455358 13.700338 
L 128.552904 14.418924 
L 122.034364 15.500184 
L 117.886502 16.397252 
L 114.433813 17.271472 
L 111.013126 18.254884 
L 105.889629 19.953748 
L 101.497147 21.635261 
L 96.745198 23.701377 
L 90.624299 26.767827 
L 83.678578 30.855242 
L 80.437288 33.007468 
L 77.279592 35.26914 
L 73.145314 38.499029 
L 68.525405 42.512056 
L 65.182823 45.718308 
L 61.62481 49.453611 
L 58.20296 53.410307 
L 54.988071 57.514086 
L 52.116024 61.562061 
L 49.386478 65.819264 
L 46.431768 71.000801 
L 44.178016 75.478588 
L 41.704044 81.12279 
L 39.775391 86.291119 
L 38.787279 89.321036 
L 37.711353 93.04811 
L 36.78022 96.798014 
L 35.826605 101.474434 
L 34.98848 107.016301 
L 34.685955 109.793082 
L 34.276987 116.458142 
L 34.362694 124.167414 
L 34.649365 128.20551 
L 35.411146 134.346309 
L 35.852685 136.933882 
L 37.395217 143.841621 
L 39.381056 150.415899 
L 40.709057 154.045935 
L 43.346995 160.1547 
L 46.752429 166.6284 
L 50.355608 172.341017 
L 53.649186 176.833794 
L 58.69882 182.714846 
L 63.197446 187.152467 
L 67.511618 190.835564 
L 72.975494 194.82393 
L 76.346771 196.954153 
L 81.700496 199.874694 
L 87.538276 202.470002 
L 95.077422 204.990734 
L 99.199203 205.995716 
L 103.551088 206.780067 
L 108.022861 207.293594 
L 110.643039 207.456915 
L 117.228061 207.412724 
L 120.027091 207.192256 
L 122.728963 206.86124 
L 126.203124 206.258688 
L 132.211459 204.715649 
L 137.969886 202.573696 
L 141.946909 200.656102 
L 144.428465 199.249742 
L 146.79533 197.73718 
L 150.744052 194.776185 
L 153.13814 192.657323 
L 156.027028 189.679573 
L 158.190611 187.054283 
L 160.758094 183.30494 
L 161.928161 181.263223 
L 162.96453 179.193907 
L 164.588424 175.140866 
L 165.426894 172.288361 
L 165.995674 169.598416 
L 166.29503 167.468109 
L 166.489437 164.437516 
L 166.413062 161.517527 
L 165.962796 158.028277 
L 165.08199 154.538116 
L 164.107129 151.941809 
L 163.068608 149.812174 
L 161.842821 147.786652 
L 160.634891 146.135026 
L 158.42439 143.717598 
L 156.982688 142.453525 
L 154.522121 140.727804 
L 153.042824 139.908567 
L 150.233451 138.733248 
L 147.878442 138.089247 
L 144.794659 137.673606 
L 142.565514 137.662148 
L 140.31022 137.896162 
L 138.850911 138.182329 
L 137.1667 138.64995 
L 134.201813 139.859937 
L 131.859514 141.213093 
L 130.411321 142.257766 
L 128.449402 143.982693 
L 126.795434 145.786797 
L 125.353901 147.713631 
L 124.464692 149.128232 
L 123.414502 151.118157 
L 122.642441 152.909019 
L 122.028461 154.655108 
L 121.29827 157.456047 
L 120.928345 159.624972 
L 120.712009 161.85657 
L 120.652588 163.704282 
L 120.735348 166.163965 
L 121.052635 168.988886 
L 121.519411 171.445101 
L 122.626368 175.338431 
L 123.473487 177.579263 
L 124.397945 179.647784 
L 125.454323 181.694974 
L 127.095203 184.421774 
L 129.61345 187.893747 
L 132.448349 191.11309 
L 135.637969 194.128444 
L 137.53187 195.684344 
L 140.503079 197.838957 
L 144.021685 200.009519 
L 148.2302 202.151764 
L 152.026047 203.720449 
L 154.414516 204.549766 
L 160.440264 206.154167 
L 166.596373 207.13723 
L 169.124456 207.362568 
L 176.645741 207.450716 
L 182.850319 206.886313 
L 185.751519 206.426893 
L 191.39156 205.173954 
L 194.475022 204.284237 
L 197.12363 203.401222 
L 203.056251 201.008755 
L 205.689989 199.75378 
L 205.689989 199.75378 
" clip-path="url(#pf1c2a58d4a)" style="fill: none; stroke: #ff0000; stroke-width: 2; stroke-linecap: square"/>
   </g>
   <g id="line2d_69">
    <path d="M 267.806183 199.75378 
L 267.662736 193.785439 
L 267.204348 187.540149 
L 266.413909 181.206741 
L 265.017958 173.581246 
L 262.956183 165.380364 
L 262.130781 162.633335 
L 259.964572 156.315623 
L 257.83653 150.991975 
L 255.713667 146.290378 
L 253.918271 142.676788 
L 251.119838 137.564272 
L 248.671024 133.509846 
L 246.325595 129.927182 
L 241.839009 123.743031 
L 239.70759 121.064646 
L 235.137088 115.790397 
L 231.873207 112.364421 
L 228.549033 109.128755 
L 223.275107 104.457467 
L 219.750881 101.617457 
L 213.543593 97.099439 
L 206.85161 92.844452 
L 202.439249 90.352936 
L 195.807453 87.035852 
L 192.582783 85.596847 
L 186.985422 83.353106 
L 181.218888 81.362339 
L 178.705642 80.592378 
L 170.490501 78.472383 
L 165.444536 77.461683 
L 162.190816 76.924252 
L 158.275152 76.39432 
L 152.064589 75.811887 
L 144.04118 75.522271 
L 138.07063 75.643339 
L 132.68905 75.999149 
L 125.018421 76.914924 
L 120.865975 77.614346 
L 116.662079 78.471275 
L 112.560146 79.454819 
L 105.905514 81.369714 
L 102.095442 82.650268 
L 97.405992 84.418528 
L 91.686442 86.876019 
L 85.355152 90.007363 
L 83.333569 91.103876 
L 76.275052 95.328852 
L 72.076803 98.157193 
L 66.886567 102.015581 
L 61.608213 106.397849 
L 58.828708 108.913499 
L 55.650687 111.985827 
L 52.430935 115.3342 
L 48.024416 120.35603 
L 44.389999 124.945619 
L 39.891305 131.316745 
L 38.273659 133.832859 
L 35.751584 138.044322 
L 33.844504 141.502866 
L 30.606206 148.062289 
L 29.014465 151.692919 
L 26.717914 157.582825 
L 25.150641 162.208566 
L 24.027874 165.953498 
L 22.977881 169.915686 
L 21.13706 178.707824 
L 20.200518 185.168827 
L 19.741065 189.796802 
L 19.449827 194.564669 
L 19.341881 200.097241 
L 19.404454 203.711207 
L 19.715124 209.382691 
L 20.535373 216.93613 
L 21.256505 221.483182 
L 21.905855 224.865507 
L 22.855314 229.09206 
L 24.465697 235.065922 
L 26.883635 242.381154 
L 29.9389 249.961319 
L 31.488647 253.331816 
L 33.729841 257.788184 
L 36.547079 262.832846 
L 40.157774 268.592818 
L 41.062489 269.932969 
L 45.990482 276.638001 
L 49.453881 280.840944 
L 53.708724 285.532305 
L 58.513904 290.299356 
L 62.395188 293.794836 
L 66.250119 296.989244 
L 69.906134 299.787585 
L 74.67706 303.131371 
L 78.825771 305.779154 
L 86.358083 310.026391 
L 89.934019 311.809395 
L 95.040046 314.11357 
L 99.567318 315.93087 
L 105.973592 318.159486 
L 114.791957 320.606137 
L 118.936475 321.518672 
L 123.937988 322.424565 
L 127.211858 322.903987 
L 133.373455 323.566701 
L 138.998033 323.901872 
L 143.177645 323.985537 
L 150.65961 323.783928 
L 156.445144 323.317588 
L 165.838992 321.974676 
L 170.149264 321.110406 
L 177.214582 319.344682 
L 184.15261 317.172033 
L 188.419738 315.609413 
L 195.312216 312.699883 
L 202.833319 308.941669 
L 208.529044 305.652326 
L 211.799743 303.575292 
L 217.156587 299.850029 
L 219.531489 298.060011 
L 223.735128 294.663459 
L 226.306584 292.430486 
L 229.121452 289.838656 
L 234.310382 284.609883 
L 238.29282 280.1403 
L 240.692381 277.224203 
L 243.395705 273.708311 
L 247.717311 267.487187 
L 249.72579 264.294001 
L 253.228016 258.145887 
L 255.476772 253.711263 
L 257.404952 249.514748 
L 260.076137 242.891822 
L 262.233335 236.545083 
L 263.625288 231.711962 
L 264.997502 226.021056 
L 265.977762 220.989485 
L 266.811278 215.444834 
L 267.425149 209.476352 
L 267.772292 202.655445 
L 267.806183 199.75378 
L 267.806183 199.75378 
" clip-path="url(#pf1c2a58d4a)" style="fill: none; stroke: #0000ff; stroke-width: 2; stroke-linecap: square"/>
   </g>
   <g id="patch_3">
    <path d="M 143.573795 330.197018 
L 143.573795 7.2 
" style="fill: none; stroke: #000000; stroke-width: 0.8; stroke-linejoin: miter; stroke-linecap: square"/>
   </g>
   <g id="patch_4">
    <path d="M 14.372595 199.75378 
L 272.775469 199.75378 
" style="fill: none; stroke: #000000; stroke-width: 0.8; stroke-linejoin: miter; stroke-linecap: square"/>
   </g>
  </g>
 </g>
 <defs>
  <clipPath id="pf1c2a58d4a">
   <rect x="14.372595" y="7.2" width="258.402874" height="322.997018"/>
  </clipPath>
 </defs>
</svg>
