<?xml version="1.0" encoding="utf-8" standalone="no"?>
<!DOCTYPE svg PUBLIC "-//W3C//DTD SVG 1.1//EN"
  "http://www.w3.org/Graphics/SVG/1.1/DTD/svg11.dtd">
<svg xmlns:xlink="http://www.w3.org/1999/xlink" width="316.509125pt" height="335.425604pt" viewBox="0 0 316.509125 335.425604" xmlns="http://www.w3.org/2000/svg" version="1.1">
 <metadata>
  <rdf:RDF xmlns:dc="http://purl.org/dc/elements/1.1/" xmlns:cc="http://creativecommons.org/ns#" xmlns:rdf="http://www.w3.org/1999/02/22-rdf-syntax-ns#">
   <cc:Work>
    <dc:type rdf:resource="http://purl.org/dc/dcmitype/StillImage"/>
    <dc:date>2022-10-03T18:03:02.828034</dc:date>
    <dc:format>image/svg+xml</dc:format>
    <dc:creator>
     <cc:Agent>
      <dc:title>Matplotlib v3.5.1, https://matplotlib.org/</dc:title>
     </cc:Agent>
    </dc:creator>
   </cc:Work>
  </rdf:RDF>
 </metadata>
 <defs>
  <style type="text/css">*{stroke-linejoin: round; stroke-linecap: butt}</style>
 </defs>
 <g id="figure_1">
  <g id="patch_1">
   <path d="M 0 335.425604 
L 316.509125 335.425604 
L 316.509125 0 
L 0 0 
z
" style="fill: #ffffff"/>
  </g>
  <g id="axes_1">
   <g id="patch_2">
    <path d="M 24.678036 317.515077 
L 306.782652 317.515077 
L 306.782652 7.2 
L 24.678036 7.2 
z
" style="fill: #ffffff"/>
   </g>
   <g id="patch_3">
    <path d="M 301.357563 40.293041 
L 299.514598 43.96645 
L 298.095933 46.777082 
L 297.785257 47.390606 
L 296.287299 50.338795 
L 295.09946 52.664867 
L 292.644728 57.438851 
L 291.558003 59.538134 
L 289.924861 62.676586 
L 289.0707 64.310217 
L 288.228481 65.91574 
L 285.915806 70.297499 
L 284.854428 72.29526 
L 283.287389 75.229607 
L 282.709712 76.306765 
L 281.165054 79.174904 
L 279.134296 82.918872 
L 278.384428 84.293667 
L 276.210428 88.256001 
L 275.834515 88.937606 
L 273.733641 92.727728 
L 273.338912 93.436217 
L 271.240083 97.184046 
L 269.44867 100.357239 
L 268.548277 101.943202 
L 267.525046 103.738277 
L 266.053133 106.306943 
L 264.992776 108.147495 
L 263.151833 111.323289 
L 262.187374 112.977092 
L 260.713875 115.490529 
L 258.691229 118.914607 
L 257.686967 120.603487 
L 256.847778 122.009059 
L 254.862319 125.313861 
L 253.811723 127.050822 
L 251.844824 130.280838 
L 250.427662 132.590401 
L 249.160395 134.643139 
L 248.001875 136.509365 
L 246.933407 138.221757 
L 245.733142 140.135337 
L 244.651266 141.851067 
L 242.0652 145.9173 
L 241.68095 146.517273 
L 240.126942 148.932615 
L 238.936867 150.770269 
L 237.448405 153.053979 
L 236.275638 154.841822 
L 235.163142 156.528409 
L 233.631557 158.835425 
L 231.399644 162.166371 
L 229.846049 164.463302 
L 229.356697 165.183105 
L 227.70465 167.600111 
L 226.608431 169.192812 
L 224.846197 171.7346 
L 223.731331 173.33082 
L 221.857549 175.992981 
L 220.597069 177.769234 
L 220.023256 178.573963 
L 217.984813 181.413097 
L 216.444507 183.538106 
L 215.556221 184.755634 
L 214.0858 186.758278 
L 212.802894 188.492513 
L 210.756821 191.23329 
L 210.382819 191.730939 
L 208.34507 194.424267 
L 207.303573 195.789009 
L 206.514165 196.818094 
L 204.956845 198.834767 
L 203.1386 201.166703 
L 202.14804 202.426858 
L 199.99882 205.136143 
L 199.307286 206.000642 
L 197.557698 208.172087 
L 196.817621 209.083816 
L 194.606277 211.783998 
L 193.799574 212.760055 
L 192.281542 214.583761 
L 191.004261 216.105075 
L 189.968483 217.329914 
L 188.781422 218.723922 
L 187.51148 220.203757 
L 185.373644 222.668071 
L 184.576103 223.578777 
L 182.1061 226.369502 
L 181.527022 227.017262 
L 179.981264 228.734248 
L 178.142801 230.753426 
L 176.785474 232.228181 
L 175.354191 233.768578 
L 174.267257 234.928283 
L 173.828428 235.394023 
L 171.538996 237.800831 
L 170.446352 238.93587 
L 169.039428 240.384417 
L 167.756036 241.69305 
L 166.843159 242.61649 
L 165.18563 244.27749 
L 164.099136 245.355268 
L 162.376065 247.04667 
L 160.474954 248.887439 
L 159.966286 249.375444 
L 157.805905 251.426804 
L 156.414478 252.729795 
L 155.106772 253.941374 
L 154.003169 254.954043 
L 152.625017 256.206029 
L 151.403684 257.303848 
L 149.970366 258.578187 
L 148.285947 260.056416 
L 147.076535 261.104881 
L 145.508299 262.448359 
L 144.258667 263.505914 
L 143.283382 264.323291 
L 141.893088 265.476359 
L 140.781228 266.388246 
L 139.126721 267.728309 
L 137.355961 269.14017 
L 135.895129 270.287516 
L 134.634441 271.265019 
L 133.467929 272.159063 
L 132.403215 272.966328 
L 131.313359 273.784 
L 129.13508 275.392022 
L 128.282878 276.011604 
L 126.808017 277.071228 
L 125.260695 278.165673 
L 124.635609 278.6028 
L 122.242617 280.24961 
L 120.992188 281.093335 
L 119.448146 282.119268 
L 118.583115 282.686353 
L 117.630179 283.304678 
L 115.38948 284.732204 
L 114.567762 285.246435 
L 113.845834 285.69411 
L 112.527691 286.501588 
L 110.623003 287.645748 
L 109.122392 288.528337 
L 108.467451 288.908338 
L 105.784529 290.431972 
L 104.78901 290.983829 
L 103.522818 291.675173 
L 101.877699 292.555755 
L 100.727103 293.159776 
L 99.385728 293.851625 
L 98.86018 294.119073 
L 96.294188 295.395645 
L 95.832028 295.620408 
L 93.714598 296.630048 
L 92.294831 297.288512 
L 91.946204 297.447926 
L 90.55027 298.077258 
L 89.05611 298.734954 
L 87.043238 299.594951 
L 86.180366 299.954464 
L 84.447263 300.65997 
L 83.653065 300.975869 
L 81.961774 301.6331 
L 80.504829 302.182354 
L 79.704364 302.47746 
L 77.259513 303.349549 
L 76.341424 303.665653 
L 74.741741 304.201586 
L 73.529893 304.595024 
L 72.72103 304.851604 
L 70.994931 305.383009 
L 70.310635 305.5876 
L 68.382171 306.145594 
L 67.006003 306.527018 
L 65.908917 306.821088 
L 64.473802 307.192367 
L 62.44494 307.691347 
L 61.035133 308.020204 
L 60.574889 308.124389 
L 58.479906 308.578895 
L 57.904919 308.697978 
L 55.503612 309.168957 
L 54.566692 309.341189 
L 53.020332 309.611296 
L 52.495192 309.699013 
L 50.968338 309.942502 
L 49.625233 310.142478 
L 48.392953 310.314254 
L 46.321968 310.577722 
L 44.587039 310.774096 
L 44.331383 310.801157 
L 41.753358 311.047108 
L 41.250695 311.089355 
L 39.465918 311.224307 
L 38.229006 311.304055 
L 37.411228 311.350585 
L 35.573252 311.437168 
L 33.899082 311.494358 
L 32.528414 311.525795 
L 32.050074 311.533505 
L 30.103125 311.547479 
L 30.103125 40.293041 
L 31.532375 40.293041 
L 33.476554 40.293041 
L 33.976659 40.293041 
L 35.628081 40.293041 
L 36.333804 40.293041 
L 38.324649 40.293041 
L 39.192772 40.293041 
L 40.939476 40.293041 
L 42.100821 40.293041 
L 43.355298 40.293041 
L 45.02677 40.293041 
L 46.239703 40.293041 
L 47.431317 40.293041 
L 48.826708 40.293041 
L 50.295445 40.293041 
L 51.33488 40.293041 
L 53.522033 40.293041 
L 54.232288 40.293041 
L 56.269615 40.293041 
L 56.683631 40.293041 
L 59.241413 40.293041 
L 59.564825 40.293041 
L 61.85747 40.293041 
L 62.432308 40.293041 
L 64.607635 40.293041 
L 65.482292 40.293041 
L 67.407506 40.293041 
L 67.672859 40.293041 
L 69.394124 40.293041 
L 71.252597 40.293041 
L 71.765868 40.293041 
L 73.72835 40.293041 
L 75.159758 40.293041 
L 76.456568 40.293041 
L 77.790467 40.293041 
L 79.331692 40.293041 
L 80.263108 40.293041 
L 81.257087 40.293041 
L 83.455489 40.293041 
L 84.638654 40.293041 
L 86.50841 40.293041 
L 87.584173 40.293041 
L 88.894175 40.293041 
L 90.085239 40.293041 
L 90.866499 40.293041 
L 92.349437 40.293041 
L 93.783999 40.293041 
L 95.095451 40.293041 
L 96.266345 40.293041 
L 97.861186 40.293041 
L 100.107835 40.293041 
L 100.752153 40.293041 
L 102.976292 40.293041 
L 103.646382 40.293041 
L 105.362979 40.293041 
L 105.880718 40.293041 
L 107.246367 40.293041 
L 109.765964 40.293041 
L 110.201533 40.293041 
L 111.620918 40.293041 
L 112.603004 40.293041 
L 114.616941 40.293041 
L 116.490482 40.293041 
L 116.80834 40.293041 
L 118.69268 40.293041 
L 119.515864 40.293041 
L 121.938496 40.293041 
L 122.850337 40.293041 
L 124.165952 40.293041 
L 125.950546 40.293041 
L 127.448852 40.293041 
L 128.025782 40.293041 
L 130.017506 40.293041 
L 130.828081 40.293041 
L 132.852397 40.293041 
L 133.049485 40.293041 
L 134.773934 40.293041 
L 137.002989 40.293041 
L 138.452171 40.293041 
L 138.817748 40.293041 
L 140.711824 40.293041 
L 142.313936 40.293041 
L 143.136482 40.293041 
L 144.105943 40.293041 
L 146.61586 40.293041 
L 147.444563 40.293041 
L 148.928399 40.293041 
L 150.057611 40.293041 
L 151.430158 40.293041 
L 152.731563 40.293041 
L 153.513512 40.293041 
L 156.033512 40.293041 
L 156.753081 40.293041 
L 157.951254 40.293041 
L 158.915654 40.293041 
L 161.37097 40.293041 
L 161.879647 40.293041 
L 163.524797 40.293041 
L 164.704731 40.293041 
L 166.72807 40.293041 
L 167.874475 40.293041 
L 168.662734 40.293041 
L 171.000681 40.293041 
L 171.804403 40.293041 
L 173.631728 40.293041 
L 173.913332 40.293041 
L 175.749415 40.293041 
L 177.712848 40.293041 
L 179.148315 40.293041 
L 180.102892 40.293041 
L 181.612841 40.293041 
L 183.442614 40.293041 
L 183.925982 40.293041 
L 184.864446 40.293041 
L 187.48423 40.293041 
L 187.650741 40.293041 
L 189.921409 40.293041 
L 190.380434 40.293041 
L 191.817899 40.293041 
L 194.127561 40.293041 
L 195.430932 40.293041 
L 195.838367 40.293041 
L 197.467329 40.293041 
L 199.474709 40.293041 
L 201.111151 40.293041 
L 201.574892 40.293041 
L 202.788096 40.293041 
L 203.997949 40.293041 
L 205.393048 40.293041 
L 207.255686 40.293041 
L 209.25737 40.293041 
L 210.211506 40.293041 
L 211.32543 40.293041 
L 212.646059 40.293041 
L 213.958858 40.293041 
L 214.894182 40.293041 
L 216.336415 40.293041 
L 218.398353 40.293041 
L 219.269731 40.293041 
L 221.54189 40.293041 
L 222.124368 40.293041 
L 223.281208 40.293041 
L 224.710776 40.293041 
L 226.571723 40.293041 
L 227.320772 40.293041 
L 228.782648 40.293041 
L 230.046106 40.293041 
L 232.266774 40.293041 
L 233.137246 40.293041 
L 234.980308 40.293041 
L 236.513512 40.293041 
L 237.143855 40.293041 
L 238.721299 40.293041 
L 239.928101 40.293041 
L 241.648029 40.293041 
L 242.097733 40.293041 
L 243.707683 40.293041 
L 245.214672 40.293041 
L 247.382475 40.293041 
L 248.091999 40.293041 
L 250.030938 40.293041 
L 251.309221 40.293041 
L 252.658506 40.293041 
L 253.545727 40.293041 
L 254.649759 40.293041 
L 256.495532 40.293041 
L 257.815638 40.293041 
L 259.108879 40.293041 
L 260.753819 40.293041 
L 262.224552 40.293041 
L 262.608461 40.293041 
L 264.342411 40.293041 
L 266.135262 40.293041 
L 267.655807 40.293041 
L 268.226312 40.293041 
L 270.417312 40.293041 
L 271.027362 40.293041 
L 272.763743 40.293041 
L 274.337993 40.293041 
L 275.633644 40.293041 
L 277.069953 40.293041 
L 277.94961 40.293041 
L 279.267068 40.293041 
L 281.449791 40.293041 
L 281.885156 40.293041 
L 283.666149 40.293041 
L 284.350266 40.293041 
L 285.932682 40.293041 
L 287.268775 40.293041 
L 288.862235 40.293041 
L 291.115661 40.293041 
L 291.155999 40.293041 
L 292.561607 40.293041 
L 294.741983 40.293041 
L 295.978708 40.293041 
L 297.350054 40.293041 
L 298.46944 40.293041 
L 299.490371 40.293041 
z
" clip-path="url(#pa2cde00c18)" style="fill: #008000; opacity: 0.5"/>
   </g>
   <g id="matplotlib.axis_1">
    <g id="xtick_1">
     <g id="line2d_1">
      <defs>
       <path id="m53ed5ffd1e" d="M 0 0 
L 0 3.5 
" style="stroke: #000000; stroke-width: 0.8"/>
      </defs>
      <g>
       <use xlink:href="#m53ed5ffd1e" x="30.103125" y="311.547479" style="stroke: #000000; stroke-width: 0.8"/>
      </g>
     </g>
    </g>
    <g id="xtick_2">
     <g id="line2d_2">
      <g>
       <use xlink:href="#m53ed5ffd1e" x="84.354013" y="311.547479" style="stroke: #000000; stroke-width: 0.8"/>
      </g>
     </g>
     <g id="text_1">
      <!-- 0.2 -->
      <g transform="translate(76.40245 326.145917)scale(0.1 -0.1)">
       <defs>
        <path id="DejaVuSans-30" d="M 2034 4250 
Q 1547 4250 1301 3770 
Q 1056 3291 1056 2328 
Q 1056 1369 1301 889 
Q 1547 409 2034 409 
Q 2525 409 2770 889 
Q 3016 1369 3016 2328 
Q 3016 3291 2770 3770 
Q 2525 4250 2034 4250 
z
M 2034 4750 
Q 2819 4750 3233 4129 
Q 3647 3509 3647 2328 
Q 3647 1150 3233 529 
Q 2819 -91 2034 -91 
Q 1250 -91 836 529 
Q 422 1150 422 2328 
Q 422 3509 836 4129 
Q 1250 4750 2034 4750 
z
" transform="scale(0.015625)"/>
        <path id="DejaVuSans-2e" d="M 684 794 
L 1344 794 
L 1344 0 
L 684 0 
L 684 794 
z
" transform="scale(0.015625)"/>
        <path id="DejaVuSans-32" d="M 1228 531 
L 3431 531 
L 3431 0 
L 469 0 
L 469 531 
Q 828 903 1448 1529 
Q 2069 2156 2228 2338 
Q 2531 2678 2651 2914 
Q 2772 3150 2772 3378 
Q 2772 3750 2511 3984 
Q 2250 4219 1831 4219 
Q 1534 4219 1204 4116 
Q 875 4013 500 3803 
L 500 4441 
Q 881 4594 1212 4672 
Q 1544 4750 1819 4750 
Q 2544 4750 2975 4387 
Q 3406 4025 3406 3419 
Q 3406 3131 3298 2873 
Q 3191 2616 2906 2266 
Q 2828 2175 2409 1742 
Q 1991 1309 1228 531 
z
" transform="scale(0.015625)"/>
       </defs>
       <use xlink:href="#DejaVuSans-30"/>
       <use xlink:href="#DejaVuSans-2e" x="63.623047"/>
       <use xlink:href="#DejaVuSans-32" x="95.410156"/>
      </g>
     </g>
    </g>
    <g id="xtick_3">
     <g id="line2d_3">
      <g>
       <use xlink:href="#m53ed5ffd1e" x="138.6049" y="311.547479" style="stroke: #000000; stroke-width: 0.8"/>
      </g>
     </g>
     <g id="text_2">
      <!-- 0.4 -->
      <g transform="translate(130.653338 326.145917)scale(0.1 -0.1)">
       <defs>
        <path id="DejaVuSans-34" d="M 2419 4116 
L 825 1625 
L 2419 1625 
L 2419 4116 
z
M 2253 4666 
L 3047 4666 
L 3047 1625 
L 3713 1625 
L 3713 1100 
L 3047 1100 
L 3047 0 
L 2419 0 
L 2419 1100 
L 313 1100 
L 313 1709 
L 2253 4666 
z
" transform="scale(0.015625)"/>
       </defs>
       <use xlink:href="#DejaVuSans-30"/>
       <use xlink:href="#DejaVuSans-2e" x="63.623047"/>
       <use xlink:href="#DejaVuSans-34" x="95.410156"/>
      </g>
     </g>
    </g>
    <g id="xtick_4">
     <g id="line2d_4">
      <g>
       <use xlink:href="#m53ed5ffd1e" x="192.855788" y="311.547479" style="stroke: #000000; stroke-width: 0.8"/>
      </g>
     </g>
     <g id="text_3">
      <!-- 0.6 -->
      <g transform="translate(184.904225 326.145917)scale(0.1 -0.1)">
       <defs>
        <path id="DejaVuSans-36" d="M 2113 2584 
Q 1688 2584 1439 2293 
Q 1191 2003 1191 1497 
Q 1191 994 1439 701 
Q 1688 409 2113 409 
Q 2538 409 2786 701 
Q 3034 994 3034 1497 
Q 3034 2003 2786 2293 
Q 2538 2584 2113 2584 
z
M 3366 4563 
L 3366 3988 
Q 3128 4100 2886 4159 
Q 2644 4219 2406 4219 
Q 1781 4219 1451 3797 
Q 1122 3375 1075 2522 
Q 1259 2794 1537 2939 
Q 1816 3084 2150 3084 
Q 2853 3084 3261 2657 
Q 3669 2231 3669 1497 
Q 3669 778 3244 343 
Q 2819 -91 2113 -91 
Q 1303 -91 875 529 
Q 447 1150 447 2328 
Q 447 3434 972 4092 
Q 1497 4750 2381 4750 
Q 2619 4750 2861 4703 
Q 3103 4656 3366 4563 
z
" transform="scale(0.015625)"/>
       </defs>
       <use xlink:href="#DejaVuSans-30"/>
       <use xlink:href="#DejaVuSans-2e" x="63.623047"/>
       <use xlink:href="#DejaVuSans-36" x="95.410156"/>
      </g>
     </g>
    </g>
    <g id="xtick_5">
     <g id="line2d_5">
      <g>
       <use xlink:href="#m53ed5ffd1e" x="247.106675" y="311.547479" style="stroke: #000000; stroke-width: 0.8"/>
      </g>
     </g>
     <g id="text_4">
      <!-- 0.8 -->
      <g transform="translate(239.155113 326.145917)scale(0.1 -0.1)">
       <defs>
        <path id="DejaVuSans-38" d="M 2034 2216 
Q 1584 2216 1326 1975 
Q 1069 1734 1069 1313 
Q 1069 891 1326 650 
Q 1584 409 2034 409 
Q 2484 409 2743 651 
Q 3003 894 3003 1313 
Q 3003 1734 2745 1975 
Q 2488 2216 2034 2216 
z
M 1403 2484 
Q 997 2584 770 2862 
Q 544 3141 544 3541 
Q 544 4100 942 4425 
Q 1341 4750 2034 4750 
Q 2731 4750 3128 4425 
Q 3525 4100 3525 3541 
Q 3525 3141 3298 2862 
Q 3072 2584 2669 2484 
Q 3125 2378 3379 2068 
Q 3634 1759 3634 1313 
Q 3634 634 3220 271 
Q 2806 -91 2034 -91 
Q 1263 -91 848 271 
Q 434 634 434 1313 
Q 434 1759 690 2068 
Q 947 2378 1403 2484 
z
M 1172 3481 
Q 1172 3119 1398 2916 
Q 1625 2713 2034 2713 
Q 2441 2713 2670 2916 
Q 2900 3119 2900 3481 
Q 2900 3844 2670 4047 
Q 2441 4250 2034 4250 
Q 1625 4250 1398 4047 
Q 1172 3844 1172 3481 
z
" transform="scale(0.015625)"/>
       </defs>
       <use xlink:href="#DejaVuSans-30"/>
       <use xlink:href="#DejaVuSans-2e" x="63.623047"/>
       <use xlink:href="#DejaVuSans-38" x="95.410156"/>
      </g>
     </g>
    </g>
    <g id="xtick_6">
     <g id="line2d_6">
      <g>
       <use xlink:href="#m53ed5ffd1e" x="301.357563" y="311.547479" style="stroke: #000000; stroke-width: 0.8"/>
      </g>
     </g>
     <g id="text_5">
      <!-- 1.0 -->
      <g transform="translate(293.406 326.145917)scale(0.1 -0.1)">
       <defs>
        <path id="DejaVuSans-31" d="M 794 531 
L 1825 531 
L 1825 4091 
L 703 3866 
L 703 4441 
L 1819 4666 
L 2450 4666 
L 2450 531 
L 3481 531 
L 3481 0 
L 794 0 
L 794 531 
z
" transform="scale(0.015625)"/>
       </defs>
       <use xlink:href="#DejaVuSans-31"/>
       <use xlink:href="#DejaVuSans-2e" x="63.623047"/>
       <use xlink:href="#DejaVuSans-30" x="95.410156"/>
      </g>
     </g>
    </g>
    <g id="xtick_7">
     <g id="line2d_7">
      <defs>
       <path id="mc4dad3daf8" d="M 0 0 
L 0 2 
" style="stroke: #000000; stroke-width: 0.6"/>
      </defs>
      <g>
       <use xlink:href="#mc4dad3daf8" x="43.665847" y="311.547479" style="stroke: #000000; stroke-width: 0.6"/>
      </g>
     </g>
    </g>
    <g id="xtick_8">
     <g id="line2d_8">
      <g>
       <use xlink:href="#mc4dad3daf8" x="57.228569" y="311.547479" style="stroke: #000000; stroke-width: 0.6"/>
      </g>
     </g>
    </g>
    <g id="xtick_9">
     <g id="line2d_9">
      <g>
       <use xlink:href="#mc4dad3daf8" x="70.791291" y="311.547479" style="stroke: #000000; stroke-width: 0.6"/>
      </g>
     </g>
    </g>
    <g id="xtick_10">
     <g id="line2d_10">
      <g>
       <use xlink:href="#mc4dad3daf8" x="97.916734" y="311.547479" style="stroke: #000000; stroke-width: 0.6"/>
      </g>
     </g>
    </g>
    <g id="xtick_11">
     <g id="line2d_11">
      <g>
       <use xlink:href="#mc4dad3daf8" x="111.479456" y="311.547479" style="stroke: #000000; stroke-width: 0.6"/>
      </g>
     </g>
    </g>
    <g id="xtick_12">
     <g id="line2d_12">
      <g>
       <use xlink:href="#mc4dad3daf8" x="125.042178" y="311.547479" style="stroke: #000000; stroke-width: 0.6"/>
      </g>
     </g>
    </g>
    <g id="xtick_13">
     <g id="line2d_13">
      <g>
       <use xlink:href="#mc4dad3daf8" x="152.167622" y="311.547479" style="stroke: #000000; stroke-width: 0.6"/>
      </g>
     </g>
    </g>
    <g id="xtick_14">
     <g id="line2d_14">
      <g>
       <use xlink:href="#mc4dad3daf8" x="165.730344" y="311.547479" style="stroke: #000000; stroke-width: 0.6"/>
      </g>
     </g>
    </g>
    <g id="xtick_15">
     <g id="line2d_15">
      <g>
       <use xlink:href="#mc4dad3daf8" x="179.293066" y="311.547479" style="stroke: #000000; stroke-width: 0.6"/>
      </g>
     </g>
    </g>
    <g id="xtick_16">
     <g id="line2d_16">
      <g>
       <use xlink:href="#mc4dad3daf8" x="206.41851" y="311.547479" style="stroke: #000000; stroke-width: 0.6"/>
      </g>
     </g>
    </g>
    <g id="xtick_17">
     <g id="line2d_17">
      <g>
       <use xlink:href="#mc4dad3daf8" x="219.981232" y="311.547479" style="stroke: #000000; stroke-width: 0.6"/>
      </g>
     </g>
    </g>
    <g id="xtick_18">
     <g id="line2d_18">
      <g>
       <use xlink:href="#mc4dad3daf8" x="233.543953" y="311.547479" style="stroke: #000000; stroke-width: 0.6"/>
      </g>
     </g>
    </g>
    <g id="xtick_19">
     <g id="line2d_19">
      <g>
       <use xlink:href="#mc4dad3daf8" x="260.669397" y="311.547479" style="stroke: #000000; stroke-width: 0.6"/>
      </g>
     </g>
    </g>
    <g id="xtick_20">
     <g id="line2d_20">
      <g>
       <use xlink:href="#mc4dad3daf8" x="274.232119" y="311.547479" style="stroke: #000000; stroke-width: 0.6"/>
      </g>
     </g>
    </g>
    <g id="xtick_21">
     <g id="line2d_21">
      <g>
       <use xlink:href="#mc4dad3daf8" x="287.794841" y="311.547479" style="stroke: #000000; stroke-width: 0.6"/>
      </g>
     </g>
    </g>
   </g>
   <g id="matplotlib.axis_2">
    <g id="ytick_1">
     <g id="line2d_22">
      <defs>
       <path id="m4324773e94" d="M 0 0 
L -3.5 0 
" style="stroke: #000000; stroke-width: 0.8"/>
      </defs>
      <g>
       <use xlink:href="#m4324773e94" x="30.103125" y="311.547479" style="stroke: #000000; stroke-width: 0.8"/>
      </g>
     </g>
    </g>
    <g id="ytick_2">
     <g id="line2d_23">
      <g>
       <use xlink:href="#m4324773e94" x="30.103125" y="257.296592" style="stroke: #000000; stroke-width: 0.8"/>
      </g>
     </g>
     <g id="text_6">
      <!-- 0.2 -->
      <g transform="translate(7.2 261.09581)scale(0.1 -0.1)">
       <use xlink:href="#DejaVuSans-30"/>
       <use xlink:href="#DejaVuSans-2e" x="63.623047"/>
       <use xlink:href="#DejaVuSans-32" x="95.410156"/>
      </g>
     </g>
    </g>
    <g id="ytick_3">
     <g id="line2d_24">
      <g>
       <use xlink:href="#m4324773e94" x="30.103125" y="203.045704" style="stroke: #000000; stroke-width: 0.8"/>
      </g>
     </g>
     <g id="text_7">
      <!-- 0.4 -->
      <g transform="translate(7.2 206.844923)scale(0.1 -0.1)">
       <use xlink:href="#DejaVuSans-30"/>
       <use xlink:href="#DejaVuSans-2e" x="63.623047"/>
       <use xlink:href="#DejaVuSans-34" x="95.410156"/>
      </g>
     </g>
    </g>
    <g id="ytick_4">
     <g id="line2d_25">
      <g>
       <use xlink:href="#m4324773e94" x="30.103125" y="148.794817" style="stroke: #000000; stroke-width: 0.8"/>
      </g>
     </g>
     <g id="text_8">
      <!-- 0.6 -->
      <g transform="translate(7.2 152.594035)scale(0.1 -0.1)">
       <use xlink:href="#DejaVuSans-30"/>
       <use xlink:href="#DejaVuSans-2e" x="63.623047"/>
       <use xlink:href="#DejaVuSans-36" x="95.410156"/>
      </g>
     </g>
    </g>
    <g id="ytick_5">
     <g id="line2d_26">
      <g>
       <use xlink:href="#m4324773e94" x="30.103125" y="94.543929" style="stroke: #000000; stroke-width: 0.8"/>
      </g>
     </g>
     <g id="text_9">
      <!-- 0.8 -->
      <g transform="translate(7.2 98.343148)scale(0.1 -0.1)">
       <use xlink:href="#DejaVuSans-30"/>
       <use xlink:href="#DejaVuSans-2e" x="63.623047"/>
       <use xlink:href="#DejaVuSans-38" x="95.410156"/>
      </g>
     </g>
    </g>
    <g id="ytick_6">
     <g id="line2d_27">
      <g>
       <use xlink:href="#m4324773e94" x="30.103125" y="40.293041" style="stroke: #000000; stroke-width: 0.8"/>
      </g>
     </g>
     <g id="text_10">
      <!-- 1.0 -->
      <g transform="translate(7.2 44.09226)scale(0.1 -0.1)">
       <use xlink:href="#DejaVuSans-31"/>
       <use xlink:href="#DejaVuSans-2e" x="63.623047"/>
       <use xlink:href="#DejaVuSans-30" x="95.410156"/>
      </g>
     </g>
    </g>
    <g id="ytick_7">
     <g id="line2d_28">
      <defs>
       <path id="m2f9e46d09c" d="M 0 0 
L -2 0 
" style="stroke: #000000; stroke-width: 0.6"/>
      </defs>
      <g>
       <use xlink:href="#m2f9e46d09c" x="30.103125" y="297.984757" style="stroke: #000000; stroke-width: 0.6"/>
      </g>
     </g>
    </g>
    <g id="ytick_8">
     <g id="line2d_29">
      <g>
       <use xlink:href="#m2f9e46d09c" x="30.103125" y="284.422036" style="stroke: #000000; stroke-width: 0.6"/>
      </g>
     </g>
    </g>
    <g id="ytick_9">
     <g id="line2d_30">
      <g>
       <use xlink:href="#m2f9e46d09c" x="30.103125" y="270.859314" style="stroke: #000000; stroke-width: 0.6"/>
      </g>
     </g>
    </g>
    <g id="ytick_10">
     <g id="line2d_31">
      <g>
       <use xlink:href="#m2f9e46d09c" x="30.103125" y="243.73387" style="stroke: #000000; stroke-width: 0.6"/>
      </g>
     </g>
    </g>
    <g id="ytick_11">
     <g id="line2d_32">
      <g>
       <use xlink:href="#m2f9e46d09c" x="30.103125" y="230.171148" style="stroke: #000000; stroke-width: 0.6"/>
      </g>
     </g>
    </g>
    <g id="ytick_12">
     <g id="line2d_33">
      <g>
       <use xlink:href="#m2f9e46d09c" x="30.103125" y="216.608426" style="stroke: #000000; stroke-width: 0.6"/>
      </g>
     </g>
    </g>
    <g id="ytick_13">
     <g id="line2d_34">
      <g>
       <use xlink:href="#m2f9e46d09c" x="30.103125" y="189.482982" style="stroke: #000000; stroke-width: 0.6"/>
      </g>
     </g>
    </g>
    <g id="ytick_14">
     <g id="line2d_35">
      <g>
       <use xlink:href="#m2f9e46d09c" x="30.103125" y="175.92026" style="stroke: #000000; stroke-width: 0.6"/>
      </g>
     </g>
    </g>
    <g id="ytick_15">
     <g id="line2d_36">
      <g>
       <use xlink:href="#m2f9e46d09c" x="30.103125" y="162.357538" style="stroke: #000000; stroke-width: 0.6"/>
      </g>
     </g>
    </g>
    <g id="ytick_16">
     <g id="line2d_37">
      <g>
       <use xlink:href="#m2f9e46d09c" x="30.103125" y="135.232095" style="stroke: #000000; stroke-width: 0.6"/>
      </g>
     </g>
    </g>
    <g id="ytick_17">
     <g id="line2d_38">
      <g>
       <use xlink:href="#m2f9e46d09c" x="30.103125" y="121.669373" style="stroke: #000000; stroke-width: 0.6"/>
      </g>
     </g>
    </g>
    <g id="ytick_18">
     <g id="line2d_39">
      <g>
       <use xlink:href="#m2f9e46d09c" x="30.103125" y="108.106651" style="stroke: #000000; stroke-width: 0.6"/>
      </g>
     </g>
    </g>
    <g id="ytick_19">
     <g id="line2d_40">
      <g>
       <use xlink:href="#m2f9e46d09c" x="30.103125" y="80.981207" style="stroke: #000000; stroke-width: 0.6"/>
      </g>
     </g>
    </g>
    <g id="ytick_20">
     <g id="line2d_41">
      <g>
       <use xlink:href="#m2f9e46d09c" x="30.103125" y="67.418485" style="stroke: #000000; stroke-width: 0.6"/>
      </g>
     </g>
    </g>
    <g id="ytick_21">
     <g id="line2d_42">
      <g>
       <use xlink:href="#m2f9e46d09c" x="30.103125" y="53.855763" style="stroke: #000000; stroke-width: 0.6"/>
      </g>
     </g>
    </g>
    <g id="ytick_22">
     <g id="line2d_43">
      <g>
       <use xlink:href="#m2f9e46d09c" x="30.103125" y="26.73032" style="stroke: #000000; stroke-width: 0.6"/>
      </g>
     </g>
    </g>
    <g id="ytick_23">
     <g id="line2d_44">
      <g>
       <use xlink:href="#m2f9e46d09c" x="30.103125" y="13.167598" style="stroke: #000000; stroke-width: 0.6"/>
      </g>
     </g>
    </g>
   </g>
   <g id="line2d_45">
    <path d="M 30.103125 40.293041 
L 301.357563 40.293041 
L 301.357563 40.293041 
" clip-path="url(#pa2cde00c18)" style="fill: none; stroke: #0000ff; stroke-linecap: square"/>
   </g>
   <g id="line2d_46">
    <path d="M 30.103125 311.547479 
L 35.756953 311.429635 
L 41.632596 311.057428 
L 47.14918 310.476278 
L 52.956379 309.622087 
L 58.383437 308.599044 
L 64.118102 307.282043 
L 69.375715 305.86154 
L 75.459947 303.963303 
L 80.834275 302.059525 
L 85.391593 300.278301 
L 91.477288 297.660931 
L 98.092811 294.505925 
L 104.365001 291.216655 
L 110.140175 287.931536 
L 116.814698 283.828497 
L 123.88627 279.123021 
L 129.804294 274.901726 
L 134.431885 271.420983 
L 141.550776 265.758076 
L 148.486137 259.881826 
L 154.83905 254.187861 
L 161.675519 247.728081 
L 167.380995 242.073174 
L 174.730678 234.4349 
L 181.562708 226.977415 
L 188.681294 218.84103 
L 195.298492 210.94264 
L 201.475885 203.27783 
L 209.042015 193.506548 
L 216.394951 183.606183 
L 224.444932 172.31017 
L 232.517626 160.502466 
L 239.762487 149.496498 
L 248.036613 136.45355 
L 255.462362 124.318154 
L 261.78585 113.663583 
L 270.017064 99.352985 
L 278.124488 84.769267 
L 285.797676 70.520258 
L 294.992524 52.873762 
L 301.357563 40.293041 
L 301.357563 40.293041 
" clip-path="url(#pa2cde00c18)" style="fill: none; stroke: #ff0000; stroke-linecap: square"/>
   </g>
   <g id="patch_4">
    <path d="M 30.103125 317.515077 
L 30.103125 7.2 
" style="fill: none; stroke: #000000; stroke-width: 0.8; stroke-linejoin: miter; stroke-linecap: square"/>
   </g>
   <g id="patch_5">
    <path d="M 24.678036 311.547479 
L 306.782652 311.547479 
" style="fill: none; stroke: #000000; stroke-width: 0.8; stroke-linejoin: miter; stroke-linecap: square"/>
   </g>
   <g id="text_11">
    <!-- $y=1$ -->
    <g transform="translate(153.010344 16.454473)scale(0.12 -0.12)">
     <defs>
      <path id="Cmmi10-79" d="M 538 -916 
Q 672 -1147 1006 -1147 
Q 1309 -1147 1531 -934 
Q 1753 -722 1889 -420 
Q 2025 -119 2100 197 
Q 1816 -72 1484 -72 
Q 1231 -72 1053 15 
Q 875 103 776 276 
Q 678 450 678 697 
Q 678 906 734 1126 
Q 791 1347 892 1617 
Q 994 1888 1069 2088 
Q 1153 2322 1153 2472 
Q 1153 2663 1013 2663 
Q 759 2663 595 2402 
Q 431 2141 353 1819 
Q 341 1778 300 1778 
L 225 1778 
Q 172 1778 172 1838 
L 172 1856 
Q 275 2238 487 2533 
Q 700 2828 1025 2828 
Q 1253 2828 1411 2678 
Q 1569 2528 1569 2297 
Q 1569 2178 1516 2047 
Q 1488 1969 1388 1706 
Q 1288 1444 1234 1272 
Q 1181 1100 1147 934 
Q 1113 769 1113 603 
Q 1113 391 1203 244 
Q 1294 97 1491 97 
Q 1888 97 2203 581 
L 2688 2553 
Q 2709 2638 2787 2698 
Q 2866 2759 2956 2759 
Q 3034 2759 3092 2709 
Q 3150 2659 3150 2578 
Q 3150 2541 3144 2528 
L 2509 -19 
Q 2425 -347 2200 -647 
Q 1975 -947 1658 -1130 
Q 1341 -1313 997 -1313 
Q 831 -1313 668 -1248 
Q 506 -1184 406 -1056 
Q 306 -928 306 -756 
Q 306 -581 409 -453 
Q 513 -325 684 -325 
Q 788 -325 858 -389 
Q 928 -453 928 -556 
Q 928 -703 818 -812 
Q 709 -922 563 -922 
Q 556 -919 550 -917 
Q 544 -916 538 -916 
z
" transform="scale(0.015625)"/>
      <path id="Cmr10-3d" d="M 481 850 
Q 428 850 393 890 
Q 359 931 359 978 
Q 359 1031 393 1068 
Q 428 1106 481 1106 
L 4500 1106 
Q 4547 1106 4581 1068 
Q 4616 1031 4616 978 
Q 4616 931 4581 890 
Q 4547 850 4500 850 
L 481 850 
z
M 481 2094 
Q 428 2094 393 2131 
Q 359 2169 359 2222 
Q 359 2269 393 2309 
Q 428 2350 481 2350 
L 4500 2350 
Q 4547 2350 4581 2309 
Q 4616 2269 4616 2222 
Q 4616 2169 4581 2131 
Q 4547 2094 4500 2094 
L 481 2094 
z
" transform="scale(0.015625)"/>
      <path id="Cmr10-31" d="M 594 0 
L 594 225 
Q 1394 225 1394 428 
L 1394 3788 
Q 1063 3628 556 3628 
L 556 3853 
Q 1341 3853 1741 4263 
L 1831 4263 
Q 1853 4263 1873 4245 
Q 1894 4228 1894 4206 
L 1894 428 
Q 1894 225 2694 225 
L 2694 0 
L 594 0 
z
" transform="scale(0.015625)"/>
     </defs>
     <use xlink:href="#Cmmi10-79" transform="translate(0 0.390625)"/>
     <use xlink:href="#Cmr10-3d" transform="translate(66.582031 0.390625)"/>
     <use xlink:href="#Cmr10-31" transform="translate(161.826172 0.390625)"/>
    </g>
   </g>
   <g id="text_12">
    <!-- $y=x^2$ -->
    <g transform="translate(149.710344 220.448426)scale(0.12 -0.12)">
     <defs>
      <path id="Cmmi10-78" d="M 500 184 
Q 613 97 819 97 
Q 1019 97 1172 289 
Q 1325 481 1381 709 
L 1672 1844 
Q 1741 2153 1741 2266 
Q 1741 2425 1652 2544 
Q 1563 2663 1403 2663 
Q 1200 2663 1022 2536 
Q 844 2409 722 2214 
Q 600 2019 550 1819 
Q 538 1778 500 1778 
L 422 1778 
Q 372 1778 372 1838 
L 372 1856 
Q 434 2094 584 2320 
Q 734 2547 951 2687 
Q 1169 2828 1416 2828 
Q 1650 2828 1839 2703 
Q 2028 2578 2106 2363 
Q 2216 2559 2386 2693 
Q 2556 2828 2759 2828 
Q 2897 2828 3040 2779 
Q 3184 2731 3275 2631 
Q 3366 2531 3366 2381 
Q 3366 2219 3261 2101 
Q 3156 1984 2994 1984 
Q 2891 1984 2822 2050 
Q 2753 2116 2753 2216 
Q 2753 2350 2845 2451 
Q 2938 2553 3066 2572 
Q 2950 2663 2747 2663 
Q 2541 2663 2389 2472 
Q 2238 2281 2175 2047 
L 1894 916 
Q 1825 659 1825 494 
Q 1825 331 1917 214 
Q 2009 97 2163 97 
Q 2463 97 2698 361 
Q 2934 625 3009 941 
Q 3022 978 3059 978 
L 3138 978 
Q 3163 978 3178 961 
Q 3194 944 3194 922 
Q 3194 916 3188 903 
Q 3097 522 2806 225 
Q 2516 -72 2150 -72 
Q 1916 -72 1727 54 
Q 1538 181 1459 397 
Q 1359 209 1182 68 
Q 1006 -72 806 -72 
Q 669 -72 523 -23 
Q 378 25 287 125 
Q 197 225 197 378 
Q 197 528 301 651 
Q 406 775 563 775 
Q 669 775 741 711 
Q 813 647 813 544 
Q 813 409 723 309 
Q 634 209 500 184 
z
" transform="scale(0.015625)"/>
      <path id="Cmr10-32" d="M 319 0 
L 319 172 
Q 319 188 331 206 
L 1325 1306 
Q 1550 1550 1690 1715 
Q 1831 1881 1968 2097 
Q 2106 2313 2186 2536 
Q 2266 2759 2266 3009 
Q 2266 3272 2169 3511 
Q 2072 3750 1880 3894 
Q 1688 4038 1416 4038 
Q 1138 4038 916 3870 
Q 694 3703 603 3438 
Q 628 3444 672 3444 
Q 816 3444 917 3347 
Q 1019 3250 1019 3097 
Q 1019 2950 917 2848 
Q 816 2747 672 2747 
Q 522 2747 420 2851 
Q 319 2956 319 3097 
Q 319 3338 409 3548 
Q 500 3759 670 3923 
Q 841 4088 1055 4175 
Q 1269 4263 1509 4263 
Q 1875 4263 2190 4108 
Q 2506 3953 2690 3670 
Q 2875 3388 2875 3009 
Q 2875 2731 2753 2481 
Q 2631 2231 2440 2026 
Q 2250 1822 1953 1562 
Q 1656 1303 1563 1216 
L 838 519 
L 1453 519 
Q 1906 519 2211 526 
Q 2516 534 2534 550 
Q 2609 631 2688 1141 
L 2875 1141 
L 2694 0 
L 319 0 
z
" transform="scale(0.015625)"/>
     </defs>
     <use xlink:href="#Cmmi10-79" transform="translate(0 0.109375)"/>
     <use xlink:href="#Cmr10-3d" transform="translate(66.582031 0.109375)"/>
     <use xlink:href="#Cmmi10-78" transform="translate(161.826172 0.109375)"/>
     <use xlink:href="#Cmr10-32" transform="translate(225.209531 38.373438)scale(0.7)"/>
    </g>
   </g>
   <g id="text_13">
    <!-- $\mathcal{R}$ -->
    <g transform="translate(79.254013 97.855179)scale(0.12 -0.12)">
     <defs>
      <path id="Cmsy10-52" d="M 738 -91 
Q 738 -78 744 -56 
Q 966 475 1128 959 
Q 1291 1444 1428 1991 
Q 1678 2959 1766 3994 
Q 1425 3994 1094 3872 
Q 922 3803 833 3695 
Q 744 3588 684 3397 
Q 622 3291 472 3197 
Q 322 3103 206 3103 
L 166 3103 
Q 122 3131 122 3169 
Q 234 3556 581 3828 
Q 928 4100 1387 4236 
Q 1847 4372 2259 4372 
L 2931 4372 
Q 3378 4372 3739 4331 
Q 4100 4291 4392 4112 
Q 4684 3934 4684 3572 
Q 4684 3281 4548 3014 
Q 4413 2747 4189 2533 
Q 3966 2319 3697 2158 
Q 3428 1997 3156 1900 
Q 3253 1784 3383 1501 
Q 3513 1219 3659 911 
Q 3806 603 3951 420 
Q 4097 238 4256 238 
Q 4444 238 4551 308 
Q 4659 378 4775 520 
Q 4891 663 4997 745 
Q 5103 828 5281 844 
L 5319 844 
Q 5363 822 5363 794 
Q 5363 784 5356 768 
Q 5350 753 5344 738 
Q 5188 503 4936 297 
Q 4684 91 4393 -25 
Q 4103 -141 3828 -141 
L 3788 -141 
Q 3541 -141 3372 98 
Q 3203 338 3003 811 
Q 2803 1284 2651 1515 
Q 2500 1747 2278 1747 
Q 2266 1753 2250 1765 
Q 2234 1778 2234 1797 
Q 2234 1900 2420 2006 
Q 2606 2113 2719 2125 
Q 3072 2125 3395 2262 
Q 3719 2400 3917 2667 
Q 4116 2934 4116 3291 
Q 4116 3613 3833 3767 
Q 3550 3922 3203 3958 
Q 2856 3994 2450 3994 
L 2309 3994 
Q 2209 3041 1954 2070 
Q 1700 1100 1300 153 
Q 1238 41 1092 -43 
Q 947 -128 813 -141 
L 781 -141 
Q 769 -134 753 -121 
Q 738 -109 738 -91 
z
" transform="scale(0.015625)"/>
     </defs>
     <use xlink:href="#Cmsy10-52" transform="translate(0 0.6875)"/>
    </g>
   </g>
  </g>
 </g>
 <defs>
  <clipPath id="pa2cde00c18">
   <rect x="24.678036" y="7.2" width="282.104615" height="310.315077"/>
  </clipPath>
 </defs>
</svg>
