<?xml version="1.0" encoding="utf-8" standalone="no"?>
<!DOCTYPE svg PUBLIC "-//W3C//DTD SVG 1.1//EN"
  "http://www.w3.org/Graphics/SVG/1.1/DTD/svg11.dtd">
<svg xmlns:xlink="http://www.w3.org/1999/xlink" width="316.509125pt" height="335.425604pt" viewBox="0 0 316.509125 335.425604" xmlns="http://www.w3.org/2000/svg" version="1.1">
 <metadata>
  <rdf:RDF xmlns:dc="http://purl.org/dc/elements/1.1/" xmlns:cc="http://creativecommons.org/ns#" xmlns:rdf="http://www.w3.org/1999/02/22-rdf-syntax-ns#">
   <cc:Work>
    <dc:type rdf:resource="http://purl.org/dc/dcmitype/StillImage"/>
    <dc:date>2022-11-21T11:06:32.452749</dc:date>
    <dc:format>image/svg+xml</dc:format>
    <dc:creator>
     <cc:Agent>
      <dc:title>Matplotlib v3.5.1, https://matplotlib.org/</dc:title>
     </cc:Agent>
    </dc:creator>
   </cc:Work>
  </rdf:RDF>
 </metadata>
 <defs>
  <style type="text/css">*{stroke-linejoin: round; stroke-linecap: butt}</style>
 </defs>
 <g id="figure_1">
  <g id="patch_1">
   <path d="M 0 335.425604 
L 316.509125 335.425604 
L 316.509125 0 
L 0 0 
z
" style="fill: #ffffff"/>
  </g>
  <g id="axes_1">
   <g id="patch_2">
    <path d="M 24.678036 317.515077 
L 306.782652 317.515077 
L 306.782652 7.2 
L 24.678036 7.2 
z
" style="fill: #ffffff"/>
   </g>
   <g id="patch_3">
    <path d="M 301.357563 40.293041 
L 299.996567 43.008204 
L 298.72332 45.535946 
L 297.420926 48.109184 
L 296.333209 50.248685 
L 294.478987 53.875763 
L 292.755479 57.224418 
L 292.303819 58.098339 
L 290.91507 60.776022 
L 289.23027 64.005439 
L 287.480989 67.336305 
L 286.859296 68.514658 
L 284.900183 72.209309 
L 283.966757 73.959685 
L 282.072081 77.492858 
L 280.90474 79.656527 
L 280.140288 81.067994 
L 278.140889 84.739274 
L 276.264318 88.158203 
L 275.809206 88.98346 
L 274.760362 90.879518 
L 272.618478 94.726339 
L 271.335112 97.015057 
L 269.716456 99.884404 
L 268.599472 101.853187 
L 267.719755 103.397289 
L 266.120652 106.189464 
L 263.998114 109.866481 
L 263.07237 111.459808 
L 262.246726 112.875516 
L 260.976496 115.043732 
L 259.656923 117.283574 
L 257.228643 121.371786 
L 256.578813 122.458453 
L 255.125043 124.878226 
L 253.901378 126.902914 
L 252.727474 128.83489 
L 251.592647 130.692897 
L 248.988296 134.920994 
L 247.835821 136.776046 
L 247.30618 137.625285 
L 246.107514 139.539616 
L 244.034167 142.825849 
L 242.095714 145.869608 
L 241.273849 147.151737 
L 240.195971 148.825703 
L 238.688205 151.152921 
L 237.087128 153.605815 
L 236.075159 155.14643 
L 234.757165 157.141614 
L 233.246278 159.413044 
L 231.761586 161.628698 
L 230.18241 163.967515 
L 228.899369 165.854208 
L 227.612035 167.735014 
L 226.598347 169.207422 
L 225.011923 171.496537 
L 223.253515 174.012132 
L 222.978641 174.403309 
L 220.533788 177.8581 
L 219.027413 179.964797 
L 217.79838 181.67123 
L 217.127814 182.597574 
L 215.461338 184.885342 
L 213.965211 186.921807 
L 212.296938 189.173129 
L 211.930179 189.665317 
L 209.682192 192.660425 
L 209.126063 193.395635 
L 206.696437 196.580888 
L 205.640423 197.95176 
L 204.985858 198.79736 
L 203.539471 200.654672 
L 202.063721 202.533791 
L 200.338654 204.710019 
L 199.217029 206.113213 
L 198.014948 207.606763 
L 196.354752 209.651991 
L 195.462773 210.742444 
L 193.392952 213.25022 
L 192.928248 213.80891 
L 191.243551 215.820983 
L 190.13693 217.131259 
L 187.81003 219.856932 
L 186.481728 221.394973 
L 185.228328 222.834355 
L 184.231595 223.970718 
L 182.340657 226.106421 
L 181.116349 227.475145 
L 179.896328 228.828082 
L 179.120597 229.682618 
L 176.999924 231.996082 
L 175.444869 233.671435 
L 173.94957 235.265594 
L 172.850969 236.426324 
L 171.785285 237.54377 
L 170.809135 238.559987 
L 169.128238 240.293412 
L 167.870954 241.576367 
L 166.266074 243.197082 
L 165.210454 244.252764 
L 163.448374 245.996642 
L 162.332489 247.089162 
L 161.526306 247.872751 
L 159.582255 249.74261 
L 158.236393 251.020785 
L 156.569881 252.584977 
L 155.530387 253.550279 
L 153.638596 255.286602 
L 153.046314 255.824787 
L 151.923357 256.838074 
L 150.54641 258.067857 
L 148.994069 259.437524 
L 146.716478 261.414939 
L 145.973594 262.051641 
L 145.276336 262.645538 
L 143.769443 263.916805 
L 141.996367 265.391192 
L 140.650403 266.494942 
L 139.807704 267.179193 
L 137.149706 269.303118 
L 136.642652 269.702373 
L 135.385815 270.683836 
L 133.368145 272.235075 
L 132.65499 272.776187 
L 131.414846 273.708228 
L 129.827887 274.884381 
L 128.303049 275.997001 
L 126.940767 276.97651 
L 125.943692 277.684755 
L 123.740117 279.224003 
L 123.251879 279.560204 
L 121.785777 280.559198 
L 119.695209 281.95629 
L 118.378511 282.819677 
L 117.465593 283.410794 
L 116.139293 284.258628 
L 114.007232 285.594359 
L 113.726832 285.767535 
L 111.945816 286.853962 
L 110.812103 287.53335 
L 108.928531 288.641146 
L 108.260634 289.027678 
L 106.303735 290.141256 
L 105.673605 290.493824 
L 104.386363 291.204957 
L 101.691566 292.65413 
L 100.954548 293.041149 
L 99.104753 293.994865 
L 98.612032 294.244646 
L 97.012872 295.042996 
L 96.14668 295.467554 
L 94.688521 296.169765 
L 92.720042 297.092865 
L 92.082261 297.385818 
L 89.568991 298.51105 
L 89.35716 298.603762 
L 87.967876 299.20361 
L 85.84334 300.093394 
L 84.344757 300.701004 
L 83.84705 300.899139 
L 81.501807 301.808193 
L 80.099774 302.332275 
L 78.747216 302.824129 
L 77.676238 303.204017 
L 76.839066 303.495083 
L 74.681084 304.221537 
L 74.326839 304.337507 
L 72.433456 304.941663 
L 71.574175 305.20713 
L 69.271045 305.891808 
L 68.500507 306.112144 
L 66.855748 306.567818 
L 65.266655 306.989125 
L 64.737632 307.125251 
L 63.251964 307.496502 
L 61.908353 307.818241 
L 60.286719 308.188827 
L 58.751728 308.52175 
L 57.142852 308.852051 
L 55.810349 309.111164 
L 55.137983 309.23694 
L 52.856037 309.638957 
L 51.842475 309.805206 
L 50.196085 310.059109 
L 49.748363 310.124699 
L 48.254586 310.332843 
L 46.950374 310.501119 
L 44.492915 310.784115 
L 43.775917 310.858291 
L 42.370933 310.992653 
L 40.474451 311.150935 
L 39.057833 311.251865 
L 38.909573 311.261572 
L 36.93486 311.375417 
L 36.171624 311.411715 
L 34.556648 311.47436 
L 33.275465 311.510379 
L 31.480185 311.540488 
L 30.103125 311.547479 
L 30.103125 40.293041 
L 31.79567 40.293041 
L 32.238884 40.293041 
L 34.254662 40.293041 
L 35.963055 40.293041 
L 36.760755 40.293041 
L 37.71743 40.293041 
L 39.63565 40.293041 
L 40.328863 40.293041 
L 43.039797 40.293041 
L 43.973722 40.293041 
L 45.503596 40.293041 
L 45.801603 40.293041 
L 48.367438 40.293041 
L 49.15978 40.293041 
L 50.978711 40.293041 
L 52.110436 40.293041 
L 53.693534 40.293041 
L 54.212397 40.293041 
L 56.587483 40.293041 
L 56.939467 40.293041 
L 58.410655 40.293041 
L 59.872615 40.293041 
L 61.650987 40.293041 
L 62.68241 40.293041 
L 64.731808 40.293041 
L 66.095026 40.293041 
L 67.531229 40.293041 
L 67.755697 40.293041 
L 70.237115 40.293041 
L 71.426386 40.293041 
L 71.79131 40.293041 
L 73.702681 40.293041 
L 74.678333 40.293041 
L 76.856933 40.293041 
L 78.125551 40.293041 
L 78.661952 40.293041 
L 80.41781 40.293041 
L 81.48237 40.293041 
L 83.187777 40.293041 
L 84.025762 40.293041 
L 85.994975 40.293041 
L 86.845797 40.293041 
L 88.359436 40.293041 
L 90.541625 40.293041 
L 91.524564 40.293041 
L 92.42652 40.293041 
L 94.091573 40.293041 
L 96.146778 40.293041 
L 96.624788 40.293041 
L 98.059953 40.293041 
L 99.461411 40.293041 
L 101.375564 40.293041 
L 102.826578 40.293041 
L 104.009815 40.293041 
L 104.894034 40.293041 
L 106.691074 40.293041 
L 108.185779 40.293041 
L 109.46638 40.293041 
L 110.514763 40.293041 
L 111.534968 40.293041 
L 112.789104 40.293041 
L 113.935519 40.293041 
L 115.501607 40.293041 
L 117.127236 40.293041 
L 118.130201 40.293041 
L 120.232249 40.293041 
L 121.030612 40.293041 
L 122.676602 40.293041 
L 124.31545 40.293041 
L 125.731241 40.293041 
L 126.418091 40.293041 
L 128.094804 40.293041 
L 130.055734 40.293041 
L 130.921606 40.293041 
L 132.445195 40.293041 
L 133.928765 40.293041 
L 135.177055 40.293041 
L 136.376158 40.293041 
L 137.934215 40.293041 
L 139.420473 40.293041 
L 140.75194 40.293041 
L 142.491989 40.293041 
L 143.236877 40.293041 
L 144.430501 40.293041 
L 146.354732 40.293041 
L 146.906713 40.293041 
L 148.80321 40.293041 
L 150.543402 40.293041 
L 150.893352 40.293041 
L 152.545467 40.293041 
L 154.379596 40.293041 
L 155.183986 40.293041 
L 156.858037 40.293041 
L 157.55886 40.293041 
L 159.48619 40.293041 
L 160.862861 40.293041 
L 161.828191 40.293041 
L 163.782052 40.293041 
L 164.780226 40.293041 
L 166.740007 40.293041 
L 168.309301 40.293041 
L 168.510839 40.293041 
L 170.445099 40.293041 
L 171.490305 40.293041 
L 173.154337 40.293041 
L 173.990475 40.293041 
L 176.472178 40.293041 
L 177.047764 40.293041 
L 179.050464 40.293041 
L 179.835151 40.293041 
L 181.45635 40.293041 
L 183.348283 40.293041 
L 184.190765 40.293041 
L 185.434259 40.293041 
L 187.232632 40.293041 
L 188.167226 40.293041 
L 189.799714 40.293041 
L 191.431874 40.293041 
L 192.48072 40.293041 
L 193.735225 40.293041 
L 195.237966 40.293041 
L 196.893084 40.293041 
L 197.430156 40.293041 
L 198.881501 40.293041 
L 201.122412 40.293041 
L 201.679232 40.293041 
L 203.812342 40.293041 
L 204.840814 40.293041 
L 206.199573 40.293041 
L 207.889962 40.293041 
L 208.252502 40.293041 
L 210.383135 40.293041 
L 211.440982 40.293041 
L 213.34121 40.293041 
L 213.866134 40.293041 
L 215.173448 40.293041 
L 216.315278 40.293041 
L 217.783207 40.293041 
L 219.504269 40.293041 
L 220.351285 40.293041 
L 222.140289 40.293041 
L 224.286274 40.293041 
L 224.442284 40.293041 
L 225.763219 40.293041 
L 227.442939 40.293041 
L 228.473812 40.293041 
L 230.777829 40.293041 
L 231.989747 40.293041 
L 233.581943 40.293041 
L 234.954648 40.293041 
L 235.792034 40.293041 
L 237.0059 40.293041 
L 238.16185 40.293041 
L 239.619363 40.293041 
L 241.160936 40.293041 
L 242.578302 40.293041 
L 243.839092 40.293041 
L 244.951378 40.293041 
L 246.915987 40.293041 
L 247.903072 40.293041 
L 250.143177 40.293041 
L 251.471614 40.293041 
L 252.000941 40.293041 
L 253.264508 40.293041 
L 255.129329 40.293041 
L 256.725889 40.293041 
L 257.517147 40.293041 
L 259.660631 40.293041 
L 260.84691 40.293041 
L 262.213 40.293041 
L 263.348045 40.293041 
L 265.198823 40.293041 
L 266.147422 40.293041 
L 267.914657 40.293041 
L 268.770415 40.293041 
L 270.334198 40.293041 
L 271.049511 40.293041 
L 272.433111 40.293041 
L 274.009014 40.293041 
L 275.616303 40.293041 
L 277.087302 40.293041 
L 277.73131 40.293041 
L 279.52456 40.293041 
L 281.091562 40.293041 
L 282.72874 40.293041 
L 283.338058 40.293041 
L 284.712973 40.293041 
L 286.240272 40.293041 
L 287.070917 40.293041 
L 289.18628 40.293041 
L 289.836286 40.293041 
L 291.966791 40.293041 
L 292.960204 40.293041 
L 295.101946 40.293041 
L 295.77922 40.293041 
L 297.364344 40.293041 
L 298.0644 40.293041 
L 299.928386 40.293041 
z
" clip-path="url(#p7712b302e7)" style="fill: #008000; opacity: 0.5"/>
   </g>
   <g id="matplotlib.axis_1">
    <g id="xtick_1">
     <g id="line2d_1">
      <defs>
       <path id="m99cfab7c9c" d="M 0 0 
L 0 3.5 
" style="stroke: #000000; stroke-width: 0.8"/>
      </defs>
      <g>
       <use xlink:href="#m99cfab7c9c" x="30.103125" y="311.547479" style="stroke: #000000; stroke-width: 0.8"/>
      </g>
     </g>
    </g>
    <g id="xtick_2">
     <g id="line2d_2">
      <g>
       <use xlink:href="#m99cfab7c9c" x="84.354013" y="311.547479" style="stroke: #000000; stroke-width: 0.8"/>
      </g>
     </g>
     <g id="text_1">
      <!-- 0.2 -->
      <g transform="translate(76.40245 326.145917)scale(0.1 -0.1)">
       <defs>
        <path id="DejaVuSans-30" d="M 2034 4250 
Q 1547 4250 1301 3770 
Q 1056 3291 1056 2328 
Q 1056 1369 1301 889 
Q 1547 409 2034 409 
Q 2525 409 2770 889 
Q 3016 1369 3016 2328 
Q 3016 3291 2770 3770 
Q 2525 4250 2034 4250 
z
M 2034 4750 
Q 2819 4750 3233 4129 
Q 3647 3509 3647 2328 
Q 3647 1150 3233 529 
Q 2819 -91 2034 -91 
Q 1250 -91 836 529 
Q 422 1150 422 2328 
Q 422 3509 836 4129 
Q 1250 4750 2034 4750 
z
" transform="scale(0.015625)"/>
        <path id="DejaVuSans-2e" d="M 684 794 
L 1344 794 
L 1344 0 
L 684 0 
L 684 794 
z
" transform="scale(0.015625)"/>
        <path id="DejaVuSans-32" d="M 1228 531 
L 3431 531 
L 3431 0 
L 469 0 
L 469 531 
Q 828 903 1448 1529 
Q 2069 2156 2228 2338 
Q 2531 2678 2651 2914 
Q 2772 3150 2772 3378 
Q 2772 3750 2511 3984 
Q 2250 4219 1831 4219 
Q 1534 4219 1204 4116 
Q 875 4013 500 3803 
L 500 4441 
Q 881 4594 1212 4672 
Q 1544 4750 1819 4750 
Q 2544 4750 2975 4387 
Q 3406 4025 3406 3419 
Q 3406 3131 3298 2873 
Q 3191 2616 2906 2266 
Q 2828 2175 2409 1742 
Q 1991 1309 1228 531 
z
" transform="scale(0.015625)"/>
       </defs>
       <use xlink:href="#DejaVuSans-30"/>
       <use xlink:href="#DejaVuSans-2e" x="63.623047"/>
       <use xlink:href="#DejaVuSans-32" x="95.410156"/>
      </g>
     </g>
    </g>
    <g id="xtick_3">
     <g id="line2d_3">
      <g>
       <use xlink:href="#m99cfab7c9c" x="138.6049" y="311.547479" style="stroke: #000000; stroke-width: 0.8"/>
      </g>
     </g>
     <g id="text_2">
      <!-- 0.4 -->
      <g transform="translate(130.653338 326.145917)scale(0.1 -0.1)">
       <defs>
        <path id="DejaVuSans-34" d="M 2419 4116 
L 825 1625 
L 2419 1625 
L 2419 4116 
z
M 2253 4666 
L 3047 4666 
L 3047 1625 
L 3713 1625 
L 3713 1100 
L 3047 1100 
L 3047 0 
L 2419 0 
L 2419 1100 
L 313 1100 
L 313 1709 
L 2253 4666 
z
" transform="scale(0.015625)"/>
       </defs>
       <use xlink:href="#DejaVuSans-30"/>
       <use xlink:href="#DejaVuSans-2e" x="63.623047"/>
       <use xlink:href="#DejaVuSans-34" x="95.410156"/>
      </g>
     </g>
    </g>
    <g id="xtick_4">
     <g id="line2d_4">
      <g>
       <use xlink:href="#m99cfab7c9c" x="192.855788" y="311.547479" style="stroke: #000000; stroke-width: 0.8"/>
      </g>
     </g>
     <g id="text_3">
      <!-- 0.6 -->
      <g transform="translate(184.904225 326.145917)scale(0.1 -0.1)">
       <defs>
        <path id="DejaVuSans-36" d="M 2113 2584 
Q 1688 2584 1439 2293 
Q 1191 2003 1191 1497 
Q 1191 994 1439 701 
Q 1688 409 2113 409 
Q 2538 409 2786 701 
Q 3034 994 3034 1497 
Q 3034 2003 2786 2293 
Q 2538 2584 2113 2584 
z
M 3366 4563 
L 3366 3988 
Q 3128 4100 2886 4159 
Q 2644 4219 2406 4219 
Q 1781 4219 1451 3797 
Q 1122 3375 1075 2522 
Q 1259 2794 1537 2939 
Q 1816 3084 2150 3084 
Q 2853 3084 3261 2657 
Q 3669 2231 3669 1497 
Q 3669 778 3244 343 
Q 2819 -91 2113 -91 
Q 1303 -91 875 529 
Q 447 1150 447 2328 
Q 447 3434 972 4092 
Q 1497 4750 2381 4750 
Q 2619 4750 2861 4703 
Q 3103 4656 3366 4563 
z
" transform="scale(0.015625)"/>
       </defs>
       <use xlink:href="#DejaVuSans-30"/>
       <use xlink:href="#DejaVuSans-2e" x="63.623047"/>
       <use xlink:href="#DejaVuSans-36" x="95.410156"/>
      </g>
     </g>
    </g>
    <g id="xtick_5">
     <g id="line2d_5">
      <g>
       <use xlink:href="#m99cfab7c9c" x="247.106675" y="311.547479" style="stroke: #000000; stroke-width: 0.8"/>
      </g>
     </g>
     <g id="text_4">
      <!-- 0.8 -->
      <g transform="translate(239.155113 326.145917)scale(0.1 -0.1)">
       <defs>
        <path id="DejaVuSans-38" d="M 2034 2216 
Q 1584 2216 1326 1975 
Q 1069 1734 1069 1313 
Q 1069 891 1326 650 
Q 1584 409 2034 409 
Q 2484 409 2743 651 
Q 3003 894 3003 1313 
Q 3003 1734 2745 1975 
Q 2488 2216 2034 2216 
z
M 1403 2484 
Q 997 2584 770 2862 
Q 544 3141 544 3541 
Q 544 4100 942 4425 
Q 1341 4750 2034 4750 
Q 2731 4750 3128 4425 
Q 3525 4100 3525 3541 
Q 3525 3141 3298 2862 
Q 3072 2584 2669 2484 
Q 3125 2378 3379 2068 
Q 3634 1759 3634 1313 
Q 3634 634 3220 271 
Q 2806 -91 2034 -91 
Q 1263 -91 848 271 
Q 434 634 434 1313 
Q 434 1759 690 2068 
Q 947 2378 1403 2484 
z
M 1172 3481 
Q 1172 3119 1398 2916 
Q 1625 2713 2034 2713 
Q 2441 2713 2670 2916 
Q 2900 3119 2900 3481 
Q 2900 3844 2670 4047 
Q 2441 4250 2034 4250 
Q 1625 4250 1398 4047 
Q 1172 3844 1172 3481 
z
" transform="scale(0.015625)"/>
       </defs>
       <use xlink:href="#DejaVuSans-30"/>
       <use xlink:href="#DejaVuSans-2e" x="63.623047"/>
       <use xlink:href="#DejaVuSans-38" x="95.410156"/>
      </g>
     </g>
    </g>
    <g id="xtick_6">
     <g id="line2d_6">
      <g>
       <use xlink:href="#m99cfab7c9c" x="301.357563" y="311.547479" style="stroke: #000000; stroke-width: 0.8"/>
      </g>
     </g>
     <g id="text_5">
      <!-- 1.0 -->
      <g transform="translate(293.406 326.145917)scale(0.1 -0.1)">
       <defs>
        <path id="DejaVuSans-31" d="M 794 531 
L 1825 531 
L 1825 4091 
L 703 3866 
L 703 4441 
L 1819 4666 
L 2450 4666 
L 2450 531 
L 3481 531 
L 3481 0 
L 794 0 
L 794 531 
z
" transform="scale(0.015625)"/>
       </defs>
       <use xlink:href="#DejaVuSans-31"/>
       <use xlink:href="#DejaVuSans-2e" x="63.623047"/>
       <use xlink:href="#DejaVuSans-30" x="95.410156"/>
      </g>
     </g>
    </g>
    <g id="xtick_7">
     <g id="line2d_7">
      <defs>
       <path id="m7969f61573" d="M 0 0 
L 0 2 
" style="stroke: #000000; stroke-width: 0.6"/>
      </defs>
      <g>
       <use xlink:href="#m7969f61573" x="43.665847" y="311.547479" style="stroke: #000000; stroke-width: 0.6"/>
      </g>
     </g>
    </g>
    <g id="xtick_8">
     <g id="line2d_8">
      <g>
       <use xlink:href="#m7969f61573" x="57.228569" y="311.547479" style="stroke: #000000; stroke-width: 0.6"/>
      </g>
     </g>
    </g>
    <g id="xtick_9">
     <g id="line2d_9">
      <g>
       <use xlink:href="#m7969f61573" x="70.791291" y="311.547479" style="stroke: #000000; stroke-width: 0.6"/>
      </g>
     </g>
    </g>
    <g id="xtick_10">
     <g id="line2d_10">
      <g>
       <use xlink:href="#m7969f61573" x="97.916734" y="311.547479" style="stroke: #000000; stroke-width: 0.6"/>
      </g>
     </g>
    </g>
    <g id="xtick_11">
     <g id="line2d_11">
      <g>
       <use xlink:href="#m7969f61573" x="111.479456" y="311.547479" style="stroke: #000000; stroke-width: 0.6"/>
      </g>
     </g>
    </g>
    <g id="xtick_12">
     <g id="line2d_12">
      <g>
       <use xlink:href="#m7969f61573" x="125.042178" y="311.547479" style="stroke: #000000; stroke-width: 0.6"/>
      </g>
     </g>
    </g>
    <g id="xtick_13">
     <g id="line2d_13">
      <g>
       <use xlink:href="#m7969f61573" x="152.167622" y="311.547479" style="stroke: #000000; stroke-width: 0.6"/>
      </g>
     </g>
    </g>
    <g id="xtick_14">
     <g id="line2d_14">
      <g>
       <use xlink:href="#m7969f61573" x="165.730344" y="311.547479" style="stroke: #000000; stroke-width: 0.6"/>
      </g>
     </g>
    </g>
    <g id="xtick_15">
     <g id="line2d_15">
      <g>
       <use xlink:href="#m7969f61573" x="179.293066" y="311.547479" style="stroke: #000000; stroke-width: 0.6"/>
      </g>
     </g>
    </g>
    <g id="xtick_16">
     <g id="line2d_16">
      <g>
       <use xlink:href="#m7969f61573" x="206.41851" y="311.547479" style="stroke: #000000; stroke-width: 0.6"/>
      </g>
     </g>
    </g>
    <g id="xtick_17">
     <g id="line2d_17">
      <g>
       <use xlink:href="#m7969f61573" x="219.981232" y="311.547479" style="stroke: #000000; stroke-width: 0.6"/>
      </g>
     </g>
    </g>
    <g id="xtick_18">
     <g id="line2d_18">
      <g>
       <use xlink:href="#m7969f61573" x="233.543953" y="311.547479" style="stroke: #000000; stroke-width: 0.6"/>
      </g>
     </g>
    </g>
    <g id="xtick_19">
     <g id="line2d_19">
      <g>
       <use xlink:href="#m7969f61573" x="260.669397" y="311.547479" style="stroke: #000000; stroke-width: 0.6"/>
      </g>
     </g>
    </g>
    <g id="xtick_20">
     <g id="line2d_20">
      <g>
       <use xlink:href="#m7969f61573" x="274.232119" y="311.547479" style="stroke: #000000; stroke-width: 0.6"/>
      </g>
     </g>
    </g>
    <g id="xtick_21">
     <g id="line2d_21">
      <g>
       <use xlink:href="#m7969f61573" x="287.794841" y="311.547479" style="stroke: #000000; stroke-width: 0.6"/>
      </g>
     </g>
    </g>
   </g>
   <g id="matplotlib.axis_2">
    <g id="ytick_1">
     <g id="line2d_22">
      <defs>
       <path id="m603f8301d5" d="M 0 0 
L -3.5 0 
" style="stroke: #000000; stroke-width: 0.8"/>
      </defs>
      <g>
       <use xlink:href="#m603f8301d5" x="30.103125" y="311.547479" style="stroke: #000000; stroke-width: 0.8"/>
      </g>
     </g>
    </g>
    <g id="ytick_2">
     <g id="line2d_23">
      <g>
       <use xlink:href="#m603f8301d5" x="30.103125" y="257.296592" style="stroke: #000000; stroke-width: 0.8"/>
      </g>
     </g>
     <g id="text_6">
      <!-- 0.2 -->
      <g transform="translate(7.2 261.09581)scale(0.1 -0.1)">
       <use xlink:href="#DejaVuSans-30"/>
       <use xlink:href="#DejaVuSans-2e" x="63.623047"/>
       <use xlink:href="#DejaVuSans-32" x="95.410156"/>
      </g>
     </g>
    </g>
    <g id="ytick_3">
     <g id="line2d_24">
      <g>
       <use xlink:href="#m603f8301d5" x="30.103125" y="203.045704" style="stroke: #000000; stroke-width: 0.8"/>
      </g>
     </g>
     <g id="text_7">
      <!-- 0.4 -->
      <g transform="translate(7.2 206.844923)scale(0.1 -0.1)">
       <use xlink:href="#DejaVuSans-30"/>
       <use xlink:href="#DejaVuSans-2e" x="63.623047"/>
       <use xlink:href="#DejaVuSans-34" x="95.410156"/>
      </g>
     </g>
    </g>
    <g id="ytick_4">
     <g id="line2d_25">
      <g>
       <use xlink:href="#m603f8301d5" x="30.103125" y="148.794817" style="stroke: #000000; stroke-width: 0.8"/>
      </g>
     </g>
     <g id="text_8">
      <!-- 0.6 -->
      <g transform="translate(7.2 152.594035)scale(0.1 -0.1)">
       <use xlink:href="#DejaVuSans-30"/>
       <use xlink:href="#DejaVuSans-2e" x="63.623047"/>
       <use xlink:href="#DejaVuSans-36" x="95.410156"/>
      </g>
     </g>
    </g>
    <g id="ytick_5">
     <g id="line2d_26">
      <g>
       <use xlink:href="#m603f8301d5" x="30.103125" y="94.543929" style="stroke: #000000; stroke-width: 0.8"/>
      </g>
     </g>
     <g id="text_9">
      <!-- 0.8 -->
      <g transform="translate(7.2 98.343148)scale(0.1 -0.1)">
       <use xlink:href="#DejaVuSans-30"/>
       <use xlink:href="#DejaVuSans-2e" x="63.623047"/>
       <use xlink:href="#DejaVuSans-38" x="95.410156"/>
      </g>
     </g>
    </g>
    <g id="ytick_6">
     <g id="line2d_27">
      <g>
       <use xlink:href="#m603f8301d5" x="30.103125" y="40.293041" style="stroke: #000000; stroke-width: 0.8"/>
      </g>
     </g>
     <g id="text_10">
      <!-- 1.0 -->
      <g transform="translate(7.2 44.09226)scale(0.1 -0.1)">
       <use xlink:href="#DejaVuSans-31"/>
       <use xlink:href="#DejaVuSans-2e" x="63.623047"/>
       <use xlink:href="#DejaVuSans-30" x="95.410156"/>
      </g>
     </g>
    </g>
    <g id="ytick_7">
     <g id="line2d_28">
      <defs>
       <path id="m2bbcb8e7ad" d="M 0 0 
L -2 0 
" style="stroke: #000000; stroke-width: 0.6"/>
      </defs>
      <g>
       <use xlink:href="#m2bbcb8e7ad" x="30.103125" y="297.984757" style="stroke: #000000; stroke-width: 0.6"/>
      </g>
     </g>
    </g>
    <g id="ytick_8">
     <g id="line2d_29">
      <g>
       <use xlink:href="#m2bbcb8e7ad" x="30.103125" y="284.422036" style="stroke: #000000; stroke-width: 0.6"/>
      </g>
     </g>
    </g>
    <g id="ytick_9">
     <g id="line2d_30">
      <g>
       <use xlink:href="#m2bbcb8e7ad" x="30.103125" y="270.859314" style="stroke: #000000; stroke-width: 0.6"/>
      </g>
     </g>
    </g>
    <g id="ytick_10">
     <g id="line2d_31">
      <g>
       <use xlink:href="#m2bbcb8e7ad" x="30.103125" y="243.73387" style="stroke: #000000; stroke-width: 0.6"/>
      </g>
     </g>
    </g>
    <g id="ytick_11">
     <g id="line2d_32">
      <g>
       <use xlink:href="#m2bbcb8e7ad" x="30.103125" y="230.171148" style="stroke: #000000; stroke-width: 0.6"/>
      </g>
     </g>
    </g>
    <g id="ytick_12">
     <g id="line2d_33">
      <g>
       <use xlink:href="#m2bbcb8e7ad" x="30.103125" y="216.608426" style="stroke: #000000; stroke-width: 0.6"/>
      </g>
     </g>
    </g>
    <g id="ytick_13">
     <g id="line2d_34">
      <g>
       <use xlink:href="#m2bbcb8e7ad" x="30.103125" y="189.482982" style="stroke: #000000; stroke-width: 0.6"/>
      </g>
     </g>
    </g>
    <g id="ytick_14">
     <g id="line2d_35">
      <g>
       <use xlink:href="#m2bbcb8e7ad" x="30.103125" y="175.92026" style="stroke: #000000; stroke-width: 0.6"/>
      </g>
     </g>
    </g>
    <g id="ytick_15">
     <g id="line2d_36">
      <g>
       <use xlink:href="#m2bbcb8e7ad" x="30.103125" y="162.357538" style="stroke: #000000; stroke-width: 0.6"/>
      </g>
     </g>
    </g>
    <g id="ytick_16">
     <g id="line2d_37">
      <g>
       <use xlink:href="#m2bbcb8e7ad" x="30.103125" y="135.232095" style="stroke: #000000; stroke-width: 0.6"/>
      </g>
     </g>
    </g>
    <g id="ytick_17">
     <g id="line2d_38">
      <g>
       <use xlink:href="#m2bbcb8e7ad" x="30.103125" y="121.669373" style="stroke: #000000; stroke-width: 0.6"/>
      </g>
     </g>
    </g>
    <g id="ytick_18">
     <g id="line2d_39">
      <g>
       <use xlink:href="#m2bbcb8e7ad" x="30.103125" y="108.106651" style="stroke: #000000; stroke-width: 0.6"/>
      </g>
     </g>
    </g>
    <g id="ytick_19">
     <g id="line2d_40">
      <g>
       <use xlink:href="#m2bbcb8e7ad" x="30.103125" y="80.981207" style="stroke: #000000; stroke-width: 0.6"/>
      </g>
     </g>
    </g>
    <g id="ytick_20">
     <g id="line2d_41">
      <g>
       <use xlink:href="#m2bbcb8e7ad" x="30.103125" y="67.418485" style="stroke: #000000; stroke-width: 0.6"/>
      </g>
     </g>
    </g>
    <g id="ytick_21">
     <g id="line2d_42">
      <g>
       <use xlink:href="#m2bbcb8e7ad" x="30.103125" y="53.855763" style="stroke: #000000; stroke-width: 0.6"/>
      </g>
     </g>
    </g>
    <g id="ytick_22">
     <g id="line2d_43">
      <g>
       <use xlink:href="#m2bbcb8e7ad" x="30.103125" y="26.73032" style="stroke: #000000; stroke-width: 0.6"/>
      </g>
     </g>
    </g>
    <g id="ytick_23">
     <g id="line2d_44">
      <g>
       <use xlink:href="#m2bbcb8e7ad" x="30.103125" y="13.167598" style="stroke: #000000; stroke-width: 0.6"/>
      </g>
     </g>
    </g>
   </g>
   <g id="line2d_45">
    <path d="M 30.103125 40.293041 
L 301.357563 40.293041 
L 301.357563 40.293041 
" clip-path="url(#p7712b302e7)" style="fill: none; stroke: #0000ff; stroke-linecap: square"/>
   </g>
   <g id="line2d_46">
    <path d="M 30.103125 311.547479 
L 35.80565 311.427596 
L 41.77732 311.045048 
L 47.629341 310.41508 
L 53.031483 309.609411 
L 58.666702 308.539684 
L 63.897647 307.337153 
L 70.365966 305.571185 
L 76.182326 303.7198 
L 82.487504 301.431062 
L 87.102969 299.569861 
L 93.311189 296.818654 
L 99.882864 293.596761 
L 105.80165 290.422418 
L 111.880353 286.893449 
L 117.483402 283.399321 
L 124.104784 278.971747 
L 130.522234 274.37206 
L 137.315576 269.1721 
L 143.657219 264.010811 
L 148.877012 259.540086 
L 155.822072 253.280216 
L 162.161455 247.255803 
L 169.296052 240.121289 
L 176.076998 232.992556 
L 182.387103 226.05428 
L 189.309673 218.104861 
L 196.703588 209.223939 
L 204.149259 199.873521 
L 210.774958 191.20913 
L 218.027134 181.354465 
L 224.738482 171.889221 
L 232.074413 161.163208 
L 238.353603 151.667103 
L 246.484368 138.938903 
L 252.989534 128.40448 
L 259.841328 116.971338 
L 268.426729 102.156839 
L 276.549132 87.640969 
L 284.431369 73.089239 
L 293.414994 55.945614 
L 301.357563 40.293041 
L 301.357563 40.293041 
" clip-path="url(#p7712b302e7)" style="fill: none; stroke: #ff0000; stroke-linecap: square"/>
   </g>
   <g id="patch_4">
    <path d="M 30.103125 317.515077 
L 30.103125 7.2 
" style="fill: none; stroke: #000000; stroke-width: 0.8; stroke-linejoin: miter; stroke-linecap: square"/>
   </g>
   <g id="patch_5">
    <path d="M 24.678036 311.547479 
L 306.782652 311.547479 
" style="fill: none; stroke: #000000; stroke-width: 0.8; stroke-linejoin: miter; stroke-linecap: square"/>
   </g>
   <g id="text_11">
    <!-- $y=1$ -->
    <g transform="translate(153.010344 16.454473)scale(0.12 -0.12)">
     <defs>
      <path id="Cmmi10-79" d="M 538 -916 
Q 672 -1147 1006 -1147 
Q 1309 -1147 1531 -934 
Q 1753 -722 1889 -420 
Q 2025 -119 2100 197 
Q 1816 -72 1484 -72 
Q 1231 -72 1053 15 
Q 875 103 776 276 
Q 678 450 678 697 
Q 678 906 734 1126 
Q 791 1347 892 1617 
Q 994 1888 1069 2088 
Q 1153 2322 1153 2472 
Q 1153 2663 1013 2663 
Q 759 2663 595 2402 
Q 431 2141 353 1819 
Q 341 1778 300 1778 
L 225 1778 
Q 172 1778 172 1838 
L 172 1856 
Q 275 2238 487 2533 
Q 700 2828 1025 2828 
Q 1253 2828 1411 2678 
Q 1569 2528 1569 2297 
Q 1569 2178 1516 2047 
Q 1488 1969 1388 1706 
Q 1288 1444 1234 1272 
Q 1181 1100 1147 934 
Q 1113 769 1113 603 
Q 1113 391 1203 244 
Q 1294 97 1491 97 
Q 1888 97 2203 581 
L 2688 2553 
Q 2709 2638 2787 2698 
Q 2866 2759 2956 2759 
Q 3034 2759 3092 2709 
Q 3150 2659 3150 2578 
Q 3150 2541 3144 2528 
L 2509 -19 
Q 2425 -347 2200 -647 
Q 1975 -947 1658 -1130 
Q 1341 -1313 997 -1313 
Q 831 -1313 668 -1248 
Q 506 -1184 406 -1056 
Q 306 -928 306 -756 
Q 306 -581 409 -453 
Q 513 -325 684 -325 
Q 788 -325 858 -389 
Q 928 -453 928 -556 
Q 928 -703 818 -812 
Q 709 -922 563 -922 
Q 556 -919 550 -917 
Q 544 -916 538 -916 
z
" transform="scale(0.015625)"/>
      <path id="Cmr10-3d" d="M 481 850 
Q 428 850 393 890 
Q 359 931 359 978 
Q 359 1031 393 1068 
Q 428 1106 481 1106 
L 4500 1106 
Q 4547 1106 4581 1068 
Q 4616 1031 4616 978 
Q 4616 931 4581 890 
Q 4547 850 4500 850 
L 481 850 
z
M 481 2094 
Q 428 2094 393 2131 
Q 359 2169 359 2222 
Q 359 2269 393 2309 
Q 428 2350 481 2350 
L 4500 2350 
Q 4547 2350 4581 2309 
Q 4616 2269 4616 2222 
Q 4616 2169 4581 2131 
Q 4547 2094 4500 2094 
L 481 2094 
z
" transform="scale(0.015625)"/>
      <path id="Cmr10-31" d="M 594 0 
L 594 225 
Q 1394 225 1394 428 
L 1394 3788 
Q 1063 3628 556 3628 
L 556 3853 
Q 1341 3853 1741 4263 
L 1831 4263 
Q 1853 4263 1873 4245 
Q 1894 4228 1894 4206 
L 1894 428 
Q 1894 225 2694 225 
L 2694 0 
L 594 0 
z
" transform="scale(0.015625)"/>
     </defs>
     <use xlink:href="#Cmmi10-79" transform="translate(0 0.390625)"/>
     <use xlink:href="#Cmr10-3d" transform="translate(66.582031 0.390625)"/>
     <use xlink:href="#Cmr10-31" transform="translate(161.826172 0.390625)"/>
    </g>
   </g>
   <g id="text_12">
    <!-- $y=x^2$ -->
    <g transform="translate(149.710344 220.448426)scale(0.12 -0.12)">
     <defs>
      <path id="Cmmi10-78" d="M 500 184 
Q 613 97 819 97 
Q 1019 97 1172 289 
Q 1325 481 1381 709 
L 1672 1844 
Q 1741 2153 1741 2266 
Q 1741 2425 1652 2544 
Q 1563 2663 1403 2663 
Q 1200 2663 1022 2536 
Q 844 2409 722 2214 
Q 600 2019 550 1819 
Q 538 1778 500 1778 
L 422 1778 
Q 372 1778 372 1838 
L 372 1856 
Q 434 2094 584 2320 
Q 734 2547 951 2687 
Q 1169 2828 1416 2828 
Q 1650 2828 1839 2703 
Q 2028 2578 2106 2363 
Q 2216 2559 2386 2693 
Q 2556 2828 2759 2828 
Q 2897 2828 3040 2779 
Q 3184 2731 3275 2631 
Q 3366 2531 3366 2381 
Q 3366 2219 3261 2101 
Q 3156 1984 2994 1984 
Q 2891 1984 2822 2050 
Q 2753 2116 2753 2216 
Q 2753 2350 2845 2451 
Q 2938 2553 3066 2572 
Q 2950 2663 2747 2663 
Q 2541 2663 2389 2472 
Q 2238 2281 2175 2047 
L 1894 916 
Q 1825 659 1825 494 
Q 1825 331 1917 214 
Q 2009 97 2163 97 
Q 2463 97 2698 361 
Q 2934 625 3009 941 
Q 3022 978 3059 978 
L 3138 978 
Q 3163 978 3178 961 
Q 3194 944 3194 922 
Q 3194 916 3188 903 
Q 3097 522 2806 225 
Q 2516 -72 2150 -72 
Q 1916 -72 1727 54 
Q 1538 181 1459 397 
Q 1359 209 1182 68 
Q 1006 -72 806 -72 
Q 669 -72 523 -23 
Q 378 25 287 125 
Q 197 225 197 378 
Q 197 528 301 651 
Q 406 775 563 775 
Q 669 775 741 711 
Q 813 647 813 544 
Q 813 409 723 309 
Q 634 209 500 184 
z
" transform="scale(0.015625)"/>
      <path id="Cmr10-32" d="M 319 0 
L 319 172 
Q 319 188 331 206 
L 1325 1306 
Q 1550 1550 1690 1715 
Q 1831 1881 1968 2097 
Q 2106 2313 2186 2536 
Q 2266 2759 2266 3009 
Q 2266 3272 2169 3511 
Q 2072 3750 1880 3894 
Q 1688 4038 1416 4038 
Q 1138 4038 916 3870 
Q 694 3703 603 3438 
Q 628 3444 672 3444 
Q 816 3444 917 3347 
Q 1019 3250 1019 3097 
Q 1019 2950 917 2848 
Q 816 2747 672 2747 
Q 522 2747 420 2851 
Q 319 2956 319 3097 
Q 319 3338 409 3548 
Q 500 3759 670 3923 
Q 841 4088 1055 4175 
Q 1269 4263 1509 4263 
Q 1875 4263 2190 4108 
Q 2506 3953 2690 3670 
Q 2875 3388 2875 3009 
Q 2875 2731 2753 2481 
Q 2631 2231 2440 2026 
Q 2250 1822 1953 1562 
Q 1656 1303 1563 1216 
L 838 519 
L 1453 519 
Q 1906 519 2211 526 
Q 2516 534 2534 550 
Q 2609 631 2688 1141 
L 2875 1141 
L 2694 0 
L 319 0 
z
" transform="scale(0.015625)"/>
     </defs>
     <use xlink:href="#Cmmi10-79" transform="translate(0 0.109375)"/>
     <use xlink:href="#Cmr10-3d" transform="translate(66.582031 0.109375)"/>
     <use xlink:href="#Cmmi10-78" transform="translate(161.826172 0.109375)"/>
     <use xlink:href="#Cmr10-32" transform="translate(225.209531 38.373438)scale(0.7)"/>
    </g>
   </g>
   <g id="text_13">
    <!-- $\mathcal{R}$ -->
    <g transform="translate(79.254013 97.855179)scale(0.12 -0.12)">
     <defs>
      <path id="Cmsy10-52" d="M 738 -91 
Q 738 -78 744 -56 
Q 966 475 1128 959 
Q 1291 1444 1428 1991 
Q 1678 2959 1766 3994 
Q 1425 3994 1094 3872 
Q 922 3803 833 3695 
Q 744 3588 684 3397 
Q 622 3291 472 3197 
Q 322 3103 206 3103 
L 166 3103 
Q 122 3131 122 3169 
Q 234 3556 581 3828 
Q 928 4100 1387 4236 
Q 1847 4372 2259 4372 
L 2931 4372 
Q 3378 4372 3739 4331 
Q 4100 4291 4392 4112 
Q 4684 3934 4684 3572 
Q 4684 3281 4548 3014 
Q 4413 2747 4189 2533 
Q 3966 2319 3697 2158 
Q 3428 1997 3156 1900 
Q 3253 1784 3383 1501 
Q 3513 1219 3659 911 
Q 3806 603 3951 420 
Q 4097 238 4256 238 
Q 4444 238 4551 308 
Q 4659 378 4775 520 
Q 4891 663 4997 745 
Q 5103 828 5281 844 
L 5319 844 
Q 5363 822 5363 794 
Q 5363 784 5356 768 
Q 5350 753 5344 738 
Q 5188 503 4936 297 
Q 4684 91 4393 -25 
Q 4103 -141 3828 -141 
L 3788 -141 
Q 3541 -141 3372 98 
Q 3203 338 3003 811 
Q 2803 1284 2651 1515 
Q 2500 1747 2278 1747 
Q 2266 1753 2250 1765 
Q 2234 1778 2234 1797 
Q 2234 1900 2420 2006 
Q 2606 2113 2719 2125 
Q 3072 2125 3395 2262 
Q 3719 2400 3917 2667 
Q 4116 2934 4116 3291 
Q 4116 3613 3833 3767 
Q 3550 3922 3203 3958 
Q 2856 3994 2450 3994 
L 2309 3994 
Q 2209 3041 1954 2070 
Q 1700 1100 1300 153 
Q 1238 41 1092 -43 
Q 947 -128 813 -141 
L 781 -141 
Q 769 -134 753 -121 
Q 738 -109 738 -91 
z
" transform="scale(0.015625)"/>
     </defs>
     <use xlink:href="#Cmsy10-52" transform="translate(0 0.6875)"/>
    </g>
   </g>
  </g>
 </g>
 <defs>
  <clipPath id="p7712b302e7">
   <rect x="24.678036" y="7.2" width="282.104615" height="310.315077"/>
  </clipPath>
 </defs>
</svg>
