<?xml version="1.0" encoding="utf-8" standalone="no"?>
<!DOCTYPE svg PUBLIC "-//W3C//DTD SVG 1.1//EN"
  "http://www.w3.org/Graphics/SVG/1.1/DTD/svg11.dtd">
<svg xmlns:xlink="http://www.w3.org/1999/xlink" width="327.798914pt" height="333.423259pt" viewBox="0 0 327.798914 333.423259" xmlns="http://www.w3.org/2000/svg" version="1.1">
 <metadata>
  <rdf:RDF xmlns:dc="http://purl.org/dc/elements/1.1/" xmlns:cc="http://creativecommons.org/ns#" xmlns:rdf="http://www.w3.org/1999/02/22-rdf-syntax-ns#">
   <cc:Work>
    <dc:type rdf:resource="http://purl.org/dc/dcmitype/StillImage"/>
    <dc:date>2022-10-03T18:03:09.028997</dc:date>
    <dc:format>image/svg+xml</dc:format>
    <dc:creator>
     <cc:Agent>
      <dc:title>Matplotlib v3.5.1, https://matplotlib.org/</dc:title>
     </cc:Agent>
    </dc:creator>
   </cc:Work>
  </rdf:RDF>
 </metadata>
 <defs>
  <style type="text/css">*{stroke-linejoin: round; stroke-linecap: butt}</style>
 </defs>
 <g id="figure_1">
  <g id="patch_1">
   <path d="M -0 333.423259 
L 327.798914 333.423259 
L 327.798914 0 
L -0 0 
z
" style="fill: #ffffff"/>
  </g>
  <g id="axes_1">
   <g id="patch_2">
    <path d="M 13.772256 325.989324 
L 303.368065 325.989324 
L 303.368065 7.433935 
L 13.772256 7.433935 
z
" style="fill: #ffffff"/>
   </g>
   <g id="patch_3">
    <path d="M 297.798914 305.940384 
L 296.688774 303.728955 
L 294.973774 300.347429 
L 293.515983 297.506272 
L 291.939914 294.46894 
L 290.503261 291.731373 
L 288.809122 288.541256 
L 288.559986 288.075602 
L 286.005351 283.352247 
L 285.732388 282.853099 
L 283.298376 278.449524 
L 281.838551 275.849259 
L 280.95184 274.284779 
L 279.446114 271.654006 
L 278.761441 270.46853 
L 276.365388 266.372908 
L 275.814451 265.442843 
L 274.286654 262.886497 
L 272.265992 259.556977 
L 271.117956 257.691445 
L 269.574171 255.212675 
L 268.50927 253.522777 
L 267.152772 251.393732 
L 264.939851 247.97725 
L 264.204755 246.857915 
L 263.240271 245.401065 
L 261.691815 243.090074 
L 260.435919 241.24101 
L 258.673323 238.684142 
L 257.351874 236.796483 
L 256.006142 234.899918 
L 254.612135 232.96275 
L 253.067001 230.848187 
L 251.879964 229.246983 
L 250.628441 227.580716 
L 248.578173 224.899627 
L 247.533973 223.557357 
L 245.973681 221.580866 
L 245.198214 220.611557 
L 242.617686 217.448178 
L 241.556678 216.175277 
L 240.604055 215.046184 
L 238.840885 212.990785 
L 238.047017 212.079922 
L 236.271952 210.076008 
L 235.390298 209.097512 
L 232.84939 206.339967 
L 232.332974 205.79086 
L 230.746108 204.127517 
L 229.587548 202.935967 
L 227.825986 201.16119 
L 225.872943 199.245603 
L 224.493798 197.925915 
L 223.34199 196.844701 
L 221.941109 195.555363 
L 220.575041 194.325216 
L 219.362641 193.2559 
L 217.578658 191.720851 
L 216.605036 190.902371 
L 215.021338 189.600116 
L 213.197286 188.144866 
L 212.464401 187.573622 
L 211.497457 186.831746 
L 209.689478 185.480631 
L 208.569232 184.667024 
L 206.386893 183.133811 
L 205.462778 182.505189 
L 204.234025 181.688339 
L 202.445984 180.538428 
L 201.754445 180.106007 
L 200.00646 179.043615 
L 198.433807 178.125294 
L 197.499486 177.596539 
L 195.736522 176.632989 
L 194.949897 176.217462 
L 193.081492 175.266127 
L 190.920458 174.228337 
L 189.890369 173.757268 
L 189.277824 173.484373 
L 186.821223 172.444084 
L 185.632745 171.971919 
L 184.887404 171.686157 
L 182.369976 170.779979 
L 182.034339 170.66604 
L 180.514189 170.170257 
L 178.202173 169.47985 
L 177.370034 169.250151 
L 176.518305 169.025346 
L 174.852395 168.615771 
L 173.628743 168.340323 
L 172.131935 168.032634 
L 170.191887 167.68172 
L 169.635118 167.590997 
L 167.913189 167.338599 
L 166.761788 167.19359 
L 164.434974 166.958676 
L 163.969864 166.921046 
L 161.786913 166.78595 
L 160.441358 166.736778 
L 159.58898 166.719085 
L 157.339002 166.722516 
L 156.716294 166.736314 
L 155.707092 166.770505 
L 153.986464 166.862534 
L 151.809494 167.039914 
L 150.387045 167.192589 
L 150.020152 167.236684 
L 148.769437 167.401531 
L 147.343549 167.616879 
L 144.607778 168.11183 
L 143.839301 168.270203 
L 142.691789 168.522482 
L 141.014471 168.925269 
L 140.17427 169.142225 
L 138.233561 169.682117 
L 136.642446 170.165116 
L 135.463918 170.546315 
L 134.15335 170.993652 
L 132.472963 171.603318 
L 131.971659 171.793053 
L 130.478528 172.379567 
L 128.527835 173.194064 
L 126.933844 173.900206 
L 125.51577 174.559094 
L 124.603235 174.998366 
L 122.512241 176.050028 
L 122.070625 176.280171 
L 119.476909 177.688401 
L 119.209228 177.839238 
L 117.695163 178.711775 
L 115.367315 180.117523 
L 114.782074 180.483185 
L 113.434058 181.344151 
L 111.927255 182.337429 
L 109.847369 183.762061 
L 109.4949 184.009645 
L 108.007305 185.074233 
L 106.463642 186.212552 
L 105.042911 187.290471 
L 102.857911 189.004831 
L 102.581583 189.226525 
L 100.96192 190.548008 
L 98.893754 192.290207 
L 98.15272 192.929397 
L 95.94829 194.877497 
L 94.228595 196.445696 
L 93.769173 196.871836 
L 92.530731 198.035664 
L 90.261432 200.225413 
L 88.805322 201.669442 
L 87.279424 203.215361 
L 86.979807 203.522838 
L 85.305277 205.265039 
L 83.880914 206.778666 
L 82.633428 208.12827 
L 80.513533 210.472972 
L 79.009261 212.175921 
L 77.701885 213.682372 
L 77.055202 214.436602 
L 75.597367 216.158919 
L 73.935353 218.1597 
L 71.850712 220.725348 
L 70.952641 221.849878 
L 69.937389 223.13509 
L 67.933538 225.715227 
L 66.30341 227.85671 
L 66.038827 228.20789 
L 64.49336 230.279277 
L 62.939541 232.396447 
L 61.109367 234.934651 
L 60.024861 236.461417 
L 58.665985 238.398289 
L 57.037024 240.755083 
L 55.90261 242.418878 
L 54.121378 245.068635 
L 52.352276 247.745458 
L 51.146658 249.595434 
L 50.503787 250.590431 
L 48.824524 253.217501 
L 46.660156 256.663228 
L 45.277841 258.899121 
L 44.651849 259.920693 
L 43.798438 261.322462 
L 41.822547 264.608112 
L 40.254125 267.25612 
L 38.828838 269.693118 
L 37.519825 271.957014 
L 36.403364 273.907346 
L 34.323495 277.588394 
L 33.432254 279.184773 
L 31.470418 282.738988 
L 30.04283 285.360071 
L 28.86065 287.552739 
L 27.348377 290.386918 
L 26.596701 291.807873 
L 25.175841 294.516008 
L 23.596135 297.560947 
L 22.355061 299.978306 
L 20.972545 302.697215 
L 19.341406 305.940384 
L 19.341406 27.482875 
L 21.192111 31.159685 
L 21.901618 32.556221 
L 23.356883 35.398019 
L 25.29264 39.130962 
L 26.805713 42.011315 
L 27.389475 43.113798 
L 28.844359 45.840164 
L 30.833921 49.519266 
L 32.507647 52.570284 
L 32.773909 53.051941 
L 34.337001 55.858968 
L 36.001914 58.810248 
L 37.229191 60.960264 
L 38.469466 63.11107 
L 40.841029 67.162162 
L 41.232057 67.822355 
L 42.974898 70.738174 
L 43.89809 72.26502 
L 46.248564 76.09715 
L 47.993883 78.891313 
L 48.954054 80.409839 
L 49.428552 81.155375 
L 52.008358 85.1522 
L 52.249199 85.52045 
L 54.232376 88.521077 
L 55.630177 90.602063 
L 56.816212 92.345769 
L 57.945271 93.986936 
L 60.56476 97.724023 
L 61.817406 99.476268 
L 63.38773 101.641054 
L 63.742562 102.125305 
L 66.057077 105.239625 
L 66.23585 105.476974 
L 68.90115 108.961121 
L 69.814508 110.131608 
L 70.469407 110.963499 
L 72.126547 113.040975 
L 73.736775 115.021853 
L 75.154395 116.734956 
L 77.117535 119.059619 
L 78.286928 120.41805 
L 79.611385 121.93289 
L 80.469792 122.901228 
L 82.73688 125.407759 
L 83.613463 126.357131 
L 85.783004 128.65936 
L 86.006566 128.892751 
L 88.588445 131.536134 
L 88.980366 131.929019 
L 91.135137 134.049681 
L 91.993922 134.876284 
L 93.000937 135.832066 
L 94.559988 137.283066 
L 96.252052 138.818349 
L 97.887788 140.263427 
L 99.408884 141.572737 
L 100.560007 142.541493 
L 102.565807 144.184045 
L 103.176139 144.672378 
L 104.867741 145.997878 
L 105.634295 146.584998 
L 107.111238 147.692421 
L 108.979101 149.048086 
L 110.232802 149.929893 
L 111.763137 150.975674 
L 113.648489 152.217809 
L 113.865676 152.357619 
L 116.081502 153.745299 
L 117.552387 154.627504 
L 119.312781 155.642495 
L 120.138177 156.103064 
L 121.418699 156.798224 
L 122.321688 157.27427 
L 123.948024 158.102113 
L 125.595345 158.901903 
L 126.477391 159.314121 
L 128.924597 160.399288 
L 129.798601 160.766 
L 131.632608 161.499834 
L 133.381832 162.154727 
L 134.462614 162.537393 
L 135.169178 162.778491 
L 136.468978 163.203286 
L 138.101504 163.702439 
L 139.892281 164.205946 
L 140.906022 164.470557 
L 142.391661 164.831674 
L 144.542174 165.29824 
L 145.600417 165.503443 
L 147.063631 165.760675 
L 148.770466 166.021873 
L 149.137529 166.072577 
L 151.131534 166.314203 
L 152.382601 166.436644 
L 153.263621 166.509377 
L 155.049299 166.622593 
L 156.332807 166.675676 
L 157.876005 166.708169 
L 158.613895 166.711616 
L 160.870789 166.673614 
L 161.942866 166.629928 
L 163.807262 166.514635 
L 164.91148 166.422807 
L 166.461943 166.264306 
L 168.16275 166.050719 
L 169.552861 165.845288 
L 170.140938 165.750026 
L 172.489565 165.320036 
L 173.705293 165.066335 
L 174.750667 164.831208 
L 175.915889 164.550623 
L 176.850449 164.311486 
L 178.332468 163.906542 
L 180.676217 163.201739 
L 182.136868 162.722585 
L 182.929567 162.449718 
L 184.630502 161.833748 
L 186.193616 161.231043 
L 187.675541 160.627231 
L 189.320523 159.920038 
L 190.738008 159.279469 
L 191.512173 158.917433 
L 193.509074 157.943845 
L 193.759186 157.817867 
L 196.341899 156.464434 
L 196.813897 156.206735 
L 198.397158 155.318942 
L 199.662954 154.583261 
L 201.490477 153.480501 
L 202.127194 153.085025 
L 203.834492 151.99585 
L 205.461967 150.918616 
L 207.410278 149.578983 
L 208.476045 148.823102 
L 209.198023 148.301779 
L 211.129723 146.870127 
L 211.886351 146.294754 
L 214.178486 144.50152 
L 215.589351 143.360217 
L 216.439699 142.658527 
L 218.050264 141.301054 
L 219.678009 139.891242 
L 220.915118 138.794309 
L 222.608602 137.257067 
L 224.143513 135.828178 
L 225.287549 134.741151 
L 226.186055 133.874237 
L 227.191706 132.890193 
L 229.695853 130.37672 
L 230.758619 129.28277 
L 231.763903 128.233055 
L 234.024345 125.819689 
L 234.751171 125.028097 
L 236.065658 123.577205 
L 237.988879 121.409688 
L 238.518421 120.803553 
L 240.594825 118.387951 
L 241.648083 117.138959 
L 242.684525 115.894351 
L 244.215004 114.028265 
L 245.386165 112.577563 
L 247.729808 109.615358 
L 249.518144 107.301949 
L 249.649523 107.130185 
L 251.86203 104.200311 
L 253.239356 102.3409 
L 254.144696 101.103832 
L 256.343614 98.050178 
L 257.339481 96.64436 
L 258.0163 95.680794 
L 260.602062 91.938937 
L 261.497742 90.620401 
L 262.318657 89.401805 
L 264.460314 86.177082 
L 265.429894 84.695506 
L 267.404651 81.636197 
L 268.289983 80.246448 
L 269.873155 77.733194 
L 270.917856 76.055035 
L 272.971198 72.710951 
L 274.589122 70.033328 
L 276.028308 67.619912 
L 276.540166 66.754387 
L 277.651907 64.861531 
L 280.155771 60.533414 
L 281.146046 58.796797 
L 281.900516 57.464249 
L 283.590695 54.449373 
L 284.785781 52.292859 
L 286.033917 50.018714 
L 287.917887 46.543677 
L 289.412685 43.750203 
L 290.923587 40.894016 
L 292.775538 37.348385 
L 293.627543 35.700641 
L 295.363534 32.311036 
L 296.485939 30.096444 
L 297.798914 27.482875 
z
" clip-path="url(#p97fdb52102)" style="fill: #008000; opacity: 0.5"/>
   </g>
   <g id="matplotlib.axis_1">
    <g id="xtick_1">
     <g id="line2d_1">
      <defs>
       <path id="mdb75fd77dc" d="M 0 0 
L 0 3.5 
" style="stroke: #000000; stroke-width: 0.8"/>
      </defs>
      <g>
       <use xlink:href="#mdb75fd77dc" x="19.341406" y="166.71163" style="stroke: #000000; stroke-width: 0.8"/>
      </g>
     </g>
     <g id="text_1">
      <!-- −1.0 -->
      <g transform="translate(7.2 181.310067)scale(0.1 -0.1)">
       <defs>
        <path id="DejaVuSans-2212" d="M 678 2272 
L 4684 2272 
L 4684 1741 
L 678 1741 
L 678 2272 
z
" transform="scale(0.015625)"/>
        <path id="DejaVuSans-31" d="M 794 531 
L 1825 531 
L 1825 4091 
L 703 3866 
L 703 4441 
L 1819 4666 
L 2450 4666 
L 2450 531 
L 3481 531 
L 3481 0 
L 794 0 
L 794 531 
z
" transform="scale(0.015625)"/>
        <path id="DejaVuSans-2e" d="M 684 794 
L 1344 794 
L 1344 0 
L 684 0 
L 684 794 
z
" transform="scale(0.015625)"/>
        <path id="DejaVuSans-30" d="M 2034 4250 
Q 1547 4250 1301 3770 
Q 1056 3291 1056 2328 
Q 1056 1369 1301 889 
Q 1547 409 2034 409 
Q 2525 409 2770 889 
Q 3016 1369 3016 2328 
Q 3016 3291 2770 3770 
Q 2525 4250 2034 4250 
z
M 2034 4750 
Q 2819 4750 3233 4129 
Q 3647 3509 3647 2328 
Q 3647 1150 3233 529 
Q 2819 -91 2034 -91 
Q 1250 -91 836 529 
Q 422 1150 422 2328 
Q 422 3509 836 4129 
Q 1250 4750 2034 4750 
z
" transform="scale(0.015625)"/>
       </defs>
       <use xlink:href="#DejaVuSans-2212"/>
       <use xlink:href="#DejaVuSans-31" x="83.789062"/>
       <use xlink:href="#DejaVuSans-2e" x="147.412109"/>
       <use xlink:href="#DejaVuSans-30" x="179.199219"/>
      </g>
     </g>
    </g>
    <g id="xtick_2">
     <g id="line2d_2">
      <g>
       <use xlink:href="#mdb75fd77dc" x="88.955783" y="166.71163" style="stroke: #000000; stroke-width: 0.8"/>
      </g>
     </g>
     <g id="text_2">
      <!-- −0.5 -->
      <g transform="translate(76.814377 181.310067)scale(0.1 -0.1)">
       <defs>
        <path id="DejaVuSans-35" d="M 691 4666 
L 3169 4666 
L 3169 4134 
L 1269 4134 
L 1269 2991 
Q 1406 3038 1543 3061 
Q 1681 3084 1819 3084 
Q 2600 3084 3056 2656 
Q 3513 2228 3513 1497 
Q 3513 744 3044 326 
Q 2575 -91 1722 -91 
Q 1428 -91 1123 -41 
Q 819 9 494 109 
L 494 744 
Q 775 591 1075 516 
Q 1375 441 1709 441 
Q 2250 441 2565 725 
Q 2881 1009 2881 1497 
Q 2881 1984 2565 2268 
Q 2250 2553 1709 2553 
Q 1456 2553 1204 2497 
Q 953 2441 691 2322 
L 691 4666 
z
" transform="scale(0.015625)"/>
       </defs>
       <use xlink:href="#DejaVuSans-2212"/>
       <use xlink:href="#DejaVuSans-30" x="83.789062"/>
       <use xlink:href="#DejaVuSans-2e" x="147.412109"/>
       <use xlink:href="#DejaVuSans-35" x="179.199219"/>
      </g>
     </g>
    </g>
    <g id="xtick_3">
     <g id="line2d_3">
      <g>
       <use xlink:href="#mdb75fd77dc" x="158.57016" y="166.71163" style="stroke: #000000; stroke-width: 0.8"/>
      </g>
     </g>
    </g>
    <g id="xtick_4">
     <g id="line2d_4">
      <g>
       <use xlink:href="#mdb75fd77dc" x="228.184537" y="166.71163" style="stroke: #000000; stroke-width: 0.8"/>
      </g>
     </g>
     <g id="text_3">
      <!-- 0.5 -->
      <g transform="translate(220.232975 181.310067)scale(0.1 -0.1)">
       <use xlink:href="#DejaVuSans-30"/>
       <use xlink:href="#DejaVuSans-2e" x="63.623047"/>
       <use xlink:href="#DejaVuSans-35" x="95.410156"/>
      </g>
     </g>
    </g>
    <g id="xtick_5">
     <g id="line2d_5">
      <g>
       <use xlink:href="#mdb75fd77dc" x="297.798914" y="166.71163" style="stroke: #000000; stroke-width: 0.8"/>
      </g>
     </g>
     <g id="text_4">
      <!-- 1.0 -->
      <g transform="translate(289.847352 181.310067)scale(0.1 -0.1)">
       <use xlink:href="#DejaVuSans-31"/>
       <use xlink:href="#DejaVuSans-2e" x="63.623047"/>
       <use xlink:href="#DejaVuSans-30" x="95.410156"/>
      </g>
     </g>
    </g>
    <g id="xtick_6">
     <g id="line2d_6">
      <defs>
       <path id="m130d9d0b69" d="M 0 0 
L 0 2 
" style="stroke: #000000; stroke-width: 0.6"/>
      </defs>
      <g>
       <use xlink:href="#m130d9d0b69" x="33.264282" y="166.71163" style="stroke: #000000; stroke-width: 0.6"/>
      </g>
     </g>
    </g>
    <g id="xtick_7">
     <g id="line2d_7">
      <g>
       <use xlink:href="#m130d9d0b69" x="47.187157" y="166.71163" style="stroke: #000000; stroke-width: 0.6"/>
      </g>
     </g>
    </g>
    <g id="xtick_8">
     <g id="line2d_8">
      <g>
       <use xlink:href="#m130d9d0b69" x="61.110032" y="166.71163" style="stroke: #000000; stroke-width: 0.6"/>
      </g>
     </g>
    </g>
    <g id="xtick_9">
     <g id="line2d_9">
      <g>
       <use xlink:href="#m130d9d0b69" x="75.032908" y="166.71163" style="stroke: #000000; stroke-width: 0.6"/>
      </g>
     </g>
    </g>
    <g id="xtick_10">
     <g id="line2d_10">
      <g>
       <use xlink:href="#m130d9d0b69" x="102.878659" y="166.71163" style="stroke: #000000; stroke-width: 0.6"/>
      </g>
     </g>
    </g>
    <g id="xtick_11">
     <g id="line2d_11">
      <g>
       <use xlink:href="#m130d9d0b69" x="116.801534" y="166.71163" style="stroke: #000000; stroke-width: 0.6"/>
      </g>
     </g>
    </g>
    <g id="xtick_12">
     <g id="line2d_12">
      <g>
       <use xlink:href="#m130d9d0b69" x="130.72441" y="166.71163" style="stroke: #000000; stroke-width: 0.6"/>
      </g>
     </g>
    </g>
    <g id="xtick_13">
     <g id="line2d_13">
      <g>
       <use xlink:href="#m130d9d0b69" x="144.647285" y="166.71163" style="stroke: #000000; stroke-width: 0.6"/>
      </g>
     </g>
    </g>
    <g id="xtick_14">
     <g id="line2d_14">
      <g>
       <use xlink:href="#m130d9d0b69" x="172.493036" y="166.71163" style="stroke: #000000; stroke-width: 0.6"/>
      </g>
     </g>
    </g>
    <g id="xtick_15">
     <g id="line2d_15">
      <g>
       <use xlink:href="#m130d9d0b69" x="186.415911" y="166.71163" style="stroke: #000000; stroke-width: 0.6"/>
      </g>
     </g>
    </g>
    <g id="xtick_16">
     <g id="line2d_16">
      <g>
       <use xlink:href="#m130d9d0b69" x="200.338787" y="166.71163" style="stroke: #000000; stroke-width: 0.6"/>
      </g>
     </g>
    </g>
    <g id="xtick_17">
     <g id="line2d_17">
      <g>
       <use xlink:href="#m130d9d0b69" x="214.261662" y="166.71163" style="stroke: #000000; stroke-width: 0.6"/>
      </g>
     </g>
    </g>
    <g id="xtick_18">
     <g id="line2d_18">
      <g>
       <use xlink:href="#m130d9d0b69" x="242.107413" y="166.71163" style="stroke: #000000; stroke-width: 0.6"/>
      </g>
     </g>
    </g>
    <g id="xtick_19">
     <g id="line2d_19">
      <g>
       <use xlink:href="#m130d9d0b69" x="256.030288" y="166.71163" style="stroke: #000000; stroke-width: 0.6"/>
      </g>
     </g>
    </g>
    <g id="xtick_20">
     <g id="line2d_20">
      <g>
       <use xlink:href="#m130d9d0b69" x="269.953164" y="166.71163" style="stroke: #000000; stroke-width: 0.6"/>
      </g>
     </g>
    </g>
    <g id="xtick_21">
     <g id="line2d_21">
      <g>
       <use xlink:href="#m130d9d0b69" x="283.876039" y="166.71163" style="stroke: #000000; stroke-width: 0.6"/>
      </g>
     </g>
    </g>
   </g>
   <g id="matplotlib.axis_2">
    <g id="ytick_1">
     <g id="line2d_22">
      <defs>
       <path id="md4137a1fa1" d="M 0 0 
L -3.5 0 
" style="stroke: #000000; stroke-width: 0.8"/>
      </defs>
      <g>
       <use xlink:href="#md4137a1fa1" x="158.57016" y="305.940384" style="stroke: #000000; stroke-width: 0.8"/>
      </g>
     </g>
     <g id="text_5">
      <!-- −1.0 -->
      <g transform="translate(127.287348 309.739602)scale(0.1 -0.1)">
       <use xlink:href="#DejaVuSans-2212"/>
       <use xlink:href="#DejaVuSans-31" x="83.789062"/>
       <use xlink:href="#DejaVuSans-2e" x="147.412109"/>
       <use xlink:href="#DejaVuSans-30" x="179.199219"/>
      </g>
     </g>
    </g>
    <g id="ytick_2">
     <g id="line2d_23">
      <g>
       <use xlink:href="#md4137a1fa1" x="158.57016" y="236.326007" style="stroke: #000000; stroke-width: 0.8"/>
      </g>
     </g>
     <g id="text_6">
      <!-- −0.5 -->
      <g transform="translate(127.287348 240.125225)scale(0.1 -0.1)">
       <use xlink:href="#DejaVuSans-2212"/>
       <use xlink:href="#DejaVuSans-30" x="83.789062"/>
       <use xlink:href="#DejaVuSans-2e" x="147.412109"/>
       <use xlink:href="#DejaVuSans-35" x="179.199219"/>
      </g>
     </g>
    </g>
    <g id="ytick_3">
     <g id="line2d_24">
      <g>
       <use xlink:href="#md4137a1fa1" x="158.57016" y="166.71163" style="stroke: #000000; stroke-width: 0.8"/>
      </g>
     </g>
    </g>
    <g id="ytick_4">
     <g id="line2d_25">
      <g>
       <use xlink:href="#md4137a1fa1" x="158.57016" y="97.097252" style="stroke: #000000; stroke-width: 0.8"/>
      </g>
     </g>
     <g id="text_7">
      <!-- 0.5 -->
      <g transform="translate(135.667035 100.896471)scale(0.1 -0.1)">
       <use xlink:href="#DejaVuSans-30"/>
       <use xlink:href="#DejaVuSans-2e" x="63.623047"/>
       <use xlink:href="#DejaVuSans-35" x="95.410156"/>
      </g>
     </g>
    </g>
    <g id="ytick_5">
     <g id="line2d_26">
      <g>
       <use xlink:href="#md4137a1fa1" x="158.57016" y="27.482875" style="stroke: #000000; stroke-width: 0.8"/>
      </g>
     </g>
     <g id="text_8">
      <!-- 1.0 -->
      <g transform="translate(135.667035 31.282094)scale(0.1 -0.1)">
       <use xlink:href="#DejaVuSans-31"/>
       <use xlink:href="#DejaVuSans-2e" x="63.623047"/>
       <use xlink:href="#DejaVuSans-30" x="95.410156"/>
      </g>
     </g>
    </g>
    <g id="ytick_6">
     <g id="line2d_27">
      <defs>
       <path id="m723f9eee3a" d="M 0 0 
L -2 0 
" style="stroke: #000000; stroke-width: 0.6"/>
      </defs>
      <g>
       <use xlink:href="#m723f9eee3a" x="158.57016" y="319.863259" style="stroke: #000000; stroke-width: 0.6"/>
      </g>
     </g>
    </g>
    <g id="ytick_7">
     <g id="line2d_28">
      <g>
       <use xlink:href="#m723f9eee3a" x="158.57016" y="292.017508" style="stroke: #000000; stroke-width: 0.6"/>
      </g>
     </g>
    </g>
    <g id="ytick_8">
     <g id="line2d_29">
      <g>
       <use xlink:href="#m723f9eee3a" x="158.57016" y="278.094633" style="stroke: #000000; stroke-width: 0.6"/>
      </g>
     </g>
    </g>
    <g id="ytick_9">
     <g id="line2d_30">
      <g>
       <use xlink:href="#m723f9eee3a" x="158.57016" y="264.171757" style="stroke: #000000; stroke-width: 0.6"/>
      </g>
     </g>
    </g>
    <g id="ytick_10">
     <g id="line2d_31">
      <g>
       <use xlink:href="#m723f9eee3a" x="158.57016" y="250.248882" style="stroke: #000000; stroke-width: 0.6"/>
      </g>
     </g>
    </g>
    <g id="ytick_11">
     <g id="line2d_32">
      <g>
       <use xlink:href="#m723f9eee3a" x="158.57016" y="222.403131" style="stroke: #000000; stroke-width: 0.6"/>
      </g>
     </g>
    </g>
    <g id="ytick_12">
     <g id="line2d_33">
      <g>
       <use xlink:href="#m723f9eee3a" x="158.57016" y="208.480256" style="stroke: #000000; stroke-width: 0.6"/>
      </g>
     </g>
    </g>
    <g id="ytick_13">
     <g id="line2d_34">
      <g>
       <use xlink:href="#m723f9eee3a" x="158.57016" y="194.55738" style="stroke: #000000; stroke-width: 0.6"/>
      </g>
     </g>
    </g>
    <g id="ytick_14">
     <g id="line2d_35">
      <g>
       <use xlink:href="#m723f9eee3a" x="158.57016" y="180.634505" style="stroke: #000000; stroke-width: 0.6"/>
      </g>
     </g>
    </g>
    <g id="ytick_15">
     <g id="line2d_36">
      <g>
       <use xlink:href="#m723f9eee3a" x="158.57016" y="152.788754" style="stroke: #000000; stroke-width: 0.6"/>
      </g>
     </g>
    </g>
    <g id="ytick_16">
     <g id="line2d_37">
      <g>
       <use xlink:href="#m723f9eee3a" x="158.57016" y="138.865879" style="stroke: #000000; stroke-width: 0.6"/>
      </g>
     </g>
    </g>
    <g id="ytick_17">
     <g id="line2d_38">
      <g>
       <use xlink:href="#m723f9eee3a" x="158.57016" y="124.943003" style="stroke: #000000; stroke-width: 0.6"/>
      </g>
     </g>
    </g>
    <g id="ytick_18">
     <g id="line2d_39">
      <g>
       <use xlink:href="#m723f9eee3a" x="158.57016" y="111.020128" style="stroke: #000000; stroke-width: 0.6"/>
      </g>
     </g>
    </g>
    <g id="ytick_19">
     <g id="line2d_40">
      <g>
       <use xlink:href="#m723f9eee3a" x="158.57016" y="83.174377" style="stroke: #000000; stroke-width: 0.6"/>
      </g>
     </g>
    </g>
    <g id="ytick_20">
     <g id="line2d_41">
      <g>
       <use xlink:href="#m723f9eee3a" x="158.57016" y="69.251502" style="stroke: #000000; stroke-width: 0.6"/>
      </g>
     </g>
    </g>
    <g id="ytick_21">
     <g id="line2d_42">
      <g>
       <use xlink:href="#m723f9eee3a" x="158.57016" y="55.328626" style="stroke: #000000; stroke-width: 0.6"/>
      </g>
     </g>
    </g>
    <g id="ytick_22">
     <g id="line2d_43">
      <g>
       <use xlink:href="#m723f9eee3a" x="158.57016" y="41.405751" style="stroke: #000000; stroke-width: 0.6"/>
      </g>
     </g>
    </g>
    <g id="ytick_23">
     <g id="line2d_44">
      <g>
       <use xlink:href="#m723f9eee3a" x="158.57016" y="13.56" style="stroke: #000000; stroke-width: 0.6"/>
      </g>
     </g>
    </g>
   </g>
   <g id="line2d_45">
    <path d="M 19.341406 27.482875 
L 25.29264 39.130962 
L 30.833921 49.519266 
L 37.229191 60.960264 
L 42.974898 70.738174 
L 47.993883 78.891313 
L 52.249199 85.52045 
L 57.945271 93.986936 
L 63.742562 102.125305 
L 69.814508 110.131608 
L 73.736775 115.021853 
L 78.286928 120.41805 
L 83.613463 126.357131 
L 88.980366 131.929019 
L 94.559988 137.283066 
L 99.408884 141.572737 
L 103.176139 144.672378 
L 107.111238 147.692421 
L 111.763137 150.975674 
L 116.081502 153.745299 
L 120.138177 156.103064 
L 123.948024 158.102113 
L 128.924597 160.399288 
L 133.381832 162.154727 
L 136.468978 163.203286 
L 140.906022 164.470557 
L 145.600417 165.503443 
L 149.137529 166.072577 
L 153.263621 166.509377 
L 157.876005 166.708169 
L 161.942866 166.629928 
L 166.461943 166.264306 
L 170.140938 165.750026 
L 174.750667 164.831208 
L 178.332468 163.906542 
L 182.929567 162.449718 
L 187.675541 160.627231 
L 191.512173 158.917433 
L 196.341899 156.464434 
L 199.662954 154.583261 
L 203.834492 151.99585 
L 208.476045 148.823102 
L 211.886351 146.294754 
L 216.439699 142.658527 
L 220.915118 138.794309 
L 226.186055 133.874237 
L 230.758619 129.28277 
L 234.751171 125.028097 
L 238.518421 120.803553 
L 244.215004 114.028265 
L 249.649523 107.130185 
L 254.144696 101.103832 
L 258.0163 95.680794 
L 264.460314 86.177082 
L 269.873155 77.733194 
L 274.589122 70.033328 
L 280.155771 60.533414 
L 286.033917 50.018714 
L 290.923587 40.894016 
L 296.485939 30.096444 
L 297.798914 27.482875 
L 297.798914 27.482875 
" clip-path="url(#p97fdb52102)" style="fill: none; stroke: #0000ff; stroke-linecap: square"/>
   </g>
   <g id="line2d_46">
    <path d="M 19.341406 305.940384 
L 25.165639 294.535558 
L 31.634627 282.439374 
L 38.388447 270.452012 
L 44.028346 260.943796 
L 49.894529 251.538883 
L 55.64949 242.79264 
L 60.297665 236.075773 
L 64.974741 229.630404 
L 70.675602 222.199114 
L 75.88306 215.818989 
L 81.347384 209.542992 
L 85.01438 205.571798 
L 90.704396 199.792166 
L 95.834467 194.97998 
L 100.300821 191.09823 
L 105.153442 187.20557 
L 109.539098 183.978501 
L 113.262174 181.455808 
L 116.857737 179.208518 
L 122.003933 176.31517 
L 126.494631 174.101192 
L 129.690813 172.701891 
L 134.436904 170.894774 
L 138.669856 169.556028 
L 141.892545 168.709369 
L 146.506916 167.756829 
L 150.399425 167.191135 
L 155.123086 166.796973 
L 159.23088 166.714765 
L 163.892524 166.91509 
L 167.354744 167.265889 
L 171.944599 167.99639 
L 175.478596 168.76505 
L 180.133466 170.051286 
L 184.628145 171.588629 
L 187.359718 172.6647 
L 192.171401 174.820898 
L 196.5464 177.070084 
L 201.870468 180.178076 
L 205.443515 182.492216 
L 209.242642 185.153944 
L 214.817962 189.435493 
L 219.058111 192.990627 
L 224.164352 197.614714 
L 228.754741 202.091357 
L 233.115196 206.624092 
L 237.842694 211.846951 
L 243.150819 218.093888 
L 248.354866 224.611259 
L 253.88359 231.96144 
L 258.976873 239.121298 
L 264.393831 247.145081 
L 269.464419 255.037756 
L 275.363035 264.684033 
L 279.050967 270.969007 
L 285.488838 282.408641 
L 290.304688 291.35532 
L 296.282307 302.923688 
L 297.798914 305.940384 
L 297.798914 305.940384 
" clip-path="url(#p97fdb52102)" style="fill: none; stroke: #ff0000; stroke-linecap: square"/>
   </g>
   <g id="patch_4">
    <path d="M 158.57016 325.989324 
L 158.57016 7.433935 
" style="fill: none; stroke: #000000; stroke-width: 0.8; stroke-linejoin: miter; stroke-linecap: square"/>
   </g>
   <g id="patch_5">
    <path d="M 13.772256 166.71163 
L 303.368065 166.71163 
" style="fill: none; stroke: #000000; stroke-width: 0.8; stroke-linejoin: miter; stroke-linecap: square"/>
   </g>
   <g id="text_9">
    <!-- $y=x^2$ -->
    <g transform="translate(281.778914 17.4)scale(0.12 -0.12)">
     <defs>
      <path id="Cmmi10-79" d="M 538 -916 
Q 672 -1147 1006 -1147 
Q 1309 -1147 1531 -934 
Q 1753 -722 1889 -420 
Q 2025 -119 2100 197 
Q 1816 -72 1484 -72 
Q 1231 -72 1053 15 
Q 875 103 776 276 
Q 678 450 678 697 
Q 678 906 734 1126 
Q 791 1347 892 1617 
Q 994 1888 1069 2088 
Q 1153 2322 1153 2472 
Q 1153 2663 1013 2663 
Q 759 2663 595 2402 
Q 431 2141 353 1819 
Q 341 1778 300 1778 
L 225 1778 
Q 172 1778 172 1838 
L 172 1856 
Q 275 2238 487 2533 
Q 700 2828 1025 2828 
Q 1253 2828 1411 2678 
Q 1569 2528 1569 2297 
Q 1569 2178 1516 2047 
Q 1488 1969 1388 1706 
Q 1288 1444 1234 1272 
Q 1181 1100 1147 934 
Q 1113 769 1113 603 
Q 1113 391 1203 244 
Q 1294 97 1491 97 
Q 1888 97 2203 581 
L 2688 2553 
Q 2709 2638 2787 2698 
Q 2866 2759 2956 2759 
Q 3034 2759 3092 2709 
Q 3150 2659 3150 2578 
Q 3150 2541 3144 2528 
L 2509 -19 
Q 2425 -347 2200 -647 
Q 1975 -947 1658 -1130 
Q 1341 -1313 997 -1313 
Q 831 -1313 668 -1248 
Q 506 -1184 406 -1056 
Q 306 -928 306 -756 
Q 306 -581 409 -453 
Q 513 -325 684 -325 
Q 788 -325 858 -389 
Q 928 -453 928 -556 
Q 928 -703 818 -812 
Q 709 -922 563 -922 
Q 556 -919 550 -917 
Q 544 -916 538 -916 
z
" transform="scale(0.015625)"/>
      <path id="Cmr10-3d" d="M 481 850 
Q 428 850 393 890 
Q 359 931 359 978 
Q 359 1031 393 1068 
Q 428 1106 481 1106 
L 4500 1106 
Q 4547 1106 4581 1068 
Q 4616 1031 4616 978 
Q 4616 931 4581 890 
Q 4547 850 4500 850 
L 481 850 
z
M 481 2094 
Q 428 2094 393 2131 
Q 359 2169 359 2222 
Q 359 2269 393 2309 
Q 428 2350 481 2350 
L 4500 2350 
Q 4547 2350 4581 2309 
Q 4616 2269 4616 2222 
Q 4616 2169 4581 2131 
Q 4547 2094 4500 2094 
L 481 2094 
z
" transform="scale(0.015625)"/>
      <path id="Cmmi10-78" d="M 500 184 
Q 613 97 819 97 
Q 1019 97 1172 289 
Q 1325 481 1381 709 
L 1672 1844 
Q 1741 2153 1741 2266 
Q 1741 2425 1652 2544 
Q 1563 2663 1403 2663 
Q 1200 2663 1022 2536 
Q 844 2409 722 2214 
Q 600 2019 550 1819 
Q 538 1778 500 1778 
L 422 1778 
Q 372 1778 372 1838 
L 372 1856 
Q 434 2094 584 2320 
Q 734 2547 951 2687 
Q 1169 2828 1416 2828 
Q 1650 2828 1839 2703 
Q 2028 2578 2106 2363 
Q 2216 2559 2386 2693 
Q 2556 2828 2759 2828 
Q 2897 2828 3040 2779 
Q 3184 2731 3275 2631 
Q 3366 2531 3366 2381 
Q 3366 2219 3261 2101 
Q 3156 1984 2994 1984 
Q 2891 1984 2822 2050 
Q 2753 2116 2753 2216 
Q 2753 2350 2845 2451 
Q 2938 2553 3066 2572 
Q 2950 2663 2747 2663 
Q 2541 2663 2389 2472 
Q 2238 2281 2175 2047 
L 1894 916 
Q 1825 659 1825 494 
Q 1825 331 1917 214 
Q 2009 97 2163 97 
Q 2463 97 2698 361 
Q 2934 625 3009 941 
Q 3022 978 3059 978 
L 3138 978 
Q 3163 978 3178 961 
Q 3194 944 3194 922 
Q 3194 916 3188 903 
Q 3097 522 2806 225 
Q 2516 -72 2150 -72 
Q 1916 -72 1727 54 
Q 1538 181 1459 397 
Q 1359 209 1182 68 
Q 1006 -72 806 -72 
Q 669 -72 523 -23 
Q 378 25 287 125 
Q 197 225 197 378 
Q 197 528 301 651 
Q 406 775 563 775 
Q 669 775 741 711 
Q 813 647 813 544 
Q 813 409 723 309 
Q 634 209 500 184 
z
" transform="scale(0.015625)"/>
      <path id="Cmr10-32" d="M 319 0 
L 319 172 
Q 319 188 331 206 
L 1325 1306 
Q 1550 1550 1690 1715 
Q 1831 1881 1968 2097 
Q 2106 2313 2186 2536 
Q 2266 2759 2266 3009 
Q 2266 3272 2169 3511 
Q 2072 3750 1880 3894 
Q 1688 4038 1416 4038 
Q 1138 4038 916 3870 
Q 694 3703 603 3438 
Q 628 3444 672 3444 
Q 816 3444 917 3347 
Q 1019 3250 1019 3097 
Q 1019 2950 917 2848 
Q 816 2747 672 2747 
Q 522 2747 420 2851 
Q 319 2956 319 3097 
Q 319 3338 409 3548 
Q 500 3759 670 3923 
Q 841 4088 1055 4175 
Q 1269 4263 1509 4263 
Q 1875 4263 2190 4108 
Q 2506 3953 2690 3670 
Q 2875 3388 2875 3009 
Q 2875 2731 2753 2481 
Q 2631 2231 2440 2026 
Q 2250 1822 1953 1562 
Q 1656 1303 1563 1216 
L 838 519 
L 1453 519 
Q 1906 519 2211 526 
Q 2516 534 2534 550 
Q 2609 631 2688 1141 
L 2875 1141 
L 2694 0 
L 319 0 
z
" transform="scale(0.015625)"/>
     </defs>
     <use xlink:href="#Cmmi10-79" transform="translate(0 0.109375)"/>
     <use xlink:href="#Cmr10-3d" transform="translate(66.582031 0.109375)"/>
     <use xlink:href="#Cmmi10-78" transform="translate(161.826172 0.109375)"/>
     <use xlink:href="#Cmr10-32" transform="translate(225.209531 38.373438)scale(0.7)"/>
    </g>
   </g>
   <g id="text_10">
    <!-- $y=-x^2$ -->
    <g transform="translate(274.998914 323.703259)scale(0.12 -0.12)">
     <defs>
      <path id="Cmsy10-a1" d="M 653 1472 
Q 600 1472 565 1512 
Q 531 1553 531 1600 
Q 531 1647 565 1687 
Q 600 1728 653 1728 
L 4325 1728 
Q 4375 1728 4408 1687 
Q 4441 1647 4441 1600 
Q 4441 1553 4408 1512 
Q 4375 1472 4325 1472 
L 653 1472 
z
" transform="scale(0.015625)"/>
     </defs>
     <use xlink:href="#Cmmi10-79" transform="translate(0 0.109375)"/>
     <use xlink:href="#Cmr10-3d" transform="translate(66.582031 0.109375)"/>
     <use xlink:href="#Cmsy10-a1" transform="translate(179.384766 0.109375)"/>
     <use xlink:href="#Cmmi10-78" transform="translate(274.628906 0.109375)"/>
     <use xlink:href="#Cmr10-32" transform="translate(338.012266 38.373438)scale(0.7)"/>
    </g>
   </g>
   <g id="text_11">
    <!-- $\mathcal{R}$ -->
    <g transform="translate(56.010032 142.177129)scale(0.12 -0.12)">
     <defs>
      <path id="Cmsy10-52" d="M 738 -91 
Q 738 -78 744 -56 
Q 966 475 1128 959 
Q 1291 1444 1428 1991 
Q 1678 2959 1766 3994 
Q 1425 3994 1094 3872 
Q 922 3803 833 3695 
Q 744 3588 684 3397 
Q 622 3291 472 3197 
Q 322 3103 206 3103 
L 166 3103 
Q 122 3131 122 3169 
Q 234 3556 581 3828 
Q 928 4100 1387 4236 
Q 1847 4372 2259 4372 
L 2931 4372 
Q 3378 4372 3739 4331 
Q 4100 4291 4392 4112 
Q 4684 3934 4684 3572 
Q 4684 3281 4548 3014 
Q 4413 2747 4189 2533 
Q 3966 2319 3697 2158 
Q 3428 1997 3156 1900 
Q 3253 1784 3383 1501 
Q 3513 1219 3659 911 
Q 3806 603 3951 420 
Q 4097 238 4256 238 
Q 4444 238 4551 308 
Q 4659 378 4775 520 
Q 4891 663 4997 745 
Q 5103 828 5281 844 
L 5319 844 
Q 5363 822 5363 794 
Q 5363 784 5356 768 
Q 5350 753 5344 738 
Q 5188 503 4936 297 
Q 4684 91 4393 -25 
Q 4103 -141 3828 -141 
L 3788 -141 
Q 3541 -141 3372 98 
Q 3203 338 3003 811 
Q 2803 1284 2651 1515 
Q 2500 1747 2278 1747 
Q 2266 1753 2250 1765 
Q 2234 1778 2234 1797 
Q 2234 1900 2420 2006 
Q 2606 2113 2719 2125 
Q 3072 2125 3395 2262 
Q 3719 2400 3917 2667 
Q 4116 2934 4116 3291 
Q 4116 3613 3833 3767 
Q 3550 3922 3203 3958 
Q 2856 3994 2450 3994 
L 2309 3994 
Q 2209 3041 1954 2070 
Q 1700 1100 1300 153 
Q 1238 41 1092 -43 
Q 947 -128 813 -141 
L 781 -141 
Q 769 -134 753 -121 
Q 738 -109 738 -91 
z
" transform="scale(0.015625)"/>
     </defs>
     <use xlink:href="#Cmsy10-52" transform="translate(0 0.6875)"/>
    </g>
   </g>
  </g>
 </g>
 <defs>
  <clipPath id="p97fdb52102">
   <rect x="13.772256" y="7.433935" width="289.595809" height="318.555389"/>
  </clipPath>
 </defs>
</svg>
