<?xml version="1.0" encoding="utf-8" standalone="no"?>
<!DOCTYPE svg PUBLIC "-//W3C//DTD SVG 1.1//EN"
  "http://www.w3.org/Graphics/SVG/1.1/DTD/svg11.dtd">
<svg xmlns:xlink="http://www.w3.org/1999/xlink" width="330.329311pt" height="336.275663pt" viewBox="0 0 330.329311 336.275663" xmlns="http://www.w3.org/2000/svg" version="1.1">
 <metadata>
  <rdf:RDF xmlns:dc="http://purl.org/dc/elements/1.1/" xmlns:cc="http://creativecommons.org/ns#" xmlns:rdf="http://www.w3.org/1999/02/22-rdf-syntax-ns#">
   <cc:Work>
    <dc:type rdf:resource="http://purl.org/dc/dcmitype/StillImage"/>
    <dc:date>2022-11-10T16:45:18.687074</dc:date>
    <dc:format>image/svg+xml</dc:format>
    <dc:creator>
     <cc:Agent>
      <dc:title>Matplotlib v3.5.1, https://matplotlib.org/</dc:title>
     </cc:Agent>
    </dc:creator>
   </cc:Work>
  </rdf:RDF>
 </metadata>
 <defs>
  <style type="text/css">*{stroke-linejoin: round; stroke-linecap: butt}</style>
 </defs>
 <g id="figure_1">
  <g id="patch_1">
   <path d="M 0 336.275663 
L 330.329311 336.275663 
L 330.329311 0 
L 0 0 
z
" style="fill: #ffffff"/>
  </g>
  <g id="axes_1">
   <g id="patch_2">
    <path d="M 30.103125 312.397538 
L 320.767447 312.397538 
L 320.767447 7.2 
L 30.103125 7.2 
z
" style="fill: #ffffff"/>
   </g>
   <g id="patch_3">
    <path d="M 315.177749 27.04343 
L 313.807784 28.413394 
L 312.690769 29.53041 
L 310.837526 31.383652 
L 309.104913 33.116266 
L 308.453496 33.767682 
L 307.390913 34.830265 
L 304.667765 37.553414 
L 304.202877 38.018302 
L 302.376133 39.845045 
L 301.260079 40.961099 
L 300.26623 41.954949 
L 298.688666 43.532513 
L 296.336618 45.88456 
L 295.941112 46.280067 
L 293.420091 48.801088 
L 293.130909 49.09027 
L 291.561679 50.659499 
L 290.086489 52.13469 
L 288.827729 53.39345 
L 287.083609 55.137569 
L 285.191039 57.03014 
L 283.929013 58.292166 
L 283.218361 59.002817 
L 281.457837 60.763342 
L 279.704464 62.516714 
L 278.114373 64.106806 
L 277.150144 65.071035 
L 275.426894 66.794285 
L 273.804168 68.41701 
L 272.615317 69.605862 
L 271.798505 70.422674 
L 270.834951 71.386227 
L 268.314686 73.906492 
L 267.11494 75.106238 
L 265.715097 76.506081 
L 265.043008 77.178171 
L 263.080849 79.14033 
L 261.929142 80.292037 
L 260.906931 81.314248 
L 259.299618 82.92156 
L 257.077939 85.143239 
L 256.593243 85.627936 
L 254.504606 87.716573 
L 253.063575 89.157604 
L 251.847702 90.373476 
L 251.053454 91.167724 
L 249.385813 92.835365 
L 248.226585 93.994594 
L 246.254723 95.966455 
L 245.471849 96.749329 
L 242.908545 99.312633 
L 242.569443 99.651736 
L 241.413468 100.807711 
L 239.953624 102.267554 
L 237.748283 104.472896 
L 235.8672 106.353978 
L 235.816418 106.40476 
L 233.266013 108.955166 
L 231.699991 110.521187 
L 230.843111 111.378068 
L 229.072551 113.148627 
L 227.519671 114.701507 
L 227.200468 115.020711 
L 224.598549 117.622629 
L 223.673043 118.548136 
L 221.883054 120.338124 
L 221.737683 120.483495 
L 219.259957 122.961222 
L 218.27315 123.948028 
L 217.147198 125.07398 
L 214.838119 127.38306 
L 213.65875 128.562428 
L 212.806196 129.414983 
L 211.379075 130.842103 
L 210.294369 131.92681 
L 208.131719 134.089459 
L 206.726556 135.494622 
L 205.930853 136.290326 
L 204.28764 137.933539 
L 202.876558 139.344621 
L 201.041924 141.179255 
L 199.575205 142.645973 
L 199.181264 143.039915 
L 196.868467 145.352712 
L 195.223087 146.998091 
L 194.374203 147.846975 
L 192.929704 149.291474 
L 192.258421 149.962758 
L 190.278249 151.94293 
L 188.898456 153.322722 
L 187.651252 154.569927 
L 185.64788 156.573299 
L 184.336525 157.884653 
L 183.159143 159.062035 
L 181.564791 160.656387 
L 179.904868 162.31631 
L 178.731566 163.489613 
L 177.877574 164.343604 
L 175.883372 166.337807 
L 175.311885 166.909293 
L 173.413585 168.807593 
L 172.314038 169.90714 
L 170.944832 171.276347 
L 169.397316 172.823863 
L 167.417961 174.803218 
L 165.941249 176.279929 
L 164.798678 177.4225 
L 164.091859 178.129319 
L 162.195902 180.025276 
L 160.245409 181.97577 
L 159.775974 182.445205 
L 157.73135 184.489828 
L 156.75249 185.468689 
L 155.580707 186.640472 
L 152.987535 189.233644 
L 152.134598 190.086581 
L 150.205535 192.015643 
L 149.634634 192.586545 
L 147.56952 194.651658 
L 147.268372 194.952806 
L 145.501885 196.719293 
L 144.337143 197.884035 
L 142.729183 199.491996 
L 141.527624 200.693554 
L 139.711844 202.509335 
L 138.752213 203.468966 
L 136.13006 206.091118 
L 135.488548 206.732631 
L 133.80758 208.413598 
L 132.520733 209.700446 
L 131.431567 210.789611 
L 129.787006 212.434172 
L 128.933938 213.28724 
L 126.743483 215.477696 
L 125.221116 217.000062 
L 124.529183 217.691995 
L 122.808391 219.412787 
L 121.661411 220.559768 
L 119.286118 222.935061 
L 118.258925 223.962254 
L 117.164122 225.057057 
L 115.632977 226.588202 
L 114.00712 228.214058 
L 112.730256 229.490922 
L 111.041979 231.1792 
L 109.641903 232.579275 
L 109.114228 233.10695 
L 107.786199 234.434979 
L 106.613744 235.607434 
L 104.689277 237.531902 
L 103.09777 239.123409 
L 101.397909 240.823269 
L 99.906651 242.314528 
L 98.798307 243.422872 
L 97.81426 244.406918 
L 95.901186 246.319992 
L 94.607649 247.61353 
L 93.612594 248.608584 
L 91.400161 250.821018 
L 90.454832 251.766347 
L 88.462652 253.758526 
L 87.62976 254.591418 
L 86.891428 255.329751 
L 84.787619 257.43356 
L 82.984308 259.236871 
L 81.680222 260.540956 
L 80.810464 261.410715 
L 78.796059 263.42512 
L 77.962331 264.258847 
L 77.104958 265.11622 
L 75.422413 266.798766 
L 73.380703 268.840475 
L 72.629371 269.591808 
L 70.469782 271.751396 
L 69.312292 272.908887 
L 67.345533 274.875645 
L 66.984658 275.23652 
L 65.029379 277.191799 
L 63.636728 278.58445 
L 62.94368 279.277498 
L 61.365837 280.855341 
L 59.415848 282.805331 
L 57.466075 284.755103 
L 57.131166 285.090013 
L 54.951244 287.269935 
L 54.270886 287.950293 
L 52.380853 289.840326 
L 50.962063 291.259116 
L 49.060309 293.160869 
L 48.99285 293.228329 
L 46.391684 295.829494 
L 45.905861 296.315317 
L 43.63923 298.581948 
L 42.174897 300.046282 
L 41.579437 300.641741 
L 40.535914 301.685264 
L 38.278058 303.94312 
L 36.713127 305.508051 
L 35.692824 306.528355 
L 35.692824 27.04343 
L 36.978663 27.04343 
L 38.564525 27.04343 
L 40.006665 27.04343 
L 41.490697 27.04343 
L 43.280382 27.04343 
L 44.446804 27.04343 
L 45.562034 27.04343 
L 47.288358 27.04343 
L 48.867702 27.04343 
L 49.317796 27.04343 
L 51.238967 27.04343 
L 52.485568 27.04343 
L 54.362862 27.04343 
L 54.929554 27.04343 
L 57.401204 27.04343 
L 58.415269 27.04343 
L 59.034599 27.04343 
L 60.346279 27.04343 
L 62.855448 27.04343 
L 63.716673 27.04343 
L 64.722925 27.04343 
L 65.997363 27.04343 
L 68.525874 27.04343 
L 69.342821 27.04343 
L 71.303839 27.04343 
L 71.822086 27.04343 
L 73.708716 27.04343 
L 74.322247 27.04343 
L 76.958853 27.04343 
L 78.43426 27.04343 
L 78.901212 27.04343 
L 81.00474 27.04343 
L 82.063371 27.04343 
L 82.983257 27.04343 
L 84.910658 27.04343 
L 86.19765 27.04343 
L 87.93304 27.04343 
L 89.243378 27.04343 
L 90.455525 27.04343 
L 92.063259 27.04343 
L 92.774783 27.04343 
L 94.373442 27.04343 
L 96.111697 27.04343 
L 96.796397 27.04343 
L 98.332305 27.04343 
L 100.621792 27.04343 
L 101.61686 27.04343 
L 103.39539 27.04343 
L 103.810899 27.04343 
L 105.982461 27.04343 
L 107.900573 27.04343 
L 108.343318 27.04343 
L 110.152875 27.04343 
L 111.535549 27.04343 
L 113.059935 27.04343 
L 113.767868 27.04343 
L 115.413515 27.04343 
L 116.949131 27.04343 
L 118.059734 27.04343 
L 119.956285 27.04343 
L 121.551896 27.04343 
L 122.145101 27.04343 
L 124.506971 27.04343 
L 125.721402 27.04343 
L 126.556848 27.04343 
L 128.650539 27.04343 
L 129.515906 27.04343 
L 130.630648 27.04343 
L 132.078682 27.04343 
L 134.472372 27.04343 
L 135.317238 27.04343 
L 137.152193 27.04343 
L 138.296267 27.04343 
L 139.971506 27.04343 
L 141.470315 27.04343 
L 142.223239 27.04343 
L 143.558943 27.04343 
L 145.124609 27.04343 
L 146.873655 27.04343 
L 148.292153 27.04343 
L 149.622109 27.04343 
L 151.512278 27.04343 
L 152.433594 27.04343 
L 153.132865 27.04343 
L 155.154004 27.04343 
L 156.121226 27.04343 
L 157.344903 27.04343 
L 159.429092 27.04343 
L 161.012086 27.04343 
L 161.395358 27.04343 
L 163.073495 27.04343 
L 165.199913 27.04343 
L 166.045125 27.04343 
L 167.15088 27.04343 
L 169.372134 27.04343 
L 170.25559 27.04343 
L 171.549158 27.04343 
L 173.876466 27.04343 
L 174.718339 27.04343 
L 176.459644 27.04343 
L 178.213785 27.04343 
L 178.669081 27.04343 
L 180.696638 27.04343 
L 182.034188 27.04343 
L 183.243449 27.04343 
L 184.178174 27.04343 
L 185.304125 27.04343 
L 187.995281 27.04343 
L 188.687026 27.04343 
L 190.522663 27.04343 
L 191.261052 27.04343 
L 193.546426 27.04343 
L 194.787654 27.04343 
L 196.098035 27.04343 
L 197.367297 27.04343 
L 198.344556 27.04343 
L 200.278264 27.04343 
L 201.39776 27.04343 
L 203.125001 27.04343 
L 203.746567 27.04343 
L 206.309589 27.04343 
L 206.352004 27.04343 
L 208.59438 27.04343 
L 209.874316 27.04343 
L 211.329042 27.04343 
L 212.617102 27.04343 
L 214.100198 27.04343 
L 215.045269 27.04343 
L 216.331067 27.04343 
L 218.811207 27.04343 
L 219.573751 27.04343 
L 220.564548 27.04343 
L 221.810281 27.04343 
L 224.279332 27.04343 
L 224.69026 27.04343 
L 226.380438 27.04343 
L 227.83974 27.04343 
L 230.06685 27.04343 
L 231.598741 27.04343 
L 231.738459 27.04343 
L 233.591435 27.04343 
L 234.811615 27.04343 
L 236.988668 27.04343 
L 237.295753 27.04343 
L 239.494479 27.04343 
L 241.440205 27.04343 
L 242.216562 27.04343 
L 244.249802 27.04343 
L 245.437084 27.04343 
L 245.94621 27.04343 
L 247.682714 27.04343 
L 249.315193 27.04343 
L 250.951888 27.04343 
L 252.224605 27.04343 
L 252.743362 27.04343 
L 254.883573 27.04343 
L 256.684564 27.04343 
L 257.227894 27.04343 
L 258.874865 27.04343 
L 260.747057 27.04343 
L 261.180845 27.04343 
L 262.974946 27.04343 
L 264.918059 27.04343 
L 266.716153 27.04343 
L 267.941201 27.04343 
L 268.776807 27.04343 
L 269.927702 27.04343 
L 271.513978 27.04343 
L 272.891965 27.04343 
L 274.006995 27.04343 
L 275.153347 27.04343 
L 276.924244 27.04343 
L 278.75377 27.04343 
L 280.01325 27.04343 
L 281.329511 27.04343 
L 282.204511 27.04343 
L 284.290295 27.04343 
L 285.516245 27.04343 
L 287.444923 27.04343 
L 288.04433 27.04343 
L 289.523028 27.04343 
L 290.918064 27.04343 
L 292.300781 27.04343 
L 294.378068 27.04343 
L 295.637374 27.04343 
L 296.731034 27.04343 
L 298.840753 27.04343 
L 299.272652 27.04343 
L 301.669406 27.04343 
L 302.335456 27.04343 
L 303.54924 27.04343 
L 306.025783 27.04343 
L 306.924572 27.04343 
L 308.470049 27.04343 
L 309.191693 27.04343 
L 310.832441 27.04343 
L 312.994109 27.04343 
L 313.272581 27.04343 
z
" clip-path="url(#p9c418e16d5)" style="fill: #008000; opacity: 0.5"/>
   </g>
   <g id="matplotlib.axis_1">
    <g id="xtick_1">
     <g id="line2d_1">
      <defs>
       <path id="mb74a826644" d="M 0 0 
L 0 3.5 
" style="stroke: #000000; stroke-width: 0.8"/>
      </defs>
      <g>
       <use xlink:href="#mb74a826644" x="35.692824" y="312.397538" style="stroke: #000000; stroke-width: 0.8"/>
      </g>
     </g>
     <g id="text_1">
      <!-- 0.0 -->
      <g transform="translate(27.741261 326.995976)scale(0.1 -0.1)">
       <defs>
        <path id="DejaVuSans-30" d="M 2034 4250 
Q 1547 4250 1301 3770 
Q 1056 3291 1056 2328 
Q 1056 1369 1301 889 
Q 1547 409 2034 409 
Q 2525 409 2770 889 
Q 3016 1369 3016 2328 
Q 3016 3291 2770 3770 
Q 2525 4250 2034 4250 
z
M 2034 4750 
Q 2819 4750 3233 4129 
Q 3647 3509 3647 2328 
Q 3647 1150 3233 529 
Q 2819 -91 2034 -91 
Q 1250 -91 836 529 
Q 422 1150 422 2328 
Q 422 3509 836 4129 
Q 1250 4750 2034 4750 
z
" transform="scale(0.015625)"/>
        <path id="DejaVuSans-2e" d="M 684 794 
L 1344 794 
L 1344 0 
L 684 0 
L 684 794 
z
" transform="scale(0.015625)"/>
       </defs>
       <use xlink:href="#DejaVuSans-30"/>
       <use xlink:href="#DejaVuSans-2e" x="63.623047"/>
       <use xlink:href="#DejaVuSans-30" x="95.410156"/>
      </g>
     </g>
    </g>
    <g id="xtick_2">
     <g id="line2d_2">
      <g>
       <use xlink:href="#mb74a826644" x="91.589809" y="312.397538" style="stroke: #000000; stroke-width: 0.8"/>
      </g>
     </g>
     <g id="text_2">
      <!-- 0.2 -->
      <g transform="translate(83.638246 326.995976)scale(0.1 -0.1)">
       <defs>
        <path id="DejaVuSans-32" d="M 1228 531 
L 3431 531 
L 3431 0 
L 469 0 
L 469 531 
Q 828 903 1448 1529 
Q 2069 2156 2228 2338 
Q 2531 2678 2651 2914 
Q 2772 3150 2772 3378 
Q 2772 3750 2511 3984 
Q 2250 4219 1831 4219 
Q 1534 4219 1204 4116 
Q 875 4013 500 3803 
L 500 4441 
Q 881 4594 1212 4672 
Q 1544 4750 1819 4750 
Q 2544 4750 2975 4387 
Q 3406 4025 3406 3419 
Q 3406 3131 3298 2873 
Q 3191 2616 2906 2266 
Q 2828 2175 2409 1742 
Q 1991 1309 1228 531 
z
" transform="scale(0.015625)"/>
       </defs>
       <use xlink:href="#DejaVuSans-30"/>
       <use xlink:href="#DejaVuSans-2e" x="63.623047"/>
       <use xlink:href="#DejaVuSans-32" x="95.410156"/>
      </g>
     </g>
    </g>
    <g id="xtick_3">
     <g id="line2d_3">
      <g>
       <use xlink:href="#mb74a826644" x="147.486794" y="312.397538" style="stroke: #000000; stroke-width: 0.8"/>
      </g>
     </g>
     <g id="text_3">
      <!-- 0.4 -->
      <g transform="translate(139.535231 326.995976)scale(0.1 -0.1)">
       <defs>
        <path id="DejaVuSans-34" d="M 2419 4116 
L 825 1625 
L 2419 1625 
L 2419 4116 
z
M 2253 4666 
L 3047 4666 
L 3047 1625 
L 3713 1625 
L 3713 1100 
L 3047 1100 
L 3047 0 
L 2419 0 
L 2419 1100 
L 313 1100 
L 313 1709 
L 2253 4666 
z
" transform="scale(0.015625)"/>
       </defs>
       <use xlink:href="#DejaVuSans-30"/>
       <use xlink:href="#DejaVuSans-2e" x="63.623047"/>
       <use xlink:href="#DejaVuSans-34" x="95.410156"/>
      </g>
     </g>
    </g>
    <g id="xtick_4">
     <g id="line2d_4">
      <g>
       <use xlink:href="#mb74a826644" x="203.383779" y="312.397538" style="stroke: #000000; stroke-width: 0.8"/>
      </g>
     </g>
     <g id="text_4">
      <!-- 0.6 -->
      <g transform="translate(195.432216 326.995976)scale(0.1 -0.1)">
       <defs>
        <path id="DejaVuSans-36" d="M 2113 2584 
Q 1688 2584 1439 2293 
Q 1191 2003 1191 1497 
Q 1191 994 1439 701 
Q 1688 409 2113 409 
Q 2538 409 2786 701 
Q 3034 994 3034 1497 
Q 3034 2003 2786 2293 
Q 2538 2584 2113 2584 
z
M 3366 4563 
L 3366 3988 
Q 3128 4100 2886 4159 
Q 2644 4219 2406 4219 
Q 1781 4219 1451 3797 
Q 1122 3375 1075 2522 
Q 1259 2794 1537 2939 
Q 1816 3084 2150 3084 
Q 2853 3084 3261 2657 
Q 3669 2231 3669 1497 
Q 3669 778 3244 343 
Q 2819 -91 2113 -91 
Q 1303 -91 875 529 
Q 447 1150 447 2328 
Q 447 3434 972 4092 
Q 1497 4750 2381 4750 
Q 2619 4750 2861 4703 
Q 3103 4656 3366 4563 
z
" transform="scale(0.015625)"/>
       </defs>
       <use xlink:href="#DejaVuSans-30"/>
       <use xlink:href="#DejaVuSans-2e" x="63.623047"/>
       <use xlink:href="#DejaVuSans-36" x="95.410156"/>
      </g>
     </g>
    </g>
    <g id="xtick_5">
     <g id="line2d_5">
      <g>
       <use xlink:href="#mb74a826644" x="259.280764" y="312.397538" style="stroke: #000000; stroke-width: 0.8"/>
      </g>
     </g>
     <g id="text_5">
      <!-- 0.8 -->
      <g transform="translate(251.329201 326.995976)scale(0.1 -0.1)">
       <defs>
        <path id="DejaVuSans-38" d="M 2034 2216 
Q 1584 2216 1326 1975 
Q 1069 1734 1069 1313 
Q 1069 891 1326 650 
Q 1584 409 2034 409 
Q 2484 409 2743 651 
Q 3003 894 3003 1313 
Q 3003 1734 2745 1975 
Q 2488 2216 2034 2216 
z
M 1403 2484 
Q 997 2584 770 2862 
Q 544 3141 544 3541 
Q 544 4100 942 4425 
Q 1341 4750 2034 4750 
Q 2731 4750 3128 4425 
Q 3525 4100 3525 3541 
Q 3525 3141 3298 2862 
Q 3072 2584 2669 2484 
Q 3125 2378 3379 2068 
Q 3634 1759 3634 1313 
Q 3634 634 3220 271 
Q 2806 -91 2034 -91 
Q 1263 -91 848 271 
Q 434 634 434 1313 
Q 434 1759 690 2068 
Q 947 2378 1403 2484 
z
M 1172 3481 
Q 1172 3119 1398 2916 
Q 1625 2713 2034 2713 
Q 2441 2713 2670 2916 
Q 2900 3119 2900 3481 
Q 2900 3844 2670 4047 
Q 2441 4250 2034 4250 
Q 1625 4250 1398 4047 
Q 1172 3844 1172 3481 
z
" transform="scale(0.015625)"/>
       </defs>
       <use xlink:href="#DejaVuSans-30"/>
       <use xlink:href="#DejaVuSans-2e" x="63.623047"/>
       <use xlink:href="#DejaVuSans-38" x="95.410156"/>
      </g>
     </g>
    </g>
    <g id="xtick_6">
     <g id="line2d_6">
      <g>
       <use xlink:href="#mb74a826644" x="315.177749" y="312.397538" style="stroke: #000000; stroke-width: 0.8"/>
      </g>
     </g>
     <g id="text_6">
      <!-- 1.0 -->
      <g transform="translate(307.226186 326.995976)scale(0.1 -0.1)">
       <defs>
        <path id="DejaVuSans-31" d="M 794 531 
L 1825 531 
L 1825 4091 
L 703 3866 
L 703 4441 
L 1819 4666 
L 2450 4666 
L 2450 531 
L 3481 531 
L 3481 0 
L 794 0 
L 794 531 
z
" transform="scale(0.015625)"/>
       </defs>
       <use xlink:href="#DejaVuSans-31"/>
       <use xlink:href="#DejaVuSans-2e" x="63.623047"/>
       <use xlink:href="#DejaVuSans-30" x="95.410156"/>
      </g>
     </g>
    </g>
    <g id="xtick_7">
     <g id="line2d_7">
      <defs>
       <path id="medc7c1a790" d="M 0 0 
L 0 2 
" style="stroke: #000000; stroke-width: 0.6"/>
      </defs>
      <g>
       <use xlink:href="#medc7c1a790" x="49.66707" y="312.397538" style="stroke: #000000; stroke-width: 0.6"/>
      </g>
     </g>
    </g>
    <g id="xtick_8">
     <g id="line2d_8">
      <g>
       <use xlink:href="#medc7c1a790" x="63.641316" y="312.397538" style="stroke: #000000; stroke-width: 0.6"/>
      </g>
     </g>
    </g>
    <g id="xtick_9">
     <g id="line2d_9">
      <g>
       <use xlink:href="#medc7c1a790" x="77.615562" y="312.397538" style="stroke: #000000; stroke-width: 0.6"/>
      </g>
     </g>
    </g>
    <g id="xtick_10">
     <g id="line2d_10">
      <g>
       <use xlink:href="#medc7c1a790" x="105.564055" y="312.397538" style="stroke: #000000; stroke-width: 0.6"/>
      </g>
     </g>
    </g>
    <g id="xtick_11">
     <g id="line2d_11">
      <g>
       <use xlink:href="#medc7c1a790" x="119.538301" y="312.397538" style="stroke: #000000; stroke-width: 0.6"/>
      </g>
     </g>
    </g>
    <g id="xtick_12">
     <g id="line2d_12">
      <g>
       <use xlink:href="#medc7c1a790" x="133.512547" y="312.397538" style="stroke: #000000; stroke-width: 0.6"/>
      </g>
     </g>
    </g>
    <g id="xtick_13">
     <g id="line2d_13">
      <g>
       <use xlink:href="#medc7c1a790" x="161.46104" y="312.397538" style="stroke: #000000; stroke-width: 0.6"/>
      </g>
     </g>
    </g>
    <g id="xtick_14">
     <g id="line2d_14">
      <g>
       <use xlink:href="#medc7c1a790" x="175.435286" y="312.397538" style="stroke: #000000; stroke-width: 0.6"/>
      </g>
     </g>
    </g>
    <g id="xtick_15">
     <g id="line2d_15">
      <g>
       <use xlink:href="#medc7c1a790" x="189.409532" y="312.397538" style="stroke: #000000; stroke-width: 0.6"/>
      </g>
     </g>
    </g>
    <g id="xtick_16">
     <g id="line2d_16">
      <g>
       <use xlink:href="#medc7c1a790" x="217.358025" y="312.397538" style="stroke: #000000; stroke-width: 0.6"/>
      </g>
     </g>
    </g>
    <g id="xtick_17">
     <g id="line2d_17">
      <g>
       <use xlink:href="#medc7c1a790" x="231.332271" y="312.397538" style="stroke: #000000; stroke-width: 0.6"/>
      </g>
     </g>
    </g>
    <g id="xtick_18">
     <g id="line2d_18">
      <g>
       <use xlink:href="#medc7c1a790" x="245.306518" y="312.397538" style="stroke: #000000; stroke-width: 0.6"/>
      </g>
     </g>
    </g>
    <g id="xtick_19">
     <g id="line2d_19">
      <g>
       <use xlink:href="#medc7c1a790" x="273.25501" y="312.397538" style="stroke: #000000; stroke-width: 0.6"/>
      </g>
     </g>
    </g>
    <g id="xtick_20">
     <g id="line2d_20">
      <g>
       <use xlink:href="#medc7c1a790" x="287.229256" y="312.397538" style="stroke: #000000; stroke-width: 0.6"/>
      </g>
     </g>
    </g>
    <g id="xtick_21">
     <g id="line2d_21">
      <g>
       <use xlink:href="#medc7c1a790" x="301.203503" y="312.397538" style="stroke: #000000; stroke-width: 0.6"/>
      </g>
     </g>
    </g>
   </g>
   <g id="matplotlib.axis_2">
    <g id="ytick_1">
     <g id="line2d_22">
      <defs>
       <path id="m3cfddab657" d="M 0 0 
L -3.5 0 
" style="stroke: #000000; stroke-width: 0.8"/>
      </defs>
      <g>
       <use xlink:href="#m3cfddab657" x="30.103125" y="306.528355" style="stroke: #000000; stroke-width: 0.8"/>
      </g>
     </g>
     <g id="text_7">
      <!-- 0.0 -->
      <g transform="translate(7.2 310.327574)scale(0.1 -0.1)">
       <use xlink:href="#DejaVuSans-30"/>
       <use xlink:href="#DejaVuSans-2e" x="63.623047"/>
       <use xlink:href="#DejaVuSans-30" x="95.410156"/>
      </g>
     </g>
    </g>
    <g id="ytick_2">
     <g id="line2d_23">
      <g>
       <use xlink:href="#m3cfddab657" x="30.103125" y="250.63137" style="stroke: #000000; stroke-width: 0.8"/>
      </g>
     </g>
     <g id="text_8">
      <!-- 0.2 -->
      <g transform="translate(7.2 254.430589)scale(0.1 -0.1)">
       <use xlink:href="#DejaVuSans-30"/>
       <use xlink:href="#DejaVuSans-2e" x="63.623047"/>
       <use xlink:href="#DejaVuSans-32" x="95.410156"/>
      </g>
     </g>
    </g>
    <g id="ytick_3">
     <g id="line2d_24">
      <g>
       <use xlink:href="#m3cfddab657" x="30.103125" y="194.734385" style="stroke: #000000; stroke-width: 0.8"/>
      </g>
     </g>
     <g id="text_9">
      <!-- 0.4 -->
      <g transform="translate(7.2 198.533604)scale(0.1 -0.1)">
       <use xlink:href="#DejaVuSans-30"/>
       <use xlink:href="#DejaVuSans-2e" x="63.623047"/>
       <use xlink:href="#DejaVuSans-34" x="95.410156"/>
      </g>
     </g>
    </g>
    <g id="ytick_4">
     <g id="line2d_25">
      <g>
       <use xlink:href="#m3cfddab657" x="30.103125" y="138.8374" style="stroke: #000000; stroke-width: 0.8"/>
      </g>
     </g>
     <g id="text_10">
      <!-- 0.6 -->
      <g transform="translate(7.2 142.636619)scale(0.1 -0.1)">
       <use xlink:href="#DejaVuSans-30"/>
       <use xlink:href="#DejaVuSans-2e" x="63.623047"/>
       <use xlink:href="#DejaVuSans-36" x="95.410156"/>
      </g>
     </g>
    </g>
    <g id="ytick_5">
     <g id="line2d_26">
      <g>
       <use xlink:href="#m3cfddab657" x="30.103125" y="82.940415" style="stroke: #000000; stroke-width: 0.8"/>
      </g>
     </g>
     <g id="text_11">
      <!-- 0.8 -->
      <g transform="translate(7.2 86.739634)scale(0.1 -0.1)">
       <use xlink:href="#DejaVuSans-30"/>
       <use xlink:href="#DejaVuSans-2e" x="63.623047"/>
       <use xlink:href="#DejaVuSans-38" x="95.410156"/>
      </g>
     </g>
    </g>
    <g id="ytick_6">
     <g id="line2d_27">
      <g>
       <use xlink:href="#m3cfddab657" x="30.103125" y="27.04343" style="stroke: #000000; stroke-width: 0.8"/>
      </g>
     </g>
     <g id="text_12">
      <!-- 1.0 -->
      <g transform="translate(7.2 30.842648)scale(0.1 -0.1)">
       <use xlink:href="#DejaVuSans-31"/>
       <use xlink:href="#DejaVuSans-2e" x="63.623047"/>
       <use xlink:href="#DejaVuSans-30" x="95.410156"/>
      </g>
     </g>
    </g>
    <g id="ytick_7">
     <g id="line2d_28">
      <defs>
       <path id="m0b8f4ae0a0" d="M 0 0 
L -2 0 
" style="stroke: #000000; stroke-width: 0.6"/>
      </defs>
      <g>
       <use xlink:href="#m0b8f4ae0a0" x="30.103125" y="292.554109" style="stroke: #000000; stroke-width: 0.6"/>
      </g>
     </g>
    </g>
    <g id="ytick_8">
     <g id="line2d_29">
      <g>
       <use xlink:href="#m0b8f4ae0a0" x="30.103125" y="278.579862" style="stroke: #000000; stroke-width: 0.6"/>
      </g>
     </g>
    </g>
    <g id="ytick_9">
     <g id="line2d_30">
      <g>
       <use xlink:href="#m0b8f4ae0a0" x="30.103125" y="264.605616" style="stroke: #000000; stroke-width: 0.6"/>
      </g>
     </g>
    </g>
    <g id="ytick_10">
     <g id="line2d_31">
      <g>
       <use xlink:href="#m0b8f4ae0a0" x="30.103125" y="236.657124" style="stroke: #000000; stroke-width: 0.6"/>
      </g>
     </g>
    </g>
    <g id="ytick_11">
     <g id="line2d_32">
      <g>
       <use xlink:href="#m0b8f4ae0a0" x="30.103125" y="222.682877" style="stroke: #000000; stroke-width: 0.6"/>
      </g>
     </g>
    </g>
    <g id="ytick_12">
     <g id="line2d_33">
      <g>
       <use xlink:href="#m0b8f4ae0a0" x="30.103125" y="208.708631" style="stroke: #000000; stroke-width: 0.6"/>
      </g>
     </g>
    </g>
    <g id="ytick_13">
     <g id="line2d_34">
      <g>
       <use xlink:href="#m0b8f4ae0a0" x="30.103125" y="180.760139" style="stroke: #000000; stroke-width: 0.6"/>
      </g>
     </g>
    </g>
    <g id="ytick_14">
     <g id="line2d_35">
      <g>
       <use xlink:href="#m0b8f4ae0a0" x="30.103125" y="166.785892" style="stroke: #000000; stroke-width: 0.6"/>
      </g>
     </g>
    </g>
    <g id="ytick_15">
     <g id="line2d_36">
      <g>
       <use xlink:href="#m0b8f4ae0a0" x="30.103125" y="152.811646" style="stroke: #000000; stroke-width: 0.6"/>
      </g>
     </g>
    </g>
    <g id="ytick_16">
     <g id="line2d_37">
      <g>
       <use xlink:href="#m0b8f4ae0a0" x="30.103125" y="124.863154" style="stroke: #000000; stroke-width: 0.6"/>
      </g>
     </g>
    </g>
    <g id="ytick_17">
     <g id="line2d_38">
      <g>
       <use xlink:href="#m0b8f4ae0a0" x="30.103125" y="110.888907" style="stroke: #000000; stroke-width: 0.6"/>
      </g>
     </g>
    </g>
    <g id="ytick_18">
     <g id="line2d_39">
      <g>
       <use xlink:href="#m0b8f4ae0a0" x="30.103125" y="96.914661" style="stroke: #000000; stroke-width: 0.6"/>
      </g>
     </g>
    </g>
    <g id="ytick_19">
     <g id="line2d_40">
      <g>
       <use xlink:href="#m0b8f4ae0a0" x="30.103125" y="68.966168" style="stroke: #000000; stroke-width: 0.6"/>
      </g>
     </g>
    </g>
    <g id="ytick_20">
     <g id="line2d_41">
      <g>
       <use xlink:href="#m0b8f4ae0a0" x="30.103125" y="54.991922" style="stroke: #000000; stroke-width: 0.6"/>
      </g>
     </g>
    </g>
    <g id="ytick_21">
     <g id="line2d_42">
      <g>
       <use xlink:href="#m0b8f4ae0a0" x="30.103125" y="41.017676" style="stroke: #000000; stroke-width: 0.6"/>
      </g>
     </g>
    </g>
    <g id="ytick_22">
     <g id="line2d_43">
      <g>
       <use xlink:href="#m0b8f4ae0a0" x="30.103125" y="13.069183" style="stroke: #000000; stroke-width: 0.6"/>
      </g>
     </g>
    </g>
   </g>
   <g id="line2d_44">
    <path d="M 35.692824 27.04343 
L 315.177749 27.04343 
L 315.177749 27.04343 
" clip-path="url(#p9c418e16d5)" style="fill: none; stroke: #0000ff; stroke-linecap: square"/>
   </g>
   <g id="line2d_45">
    <path d="M 35.692824 306.528355 
L 315.177749 27.04343 
L 315.177749 27.04343 
" clip-path="url(#p9c418e16d5)" style="fill: none; stroke: #ff0000; stroke-linecap: square"/>
   </g>
   <g id="PathCollection_1">
    <path d="M 36.161758 27.04343 
L 36.161758 306.528355 
L 36.161758 306.528355 
" clip-path="url(#p9c418e16d5)" style="fill: none; stroke: #ffa500; stroke-width: 1.5"/>
   </g>
   <g id="patch_4">
    <path d="M 30.103125 312.397538 
L 30.103125 7.2 
" style="fill: none; stroke: #000000; stroke-width: 0.8; stroke-linejoin: miter; stroke-linecap: square"/>
   </g>
   <g id="patch_5">
    <path d="M 320.767447 312.397538 
L 320.767447 7.2 
" style="fill: none; stroke: #000000; stroke-width: 0.8; stroke-linejoin: miter; stroke-linecap: square"/>
   </g>
   <g id="patch_6">
    <path d="M 30.103125 312.397538 
L 320.767447 312.397538 
" style="fill: none; stroke: #000000; stroke-width: 0.8; stroke-linejoin: miter; stroke-linecap: square"/>
   </g>
   <g id="patch_7">
    <path d="M 30.103125 7.2 
L 320.767447 7.2 
" style="fill: none; stroke: #000000; stroke-width: 0.8; stroke-linejoin: miter; stroke-linecap: square"/>
   </g>
   <g id="text_13">
    <!-- $y=1$ -->
    <g transform="translate(162.715286 16.356058)scale(0.12 -0.12)">
     <defs>
      <path id="Cmmi10-79" d="M 538 -916 
Q 672 -1147 1006 -1147 
Q 1309 -1147 1531 -934 
Q 1753 -722 1889 -420 
Q 2025 -119 2100 197 
Q 1816 -72 1484 -72 
Q 1231 -72 1053 15 
Q 875 103 776 276 
Q 678 450 678 697 
Q 678 906 734 1126 
Q 791 1347 892 1617 
Q 994 1888 1069 2088 
Q 1153 2322 1153 2472 
Q 1153 2663 1013 2663 
Q 759 2663 595 2402 
Q 431 2141 353 1819 
Q 341 1778 300 1778 
L 225 1778 
Q 172 1778 172 1838 
L 172 1856 
Q 275 2238 487 2533 
Q 700 2828 1025 2828 
Q 1253 2828 1411 2678 
Q 1569 2528 1569 2297 
Q 1569 2178 1516 2047 
Q 1488 1969 1388 1706 
Q 1288 1444 1234 1272 
Q 1181 1100 1147 934 
Q 1113 769 1113 603 
Q 1113 391 1203 244 
Q 1294 97 1491 97 
Q 1888 97 2203 581 
L 2688 2553 
Q 2709 2638 2787 2698 
Q 2866 2759 2956 2759 
Q 3034 2759 3092 2709 
Q 3150 2659 3150 2578 
Q 3150 2541 3144 2528 
L 2509 -19 
Q 2425 -347 2200 -647 
Q 1975 -947 1658 -1130 
Q 1341 -1313 997 -1313 
Q 831 -1313 668 -1248 
Q 506 -1184 406 -1056 
Q 306 -928 306 -756 
Q 306 -581 409 -453 
Q 513 -325 684 -325 
Q 788 -325 858 -389 
Q 928 -453 928 -556 
Q 928 -703 818 -812 
Q 709 -922 563 -922 
Q 556 -919 550 -917 
Q 544 -916 538 -916 
z
" transform="scale(0.015625)"/>
      <path id="Cmr10-3d" d="M 481 850 
Q 428 850 393 890 
Q 359 931 359 978 
Q 359 1031 393 1068 
Q 428 1106 481 1106 
L 4500 1106 
Q 4547 1106 4581 1068 
Q 4616 1031 4616 978 
Q 4616 931 4581 890 
Q 4547 850 4500 850 
L 481 850 
z
M 481 2094 
Q 428 2094 393 2131 
Q 359 2169 359 2222 
Q 359 2269 393 2309 
Q 428 2350 481 2350 
L 4500 2350 
Q 4547 2350 4581 2309 
Q 4616 2269 4616 2222 
Q 4616 2169 4581 2131 
Q 4547 2094 4500 2094 
L 481 2094 
z
" transform="scale(0.015625)"/>
      <path id="Cmr10-31" d="M 594 0 
L 594 225 
Q 1394 225 1394 428 
L 1394 3788 
Q 1063 3628 556 3628 
L 556 3853 
Q 1341 3853 1741 4263 
L 1831 4263 
Q 1853 4263 1873 4245 
Q 1894 4228 1894 4206 
L 1894 428 
Q 1894 225 2694 225 
L 2694 0 
L 594 0 
z
" transform="scale(0.015625)"/>
     </defs>
     <use xlink:href="#Cmmi10-79" transform="translate(0 0.390625)"/>
     <use xlink:href="#Cmr10-3d" transform="translate(66.582031 0.390625)"/>
     <use xlink:href="#Cmr10-31" transform="translate(161.826172 0.390625)"/>
    </g>
   </g>
   <g id="text_14">
    <!-- $y=x$ -->
    <g transform="translate(162.295286 142.124275)scale(0.12 -0.12)">
     <defs>
      <path id="Cmmi10-78" d="M 500 184 
Q 613 97 819 97 
Q 1019 97 1172 289 
Q 1325 481 1381 709 
L 1672 1844 
Q 1741 2153 1741 2266 
Q 1741 2425 1652 2544 
Q 1563 2663 1403 2663 
Q 1200 2663 1022 2536 
Q 844 2409 722 2214 
Q 600 2019 550 1819 
Q 538 1778 500 1778 
L 422 1778 
Q 372 1778 372 1838 
L 372 1856 
Q 434 2094 584 2320 
Q 734 2547 951 2687 
Q 1169 2828 1416 2828 
Q 1650 2828 1839 2703 
Q 2028 2578 2106 2363 
Q 2216 2559 2386 2693 
Q 2556 2828 2759 2828 
Q 2897 2828 3040 2779 
Q 3184 2731 3275 2631 
Q 3366 2531 3366 2381 
Q 3366 2219 3261 2101 
Q 3156 1984 2994 1984 
Q 2891 1984 2822 2050 
Q 2753 2116 2753 2216 
Q 2753 2350 2845 2451 
Q 2938 2553 3066 2572 
Q 2950 2663 2747 2663 
Q 2541 2663 2389 2472 
Q 2238 2281 2175 2047 
L 1894 916 
Q 1825 659 1825 494 
Q 1825 331 1917 214 
Q 2009 97 2163 97 
Q 2463 97 2698 361 
Q 2934 625 3009 941 
Q 3022 978 3059 978 
L 3138 978 
Q 3163 978 3178 961 
Q 3194 944 3194 922 
Q 3194 916 3188 903 
Q 3097 522 2806 225 
Q 2516 -72 2150 -72 
Q 1916 -72 1727 54 
Q 1538 181 1459 397 
Q 1359 209 1182 68 
Q 1006 -72 806 -72 
Q 669 -72 523 -23 
Q 378 25 287 125 
Q 197 225 197 378 
Q 197 528 301 651 
Q 406 775 563 775 
Q 669 775 741 711 
Q 813 647 813 544 
Q 813 409 723 309 
Q 634 209 500 184 
z
" transform="scale(0.015625)"/>
     </defs>
     <use xlink:href="#Cmmi10-79" transform="translate(0 0.8125)"/>
     <use xlink:href="#Cmr10-3d" transform="translate(66.582031 0.8125)"/>
     <use xlink:href="#Cmmi10-78" transform="translate(161.826172 0.8125)"/>
    </g>
   </g>
   <g id="text_15">
    <!-- $\mathcal{R}$ -->
    <g transform="translate(86.489809 86.251665)scale(0.12 -0.12)">
     <defs>
      <path id="Cmsy10-52" d="M 738 -91 
Q 738 -78 744 -56 
Q 966 475 1128 959 
Q 1291 1444 1428 1991 
Q 1678 2959 1766 3994 
Q 1425 3994 1094 3872 
Q 922 3803 833 3695 
Q 744 3588 684 3397 
Q 622 3291 472 3197 
Q 322 3103 206 3103 
L 166 3103 
Q 122 3131 122 3169 
Q 234 3556 581 3828 
Q 928 4100 1387 4236 
Q 1847 4372 2259 4372 
L 2931 4372 
Q 3378 4372 3739 4331 
Q 4100 4291 4392 4112 
Q 4684 3934 4684 3572 
Q 4684 3281 4548 3014 
Q 4413 2747 4189 2533 
Q 3966 2319 3697 2158 
Q 3428 1997 3156 1900 
Q 3253 1784 3383 1501 
Q 3513 1219 3659 911 
Q 3806 603 3951 420 
Q 4097 238 4256 238 
Q 4444 238 4551 308 
Q 4659 378 4775 520 
Q 4891 663 4997 745 
Q 5103 828 5281 844 
L 5319 844 
Q 5363 822 5363 794 
Q 5363 784 5356 768 
Q 5350 753 5344 738 
Q 5188 503 4936 297 
Q 4684 91 4393 -25 
Q 4103 -141 3828 -141 
L 3788 -141 
Q 3541 -141 3372 98 
Q 3203 338 3003 811 
Q 2803 1284 2651 1515 
Q 2500 1747 2278 1747 
Q 2266 1753 2250 1765 
Q 2234 1778 2234 1797 
Q 2234 1900 2420 2006 
Q 2606 2113 2719 2125 
Q 3072 2125 3395 2262 
Q 3719 2400 3917 2667 
Q 4116 2934 4116 3291 
Q 4116 3613 3833 3767 
Q 3550 3922 3203 3958 
Q 2856 3994 2450 3994 
L 2309 3994 
Q 2209 3041 1954 2070 
Q 1700 1100 1300 153 
Q 1238 41 1092 -43 
Q 947 -128 813 -141 
L 781 -141 
Q 769 -134 753 -121 
Q 738 -109 738 -91 
z
" transform="scale(0.015625)"/>
     </defs>
     <use xlink:href="#Cmsy10-52" transform="translate(0 0.6875)"/>
    </g>
   </g>
   <g id="text_16">
    <!-- $x=0$ -->
    <g transform="translate(50.441316 142.14865)scale(0.12 -0.12)">
     <defs>
      <path id="Cmr10-30" d="M 1600 -141 
Q 816 -141 533 504 
Q 250 1150 250 2041 
Q 250 2597 351 3087 
Q 453 3578 754 3920 
Q 1056 4263 1600 4263 
Q 2022 4263 2290 4056 
Q 2559 3850 2700 3523 
Q 2841 3197 2892 2823 
Q 2944 2450 2944 2041 
Q 2944 1491 2842 1011 
Q 2741 531 2444 195 
Q 2147 -141 1600 -141 
z
M 1600 25 
Q 1956 25 2131 390 
Q 2306 756 2347 1200 
Q 2388 1644 2388 2144 
Q 2388 2625 2347 3031 
Q 2306 3438 2132 3767 
Q 1959 4097 1600 4097 
Q 1238 4097 1063 3765 
Q 888 3434 847 3029 
Q 806 2625 806 2144 
Q 806 1788 823 1472 
Q 841 1156 916 820 
Q 991 484 1158 254 
Q 1325 25 1600 25 
z
" transform="scale(0.015625)"/>
     </defs>
     <use xlink:href="#Cmmi10-78" transform="translate(0 0.390625)"/>
     <use xlink:href="#Cmr10-3d" transform="translate(74.638672 0.390625)"/>
     <use xlink:href="#Cmr10-30" transform="translate(169.882812 0.390625)"/>
    </g>
   </g>
  </g>
 </g>
 <defs>
  <clipPath id="p9c418e16d5">
   <rect x="30.103125" y="7.2" width="290.664322" height="305.197538"/>
  </clipPath>
 </defs>
</svg>
