<?xml version="1.0" encoding="utf-8" standalone="no"?>
<!DOCTYPE svg PUBLIC "-//W3C//DTD SVG 1.1//EN"
  "http://www.w3.org/Graphics/SVG/1.1/DTD/svg11.dtd">
<svg xmlns:xlink="http://www.w3.org/1999/xlink" width="330.329311pt" height="336.275663pt" viewBox="0 0 330.329311 336.275663" xmlns="http://www.w3.org/2000/svg" version="1.1">
 <metadata>
  <rdf:RDF xmlns:dc="http://purl.org/dc/elements/1.1/" xmlns:cc="http://creativecommons.org/ns#" xmlns:rdf="http://www.w3.org/1999/02/22-rdf-syntax-ns#">
   <cc:Work>
    <dc:type rdf:resource="http://purl.org/dc/dcmitype/StillImage"/>
    <dc:date>2022-10-27T19:58:41.805838</dc:date>
    <dc:format>image/svg+xml</dc:format>
    <dc:creator>
     <cc:Agent>
      <dc:title>Matplotlib v3.5.1, https://matplotlib.org/</dc:title>
     </cc:Agent>
    </dc:creator>
   </cc:Work>
  </rdf:RDF>
 </metadata>
 <defs>
  <style type="text/css">*{stroke-linejoin: round; stroke-linecap: butt}</style>
 </defs>
 <g id="figure_1">
  <g id="patch_1">
   <path d="M 0 336.275663 
L 330.329311 336.275663 
L 330.329311 0 
L 0 0 
z
" style="fill: #ffffff"/>
  </g>
  <g id="axes_1">
   <g id="patch_2">
    <path d="M 30.103125 312.397538 
L 320.767447 312.397538 
L 320.767447 7.2 
L 30.103125 7.2 
z
" style="fill: #ffffff"/>
   </g>
   <g id="patch_3">
    <path d="M 315.177749 27.04343 
L 314.452241 27.768938 
L 312.038409 30.18277 
L 311.308719 30.91246 
L 309.99583 32.225348 
L 308.105203 34.115975 
L 306.264119 35.957059 
L 305.681571 36.539608 
L 303.384728 38.836451 
L 302.850494 39.370685 
L 300.597257 41.623921 
L 299.62655 42.594628 
L 298.374168 43.84701 
L 296.311707 45.909471 
L 295.291848 46.92933 
L 293.431789 48.78939 
L 292.234353 49.986826 
L 291.25532 50.965859 
L 290.027655 52.193524 
L 288.453086 53.768093 
L 287.284513 54.936666 
L 285.353726 56.867453 
L 284.854528 57.36665 
L 282.45019 59.770989 
L 281.564016 60.657163 
L 280.765169 61.45601 
L 278.523546 63.697632 
L 277.890559 64.33062 
L 276.112264 66.108914 
L 274.33418 67.886999 
L 272.702919 69.51826 
L 271.122603 71.098576 
L 270.659448 71.56173 
L 268.674846 73.546333 
L 268.031513 74.189665 
L 266.558182 75.662997 
L 264.784959 77.436219 
L 262.890524 79.330654 
L 262.026678 80.194501 
L 260.52115 81.700028 
L 258.337111 83.884068 
L 258.118849 84.10233 
L 256.684274 85.536904 
L 254.250501 87.970677 
L 253.935809 88.285369 
L 252.256668 89.964511 
L 250.827793 91.393385 
L 249.217971 93.003207 
L 247.471089 94.75009 
L 246.169794 96.051385 
L 245.061591 97.159587 
L 243.565066 98.656113 
L 242.739034 99.482145 
L 240.948818 101.272361 
L 239.116084 103.105094 
L 237.976365 104.244813 
L 236.687628 105.533551 
L 234.620318 107.60086 
L 233.166329 109.054849 
L 232.08405 110.137128 
L 230.374369 111.846809 
L 229.938222 112.282956 
L 228.29727 113.923909 
L 226.942298 115.278881 
L 225.286374 116.934805 
L 224.568165 117.653014 
L 222.023218 120.19796 
L 221.038376 121.182802 
L 219.794882 122.426297 
L 217.660147 124.561032 
L 216.894144 125.327035 
L 215.201456 127.019722 
L 214.651106 127.570072 
L 212.328611 129.892568 
L 211.14786 131.073318 
L 210.485935 131.735243 
L 208.270737 133.950442 
L 206.845861 135.375317 
L 205.35116 136.870019 
L 204.032155 138.189024 
L 203.445072 138.776106 
L 201.032128 141.189051 
L 199.961864 142.259314 
L 198.195171 144.026007 
L 197.858114 144.363064 
L 195.152509 147.06867 
L 194.08444 148.136738 
L 193.271202 148.949976 
L 191.992423 150.228756 
L 190.602037 151.619142 
L 189.030364 153.190814 
L 187.455444 154.765735 
L 185.30354 156.917638 
L 184.49916 157.722019 
L 183.380105 158.841073 
L 181.140735 161.080443 
L 180.240341 161.980838 
L 178.988826 163.232353 
L 177.142697 165.078482 
L 176.818446 165.402732 
L 174.744416 167.476763 
L 173.928714 168.292465 
L 171.643378 170.577801 
L 170.980375 171.240804 
L 169.387996 172.833183 
L 167.478088 174.743091 
L 166.422704 175.798475 
L 164.258844 177.962335 
L 162.862206 179.358973 
L 161.593518 180.627661 
L 160.08205 182.139129 
L 159.747488 182.473691 
L 158.318227 183.902951 
L 156.596504 185.624674 
L 155.02864 187.192539 
L 154.318325 187.902854 
L 152.668174 189.553005 
L 150.412135 191.809044 
L 149.972472 192.248707 
L 148.719993 193.501185 
L 146.108408 196.11277 
L 144.696341 197.524838 
L 144.43188 197.789299 
L 142.036176 200.185002 
L 141.667075 200.554103 
L 139.31547 202.905708 
L 138.846454 203.374725 
L 136.425461 205.795717 
L 135.052547 207.168632 
L 134.358948 207.86223 
L 133.162618 209.058561 
L 131.088594 211.132585 
L 130.482433 211.738745 
L 128.613465 213.607714 
L 126.408809 215.812369 
L 125.307793 216.913386 
L 124.574248 217.646931 
L 123.35067 218.870509 
L 121.250257 220.970921 
L 120.052936 222.168242 
L 118.318042 223.903136 
L 117.086393 225.134785 
L 115.24184 226.979339 
L 114.196238 228.02494 
L 113.126212 229.094967 
L 110.942769 231.27841 
L 110.747024 231.474154 
L 108.224088 233.997091 
L 107.871831 234.349348 
L 106.125367 236.095811 
L 104.631271 237.589908 
L 102.781906 239.439273 
L 102.133341 240.087837 
L 100.45934 241.761839 
L 99.337078 242.8841 
L 97.152434 245.068745 
L 96.315195 245.905983 
L 94.701865 247.519313 
L 92.787503 249.433676 
L 92.068939 250.152239 
L 90.671498 251.549681 
L 88.712898 253.508281 
L 87.100374 255.120805 
L 86.307794 255.913385 
L 85.018035 257.203144 
L 84.013009 258.20817 
L 81.965712 260.255466 
L 80.691797 261.529381 
L 78.606388 263.61479 
L 77.360361 264.860818 
L 76.366293 265.854886 
L 75.278425 266.942753 
L 73.786766 268.434412 
L 71.633462 270.587716 
L 70.942919 271.278259 
L 68.806416 273.414763 
L 67.292994 274.928184 
L 66.468132 275.753047 
L 65.197661 277.023518 
L 64.03506 278.186118 
L 61.746624 280.474555 
L 61.421831 280.799348 
L 58.930841 283.290337 
L 58.3202 283.900978 
L 57.14225 285.078929 
L 54.764299 287.45688 
L 54.13722 288.083959 
L 52.807422 289.413756 
L 51.43964 290.781538 
L 49.868739 292.35244 
L 48.885022 293.336157 
L 46.400909 295.82027 
L 45.673241 296.547938 
L 43.905953 298.315225 
L 43.248949 298.972229 
L 41.308119 300.91306 
L 40.053304 302.167874 
L 38.768548 303.45263 
L 37.607426 304.613753 
L 35.692824 306.528355 
L 35.692824 27.04343 
L 36.454576 27.04343 
L 39.054685 27.04343 
L 40.434256 27.04343 
L 41.632049 27.04343 
L 43.381711 27.04343 
L 44.384234 27.04343 
L 44.9907 27.04343 
L 46.390871 27.04343 
L 47.815798 27.04343 
L 49.642486 27.04343 
L 51.626049 27.04343 
L 52.768246 27.04343 
L 53.410146 27.04343 
L 55.197323 27.04343 
L 56.177681 27.04343 
L 58.322255 27.04343 
L 59.567301 27.04343 
L 60.557365 27.04343 
L 62.216934 27.04343 
L 64.071301 27.04343 
L 65.867462 27.04343 
L 67.195065 27.04343 
L 68.583596 27.04343 
L 69.486569 27.04343 
L 70.941272 27.04343 
L 72.802878 27.04343 
L 73.672312 27.04343 
L 75.182394 27.04343 
L 76.682529 27.04343 
L 77.536854 27.04343 
L 79.257987 27.04343 
L 80.708434 27.04343 
L 82.726645 27.04343 
L 84.094543 27.04343 
L 85.462977 27.04343 
L 85.963665 27.04343 
L 87.955969 27.04343 
L 88.677115 27.04343 
L 90.212995 27.04343 
L 92.536726 27.04343 
L 93.276091 27.04343 
L 94.114183 27.04343 
L 95.432137 27.04343 
L 97.761417 27.04343 
L 98.671653 27.04343 
L 100.691049 27.04343 
L 101.835803 27.04343 
L 103.47688 27.04343 
L 104.035692 27.04343 
L 106.60919 27.04343 
L 107.112054 27.04343 
L 108.812462 27.04343 
L 110.461154 27.04343 
L 110.886212 27.04343 
L 112.556585 27.04343 
L 114.131923 27.04343 
L 116.263438 27.04343 
L 117.396206 27.04343 
L 118.796572 27.04343 
L 119.882999 27.04343 
L 121.994084 27.04343 
L 123.379421 27.04343 
L 124.327493 27.04343 
L 125.354099 27.04343 
L 126.33598 27.04343 
L 127.906591 27.04343 
L 129.566504 27.04343 
L 130.640999 27.04343 
L 132.118423 27.04343 
L 133.742999 27.04343 
L 135.530009 27.04343 
L 137.322345 27.04343 
L 138.879231 27.04343 
L 139.882254 27.04343 
L 141.420491 27.04343 
L 142.760567 27.04343 
L 143.345582 27.04343 
L 145.349731 27.04343 
L 146.513716 27.04343 
L 148.334954 27.04343 
L 149.482908 27.04343 
L 150.202134 27.04343 
L 151.755526 27.04343 
L 153.834624 27.04343 
L 155.162856 27.04343 
L 156.899447 27.04343 
L 158.527023 27.04343 
L 159.960564 27.04343 
L 161.187835 27.04343 
L 161.93051 27.04343 
L 163.15406 27.04343 
L 165.56512 27.04343 
L 166.597756 27.04343 
L 167.738458 27.04343 
L 168.932803 27.04343 
L 169.882045 27.04343 
L 171.811136 27.04343 
L 173.422923 27.04343 
L 174.61363 27.04343 
L 175.798626 27.04343 
L 178.22123 27.04343 
L 179.252139 27.04343 
L 179.977186 27.04343 
L 181.192619 27.04343 
L 182.732111 27.04343 
L 184.055042 27.04343 
L 186.548266 27.04343 
L 186.702523 27.04343 
L 189.261858 27.04343 
L 189.794999 27.04343 
L 191.785797 27.04343 
L 193.104819 27.04343 
L 194.655226 27.04343 
L 195.112268 27.04343 
L 197.556628 27.04343 
L 198.410701 27.04343 
L 199.992658 27.04343 
L 202.03723 27.04343 
L 203.276482 27.04343 
L 203.579017 27.04343 
L 205.485354 27.04343 
L 207.721855 27.04343 
L 207.937124 27.04343 
L 209.540824 27.04343 
L 211.403451 27.04343 
L 213.131161 27.04343 
L 214.003306 27.04343 
L 215.228295 27.04343 
L 216.250204 27.04343 
L 218.077223 27.04343 
L 219.167911 27.04343 
L 220.932292 27.04343 
L 222.981689 27.04343 
L 223.373278 27.04343 
L 225.817737 27.04343 
L 226.051592 27.04343 
L 227.767928 27.04343 
L 229.706304 27.04343 
L 230.966955 27.04343 
L 232.103419 27.04343 
L 233.039669 27.04343 
L 234.934602 27.04343 
L 236.709273 27.04343 
L 237.996534 27.04343 
L 239.44305 27.04343 
L 241.229107 27.04343 
L 241.652421 27.04343 
L 243.741118 27.04343 
L 244.693217 27.04343 
L 246.061043 27.04343 
L 248.321391 27.04343 
L 249.72605 27.04343 
L 249.879855 27.04343 
L 251.880193 27.04343 
L 253.551921 27.04343 
L 255.312812 27.04343 
L 255.730695 27.04343 
L 257.311057 27.04343 
L 258.6478 27.04343 
L 259.813864 27.04343 
L 261.576071 27.04343 
L 262.594807 27.04343 
L 265.189273 27.04343 
L 266.127008 27.04343 
L 267.689982 27.04343 
L 268.812463 27.04343 
L 270.225283 27.04343 
L 271.541382 27.04343 
L 273.044669 27.04343 
L 274.745091 27.04343 
L 275.510305 27.04343 
L 277.360096 27.04343 
L 278.741735 27.04343 
L 280.731019 27.04343 
L 281.022183 27.04343 
L 282.77067 27.04343 
L 284.140183 27.04343 
L 285.565079 27.04343 
L 286.718868 27.04343 
L 289.084953 27.04343 
L 290.094979 27.04343 
L 291.731414 27.04343 
L 292.659938 27.04343 
L 294.311196 27.04343 
L 295.448433 27.04343 
L 296.412185 27.04343 
L 298.188789 27.04343 
L 299.955082 27.04343 
L 300.749135 27.04343 
L 302.574107 27.04343 
L 303.391877 27.04343 
L 304.81392 27.04343 
L 306.469736 27.04343 
L 308.501348 27.04343 
L 308.963166 27.04343 
L 310.944704 27.04343 
L 312.726311 27.04343 
L 314.119665 27.04343 
z
" clip-path="url(#pcf8282b8a8)" style="fill: #008000; opacity: 0.5"/>
   </g>
   <g id="matplotlib.axis_1">
    <g id="xtick_1">
     <g id="line2d_1">
      <defs>
       <path id="mab5096a0bd" d="M 0 0 
L 0 3.5 
" style="stroke: #000000; stroke-width: 0.8"/>
      </defs>
      <g>
       <use xlink:href="#mab5096a0bd" x="35.692824" y="312.397538" style="stroke: #000000; stroke-width: 0.8"/>
      </g>
     </g>
     <g id="text_1">
      <!-- 0.0 -->
      <g transform="translate(27.741261 326.995976)scale(0.1 -0.1)">
       <defs>
        <path id="DejaVuSans-30" d="M 2034 4250 
Q 1547 4250 1301 3770 
Q 1056 3291 1056 2328 
Q 1056 1369 1301 889 
Q 1547 409 2034 409 
Q 2525 409 2770 889 
Q 3016 1369 3016 2328 
Q 3016 3291 2770 3770 
Q 2525 4250 2034 4250 
z
M 2034 4750 
Q 2819 4750 3233 4129 
Q 3647 3509 3647 2328 
Q 3647 1150 3233 529 
Q 2819 -91 2034 -91 
Q 1250 -91 836 529 
Q 422 1150 422 2328 
Q 422 3509 836 4129 
Q 1250 4750 2034 4750 
z
" transform="scale(0.015625)"/>
        <path id="DejaVuSans-2e" d="M 684 794 
L 1344 794 
L 1344 0 
L 684 0 
L 684 794 
z
" transform="scale(0.015625)"/>
       </defs>
       <use xlink:href="#DejaVuSans-30"/>
       <use xlink:href="#DejaVuSans-2e" x="63.623047"/>
       <use xlink:href="#DejaVuSans-30" x="95.410156"/>
      </g>
     </g>
    </g>
    <g id="xtick_2">
     <g id="line2d_2">
      <g>
       <use xlink:href="#mab5096a0bd" x="91.589809" y="312.397538" style="stroke: #000000; stroke-width: 0.8"/>
      </g>
     </g>
     <g id="text_2">
      <!-- 0.2 -->
      <g transform="translate(83.638246 326.995976)scale(0.1 -0.1)">
       <defs>
        <path id="DejaVuSans-32" d="M 1228 531 
L 3431 531 
L 3431 0 
L 469 0 
L 469 531 
Q 828 903 1448 1529 
Q 2069 2156 2228 2338 
Q 2531 2678 2651 2914 
Q 2772 3150 2772 3378 
Q 2772 3750 2511 3984 
Q 2250 4219 1831 4219 
Q 1534 4219 1204 4116 
Q 875 4013 500 3803 
L 500 4441 
Q 881 4594 1212 4672 
Q 1544 4750 1819 4750 
Q 2544 4750 2975 4387 
Q 3406 4025 3406 3419 
Q 3406 3131 3298 2873 
Q 3191 2616 2906 2266 
Q 2828 2175 2409 1742 
Q 1991 1309 1228 531 
z
" transform="scale(0.015625)"/>
       </defs>
       <use xlink:href="#DejaVuSans-30"/>
       <use xlink:href="#DejaVuSans-2e" x="63.623047"/>
       <use xlink:href="#DejaVuSans-32" x="95.410156"/>
      </g>
     </g>
    </g>
    <g id="xtick_3">
     <g id="line2d_3">
      <g>
       <use xlink:href="#mab5096a0bd" x="147.486794" y="312.397538" style="stroke: #000000; stroke-width: 0.8"/>
      </g>
     </g>
     <g id="text_3">
      <!-- 0.4 -->
      <g transform="translate(139.535231 326.995976)scale(0.1 -0.1)">
       <defs>
        <path id="DejaVuSans-34" d="M 2419 4116 
L 825 1625 
L 2419 1625 
L 2419 4116 
z
M 2253 4666 
L 3047 4666 
L 3047 1625 
L 3713 1625 
L 3713 1100 
L 3047 1100 
L 3047 0 
L 2419 0 
L 2419 1100 
L 313 1100 
L 313 1709 
L 2253 4666 
z
" transform="scale(0.015625)"/>
       </defs>
       <use xlink:href="#DejaVuSans-30"/>
       <use xlink:href="#DejaVuSans-2e" x="63.623047"/>
       <use xlink:href="#DejaVuSans-34" x="95.410156"/>
      </g>
     </g>
    </g>
    <g id="xtick_4">
     <g id="line2d_4">
      <g>
       <use xlink:href="#mab5096a0bd" x="203.383779" y="312.397538" style="stroke: #000000; stroke-width: 0.8"/>
      </g>
     </g>
     <g id="text_4">
      <!-- 0.6 -->
      <g transform="translate(195.432216 326.995976)scale(0.1 -0.1)">
       <defs>
        <path id="DejaVuSans-36" d="M 2113 2584 
Q 1688 2584 1439 2293 
Q 1191 2003 1191 1497 
Q 1191 994 1439 701 
Q 1688 409 2113 409 
Q 2538 409 2786 701 
Q 3034 994 3034 1497 
Q 3034 2003 2786 2293 
Q 2538 2584 2113 2584 
z
M 3366 4563 
L 3366 3988 
Q 3128 4100 2886 4159 
Q 2644 4219 2406 4219 
Q 1781 4219 1451 3797 
Q 1122 3375 1075 2522 
Q 1259 2794 1537 2939 
Q 1816 3084 2150 3084 
Q 2853 3084 3261 2657 
Q 3669 2231 3669 1497 
Q 3669 778 3244 343 
Q 2819 -91 2113 -91 
Q 1303 -91 875 529 
Q 447 1150 447 2328 
Q 447 3434 972 4092 
Q 1497 4750 2381 4750 
Q 2619 4750 2861 4703 
Q 3103 4656 3366 4563 
z
" transform="scale(0.015625)"/>
       </defs>
       <use xlink:href="#DejaVuSans-30"/>
       <use xlink:href="#DejaVuSans-2e" x="63.623047"/>
       <use xlink:href="#DejaVuSans-36" x="95.410156"/>
      </g>
     </g>
    </g>
    <g id="xtick_5">
     <g id="line2d_5">
      <g>
       <use xlink:href="#mab5096a0bd" x="259.280764" y="312.397538" style="stroke: #000000; stroke-width: 0.8"/>
      </g>
     </g>
     <g id="text_5">
      <!-- 0.8 -->
      <g transform="translate(251.329201 326.995976)scale(0.1 -0.1)">
       <defs>
        <path id="DejaVuSans-38" d="M 2034 2216 
Q 1584 2216 1326 1975 
Q 1069 1734 1069 1313 
Q 1069 891 1326 650 
Q 1584 409 2034 409 
Q 2484 409 2743 651 
Q 3003 894 3003 1313 
Q 3003 1734 2745 1975 
Q 2488 2216 2034 2216 
z
M 1403 2484 
Q 997 2584 770 2862 
Q 544 3141 544 3541 
Q 544 4100 942 4425 
Q 1341 4750 2034 4750 
Q 2731 4750 3128 4425 
Q 3525 4100 3525 3541 
Q 3525 3141 3298 2862 
Q 3072 2584 2669 2484 
Q 3125 2378 3379 2068 
Q 3634 1759 3634 1313 
Q 3634 634 3220 271 
Q 2806 -91 2034 -91 
Q 1263 -91 848 271 
Q 434 634 434 1313 
Q 434 1759 690 2068 
Q 947 2378 1403 2484 
z
M 1172 3481 
Q 1172 3119 1398 2916 
Q 1625 2713 2034 2713 
Q 2441 2713 2670 2916 
Q 2900 3119 2900 3481 
Q 2900 3844 2670 4047 
Q 2441 4250 2034 4250 
Q 1625 4250 1398 4047 
Q 1172 3844 1172 3481 
z
" transform="scale(0.015625)"/>
       </defs>
       <use xlink:href="#DejaVuSans-30"/>
       <use xlink:href="#DejaVuSans-2e" x="63.623047"/>
       <use xlink:href="#DejaVuSans-38" x="95.410156"/>
      </g>
     </g>
    </g>
    <g id="xtick_6">
     <g id="line2d_6">
      <g>
       <use xlink:href="#mab5096a0bd" x="315.177749" y="312.397538" style="stroke: #000000; stroke-width: 0.8"/>
      </g>
     </g>
     <g id="text_6">
      <!-- 1.0 -->
      <g transform="translate(307.226186 326.995976)scale(0.1 -0.1)">
       <defs>
        <path id="DejaVuSans-31" d="M 794 531 
L 1825 531 
L 1825 4091 
L 703 3866 
L 703 4441 
L 1819 4666 
L 2450 4666 
L 2450 531 
L 3481 531 
L 3481 0 
L 794 0 
L 794 531 
z
" transform="scale(0.015625)"/>
       </defs>
       <use xlink:href="#DejaVuSans-31"/>
       <use xlink:href="#DejaVuSans-2e" x="63.623047"/>
       <use xlink:href="#DejaVuSans-30" x="95.410156"/>
      </g>
     </g>
    </g>
    <g id="xtick_7">
     <g id="line2d_7">
      <defs>
       <path id="ma2bf786339" d="M 0 0 
L 0 2 
" style="stroke: #000000; stroke-width: 0.6"/>
      </defs>
      <g>
       <use xlink:href="#ma2bf786339" x="49.66707" y="312.397538" style="stroke: #000000; stroke-width: 0.6"/>
      </g>
     </g>
    </g>
    <g id="xtick_8">
     <g id="line2d_8">
      <g>
       <use xlink:href="#ma2bf786339" x="63.641316" y="312.397538" style="stroke: #000000; stroke-width: 0.6"/>
      </g>
     </g>
    </g>
    <g id="xtick_9">
     <g id="line2d_9">
      <g>
       <use xlink:href="#ma2bf786339" x="77.615562" y="312.397538" style="stroke: #000000; stroke-width: 0.6"/>
      </g>
     </g>
    </g>
    <g id="xtick_10">
     <g id="line2d_10">
      <g>
       <use xlink:href="#ma2bf786339" x="105.564055" y="312.397538" style="stroke: #000000; stroke-width: 0.6"/>
      </g>
     </g>
    </g>
    <g id="xtick_11">
     <g id="line2d_11">
      <g>
       <use xlink:href="#ma2bf786339" x="119.538301" y="312.397538" style="stroke: #000000; stroke-width: 0.6"/>
      </g>
     </g>
    </g>
    <g id="xtick_12">
     <g id="line2d_12">
      <g>
       <use xlink:href="#ma2bf786339" x="133.512547" y="312.397538" style="stroke: #000000; stroke-width: 0.6"/>
      </g>
     </g>
    </g>
    <g id="xtick_13">
     <g id="line2d_13">
      <g>
       <use xlink:href="#ma2bf786339" x="161.46104" y="312.397538" style="stroke: #000000; stroke-width: 0.6"/>
      </g>
     </g>
    </g>
    <g id="xtick_14">
     <g id="line2d_14">
      <g>
       <use xlink:href="#ma2bf786339" x="175.435286" y="312.397538" style="stroke: #000000; stroke-width: 0.6"/>
      </g>
     </g>
    </g>
    <g id="xtick_15">
     <g id="line2d_15">
      <g>
       <use xlink:href="#ma2bf786339" x="189.409532" y="312.397538" style="stroke: #000000; stroke-width: 0.6"/>
      </g>
     </g>
    </g>
    <g id="xtick_16">
     <g id="line2d_16">
      <g>
       <use xlink:href="#ma2bf786339" x="217.358025" y="312.397538" style="stroke: #000000; stroke-width: 0.6"/>
      </g>
     </g>
    </g>
    <g id="xtick_17">
     <g id="line2d_17">
      <g>
       <use xlink:href="#ma2bf786339" x="231.332271" y="312.397538" style="stroke: #000000; stroke-width: 0.6"/>
      </g>
     </g>
    </g>
    <g id="xtick_18">
     <g id="line2d_18">
      <g>
       <use xlink:href="#ma2bf786339" x="245.306518" y="312.397538" style="stroke: #000000; stroke-width: 0.6"/>
      </g>
     </g>
    </g>
    <g id="xtick_19">
     <g id="line2d_19">
      <g>
       <use xlink:href="#ma2bf786339" x="273.25501" y="312.397538" style="stroke: #000000; stroke-width: 0.6"/>
      </g>
     </g>
    </g>
    <g id="xtick_20">
     <g id="line2d_20">
      <g>
       <use xlink:href="#ma2bf786339" x="287.229256" y="312.397538" style="stroke: #000000; stroke-width: 0.6"/>
      </g>
     </g>
    </g>
    <g id="xtick_21">
     <g id="line2d_21">
      <g>
       <use xlink:href="#ma2bf786339" x="301.203503" y="312.397538" style="stroke: #000000; stroke-width: 0.6"/>
      </g>
     </g>
    </g>
   </g>
   <g id="matplotlib.axis_2">
    <g id="ytick_1">
     <g id="line2d_22">
      <defs>
       <path id="mba57043ea5" d="M 0 0 
L -3.5 0 
" style="stroke: #000000; stroke-width: 0.8"/>
      </defs>
      <g>
       <use xlink:href="#mba57043ea5" x="30.103125" y="306.528355" style="stroke: #000000; stroke-width: 0.8"/>
      </g>
     </g>
     <g id="text_7">
      <!-- 0.0 -->
      <g transform="translate(7.2 310.327574)scale(0.1 -0.1)">
       <use xlink:href="#DejaVuSans-30"/>
       <use xlink:href="#DejaVuSans-2e" x="63.623047"/>
       <use xlink:href="#DejaVuSans-30" x="95.410156"/>
      </g>
     </g>
    </g>
    <g id="ytick_2">
     <g id="line2d_23">
      <g>
       <use xlink:href="#mba57043ea5" x="30.103125" y="250.63137" style="stroke: #000000; stroke-width: 0.8"/>
      </g>
     </g>
     <g id="text_8">
      <!-- 0.2 -->
      <g transform="translate(7.2 254.430589)scale(0.1 -0.1)">
       <use xlink:href="#DejaVuSans-30"/>
       <use xlink:href="#DejaVuSans-2e" x="63.623047"/>
       <use xlink:href="#DejaVuSans-32" x="95.410156"/>
      </g>
     </g>
    </g>
    <g id="ytick_3">
     <g id="line2d_24">
      <g>
       <use xlink:href="#mba57043ea5" x="30.103125" y="194.734385" style="stroke: #000000; stroke-width: 0.8"/>
      </g>
     </g>
     <g id="text_9">
      <!-- 0.4 -->
      <g transform="translate(7.2 198.533604)scale(0.1 -0.1)">
       <use xlink:href="#DejaVuSans-30"/>
       <use xlink:href="#DejaVuSans-2e" x="63.623047"/>
       <use xlink:href="#DejaVuSans-34" x="95.410156"/>
      </g>
     </g>
    </g>
    <g id="ytick_4">
     <g id="line2d_25">
      <g>
       <use xlink:href="#mba57043ea5" x="30.103125" y="138.8374" style="stroke: #000000; stroke-width: 0.8"/>
      </g>
     </g>
     <g id="text_10">
      <!-- 0.6 -->
      <g transform="translate(7.2 142.636619)scale(0.1 -0.1)">
       <use xlink:href="#DejaVuSans-30"/>
       <use xlink:href="#DejaVuSans-2e" x="63.623047"/>
       <use xlink:href="#DejaVuSans-36" x="95.410156"/>
      </g>
     </g>
    </g>
    <g id="ytick_5">
     <g id="line2d_26">
      <g>
       <use xlink:href="#mba57043ea5" x="30.103125" y="82.940415" style="stroke: #000000; stroke-width: 0.8"/>
      </g>
     </g>
     <g id="text_11">
      <!-- 0.8 -->
      <g transform="translate(7.2 86.739634)scale(0.1 -0.1)">
       <use xlink:href="#DejaVuSans-30"/>
       <use xlink:href="#DejaVuSans-2e" x="63.623047"/>
       <use xlink:href="#DejaVuSans-38" x="95.410156"/>
      </g>
     </g>
    </g>
    <g id="ytick_6">
     <g id="line2d_27">
      <g>
       <use xlink:href="#mba57043ea5" x="30.103125" y="27.04343" style="stroke: #000000; stroke-width: 0.8"/>
      </g>
     </g>
     <g id="text_12">
      <!-- 1.0 -->
      <g transform="translate(7.2 30.842648)scale(0.1 -0.1)">
       <use xlink:href="#DejaVuSans-31"/>
       <use xlink:href="#DejaVuSans-2e" x="63.623047"/>
       <use xlink:href="#DejaVuSans-30" x="95.410156"/>
      </g>
     </g>
    </g>
    <g id="ytick_7">
     <g id="line2d_28">
      <defs>
       <path id="m693d1a8c62" d="M 0 0 
L -2 0 
" style="stroke: #000000; stroke-width: 0.6"/>
      </defs>
      <g>
       <use xlink:href="#m693d1a8c62" x="30.103125" y="292.554109" style="stroke: #000000; stroke-width: 0.6"/>
      </g>
     </g>
    </g>
    <g id="ytick_8">
     <g id="line2d_29">
      <g>
       <use xlink:href="#m693d1a8c62" x="30.103125" y="278.579862" style="stroke: #000000; stroke-width: 0.6"/>
      </g>
     </g>
    </g>
    <g id="ytick_9">
     <g id="line2d_30">
      <g>
       <use xlink:href="#m693d1a8c62" x="30.103125" y="264.605616" style="stroke: #000000; stroke-width: 0.6"/>
      </g>
     </g>
    </g>
    <g id="ytick_10">
     <g id="line2d_31">
      <g>
       <use xlink:href="#m693d1a8c62" x="30.103125" y="236.657124" style="stroke: #000000; stroke-width: 0.6"/>
      </g>
     </g>
    </g>
    <g id="ytick_11">
     <g id="line2d_32">
      <g>
       <use xlink:href="#m693d1a8c62" x="30.103125" y="222.682877" style="stroke: #000000; stroke-width: 0.6"/>
      </g>
     </g>
    </g>
    <g id="ytick_12">
     <g id="line2d_33">
      <g>
       <use xlink:href="#m693d1a8c62" x="30.103125" y="208.708631" style="stroke: #000000; stroke-width: 0.6"/>
      </g>
     </g>
    </g>
    <g id="ytick_13">
     <g id="line2d_34">
      <g>
       <use xlink:href="#m693d1a8c62" x="30.103125" y="180.760139" style="stroke: #000000; stroke-width: 0.6"/>
      </g>
     </g>
    </g>
    <g id="ytick_14">
     <g id="line2d_35">
      <g>
       <use xlink:href="#m693d1a8c62" x="30.103125" y="166.785892" style="stroke: #000000; stroke-width: 0.6"/>
      </g>
     </g>
    </g>
    <g id="ytick_15">
     <g id="line2d_36">
      <g>
       <use xlink:href="#m693d1a8c62" x="30.103125" y="152.811646" style="stroke: #000000; stroke-width: 0.6"/>
      </g>
     </g>
    </g>
    <g id="ytick_16">
     <g id="line2d_37">
      <g>
       <use xlink:href="#m693d1a8c62" x="30.103125" y="124.863154" style="stroke: #000000; stroke-width: 0.6"/>
      </g>
     </g>
    </g>
    <g id="ytick_17">
     <g id="line2d_38">
      <g>
       <use xlink:href="#m693d1a8c62" x="30.103125" y="110.888907" style="stroke: #000000; stroke-width: 0.6"/>
      </g>
     </g>
    </g>
    <g id="ytick_18">
     <g id="line2d_39">
      <g>
       <use xlink:href="#m693d1a8c62" x="30.103125" y="96.914661" style="stroke: #000000; stroke-width: 0.6"/>
      </g>
     </g>
    </g>
    <g id="ytick_19">
     <g id="line2d_40">
      <g>
       <use xlink:href="#m693d1a8c62" x="30.103125" y="68.966168" style="stroke: #000000; stroke-width: 0.6"/>
      </g>
     </g>
    </g>
    <g id="ytick_20">
     <g id="line2d_41">
      <g>
       <use xlink:href="#m693d1a8c62" x="30.103125" y="54.991922" style="stroke: #000000; stroke-width: 0.6"/>
      </g>
     </g>
    </g>
    <g id="ytick_21">
     <g id="line2d_42">
      <g>
       <use xlink:href="#m693d1a8c62" x="30.103125" y="41.017676" style="stroke: #000000; stroke-width: 0.6"/>
      </g>
     </g>
    </g>
    <g id="ytick_22">
     <g id="line2d_43">
      <g>
       <use xlink:href="#m693d1a8c62" x="30.103125" y="13.069183" style="stroke: #000000; stroke-width: 0.6"/>
      </g>
     </g>
    </g>
   </g>
   <g id="line2d_44">
    <path d="M 35.692824 27.04343 
L 315.177749 27.04343 
L 315.177749 27.04343 
" clip-path="url(#pcf8282b8a8)" style="fill: none; stroke: #0000ff; stroke-linecap: square"/>
   </g>
   <g id="line2d_45">
    <path d="M 35.692824 306.528355 
L 315.177749 27.04343 
L 315.177749 27.04343 
" clip-path="url(#pcf8282b8a8)" style="fill: none; stroke: #ff0000; stroke-linecap: square"/>
   </g>
   <g id="PathCollection_1">
    <path d="M 36.161758 27.04343 
L 36.161758 306.528355 
L 36.161758 306.528355 
" clip-path="url(#pcf8282b8a8)" style="fill: none; stroke: #ffa500; stroke-width: 1.5"/>
   </g>
   <g id="patch_4">
    <path d="M 30.103125 312.397538 
L 30.103125 7.2 
" style="fill: none; stroke: #000000; stroke-width: 0.8; stroke-linejoin: miter; stroke-linecap: square"/>
   </g>
   <g id="patch_5">
    <path d="M 320.767447 312.397538 
L 320.767447 7.2 
" style="fill: none; stroke: #000000; stroke-width: 0.8; stroke-linejoin: miter; stroke-linecap: square"/>
   </g>
   <g id="patch_6">
    <path d="M 30.103125 312.397538 
L 320.767447 312.397538 
" style="fill: none; stroke: #000000; stroke-width: 0.8; stroke-linejoin: miter; stroke-linecap: square"/>
   </g>
   <g id="patch_7">
    <path d="M 30.103125 7.2 
L 320.767447 7.2 
" style="fill: none; stroke: #000000; stroke-width: 0.8; stroke-linejoin: miter; stroke-linecap: square"/>
   </g>
   <g id="text_13">
    <!-- $y=1$ -->
    <g transform="translate(162.715286 16.356058)scale(0.12 -0.12)">
     <defs>
      <path id="Cmmi10-79" d="M 538 -916 
Q 672 -1147 1006 -1147 
Q 1309 -1147 1531 -934 
Q 1753 -722 1889 -420 
Q 2025 -119 2100 197 
Q 1816 -72 1484 -72 
Q 1231 -72 1053 15 
Q 875 103 776 276 
Q 678 450 678 697 
Q 678 906 734 1126 
Q 791 1347 892 1617 
Q 994 1888 1069 2088 
Q 1153 2322 1153 2472 
Q 1153 2663 1013 2663 
Q 759 2663 595 2402 
Q 431 2141 353 1819 
Q 341 1778 300 1778 
L 225 1778 
Q 172 1778 172 1838 
L 172 1856 
Q 275 2238 487 2533 
Q 700 2828 1025 2828 
Q 1253 2828 1411 2678 
Q 1569 2528 1569 2297 
Q 1569 2178 1516 2047 
Q 1488 1969 1388 1706 
Q 1288 1444 1234 1272 
Q 1181 1100 1147 934 
Q 1113 769 1113 603 
Q 1113 391 1203 244 
Q 1294 97 1491 97 
Q 1888 97 2203 581 
L 2688 2553 
Q 2709 2638 2787 2698 
Q 2866 2759 2956 2759 
Q 3034 2759 3092 2709 
Q 3150 2659 3150 2578 
Q 3150 2541 3144 2528 
L 2509 -19 
Q 2425 -347 2200 -647 
Q 1975 -947 1658 -1130 
Q 1341 -1313 997 -1313 
Q 831 -1313 668 -1248 
Q 506 -1184 406 -1056 
Q 306 -928 306 -756 
Q 306 -581 409 -453 
Q 513 -325 684 -325 
Q 788 -325 858 -389 
Q 928 -453 928 -556 
Q 928 -703 818 -812 
Q 709 -922 563 -922 
Q 556 -919 550 -917 
Q 544 -916 538 -916 
z
" transform="scale(0.015625)"/>
      <path id="Cmr10-3d" d="M 481 850 
Q 428 850 393 890 
Q 359 931 359 978 
Q 359 1031 393 1068 
Q 428 1106 481 1106 
L 4500 1106 
Q 4547 1106 4581 1068 
Q 4616 1031 4616 978 
Q 4616 931 4581 890 
Q 4547 850 4500 850 
L 481 850 
z
M 481 2094 
Q 428 2094 393 2131 
Q 359 2169 359 2222 
Q 359 2269 393 2309 
Q 428 2350 481 2350 
L 4500 2350 
Q 4547 2350 4581 2309 
Q 4616 2269 4616 2222 
Q 4616 2169 4581 2131 
Q 4547 2094 4500 2094 
L 481 2094 
z
" transform="scale(0.015625)"/>
      <path id="Cmr10-31" d="M 594 0 
L 594 225 
Q 1394 225 1394 428 
L 1394 3788 
Q 1063 3628 556 3628 
L 556 3853 
Q 1341 3853 1741 4263 
L 1831 4263 
Q 1853 4263 1873 4245 
Q 1894 4228 1894 4206 
L 1894 428 
Q 1894 225 2694 225 
L 2694 0 
L 594 0 
z
" transform="scale(0.015625)"/>
     </defs>
     <use xlink:href="#Cmmi10-79" transform="translate(0 0.390625)"/>
     <use xlink:href="#Cmr10-3d" transform="translate(66.582031 0.390625)"/>
     <use xlink:href="#Cmr10-31" transform="translate(161.826172 0.390625)"/>
    </g>
   </g>
   <g id="text_14">
    <!-- $y=x$ -->
    <g transform="translate(162.295286 142.124275)scale(0.12 -0.12)">
     <defs>
      <path id="Cmmi10-78" d="M 500 184 
Q 613 97 819 97 
Q 1019 97 1172 289 
Q 1325 481 1381 709 
L 1672 1844 
Q 1741 2153 1741 2266 
Q 1741 2425 1652 2544 
Q 1563 2663 1403 2663 
Q 1200 2663 1022 2536 
Q 844 2409 722 2214 
Q 600 2019 550 1819 
Q 538 1778 500 1778 
L 422 1778 
Q 372 1778 372 1838 
L 372 1856 
Q 434 2094 584 2320 
Q 734 2547 951 2687 
Q 1169 2828 1416 2828 
Q 1650 2828 1839 2703 
Q 2028 2578 2106 2363 
Q 2216 2559 2386 2693 
Q 2556 2828 2759 2828 
Q 2897 2828 3040 2779 
Q 3184 2731 3275 2631 
Q 3366 2531 3366 2381 
Q 3366 2219 3261 2101 
Q 3156 1984 2994 1984 
Q 2891 1984 2822 2050 
Q 2753 2116 2753 2216 
Q 2753 2350 2845 2451 
Q 2938 2553 3066 2572 
Q 2950 2663 2747 2663 
Q 2541 2663 2389 2472 
Q 2238 2281 2175 2047 
L 1894 916 
Q 1825 659 1825 494 
Q 1825 331 1917 214 
Q 2009 97 2163 97 
Q 2463 97 2698 361 
Q 2934 625 3009 941 
Q 3022 978 3059 978 
L 3138 978 
Q 3163 978 3178 961 
Q 3194 944 3194 922 
Q 3194 916 3188 903 
Q 3097 522 2806 225 
Q 2516 -72 2150 -72 
Q 1916 -72 1727 54 
Q 1538 181 1459 397 
Q 1359 209 1182 68 
Q 1006 -72 806 -72 
Q 669 -72 523 -23 
Q 378 25 287 125 
Q 197 225 197 378 
Q 197 528 301 651 
Q 406 775 563 775 
Q 669 775 741 711 
Q 813 647 813 544 
Q 813 409 723 309 
Q 634 209 500 184 
z
" transform="scale(0.015625)"/>
     </defs>
     <use xlink:href="#Cmmi10-79" transform="translate(0 0.8125)"/>
     <use xlink:href="#Cmr10-3d" transform="translate(66.582031 0.8125)"/>
     <use xlink:href="#Cmmi10-78" transform="translate(161.826172 0.8125)"/>
    </g>
   </g>
   <g id="text_15">
    <!-- $\mathcal{R}$ -->
    <g transform="translate(86.489809 86.251665)scale(0.12 -0.12)">
     <defs>
      <path id="Cmsy10-52" d="M 738 -91 
Q 738 -78 744 -56 
Q 966 475 1128 959 
Q 1291 1444 1428 1991 
Q 1678 2959 1766 3994 
Q 1425 3994 1094 3872 
Q 922 3803 833 3695 
Q 744 3588 684 3397 
Q 622 3291 472 3197 
Q 322 3103 206 3103 
L 166 3103 
Q 122 3131 122 3169 
Q 234 3556 581 3828 
Q 928 4100 1387 4236 
Q 1847 4372 2259 4372 
L 2931 4372 
Q 3378 4372 3739 4331 
Q 4100 4291 4392 4112 
Q 4684 3934 4684 3572 
Q 4684 3281 4548 3014 
Q 4413 2747 4189 2533 
Q 3966 2319 3697 2158 
Q 3428 1997 3156 1900 
Q 3253 1784 3383 1501 
Q 3513 1219 3659 911 
Q 3806 603 3951 420 
Q 4097 238 4256 238 
Q 4444 238 4551 308 
Q 4659 378 4775 520 
Q 4891 663 4997 745 
Q 5103 828 5281 844 
L 5319 844 
Q 5363 822 5363 794 
Q 5363 784 5356 768 
Q 5350 753 5344 738 
Q 5188 503 4936 297 
Q 4684 91 4393 -25 
Q 4103 -141 3828 -141 
L 3788 -141 
Q 3541 -141 3372 98 
Q 3203 338 3003 811 
Q 2803 1284 2651 1515 
Q 2500 1747 2278 1747 
Q 2266 1753 2250 1765 
Q 2234 1778 2234 1797 
Q 2234 1900 2420 2006 
Q 2606 2113 2719 2125 
Q 3072 2125 3395 2262 
Q 3719 2400 3917 2667 
Q 4116 2934 4116 3291 
Q 4116 3613 3833 3767 
Q 3550 3922 3203 3958 
Q 2856 3994 2450 3994 
L 2309 3994 
Q 2209 3041 1954 2070 
Q 1700 1100 1300 153 
Q 1238 41 1092 -43 
Q 947 -128 813 -141 
L 781 -141 
Q 769 -134 753 -121 
Q 738 -109 738 -91 
z
" transform="scale(0.015625)"/>
     </defs>
     <use xlink:href="#Cmsy10-52" transform="translate(0 0.6875)"/>
    </g>
   </g>
   <g id="text_16">
    <!-- $x=0$ -->
    <g transform="translate(50.441316 142.14865)scale(0.12 -0.12)">
     <defs>
      <path id="Cmr10-30" d="M 1600 -141 
Q 816 -141 533 504 
Q 250 1150 250 2041 
Q 250 2597 351 3087 
Q 453 3578 754 3920 
Q 1056 4263 1600 4263 
Q 2022 4263 2290 4056 
Q 2559 3850 2700 3523 
Q 2841 3197 2892 2823 
Q 2944 2450 2944 2041 
Q 2944 1491 2842 1011 
Q 2741 531 2444 195 
Q 2147 -141 1600 -141 
z
M 1600 25 
Q 1956 25 2131 390 
Q 2306 756 2347 1200 
Q 2388 1644 2388 2144 
Q 2388 2625 2347 3031 
Q 2306 3438 2132 3767 
Q 1959 4097 1600 4097 
Q 1238 4097 1063 3765 
Q 888 3434 847 3029 
Q 806 2625 806 2144 
Q 806 1788 823 1472 
Q 841 1156 916 820 
Q 991 484 1158 254 
Q 1325 25 1600 25 
z
" transform="scale(0.015625)"/>
     </defs>
     <use xlink:href="#Cmmi10-78" transform="translate(0 0.390625)"/>
     <use xlink:href="#Cmr10-3d" transform="translate(74.638672 0.390625)"/>
     <use xlink:href="#Cmr10-30" transform="translate(169.882812 0.390625)"/>
    </g>
   </g>
  </g>
 </g>
 <defs>
  <clipPath id="pcf8282b8a8">
   <rect x="30.103125" y="7.2" width="290.664322" height="305.197538"/>
  </clipPath>
 </defs>
</svg>
