<?xml version="1.0" encoding="utf-8" standalone="no"?>
<!DOCTYPE svg PUBLIC "-//W3C//DTD SVG 1.1//EN"
  "http://www.w3.org/Graphics/SVG/1.1/DTD/svg11.dtd">
<svg xmlns:xlink="http://www.w3.org/1999/xlink" width="327.798914pt" height="333.423259pt" viewBox="0 0 327.798914 333.423259" xmlns="http://www.w3.org/2000/svg" version="1.1">
 <metadata>
  <rdf:RDF xmlns:dc="http://purl.org/dc/elements/1.1/" xmlns:cc="http://creativecommons.org/ns#" xmlns:rdf="http://www.w3.org/1999/02/22-rdf-syntax-ns#">
   <cc:Work>
    <dc:type rdf:resource="http://purl.org/dc/dcmitype/StillImage"/>
    <dc:date>2022-10-27T19:59:38.412670</dc:date>
    <dc:format>image/svg+xml</dc:format>
    <dc:creator>
     <cc:Agent>
      <dc:title>Matplotlib v3.5.1, https://matplotlib.org/</dc:title>
     </cc:Agent>
    </dc:creator>
   </cc:Work>
  </rdf:RDF>
 </metadata>
 <defs>
  <style type="text/css">*{stroke-linejoin: round; stroke-linecap: butt}</style>
 </defs>
 <g id="figure_1">
  <g id="patch_1">
   <path d="M -0 333.423259 
L 327.798914 333.423259 
L 327.798914 0 
L -0 0 
z
" style="fill: #ffffff"/>
  </g>
  <g id="axes_1">
   <g id="patch_2">
    <path d="M 13.772256 325.989324 
L 303.368065 325.989324 
L 303.368065 7.433935 
L 13.772256 7.433935 
z
" style="fill: #ffffff"/>
   </g>
   <g id="patch_3">
    <path d="M 297.798914 305.940384 
L 296.823119 303.995631 
L 294.882274 300.168202 
L 293.110007 296.720481 
L 292.440797 295.430351 
L 290.611682 291.936936 
L 288.784561 288.49531 
L 287.397173 285.914011 
L 286.336865 283.959902 
L 284.703367 280.981028 
L 283.645877 279.07301 
L 281.830442 275.834901 
L 281.141606 274.618644 
L 279.811016 272.288563 
L 277.772147 268.767514 
L 276.781956 267.079034 
L 274.831039 263.793529 
L 274.422514 263.112462 
L 272.274718 259.571229 
L 271.577124 258.43531 
L 270.199427 256.212489 
L 268.593195 253.655366 
L 266.814252 250.86654 
L 265.989532 249.589061 
L 264.269645 246.956411 
L 262.957285 244.97615 
L 261.073537 242.176948 
L 260.436782 241.242272 
L 258.718926 238.749732 
L 257.153344 236.515056 
L 255.988907 234.875798 
L 254.650835 233.016152 
L 253.292331 231.154422 
L 251.793744 229.13147 
L 249.61024 226.241689 
L 248.77427 225.153446 
L 247.421624 223.413872 
L 246.65811 222.443558 
L 244.549502 219.807322 
L 243.831802 218.924605 
L 241.774972 216.435846 
L 240.124108 214.482267 
L 238.833667 212.982463 
L 238.191407 212.244917 
L 236.837431 210.709478 
L 235.398886 209.106989 
L 232.909018 206.403615 
L 232.25935 205.712888 
L 230.880502 204.266986 
L 229.75694 203.108979 
L 228.148624 201.482914 
L 226.103161 199.468557 
L 224.647116 198.071272 
L 224.091692 197.546288 
L 222.807764 196.349686 
L 220.487722 194.247497 
L 219.505691 193.380969 
L 217.922225 192.012923 
L 217.032551 191.260087 
L 215.253224 189.788541 
L 213.698736 188.540165 
L 212.921054 187.928652 
L 211.590197 186.902317 
L 209.812273 185.57091 
L 207.979436 184.245914 
L 206.451966 183.178539 
L 205.740903 182.693091 
L 204.553893 181.898892 
L 203.137875 180.977944 
L 200.594037 179.395835 
L 200.305399 179.222193 
L 198.995267 178.44907 
L 197.055157 177.349482 
L 196.299047 176.935587 
L 194.203491 175.8314 
L 192.964124 175.208041 
L 190.798226 174.171642 
L 189.535506 173.598516 
L 188.083395 172.967744 
L 187.946262 172.909741 
L 186.430605 172.286659 
L 183.765852 171.271197 
L 183.066618 171.021633 
L 181.621398 170.528079 
L 180.05099 170.025787 
L 178.334787 169.517375 
L 177.363787 169.248465 
L 175.63246 168.802592 
L 175.353955 168.734888 
L 173.766185 168.370189 
L 171.579772 167.927255 
L 170.10422 167.66714 
L 169.561841 167.579389 
L 167.235578 167.250954 
L 166.397692 167.151698 
L 165.175584 167.02501 
L 163.218654 166.866831 
L 161.98801 166.795532 
L 160.862496 166.749372 
L 159.20391 166.714514 
L 157.177143 166.725567 
L 156.285038 166.749135 
L 155.664301 166.772278 
L 154.116509 166.854093 
L 152.599865 166.967643 
L 150.248106 167.20906 
L 149.865817 167.25581 
L 147.610929 167.574273 
L 146.179921 167.814261 
L 145.726341 167.896469 
L 143.208408 168.406563 
L 142.992089 168.454634 
L 141.272621 168.860646 
L 139.466043 169.33298 
L 137.859753 169.792322 
L 136.211512 170.302189 
L 135.135026 170.656257 
L 134.462898 170.885768 
L 132.101123 171.743707 
L 130.964859 172.185015 
L 129.462505 172.796979 
L 128.766345 173.091543 
L 127.628099 173.588163 
L 125.881141 174.386567 
L 124.498427 175.049584 
L 123.226391 175.683785 
L 121.82004 176.412006 
L 119.62156 177.60732 
L 118.75564 178.09718 
L 117.438213 178.863122 
L 115.257248 180.185918 
L 114.080178 180.928223 
L 113.780089 181.120654 
L 112.233117 182.133168 
L 110.930468 183.012431 
L 108.713675 184.56476 
L 108.112728 184.997741 
L 106.246669 186.375296 
L 104.825008 187.45836 
L 103.568104 188.440088 
L 102.570148 189.235723 
L 100.629138 190.824192 
L 99.722352 191.584829 
L 98.290871 192.809635 
L 96.104843 194.736845 
L 94.308476 196.371911 
L 93.985217 196.671065 
L 92.186866 198.362719 
L 90.170821 200.314384 
L 88.705599 201.769452 
L 87.885918 202.596905 
L 86.027437 204.508755 
L 84.565767 206.047255 
L 83.199018 207.513612 
L 82.671091 208.087197 
L 81.490403 209.384488 
L 80.122622 210.912386 
L 77.907359 213.443985 
L 76.734839 214.812468 
L 75.082193 216.774857 
L 74.600443 217.354282 
L 72.054811 220.471399 
L 71.365894 221.330979 
L 69.849155 223.247485 
L 68.125247 225.465889 
L 67.064733 226.851816 
L 65.576993 228.82329 
L 64.604415 230.129286 
L 62.730501 232.683923 
L 61.640923 234.192497 
L 60.021477 236.466207 
L 58.914181 238.042543 
L 56.467071 241.588697 
L 56.156524 242.044867 
L 53.753926 245.620926 
L 53.09716 246.612897 
L 50.901434 249.974276 
L 50.711568 250.268191 
L 48.195546 254.211914 
L 47.065426 256.012909 
L 46.612872 256.739258 
L 44.387886 260.353147 
L 42.713327 263.119917 
L 41.627378 264.935696 
L 39.990366 267.704904 
L 38.327142 270.557875 
L 37.218339 272.481911 
L 36.599623 273.563206 
L 34.081755 278.020269 
L 33.733738 278.643482 
L 31.580503 282.538084 
L 30.855142 283.865059 
L 29.670942 286.047671 
L 27.795828 289.544919 
L 26.30688 292.357912 
L 25.021322 294.812267 
L 23.073023 298.577164 
L 21.972548 300.727823 
L 20.407806 303.815751 
L 19.341406 305.940384 
L 19.341406 27.482875 
L 20.240318 29.274896 
L 21.694541 32.149375 
L 24.151025 36.935966 
L 24.750234 38.090406 
L 26.889005 42.168917 
L 28.181389 44.601568 
L 28.680307 45.534261 
L 30.913584 49.665394 
L 32.365865 52.313392 
L 32.923836 53.322704 
L 34.062442 55.368451 
L 36.244552 59.23703 
L 38.112067 62.493559 
L 38.576595 63.29581 
L 39.644852 65.128956 
L 41.809264 68.79287 
L 43.434707 71.500173 
L 45.04547 74.145583 
L 45.769426 75.322421 
L 47.527105 78.148314 
L 48.550088 79.772575 
L 50.677378 83.102087 
L 51.747562 84.7525 
L 53.051041 86.740473 
L 53.954623 88.104228 
L 55.044363 89.733345 
L 57.321731 93.082841 
L 58.849039 95.287431 
L 59.87087 96.743684 
L 60.648864 97.842376 
L 62.784416 100.813541 
L 64.670461 103.38309 
L 65.133672 104.006355 
L 66.853864 106.293944 
L 68.261114 108.13376 
L 70.159693 110.57085 
L 70.884839 111.488011 
L 72.323364 113.285095 
L 73.847647 115.156875 
L 75.479898 117.124231 
L 77.189701 119.144019 
L 77.97396 120.056414 
L 78.83891 121.052439 
L 80.474935 122.906998 
L 81.851617 124.437783 
L 84.366023 127.163376 
L 85.691447 128.563569 
L 86.734967 129.6482 
L 88.174253 131.118523 
L 89.194513 132.142761 
L 90.552724 133.483065 
L 91.746679 134.639392 
L 93.29927 136.112425 
L 94.224945 136.974189 
L 96.445308 138.991082 
L 97.282636 139.73329 
L 98.740906 141.001856 
L 100.405945 142.412942 
L 102.262922 143.939717 
L 103.204101 144.694622 
L 105.111166 146.185237 
L 106.545662 147.27205 
L 107.614666 148.062734 
L 108.523705 148.722187 
L 109.98971 149.760676 
L 112.224447 151.284319 
L 113.0418 151.823673 
L 114.244529 152.599878 
L 116.46203 153.976511 
L 117.536552 154.618172 
L 119.107538 155.52645 
L 120.296822 156.190466 
L 120.938753 156.540434 
L 122.787433 157.515227 
L 123.664728 157.960641 
L 126.293363 159.22904 
L 126.616985 159.378335 
L 128.015525 160.00622 
L 130.278428 160.962658 
L 131.886258 161.597523 
L 132.329894 161.76616 
L 133.479517 162.190003 
L 135.002538 162.722275 
L 136.514824 163.217826 
L 138.3285 163.768812 
L 139.097845 163.988262 
L 141.032849 164.502622 
L 142.141076 164.772987 
L 143.347403 165.04723 
L 145.308184 165.448385 
L 146.776729 165.712662 
L 148.656352 166.005715 
L 149.181274 166.07849 
L 151.547024 166.35736 
L 152.783246 166.471102 
L 153.658757 166.538376 
L 154.478413 166.591379 
L 156.953955 166.692868 
L 157.544728 166.704077 
L 159.495872 166.705475 
L 160.281396 166.690597 
L 162.167766 166.618669 
L 163.005047 166.570364 
L 164.791724 166.433613 
L 166.859337 166.218122 
L 167.386781 166.15332 
L 169.173182 165.904152 
L 170.665365 165.660884 
L 171.623795 165.487763 
L 172.89993 165.236774 
L 175.072953 164.755553 
L 176.700348 164.35074 
L 177.7559 164.067832 
L 178.418047 163.882195 
L 179.966238 163.423572 
L 181.992782 162.771214 
L 182.795689 162.496435 
L 184.293164 161.959214 
L 185.567151 161.476809 
L 187.251474 160.80324 
L 188.398753 160.321104 
L 190.310597 159.475658 
L 191.573138 158.888558 
L 192.499504 158.44322 
L 194.713047 157.329169 
L 195.262216 157.041882 
L 196.516672 156.369385 
L 198.184361 155.440359 
L 199.475294 154.693782 
L 201.155061 153.686491 
L 203.149566 152.437829 
L 203.782145 152.029867 
L 205.555098 150.855822 
L 206.54514 150.180571 
L 208.695567 148.665383 
L 209.014987 148.434654 
L 210.489021 147.350916 
L 211.831447 146.336782 
L 213.758309 144.835892 
L 215.735707 143.240187 
L 216.248523 142.817186 
L 217.607748 141.677743 
L 220.122485 139.499659 
L 220.757987 138.934855 
L 222.166666 137.662203 
L 224.18736 135.786862 
L 224.344496 135.638571 
L 226.316764 133.747158 
L 228.079412 132.009488 
L 229.417914 130.660139 
L 230.01897 130.045839 
L 231.858796 128.133219 
L 233.198495 126.709919 
L 234.221392 125.605833 
L 235.813015 123.857992 
L 237.573449 121.882387 
L 238.91607 120.345739 
L 240.401113 118.615927 
L 242.192667 116.486921 
L 243.29133 115.15851 
L 244.278863 113.949671 
L 246.042857 111.755506 
L 246.798447 110.801982 
L 248.791567 108.247398 
L 249.548622 107.262124 
L 251.379733 104.844978 
L 252.780195 102.963801 
L 254.487472 100.632386 
L 256.102419 98.38852 
L 256.947862 97.19889 
L 258.144156 95.49803 
L 260.66185 91.851281 
L 261.168858 91.105891 
L 263.05852 88.295233 
L 263.979727 86.906443 
L 266.290081 83.369783 
L 267.404362 81.63665 
L 267.851827 80.935651 
L 270.508461 76.714537 
L 271.06005 75.825408 
L 272.518555 73.453332 
L 274.524171 70.141545 
L 275.79669 68.010329 
L 276.873125 66.189352 
L 278.666629 63.11836 
L 279.70893 61.312413 
L 281.230586 58.647889 
L 282.737904 55.975678 
L 283.631787 54.375563 
L 284.626056 52.582267 
L 287.164935 47.938635 
L 287.792528 46.776488 
L 289.165277 44.214774 
L 290.796002 41.136468 
L 291.991065 38.856304 
L 293.354149 36.230511 
L 294.69524 33.621038 
L 296.069033 30.921145 
L 297.798914 27.482875 
z
" clip-path="url(#pff4f2abcf5)" style="fill: #008000; opacity: 0.5"/>
   </g>
   <g id="matplotlib.axis_1">
    <g id="xtick_1">
     <g id="line2d_1">
      <defs>
       <path id="md39e2dc21e" d="M 0 0 
L 0 3.5 
" style="stroke: #000000; stroke-width: 0.8"/>
      </defs>
      <g>
       <use xlink:href="#md39e2dc21e" x="19.341406" y="166.71163" style="stroke: #000000; stroke-width: 0.8"/>
      </g>
     </g>
     <g id="text_1">
      <!-- −1.0 -->
      <g transform="translate(7.2 181.310067)scale(0.1 -0.1)">
       <defs>
        <path id="DejaVuSans-2212" d="M 678 2272 
L 4684 2272 
L 4684 1741 
L 678 1741 
L 678 2272 
z
" transform="scale(0.015625)"/>
        <path id="DejaVuSans-31" d="M 794 531 
L 1825 531 
L 1825 4091 
L 703 3866 
L 703 4441 
L 1819 4666 
L 2450 4666 
L 2450 531 
L 3481 531 
L 3481 0 
L 794 0 
L 794 531 
z
" transform="scale(0.015625)"/>
        <path id="DejaVuSans-2e" d="M 684 794 
L 1344 794 
L 1344 0 
L 684 0 
L 684 794 
z
" transform="scale(0.015625)"/>
        <path id="DejaVuSans-30" d="M 2034 4250 
Q 1547 4250 1301 3770 
Q 1056 3291 1056 2328 
Q 1056 1369 1301 889 
Q 1547 409 2034 409 
Q 2525 409 2770 889 
Q 3016 1369 3016 2328 
Q 3016 3291 2770 3770 
Q 2525 4250 2034 4250 
z
M 2034 4750 
Q 2819 4750 3233 4129 
Q 3647 3509 3647 2328 
Q 3647 1150 3233 529 
Q 2819 -91 2034 -91 
Q 1250 -91 836 529 
Q 422 1150 422 2328 
Q 422 3509 836 4129 
Q 1250 4750 2034 4750 
z
" transform="scale(0.015625)"/>
       </defs>
       <use xlink:href="#DejaVuSans-2212"/>
       <use xlink:href="#DejaVuSans-31" x="83.789062"/>
       <use xlink:href="#DejaVuSans-2e" x="147.412109"/>
       <use xlink:href="#DejaVuSans-30" x="179.199219"/>
      </g>
     </g>
    </g>
    <g id="xtick_2">
     <g id="line2d_2">
      <g>
       <use xlink:href="#md39e2dc21e" x="88.955783" y="166.71163" style="stroke: #000000; stroke-width: 0.8"/>
      </g>
     </g>
     <g id="text_2">
      <!-- −0.5 -->
      <g transform="translate(76.814377 181.310067)scale(0.1 -0.1)">
       <defs>
        <path id="DejaVuSans-35" d="M 691 4666 
L 3169 4666 
L 3169 4134 
L 1269 4134 
L 1269 2991 
Q 1406 3038 1543 3061 
Q 1681 3084 1819 3084 
Q 2600 3084 3056 2656 
Q 3513 2228 3513 1497 
Q 3513 744 3044 326 
Q 2575 -91 1722 -91 
Q 1428 -91 1123 -41 
Q 819 9 494 109 
L 494 744 
Q 775 591 1075 516 
Q 1375 441 1709 441 
Q 2250 441 2565 725 
Q 2881 1009 2881 1497 
Q 2881 1984 2565 2268 
Q 2250 2553 1709 2553 
Q 1456 2553 1204 2497 
Q 953 2441 691 2322 
L 691 4666 
z
" transform="scale(0.015625)"/>
       </defs>
       <use xlink:href="#DejaVuSans-2212"/>
       <use xlink:href="#DejaVuSans-30" x="83.789062"/>
       <use xlink:href="#DejaVuSans-2e" x="147.412109"/>
       <use xlink:href="#DejaVuSans-35" x="179.199219"/>
      </g>
     </g>
    </g>
    <g id="xtick_3">
     <g id="line2d_3">
      <g>
       <use xlink:href="#md39e2dc21e" x="158.57016" y="166.71163" style="stroke: #000000; stroke-width: 0.8"/>
      </g>
     </g>
    </g>
    <g id="xtick_4">
     <g id="line2d_4">
      <g>
       <use xlink:href="#md39e2dc21e" x="228.184537" y="166.71163" style="stroke: #000000; stroke-width: 0.8"/>
      </g>
     </g>
     <g id="text_3">
      <!-- 0.5 -->
      <g transform="translate(220.232975 181.310067)scale(0.1 -0.1)">
       <use xlink:href="#DejaVuSans-30"/>
       <use xlink:href="#DejaVuSans-2e" x="63.623047"/>
       <use xlink:href="#DejaVuSans-35" x="95.410156"/>
      </g>
     </g>
    </g>
    <g id="xtick_5">
     <g id="line2d_5">
      <g>
       <use xlink:href="#md39e2dc21e" x="297.798914" y="166.71163" style="stroke: #000000; stroke-width: 0.8"/>
      </g>
     </g>
     <g id="text_4">
      <!-- 1.0 -->
      <g transform="translate(289.847352 181.310067)scale(0.1 -0.1)">
       <use xlink:href="#DejaVuSans-31"/>
       <use xlink:href="#DejaVuSans-2e" x="63.623047"/>
       <use xlink:href="#DejaVuSans-30" x="95.410156"/>
      </g>
     </g>
    </g>
    <g id="xtick_6">
     <g id="line2d_6">
      <defs>
       <path id="m7497bb621c" d="M 0 0 
L 0 2 
" style="stroke: #000000; stroke-width: 0.6"/>
      </defs>
      <g>
       <use xlink:href="#m7497bb621c" x="33.264282" y="166.71163" style="stroke: #000000; stroke-width: 0.6"/>
      </g>
     </g>
    </g>
    <g id="xtick_7">
     <g id="line2d_7">
      <g>
       <use xlink:href="#m7497bb621c" x="47.187157" y="166.71163" style="stroke: #000000; stroke-width: 0.6"/>
      </g>
     </g>
    </g>
    <g id="xtick_8">
     <g id="line2d_8">
      <g>
       <use xlink:href="#m7497bb621c" x="61.110032" y="166.71163" style="stroke: #000000; stroke-width: 0.6"/>
      </g>
     </g>
    </g>
    <g id="xtick_9">
     <g id="line2d_9">
      <g>
       <use xlink:href="#m7497bb621c" x="75.032908" y="166.71163" style="stroke: #000000; stroke-width: 0.6"/>
      </g>
     </g>
    </g>
    <g id="xtick_10">
     <g id="line2d_10">
      <g>
       <use xlink:href="#m7497bb621c" x="102.878659" y="166.71163" style="stroke: #000000; stroke-width: 0.6"/>
      </g>
     </g>
    </g>
    <g id="xtick_11">
     <g id="line2d_11">
      <g>
       <use xlink:href="#m7497bb621c" x="116.801534" y="166.71163" style="stroke: #000000; stroke-width: 0.6"/>
      </g>
     </g>
    </g>
    <g id="xtick_12">
     <g id="line2d_12">
      <g>
       <use xlink:href="#m7497bb621c" x="130.72441" y="166.71163" style="stroke: #000000; stroke-width: 0.6"/>
      </g>
     </g>
    </g>
    <g id="xtick_13">
     <g id="line2d_13">
      <g>
       <use xlink:href="#m7497bb621c" x="144.647285" y="166.71163" style="stroke: #000000; stroke-width: 0.6"/>
      </g>
     </g>
    </g>
    <g id="xtick_14">
     <g id="line2d_14">
      <g>
       <use xlink:href="#m7497bb621c" x="172.493036" y="166.71163" style="stroke: #000000; stroke-width: 0.6"/>
      </g>
     </g>
    </g>
    <g id="xtick_15">
     <g id="line2d_15">
      <g>
       <use xlink:href="#m7497bb621c" x="186.415911" y="166.71163" style="stroke: #000000; stroke-width: 0.6"/>
      </g>
     </g>
    </g>
    <g id="xtick_16">
     <g id="line2d_16">
      <g>
       <use xlink:href="#m7497bb621c" x="200.338787" y="166.71163" style="stroke: #000000; stroke-width: 0.6"/>
      </g>
     </g>
    </g>
    <g id="xtick_17">
     <g id="line2d_17">
      <g>
       <use xlink:href="#m7497bb621c" x="214.261662" y="166.71163" style="stroke: #000000; stroke-width: 0.6"/>
      </g>
     </g>
    </g>
    <g id="xtick_18">
     <g id="line2d_18">
      <g>
       <use xlink:href="#m7497bb621c" x="242.107413" y="166.71163" style="stroke: #000000; stroke-width: 0.6"/>
      </g>
     </g>
    </g>
    <g id="xtick_19">
     <g id="line2d_19">
      <g>
       <use xlink:href="#m7497bb621c" x="256.030288" y="166.71163" style="stroke: #000000; stroke-width: 0.6"/>
      </g>
     </g>
    </g>
    <g id="xtick_20">
     <g id="line2d_20">
      <g>
       <use xlink:href="#m7497bb621c" x="269.953164" y="166.71163" style="stroke: #000000; stroke-width: 0.6"/>
      </g>
     </g>
    </g>
    <g id="xtick_21">
     <g id="line2d_21">
      <g>
       <use xlink:href="#m7497bb621c" x="283.876039" y="166.71163" style="stroke: #000000; stroke-width: 0.6"/>
      </g>
     </g>
    </g>
   </g>
   <g id="matplotlib.axis_2">
    <g id="ytick_1">
     <g id="line2d_22">
      <defs>
       <path id="m60bce94566" d="M 0 0 
L -3.5 0 
" style="stroke: #000000; stroke-width: 0.8"/>
      </defs>
      <g>
       <use xlink:href="#m60bce94566" x="158.57016" y="305.940384" style="stroke: #000000; stroke-width: 0.8"/>
      </g>
     </g>
     <g id="text_5">
      <!-- −1.0 -->
      <g transform="translate(127.287348 309.739602)scale(0.1 -0.1)">
       <use xlink:href="#DejaVuSans-2212"/>
       <use xlink:href="#DejaVuSans-31" x="83.789062"/>
       <use xlink:href="#DejaVuSans-2e" x="147.412109"/>
       <use xlink:href="#DejaVuSans-30" x="179.199219"/>
      </g>
     </g>
    </g>
    <g id="ytick_2">
     <g id="line2d_23">
      <g>
       <use xlink:href="#m60bce94566" x="158.57016" y="236.326007" style="stroke: #000000; stroke-width: 0.8"/>
      </g>
     </g>
     <g id="text_6">
      <!-- −0.5 -->
      <g transform="translate(127.287348 240.125225)scale(0.1 -0.1)">
       <use xlink:href="#DejaVuSans-2212"/>
       <use xlink:href="#DejaVuSans-30" x="83.789062"/>
       <use xlink:href="#DejaVuSans-2e" x="147.412109"/>
       <use xlink:href="#DejaVuSans-35" x="179.199219"/>
      </g>
     </g>
    </g>
    <g id="ytick_3">
     <g id="line2d_24">
      <g>
       <use xlink:href="#m60bce94566" x="158.57016" y="166.71163" style="stroke: #000000; stroke-width: 0.8"/>
      </g>
     </g>
    </g>
    <g id="ytick_4">
     <g id="line2d_25">
      <g>
       <use xlink:href="#m60bce94566" x="158.57016" y="97.097252" style="stroke: #000000; stroke-width: 0.8"/>
      </g>
     </g>
     <g id="text_7">
      <!-- 0.5 -->
      <g transform="translate(135.667035 100.896471)scale(0.1 -0.1)">
       <use xlink:href="#DejaVuSans-30"/>
       <use xlink:href="#DejaVuSans-2e" x="63.623047"/>
       <use xlink:href="#DejaVuSans-35" x="95.410156"/>
      </g>
     </g>
    </g>
    <g id="ytick_5">
     <g id="line2d_26">
      <g>
       <use xlink:href="#m60bce94566" x="158.57016" y="27.482875" style="stroke: #000000; stroke-width: 0.8"/>
      </g>
     </g>
     <g id="text_8">
      <!-- 1.0 -->
      <g transform="translate(135.667035 31.282094)scale(0.1 -0.1)">
       <use xlink:href="#DejaVuSans-31"/>
       <use xlink:href="#DejaVuSans-2e" x="63.623047"/>
       <use xlink:href="#DejaVuSans-30" x="95.410156"/>
      </g>
     </g>
    </g>
    <g id="ytick_6">
     <g id="line2d_27">
      <defs>
       <path id="m7912823356" d="M 0 0 
L -2 0 
" style="stroke: #000000; stroke-width: 0.6"/>
      </defs>
      <g>
       <use xlink:href="#m7912823356" x="158.57016" y="319.863259" style="stroke: #000000; stroke-width: 0.6"/>
      </g>
     </g>
    </g>
    <g id="ytick_7">
     <g id="line2d_28">
      <g>
       <use xlink:href="#m7912823356" x="158.57016" y="292.017508" style="stroke: #000000; stroke-width: 0.6"/>
      </g>
     </g>
    </g>
    <g id="ytick_8">
     <g id="line2d_29">
      <g>
       <use xlink:href="#m7912823356" x="158.57016" y="278.094633" style="stroke: #000000; stroke-width: 0.6"/>
      </g>
     </g>
    </g>
    <g id="ytick_9">
     <g id="line2d_30">
      <g>
       <use xlink:href="#m7912823356" x="158.57016" y="264.171757" style="stroke: #000000; stroke-width: 0.6"/>
      </g>
     </g>
    </g>
    <g id="ytick_10">
     <g id="line2d_31">
      <g>
       <use xlink:href="#m7912823356" x="158.57016" y="250.248882" style="stroke: #000000; stroke-width: 0.6"/>
      </g>
     </g>
    </g>
    <g id="ytick_11">
     <g id="line2d_32">
      <g>
       <use xlink:href="#m7912823356" x="158.57016" y="222.403131" style="stroke: #000000; stroke-width: 0.6"/>
      </g>
     </g>
    </g>
    <g id="ytick_12">
     <g id="line2d_33">
      <g>
       <use xlink:href="#m7912823356" x="158.57016" y="208.480256" style="stroke: #000000; stroke-width: 0.6"/>
      </g>
     </g>
    </g>
    <g id="ytick_13">
     <g id="line2d_34">
      <g>
       <use xlink:href="#m7912823356" x="158.57016" y="194.55738" style="stroke: #000000; stroke-width: 0.6"/>
      </g>
     </g>
    </g>
    <g id="ytick_14">
     <g id="line2d_35">
      <g>
       <use xlink:href="#m7912823356" x="158.57016" y="180.634505" style="stroke: #000000; stroke-width: 0.6"/>
      </g>
     </g>
    </g>
    <g id="ytick_15">
     <g id="line2d_36">
      <g>
       <use xlink:href="#m7912823356" x="158.57016" y="152.788754" style="stroke: #000000; stroke-width: 0.6"/>
      </g>
     </g>
    </g>
    <g id="ytick_16">
     <g id="line2d_37">
      <g>
       <use xlink:href="#m7912823356" x="158.57016" y="138.865879" style="stroke: #000000; stroke-width: 0.6"/>
      </g>
     </g>
    </g>
    <g id="ytick_17">
     <g id="line2d_38">
      <g>
       <use xlink:href="#m7912823356" x="158.57016" y="124.943003" style="stroke: #000000; stroke-width: 0.6"/>
      </g>
     </g>
    </g>
    <g id="ytick_18">
     <g id="line2d_39">
      <g>
       <use xlink:href="#m7912823356" x="158.57016" y="111.020128" style="stroke: #000000; stroke-width: 0.6"/>
      </g>
     </g>
    </g>
    <g id="ytick_19">
     <g id="line2d_40">
      <g>
       <use xlink:href="#m7912823356" x="158.57016" y="83.174377" style="stroke: #000000; stroke-width: 0.6"/>
      </g>
     </g>
    </g>
    <g id="ytick_20">
     <g id="line2d_41">
      <g>
       <use xlink:href="#m7912823356" x="158.57016" y="69.251502" style="stroke: #000000; stroke-width: 0.6"/>
      </g>
     </g>
    </g>
    <g id="ytick_21">
     <g id="line2d_42">
      <g>
       <use xlink:href="#m7912823356" x="158.57016" y="55.328626" style="stroke: #000000; stroke-width: 0.6"/>
      </g>
     </g>
    </g>
    <g id="ytick_22">
     <g id="line2d_43">
      <g>
       <use xlink:href="#m7912823356" x="158.57016" y="41.405751" style="stroke: #000000; stroke-width: 0.6"/>
      </g>
     </g>
    </g>
    <g id="ytick_23">
     <g id="line2d_44">
      <g>
       <use xlink:href="#m7912823356" x="158.57016" y="13.56" style="stroke: #000000; stroke-width: 0.6"/>
      </g>
     </g>
    </g>
   </g>
   <g id="line2d_45">
    <path d="M 19.341406 27.482875 
L 24.750234 38.090406 
L 30.913584 49.665394 
L 36.244552 59.23703 
L 41.809264 68.79287 
L 47.527105 78.148314 
L 53.051041 86.740473 
L 57.321731 93.082841 
L 62.784416 100.813541 
L 68.261114 108.13376 
L 73.847647 115.156875 
L 78.83891 121.052439 
L 84.366023 127.163376 
L 89.194513 132.142761 
L 94.224945 136.974189 
L 98.740906 141.001856 
L 103.204101 144.694622 
L 108.523705 148.722187 
L 113.0418 151.823673 
L 117.536552 154.618172 
L 120.938753 156.540434 
L 123.664728 157.960641 
L 128.015525 160.00622 
L 132.329894 161.76616 
L 136.514824 163.217826 
L 141.032849 164.502622 
L 145.308184 165.448385 
L 149.181274 166.07849 
L 154.478413 166.591379 
L 159.495872 166.705475 
L 163.005047 166.570364 
L 167.386781 166.15332 
L 171.623795 165.487763 
L 175.072953 164.755553 
L 178.418047 163.882195 
L 182.795689 162.496435 
L 187.251474 160.80324 
L 191.573138 158.888558 
L 195.262216 157.041882 
L 199.475294 154.693782 
L 203.782145 152.029867 
L 209.014987 148.434654 
L 213.758309 144.835892 
L 217.607748 141.677743 
L 222.166666 137.662203 
L 226.316764 133.747158 
L 231.858796 128.133219 
L 235.813015 123.857992 
L 240.401113 118.615927 
L 246.042857 111.755506 
L 251.379733 104.844978 
L 256.947862 97.19889 
L 261.168858 91.105891 
L 267.404362 81.63665 
L 272.518555 73.453332 
L 278.666629 63.11836 
L 284.626056 52.582267 
L 290.796002 41.136468 
L 296.069033 30.921145 
L 297.798914 27.482875 
L 297.798914 27.482875 
" clip-path="url(#pff4f2abcf5)" style="fill: none; stroke: #0000ff; stroke-linecap: square"/>
   </g>
   <g id="line2d_46">
    <path d="M 19.341406 305.940384 
L 25.42756 294.034122 
L 29.896531 285.630333 
L 36.293356 274.100487 
L 42.357291 263.713366 
L 48.518771 253.700186 
L 54.850612 243.978317 
L 59.661422 236.976846 
L 64.650136 230.067586 
L 69.470721 223.730815 
L 75.445813 216.33972 
L 79.75436 211.32835 
L 85.00593 205.580727 
L 88.688773 201.78634 
L 93.667937 196.966146 
L 97.398332 193.588208 
L 102.016786 189.683063 
L 106.906125 185.88276 
L 112.175497 182.171545 
L 116.018751 179.716288 
L 120.250459 177.258298 
L 124.270047 175.161736 
L 127.625874 173.589152 
L 131.190125 172.096051 
L 134.794628 170.771681 
L 139.670943 169.277051 
L 144.562868 168.120852 
L 146.711386 167.721698 
L 150.952335 167.128435 
L 155.169232 166.794704 
L 159.645418 166.719934 
L 164.051426 166.92742 
L 168.0619 167.358717 
L 172.149694 168.036095 
L 176.218397 168.948669 
L 180.283842 170.098028 
L 183.855516 171.303707 
L 188.246369 173.037028 
L 191.441586 174.472459 
L 195.449927 176.480568 
L 200.372725 179.262589 
L 205.164289 182.304765 
L 209.250371 185.15957 
L 214.677519 189.322158 
L 219.718396 193.567481 
L 224.209688 197.657446 
L 228.710063 202.046327 
L 234.213757 207.80913 
L 239.122932 213.316579 
L 243.904731 219.013965 
L 248.908551 225.327573 
L 253.702083 231.713164 
L 259.282807 239.563228 
L 262.547274 244.362545 
L 267.73757 252.30834 
L 273.434682 261.475519 
L 278.377188 269.806165 
L 283.289717 278.434009 
L 289.336762 289.530397 
L 294.866542 300.137399 
L 297.798914 305.940384 
L 297.798914 305.940384 
" clip-path="url(#pff4f2abcf5)" style="fill: none; stroke: #ff0000; stroke-linecap: square"/>
   </g>
   <g id="patch_4">
    <path d="M 158.57016 325.989324 
L 158.57016 7.433935 
" style="fill: none; stroke: #000000; stroke-width: 0.8; stroke-linejoin: miter; stroke-linecap: square"/>
   </g>
   <g id="patch_5">
    <path d="M 13.772256 166.71163 
L 303.368065 166.71163 
" style="fill: none; stroke: #000000; stroke-width: 0.8; stroke-linejoin: miter; stroke-linecap: square"/>
   </g>
   <g id="text_9">
    <!-- $y=x^2$ -->
    <g transform="translate(281.778914 17.4)scale(0.12 -0.12)">
     <defs>
      <path id="Cmmi10-79" d="M 538 -916 
Q 672 -1147 1006 -1147 
Q 1309 -1147 1531 -934 
Q 1753 -722 1889 -420 
Q 2025 -119 2100 197 
Q 1816 -72 1484 -72 
Q 1231 -72 1053 15 
Q 875 103 776 276 
Q 678 450 678 697 
Q 678 906 734 1126 
Q 791 1347 892 1617 
Q 994 1888 1069 2088 
Q 1153 2322 1153 2472 
Q 1153 2663 1013 2663 
Q 759 2663 595 2402 
Q 431 2141 353 1819 
Q 341 1778 300 1778 
L 225 1778 
Q 172 1778 172 1838 
L 172 1856 
Q 275 2238 487 2533 
Q 700 2828 1025 2828 
Q 1253 2828 1411 2678 
Q 1569 2528 1569 2297 
Q 1569 2178 1516 2047 
Q 1488 1969 1388 1706 
Q 1288 1444 1234 1272 
Q 1181 1100 1147 934 
Q 1113 769 1113 603 
Q 1113 391 1203 244 
Q 1294 97 1491 97 
Q 1888 97 2203 581 
L 2688 2553 
Q 2709 2638 2787 2698 
Q 2866 2759 2956 2759 
Q 3034 2759 3092 2709 
Q 3150 2659 3150 2578 
Q 3150 2541 3144 2528 
L 2509 -19 
Q 2425 -347 2200 -647 
Q 1975 -947 1658 -1130 
Q 1341 -1313 997 -1313 
Q 831 -1313 668 -1248 
Q 506 -1184 406 -1056 
Q 306 -928 306 -756 
Q 306 -581 409 -453 
Q 513 -325 684 -325 
Q 788 -325 858 -389 
Q 928 -453 928 -556 
Q 928 -703 818 -812 
Q 709 -922 563 -922 
Q 556 -919 550 -917 
Q 544 -916 538 -916 
z
" transform="scale(0.015625)"/>
      <path id="Cmr10-3d" d="M 481 850 
Q 428 850 393 890 
Q 359 931 359 978 
Q 359 1031 393 1068 
Q 428 1106 481 1106 
L 4500 1106 
Q 4547 1106 4581 1068 
Q 4616 1031 4616 978 
Q 4616 931 4581 890 
Q 4547 850 4500 850 
L 481 850 
z
M 481 2094 
Q 428 2094 393 2131 
Q 359 2169 359 2222 
Q 359 2269 393 2309 
Q 428 2350 481 2350 
L 4500 2350 
Q 4547 2350 4581 2309 
Q 4616 2269 4616 2222 
Q 4616 2169 4581 2131 
Q 4547 2094 4500 2094 
L 481 2094 
z
" transform="scale(0.015625)"/>
      <path id="Cmmi10-78" d="M 500 184 
Q 613 97 819 97 
Q 1019 97 1172 289 
Q 1325 481 1381 709 
L 1672 1844 
Q 1741 2153 1741 2266 
Q 1741 2425 1652 2544 
Q 1563 2663 1403 2663 
Q 1200 2663 1022 2536 
Q 844 2409 722 2214 
Q 600 2019 550 1819 
Q 538 1778 500 1778 
L 422 1778 
Q 372 1778 372 1838 
L 372 1856 
Q 434 2094 584 2320 
Q 734 2547 951 2687 
Q 1169 2828 1416 2828 
Q 1650 2828 1839 2703 
Q 2028 2578 2106 2363 
Q 2216 2559 2386 2693 
Q 2556 2828 2759 2828 
Q 2897 2828 3040 2779 
Q 3184 2731 3275 2631 
Q 3366 2531 3366 2381 
Q 3366 2219 3261 2101 
Q 3156 1984 2994 1984 
Q 2891 1984 2822 2050 
Q 2753 2116 2753 2216 
Q 2753 2350 2845 2451 
Q 2938 2553 3066 2572 
Q 2950 2663 2747 2663 
Q 2541 2663 2389 2472 
Q 2238 2281 2175 2047 
L 1894 916 
Q 1825 659 1825 494 
Q 1825 331 1917 214 
Q 2009 97 2163 97 
Q 2463 97 2698 361 
Q 2934 625 3009 941 
Q 3022 978 3059 978 
L 3138 978 
Q 3163 978 3178 961 
Q 3194 944 3194 922 
Q 3194 916 3188 903 
Q 3097 522 2806 225 
Q 2516 -72 2150 -72 
Q 1916 -72 1727 54 
Q 1538 181 1459 397 
Q 1359 209 1182 68 
Q 1006 -72 806 -72 
Q 669 -72 523 -23 
Q 378 25 287 125 
Q 197 225 197 378 
Q 197 528 301 651 
Q 406 775 563 775 
Q 669 775 741 711 
Q 813 647 813 544 
Q 813 409 723 309 
Q 634 209 500 184 
z
" transform="scale(0.015625)"/>
      <path id="Cmr10-32" d="M 319 0 
L 319 172 
Q 319 188 331 206 
L 1325 1306 
Q 1550 1550 1690 1715 
Q 1831 1881 1968 2097 
Q 2106 2313 2186 2536 
Q 2266 2759 2266 3009 
Q 2266 3272 2169 3511 
Q 2072 3750 1880 3894 
Q 1688 4038 1416 4038 
Q 1138 4038 916 3870 
Q 694 3703 603 3438 
Q 628 3444 672 3444 
Q 816 3444 917 3347 
Q 1019 3250 1019 3097 
Q 1019 2950 917 2848 
Q 816 2747 672 2747 
Q 522 2747 420 2851 
Q 319 2956 319 3097 
Q 319 3338 409 3548 
Q 500 3759 670 3923 
Q 841 4088 1055 4175 
Q 1269 4263 1509 4263 
Q 1875 4263 2190 4108 
Q 2506 3953 2690 3670 
Q 2875 3388 2875 3009 
Q 2875 2731 2753 2481 
Q 2631 2231 2440 2026 
Q 2250 1822 1953 1562 
Q 1656 1303 1563 1216 
L 838 519 
L 1453 519 
Q 1906 519 2211 526 
Q 2516 534 2534 550 
Q 2609 631 2688 1141 
L 2875 1141 
L 2694 0 
L 319 0 
z
" transform="scale(0.015625)"/>
     </defs>
     <use xlink:href="#Cmmi10-79" transform="translate(0 0.109375)"/>
     <use xlink:href="#Cmr10-3d" transform="translate(66.582031 0.109375)"/>
     <use xlink:href="#Cmmi10-78" transform="translate(161.826172 0.109375)"/>
     <use xlink:href="#Cmr10-32" transform="translate(225.209531 38.373438)scale(0.7)"/>
    </g>
   </g>
   <g id="text_10">
    <!-- $y=-x^2$ -->
    <g transform="translate(274.998914 323.703259)scale(0.12 -0.12)">
     <defs>
      <path id="Cmsy10-a1" d="M 653 1472 
Q 600 1472 565 1512 
Q 531 1553 531 1600 
Q 531 1647 565 1687 
Q 600 1728 653 1728 
L 4325 1728 
Q 4375 1728 4408 1687 
Q 4441 1647 4441 1600 
Q 4441 1553 4408 1512 
Q 4375 1472 4325 1472 
L 653 1472 
z
" transform="scale(0.015625)"/>
     </defs>
     <use xlink:href="#Cmmi10-79" transform="translate(0 0.109375)"/>
     <use xlink:href="#Cmr10-3d" transform="translate(66.582031 0.109375)"/>
     <use xlink:href="#Cmsy10-a1" transform="translate(179.384766 0.109375)"/>
     <use xlink:href="#Cmmi10-78" transform="translate(274.628906 0.109375)"/>
     <use xlink:href="#Cmr10-32" transform="translate(338.012266 38.373438)scale(0.7)"/>
    </g>
   </g>
   <g id="text_11">
    <!-- $\mathcal{R}$ -->
    <g transform="translate(56.010032 142.177129)scale(0.12 -0.12)">
     <defs>
      <path id="Cmsy10-52" d="M 738 -91 
Q 738 -78 744 -56 
Q 966 475 1128 959 
Q 1291 1444 1428 1991 
Q 1678 2959 1766 3994 
Q 1425 3994 1094 3872 
Q 922 3803 833 3695 
Q 744 3588 684 3397 
Q 622 3291 472 3197 
Q 322 3103 206 3103 
L 166 3103 
Q 122 3131 122 3169 
Q 234 3556 581 3828 
Q 928 4100 1387 4236 
Q 1847 4372 2259 4372 
L 2931 4372 
Q 3378 4372 3739 4331 
Q 4100 4291 4392 4112 
Q 4684 3934 4684 3572 
Q 4684 3281 4548 3014 
Q 4413 2747 4189 2533 
Q 3966 2319 3697 2158 
Q 3428 1997 3156 1900 
Q 3253 1784 3383 1501 
Q 3513 1219 3659 911 
Q 3806 603 3951 420 
Q 4097 238 4256 238 
Q 4444 238 4551 308 
Q 4659 378 4775 520 
Q 4891 663 4997 745 
Q 5103 828 5281 844 
L 5319 844 
Q 5363 822 5363 794 
Q 5363 784 5356 768 
Q 5350 753 5344 738 
Q 5188 503 4936 297 
Q 4684 91 4393 -25 
Q 4103 -141 3828 -141 
L 3788 -141 
Q 3541 -141 3372 98 
Q 3203 338 3003 811 
Q 2803 1284 2651 1515 
Q 2500 1747 2278 1747 
Q 2266 1753 2250 1765 
Q 2234 1778 2234 1797 
Q 2234 1900 2420 2006 
Q 2606 2113 2719 2125 
Q 3072 2125 3395 2262 
Q 3719 2400 3917 2667 
Q 4116 2934 4116 3291 
Q 4116 3613 3833 3767 
Q 3550 3922 3203 3958 
Q 2856 3994 2450 3994 
L 2309 3994 
Q 2209 3041 1954 2070 
Q 1700 1100 1300 153 
Q 1238 41 1092 -43 
Q 947 -128 813 -141 
L 781 -141 
Q 769 -134 753 -121 
Q 738 -109 738 -91 
z
" transform="scale(0.015625)"/>
     </defs>
     <use xlink:href="#Cmsy10-52" transform="translate(0 0.6875)"/>
    </g>
   </g>
  </g>
 </g>
 <defs>
  <clipPath id="pff4f2abcf5">
   <rect x="13.772256" y="7.433935" width="289.595809" height="318.555389"/>
  </clipPath>
 </defs>
</svg>
