<?xml version="1.0" encoding="utf-8" standalone="no"?>
<!DOCTYPE svg PUBLIC "-//W3C//DTD SVG 1.1//EN"
  "http://www.w3.org/Graphics/SVG/1.1/DTD/svg11.dtd">
<svg xmlns:xlink="http://www.w3.org/1999/xlink" width="316.509125pt" height="335.425604pt" viewBox="0 0 316.509125 335.425604" xmlns="http://www.w3.org/2000/svg" version="1.1">
 <metadata>
  <rdf:RDF xmlns:dc="http://purl.org/dc/elements/1.1/" xmlns:cc="http://creativecommons.org/ns#" xmlns:rdf="http://www.w3.org/1999/02/22-rdf-syntax-ns#">
   <cc:Work>
    <dc:type rdf:resource="http://purl.org/dc/dcmitype/StillImage"/>
    <dc:date>2022-10-20T20:46:33.922431</dc:date>
    <dc:format>image/svg+xml</dc:format>
    <dc:creator>
     <cc:Agent>
      <dc:title>Matplotlib v3.5.1, https://matplotlib.org/</dc:title>
     </cc:Agent>
    </dc:creator>
   </cc:Work>
  </rdf:RDF>
 </metadata>
 <defs>
  <style type="text/css">*{stroke-linejoin: round; stroke-linecap: butt}</style>
 </defs>
 <g id="figure_1">
  <g id="patch_1">
   <path d="M 0 335.425604 
L 316.509125 335.425604 
L 316.509125 0 
L 0 0 
z
" style="fill: #ffffff"/>
  </g>
  <g id="axes_1">
   <g id="patch_2">
    <path d="M 24.678036 317.515077 
L 306.782652 317.515077 
L 306.782652 7.2 
L 24.678036 7.2 
z
" style="fill: #ffffff"/>
   </g>
   <g id="patch_3">
    <path d="M 301.357563 40.293041 
L 299.601084 43.794626 
L 299.021258 44.945528 
L 297.161956 48.619359 
L 296.299777 50.314307 
L 294.901506 53.051496 
L 293.449613 55.8784 
L 291.157403 60.309798 
L 290.601002 61.379614 
L 288.551175 65.301206 
L 288.292542 65.793803 
L 285.963168 70.208159 
L 285.55175 70.983674 
L 283.234624 75.328098 
L 282.454977 76.780971 
L 280.778665 79.889605 
L 280.081368 81.176605 
L 278.389592 84.284213 
L 277.322905 86.232752 
L 274.848514 90.720473 
L 274.18613 91.914158 
L 272.371576 95.167601 
L 271.745452 96.284589 
L 270.104984 99.197434 
L 269.112517 100.950043 
L 266.95179 104.740576 
L 265.746254 106.840471 
L 264.394864 109.181687 
L 263.794781 110.216984 
L 262.493005 112.453755 
L 260.086663 116.555543 
L 259.57887 117.41566 
L 257.358178 121.154801 
L 256.553251 122.501136 
L 255.345873 124.511662 
L 253.293695 127.904289 
L 252.56159 129.107078 
L 251.312652 131.14986 
L 249.586562 133.954149 
L 248.650722 135.465375 
L 246.179042 139.42568 
L 244.96232 141.358655 
L 244.222753 142.528253 
L 243.21545 144.114779 
L 241.033743 147.525368 
L 239.654724 149.66304 
L 238.755693 151.049114 
L 237.718364 152.641 
L 235.391403 156.1831 
L 234.749664 157.152934 
L 233.126241 159.592783 
L 232.381192 160.706016 
L 231.091761 162.622978 
L 229.413784 165.099225 
L 227.85803 167.376557 
L 226.421085 169.464122 
L 225.590294 170.664132 
L 223.4527 173.728322 
L 222.643255 174.879848 
L 220.931455 177.299164 
L 220.124773 178.43177 
L 218.166555 181.161212 
L 217.481958 182.10876 
L 215.645361 184.633717 
L 213.575526 187.449521 
L 212.329143 189.129863 
L 211.728592 189.935421 
L 209.572146 192.806088 
L 208.116361 194.724646 
L 207.656702 195.327177 
L 205.561463 198.053932 
L 204.1727 199.843437 
L 203.193772 201.096301 
L 202.339349 202.184045 
L 201.167603 203.667012 
L 198.487102 207.021397 
L 198.367662 207.169631 
L 196.660477 209.27689 
L 195.550336 210.635657 
L 193.207959 213.472819 
L 191.66912 215.314692 
L 190.393738 216.827994 
L 189.963533 217.335748 
L 188.71146 218.805756 
L 187.037844 220.752629 
L 185.742707 222.245053 
L 183.501945 224.797939 
L 182.566557 225.852667 
L 181.717881 226.804039 
L 180.384474 228.288071 
L 179.025642 229.786914 
L 177.298092 231.672811 
L 175.729452 233.36617 
L 175.028808 234.116659 
L 172.763956 236.517877 
L 171.676078 237.657808 
L 170.659538 238.715104 
L 169.169261 240.251355 
L 167.246558 242.209181 
L 166.720927 242.739669 
L 165.046029 244.416459 
L 164.091768 245.362548 
L 162.91244 246.5225 
L 161.590477 247.810555 
L 160.249018 249.104432 
L 158.82527 250.463167 
L 157.414653 251.794631 
L 155.445992 253.6283 
L 153.697187 255.233222 
L 152.85015 256.002463 
L 151.937903 256.825009 
L 149.418913 259.064441 
L 149.309971 259.160236 
L 147.645103 260.61332 
L 145.963126 262.060585 
L 145.117465 262.780357 
L 143.838244 263.859127 
L 142.474354 264.996008 
L 140.740842 266.421196 
L 139.489215 267.436435 
L 137.409696 269.097666 
L 135.805704 270.35724 
L 134.517353 271.355211 
L 133.162484 272.391506 
L 132.119951 273.179691 
L 131.478607 273.660584 
L 129.376447 275.215567 
L 128.139952 276.114992 
L 126.686781 277.157617 
L 125.849716 277.75113 
L 123.884846 279.124005 
L 122.588236 280.01437 
L 121.845725 280.518661 
L 119.42771 282.13273 
L 118.026376 283.048414 
L 117.212626 283.573503 
L 115.309854 284.782252 
L 114.028144 285.58142 
L 113.159295 286.116274 
L 111.368477 287.201122 
L 110.693247 287.604026 
L 109.67201 288.207004 
L 108.133138 289.101089 
L 106.465644 290.050193 
L 105.136512 290.792025 
L 103.433867 291.723296 
L 102.242352 292.362289 
L 100.799573 293.12202 
L 99.43379 293.827064 
L 97.979481 294.562689 
L 97.060911 295.019289 
L 95.065235 295.989851 
L 93.593651 296.68672 
L 93.329351 296.810188 
L 91.732711 297.545106 
L 90.745931 297.989913 
L 88.233392 299.090068 
L 87.924507 299.222106 
L 86.276358 299.91474 
L 84.188952 300.763226 
L 82.821962 301.301469 
L 82.416315 301.458539 
L 81.029237 301.98646 
L 79.500848 302.551737 
L 78.293905 302.985956 
L 76.82071 303.501407 
L 74.611059 304.244534 
L 73.756061 304.522419 
L 71.84551 305.123891 
L 70.69411 305.473374 
L 69.589892 305.799353 
L 67.915635 306.276465 
L 67.078761 306.507202 
L 65.373238 306.96145 
L 64.184298 307.265425 
L 62.72756 307.623659 
L 62.009803 307.794412 
L 59.703569 308.317352 
L 58.132276 308.651183 
L 57.812867 308.716817 
L 56.115562 309.052969 
L 54.775389 309.303385 
L 53.8383 309.470616 
L 51.978925 309.783266 
L 50.19355 310.059484 
L 49.317093 310.186482 
L 48.016088 310.364552 
L 47.119167 310.480047 
L 44.4844 310.785018 
L 44.040191 310.831392 
L 42.748207 310.958003 
L 41.302612 311.085078 
L 39.899368 311.193692 
L 37.718259 311.333694 
L 36.703917 311.386854 
L 35.937456 311.42199 
L 34.463706 311.47738 
L 32.167842 311.531763 
L 31.423943 311.541048 
L 30.103125 311.547479 
L 30.103125 40.293041 
L 31.262816 40.293041 
L 32.286874 40.293041 
L 34.488179 40.293041 
L 35.749236 40.293041 
L 37.365315 40.293041 
L 37.959797 40.293041 
L 39.896265 40.293041 
L 41.443099 40.293041 
L 41.796065 40.293041 
L 43.105159 40.293041 
L 45.385681 40.293041 
L 47.048233 40.293041 
L 47.296773 40.293041 
L 48.836646 40.293041 
L 50.661203 40.293041 
L 52.18873 40.293041 
L 52.898915 40.293041 
L 54.33386 40.293041 
L 56.644421 40.293041 
L 57.886769 40.293041 
L 58.490275 40.293041 
L 60.436688 40.293041 
L 61.451491 40.293041 
L 62.56844 40.293041 
L 63.858227 40.293041 
L 65.620036 40.293041 
L 66.416327 40.293041 
L 67.685354 40.293041 
L 70.192375 40.293041 
L 70.441551 40.293041 
L 72.720381 40.293041 
L 74.137215 40.293041 
L 75.627945 40.293041 
L 76.029713 40.293041 
L 78.31154 40.293041 
L 79.148462 40.293041 
L 81.137751 40.293041 
L 82.032894 40.293041 
L 83.272162 40.293041 
L 84.94235 40.293041 
L 85.695925 40.293041 
L 87.55199 40.293041 
L 88.941791 40.293041 
L 89.460776 40.293041 
L 91.419055 40.293041 
L 92.873327 40.293041 
L 94.770713 40.293041 
L 95.83721 40.293041 
L 96.974635 40.293041 
L 98.45851 40.293041 
L 99.606562 40.293041 
L 101.409776 40.293041 
L 102.290377 40.293041 
L 103.509141 40.293041 
L 105.163366 40.293041 
L 106.226453 40.293041 
L 107.387936 40.293041 
L 109.495302 40.293041 
L 110.224957 40.293041 
L 112.474243 40.293041 
L 112.868635 40.293041 
L 113.997614 40.293041 
L 115.453397 40.293041 
L 116.827109 40.293041 
L 119.348492 40.293041 
L 119.471298 40.293041 
L 121.854672 40.293041 
L 122.197283 40.293041 
L 123.690957 40.293041 
L 125.794505 40.293041 
L 126.97484 40.293041 
L 128.743273 40.293041 
L 129.055467 40.293041 
L 131.502747 40.293041 
L 132.784489 40.293041 
L 133.23157 40.293041 
L 134.438256 40.293041 
L 136.552757 40.293041 
L 137.293663 40.293041 
L 139.25481 40.293041 
L 141.116911 40.293041 
L 141.260988 40.293041 
L 142.988725 40.293041 
L 144.220542 40.293041 
L 146.301253 40.293041 
L 147.499233 40.293041 
L 149.156254 40.293041 
L 150.49433 40.293041 
L 150.782496 40.293041 
L 152.221592 40.293041 
L 153.788184 40.293041 
L 155.130404 40.293041 
L 156.678536 40.293041 
L 158.068375 40.293041 
L 159.785449 40.293041 
L 160.483706 40.293041 
L 162.228603 40.293041 
L 163.146201 40.293041 
L 164.592552 40.293041 
L 166.22499 40.293041 
L 167.910612 40.293041 
L 168.559997 40.293041 
L 170.90429 40.293041 
L 171.833252 40.293041 
L 172.679099 40.293041 
L 174.085647 40.293041 
L 175.709428 40.293041 
L 177.846902 40.293041 
L 178.925681 40.293041 
L 180.407322 40.293041 
L 181.16365 40.293041 
L 183.280154 40.293041 
L 184.247971 40.293041 
L 185.303728 40.293041 
L 186.367835 40.293041 
L 188.209383 40.293041 
L 190.036886 40.293041 
L 191.240355 40.293041 
L 192.330259 40.293041 
L 193.726895 40.293041 
L 194.765384 40.293041 
L 196.560112 40.293041 
L 197.174016 40.293041 
L 199.402441 40.293041 
L 200.794045 40.293041 
L 202.490144 40.293041 
L 203.00092 40.293041 
L 204.277252 40.293041 
L 206.28107 40.293041 
L 206.723557 40.293041 
L 209.085008 40.293041 
L 209.762147 40.293041 
L 211.913806 40.293041 
L 212.627433 40.293041 
L 213.743663 40.293041 
L 215.370856 40.293041 
L 217.032943 40.293041 
L 217.784143 40.293041 
L 219.893705 40.293041 
L 221.15036 40.293041 
L 221.764983 40.293041 
L 223.017654 40.293041 
L 224.952701 40.293041 
L 226.603732 40.293041 
L 227.35424 40.293041 
L 228.63775 40.293041 
L 230.240642 40.293041 
L 232.346968 40.293041 
L 232.63722 40.293041 
L 233.962638 40.293041 
L 235.807593 40.293041 
L 237.013839 40.293041 
L 238.023402 40.293041 
L 239.578554 40.293041 
L 241.880047 40.293041 
L 242.182397 40.293041 
L 243.484342 40.293041 
L 245.702798 40.293041 
L 246.918004 40.293041 
L 248.130854 40.293041 
L 250.11852 40.293041 
L 251.548708 40.293041 
L 252.898981 40.293041 
L 253.893904 40.293041 
L 254.433612 40.293041 
L 256.459655 40.293041 
L 257.828775 40.293041 
L 259.659278 40.293041 
L 260.434687 40.293041 
L 261.909831 40.293041 
L 263.378163 40.293041 
L 264.613676 40.293041 
L 266.578172 40.293041 
L 266.701469 40.293041 
L 268.662049 40.293041 
L 270.663995 40.293041 
L 271.487471 40.293041 
L 272.592343 40.293041 
L 273.819863 40.293041 
L 274.830915 40.293041 
L 277.379983 40.293041 
L 278.606669 40.293041 
L 279.401989 40.293041 
L 281.532865 40.293041 
L 282.409902 40.293041 
L 284.236804 40.293041 
L 285.359319 40.293041 
L 286.53921 40.293041 
L 288.097705 40.293041 
L 289.707997 40.293041 
L 290.495415 40.293041 
L 291.910015 40.293041 
L 293.043646 40.293041 
L 294.293921 40.293041 
L 295.909239 40.293041 
L 297.034476 40.293041 
L 299.27662 40.293041 
L 299.814809 40.293041 
z
" clip-path="url(#pdc49c2de11)" style="fill: #008000; opacity: 0.5"/>
   </g>
   <g id="matplotlib.axis_1">
    <g id="xtick_1">
     <g id="line2d_1">
      <defs>
       <path id="mbcbadd0e3f" d="M 0 0 
L 0 3.5 
" style="stroke: #000000; stroke-width: 0.8"/>
      </defs>
      <g>
       <use xlink:href="#mbcbadd0e3f" x="30.103125" y="311.547479" style="stroke: #000000; stroke-width: 0.8"/>
      </g>
     </g>
    </g>
    <g id="xtick_2">
     <g id="line2d_2">
      <g>
       <use xlink:href="#mbcbadd0e3f" x="84.354013" y="311.547479" style="stroke: #000000; stroke-width: 0.8"/>
      </g>
     </g>
     <g id="text_1">
      <!-- 0.2 -->
      <g transform="translate(76.40245 326.145917)scale(0.1 -0.1)">
       <defs>
        <path id="DejaVuSans-30" d="M 2034 4250 
Q 1547 4250 1301 3770 
Q 1056 3291 1056 2328 
Q 1056 1369 1301 889 
Q 1547 409 2034 409 
Q 2525 409 2770 889 
Q 3016 1369 3016 2328 
Q 3016 3291 2770 3770 
Q 2525 4250 2034 4250 
z
M 2034 4750 
Q 2819 4750 3233 4129 
Q 3647 3509 3647 2328 
Q 3647 1150 3233 529 
Q 2819 -91 2034 -91 
Q 1250 -91 836 529 
Q 422 1150 422 2328 
Q 422 3509 836 4129 
Q 1250 4750 2034 4750 
z
" transform="scale(0.015625)"/>
        <path id="DejaVuSans-2e" d="M 684 794 
L 1344 794 
L 1344 0 
L 684 0 
L 684 794 
z
" transform="scale(0.015625)"/>
        <path id="DejaVuSans-32" d="M 1228 531 
L 3431 531 
L 3431 0 
L 469 0 
L 469 531 
Q 828 903 1448 1529 
Q 2069 2156 2228 2338 
Q 2531 2678 2651 2914 
Q 2772 3150 2772 3378 
Q 2772 3750 2511 3984 
Q 2250 4219 1831 4219 
Q 1534 4219 1204 4116 
Q 875 4013 500 3803 
L 500 4441 
Q 881 4594 1212 4672 
Q 1544 4750 1819 4750 
Q 2544 4750 2975 4387 
Q 3406 4025 3406 3419 
Q 3406 3131 3298 2873 
Q 3191 2616 2906 2266 
Q 2828 2175 2409 1742 
Q 1991 1309 1228 531 
z
" transform="scale(0.015625)"/>
       </defs>
       <use xlink:href="#DejaVuSans-30"/>
       <use xlink:href="#DejaVuSans-2e" x="63.623047"/>
       <use xlink:href="#DejaVuSans-32" x="95.410156"/>
      </g>
     </g>
    </g>
    <g id="xtick_3">
     <g id="line2d_3">
      <g>
       <use xlink:href="#mbcbadd0e3f" x="138.6049" y="311.547479" style="stroke: #000000; stroke-width: 0.8"/>
      </g>
     </g>
     <g id="text_2">
      <!-- 0.4 -->
      <g transform="translate(130.653338 326.145917)scale(0.1 -0.1)">
       <defs>
        <path id="DejaVuSans-34" d="M 2419 4116 
L 825 1625 
L 2419 1625 
L 2419 4116 
z
M 2253 4666 
L 3047 4666 
L 3047 1625 
L 3713 1625 
L 3713 1100 
L 3047 1100 
L 3047 0 
L 2419 0 
L 2419 1100 
L 313 1100 
L 313 1709 
L 2253 4666 
z
" transform="scale(0.015625)"/>
       </defs>
       <use xlink:href="#DejaVuSans-30"/>
       <use xlink:href="#DejaVuSans-2e" x="63.623047"/>
       <use xlink:href="#DejaVuSans-34" x="95.410156"/>
      </g>
     </g>
    </g>
    <g id="xtick_4">
     <g id="line2d_4">
      <g>
       <use xlink:href="#mbcbadd0e3f" x="192.855788" y="311.547479" style="stroke: #000000; stroke-width: 0.8"/>
      </g>
     </g>
     <g id="text_3">
      <!-- 0.6 -->
      <g transform="translate(184.904225 326.145917)scale(0.1 -0.1)">
       <defs>
        <path id="DejaVuSans-36" d="M 2113 2584 
Q 1688 2584 1439 2293 
Q 1191 2003 1191 1497 
Q 1191 994 1439 701 
Q 1688 409 2113 409 
Q 2538 409 2786 701 
Q 3034 994 3034 1497 
Q 3034 2003 2786 2293 
Q 2538 2584 2113 2584 
z
M 3366 4563 
L 3366 3988 
Q 3128 4100 2886 4159 
Q 2644 4219 2406 4219 
Q 1781 4219 1451 3797 
Q 1122 3375 1075 2522 
Q 1259 2794 1537 2939 
Q 1816 3084 2150 3084 
Q 2853 3084 3261 2657 
Q 3669 2231 3669 1497 
Q 3669 778 3244 343 
Q 2819 -91 2113 -91 
Q 1303 -91 875 529 
Q 447 1150 447 2328 
Q 447 3434 972 4092 
Q 1497 4750 2381 4750 
Q 2619 4750 2861 4703 
Q 3103 4656 3366 4563 
z
" transform="scale(0.015625)"/>
       </defs>
       <use xlink:href="#DejaVuSans-30"/>
       <use xlink:href="#DejaVuSans-2e" x="63.623047"/>
       <use xlink:href="#DejaVuSans-36" x="95.410156"/>
      </g>
     </g>
    </g>
    <g id="xtick_5">
     <g id="line2d_5">
      <g>
       <use xlink:href="#mbcbadd0e3f" x="247.106675" y="311.547479" style="stroke: #000000; stroke-width: 0.8"/>
      </g>
     </g>
     <g id="text_4">
      <!-- 0.8 -->
      <g transform="translate(239.155113 326.145917)scale(0.1 -0.1)">
       <defs>
        <path id="DejaVuSans-38" d="M 2034 2216 
Q 1584 2216 1326 1975 
Q 1069 1734 1069 1313 
Q 1069 891 1326 650 
Q 1584 409 2034 409 
Q 2484 409 2743 651 
Q 3003 894 3003 1313 
Q 3003 1734 2745 1975 
Q 2488 2216 2034 2216 
z
M 1403 2484 
Q 997 2584 770 2862 
Q 544 3141 544 3541 
Q 544 4100 942 4425 
Q 1341 4750 2034 4750 
Q 2731 4750 3128 4425 
Q 3525 4100 3525 3541 
Q 3525 3141 3298 2862 
Q 3072 2584 2669 2484 
Q 3125 2378 3379 2068 
Q 3634 1759 3634 1313 
Q 3634 634 3220 271 
Q 2806 -91 2034 -91 
Q 1263 -91 848 271 
Q 434 634 434 1313 
Q 434 1759 690 2068 
Q 947 2378 1403 2484 
z
M 1172 3481 
Q 1172 3119 1398 2916 
Q 1625 2713 2034 2713 
Q 2441 2713 2670 2916 
Q 2900 3119 2900 3481 
Q 2900 3844 2670 4047 
Q 2441 4250 2034 4250 
Q 1625 4250 1398 4047 
Q 1172 3844 1172 3481 
z
" transform="scale(0.015625)"/>
       </defs>
       <use xlink:href="#DejaVuSans-30"/>
       <use xlink:href="#DejaVuSans-2e" x="63.623047"/>
       <use xlink:href="#DejaVuSans-38" x="95.410156"/>
      </g>
     </g>
    </g>
    <g id="xtick_6">
     <g id="line2d_6">
      <g>
       <use xlink:href="#mbcbadd0e3f" x="301.357563" y="311.547479" style="stroke: #000000; stroke-width: 0.8"/>
      </g>
     </g>
     <g id="text_5">
      <!-- 1.0 -->
      <g transform="translate(293.406 326.145917)scale(0.1 -0.1)">
       <defs>
        <path id="DejaVuSans-31" d="M 794 531 
L 1825 531 
L 1825 4091 
L 703 3866 
L 703 4441 
L 1819 4666 
L 2450 4666 
L 2450 531 
L 3481 531 
L 3481 0 
L 794 0 
L 794 531 
z
" transform="scale(0.015625)"/>
       </defs>
       <use xlink:href="#DejaVuSans-31"/>
       <use xlink:href="#DejaVuSans-2e" x="63.623047"/>
       <use xlink:href="#DejaVuSans-30" x="95.410156"/>
      </g>
     </g>
    </g>
    <g id="xtick_7">
     <g id="line2d_7">
      <defs>
       <path id="m7b615265e7" d="M 0 0 
L 0 2 
" style="stroke: #000000; stroke-width: 0.6"/>
      </defs>
      <g>
       <use xlink:href="#m7b615265e7" x="43.665847" y="311.547479" style="stroke: #000000; stroke-width: 0.6"/>
      </g>
     </g>
    </g>
    <g id="xtick_8">
     <g id="line2d_8">
      <g>
       <use xlink:href="#m7b615265e7" x="57.228569" y="311.547479" style="stroke: #000000; stroke-width: 0.6"/>
      </g>
     </g>
    </g>
    <g id="xtick_9">
     <g id="line2d_9">
      <g>
       <use xlink:href="#m7b615265e7" x="70.791291" y="311.547479" style="stroke: #000000; stroke-width: 0.6"/>
      </g>
     </g>
    </g>
    <g id="xtick_10">
     <g id="line2d_10">
      <g>
       <use xlink:href="#m7b615265e7" x="97.916734" y="311.547479" style="stroke: #000000; stroke-width: 0.6"/>
      </g>
     </g>
    </g>
    <g id="xtick_11">
     <g id="line2d_11">
      <g>
       <use xlink:href="#m7b615265e7" x="111.479456" y="311.547479" style="stroke: #000000; stroke-width: 0.6"/>
      </g>
     </g>
    </g>
    <g id="xtick_12">
     <g id="line2d_12">
      <g>
       <use xlink:href="#m7b615265e7" x="125.042178" y="311.547479" style="stroke: #000000; stroke-width: 0.6"/>
      </g>
     </g>
    </g>
    <g id="xtick_13">
     <g id="line2d_13">
      <g>
       <use xlink:href="#m7b615265e7" x="152.167622" y="311.547479" style="stroke: #000000; stroke-width: 0.6"/>
      </g>
     </g>
    </g>
    <g id="xtick_14">
     <g id="line2d_14">
      <g>
       <use xlink:href="#m7b615265e7" x="165.730344" y="311.547479" style="stroke: #000000; stroke-width: 0.6"/>
      </g>
     </g>
    </g>
    <g id="xtick_15">
     <g id="line2d_15">
      <g>
       <use xlink:href="#m7b615265e7" x="179.293066" y="311.547479" style="stroke: #000000; stroke-width: 0.6"/>
      </g>
     </g>
    </g>
    <g id="xtick_16">
     <g id="line2d_16">
      <g>
       <use xlink:href="#m7b615265e7" x="206.41851" y="311.547479" style="stroke: #000000; stroke-width: 0.6"/>
      </g>
     </g>
    </g>
    <g id="xtick_17">
     <g id="line2d_17">
      <g>
       <use xlink:href="#m7b615265e7" x="219.981232" y="311.547479" style="stroke: #000000; stroke-width: 0.6"/>
      </g>
     </g>
    </g>
    <g id="xtick_18">
     <g id="line2d_18">
      <g>
       <use xlink:href="#m7b615265e7" x="233.543953" y="311.547479" style="stroke: #000000; stroke-width: 0.6"/>
      </g>
     </g>
    </g>
    <g id="xtick_19">
     <g id="line2d_19">
      <g>
       <use xlink:href="#m7b615265e7" x="260.669397" y="311.547479" style="stroke: #000000; stroke-width: 0.6"/>
      </g>
     </g>
    </g>
    <g id="xtick_20">
     <g id="line2d_20">
      <g>
       <use xlink:href="#m7b615265e7" x="274.232119" y="311.547479" style="stroke: #000000; stroke-width: 0.6"/>
      </g>
     </g>
    </g>
    <g id="xtick_21">
     <g id="line2d_21">
      <g>
       <use xlink:href="#m7b615265e7" x="287.794841" y="311.547479" style="stroke: #000000; stroke-width: 0.6"/>
      </g>
     </g>
    </g>
   </g>
   <g id="matplotlib.axis_2">
    <g id="ytick_1">
     <g id="line2d_22">
      <defs>
       <path id="m19a5158b03" d="M 0 0 
L -3.5 0 
" style="stroke: #000000; stroke-width: 0.8"/>
      </defs>
      <g>
       <use xlink:href="#m19a5158b03" x="30.103125" y="311.547479" style="stroke: #000000; stroke-width: 0.8"/>
      </g>
     </g>
    </g>
    <g id="ytick_2">
     <g id="line2d_23">
      <g>
       <use xlink:href="#m19a5158b03" x="30.103125" y="257.296592" style="stroke: #000000; stroke-width: 0.8"/>
      </g>
     </g>
     <g id="text_6">
      <!-- 0.2 -->
      <g transform="translate(7.2 261.09581)scale(0.1 -0.1)">
       <use xlink:href="#DejaVuSans-30"/>
       <use xlink:href="#DejaVuSans-2e" x="63.623047"/>
       <use xlink:href="#DejaVuSans-32" x="95.410156"/>
      </g>
     </g>
    </g>
    <g id="ytick_3">
     <g id="line2d_24">
      <g>
       <use xlink:href="#m19a5158b03" x="30.103125" y="203.045704" style="stroke: #000000; stroke-width: 0.8"/>
      </g>
     </g>
     <g id="text_7">
      <!-- 0.4 -->
      <g transform="translate(7.2 206.844923)scale(0.1 -0.1)">
       <use xlink:href="#DejaVuSans-30"/>
       <use xlink:href="#DejaVuSans-2e" x="63.623047"/>
       <use xlink:href="#DejaVuSans-34" x="95.410156"/>
      </g>
     </g>
    </g>
    <g id="ytick_4">
     <g id="line2d_25">
      <g>
       <use xlink:href="#m19a5158b03" x="30.103125" y="148.794817" style="stroke: #000000; stroke-width: 0.8"/>
      </g>
     </g>
     <g id="text_8">
      <!-- 0.6 -->
      <g transform="translate(7.2 152.594035)scale(0.1 -0.1)">
       <use xlink:href="#DejaVuSans-30"/>
       <use xlink:href="#DejaVuSans-2e" x="63.623047"/>
       <use xlink:href="#DejaVuSans-36" x="95.410156"/>
      </g>
     </g>
    </g>
    <g id="ytick_5">
     <g id="line2d_26">
      <g>
       <use xlink:href="#m19a5158b03" x="30.103125" y="94.543929" style="stroke: #000000; stroke-width: 0.8"/>
      </g>
     </g>
     <g id="text_9">
      <!-- 0.8 -->
      <g transform="translate(7.2 98.343148)scale(0.1 -0.1)">
       <use xlink:href="#DejaVuSans-30"/>
       <use xlink:href="#DejaVuSans-2e" x="63.623047"/>
       <use xlink:href="#DejaVuSans-38" x="95.410156"/>
      </g>
     </g>
    </g>
    <g id="ytick_6">
     <g id="line2d_27">
      <g>
       <use xlink:href="#m19a5158b03" x="30.103125" y="40.293041" style="stroke: #000000; stroke-width: 0.8"/>
      </g>
     </g>
     <g id="text_10">
      <!-- 1.0 -->
      <g transform="translate(7.2 44.09226)scale(0.1 -0.1)">
       <use xlink:href="#DejaVuSans-31"/>
       <use xlink:href="#DejaVuSans-2e" x="63.623047"/>
       <use xlink:href="#DejaVuSans-30" x="95.410156"/>
      </g>
     </g>
    </g>
    <g id="ytick_7">
     <g id="line2d_28">
      <defs>
       <path id="m485603c0c8" d="M 0 0 
L -2 0 
" style="stroke: #000000; stroke-width: 0.6"/>
      </defs>
      <g>
       <use xlink:href="#m485603c0c8" x="30.103125" y="297.984757" style="stroke: #000000; stroke-width: 0.6"/>
      </g>
     </g>
    </g>
    <g id="ytick_8">
     <g id="line2d_29">
      <g>
       <use xlink:href="#m485603c0c8" x="30.103125" y="284.422036" style="stroke: #000000; stroke-width: 0.6"/>
      </g>
     </g>
    </g>
    <g id="ytick_9">
     <g id="line2d_30">
      <g>
       <use xlink:href="#m485603c0c8" x="30.103125" y="270.859314" style="stroke: #000000; stroke-width: 0.6"/>
      </g>
     </g>
    </g>
    <g id="ytick_10">
     <g id="line2d_31">
      <g>
       <use xlink:href="#m485603c0c8" x="30.103125" y="243.73387" style="stroke: #000000; stroke-width: 0.6"/>
      </g>
     </g>
    </g>
    <g id="ytick_11">
     <g id="line2d_32">
      <g>
       <use xlink:href="#m485603c0c8" x="30.103125" y="230.171148" style="stroke: #000000; stroke-width: 0.6"/>
      </g>
     </g>
    </g>
    <g id="ytick_12">
     <g id="line2d_33">
      <g>
       <use xlink:href="#m485603c0c8" x="30.103125" y="216.608426" style="stroke: #000000; stroke-width: 0.6"/>
      </g>
     </g>
    </g>
    <g id="ytick_13">
     <g id="line2d_34">
      <g>
       <use xlink:href="#m485603c0c8" x="30.103125" y="189.482982" style="stroke: #000000; stroke-width: 0.6"/>
      </g>
     </g>
    </g>
    <g id="ytick_14">
     <g id="line2d_35">
      <g>
       <use xlink:href="#m485603c0c8" x="30.103125" y="175.92026" style="stroke: #000000; stroke-width: 0.6"/>
      </g>
     </g>
    </g>
    <g id="ytick_15">
     <g id="line2d_36">
      <g>
       <use xlink:href="#m485603c0c8" x="30.103125" y="162.357538" style="stroke: #000000; stroke-width: 0.6"/>
      </g>
     </g>
    </g>
    <g id="ytick_16">
     <g id="line2d_37">
      <g>
       <use xlink:href="#m485603c0c8" x="30.103125" y="135.232095" style="stroke: #000000; stroke-width: 0.6"/>
      </g>
     </g>
    </g>
    <g id="ytick_17">
     <g id="line2d_38">
      <g>
       <use xlink:href="#m485603c0c8" x="30.103125" y="121.669373" style="stroke: #000000; stroke-width: 0.6"/>
      </g>
     </g>
    </g>
    <g id="ytick_18">
     <g id="line2d_39">
      <g>
       <use xlink:href="#m485603c0c8" x="30.103125" y="108.106651" style="stroke: #000000; stroke-width: 0.6"/>
      </g>
     </g>
    </g>
    <g id="ytick_19">
     <g id="line2d_40">
      <g>
       <use xlink:href="#m485603c0c8" x="30.103125" y="80.981207" style="stroke: #000000; stroke-width: 0.6"/>
      </g>
     </g>
    </g>
    <g id="ytick_20">
     <g id="line2d_41">
      <g>
       <use xlink:href="#m485603c0c8" x="30.103125" y="67.418485" style="stroke: #000000; stroke-width: 0.6"/>
      </g>
     </g>
    </g>
    <g id="ytick_21">
     <g id="line2d_42">
      <g>
       <use xlink:href="#m485603c0c8" x="30.103125" y="53.855763" style="stroke: #000000; stroke-width: 0.6"/>
      </g>
     </g>
    </g>
    <g id="ytick_22">
     <g id="line2d_43">
      <g>
       <use xlink:href="#m485603c0c8" x="30.103125" y="26.73032" style="stroke: #000000; stroke-width: 0.6"/>
      </g>
     </g>
    </g>
    <g id="ytick_23">
     <g id="line2d_44">
      <g>
       <use xlink:href="#m485603c0c8" x="30.103125" y="13.167598" style="stroke: #000000; stroke-width: 0.6"/>
      </g>
     </g>
    </g>
   </g>
   <g id="line2d_45">
    <path d="M 30.103125 40.293041 
L 301.357563 40.293041 
L 301.357563 40.293041 
" clip-path="url(#pdc49c2de11)" style="fill: none; stroke: #0000ff; stroke-linecap: square"/>
   </g>
   <g id="line2d_46">
    <path d="M 30.103125 311.547479 
L 35.100527 311.455411 
L 41.190129 311.094319 
L 46.312922 310.578804 
L 52.288737 309.732942 
L 57.300341 308.820561 
L 62.136682 307.764504 
L 68.058757 306.236488 
L 73.76048 304.520996 
L 79.969757 302.380142 
L 85.92163 300.061195 
L 91.207869 297.782581 
L 96.907264 295.095055 
L 103.42931 291.725759 
L 110.395419 287.78067 
L 115.520818 284.649552 
L 121.227315 280.935564 
L 128.075469 276.161588 
L 133.961038 271.782357 
L 140.638633 266.504535 
L 146.771724 261.367426 
L 152.143421 256.640235 
L 157.664534 251.559841 
L 164.387199 245.070364 
L 171.286743 238.063653 
L 178.132023 230.765189 
L 185.541498 222.475802 
L 191.729198 215.24311 
L 198.134565 207.458621 
L 205.860485 197.666763 
L 211.912254 189.689346 
L 219.012098 179.986129 
L 227.055261 168.54468 
L 233.339808 159.272922 
L 239.747666 149.519407 
L 248.280606 136.061269 
L 254.40853 126.065114 
L 262.943935 111.680361 
L 270.826101 97.919449 
L 278.589016 83.91899 
L 286.229704 69.705078 
L 294.165647 54.486191 
L 301.357563 40.293041 
L 301.357563 40.293041 
" clip-path="url(#pdc49c2de11)" style="fill: none; stroke: #ff0000; stroke-linecap: square"/>
   </g>
   <g id="patch_4">
    <path d="M 30.103125 317.515077 
L 30.103125 7.2 
" style="fill: none; stroke: #000000; stroke-width: 0.8; stroke-linejoin: miter; stroke-linecap: square"/>
   </g>
   <g id="patch_5">
    <path d="M 24.678036 311.547479 
L 306.782652 311.547479 
" style="fill: none; stroke: #000000; stroke-width: 0.8; stroke-linejoin: miter; stroke-linecap: square"/>
   </g>
   <g id="text_11">
    <!-- $y=1$ -->
    <g transform="translate(153.010344 16.454473)scale(0.12 -0.12)">
     <defs>
      <path id="Cmmi10-79" d="M 538 -916 
Q 672 -1147 1006 -1147 
Q 1309 -1147 1531 -934 
Q 1753 -722 1889 -420 
Q 2025 -119 2100 197 
Q 1816 -72 1484 -72 
Q 1231 -72 1053 15 
Q 875 103 776 276 
Q 678 450 678 697 
Q 678 906 734 1126 
Q 791 1347 892 1617 
Q 994 1888 1069 2088 
Q 1153 2322 1153 2472 
Q 1153 2663 1013 2663 
Q 759 2663 595 2402 
Q 431 2141 353 1819 
Q 341 1778 300 1778 
L 225 1778 
Q 172 1778 172 1838 
L 172 1856 
Q 275 2238 487 2533 
Q 700 2828 1025 2828 
Q 1253 2828 1411 2678 
Q 1569 2528 1569 2297 
Q 1569 2178 1516 2047 
Q 1488 1969 1388 1706 
Q 1288 1444 1234 1272 
Q 1181 1100 1147 934 
Q 1113 769 1113 603 
Q 1113 391 1203 244 
Q 1294 97 1491 97 
Q 1888 97 2203 581 
L 2688 2553 
Q 2709 2638 2787 2698 
Q 2866 2759 2956 2759 
Q 3034 2759 3092 2709 
Q 3150 2659 3150 2578 
Q 3150 2541 3144 2528 
L 2509 -19 
Q 2425 -347 2200 -647 
Q 1975 -947 1658 -1130 
Q 1341 -1313 997 -1313 
Q 831 -1313 668 -1248 
Q 506 -1184 406 -1056 
Q 306 -928 306 -756 
Q 306 -581 409 -453 
Q 513 -325 684 -325 
Q 788 -325 858 -389 
Q 928 -453 928 -556 
Q 928 -703 818 -812 
Q 709 -922 563 -922 
Q 556 -919 550 -917 
Q 544 -916 538 -916 
z
" transform="scale(0.015625)"/>
      <path id="Cmr10-3d" d="M 481 850 
Q 428 850 393 890 
Q 359 931 359 978 
Q 359 1031 393 1068 
Q 428 1106 481 1106 
L 4500 1106 
Q 4547 1106 4581 1068 
Q 4616 1031 4616 978 
Q 4616 931 4581 890 
Q 4547 850 4500 850 
L 481 850 
z
M 481 2094 
Q 428 2094 393 2131 
Q 359 2169 359 2222 
Q 359 2269 393 2309 
Q 428 2350 481 2350 
L 4500 2350 
Q 4547 2350 4581 2309 
Q 4616 2269 4616 2222 
Q 4616 2169 4581 2131 
Q 4547 2094 4500 2094 
L 481 2094 
z
" transform="scale(0.015625)"/>
      <path id="Cmr10-31" d="M 594 0 
L 594 225 
Q 1394 225 1394 428 
L 1394 3788 
Q 1063 3628 556 3628 
L 556 3853 
Q 1341 3853 1741 4263 
L 1831 4263 
Q 1853 4263 1873 4245 
Q 1894 4228 1894 4206 
L 1894 428 
Q 1894 225 2694 225 
L 2694 0 
L 594 0 
z
" transform="scale(0.015625)"/>
     </defs>
     <use xlink:href="#Cmmi10-79" transform="translate(0 0.390625)"/>
     <use xlink:href="#Cmr10-3d" transform="translate(66.582031 0.390625)"/>
     <use xlink:href="#Cmr10-31" transform="translate(161.826172 0.390625)"/>
    </g>
   </g>
   <g id="text_12">
    <!-- $y=x^2$ -->
    <g transform="translate(149.710344 220.448426)scale(0.12 -0.12)">
     <defs>
      <path id="Cmmi10-78" d="M 500 184 
Q 613 97 819 97 
Q 1019 97 1172 289 
Q 1325 481 1381 709 
L 1672 1844 
Q 1741 2153 1741 2266 
Q 1741 2425 1652 2544 
Q 1563 2663 1403 2663 
Q 1200 2663 1022 2536 
Q 844 2409 722 2214 
Q 600 2019 550 1819 
Q 538 1778 500 1778 
L 422 1778 
Q 372 1778 372 1838 
L 372 1856 
Q 434 2094 584 2320 
Q 734 2547 951 2687 
Q 1169 2828 1416 2828 
Q 1650 2828 1839 2703 
Q 2028 2578 2106 2363 
Q 2216 2559 2386 2693 
Q 2556 2828 2759 2828 
Q 2897 2828 3040 2779 
Q 3184 2731 3275 2631 
Q 3366 2531 3366 2381 
Q 3366 2219 3261 2101 
Q 3156 1984 2994 1984 
Q 2891 1984 2822 2050 
Q 2753 2116 2753 2216 
Q 2753 2350 2845 2451 
Q 2938 2553 3066 2572 
Q 2950 2663 2747 2663 
Q 2541 2663 2389 2472 
Q 2238 2281 2175 2047 
L 1894 916 
Q 1825 659 1825 494 
Q 1825 331 1917 214 
Q 2009 97 2163 97 
Q 2463 97 2698 361 
Q 2934 625 3009 941 
Q 3022 978 3059 978 
L 3138 978 
Q 3163 978 3178 961 
Q 3194 944 3194 922 
Q 3194 916 3188 903 
Q 3097 522 2806 225 
Q 2516 -72 2150 -72 
Q 1916 -72 1727 54 
Q 1538 181 1459 397 
Q 1359 209 1182 68 
Q 1006 -72 806 -72 
Q 669 -72 523 -23 
Q 378 25 287 125 
Q 197 225 197 378 
Q 197 528 301 651 
Q 406 775 563 775 
Q 669 775 741 711 
Q 813 647 813 544 
Q 813 409 723 309 
Q 634 209 500 184 
z
" transform="scale(0.015625)"/>
      <path id="Cmr10-32" d="M 319 0 
L 319 172 
Q 319 188 331 206 
L 1325 1306 
Q 1550 1550 1690 1715 
Q 1831 1881 1968 2097 
Q 2106 2313 2186 2536 
Q 2266 2759 2266 3009 
Q 2266 3272 2169 3511 
Q 2072 3750 1880 3894 
Q 1688 4038 1416 4038 
Q 1138 4038 916 3870 
Q 694 3703 603 3438 
Q 628 3444 672 3444 
Q 816 3444 917 3347 
Q 1019 3250 1019 3097 
Q 1019 2950 917 2848 
Q 816 2747 672 2747 
Q 522 2747 420 2851 
Q 319 2956 319 3097 
Q 319 3338 409 3548 
Q 500 3759 670 3923 
Q 841 4088 1055 4175 
Q 1269 4263 1509 4263 
Q 1875 4263 2190 4108 
Q 2506 3953 2690 3670 
Q 2875 3388 2875 3009 
Q 2875 2731 2753 2481 
Q 2631 2231 2440 2026 
Q 2250 1822 1953 1562 
Q 1656 1303 1563 1216 
L 838 519 
L 1453 519 
Q 1906 519 2211 526 
Q 2516 534 2534 550 
Q 2609 631 2688 1141 
L 2875 1141 
L 2694 0 
L 319 0 
z
" transform="scale(0.015625)"/>
     </defs>
     <use xlink:href="#Cmmi10-79" transform="translate(0 0.109375)"/>
     <use xlink:href="#Cmr10-3d" transform="translate(66.582031 0.109375)"/>
     <use xlink:href="#Cmmi10-78" transform="translate(161.826172 0.109375)"/>
     <use xlink:href="#Cmr10-32" transform="translate(225.209531 38.373438)scale(0.7)"/>
    </g>
   </g>
   <g id="text_13">
    <!-- $\mathcal{R}$ -->
    <g transform="translate(79.254013 97.855179)scale(0.12 -0.12)">
     <defs>
      <path id="Cmsy10-52" d="M 738 -91 
Q 738 -78 744 -56 
Q 966 475 1128 959 
Q 1291 1444 1428 1991 
Q 1678 2959 1766 3994 
Q 1425 3994 1094 3872 
Q 922 3803 833 3695 
Q 744 3588 684 3397 
Q 622 3291 472 3197 
Q 322 3103 206 3103 
L 166 3103 
Q 122 3131 122 3169 
Q 234 3556 581 3828 
Q 928 4100 1387 4236 
Q 1847 4372 2259 4372 
L 2931 4372 
Q 3378 4372 3739 4331 
Q 4100 4291 4392 4112 
Q 4684 3934 4684 3572 
Q 4684 3281 4548 3014 
Q 4413 2747 4189 2533 
Q 3966 2319 3697 2158 
Q 3428 1997 3156 1900 
Q 3253 1784 3383 1501 
Q 3513 1219 3659 911 
Q 3806 603 3951 420 
Q 4097 238 4256 238 
Q 4444 238 4551 308 
Q 4659 378 4775 520 
Q 4891 663 4997 745 
Q 5103 828 5281 844 
L 5319 844 
Q 5363 822 5363 794 
Q 5363 784 5356 768 
Q 5350 753 5344 738 
Q 5188 503 4936 297 
Q 4684 91 4393 -25 
Q 4103 -141 3828 -141 
L 3788 -141 
Q 3541 -141 3372 98 
Q 3203 338 3003 811 
Q 2803 1284 2651 1515 
Q 2500 1747 2278 1747 
Q 2266 1753 2250 1765 
Q 2234 1778 2234 1797 
Q 2234 1900 2420 2006 
Q 2606 2113 2719 2125 
Q 3072 2125 3395 2262 
Q 3719 2400 3917 2667 
Q 4116 2934 4116 3291 
Q 4116 3613 3833 3767 
Q 3550 3922 3203 3958 
Q 2856 3994 2450 3994 
L 2309 3994 
Q 2209 3041 1954 2070 
Q 1700 1100 1300 153 
Q 1238 41 1092 -43 
Q 947 -128 813 -141 
L 781 -141 
Q 769 -134 753 -121 
Q 738 -109 738 -91 
z
" transform="scale(0.015625)"/>
     </defs>
     <use xlink:href="#Cmsy10-52" transform="translate(0 0.6875)"/>
    </g>
   </g>
  </g>
 </g>
 <defs>
  <clipPath id="pdc49c2de11">
   <rect x="24.678036" y="7.2" width="282.104615" height="310.315077"/>
  </clipPath>
 </defs>
</svg>
