<?xml version="1.0" encoding="utf-8" standalone="no"?>
<!DOCTYPE svg PUBLIC "-//W3C//DTD SVG 1.1//EN"
  "http://www.w3.org/Graphics/SVG/1.1/DTD/svg11.dtd">
<svg xmlns:xlink="http://www.w3.org/1999/xlink" width="282.957596pt" height="337.397427pt" viewBox="0 0 282.957596 337.397427" xmlns="http://www.w3.org/2000/svg" version="1.1">
 <metadata>
  <rdf:RDF xmlns:dc="http://purl.org/dc/elements/1.1/" xmlns:cc="http://creativecommons.org/ns#" xmlns:rdf="http://www.w3.org/1999/02/22-rdf-syntax-ns#">
   <cc:Work>
    <dc:type rdf:resource="http://purl.org/dc/dcmitype/StillImage"/>
    <dc:date>2022-10-20T20:46:16.717596</dc:date>
    <dc:format>image/svg+xml</dc:format>
    <dc:creator>
     <cc:Agent>
      <dc:title>Matplotlib v3.5.1, https://matplotlib.org/</dc:title>
     </cc:Agent>
    </dc:creator>
   </cc:Work>
  </rdf:RDF>
 </metadata>
 <defs>
  <style type="text/css">*{stroke-linejoin: round; stroke-linecap: butt}</style>
 </defs>
 <g id="figure_1">
  <g id="patch_1">
   <path d="M 0 337.397427 
L 282.957596 337.397427 
L 282.957596 0 
L 0 0 
z
" style="fill: #ffffff"/>
  </g>
  <g id="axes_1">
   <g id="patch_2">
    <path d="M 14.372988 330.197427 
L 272.775309 330.197427 
L 272.775309 7.2 
L 14.372988 7.2 
z
" style="fill: #ffffff"/>
   </g>
   <g id="matplotlib.axis_1">
    <g id="xtick_1">
     <g id="line2d_1">
      <defs>
       <path id="mf43b0ce0f4" d="M 0 0 
L 0 3.5 
" style="stroke: #000000; stroke-width: 0.8"/>
      </defs>
      <g>
       <use xlink:href="#mf43b0ce0f4" x="19.341406" y="199.753759" style="stroke: #000000; stroke-width: 0.8"/>
      </g>
     </g>
     <g id="text_1">
      <!-- −2.0 -->
      <g transform="translate(7.2 214.352197)scale(0.1 -0.1)">
       <defs>
        <path id="DejaVuSans-2212" d="M 678 2272 
L 4684 2272 
L 4684 1741 
L 678 1741 
L 678 2272 
z
" transform="scale(0.015625)"/>
        <path id="DejaVuSans-32" d="M 1228 531 
L 3431 531 
L 3431 0 
L 469 0 
L 469 531 
Q 828 903 1448 1529 
Q 2069 2156 2228 2338 
Q 2531 2678 2651 2914 
Q 2772 3150 2772 3378 
Q 2772 3750 2511 3984 
Q 2250 4219 1831 4219 
Q 1534 4219 1204 4116 
Q 875 4013 500 3803 
L 500 4441 
Q 881 4594 1212 4672 
Q 1544 4750 1819 4750 
Q 2544 4750 2975 4387 
Q 3406 4025 3406 3419 
Q 3406 3131 3298 2873 
Q 3191 2616 2906 2266 
Q 2828 2175 2409 1742 
Q 1991 1309 1228 531 
z
" transform="scale(0.015625)"/>
        <path id="DejaVuSans-2e" d="M 684 794 
L 1344 794 
L 1344 0 
L 684 0 
L 684 794 
z
" transform="scale(0.015625)"/>
        <path id="DejaVuSans-30" d="M 2034 4250 
Q 1547 4250 1301 3770 
Q 1056 3291 1056 2328 
Q 1056 1369 1301 889 
Q 1547 409 2034 409 
Q 2525 409 2770 889 
Q 3016 1369 3016 2328 
Q 3016 3291 2770 3770 
Q 2525 4250 2034 4250 
z
M 2034 4750 
Q 2819 4750 3233 4129 
Q 3647 3509 3647 2328 
Q 3647 1150 3233 529 
Q 2819 -91 2034 -91 
Q 1250 -91 836 529 
Q 422 1150 422 2328 
Q 422 3509 836 4129 
Q 1250 4750 2034 4750 
z
" transform="scale(0.015625)"/>
       </defs>
       <use xlink:href="#DejaVuSans-2212"/>
       <use xlink:href="#DejaVuSans-32" x="83.789062"/>
       <use xlink:href="#DejaVuSans-2e" x="147.412109"/>
       <use xlink:href="#DejaVuSans-30" x="179.199219"/>
      </g>
     </g>
    </g>
    <g id="xtick_2">
     <g id="line2d_2">
      <g>
       <use xlink:href="#mf43b0ce0f4" x="50.399485" y="199.753759" style="stroke: #000000; stroke-width: 0.8"/>
      </g>
     </g>
     <g id="text_2">
      <!-- −1.5 -->
      <g transform="translate(38.258078 214.352197)scale(0.1 -0.1)">
       <defs>
        <path id="DejaVuSans-31" d="M 794 531 
L 1825 531 
L 1825 4091 
L 703 3866 
L 703 4441 
L 1819 4666 
L 2450 4666 
L 2450 531 
L 3481 531 
L 3481 0 
L 794 0 
L 794 531 
z
" transform="scale(0.015625)"/>
        <path id="DejaVuSans-35" d="M 691 4666 
L 3169 4666 
L 3169 4134 
L 1269 4134 
L 1269 2991 
Q 1406 3038 1543 3061 
Q 1681 3084 1819 3084 
Q 2600 3084 3056 2656 
Q 3513 2228 3513 1497 
Q 3513 744 3044 326 
Q 2575 -91 1722 -91 
Q 1428 -91 1123 -41 
Q 819 9 494 109 
L 494 744 
Q 775 591 1075 516 
Q 1375 441 1709 441 
Q 2250 441 2565 725 
Q 2881 1009 2881 1497 
Q 2881 1984 2565 2268 
Q 2250 2553 1709 2553 
Q 1456 2553 1204 2497 
Q 953 2441 691 2322 
L 691 4666 
z
" transform="scale(0.015625)"/>
       </defs>
       <use xlink:href="#DejaVuSans-2212"/>
       <use xlink:href="#DejaVuSans-31" x="83.789062"/>
       <use xlink:href="#DejaVuSans-2e" x="147.412109"/>
       <use xlink:href="#DejaVuSans-35" x="179.199219"/>
      </g>
     </g>
    </g>
    <g id="xtick_3">
     <g id="line2d_3">
      <g>
       <use xlink:href="#mf43b0ce0f4" x="81.457563" y="199.753759" style="stroke: #000000; stroke-width: 0.8"/>
      </g>
     </g>
     <g id="text_3">
      <!-- −1.0 -->
      <g transform="translate(69.316157 214.352197)scale(0.1 -0.1)">
       <use xlink:href="#DejaVuSans-2212"/>
       <use xlink:href="#DejaVuSans-31" x="83.789062"/>
       <use xlink:href="#DejaVuSans-2e" x="147.412109"/>
       <use xlink:href="#DejaVuSans-30" x="179.199219"/>
      </g>
     </g>
    </g>
    <g id="xtick_4">
     <g id="line2d_4">
      <g>
       <use xlink:href="#mf43b0ce0f4" x="112.515642" y="199.753759" style="stroke: #000000; stroke-width: 0.8"/>
      </g>
     </g>
     <g id="text_4">
      <!-- −0.5 -->
      <g transform="translate(100.374235 214.352197)scale(0.1 -0.1)">
       <use xlink:href="#DejaVuSans-2212"/>
       <use xlink:href="#DejaVuSans-30" x="83.789062"/>
       <use xlink:href="#DejaVuSans-2e" x="147.412109"/>
       <use xlink:href="#DejaVuSans-35" x="179.199219"/>
      </g>
     </g>
    </g>
    <g id="xtick_5">
     <g id="line2d_5">
      <g>
       <use xlink:href="#mf43b0ce0f4" x="143.57372" y="199.753759" style="stroke: #000000; stroke-width: 0.8"/>
      </g>
     </g>
    </g>
    <g id="xtick_6">
     <g id="line2d_6">
      <g>
       <use xlink:href="#mf43b0ce0f4" x="174.631798" y="199.753759" style="stroke: #000000; stroke-width: 0.8"/>
      </g>
     </g>
     <g id="text_5">
      <!-- 0.5 -->
      <g transform="translate(166.680236 214.352197)scale(0.1 -0.1)">
       <use xlink:href="#DejaVuSans-30"/>
       <use xlink:href="#DejaVuSans-2e" x="63.623047"/>
       <use xlink:href="#DejaVuSans-35" x="95.410156"/>
      </g>
     </g>
    </g>
    <g id="xtick_7">
     <g id="line2d_7">
      <g>
       <use xlink:href="#mf43b0ce0f4" x="205.689877" y="199.753759" style="stroke: #000000; stroke-width: 0.8"/>
      </g>
     </g>
     <g id="text_6">
      <!-- 1.0 -->
      <g transform="translate(197.738314 214.352197)scale(0.1 -0.1)">
       <use xlink:href="#DejaVuSans-31"/>
       <use xlink:href="#DejaVuSans-2e" x="63.623047"/>
       <use xlink:href="#DejaVuSans-30" x="95.410156"/>
      </g>
     </g>
    </g>
    <g id="xtick_8">
     <g id="line2d_8">
      <g>
       <use xlink:href="#mf43b0ce0f4" x="236.747955" y="199.753759" style="stroke: #000000; stroke-width: 0.8"/>
      </g>
     </g>
     <g id="text_7">
      <!-- 1.5 -->
      <g transform="translate(228.796393 214.352197)scale(0.1 -0.1)">
       <use xlink:href="#DejaVuSans-31"/>
       <use xlink:href="#DejaVuSans-2e" x="63.623047"/>
       <use xlink:href="#DejaVuSans-35" x="95.410156"/>
      </g>
     </g>
    </g>
    <g id="xtick_9">
     <g id="line2d_9">
      <g>
       <use xlink:href="#mf43b0ce0f4" x="267.806034" y="199.753759" style="stroke: #000000; stroke-width: 0.8"/>
      </g>
     </g>
     <g id="text_8">
      <!-- 2.0 -->
      <g transform="translate(259.854471 214.352197)scale(0.1 -0.1)">
       <use xlink:href="#DejaVuSans-32"/>
       <use xlink:href="#DejaVuSans-2e" x="63.623047"/>
       <use xlink:href="#DejaVuSans-30" x="95.410156"/>
      </g>
     </g>
    </g>
    <g id="xtick_10">
     <g id="line2d_10">
      <defs>
       <path id="m5aec7d9868" d="M 0 0 
L 0 2 
" style="stroke: #000000; stroke-width: 0.6"/>
      </defs>
      <g>
       <use xlink:href="#m5aec7d9868" x="25.553022" y="199.753759" style="stroke: #000000; stroke-width: 0.6"/>
      </g>
     </g>
    </g>
    <g id="xtick_11">
     <g id="line2d_11">
      <g>
       <use xlink:href="#m5aec7d9868" x="31.764638" y="199.753759" style="stroke: #000000; stroke-width: 0.6"/>
      </g>
     </g>
    </g>
    <g id="xtick_12">
     <g id="line2d_12">
      <g>
       <use xlink:href="#m5aec7d9868" x="37.976253" y="199.753759" style="stroke: #000000; stroke-width: 0.6"/>
      </g>
     </g>
    </g>
    <g id="xtick_13">
     <g id="line2d_13">
      <g>
       <use xlink:href="#m5aec7d9868" x="44.187869" y="199.753759" style="stroke: #000000; stroke-width: 0.6"/>
      </g>
     </g>
    </g>
    <g id="xtick_14">
     <g id="line2d_14">
      <g>
       <use xlink:href="#m5aec7d9868" x="56.6111" y="199.753759" style="stroke: #000000; stroke-width: 0.6"/>
      </g>
     </g>
    </g>
    <g id="xtick_15">
     <g id="line2d_15">
      <g>
       <use xlink:href="#m5aec7d9868" x="62.822716" y="199.753759" style="stroke: #000000; stroke-width: 0.6"/>
      </g>
     </g>
    </g>
    <g id="xtick_16">
     <g id="line2d_16">
      <g>
       <use xlink:href="#m5aec7d9868" x="69.034332" y="199.753759" style="stroke: #000000; stroke-width: 0.6"/>
      </g>
     </g>
    </g>
    <g id="xtick_17">
     <g id="line2d_17">
      <g>
       <use xlink:href="#m5aec7d9868" x="75.245947" y="199.753759" style="stroke: #000000; stroke-width: 0.6"/>
      </g>
     </g>
    </g>
    <g id="xtick_18">
     <g id="line2d_18">
      <g>
       <use xlink:href="#m5aec7d9868" x="87.669179" y="199.753759" style="stroke: #000000; stroke-width: 0.6"/>
      </g>
     </g>
    </g>
    <g id="xtick_19">
     <g id="line2d_19">
      <g>
       <use xlink:href="#m5aec7d9868" x="93.880795" y="199.753759" style="stroke: #000000; stroke-width: 0.6"/>
      </g>
     </g>
    </g>
    <g id="xtick_20">
     <g id="line2d_20">
      <g>
       <use xlink:href="#m5aec7d9868" x="100.09241" y="199.753759" style="stroke: #000000; stroke-width: 0.6"/>
      </g>
     </g>
    </g>
    <g id="xtick_21">
     <g id="line2d_21">
      <g>
       <use xlink:href="#m5aec7d9868" x="106.304026" y="199.753759" style="stroke: #000000; stroke-width: 0.6"/>
      </g>
     </g>
    </g>
    <g id="xtick_22">
     <g id="line2d_22">
      <g>
       <use xlink:href="#m5aec7d9868" x="118.727257" y="199.753759" style="stroke: #000000; stroke-width: 0.6"/>
      </g>
     </g>
    </g>
    <g id="xtick_23">
     <g id="line2d_23">
      <g>
       <use xlink:href="#m5aec7d9868" x="124.938873" y="199.753759" style="stroke: #000000; stroke-width: 0.6"/>
      </g>
     </g>
    </g>
    <g id="xtick_24">
     <g id="line2d_24">
      <g>
       <use xlink:href="#m5aec7d9868" x="131.150489" y="199.753759" style="stroke: #000000; stroke-width: 0.6"/>
      </g>
     </g>
    </g>
    <g id="xtick_25">
     <g id="line2d_25">
      <g>
       <use xlink:href="#m5aec7d9868" x="137.362104" y="199.753759" style="stroke: #000000; stroke-width: 0.6"/>
      </g>
     </g>
    </g>
    <g id="xtick_26">
     <g id="line2d_26">
      <g>
       <use xlink:href="#m5aec7d9868" x="149.785336" y="199.753759" style="stroke: #000000; stroke-width: 0.6"/>
      </g>
     </g>
    </g>
    <g id="xtick_27">
     <g id="line2d_27">
      <g>
       <use xlink:href="#m5aec7d9868" x="155.996951" y="199.753759" style="stroke: #000000; stroke-width: 0.6"/>
      </g>
     </g>
    </g>
    <g id="xtick_28">
     <g id="line2d_28">
      <g>
       <use xlink:href="#m5aec7d9868" x="162.208567" y="199.753759" style="stroke: #000000; stroke-width: 0.6"/>
      </g>
     </g>
    </g>
    <g id="xtick_29">
     <g id="line2d_29">
      <g>
       <use xlink:href="#m5aec7d9868" x="168.420183" y="199.753759" style="stroke: #000000; stroke-width: 0.6"/>
      </g>
     </g>
    </g>
    <g id="xtick_30">
     <g id="line2d_30">
      <g>
       <use xlink:href="#m5aec7d9868" x="180.843414" y="199.753759" style="stroke: #000000; stroke-width: 0.6"/>
      </g>
     </g>
    </g>
    <g id="xtick_31">
     <g id="line2d_31">
      <g>
       <use xlink:href="#m5aec7d9868" x="187.05503" y="199.753759" style="stroke: #000000; stroke-width: 0.6"/>
      </g>
     </g>
    </g>
    <g id="xtick_32">
     <g id="line2d_32">
      <g>
       <use xlink:href="#m5aec7d9868" x="193.266646" y="199.753759" style="stroke: #000000; stroke-width: 0.6"/>
      </g>
     </g>
    </g>
    <g id="xtick_33">
     <g id="line2d_33">
      <g>
       <use xlink:href="#m5aec7d9868" x="199.478261" y="199.753759" style="stroke: #000000; stroke-width: 0.6"/>
      </g>
     </g>
    </g>
    <g id="xtick_34">
     <g id="line2d_34">
      <g>
       <use xlink:href="#m5aec7d9868" x="211.901493" y="199.753759" style="stroke: #000000; stroke-width: 0.6"/>
      </g>
     </g>
    </g>
    <g id="xtick_35">
     <g id="line2d_35">
      <g>
       <use xlink:href="#m5aec7d9868" x="218.113108" y="199.753759" style="stroke: #000000; stroke-width: 0.6"/>
      </g>
     </g>
    </g>
    <g id="xtick_36">
     <g id="line2d_36">
      <g>
       <use xlink:href="#m5aec7d9868" x="224.324724" y="199.753759" style="stroke: #000000; stroke-width: 0.6"/>
      </g>
     </g>
    </g>
    <g id="xtick_37">
     <g id="line2d_37">
      <g>
       <use xlink:href="#m5aec7d9868" x="230.53634" y="199.753759" style="stroke: #000000; stroke-width: 0.6"/>
      </g>
     </g>
    </g>
    <g id="xtick_38">
     <g id="line2d_38">
      <g>
       <use xlink:href="#m5aec7d9868" x="242.959571" y="199.753759" style="stroke: #000000; stroke-width: 0.6"/>
      </g>
     </g>
    </g>
    <g id="xtick_39">
     <g id="line2d_39">
      <g>
       <use xlink:href="#m5aec7d9868" x="249.171187" y="199.753759" style="stroke: #000000; stroke-width: 0.6"/>
      </g>
     </g>
    </g>
    <g id="xtick_40">
     <g id="line2d_40">
      <g>
       <use xlink:href="#m5aec7d9868" x="255.382802" y="199.753759" style="stroke: #000000; stroke-width: 0.6"/>
      </g>
     </g>
    </g>
    <g id="xtick_41">
     <g id="line2d_41">
      <g>
       <use xlink:href="#m5aec7d9868" x="261.594418" y="199.753759" style="stroke: #000000; stroke-width: 0.6"/>
      </g>
     </g>
    </g>
   </g>
   <g id="matplotlib.axis_2">
    <g id="ytick_1">
     <g id="line2d_42">
      <defs>
       <path id="me933290d5e" d="M 0 0 
L -3.5 0 
" style="stroke: #000000; stroke-width: 0.8"/>
      </defs>
      <g>
       <use xlink:href="#me933290d5e" x="143.57372" y="323.986073" style="stroke: #000000; stroke-width: 0.8"/>
      </g>
     </g>
     <g id="text_9">
      <!-- −2 -->
      <g transform="translate(121.831533 327.785292)scale(0.1 -0.1)">
       <use xlink:href="#DejaVuSans-2212"/>
       <use xlink:href="#DejaVuSans-32" x="83.789062"/>
      </g>
     </g>
    </g>
    <g id="ytick_2">
     <g id="line2d_43">
      <g>
       <use xlink:href="#me933290d5e" x="143.57372" y="261.869916" style="stroke: #000000; stroke-width: 0.8"/>
      </g>
     </g>
     <g id="text_10">
      <!-- −1 -->
      <g transform="translate(121.831533 265.669135)scale(0.1 -0.1)">
       <use xlink:href="#DejaVuSans-2212"/>
       <use xlink:href="#DejaVuSans-31" x="83.789062"/>
      </g>
     </g>
    </g>
    <g id="ytick_3">
     <g id="line2d_44">
      <g>
       <use xlink:href="#me933290d5e" x="143.57372" y="199.753759" style="stroke: #000000; stroke-width: 0.8"/>
      </g>
     </g>
    </g>
    <g id="ytick_4">
     <g id="line2d_45">
      <g>
       <use xlink:href="#me933290d5e" x="143.57372" y="137.637603" style="stroke: #000000; stroke-width: 0.8"/>
      </g>
     </g>
     <g id="text_11">
      <!-- 1 -->
      <g transform="translate(130.21122 141.436821)scale(0.1 -0.1)">
       <use xlink:href="#DejaVuSans-31"/>
      </g>
     </g>
    </g>
    <g id="ytick_5">
     <g id="line2d_46">
      <g>
       <use xlink:href="#me933290d5e" x="143.57372" y="75.521446" style="stroke: #000000; stroke-width: 0.8"/>
      </g>
     </g>
     <g id="text_12">
      <!-- 2 -->
      <g transform="translate(130.21122 79.320664)scale(0.1 -0.1)">
       <use xlink:href="#DejaVuSans-32"/>
      </g>
     </g>
    </g>
    <g id="ytick_6">
     <g id="line2d_47">
      <g>
       <use xlink:href="#me933290d5e" x="143.57372" y="13.405289" style="stroke: #000000; stroke-width: 0.8"/>
      </g>
     </g>
     <g id="text_13">
      <!-- 3 -->
      <g transform="translate(130.21122 17.204508)scale(0.1 -0.1)">
       <defs>
        <path id="DejaVuSans-33" d="M 2597 2516 
Q 3050 2419 3304 2112 
Q 3559 1806 3559 1356 
Q 3559 666 3084 287 
Q 2609 -91 1734 -91 
Q 1441 -91 1130 -33 
Q 819 25 488 141 
L 488 750 
Q 750 597 1062 519 
Q 1375 441 1716 441 
Q 2309 441 2620 675 
Q 2931 909 2931 1356 
Q 2931 1769 2642 2001 
Q 2353 2234 1838 2234 
L 1294 2234 
L 1294 2753 
L 1863 2753 
Q 2328 2753 2575 2939 
Q 2822 3125 2822 3475 
Q 2822 3834 2567 4026 
Q 2313 4219 1838 4219 
Q 1578 4219 1281 4162 
Q 984 4106 628 3988 
L 628 4550 
Q 988 4650 1302 4700 
Q 1616 4750 1894 4750 
Q 2613 4750 3031 4423 
Q 3450 4097 3450 3541 
Q 3450 3153 3228 2886 
Q 3006 2619 2597 2516 
z
" transform="scale(0.015625)"/>
       </defs>
       <use xlink:href="#DejaVuSans-33"/>
      </g>
     </g>
    </g>
    <g id="ytick_7">
     <g id="line2d_48">
      <defs>
       <path id="m85436852dc" d="M 0 0 
L -2 0 
" style="stroke: #000000; stroke-width: 0.6"/>
      </defs>
      <g>
       <use xlink:href="#m85436852dc" x="143.57372" y="311.562842" style="stroke: #000000; stroke-width: 0.6"/>
      </g>
     </g>
    </g>
    <g id="ytick_8">
     <g id="line2d_49">
      <g>
       <use xlink:href="#m85436852dc" x="143.57372" y="299.13961" style="stroke: #000000; stroke-width: 0.6"/>
      </g>
     </g>
    </g>
    <g id="ytick_9">
     <g id="line2d_50">
      <g>
       <use xlink:href="#m85436852dc" x="143.57372" y="286.716379" style="stroke: #000000; stroke-width: 0.6"/>
      </g>
     </g>
    </g>
    <g id="ytick_10">
     <g id="line2d_51">
      <g>
       <use xlink:href="#m85436852dc" x="143.57372" y="274.293148" style="stroke: #000000; stroke-width: 0.6"/>
      </g>
     </g>
    </g>
    <g id="ytick_11">
     <g id="line2d_52">
      <g>
       <use xlink:href="#m85436852dc" x="143.57372" y="249.446685" style="stroke: #000000; stroke-width: 0.6"/>
      </g>
     </g>
    </g>
    <g id="ytick_12">
     <g id="line2d_53">
      <g>
       <use xlink:href="#m85436852dc" x="143.57372" y="237.023454" style="stroke: #000000; stroke-width: 0.6"/>
      </g>
     </g>
    </g>
    <g id="ytick_13">
     <g id="line2d_54">
      <g>
       <use xlink:href="#m85436852dc" x="143.57372" y="224.600222" style="stroke: #000000; stroke-width: 0.6"/>
      </g>
     </g>
    </g>
    <g id="ytick_14">
     <g id="line2d_55">
      <g>
       <use xlink:href="#m85436852dc" x="143.57372" y="212.176991" style="stroke: #000000; stroke-width: 0.6"/>
      </g>
     </g>
    </g>
    <g id="ytick_15">
     <g id="line2d_56">
      <g>
       <use xlink:href="#m85436852dc" x="143.57372" y="187.330528" style="stroke: #000000; stroke-width: 0.6"/>
      </g>
     </g>
    </g>
    <g id="ytick_16">
     <g id="line2d_57">
      <g>
       <use xlink:href="#m85436852dc" x="143.57372" y="174.907297" style="stroke: #000000; stroke-width: 0.6"/>
      </g>
     </g>
    </g>
    <g id="ytick_17">
     <g id="line2d_58">
      <g>
       <use xlink:href="#m85436852dc" x="143.57372" y="162.484065" style="stroke: #000000; stroke-width: 0.6"/>
      </g>
     </g>
    </g>
    <g id="ytick_18">
     <g id="line2d_59">
      <g>
       <use xlink:href="#m85436852dc" x="143.57372" y="150.060834" style="stroke: #000000; stroke-width: 0.6"/>
      </g>
     </g>
    </g>
    <g id="ytick_19">
     <g id="line2d_60">
      <g>
       <use xlink:href="#m85436852dc" x="143.57372" y="125.214371" style="stroke: #000000; stroke-width: 0.6"/>
      </g>
     </g>
    </g>
    <g id="ytick_20">
     <g id="line2d_61">
      <g>
       <use xlink:href="#m85436852dc" x="143.57372" y="112.79114" style="stroke: #000000; stroke-width: 0.6"/>
      </g>
     </g>
    </g>
    <g id="ytick_21">
     <g id="line2d_62">
      <g>
       <use xlink:href="#m85436852dc" x="143.57372" y="100.367908" style="stroke: #000000; stroke-width: 0.6"/>
      </g>
     </g>
    </g>
    <g id="ytick_22">
     <g id="line2d_63">
      <g>
       <use xlink:href="#m85436852dc" x="143.57372" y="87.944677" style="stroke: #000000; stroke-width: 0.6"/>
      </g>
     </g>
    </g>
    <g id="ytick_23">
     <g id="line2d_64">
      <g>
       <use xlink:href="#m85436852dc" x="143.57372" y="63.098214" style="stroke: #000000; stroke-width: 0.6"/>
      </g>
     </g>
    </g>
    <g id="ytick_24">
     <g id="line2d_65">
      <g>
       <use xlink:href="#m85436852dc" x="143.57372" y="50.674983" style="stroke: #000000; stroke-width: 0.6"/>
      </g>
     </g>
    </g>
    <g id="ytick_25">
     <g id="line2d_66">
      <g>
       <use xlink:href="#m85436852dc" x="143.57372" y="38.251752" style="stroke: #000000; stroke-width: 0.6"/>
      </g>
     </g>
    </g>
    <g id="ytick_26">
     <g id="line2d_67">
      <g>
       <use xlink:href="#m85436852dc" x="143.57372" y="25.82852" style="stroke: #000000; stroke-width: 0.6"/>
      </g>
     </g>
    </g>
   </g>
   <g id="line2d_68">
    <path d="M 205.689877 199.753759 
L 208.45694 198.299723 
L 214.999815 194.263838 
L 220.168573 190.407947 
L 223.99603 187.110337 
L 226.639879 184.579738 
L 229.747431 181.302421 
L 232.644193 177.906497 
L 237.500709 171.290604 
L 240.174122 167.007789 
L 243.098669 161.597427 
L 245.046545 157.419634 
L 246.964298 152.663666 
L 248.517792 148.126072 
L 249.846953 143.478161 
L 250.794476 139.452845 
L 251.386113 136.431914 
L 252.331432 129.864266 
L 252.681165 125.916859 
L 252.891597 121.066745 
L 252.870929 116.475014 
L 252.553333 110.816262 
L 251.760224 104.120875 
L 250.645592 98.053165 
L 249.975607 95.146502 
L 248.886923 91.080166 
L 247.627411 87.044538 
L 245.888006 82.242886 
L 244.544335 78.965301 
L 242.752823 75.024291 
L 240.792975 71.146002 
L 237.345389 65.141651 
L 233.938284 59.974117 
L 230.314455 55.109198 
L 226.193382 50.199216 
L 223.241819 47.018505 
L 219.517408 43.344397 
L 214.571115 38.969218 
L 210.265198 35.56597 
L 204.893466 31.780916 
L 201.391917 29.560787 
L 197.803361 27.470594 
L 190.254048 23.632979 
L 184.470386 21.162612 
L 179.378027 19.298395 
L 174.194204 17.682679 
L 169.649652 16.489904 
L 165.144729 15.506485 
L 161.627975 14.872876 
L 158.091274 14.351921 
L 151.793076 13.707824 
L 144.751186 13.411489 
L 140.036746 13.461248 
L 135.329097 13.709689 
L 131.754629 14.031785 
L 128.234357 14.462672 
L 121.426066 15.621514 
L 118.143021 16.33704 
L 113.839814 17.433849 
L 107.223272 19.484933 
L 102.447704 21.253273 
L 96.556406 23.789043 
L 91.250772 26.431986 
L 88.664238 27.852779 
L 83.788377 30.785249 
L 79.081423 33.957971 
L 73.74587 38.00981 
L 69.760701 41.394011 
L 65.952872 44.955187 
L 62.734345 48.25024 
L 58.918366 52.550518 
L 55.705611 56.562 
L 53.628788 59.380444 
L 51.21077 62.925317 
L 48.62331 67.094247 
L 46.240213 71.361573 
L 43.387215 77.18699 
L 42.2183 79.872166 
L 40.780216 83.494501 
L 38.919143 88.897746 
L 37.67868 93.170153 
L 36.345659 98.792258 
L 35.364016 104.273823 
L 34.766186 108.982687 
L 34.392672 113.687906 
L 34.238683 119.063721 
L 34.320247 123.23458 
L 34.855518 130.220237 
L 35.672378 135.927909 
L 37.066052 142.551953 
L 37.949221 145.859339 
L 40.423851 153.304587 
L 42.384292 158.062983 
L 45.140545 163.721861 
L 47.712036 168.24636 
L 50.611273 172.712047 
L 56.485282 180.268253 
L 62.384349 186.398731 
L 64.265366 188.112544 
L 68.88881 191.907764 
L 71.532768 193.838023 
L 74.175586 195.609499 
L 80.434222 199.232548 
L 86 201.842705 
L 92.48382 204.224968 
L 94.54378 204.841676 
L 100.096704 206.180563 
L 103.739586 206.807667 
L 107.886275 207.282268 
L 114.641538 207.508456 
L 121.774212 206.991666 
L 128.887666 205.650608 
L 132.4467 204.641454 
L 137.661283 202.706586 
L 139.367103 201.944041 
L 142.49524 200.360046 
L 146.423629 197.98657 
L 148.1854 196.761948 
L 150.6035 194.892181 
L 153.759827 192.059114 
L 156.186791 189.498654 
L 159.045959 185.895079 
L 160.659058 183.466188 
L 162.203273 180.741336 
L 163.666107 177.598376 
L 164.563059 175.215585 
L 165.190692 173.181061 
L 165.810945 170.588981 
L 166.193699 168.301719 
L 166.486966 164.553728 
L 166.400303 161.347489 
L 166.006868 158.268319 
L 165.702747 156.791766 
L 165.175897 154.837706 
L 163.785676 151.229826 
L 162.973843 149.639777 
L 161.693875 147.567099 
L 160.642925 146.145234 
L 159.103177 144.391151 
L 157.63845 143.002445 
L 155.887445 141.624447 
L 154.310937 140.60165 
L 151.552646 139.226811 
L 148.902017 138.333134 
L 146.553211 137.85293 
L 143.245043 137.640211 
L 140.58577 137.854159 
L 139.209208 138.102037 
L 137.131163 138.661451 
L 134.953163 139.503619 
L 133.127276 140.43304 
L 130.701911 142.033892 
L 129.456517 143.048185 
L 128.100946 144.332791 
L 126.89251 145.670132 
L 124.893939 148.419599 
L 124.09665 149.779661 
L 123.175058 151.636756 
L 121.844616 155.261873 
L 121.303463 157.430902 
L 120.978197 159.26718 
L 120.763035 161.149758 
L 120.661068 164.579976 
L 120.801427 166.966187 
L 121.379241 170.798468 
L 122.247065 174.172882 
L 123.008195 176.400425 
L 124.007669 178.81241 
L 125.222814 181.269642 
L 127.145898 184.499257 
L 128.430915 186.350826 
L 131.898751 190.534224 
L 133.699718 192.362061 
L 135.824763 194.288989 
L 138.856081 196.684778 
L 142.733032 199.258139 
L 146.690344 201.420333 
L 151.255843 203.427814 
L 157.068914 205.339389 
L 161.257703 206.321398 
L 166.594829 207.137046 
L 171.185717 207.472394 
L 174.678384 207.510244 
L 180.13755 207.203154 
L 186.959735 206.198633 
L 193.110682 204.695997 
L 197.740849 203.179303 
L 203.577779 200.769891 
L 205.689877 199.753759 
L 205.689877 199.753759 
" clip-path="url(#p00c5ca71d1)" style="fill: none; stroke: #ff0000; stroke-width: 2; stroke-linecap: square"/>
   </g>
   <g id="line2d_69">
    <path d="M 267.806034 199.753759 
L 267.771154 196.810076 
L 267.398613 189.700722 
L 267.009803 185.710929 
L 265.730656 177.140696 
L 264.910494 173.088145 
L 264.063798 169.491425 
L 261.967385 162.115909 
L 261.028965 159.282372 
L 258.694624 153.05424 
L 256.006826 146.909984 
L 252.760542 140.492426 
L 249.011105 134.052727 
L 244.900736 127.875366 
L 242.342374 124.398462 
L 237.730807 118.709878 
L 231.44404 111.933063 
L 229.447975 109.980266 
L 225.957636 106.766889 
L 218.637594 100.763444 
L 213.742488 97.235411 
L 206.726398 92.77055 
L 200.362347 89.260685 
L 195.354555 86.827178 
L 192.355372 85.499577 
L 188.342085 83.868207 
L 182.060659 81.633383 
L 178.183018 80.439618 
L 173.276287 79.124471 
L 165.435903 77.460208 
L 159.733616 76.576953 
L 155.685876 76.113299 
L 151.842301 75.796919 
L 144.783285 75.527334 
L 138.86096 75.610867 
L 135.258519 75.800037 
L 127.036798 76.627004 
L 120.338716 77.713593 
L 113.967245 79.100851 
L 109.566752 80.266547 
L 105.636867 81.455564 
L 98.228979 84.09252 
L 92.512525 86.499964 
L 88.960831 88.169262 
L 81.848362 91.940736 
L 77.01654 94.854715 
L 71.18951 98.787459 
L 65.570478 103.062695 
L 61.673024 106.340999 
L 55.795112 111.841395 
L 52.474495 115.287204 
L 49.916569 118.132648 
L 47.507749 120.981956 
L 41.95456 128.288984 
L 38.92682 132.800834 
L 37.019881 135.879295 
L 33.66697 141.838528 
L 32.991821 143.13829 
L 30.409383 148.494607 
L 29.051256 151.605311 
L 26.439164 158.363378 
L 24.534522 164.210304 
L 22.949898 170.029002 
L 22.330855 172.664361 
L 20.680931 181.559523 
L 20.222359 184.985232 
L 19.638039 191.173862 
L 19.446477 194.645396 
L 19.36965 202.402663 
L 19.591439 207.631697 
L 20.11197 213.569115 
L 21.19807 221.151611 
L 22.263051 226.537884 
L 23.148413 230.272824 
L 24.996037 236.807786 
L 25.687223 238.951228 
L 28.342296 246.179903 
L 29.906852 249.888687 
L 32.3 254.997104 
L 33.981741 258.262441 
L 36.195596 262.232606 
L 39.258749 267.222676 
L 41.971271 271.242291 
L 46.19733 276.899767 
L 49.235842 280.587123 
L 54.107055 285.947632 
L 56.172793 288.041617 
L 60.183191 291.838978 
L 63.31754 294.58315 
L 68.430636 298.68396 
L 72.64722 301.749344 
L 76.341369 304.221356 
L 82.4138 307.888546 
L 86.213243 309.951053 
L 92.330081 312.925122 
L 100.147753 316.149005 
L 108.383484 318.897853 
L 113.174847 320.209462 
L 117.10956 321.134631 
L 121.79547 322.062286 
L 125.320542 322.637808 
L 129.377652 323.172313 
L 133.304982 323.560952 
L 139.11316 323.905969 
L 146.986806 323.93918 
L 148.983472 323.868232 
L 157.099148 323.247608 
L 163.447616 322.386121 
L 169.669673 321.214325 
L 177.292126 319.322722 
L 181.358433 318.100636 
L 185.631547 316.650325 
L 190.656761 314.718341 
L 195.990844 312.386405 
L 201.812419 309.48945 
L 208.898742 305.424518 
L 211.49433 303.775193 
L 216.493638 300.333844 
L 222.061125 296.052228 
L 226.834401 291.956399 
L 230.501971 288.507052 
L 233.348856 285.626297 
L 238.139247 280.320681 
L 242.792937 274.51481 
L 245.587004 270.654801 
L 249.85664 264.078006 
L 253.247417 258.109118 
L 257.311797 249.726928 
L 258.497159 246.937134 
L 260.52366 241.662939 
L 262.749523 234.836459 
L 263.437238 232.409615 
L 264.477376 228.319013 
L 265.327066 224.447697 
L 266.147787 219.984083 
L 267.068938 213.266672 
L 267.598474 206.932074 
L 267.74559 203.628626 
L 267.806034 199.753759 
L 267.806034 199.753759 
" clip-path="url(#p00c5ca71d1)" style="fill: none; stroke: #0000ff; stroke-width: 2; stroke-linecap: square"/>
   </g>
   <g id="patch_3">
    <path d="M 143.57372 330.197427 
L 143.57372 7.2 
" style="fill: none; stroke: #000000; stroke-width: 0.8; stroke-linejoin: miter; stroke-linecap: square"/>
   </g>
   <g id="patch_4">
    <path d="M 14.372988 199.753759 
L 272.775309 199.753759 
" style="fill: none; stroke: #000000; stroke-width: 0.8; stroke-linejoin: miter; stroke-linecap: square"/>
   </g>
  </g>
 </g>
 <defs>
  <clipPath id="p00c5ca71d1">
   <rect x="14.372988" y="7.2" width="258.402321" height="322.997427"/>
  </clipPath>
 </defs>
</svg>
