<?xml version="1.0" encoding="utf-8" standalone="no"?>
<!DOCTYPE svg PUBLIC "-//W3C//DTD SVG 1.1//EN"
  "http://www.w3.org/Graphics/SVG/1.1/DTD/svg11.dtd">
<svg xmlns:xlink="http://www.w3.org/1999/xlink" width="327.798914pt" height="333.423259pt" viewBox="0 0 327.798914 333.423259" xmlns="http://www.w3.org/2000/svg" version="1.1">
 <metadata>
  <rdf:RDF xmlns:dc="http://purl.org/dc/elements/1.1/" xmlns:cc="http://creativecommons.org/ns#" xmlns:rdf="http://www.w3.org/1999/02/22-rdf-syntax-ns#">
   <cc:Work>
    <dc:type rdf:resource="http://purl.org/dc/dcmitype/StillImage"/>
    <dc:date>2022-10-20T20:46:41.933150</dc:date>
    <dc:format>image/svg+xml</dc:format>
    <dc:creator>
     <cc:Agent>
      <dc:title>Matplotlib v3.5.1, https://matplotlib.org/</dc:title>
     </cc:Agent>
    </dc:creator>
   </cc:Work>
  </rdf:RDF>
 </metadata>
 <defs>
  <style type="text/css">*{stroke-linejoin: round; stroke-linecap: butt}</style>
 </defs>
 <g id="figure_1">
  <g id="patch_1">
   <path d="M -0 333.423259 
L 327.798914 333.423259 
L 327.798914 0 
L -0 0 
z
" style="fill: #ffffff"/>
  </g>
  <g id="axes_1">
   <g id="patch_2">
    <path d="M 13.772256 325.989324 
L 303.368065 325.989324 
L 303.368065 7.433935 
L 13.772256 7.433935 
z
" style="fill: #ffffff"/>
   </g>
   <g id="patch_3">
    <path d="M 297.798914 305.940384 
L 296.85542 304.059789 
L 295.532951 301.445335 
L 293.690622 297.845024 
L 292.078279 294.734162 
L 290.369015 291.477079 
L 289.293043 289.448288 
L 288.694928 288.327708 
L 286.154973 283.626304 
L 285.692681 282.78058 
L 283.85218 279.443978 
L 282.167041 276.431701 
L 280.443218 273.392482 
L 279.29929 271.399219 
L 278.768481 270.480685 
L 277.385745 268.106943 
L 275.019011 264.107708 
L 274.530253 263.291845 
L 272.039663 259.1877 
L 271.110905 257.680046 
L 269.771534 255.527662 
L 268.475379 253.469262 
L 266.906438 251.009942 
L 265.083149 248.196355 
L 263.598871 245.941169 
L 262.72617 244.629976 
L 261.476481 242.771427 
L 260.19875 240.894368 
L 258.800521 238.867164 
L 257.848356 237.502754 
L 255.253022 233.849886 
L 253.807894 231.857842 
L 252.457503 230.023502 
L 251.96578 229.362063 
L 250.838935 227.859391 
L 248.764255 225.14047 
L 247.225786 223.164193 
L 245.407122 220.871834 
L 243.988621 219.116849 
L 243.503151 218.522859 
L 242.370588 217.150289 
L 240.864983 215.354153 
L 239.134937 213.330471 
L 237.416048 211.362421 
L 236.924313 210.807213 
L 234.323108 207.928038 
L 233.274482 206.794842 
L 231.917543 205.351913 
L 230.349214 203.71715 
L 229.914021 203.269785 
L 227.248721 200.589292 
L 225.89184 199.263874 
L 224.844289 198.258706 
L 223.626794 197.110275 
L 221.665086 195.304643 
L 220.185707 193.979529 
L 219.077804 193.007741 
L 218.625948 192.616463 
L 216.706668 190.987172 
L 215.612671 190.082147 
L 213.751466 188.581943 
L 212.311125 187.455127 
L 210.598485 186.154068 
L 209.172359 185.10282 
L 208.347904 184.508412 
L 207.405172 183.840694 
L 205.098798 182.260961 
L 204.169665 181.646151 
L 202.298865 180.445858 
L 200.564824 179.378207 
L 199.55737 178.777753 
L 198.426086 178.120874 
L 197.146168 177.399855 
L 195.026471 176.257521 
L 194.734966 176.105473 
L 192.312891 174.889336 
L 192.104285 174.788535 
L 190.651213 174.103737 
L 189.316915 173.501627 
L 187.647252 172.784206 
L 185.842061 172.053605 
L 184.261998 171.452536 
L 183.56522 171.198871 
L 180.997162 170.324176 
L 180.025635 170.017968 
L 178.351061 169.521997 
L 177.531382 169.293912 
L 176.154727 168.932557 
L 175.335545 168.730452 
L 173.95166 168.410923 
L 172.358494 168.077139 
L 170.068557 167.66124 
L 168.653183 167.441848 
L 167.918341 167.339291 
L 166.605278 167.175349 
L 164.428816 166.958158 
L 163.801747 166.908209 
L 162.296826 166.811379 
L 161.215616 166.761895 
L 159.153439 166.714073 
L 157.820411 166.715667 
L 156.373405 166.74629 
L 155.238959 166.791332 
L 153.245401 166.915273 
L 151.913575 167.029884 
L 150.501673 167.179209 
L 149.228608 167.338401 
L 147.948853 167.521894 
L 146.553495 167.748773 
L 145.91041 167.862752 
L 143.570531 168.327595 
L 141.945756 168.696642 
L 141.08288 168.908051 
L 139.128277 169.426491 
L 138.597367 169.576788 
L 137.556906 169.883078 
L 135.31349 170.596407 
L 134.126566 171.003051 
L 132.282764 171.67488 
L 131.661008 171.912441 
L 129.709834 172.694003 
L 127.999287 173.424168 
L 126.718508 173.998399 
L 125.904744 174.375488 
L 124.275756 175.158923 
L 122.251018 176.185822 
L 121.123562 176.783168 
L 120.468307 177.138723 
L 119.126217 177.886222 
L 116.678797 179.315968 
L 116.318398 179.533775 
L 115.096694 180.285997 
L 112.661743 181.849184 
L 111.852571 182.387509 
L 110.881489 183.045966 
L 108.391055 184.796562 
L 107.427551 185.497738 
L 106.315748 186.323409 
L 104.884469 187.412479 
L 103.090639 188.818969 
L 101.28885 190.27823 
L 100.010705 191.34167 
L 99.591209 191.695813 
L 97.030201 193.912667 
L 95.980967 194.84811 
L 94.785988 195.932753 
L 92.937511 197.650962 
L 91.781493 198.750457 
L 90.592262 199.901574 
L 89.145578 201.329282 
L 87.960874 202.520837 
L 86.799825 203.708161 
L 84.978415 205.609809 
L 83.498942 207.189531 
L 82.102665 208.709261 
L 81.349129 209.541056 
L 79.829091 211.243781 
L 78.149275 213.164094 
L 76.142172 215.511702 
L 74.662995 217.278859 
L 73.920444 218.177827 
L 72.691531 219.683008 
L 71.413258 221.271664 
L 70.202213 222.798421 
L 68.684606 224.741402 
L 67.021337 226.908872 
L 66.013976 228.240926 
L 64.076391 230.844017 
L 62.597135 232.867659 
L 61.118221 234.922255 
L 59.550876 237.133999 
L 59.00313 237.915266 
L 56.915117 240.932992 
L 55.33685 243.255563 
L 54.985836 243.776977 
L 53.142629 246.544021 
L 51.778596 248.623145 
L 50.705392 250.27776 
L 48.967667 252.991986 
L 47.141439 255.891196 
L 46.31884 257.212756 
L 44.819262 259.646936 
L 43.379461 262.01448 
L 42.15938 264.044037 
L 40.613518 266.646226 
L 38.383652 270.46029 
L 37.681418 271.676211 
L 35.641406 275.248682 
L 34.052322 278.072907 
L 33.247552 279.517036 
L 31.845185 282.055759 
L 29.866845 285.68521 
L 28.570725 288.093547 
L 28.395658 288.420691 
L 26.044301 292.857292 
L 25.312026 294.255186 
L 23.13132 298.463721 
L 21.669917 301.322305 
L 20.999062 302.644809 
L 19.341406 305.940384 
L 19.341406 27.482875 
L 20.473584 29.738025 
L 22.337441 33.410473 
L 24.042859 36.727023 
L 25.274146 39.095552 
L 25.901024 40.293061 
L 27.516386 43.352831 
L 28.829398 45.812283 
L 29.86097 47.727188 
L 31.978906 51.610795 
L 33.472201 54.310282 
L 34.054777 55.354742 
L 35.633637 58.160858 
L 37.946164 62.206288 
L 38.445711 63.070083 
L 39.660708 65.156042 
L 41.925147 68.987138 
L 42.455272 69.873392 
L 45.223349 74.435435 
L 45.628678 75.094215 
L 47.585403 78.241281 
L 48.664565 79.953402 
L 49.554544 81.352793 
L 51.867701 84.936748 
L 52.832488 86.408854 
L 54.470459 88.877508 
L 56.149731 91.368397 
L 57.615289 93.509179 
L 57.863037 93.868023 
L 60.581158 97.747107 
L 60.891882 98.183787 
L 62.770677 100.794635 
L 63.777602 102.173028 
L 65.281929 104.205187 
L 66.722471 106.120712 
L 68.358953 108.260615 
L 70.247132 110.681843 
L 71.727908 112.544825 
L 72.041298 112.935066 
L 73.880647 115.197029 
L 75.327182 116.941785 
L 77.062833 118.995593 
L 77.863553 119.928502 
L 79.441408 121.739888 
L 81.470904 124.017178 
L 82.459126 125.104639 
L 83.105544 125.808381 
L 84.440805 127.243049 
L 85.893743 128.775057 
L 87.446796 130.379099 
L 89.734019 132.678326 
L 91.061626 133.978433 
L 92.00075 134.882813 
L 92.96245 135.795806 
L 95.50502 138.145606 
L 95.830235 138.439465 
L 98.335596 140.652338 
L 98.665342 140.936873 
L 100.250809 142.28315 
L 101.330399 143.179204 
L 103.783769 145.153233 
L 104.455452 145.678606 
L 106.1999 147.012795 
L 107.001299 147.611068 
L 108.954901 149.030843 
L 110.97983 150.444591 
L 112.306074 151.338615 
L 112.593538 151.529063 
L 114.08824 152.500188 
L 116.378652 153.926028 
L 117.115591 154.368767 
L 118.640239 155.259982 
L 119.493042 155.743915 
L 121.02386 156.586389 
L 122.266473 157.245498 
L 124.074219 158.16476 
L 126.235382 159.202133 
L 127.110329 159.603034 
L 128.179685 160.078079 
L 129.374479 160.589419 
L 131.396207 161.407957 
L 132.789755 161.93798 
L 133.820271 162.311985 
L 135.773785 162.979105 
L 136.76722 163.297333 
L 138.890831 163.930049 
L 139.426938 164.079537 
L 140.463076 164.356753 
L 142.50031 164.85684 
L 144.087695 165.205175 
L 145.087429 165.405979 
L 146.513571 165.667583 
L 147.451378 165.823686 
L 149.708975 166.147661 
L 150.850498 166.283606 
L 152.347843 166.433546 
L 153.024348 166.490727 
L 155.553222 166.646256 
L 156.022277 166.665003 
L 158.181881 166.710547 
L 158.719392 166.71147 
L 160.076246 166.695338 
L 161.98742 166.627756 
L 164.047108 166.496179 
L 165.482391 166.368461 
L 165.702052 166.346304 
L 167.509556 166.137662 
L 169.028056 165.926105 
L 170.79046 165.639037 
L 171.260646 165.554911 
L 173.823558 165.040523 
L 174.914212 164.793003 
L 175.806577 164.577774 
L 177.97643 164.006705 
L 178.996531 163.714859 
L 179.739336 163.492941 
L 182.27326 162.676278 
L 183.117275 162.383782 
L 184.116687 162.0242 
L 185.892628 161.349826 
L 187.094576 160.867705 
L 188.895182 160.106622 
L 189.487687 159.845997 
L 191.20892 159.060275 
L 193.143446 158.126391 
L 194.722299 157.324365 
L 196.282265 156.496765 
L 197.142715 156.025317 
L 197.960097 155.567616 
L 199.203302 154.853072 
L 201.453868 153.503062 
L 202.905051 152.593982 
L 204.205413 151.753683 
L 205.502464 150.891326 
L 206.365479 150.304153 
L 208.029664 149.141678 
L 210.112694 147.630565 
L 210.817347 147.105274 
L 211.863206 146.312476 
L 213.734285 144.854933 
L 215.723135 143.25051 
L 216.292511 142.780727 
L 217.939375 141.395712 
L 219.475722 140.068516 
L 221.282074 138.464705 
L 222.556529 137.30495 
L 223.097374 136.805729 
L 225.282645 134.74585 
L 225.769636 134.277456 
L 227.967453 132.121187 
L 228.550196 131.537822 
L 231.219427 128.803397 
L 231.686792 128.314089 
L 233.596031 126.282615 
L 234.766682 125.011121 
L 236.607109 122.972351 
L 238.005949 121.390212 
L 239.188751 120.030488 
L 240.393447 118.624937 
L 241.464028 117.358367 
L 242.609955 115.984413 
L 244.247963 113.987709 
L 246.390714 111.317544 
L 246.995762 110.551628 
L 248.743333 108.309893 
L 249.942266 106.746562 
L 252.001494 104.013273 
L 252.790736 102.949536 
L 254.463134 100.665916 
L 255.369315 99.411764 
L 256.762414 97.460714 
L 258.786972 94.575601 
L 259.928394 92.923054 
L 261.377371 90.798269 
L 262.156653 89.643056 
L 263.582695 87.506493 
L 265.337872 84.836702 
L 266.443391 83.132387 
L 268.603392 79.751777 
L 269.805035 77.842075 
L 271.205908 75.589565 
L 273.143717 72.427228 
L 274.049556 70.930476 
L 275.499034 68.510927 
L 276.961394 66.039291 
L 278.453596 63.485552 
L 279.624222 61.459766 
L 281.047595 58.970079 
L 282.001334 57.285565 
L 284.46033 52.882163 
L 285.019479 51.868757 
L 286.590679 48.997057 
L 287.548411 47.229205 
L 289.185505 44.176825 
L 290.311506 42.055036 
L 292.198777 38.457899 
L 292.912746 37.083734 
L 294.766169 33.482305 
L 297.089957 28.897181 
L 297.798914 27.482875 
z
" clip-path="url(#p507048d575)" style="fill: #008000; opacity: 0.5"/>
   </g>
   <g id="matplotlib.axis_1">
    <g id="xtick_1">
     <g id="line2d_1">
      <defs>
       <path id="m130525a780" d="M 0 0 
L 0 3.5 
" style="stroke: #000000; stroke-width: 0.8"/>
      </defs>
      <g>
       <use xlink:href="#m130525a780" x="19.341406" y="166.71163" style="stroke: #000000; stroke-width: 0.8"/>
      </g>
     </g>
     <g id="text_1">
      <!-- −1.0 -->
      <g transform="translate(7.2 181.310067)scale(0.1 -0.1)">
       <defs>
        <path id="DejaVuSans-2212" d="M 678 2272 
L 4684 2272 
L 4684 1741 
L 678 1741 
L 678 2272 
z
" transform="scale(0.015625)"/>
        <path id="DejaVuSans-31" d="M 794 531 
L 1825 531 
L 1825 4091 
L 703 3866 
L 703 4441 
L 1819 4666 
L 2450 4666 
L 2450 531 
L 3481 531 
L 3481 0 
L 794 0 
L 794 531 
z
" transform="scale(0.015625)"/>
        <path id="DejaVuSans-2e" d="M 684 794 
L 1344 794 
L 1344 0 
L 684 0 
L 684 794 
z
" transform="scale(0.015625)"/>
        <path id="DejaVuSans-30" d="M 2034 4250 
Q 1547 4250 1301 3770 
Q 1056 3291 1056 2328 
Q 1056 1369 1301 889 
Q 1547 409 2034 409 
Q 2525 409 2770 889 
Q 3016 1369 3016 2328 
Q 3016 3291 2770 3770 
Q 2525 4250 2034 4250 
z
M 2034 4750 
Q 2819 4750 3233 4129 
Q 3647 3509 3647 2328 
Q 3647 1150 3233 529 
Q 2819 -91 2034 -91 
Q 1250 -91 836 529 
Q 422 1150 422 2328 
Q 422 3509 836 4129 
Q 1250 4750 2034 4750 
z
" transform="scale(0.015625)"/>
       </defs>
       <use xlink:href="#DejaVuSans-2212"/>
       <use xlink:href="#DejaVuSans-31" x="83.789062"/>
       <use xlink:href="#DejaVuSans-2e" x="147.412109"/>
       <use xlink:href="#DejaVuSans-30" x="179.199219"/>
      </g>
     </g>
    </g>
    <g id="xtick_2">
     <g id="line2d_2">
      <g>
       <use xlink:href="#m130525a780" x="88.955783" y="166.71163" style="stroke: #000000; stroke-width: 0.8"/>
      </g>
     </g>
     <g id="text_2">
      <!-- −0.5 -->
      <g transform="translate(76.814377 181.310067)scale(0.1 -0.1)">
       <defs>
        <path id="DejaVuSans-35" d="M 691 4666 
L 3169 4666 
L 3169 4134 
L 1269 4134 
L 1269 2991 
Q 1406 3038 1543 3061 
Q 1681 3084 1819 3084 
Q 2600 3084 3056 2656 
Q 3513 2228 3513 1497 
Q 3513 744 3044 326 
Q 2575 -91 1722 -91 
Q 1428 -91 1123 -41 
Q 819 9 494 109 
L 494 744 
Q 775 591 1075 516 
Q 1375 441 1709 441 
Q 2250 441 2565 725 
Q 2881 1009 2881 1497 
Q 2881 1984 2565 2268 
Q 2250 2553 1709 2553 
Q 1456 2553 1204 2497 
Q 953 2441 691 2322 
L 691 4666 
z
" transform="scale(0.015625)"/>
       </defs>
       <use xlink:href="#DejaVuSans-2212"/>
       <use xlink:href="#DejaVuSans-30" x="83.789062"/>
       <use xlink:href="#DejaVuSans-2e" x="147.412109"/>
       <use xlink:href="#DejaVuSans-35" x="179.199219"/>
      </g>
     </g>
    </g>
    <g id="xtick_3">
     <g id="line2d_3">
      <g>
       <use xlink:href="#m130525a780" x="158.57016" y="166.71163" style="stroke: #000000; stroke-width: 0.8"/>
      </g>
     </g>
    </g>
    <g id="xtick_4">
     <g id="line2d_4">
      <g>
       <use xlink:href="#m130525a780" x="228.184537" y="166.71163" style="stroke: #000000; stroke-width: 0.8"/>
      </g>
     </g>
     <g id="text_3">
      <!-- 0.5 -->
      <g transform="translate(220.232975 181.310067)scale(0.1 -0.1)">
       <use xlink:href="#DejaVuSans-30"/>
       <use xlink:href="#DejaVuSans-2e" x="63.623047"/>
       <use xlink:href="#DejaVuSans-35" x="95.410156"/>
      </g>
     </g>
    </g>
    <g id="xtick_5">
     <g id="line2d_5">
      <g>
       <use xlink:href="#m130525a780" x="297.798914" y="166.71163" style="stroke: #000000; stroke-width: 0.8"/>
      </g>
     </g>
     <g id="text_4">
      <!-- 1.0 -->
      <g transform="translate(289.847352 181.310067)scale(0.1 -0.1)">
       <use xlink:href="#DejaVuSans-31"/>
       <use xlink:href="#DejaVuSans-2e" x="63.623047"/>
       <use xlink:href="#DejaVuSans-30" x="95.410156"/>
      </g>
     </g>
    </g>
    <g id="xtick_6">
     <g id="line2d_6">
      <defs>
       <path id="m690afc3fe6" d="M 0 0 
L 0 2 
" style="stroke: #000000; stroke-width: 0.6"/>
      </defs>
      <g>
       <use xlink:href="#m690afc3fe6" x="33.264282" y="166.71163" style="stroke: #000000; stroke-width: 0.6"/>
      </g>
     </g>
    </g>
    <g id="xtick_7">
     <g id="line2d_7">
      <g>
       <use xlink:href="#m690afc3fe6" x="47.187157" y="166.71163" style="stroke: #000000; stroke-width: 0.6"/>
      </g>
     </g>
    </g>
    <g id="xtick_8">
     <g id="line2d_8">
      <g>
       <use xlink:href="#m690afc3fe6" x="61.110032" y="166.71163" style="stroke: #000000; stroke-width: 0.6"/>
      </g>
     </g>
    </g>
    <g id="xtick_9">
     <g id="line2d_9">
      <g>
       <use xlink:href="#m690afc3fe6" x="75.032908" y="166.71163" style="stroke: #000000; stroke-width: 0.6"/>
      </g>
     </g>
    </g>
    <g id="xtick_10">
     <g id="line2d_10">
      <g>
       <use xlink:href="#m690afc3fe6" x="102.878659" y="166.71163" style="stroke: #000000; stroke-width: 0.6"/>
      </g>
     </g>
    </g>
    <g id="xtick_11">
     <g id="line2d_11">
      <g>
       <use xlink:href="#m690afc3fe6" x="116.801534" y="166.71163" style="stroke: #000000; stroke-width: 0.6"/>
      </g>
     </g>
    </g>
    <g id="xtick_12">
     <g id="line2d_12">
      <g>
       <use xlink:href="#m690afc3fe6" x="130.72441" y="166.71163" style="stroke: #000000; stroke-width: 0.6"/>
      </g>
     </g>
    </g>
    <g id="xtick_13">
     <g id="line2d_13">
      <g>
       <use xlink:href="#m690afc3fe6" x="144.647285" y="166.71163" style="stroke: #000000; stroke-width: 0.6"/>
      </g>
     </g>
    </g>
    <g id="xtick_14">
     <g id="line2d_14">
      <g>
       <use xlink:href="#m690afc3fe6" x="172.493036" y="166.71163" style="stroke: #000000; stroke-width: 0.6"/>
      </g>
     </g>
    </g>
    <g id="xtick_15">
     <g id="line2d_15">
      <g>
       <use xlink:href="#m690afc3fe6" x="186.415911" y="166.71163" style="stroke: #000000; stroke-width: 0.6"/>
      </g>
     </g>
    </g>
    <g id="xtick_16">
     <g id="line2d_16">
      <g>
       <use xlink:href="#m690afc3fe6" x="200.338787" y="166.71163" style="stroke: #000000; stroke-width: 0.6"/>
      </g>
     </g>
    </g>
    <g id="xtick_17">
     <g id="line2d_17">
      <g>
       <use xlink:href="#m690afc3fe6" x="214.261662" y="166.71163" style="stroke: #000000; stroke-width: 0.6"/>
      </g>
     </g>
    </g>
    <g id="xtick_18">
     <g id="line2d_18">
      <g>
       <use xlink:href="#m690afc3fe6" x="242.107413" y="166.71163" style="stroke: #000000; stroke-width: 0.6"/>
      </g>
     </g>
    </g>
    <g id="xtick_19">
     <g id="line2d_19">
      <g>
       <use xlink:href="#m690afc3fe6" x="256.030288" y="166.71163" style="stroke: #000000; stroke-width: 0.6"/>
      </g>
     </g>
    </g>
    <g id="xtick_20">
     <g id="line2d_20">
      <g>
       <use xlink:href="#m690afc3fe6" x="269.953164" y="166.71163" style="stroke: #000000; stroke-width: 0.6"/>
      </g>
     </g>
    </g>
    <g id="xtick_21">
     <g id="line2d_21">
      <g>
       <use xlink:href="#m690afc3fe6" x="283.876039" y="166.71163" style="stroke: #000000; stroke-width: 0.6"/>
      </g>
     </g>
    </g>
   </g>
   <g id="matplotlib.axis_2">
    <g id="ytick_1">
     <g id="line2d_22">
      <defs>
       <path id="m8d51c0436e" d="M 0 0 
L -3.5 0 
" style="stroke: #000000; stroke-width: 0.8"/>
      </defs>
      <g>
       <use xlink:href="#m8d51c0436e" x="158.57016" y="305.940384" style="stroke: #000000; stroke-width: 0.8"/>
      </g>
     </g>
     <g id="text_5">
      <!-- −1.0 -->
      <g transform="translate(127.287348 309.739602)scale(0.1 -0.1)">
       <use xlink:href="#DejaVuSans-2212"/>
       <use xlink:href="#DejaVuSans-31" x="83.789062"/>
       <use xlink:href="#DejaVuSans-2e" x="147.412109"/>
       <use xlink:href="#DejaVuSans-30" x="179.199219"/>
      </g>
     </g>
    </g>
    <g id="ytick_2">
     <g id="line2d_23">
      <g>
       <use xlink:href="#m8d51c0436e" x="158.57016" y="236.326007" style="stroke: #000000; stroke-width: 0.8"/>
      </g>
     </g>
     <g id="text_6">
      <!-- −0.5 -->
      <g transform="translate(127.287348 240.125225)scale(0.1 -0.1)">
       <use xlink:href="#DejaVuSans-2212"/>
       <use xlink:href="#DejaVuSans-30" x="83.789062"/>
       <use xlink:href="#DejaVuSans-2e" x="147.412109"/>
       <use xlink:href="#DejaVuSans-35" x="179.199219"/>
      </g>
     </g>
    </g>
    <g id="ytick_3">
     <g id="line2d_24">
      <g>
       <use xlink:href="#m8d51c0436e" x="158.57016" y="166.71163" style="stroke: #000000; stroke-width: 0.8"/>
      </g>
     </g>
    </g>
    <g id="ytick_4">
     <g id="line2d_25">
      <g>
       <use xlink:href="#m8d51c0436e" x="158.57016" y="97.097252" style="stroke: #000000; stroke-width: 0.8"/>
      </g>
     </g>
     <g id="text_7">
      <!-- 0.5 -->
      <g transform="translate(135.667035 100.896471)scale(0.1 -0.1)">
       <use xlink:href="#DejaVuSans-30"/>
       <use xlink:href="#DejaVuSans-2e" x="63.623047"/>
       <use xlink:href="#DejaVuSans-35" x="95.410156"/>
      </g>
     </g>
    </g>
    <g id="ytick_5">
     <g id="line2d_26">
      <g>
       <use xlink:href="#m8d51c0436e" x="158.57016" y="27.482875" style="stroke: #000000; stroke-width: 0.8"/>
      </g>
     </g>
     <g id="text_8">
      <!-- 1.0 -->
      <g transform="translate(135.667035 31.282094)scale(0.1 -0.1)">
       <use xlink:href="#DejaVuSans-31"/>
       <use xlink:href="#DejaVuSans-2e" x="63.623047"/>
       <use xlink:href="#DejaVuSans-30" x="95.410156"/>
      </g>
     </g>
    </g>
    <g id="ytick_6">
     <g id="line2d_27">
      <defs>
       <path id="mb60a2ffd50" d="M 0 0 
L -2 0 
" style="stroke: #000000; stroke-width: 0.6"/>
      </defs>
      <g>
       <use xlink:href="#mb60a2ffd50" x="158.57016" y="319.863259" style="stroke: #000000; stroke-width: 0.6"/>
      </g>
     </g>
    </g>
    <g id="ytick_7">
     <g id="line2d_28">
      <g>
       <use xlink:href="#mb60a2ffd50" x="158.57016" y="292.017508" style="stroke: #000000; stroke-width: 0.6"/>
      </g>
     </g>
    </g>
    <g id="ytick_8">
     <g id="line2d_29">
      <g>
       <use xlink:href="#mb60a2ffd50" x="158.57016" y="278.094633" style="stroke: #000000; stroke-width: 0.6"/>
      </g>
     </g>
    </g>
    <g id="ytick_9">
     <g id="line2d_30">
      <g>
       <use xlink:href="#mb60a2ffd50" x="158.57016" y="264.171757" style="stroke: #000000; stroke-width: 0.6"/>
      </g>
     </g>
    </g>
    <g id="ytick_10">
     <g id="line2d_31">
      <g>
       <use xlink:href="#mb60a2ffd50" x="158.57016" y="250.248882" style="stroke: #000000; stroke-width: 0.6"/>
      </g>
     </g>
    </g>
    <g id="ytick_11">
     <g id="line2d_32">
      <g>
       <use xlink:href="#mb60a2ffd50" x="158.57016" y="222.403131" style="stroke: #000000; stroke-width: 0.6"/>
      </g>
     </g>
    </g>
    <g id="ytick_12">
     <g id="line2d_33">
      <g>
       <use xlink:href="#mb60a2ffd50" x="158.57016" y="208.480256" style="stroke: #000000; stroke-width: 0.6"/>
      </g>
     </g>
    </g>
    <g id="ytick_13">
     <g id="line2d_34">
      <g>
       <use xlink:href="#mb60a2ffd50" x="158.57016" y="194.55738" style="stroke: #000000; stroke-width: 0.6"/>
      </g>
     </g>
    </g>
    <g id="ytick_14">
     <g id="line2d_35">
      <g>
       <use xlink:href="#mb60a2ffd50" x="158.57016" y="180.634505" style="stroke: #000000; stroke-width: 0.6"/>
      </g>
     </g>
    </g>
    <g id="ytick_15">
     <g id="line2d_36">
      <g>
       <use xlink:href="#mb60a2ffd50" x="158.57016" y="152.788754" style="stroke: #000000; stroke-width: 0.6"/>
      </g>
     </g>
    </g>
    <g id="ytick_16">
     <g id="line2d_37">
      <g>
       <use xlink:href="#mb60a2ffd50" x="158.57016" y="138.865879" style="stroke: #000000; stroke-width: 0.6"/>
      </g>
     </g>
    </g>
    <g id="ytick_17">
     <g id="line2d_38">
      <g>
       <use xlink:href="#mb60a2ffd50" x="158.57016" y="124.943003" style="stroke: #000000; stroke-width: 0.6"/>
      </g>
     </g>
    </g>
    <g id="ytick_18">
     <g id="line2d_39">
      <g>
       <use xlink:href="#mb60a2ffd50" x="158.57016" y="111.020128" style="stroke: #000000; stroke-width: 0.6"/>
      </g>
     </g>
    </g>
    <g id="ytick_19">
     <g id="line2d_40">
      <g>
       <use xlink:href="#mb60a2ffd50" x="158.57016" y="83.174377" style="stroke: #000000; stroke-width: 0.6"/>
      </g>
     </g>
    </g>
    <g id="ytick_20">
     <g id="line2d_41">
      <g>
       <use xlink:href="#mb60a2ffd50" x="158.57016" y="69.251502" style="stroke: #000000; stroke-width: 0.6"/>
      </g>
     </g>
    </g>
    <g id="ytick_21">
     <g id="line2d_42">
      <g>
       <use xlink:href="#mb60a2ffd50" x="158.57016" y="55.328626" style="stroke: #000000; stroke-width: 0.6"/>
      </g>
     </g>
    </g>
    <g id="ytick_22">
     <g id="line2d_43">
      <g>
       <use xlink:href="#mb60a2ffd50" x="158.57016" y="41.405751" style="stroke: #000000; stroke-width: 0.6"/>
      </g>
     </g>
    </g>
    <g id="ytick_23">
     <g id="line2d_44">
      <g>
       <use xlink:href="#mb60a2ffd50" x="158.57016" y="13.56" style="stroke: #000000; stroke-width: 0.6"/>
      </g>
     </g>
    </g>
   </g>
   <g id="line2d_45">
    <path d="M 19.341406 27.482875 
L 25.274146 39.095552 
L 29.86097 47.727188 
L 35.633637 58.160858 
L 42.455272 69.873392 
L 48.664565 79.953402 
L 54.470459 88.877508 
L 60.581158 97.747107 
L 65.281929 104.205187 
L 70.247132 110.681843 
L 75.327182 116.941785 
L 79.441408 121.739888 
L 84.440805 127.243049 
L 89.734019 132.678326 
L 92.96245 135.795806 
L 98.665342 140.936873 
L 103.783769 145.153233 
L 107.001299 147.611068 
L 112.306074 151.338615 
L 116.378652 153.926028 
L 119.493042 155.743915 
L 124.074219 158.16476 
L 129.374479 160.589419 
L 133.820271 162.311985 
L 138.890831 163.930049 
L 142.50031 164.85684 
L 146.513571 165.667583 
L 150.850498 166.283606 
L 155.553222 166.646256 
L 158.719392 166.71147 
L 161.98742 166.627756 
L 165.702052 166.346304 
L 169.028056 165.926105 
L 173.823558 165.040523 
L 177.97643 164.006705 
L 182.27326 162.676278 
L 185.892628 161.349826 
L 189.487687 159.845997 
L 193.143446 158.126391 
L 197.960097 155.567616 
L 201.453868 153.503062 
L 206.365479 150.304153 
L 210.817347 147.105274 
L 215.723135 143.25051 
L 219.475722 140.068516 
L 223.097374 136.805729 
L 228.550196 131.537822 
L 234.766682 125.011121 
L 240.393447 118.624937 
L 244.247963 113.987709 
L 249.942266 106.746562 
L 255.369315 99.411764 
L 259.928394 92.923054 
L 265.337872 84.836702 
L 271.205908 75.589565 
L 276.961394 66.039291 
L 282.001334 57.285565 
L 287.548411 47.229205 
L 292.912746 37.083734 
L 297.798914 27.482875 
L 297.798914 27.482875 
" clip-path="url(#p507048d575)" style="fill: none; stroke: #0000ff; stroke-linecap: square"/>
   </g>
   <g id="line2d_46">
    <path d="M 19.341406 305.940384 
L 24.362528 296.079221 
L 30.917188 283.751255 
L 35.490123 275.515991 
L 41.43419 265.260494 
L 46.676661 256.636697 
L 52.732073 247.166997 
L 58.54662 238.569693 
L 63.735948 231.306963 
L 69.447277 223.760825 
L 74.733749 217.193615 
L 79.264476 211.884709 
L 83.262369 207.44505 
L 87.941358 202.540634 
L 93.154865 197.446379 
L 97.59046 193.419646 
L 101.361661 190.218357 
L 106.016227 186.548882 
L 110.731751 183.148704 
L 114.038948 180.954584 
L 118.783023 178.081524 
L 122.5845 176.012638 
L 126.670595 174.020337 
L 129.844634 172.638249 
L 134.252267 170.959028 
L 139.006742 169.46054 
L 142.282333 168.617079 
L 146.75493 167.714294 
L 151.423297 167.078491 
L 154.922341 166.807203 
L 158.657795 166.711685 
L 163.379214 166.877737 
L 167.461994 167.279506 
L 171.296945 167.874974 
L 175.862153 168.859268 
L 179.121183 169.745087 
L 183.34549 171.120323 
L 187.027638 172.528158 
L 191.101131 174.312531 
L 194.967024 176.226414 
L 199.91649 178.99012 
L 204.240247 181.69242 
L 209.193944 185.118513 
L 214.715548 189.352819 
L 218.058054 192.128861 
L 222.969837 196.49943 
L 228.736305 202.072773 
L 232.737905 206.2211 
L 238.125909 212.170035 
L 242.943963 217.842867 
L 248.485047 224.779281 
L 253.285325 231.144888 
L 256.71342 235.893455 
L 262.676152 244.555159 
L 268.854218 254.068393 
L 274.390372 263.058979 
L 280.693301 273.830748 
L 285.747151 282.880068 
L 292.034138 294.649521 
L 297.798914 305.940384 
L 297.798914 305.940384 
" clip-path="url(#p507048d575)" style="fill: none; stroke: #ff0000; stroke-linecap: square"/>
   </g>
   <g id="patch_4">
    <path d="M 158.57016 325.989324 
L 158.57016 7.433935 
" style="fill: none; stroke: #000000; stroke-width: 0.8; stroke-linejoin: miter; stroke-linecap: square"/>
   </g>
   <g id="patch_5">
    <path d="M 13.772256 166.71163 
L 303.368065 166.71163 
" style="fill: none; stroke: #000000; stroke-width: 0.8; stroke-linejoin: miter; stroke-linecap: square"/>
   </g>
   <g id="text_9">
    <!-- $y=x^2$ -->
    <g transform="translate(281.778914 17.4)scale(0.12 -0.12)">
     <defs>
      <path id="Cmmi10-79" d="M 538 -916 
Q 672 -1147 1006 -1147 
Q 1309 -1147 1531 -934 
Q 1753 -722 1889 -420 
Q 2025 -119 2100 197 
Q 1816 -72 1484 -72 
Q 1231 -72 1053 15 
Q 875 103 776 276 
Q 678 450 678 697 
Q 678 906 734 1126 
Q 791 1347 892 1617 
Q 994 1888 1069 2088 
Q 1153 2322 1153 2472 
Q 1153 2663 1013 2663 
Q 759 2663 595 2402 
Q 431 2141 353 1819 
Q 341 1778 300 1778 
L 225 1778 
Q 172 1778 172 1838 
L 172 1856 
Q 275 2238 487 2533 
Q 700 2828 1025 2828 
Q 1253 2828 1411 2678 
Q 1569 2528 1569 2297 
Q 1569 2178 1516 2047 
Q 1488 1969 1388 1706 
Q 1288 1444 1234 1272 
Q 1181 1100 1147 934 
Q 1113 769 1113 603 
Q 1113 391 1203 244 
Q 1294 97 1491 97 
Q 1888 97 2203 581 
L 2688 2553 
Q 2709 2638 2787 2698 
Q 2866 2759 2956 2759 
Q 3034 2759 3092 2709 
Q 3150 2659 3150 2578 
Q 3150 2541 3144 2528 
L 2509 -19 
Q 2425 -347 2200 -647 
Q 1975 -947 1658 -1130 
Q 1341 -1313 997 -1313 
Q 831 -1313 668 -1248 
Q 506 -1184 406 -1056 
Q 306 -928 306 -756 
Q 306 -581 409 -453 
Q 513 -325 684 -325 
Q 788 -325 858 -389 
Q 928 -453 928 -556 
Q 928 -703 818 -812 
Q 709 -922 563 -922 
Q 556 -919 550 -917 
Q 544 -916 538 -916 
z
" transform="scale(0.015625)"/>
      <path id="Cmr10-3d" d="M 481 850 
Q 428 850 393 890 
Q 359 931 359 978 
Q 359 1031 393 1068 
Q 428 1106 481 1106 
L 4500 1106 
Q 4547 1106 4581 1068 
Q 4616 1031 4616 978 
Q 4616 931 4581 890 
Q 4547 850 4500 850 
L 481 850 
z
M 481 2094 
Q 428 2094 393 2131 
Q 359 2169 359 2222 
Q 359 2269 393 2309 
Q 428 2350 481 2350 
L 4500 2350 
Q 4547 2350 4581 2309 
Q 4616 2269 4616 2222 
Q 4616 2169 4581 2131 
Q 4547 2094 4500 2094 
L 481 2094 
z
" transform="scale(0.015625)"/>
      <path id="Cmmi10-78" d="M 500 184 
Q 613 97 819 97 
Q 1019 97 1172 289 
Q 1325 481 1381 709 
L 1672 1844 
Q 1741 2153 1741 2266 
Q 1741 2425 1652 2544 
Q 1563 2663 1403 2663 
Q 1200 2663 1022 2536 
Q 844 2409 722 2214 
Q 600 2019 550 1819 
Q 538 1778 500 1778 
L 422 1778 
Q 372 1778 372 1838 
L 372 1856 
Q 434 2094 584 2320 
Q 734 2547 951 2687 
Q 1169 2828 1416 2828 
Q 1650 2828 1839 2703 
Q 2028 2578 2106 2363 
Q 2216 2559 2386 2693 
Q 2556 2828 2759 2828 
Q 2897 2828 3040 2779 
Q 3184 2731 3275 2631 
Q 3366 2531 3366 2381 
Q 3366 2219 3261 2101 
Q 3156 1984 2994 1984 
Q 2891 1984 2822 2050 
Q 2753 2116 2753 2216 
Q 2753 2350 2845 2451 
Q 2938 2553 3066 2572 
Q 2950 2663 2747 2663 
Q 2541 2663 2389 2472 
Q 2238 2281 2175 2047 
L 1894 916 
Q 1825 659 1825 494 
Q 1825 331 1917 214 
Q 2009 97 2163 97 
Q 2463 97 2698 361 
Q 2934 625 3009 941 
Q 3022 978 3059 978 
L 3138 978 
Q 3163 978 3178 961 
Q 3194 944 3194 922 
Q 3194 916 3188 903 
Q 3097 522 2806 225 
Q 2516 -72 2150 -72 
Q 1916 -72 1727 54 
Q 1538 181 1459 397 
Q 1359 209 1182 68 
Q 1006 -72 806 -72 
Q 669 -72 523 -23 
Q 378 25 287 125 
Q 197 225 197 378 
Q 197 528 301 651 
Q 406 775 563 775 
Q 669 775 741 711 
Q 813 647 813 544 
Q 813 409 723 309 
Q 634 209 500 184 
z
" transform="scale(0.015625)"/>
      <path id="Cmr10-32" d="M 319 0 
L 319 172 
Q 319 188 331 206 
L 1325 1306 
Q 1550 1550 1690 1715 
Q 1831 1881 1968 2097 
Q 2106 2313 2186 2536 
Q 2266 2759 2266 3009 
Q 2266 3272 2169 3511 
Q 2072 3750 1880 3894 
Q 1688 4038 1416 4038 
Q 1138 4038 916 3870 
Q 694 3703 603 3438 
Q 628 3444 672 3444 
Q 816 3444 917 3347 
Q 1019 3250 1019 3097 
Q 1019 2950 917 2848 
Q 816 2747 672 2747 
Q 522 2747 420 2851 
Q 319 2956 319 3097 
Q 319 3338 409 3548 
Q 500 3759 670 3923 
Q 841 4088 1055 4175 
Q 1269 4263 1509 4263 
Q 1875 4263 2190 4108 
Q 2506 3953 2690 3670 
Q 2875 3388 2875 3009 
Q 2875 2731 2753 2481 
Q 2631 2231 2440 2026 
Q 2250 1822 1953 1562 
Q 1656 1303 1563 1216 
L 838 519 
L 1453 519 
Q 1906 519 2211 526 
Q 2516 534 2534 550 
Q 2609 631 2688 1141 
L 2875 1141 
L 2694 0 
L 319 0 
z
" transform="scale(0.015625)"/>
     </defs>
     <use xlink:href="#Cmmi10-79" transform="translate(0 0.109375)"/>
     <use xlink:href="#Cmr10-3d" transform="translate(66.582031 0.109375)"/>
     <use xlink:href="#Cmmi10-78" transform="translate(161.826172 0.109375)"/>
     <use xlink:href="#Cmr10-32" transform="translate(225.209531 38.373438)scale(0.7)"/>
    </g>
   </g>
   <g id="text_10">
    <!-- $y=-x^2$ -->
    <g transform="translate(274.998914 323.703259)scale(0.12 -0.12)">
     <defs>
      <path id="Cmsy10-a1" d="M 653 1472 
Q 600 1472 565 1512 
Q 531 1553 531 1600 
Q 531 1647 565 1687 
Q 600 1728 653 1728 
L 4325 1728 
Q 4375 1728 4408 1687 
Q 4441 1647 4441 1600 
Q 4441 1553 4408 1512 
Q 4375 1472 4325 1472 
L 653 1472 
z
" transform="scale(0.015625)"/>
     </defs>
     <use xlink:href="#Cmmi10-79" transform="translate(0 0.109375)"/>
     <use xlink:href="#Cmr10-3d" transform="translate(66.582031 0.109375)"/>
     <use xlink:href="#Cmsy10-a1" transform="translate(179.384766 0.109375)"/>
     <use xlink:href="#Cmmi10-78" transform="translate(274.628906 0.109375)"/>
     <use xlink:href="#Cmr10-32" transform="translate(338.012266 38.373438)scale(0.7)"/>
    </g>
   </g>
   <g id="text_11">
    <!-- $\mathcal{R}$ -->
    <g transform="translate(56.010032 142.177129)scale(0.12 -0.12)">
     <defs>
      <path id="Cmsy10-52" d="M 738 -91 
Q 738 -78 744 -56 
Q 966 475 1128 959 
Q 1291 1444 1428 1991 
Q 1678 2959 1766 3994 
Q 1425 3994 1094 3872 
Q 922 3803 833 3695 
Q 744 3588 684 3397 
Q 622 3291 472 3197 
Q 322 3103 206 3103 
L 166 3103 
Q 122 3131 122 3169 
Q 234 3556 581 3828 
Q 928 4100 1387 4236 
Q 1847 4372 2259 4372 
L 2931 4372 
Q 3378 4372 3739 4331 
Q 4100 4291 4392 4112 
Q 4684 3934 4684 3572 
Q 4684 3281 4548 3014 
Q 4413 2747 4189 2533 
Q 3966 2319 3697 2158 
Q 3428 1997 3156 1900 
Q 3253 1784 3383 1501 
Q 3513 1219 3659 911 
Q 3806 603 3951 420 
Q 4097 238 4256 238 
Q 4444 238 4551 308 
Q 4659 378 4775 520 
Q 4891 663 4997 745 
Q 5103 828 5281 844 
L 5319 844 
Q 5363 822 5363 794 
Q 5363 784 5356 768 
Q 5350 753 5344 738 
Q 5188 503 4936 297 
Q 4684 91 4393 -25 
Q 4103 -141 3828 -141 
L 3788 -141 
Q 3541 -141 3372 98 
Q 3203 338 3003 811 
Q 2803 1284 2651 1515 
Q 2500 1747 2278 1747 
Q 2266 1753 2250 1765 
Q 2234 1778 2234 1797 
Q 2234 1900 2420 2006 
Q 2606 2113 2719 2125 
Q 3072 2125 3395 2262 
Q 3719 2400 3917 2667 
Q 4116 2934 4116 3291 
Q 4116 3613 3833 3767 
Q 3550 3922 3203 3958 
Q 2856 3994 2450 3994 
L 2309 3994 
Q 2209 3041 1954 2070 
Q 1700 1100 1300 153 
Q 1238 41 1092 -43 
Q 947 -128 813 -141 
L 781 -141 
Q 769 -134 753 -121 
Q 738 -109 738 -91 
z
" transform="scale(0.015625)"/>
     </defs>
     <use xlink:href="#Cmsy10-52" transform="translate(0 0.6875)"/>
    </g>
   </g>
  </g>
 </g>
 <defs>
  <clipPath id="p507048d575">
   <rect x="13.772256" y="7.433935" width="289.595809" height="318.555389"/>
  </clipPath>
 </defs>
</svg>
