<?xml version="1.0" encoding="utf-8" standalone="no"?>
<!DOCTYPE svg PUBLIC "-//W3C//DTD SVG 1.1//EN"
  "http://www.w3.org/Graphics/SVG/1.1/DTD/svg11.dtd">
<svg xmlns:xlink="http://www.w3.org/1999/xlink" width="316.509125pt" height="335.425604pt" viewBox="0 0 316.509125 335.425604" xmlns="http://www.w3.org/2000/svg" version="1.1">
 <metadata>
  <rdf:RDF xmlns:dc="http://purl.org/dc/elements/1.1/" xmlns:cc="http://creativecommons.org/ns#" xmlns:rdf="http://www.w3.org/1999/02/22-rdf-syntax-ns#">
   <cc:Work>
    <dc:type rdf:resource="http://purl.org/dc/dcmitype/StillImage"/>
    <dc:date>2022-11-10T16:46:35.706953</dc:date>
    <dc:format>image/svg+xml</dc:format>
    <dc:creator>
     <cc:Agent>
      <dc:title>Matplotlib v3.5.1, https://matplotlib.org/</dc:title>
     </cc:Agent>
    </dc:creator>
   </cc:Work>
  </rdf:RDF>
 </metadata>
 <defs>
  <style type="text/css">*{stroke-linejoin: round; stroke-linecap: butt}</style>
 </defs>
 <g id="figure_1">
  <g id="patch_1">
   <path d="M 0 335.425604 
L 316.509125 335.425604 
L 316.509125 0 
L 0 0 
z
" style="fill: #ffffff"/>
  </g>
  <g id="axes_1">
   <g id="patch_2">
    <path d="M 24.678036 317.515077 
L 306.782652 317.515077 
L 306.782652 7.2 
L 24.678036 7.2 
z
" style="fill: #ffffff"/>
   </g>
   <g id="patch_3">
    <path d="M 301.357563 40.293041 
L 300.395536 42.213683 
L 299.17602 44.638583 
L 296.939697 49.05682 
L 296.566158 49.791217 
L 294.654444 53.533634 
L 293.428499 55.919395 
L 292.128622 58.436925 
L 290.961646 60.686449 
L 289.192996 64.076648 
L 287.344676 67.594916 
L 286.093309 69.962586 
L 285.139676 71.759173 
L 283.981182 73.932683 
L 282.681695 76.358944 
L 281.527703 78.503113 
L 279.218895 82.763511 
L 278.607643 83.884861 
L 277.032126 86.76247 
L 275.004397 90.439085 
L 273.911169 92.408715 
L 272.95821 94.118439 
L 271.088079 97.454216 
L 269.53955 100.19683 
L 269.197688 100.799922 
L 267.800123 103.256462 
L 266.383313 105.732129 
L 264.827012 108.434478 
L 262.832101 111.872308 
L 261.5888 114.000047 
L 260.318013 116.163045 
L 259.404516 117.710547 
L 257.830435 120.362671 
L 255.728354 123.875918 
L 254.712748 125.561645 
L 253.906018 126.895256 
L 252.036117 129.967952 
L 250.251473 132.876503 
L 249.377954 134.291574 
L 247.821538 136.798975 
L 247.181394 137.825068 
L 244.853046 141.531723 
L 244.604604 141.924874 
L 242.144214 145.793792 
L 240.840881 147.825174 
L 239.690092 149.608389 
L 238.336106 151.693968 
L 236.658811 154.258803 
L 236.54526 154.431689 
L 234.231862 157.93325 
L 233.820544 158.55169 
L 232.032056 161.226277 
L 230.829664 163.011131 
L 228.577468 166.325653 
L 227.332579 168.141687 
L 227.060233 168.53746 
L 224.973229 171.552139 
L 223.797064 173.236961 
L 222.90914 174.502129 
L 221.444883 176.575795 
L 219.343917 179.523548 
L 218.481634 180.723951 
L 216.848756 182.982096 
L 215.530358 184.790995 
L 214.438243 186.27972 
L 212.614487 188.74618 
L 211.893843 189.714026 
L 210.206039 191.965806 
L 209.249689 193.232396 
L 207.368913 195.703624 
L 205.347976 198.329948 
L 204.942785 198.852892 
L 202.614168 201.834768 
L 201.458131 203.300262 
L 200.856224 204.059391 
L 198.47044 207.042082 
L 198.349601 207.192038 
L 196.030544 210.049017 
L 195.036252 211.261797 
L 193.958628 212.56799 
L 192.259297 214.610358 
L 191.550995 215.455356 
L 189.972461 217.325225 
L 188.126808 219.488214 
L 187.493059 220.225134 
L 184.993983 223.102187 
L 184.347297 223.839183 
L 182.885887 225.493321 
L 180.968946 227.639189 
L 180.017402 228.694308 
L 179.079678 229.727571 
L 177.174096 231.807326 
L 176.080947 232.988306 
L 174.378433 234.810063 
L 173.160166 236.10054 
L 172.18057 237.130263 
L 169.879431 239.521318 
L 169.231872 240.187141 
L 168.364839 241.073788 
L 166.806185 242.653761 
L 165.318648 244.144941 
L 164.12573 245.328992 
L 162.857681 246.57611 
L 160.961534 248.418841 
L 159.864258 249.473097 
L 158.325101 250.93695 
L 157.433689 251.776762 
L 156.037366 253.08048 
L 154.654099 254.357834 
L 152.864226 255.989723 
L 151.306274 257.390934 
L 149.56078 258.93956 
L 148.593314 259.788234 
L 147.358896 260.861061 
L 146.306827 261.766541 
L 144.503276 263.29981 
L 143.878876 263.825047 
L 142.236871 265.192562 
L 140.949404 266.250902 
L 139.450581 267.467588 
L 137.32209 269.166951 
L 135.860396 270.314604 
L 135.543777 270.561123 
L 134.146562 271.640162 
L 132.618501 272.803773 
L 131.544118 273.611602 
L 130.007489 274.752203 
L 127.741514 276.402414 
L 126.274128 277.45085 
L 125.029259 278.327854 
L 123.567247 279.343242 
L 123.117499 279.652429 
L 121.719159 280.604215 
L 119.987042 281.763198 
L 119.349413 282.184273 
L 117.873518 283.147421 
L 115.660329 284.561616 
L 114.005907 285.595178 
L 113.745524 285.756009 
L 112.26088 286.663475 
L 110.647438 287.631239 
L 109.782943 288.141877 
L 107.828584 289.275966 
L 106.440006 290.064626 
L 104.641518 291.064968 
L 103.184915 291.857671 
L 102.778426 292.076095 
L 100.732581 293.156923 
L 100.218811 293.423501 
L 98.503492 294.299429 
L 96.517217 295.286615 
L 95.808312 295.6319 
L 93.932451 296.527696 
L 92.830562 297.041794 
L 91.289098 297.74596 
L 89.562163 298.514044 
L 88.077885 299.15663 
L 87.69633 299.319192 
L 85.806922 300.108356 
L 85.022281 300.428348 
L 83.6906 300.961044 
L 81.985764 301.623925 
L 80.98899 302.001566 
L 79.57244 302.525643 
L 78.085424 303.059872 
L 76.505899 303.609481 
L 75.636917 303.904006 
L 74.267837 304.356733 
L 72.438042 304.940232 
L 71.465262 305.240389 
L 69.549303 305.811164 
L 68.535381 306.102266 
L 67.106276 306.499698 
L 65.102284 307.031641 
L 64.108802 307.284375 
L 62.560912 307.663643 
L 61.397481 307.937081 
L 60.107189 308.228662 
L 58.621532 308.549189 
L 57.913632 308.696192 
L 55.998805 309.075312 
L 54.881823 309.283981 
L 53.004357 309.613994 
L 52.096548 309.764243 
L 50.194667 310.059319 
L 48.96822 310.235457 
L 48.051236 310.359905 
L 46.805699 310.519013 
L 45.389255 310.686053 
L 43.764837 310.859408 
L 42.801409 310.953032 
L 41.630837 311.057577 
L 39.530798 311.219813 
L 38.142033 311.309238 
L 37.247495 311.359309 
L 35.187426 311.452181 
L 34.64437 311.471451 
L 32.438674 311.52737 
L 31.908066 311.535469 
L 30.103125 311.547479 
L 30.103125 40.293041 
L 31.040071 40.293041 
L 32.855065 40.293041 
L 34.153561 40.293041 
L 35.699543 40.293041 
L 36.960426 40.293041 
L 38.718946 40.293041 
L 40.308001 40.293041 
L 41.602139 40.293041 
L 42.644188 40.293041 
L 43.173069 40.293041 
L 45.539143 40.293041 
L 46.356439 40.293041 
L 48.103508 40.293041 
L 49.654618 40.293041 
L 50.849154 40.293041 
L 51.609285 40.293041 
L 53.544149 40.293041 
L 54.429983 40.293041 
L 55.613022 40.293041 
L 58.029705 40.293041 
L 59.233433 40.293041 
L 60.091095 40.293041 
L 61.154328 40.293041 
L 63.420941 40.293041 
L 64.385623 40.293041 
L 65.65102 40.293041 
L 67.055983 40.293041 
L 68.421038 40.293041 
L 70.139534 40.293041 
L 70.523391 40.293041 
L 72.503202 40.293041 
L 73.051462 40.293041 
L 74.607221 40.293041 
L 76.803535 40.293041 
L 77.716685 40.293041 
L 79.608495 40.293041 
L 80.495795 40.293041 
L 81.410294 40.293041 
L 82.825051 40.293041 
L 85.072024 40.293041 
L 85.575584 40.293041 
L 87.176803 40.293041 
L 89.257394 40.293041 
L 90.021429 40.293041 
L 91.843148 40.293041 
L 92.390344 40.293041 
L 93.501319 40.293041 
L 95.508417 40.293041 
L 97.417479 40.293041 
L 98.290834 40.293041 
L 99.005882 40.293041 
L 101.168406 40.293041 
L 102.75287 40.293041 
L 103.790813 40.293041 
L 104.623481 40.293041 
L 106.922871 40.293041 
L 107.14061 40.293041 
L 109.075081 40.293041 
L 110.830088 40.293041 
L 112.014473 40.293041 
L 113.333886 40.293041 
L 114.682744 40.293041 
L 115.882009 40.293041 
L 117.269283 40.293041 
L 118.336982 40.293041 
L 120.266644 40.293041 
L 121.540107 40.293041 
L 122.300318 40.293041 
L 124.6875 40.293041 
L 125.259696 40.293041 
L 127.088392 40.293041 
L 128.043314 40.293041 
L 129.512632 40.293041 
L 131.499546 40.293041 
L 132.580488 40.293041 
L 133.125989 40.293041 
L 134.397537 40.293041 
L 137.096957 40.293041 
L 138.004931 40.293041 
L 139.153705 40.293041 
L 141.180512 40.293041 
L 142.132871 40.293041 
L 142.911563 40.293041 
L 144.559944 40.293041 
L 146.296956 40.293041 
L 147.469363 40.293041 
L 148.301889 40.293041 
L 149.92157 40.293041 
L 151.148462 40.293041 
L 152.47082 40.293041 
L 154.150761 40.293041 
L 156.176082 40.293041 
L 156.500894 40.293041 
L 158.149481 40.293041 
L 159.347025 40.293041 
L 160.917962 40.293041 
L 162.555372 40.293041 
L 163.94593 40.293041 
L 165.06446 40.293041 
L 166.575311 40.293041 
L 167.794405 40.293041 
L 168.851353 40.293041 
L 170.28059 40.293041 
L 172.482863 40.293041 
L 173.653262 40.293041 
L 174.562562 40.293041 
L 176.539622 40.293041 
L 177.19193 40.293041 
L 179.265332 40.293041 
L 179.475242 40.293041 
L 181.540026 40.293041 
L 183.322894 40.293041 
L 184.798708 40.293041 
L 186.102864 40.293041 
L 186.523378 40.293041 
L 187.812021 40.293041 
L 189.720316 40.293041 
L 190.901253 40.293041 
L 192.316398 40.293041 
L 193.247015 40.293041 
L 194.379396 40.293041 
L 196.286468 40.293041 
L 197.387661 40.293041 
L 198.710902 40.293041 
L 200.87625 40.293041 
L 202.382243 40.293041 
L 203.050777 40.293041 
L 204.057936 40.293041 
L 206.08775 40.293041 
L 207.115382 40.293041 
L 208.130022 40.293041 
L 210.520368 40.293041 
L 211.194071 40.293041 
L 212.852759 40.293041 
L 213.596116 40.293041 
L 215.166715 40.293041 
L 217.393065 40.293041 
L 218.299361 40.293041 
L 219.420263 40.293041 
L 220.677226 40.293041 
L 222.347366 40.293041 
L 223.88577 40.293041 
L 225.697337 40.293041 
L 227.035938 40.293041 
L 227.92505 40.293041 
L 228.492051 40.293041 
L 230.841469 40.293041 
L 231.832853 40.293041 
L 232.693565 40.293041 
L 233.97057 40.293041 
L 235.35406 40.293041 
L 236.886419 40.293041 
L 238.864781 40.293041 
L 240.026985 40.293041 
L 240.928074 40.293041 
L 242.60319 40.293041 
L 243.935947 40.293041 
L 245.019146 40.293041 
L 246.461058 40.293041 
L 247.565186 40.293041 
L 248.888881 40.293041 
L 251.408841 40.293041 
L 251.972528 40.293041 
L 253.718381 40.293041 
L 255.503872 40.293041 
L 256.325863 40.293041 
L 258.006125 40.293041 
L 259.682255 40.293041 
L 260.156133 40.293041 
L 261.449603 40.293041 
L 262.910644 40.293041 
L 264.24004 40.293041 
L 265.552563 40.293041 
L 266.646391 40.293041 
L 268.930104 40.293041 
L 270.344504 40.293041 
L 270.697004 40.293041 
L 272.734607 40.293041 
L 273.94915 40.293041 
L 276.049928 40.293041 
L 276.990986 40.293041 
L 278.840301 40.293041 
L 280.152896 40.293041 
L 280.609477 40.293041 
L 281.724417 40.293041 
L 283.991503 40.293041 
L 284.562593 40.293041 
L 285.915189 40.293041 
L 287.58325 40.293041 
L 289.166187 40.293041 
L 291.039857 40.293041 
L 291.244058 40.293041 
L 293.331315 40.293041 
L 294.073929 40.293041 
L 295.981779 40.293041 
L 297.320386 40.293041 
L 298.064905 40.293041 
L 299.810801 40.293041 
z
" clip-path="url(#p0aee0b838b)" style="fill: #008000; opacity: 0.5"/>
   </g>
   <g id="matplotlib.axis_1">
    <g id="xtick_1">
     <g id="line2d_1">
      <defs>
       <path id="m302aaa0e9e" d="M 0 0 
L 0 3.5 
" style="stroke: #000000; stroke-width: 0.8"/>
      </defs>
      <g>
       <use xlink:href="#m302aaa0e9e" x="30.103125" y="311.547479" style="stroke: #000000; stroke-width: 0.8"/>
      </g>
     </g>
    </g>
    <g id="xtick_2">
     <g id="line2d_2">
      <g>
       <use xlink:href="#m302aaa0e9e" x="84.354013" y="311.547479" style="stroke: #000000; stroke-width: 0.8"/>
      </g>
     </g>
     <g id="text_1">
      <!-- 0.2 -->
      <g transform="translate(76.40245 326.145917)scale(0.1 -0.1)">
       <defs>
        <path id="DejaVuSans-30" d="M 2034 4250 
Q 1547 4250 1301 3770 
Q 1056 3291 1056 2328 
Q 1056 1369 1301 889 
Q 1547 409 2034 409 
Q 2525 409 2770 889 
Q 3016 1369 3016 2328 
Q 3016 3291 2770 3770 
Q 2525 4250 2034 4250 
z
M 2034 4750 
Q 2819 4750 3233 4129 
Q 3647 3509 3647 2328 
Q 3647 1150 3233 529 
Q 2819 -91 2034 -91 
Q 1250 -91 836 529 
Q 422 1150 422 2328 
Q 422 3509 836 4129 
Q 1250 4750 2034 4750 
z
" transform="scale(0.015625)"/>
        <path id="DejaVuSans-2e" d="M 684 794 
L 1344 794 
L 1344 0 
L 684 0 
L 684 794 
z
" transform="scale(0.015625)"/>
        <path id="DejaVuSans-32" d="M 1228 531 
L 3431 531 
L 3431 0 
L 469 0 
L 469 531 
Q 828 903 1448 1529 
Q 2069 2156 2228 2338 
Q 2531 2678 2651 2914 
Q 2772 3150 2772 3378 
Q 2772 3750 2511 3984 
Q 2250 4219 1831 4219 
Q 1534 4219 1204 4116 
Q 875 4013 500 3803 
L 500 4441 
Q 881 4594 1212 4672 
Q 1544 4750 1819 4750 
Q 2544 4750 2975 4387 
Q 3406 4025 3406 3419 
Q 3406 3131 3298 2873 
Q 3191 2616 2906 2266 
Q 2828 2175 2409 1742 
Q 1991 1309 1228 531 
z
" transform="scale(0.015625)"/>
       </defs>
       <use xlink:href="#DejaVuSans-30"/>
       <use xlink:href="#DejaVuSans-2e" x="63.623047"/>
       <use xlink:href="#DejaVuSans-32" x="95.410156"/>
      </g>
     </g>
    </g>
    <g id="xtick_3">
     <g id="line2d_3">
      <g>
       <use xlink:href="#m302aaa0e9e" x="138.6049" y="311.547479" style="stroke: #000000; stroke-width: 0.8"/>
      </g>
     </g>
     <g id="text_2">
      <!-- 0.4 -->
      <g transform="translate(130.653338 326.145917)scale(0.1 -0.1)">
       <defs>
        <path id="DejaVuSans-34" d="M 2419 4116 
L 825 1625 
L 2419 1625 
L 2419 4116 
z
M 2253 4666 
L 3047 4666 
L 3047 1625 
L 3713 1625 
L 3713 1100 
L 3047 1100 
L 3047 0 
L 2419 0 
L 2419 1100 
L 313 1100 
L 313 1709 
L 2253 4666 
z
" transform="scale(0.015625)"/>
       </defs>
       <use xlink:href="#DejaVuSans-30"/>
       <use xlink:href="#DejaVuSans-2e" x="63.623047"/>
       <use xlink:href="#DejaVuSans-34" x="95.410156"/>
      </g>
     </g>
    </g>
    <g id="xtick_4">
     <g id="line2d_4">
      <g>
       <use xlink:href="#m302aaa0e9e" x="192.855788" y="311.547479" style="stroke: #000000; stroke-width: 0.8"/>
      </g>
     </g>
     <g id="text_3">
      <!-- 0.6 -->
      <g transform="translate(184.904225 326.145917)scale(0.1 -0.1)">
       <defs>
        <path id="DejaVuSans-36" d="M 2113 2584 
Q 1688 2584 1439 2293 
Q 1191 2003 1191 1497 
Q 1191 994 1439 701 
Q 1688 409 2113 409 
Q 2538 409 2786 701 
Q 3034 994 3034 1497 
Q 3034 2003 2786 2293 
Q 2538 2584 2113 2584 
z
M 3366 4563 
L 3366 3988 
Q 3128 4100 2886 4159 
Q 2644 4219 2406 4219 
Q 1781 4219 1451 3797 
Q 1122 3375 1075 2522 
Q 1259 2794 1537 2939 
Q 1816 3084 2150 3084 
Q 2853 3084 3261 2657 
Q 3669 2231 3669 1497 
Q 3669 778 3244 343 
Q 2819 -91 2113 -91 
Q 1303 -91 875 529 
Q 447 1150 447 2328 
Q 447 3434 972 4092 
Q 1497 4750 2381 4750 
Q 2619 4750 2861 4703 
Q 3103 4656 3366 4563 
z
" transform="scale(0.015625)"/>
       </defs>
       <use xlink:href="#DejaVuSans-30"/>
       <use xlink:href="#DejaVuSans-2e" x="63.623047"/>
       <use xlink:href="#DejaVuSans-36" x="95.410156"/>
      </g>
     </g>
    </g>
    <g id="xtick_5">
     <g id="line2d_5">
      <g>
       <use xlink:href="#m302aaa0e9e" x="247.106675" y="311.547479" style="stroke: #000000; stroke-width: 0.8"/>
      </g>
     </g>
     <g id="text_4">
      <!-- 0.8 -->
      <g transform="translate(239.155113 326.145917)scale(0.1 -0.1)">
       <defs>
        <path id="DejaVuSans-38" d="M 2034 2216 
Q 1584 2216 1326 1975 
Q 1069 1734 1069 1313 
Q 1069 891 1326 650 
Q 1584 409 2034 409 
Q 2484 409 2743 651 
Q 3003 894 3003 1313 
Q 3003 1734 2745 1975 
Q 2488 2216 2034 2216 
z
M 1403 2484 
Q 997 2584 770 2862 
Q 544 3141 544 3541 
Q 544 4100 942 4425 
Q 1341 4750 2034 4750 
Q 2731 4750 3128 4425 
Q 3525 4100 3525 3541 
Q 3525 3141 3298 2862 
Q 3072 2584 2669 2484 
Q 3125 2378 3379 2068 
Q 3634 1759 3634 1313 
Q 3634 634 3220 271 
Q 2806 -91 2034 -91 
Q 1263 -91 848 271 
Q 434 634 434 1313 
Q 434 1759 690 2068 
Q 947 2378 1403 2484 
z
M 1172 3481 
Q 1172 3119 1398 2916 
Q 1625 2713 2034 2713 
Q 2441 2713 2670 2916 
Q 2900 3119 2900 3481 
Q 2900 3844 2670 4047 
Q 2441 4250 2034 4250 
Q 1625 4250 1398 4047 
Q 1172 3844 1172 3481 
z
" transform="scale(0.015625)"/>
       </defs>
       <use xlink:href="#DejaVuSans-30"/>
       <use xlink:href="#DejaVuSans-2e" x="63.623047"/>
       <use xlink:href="#DejaVuSans-38" x="95.410156"/>
      </g>
     </g>
    </g>
    <g id="xtick_6">
     <g id="line2d_6">
      <g>
       <use xlink:href="#m302aaa0e9e" x="301.357563" y="311.547479" style="stroke: #000000; stroke-width: 0.8"/>
      </g>
     </g>
     <g id="text_5">
      <!-- 1.0 -->
      <g transform="translate(293.406 326.145917)scale(0.1 -0.1)">
       <defs>
        <path id="DejaVuSans-31" d="M 794 531 
L 1825 531 
L 1825 4091 
L 703 3866 
L 703 4441 
L 1819 4666 
L 2450 4666 
L 2450 531 
L 3481 531 
L 3481 0 
L 794 0 
L 794 531 
z
" transform="scale(0.015625)"/>
       </defs>
       <use xlink:href="#DejaVuSans-31"/>
       <use xlink:href="#DejaVuSans-2e" x="63.623047"/>
       <use xlink:href="#DejaVuSans-30" x="95.410156"/>
      </g>
     </g>
    </g>
    <g id="xtick_7">
     <g id="line2d_7">
      <defs>
       <path id="m9a08efdc09" d="M 0 0 
L 0 2 
" style="stroke: #000000; stroke-width: 0.6"/>
      </defs>
      <g>
       <use xlink:href="#m9a08efdc09" x="43.665847" y="311.547479" style="stroke: #000000; stroke-width: 0.6"/>
      </g>
     </g>
    </g>
    <g id="xtick_8">
     <g id="line2d_8">
      <g>
       <use xlink:href="#m9a08efdc09" x="57.228569" y="311.547479" style="stroke: #000000; stroke-width: 0.6"/>
      </g>
     </g>
    </g>
    <g id="xtick_9">
     <g id="line2d_9">
      <g>
       <use xlink:href="#m9a08efdc09" x="70.791291" y="311.547479" style="stroke: #000000; stroke-width: 0.6"/>
      </g>
     </g>
    </g>
    <g id="xtick_10">
     <g id="line2d_10">
      <g>
       <use xlink:href="#m9a08efdc09" x="97.916734" y="311.547479" style="stroke: #000000; stroke-width: 0.6"/>
      </g>
     </g>
    </g>
    <g id="xtick_11">
     <g id="line2d_11">
      <g>
       <use xlink:href="#m9a08efdc09" x="111.479456" y="311.547479" style="stroke: #000000; stroke-width: 0.6"/>
      </g>
     </g>
    </g>
    <g id="xtick_12">
     <g id="line2d_12">
      <g>
       <use xlink:href="#m9a08efdc09" x="125.042178" y="311.547479" style="stroke: #000000; stroke-width: 0.6"/>
      </g>
     </g>
    </g>
    <g id="xtick_13">
     <g id="line2d_13">
      <g>
       <use xlink:href="#m9a08efdc09" x="152.167622" y="311.547479" style="stroke: #000000; stroke-width: 0.6"/>
      </g>
     </g>
    </g>
    <g id="xtick_14">
     <g id="line2d_14">
      <g>
       <use xlink:href="#m9a08efdc09" x="165.730344" y="311.547479" style="stroke: #000000; stroke-width: 0.6"/>
      </g>
     </g>
    </g>
    <g id="xtick_15">
     <g id="line2d_15">
      <g>
       <use xlink:href="#m9a08efdc09" x="179.293066" y="311.547479" style="stroke: #000000; stroke-width: 0.6"/>
      </g>
     </g>
    </g>
    <g id="xtick_16">
     <g id="line2d_16">
      <g>
       <use xlink:href="#m9a08efdc09" x="206.41851" y="311.547479" style="stroke: #000000; stroke-width: 0.6"/>
      </g>
     </g>
    </g>
    <g id="xtick_17">
     <g id="line2d_17">
      <g>
       <use xlink:href="#m9a08efdc09" x="219.981232" y="311.547479" style="stroke: #000000; stroke-width: 0.6"/>
      </g>
     </g>
    </g>
    <g id="xtick_18">
     <g id="line2d_18">
      <g>
       <use xlink:href="#m9a08efdc09" x="233.543953" y="311.547479" style="stroke: #000000; stroke-width: 0.6"/>
      </g>
     </g>
    </g>
    <g id="xtick_19">
     <g id="line2d_19">
      <g>
       <use xlink:href="#m9a08efdc09" x="260.669397" y="311.547479" style="stroke: #000000; stroke-width: 0.6"/>
      </g>
     </g>
    </g>
    <g id="xtick_20">
     <g id="line2d_20">
      <g>
       <use xlink:href="#m9a08efdc09" x="274.232119" y="311.547479" style="stroke: #000000; stroke-width: 0.6"/>
      </g>
     </g>
    </g>
    <g id="xtick_21">
     <g id="line2d_21">
      <g>
       <use xlink:href="#m9a08efdc09" x="287.794841" y="311.547479" style="stroke: #000000; stroke-width: 0.6"/>
      </g>
     </g>
    </g>
   </g>
   <g id="matplotlib.axis_2">
    <g id="ytick_1">
     <g id="line2d_22">
      <defs>
       <path id="m3a88d992d9" d="M 0 0 
L -3.5 0 
" style="stroke: #000000; stroke-width: 0.8"/>
      </defs>
      <g>
       <use xlink:href="#m3a88d992d9" x="30.103125" y="311.547479" style="stroke: #000000; stroke-width: 0.8"/>
      </g>
     </g>
    </g>
    <g id="ytick_2">
     <g id="line2d_23">
      <g>
       <use xlink:href="#m3a88d992d9" x="30.103125" y="257.296592" style="stroke: #000000; stroke-width: 0.8"/>
      </g>
     </g>
     <g id="text_6">
      <!-- 0.2 -->
      <g transform="translate(7.2 261.09581)scale(0.1 -0.1)">
       <use xlink:href="#DejaVuSans-30"/>
       <use xlink:href="#DejaVuSans-2e" x="63.623047"/>
       <use xlink:href="#DejaVuSans-32" x="95.410156"/>
      </g>
     </g>
    </g>
    <g id="ytick_3">
     <g id="line2d_24">
      <g>
       <use xlink:href="#m3a88d992d9" x="30.103125" y="203.045704" style="stroke: #000000; stroke-width: 0.8"/>
      </g>
     </g>
     <g id="text_7">
      <!-- 0.4 -->
      <g transform="translate(7.2 206.844923)scale(0.1 -0.1)">
       <use xlink:href="#DejaVuSans-30"/>
       <use xlink:href="#DejaVuSans-2e" x="63.623047"/>
       <use xlink:href="#DejaVuSans-34" x="95.410156"/>
      </g>
     </g>
    </g>
    <g id="ytick_4">
     <g id="line2d_25">
      <g>
       <use xlink:href="#m3a88d992d9" x="30.103125" y="148.794817" style="stroke: #000000; stroke-width: 0.8"/>
      </g>
     </g>
     <g id="text_8">
      <!-- 0.6 -->
      <g transform="translate(7.2 152.594035)scale(0.1 -0.1)">
       <use xlink:href="#DejaVuSans-30"/>
       <use xlink:href="#DejaVuSans-2e" x="63.623047"/>
       <use xlink:href="#DejaVuSans-36" x="95.410156"/>
      </g>
     </g>
    </g>
    <g id="ytick_5">
     <g id="line2d_26">
      <g>
       <use xlink:href="#m3a88d992d9" x="30.103125" y="94.543929" style="stroke: #000000; stroke-width: 0.8"/>
      </g>
     </g>
     <g id="text_9">
      <!-- 0.8 -->
      <g transform="translate(7.2 98.343148)scale(0.1 -0.1)">
       <use xlink:href="#DejaVuSans-30"/>
       <use xlink:href="#DejaVuSans-2e" x="63.623047"/>
       <use xlink:href="#DejaVuSans-38" x="95.410156"/>
      </g>
     </g>
    </g>
    <g id="ytick_6">
     <g id="line2d_27">
      <g>
       <use xlink:href="#m3a88d992d9" x="30.103125" y="40.293041" style="stroke: #000000; stroke-width: 0.8"/>
      </g>
     </g>
     <g id="text_10">
      <!-- 1.0 -->
      <g transform="translate(7.2 44.09226)scale(0.1 -0.1)">
       <use xlink:href="#DejaVuSans-31"/>
       <use xlink:href="#DejaVuSans-2e" x="63.623047"/>
       <use xlink:href="#DejaVuSans-30" x="95.410156"/>
      </g>
     </g>
    </g>
    <g id="ytick_7">
     <g id="line2d_28">
      <defs>
       <path id="me5a640e6c2" d="M 0 0 
L -2 0 
" style="stroke: #000000; stroke-width: 0.6"/>
      </defs>
      <g>
       <use xlink:href="#me5a640e6c2" x="30.103125" y="297.984757" style="stroke: #000000; stroke-width: 0.6"/>
      </g>
     </g>
    </g>
    <g id="ytick_8">
     <g id="line2d_29">
      <g>
       <use xlink:href="#me5a640e6c2" x="30.103125" y="284.422036" style="stroke: #000000; stroke-width: 0.6"/>
      </g>
     </g>
    </g>
    <g id="ytick_9">
     <g id="line2d_30">
      <g>
       <use xlink:href="#me5a640e6c2" x="30.103125" y="270.859314" style="stroke: #000000; stroke-width: 0.6"/>
      </g>
     </g>
    </g>
    <g id="ytick_10">
     <g id="line2d_31">
      <g>
       <use xlink:href="#me5a640e6c2" x="30.103125" y="243.73387" style="stroke: #000000; stroke-width: 0.6"/>
      </g>
     </g>
    </g>
    <g id="ytick_11">
     <g id="line2d_32">
      <g>
       <use xlink:href="#me5a640e6c2" x="30.103125" y="230.171148" style="stroke: #000000; stroke-width: 0.6"/>
      </g>
     </g>
    </g>
    <g id="ytick_12">
     <g id="line2d_33">
      <g>
       <use xlink:href="#me5a640e6c2" x="30.103125" y="216.608426" style="stroke: #000000; stroke-width: 0.6"/>
      </g>
     </g>
    </g>
    <g id="ytick_13">
     <g id="line2d_34">
      <g>
       <use xlink:href="#me5a640e6c2" x="30.103125" y="189.482982" style="stroke: #000000; stroke-width: 0.6"/>
      </g>
     </g>
    </g>
    <g id="ytick_14">
     <g id="line2d_35">
      <g>
       <use xlink:href="#me5a640e6c2" x="30.103125" y="175.92026" style="stroke: #000000; stroke-width: 0.6"/>
      </g>
     </g>
    </g>
    <g id="ytick_15">
     <g id="line2d_36">
      <g>
       <use xlink:href="#me5a640e6c2" x="30.103125" y="162.357538" style="stroke: #000000; stroke-width: 0.6"/>
      </g>
     </g>
    </g>
    <g id="ytick_16">
     <g id="line2d_37">
      <g>
       <use xlink:href="#me5a640e6c2" x="30.103125" y="135.232095" style="stroke: #000000; stroke-width: 0.6"/>
      </g>
     </g>
    </g>
    <g id="ytick_17">
     <g id="line2d_38">
      <g>
       <use xlink:href="#me5a640e6c2" x="30.103125" y="121.669373" style="stroke: #000000; stroke-width: 0.6"/>
      </g>
     </g>
    </g>
    <g id="ytick_18">
     <g id="line2d_39">
      <g>
       <use xlink:href="#me5a640e6c2" x="30.103125" y="108.106651" style="stroke: #000000; stroke-width: 0.6"/>
      </g>
     </g>
    </g>
    <g id="ytick_19">
     <g id="line2d_40">
      <g>
       <use xlink:href="#me5a640e6c2" x="30.103125" y="80.981207" style="stroke: #000000; stroke-width: 0.6"/>
      </g>
     </g>
    </g>
    <g id="ytick_20">
     <g id="line2d_41">
      <g>
       <use xlink:href="#me5a640e6c2" x="30.103125" y="67.418485" style="stroke: #000000; stroke-width: 0.6"/>
      </g>
     </g>
    </g>
    <g id="ytick_21">
     <g id="line2d_42">
      <g>
       <use xlink:href="#me5a640e6c2" x="30.103125" y="53.855763" style="stroke: #000000; stroke-width: 0.6"/>
      </g>
     </g>
    </g>
    <g id="ytick_22">
     <g id="line2d_43">
      <g>
       <use xlink:href="#me5a640e6c2" x="30.103125" y="26.73032" style="stroke: #000000; stroke-width: 0.6"/>
      </g>
     </g>
    </g>
    <g id="ytick_23">
     <g id="line2d_44">
      <g>
       <use xlink:href="#me5a640e6c2" x="30.103125" y="13.167598" style="stroke: #000000; stroke-width: 0.6"/>
      </g>
     </g>
    </g>
   </g>
   <g id="line2d_45">
    <path d="M 30.103125 40.293041 
L 301.357563 40.293041 
L 301.357563 40.293041 
" clip-path="url(#p0aee0b838b)" style="fill: none; stroke: #0000ff; stroke-linecap: square"/>
   </g>
   <g id="line2d_46">
    <path d="M 30.103125 311.547479 
L 34.951979 311.460803 
L 41.544172 311.064916 
L 47.474332 310.435023 
L 52.641724 309.674741 
L 57.995246 308.679433 
L 62.661504 307.639532 
L 67.949635 306.266982 
L 71.743513 305.155245 
L 77.824461 303.151945 
L 82.773082 301.32046 
L 88.578414 298.941752 
L 95.270798 295.891236 
L 101.727827 292.634985 
L 108.310781 288.99877 
L 112.881695 286.285988 
L 119.867235 281.842544 
L 126.535964 277.264935 
L 132.906465 272.585806 
L 139.270654 267.612532 
L 145.659344 262.319751 
L 152.376534 256.430274 
L 157.764564 251.465724 
L 164.853611 244.607769 
L 171.646054 237.689146 
L 178.053842 230.850497 
L 184.417501 223.759325 
L 190.815789 216.328538 
L 198.003016 207.621536 
L 204.538733 199.373162 
L 211.917821 189.681884 
L 218.954625 180.066168 
L 226.261848 169.694521 
L 234.225603 157.942671 
L 240.768189 147.938103 
L 249.21065 134.561961 
L 255.831015 123.705096 
L 262.597679 112.27436 
L 270.112334 99.184427 
L 277.810444 85.343196 
L 286.430107 69.326477 
L 294.34841 54.130232 
L 301.357563 40.293041 
L 301.357563 40.293041 
" clip-path="url(#p0aee0b838b)" style="fill: none; stroke: #ff0000; stroke-linecap: square"/>
   </g>
   <g id="patch_4">
    <path d="M 30.103125 317.515077 
L 30.103125 7.2 
" style="fill: none; stroke: #000000; stroke-width: 0.8; stroke-linejoin: miter; stroke-linecap: square"/>
   </g>
   <g id="patch_5">
    <path d="M 24.678036 311.547479 
L 306.782652 311.547479 
" style="fill: none; stroke: #000000; stroke-width: 0.8; stroke-linejoin: miter; stroke-linecap: square"/>
   </g>
   <g id="text_11">
    <!-- $y=1$ -->
    <g transform="translate(153.010344 16.454473)scale(0.12 -0.12)">
     <defs>
      <path id="Cmmi10-79" d="M 538 -916 
Q 672 -1147 1006 -1147 
Q 1309 -1147 1531 -934 
Q 1753 -722 1889 -420 
Q 2025 -119 2100 197 
Q 1816 -72 1484 -72 
Q 1231 -72 1053 15 
Q 875 103 776 276 
Q 678 450 678 697 
Q 678 906 734 1126 
Q 791 1347 892 1617 
Q 994 1888 1069 2088 
Q 1153 2322 1153 2472 
Q 1153 2663 1013 2663 
Q 759 2663 595 2402 
Q 431 2141 353 1819 
Q 341 1778 300 1778 
L 225 1778 
Q 172 1778 172 1838 
L 172 1856 
Q 275 2238 487 2533 
Q 700 2828 1025 2828 
Q 1253 2828 1411 2678 
Q 1569 2528 1569 2297 
Q 1569 2178 1516 2047 
Q 1488 1969 1388 1706 
Q 1288 1444 1234 1272 
Q 1181 1100 1147 934 
Q 1113 769 1113 603 
Q 1113 391 1203 244 
Q 1294 97 1491 97 
Q 1888 97 2203 581 
L 2688 2553 
Q 2709 2638 2787 2698 
Q 2866 2759 2956 2759 
Q 3034 2759 3092 2709 
Q 3150 2659 3150 2578 
Q 3150 2541 3144 2528 
L 2509 -19 
Q 2425 -347 2200 -647 
Q 1975 -947 1658 -1130 
Q 1341 -1313 997 -1313 
Q 831 -1313 668 -1248 
Q 506 -1184 406 -1056 
Q 306 -928 306 -756 
Q 306 -581 409 -453 
Q 513 -325 684 -325 
Q 788 -325 858 -389 
Q 928 -453 928 -556 
Q 928 -703 818 -812 
Q 709 -922 563 -922 
Q 556 -919 550 -917 
Q 544 -916 538 -916 
z
" transform="scale(0.015625)"/>
      <path id="Cmr10-3d" d="M 481 850 
Q 428 850 393 890 
Q 359 931 359 978 
Q 359 1031 393 1068 
Q 428 1106 481 1106 
L 4500 1106 
Q 4547 1106 4581 1068 
Q 4616 1031 4616 978 
Q 4616 931 4581 890 
Q 4547 850 4500 850 
L 481 850 
z
M 481 2094 
Q 428 2094 393 2131 
Q 359 2169 359 2222 
Q 359 2269 393 2309 
Q 428 2350 481 2350 
L 4500 2350 
Q 4547 2350 4581 2309 
Q 4616 2269 4616 2222 
Q 4616 2169 4581 2131 
Q 4547 2094 4500 2094 
L 481 2094 
z
" transform="scale(0.015625)"/>
      <path id="Cmr10-31" d="M 594 0 
L 594 225 
Q 1394 225 1394 428 
L 1394 3788 
Q 1063 3628 556 3628 
L 556 3853 
Q 1341 3853 1741 4263 
L 1831 4263 
Q 1853 4263 1873 4245 
Q 1894 4228 1894 4206 
L 1894 428 
Q 1894 225 2694 225 
L 2694 0 
L 594 0 
z
" transform="scale(0.015625)"/>
     </defs>
     <use xlink:href="#Cmmi10-79" transform="translate(0 0.390625)"/>
     <use xlink:href="#Cmr10-3d" transform="translate(66.582031 0.390625)"/>
     <use xlink:href="#Cmr10-31" transform="translate(161.826172 0.390625)"/>
    </g>
   </g>
   <g id="text_12">
    <!-- $y=x^2$ -->
    <g transform="translate(149.710344 220.448426)scale(0.12 -0.12)">
     <defs>
      <path id="Cmmi10-78" d="M 500 184 
Q 613 97 819 97 
Q 1019 97 1172 289 
Q 1325 481 1381 709 
L 1672 1844 
Q 1741 2153 1741 2266 
Q 1741 2425 1652 2544 
Q 1563 2663 1403 2663 
Q 1200 2663 1022 2536 
Q 844 2409 722 2214 
Q 600 2019 550 1819 
Q 538 1778 500 1778 
L 422 1778 
Q 372 1778 372 1838 
L 372 1856 
Q 434 2094 584 2320 
Q 734 2547 951 2687 
Q 1169 2828 1416 2828 
Q 1650 2828 1839 2703 
Q 2028 2578 2106 2363 
Q 2216 2559 2386 2693 
Q 2556 2828 2759 2828 
Q 2897 2828 3040 2779 
Q 3184 2731 3275 2631 
Q 3366 2531 3366 2381 
Q 3366 2219 3261 2101 
Q 3156 1984 2994 1984 
Q 2891 1984 2822 2050 
Q 2753 2116 2753 2216 
Q 2753 2350 2845 2451 
Q 2938 2553 3066 2572 
Q 2950 2663 2747 2663 
Q 2541 2663 2389 2472 
Q 2238 2281 2175 2047 
L 1894 916 
Q 1825 659 1825 494 
Q 1825 331 1917 214 
Q 2009 97 2163 97 
Q 2463 97 2698 361 
Q 2934 625 3009 941 
Q 3022 978 3059 978 
L 3138 978 
Q 3163 978 3178 961 
Q 3194 944 3194 922 
Q 3194 916 3188 903 
Q 3097 522 2806 225 
Q 2516 -72 2150 -72 
Q 1916 -72 1727 54 
Q 1538 181 1459 397 
Q 1359 209 1182 68 
Q 1006 -72 806 -72 
Q 669 -72 523 -23 
Q 378 25 287 125 
Q 197 225 197 378 
Q 197 528 301 651 
Q 406 775 563 775 
Q 669 775 741 711 
Q 813 647 813 544 
Q 813 409 723 309 
Q 634 209 500 184 
z
" transform="scale(0.015625)"/>
      <path id="Cmr10-32" d="M 319 0 
L 319 172 
Q 319 188 331 206 
L 1325 1306 
Q 1550 1550 1690 1715 
Q 1831 1881 1968 2097 
Q 2106 2313 2186 2536 
Q 2266 2759 2266 3009 
Q 2266 3272 2169 3511 
Q 2072 3750 1880 3894 
Q 1688 4038 1416 4038 
Q 1138 4038 916 3870 
Q 694 3703 603 3438 
Q 628 3444 672 3444 
Q 816 3444 917 3347 
Q 1019 3250 1019 3097 
Q 1019 2950 917 2848 
Q 816 2747 672 2747 
Q 522 2747 420 2851 
Q 319 2956 319 3097 
Q 319 3338 409 3548 
Q 500 3759 670 3923 
Q 841 4088 1055 4175 
Q 1269 4263 1509 4263 
Q 1875 4263 2190 4108 
Q 2506 3953 2690 3670 
Q 2875 3388 2875 3009 
Q 2875 2731 2753 2481 
Q 2631 2231 2440 2026 
Q 2250 1822 1953 1562 
Q 1656 1303 1563 1216 
L 838 519 
L 1453 519 
Q 1906 519 2211 526 
Q 2516 534 2534 550 
Q 2609 631 2688 1141 
L 2875 1141 
L 2694 0 
L 319 0 
z
" transform="scale(0.015625)"/>
     </defs>
     <use xlink:href="#Cmmi10-79" transform="translate(0 0.109375)"/>
     <use xlink:href="#Cmr10-3d" transform="translate(66.582031 0.109375)"/>
     <use xlink:href="#Cmmi10-78" transform="translate(161.826172 0.109375)"/>
     <use xlink:href="#Cmr10-32" transform="translate(225.209531 38.373438)scale(0.7)"/>
    </g>
   </g>
   <g id="text_13">
    <!-- $\mathcal{R}$ -->
    <g transform="translate(79.254013 97.855179)scale(0.12 -0.12)">
     <defs>
      <path id="Cmsy10-52" d="M 738 -91 
Q 738 -78 744 -56 
Q 966 475 1128 959 
Q 1291 1444 1428 1991 
Q 1678 2959 1766 3994 
Q 1425 3994 1094 3872 
Q 922 3803 833 3695 
Q 744 3588 684 3397 
Q 622 3291 472 3197 
Q 322 3103 206 3103 
L 166 3103 
Q 122 3131 122 3169 
Q 234 3556 581 3828 
Q 928 4100 1387 4236 
Q 1847 4372 2259 4372 
L 2931 4372 
Q 3378 4372 3739 4331 
Q 4100 4291 4392 4112 
Q 4684 3934 4684 3572 
Q 4684 3281 4548 3014 
Q 4413 2747 4189 2533 
Q 3966 2319 3697 2158 
Q 3428 1997 3156 1900 
Q 3253 1784 3383 1501 
Q 3513 1219 3659 911 
Q 3806 603 3951 420 
Q 4097 238 4256 238 
Q 4444 238 4551 308 
Q 4659 378 4775 520 
Q 4891 663 4997 745 
Q 5103 828 5281 844 
L 5319 844 
Q 5363 822 5363 794 
Q 5363 784 5356 768 
Q 5350 753 5344 738 
Q 5188 503 4936 297 
Q 4684 91 4393 -25 
Q 4103 -141 3828 -141 
L 3788 -141 
Q 3541 -141 3372 98 
Q 3203 338 3003 811 
Q 2803 1284 2651 1515 
Q 2500 1747 2278 1747 
Q 2266 1753 2250 1765 
Q 2234 1778 2234 1797 
Q 2234 1900 2420 2006 
Q 2606 2113 2719 2125 
Q 3072 2125 3395 2262 
Q 3719 2400 3917 2667 
Q 4116 2934 4116 3291 
Q 4116 3613 3833 3767 
Q 3550 3922 3203 3958 
Q 2856 3994 2450 3994 
L 2309 3994 
Q 2209 3041 1954 2070 
Q 1700 1100 1300 153 
Q 1238 41 1092 -43 
Q 947 -128 813 -141 
L 781 -141 
Q 769 -134 753 -121 
Q 738 -109 738 -91 
z
" transform="scale(0.015625)"/>
     </defs>
     <use xlink:href="#Cmsy10-52" transform="translate(0 0.6875)"/>
    </g>
   </g>
  </g>
 </g>
 <defs>
  <clipPath id="p0aee0b838b">
   <rect x="24.678036" y="7.2" width="282.104615" height="310.315077"/>
  </clipPath>
 </defs>
</svg>
