<?xml version="1.0" encoding="utf-8" standalone="no"?>
<!DOCTYPE svg PUBLIC "-//W3C//DTD SVG 1.1//EN"
  "http://www.w3.org/Graphics/SVG/1.1/DTD/svg11.dtd">
<svg xmlns:xlink="http://www.w3.org/1999/xlink" width="327.798914pt" height="333.423259pt" viewBox="0 0 327.798914 333.423259" xmlns="http://www.w3.org/2000/svg" version="1.1">
 <metadata>
  <rdf:RDF xmlns:dc="http://purl.org/dc/elements/1.1/" xmlns:cc="http://creativecommons.org/ns#" xmlns:rdf="http://www.w3.org/1999/02/22-rdf-syntax-ns#">
   <cc:Work>
    <dc:type rdf:resource="http://purl.org/dc/dcmitype/StillImage"/>
    <dc:date>2022-11-21T11:06:38.621458</dc:date>
    <dc:format>image/svg+xml</dc:format>
    <dc:creator>
     <cc:Agent>
      <dc:title>Matplotlib v3.5.1, https://matplotlib.org/</dc:title>
     </cc:Agent>
    </dc:creator>
   </cc:Work>
  </rdf:RDF>
 </metadata>
 <defs>
  <style type="text/css">*{stroke-linejoin: round; stroke-linecap: butt}</style>
 </defs>
 <g id="figure_1">
  <g id="patch_1">
   <path d="M -0 333.423259 
L 327.798914 333.423259 
L 327.798914 0 
L -0 0 
z
" style="fill: #ffffff"/>
  </g>
  <g id="axes_1">
   <g id="patch_2">
    <path d="M 13.772256 325.989324 
L 303.368065 325.989324 
L 303.368065 7.433935 
L 13.772256 7.433935 
z
" style="fill: #ffffff"/>
   </g>
   <g id="patch_3">
    <path d="M 297.798914 305.940384 
L 296.628779 303.609947 
L 295.277298 300.942821 
L 294.033568 298.511521 
L 291.608025 293.833886 
L 290.111966 290.99089 
L 288.9265 288.760953 
L 288.545035 288.047687 
L 286.06216 283.456264 
L 285.116662 281.731097 
L 283.912164 279.551954 
L 282.37923 276.808756 
L 281.513321 275.274122 
L 279.002585 270.88529 
L 277.689132 268.625415 
L 277.034163 267.507762 
L 274.925197 263.950844 
L 274.426619 263.119293 
L 272.94936 260.676424 
L 271.012146 257.520459 
L 269.856454 255.663365 
L 269.075678 254.419585 
L 266.571527 250.489549 
L 265.118417 248.250325 
L 263.794308 246.236304 
L 262.779791 244.710224 
L 260.771679 241.733133 
L 260.174713 240.859281 
L 258.194606 237.997408 
L 256.880607 236.129359 
L 255.274425 233.879615 
L 255.06543 233.589604 
L 253.101747 230.89536 
L 251.221861 228.367985 
L 250.476467 227.379911 
L 249.474632 226.064476 
L 247.906577 224.034525 
L 245.370482 220.826139 
L 243.942246 219.059961 
L 242.772356 217.635089 
L 241.66179 216.30066 
L 240.359151 214.75802 
L 238.838401 212.987922 
L 237.274625 211.202387 
L 236.540754 210.376557 
L 234.468081 208.085945 
L 232.901239 206.395309 
L 232.464053 205.929874 
L 229.939842 203.296252 
L 229.237024 202.579261 
L 227.185983 200.527425 
L 225.888936 199.261066 
L 225.2906 198.685033 
L 223.836772 197.306822 
L 221.652759 195.293471 
L 220.392049 194.162467 
L 220.131259 193.931358 
L 218.383717 192.407913 
L 216.279742 190.631946 
L 215.183303 189.731644 
L 213.995323 188.775669 
L 212.703139 187.758858 
L 210.712504 186.239378 
L 209.129809 185.071904 
L 208.527203 184.63685 
L 206.359263 183.114838 
L 206.097045 182.935324 
L 204.677398 181.980583 
L 202.235531 180.406104 
L 200.688444 179.45289 
L 199.431565 178.703796 
L 198.633934 178.240182 
L 196.913195 177.271146 
L 195.773983 176.652998 
L 194.665129 176.069228 
L 193.06341 175.257165 
L 190.756333 174.15226 
L 190.716002 174.133625 
L 188.659809 173.214503 
L 187.094392 172.555478 
L 186.112314 172.160003 
L 183.955148 171.339966 
L 182.858519 170.948717 
L 182.02629 170.663328 
L 180.855839 170.278791 
L 178.410985 169.539051 
L 178.134564 169.460817 
L 176.435664 169.004089 
L 174.740279 168.589638 
L 173.62234 168.338938 
L 171.944961 167.99646 
L 171.116595 167.842237 
L 168.537042 167.425122 
L 167.357571 167.266246 
L 165.770006 167.08395 
L 165.078716 167.015886 
L 163.936554 166.91847 
L 162.595896 166.828032 
L 160.409624 166.735932 
L 159.115827 166.713768 
L 157.713889 166.716896 
L 156.638022 166.738443 
L 155.320644 166.787471 
L 154.271063 166.844377 
L 152.554211 166.971573 
L 151.561286 167.064461 
L 149.657437 167.282177 
L 147.621011 167.572686 
L 147.356435 167.614802 
L 145.842433 167.875147 
L 143.820831 168.274114 
L 141.824889 168.725611 
L 141.05942 168.913948 
L 140.016397 169.184123 
L 138.82445 169.512007 
L 137.549725 169.885246 
L 135.564239 170.513089 
L 134.275851 170.950793 
L 132.556102 171.5722 
L 131.759998 171.874247 
L 129.74565 172.679164 
L 127.851646 173.48916 
L 127.742652 173.537341 
L 125.033908 174.78956 
L 124.159675 175.216206 
L 123.164572 175.715198 
L 120.811043 176.951978 
L 119.852089 177.478723 
L 119.148834 177.873412 
L 117.946884 178.56443 
L 115.856371 179.815732 
L 114.833152 180.451075 
L 113.593005 181.241276 
L 111.466924 182.647381 
L 110.59272 183.244384 
L 108.294606 184.866151 
L 108.015157 185.06853 
L 105.611227 186.855806 
L 104.528172 187.688162 
L 103.441301 188.54039 
L 102.5473 189.254106 
L 100.408814 191.00792 
L 99.062862 192.145446 
L 98.164058 192.919558 
L 96.016916 194.815798 
L 95.322477 195.443262 
L 92.848558 197.734884 
L 91.986316 198.554249 
L 90.311331 200.176468 
L 89.795788 200.683881 
L 88.239498 202.238788 
L 86.701921 203.809166 
L 85.651833 204.901172 
L 83.450563 207.241719 
L 82.588861 208.1769 
L 81.355803 209.533653 
L 79.617281 211.483682 
L 77.41518 214.016017 
L 76.399897 215.207015 
L 75.867093 215.837957 
L 73.442722 218.760366 
L 73.12961 219.143958 
L 71.289916 221.426197 
L 69.824986 223.278293 
L 68.310399 225.22558 
L 66.539312 227.544444 
L 65.375433 229.092833 
L 64.150553 230.74339 
L 62.333053 233.232234 
L 61.985261 233.713902 
L 59.957192 236.557241 
L 58.981712 237.945902 
L 56.89313 240.965102 
L 55.772012 242.611608 
L 54.694116 244.21166 
L 53.332242 246.25712 
L 50.869342 250.023919 
L 49.484798 252.179723 
L 48.467234 253.781678 
L 47.622676 255.122565 
L 46.513153 256.899701 
L 44.91951 259.483201 
L 43.206444 262.300986 
L 42.071465 264.191105 
L 40.571252 266.717856 
L 38.33123 270.550815 
L 38.007445 271.110813 
L 35.955777 274.69426 
L 35.084821 276.233755 
L 33.174047 279.649401 
L 32.266988 281.289192 
L 30.9759 283.64362 
L 29.242906 286.841546 
L 28.357428 288.492189 
L 26.73119 291.553041 
L 24.242414 296.310888 
L 23.240425 298.251536 
L 22.15391 300.372191 
L 21.118271 302.409332 
L 19.341406 305.940384 
L 19.341406 27.482875 
L 20.826526 30.437274 
L 21.732864 32.224713 
L 23.099712 34.898036 
L 25.434337 39.402098 
L 26.815572 42.029973 
L 27.51096 43.342617 
L 29.113513 46.34121 
L 30.033417 48.045808 
L 32.051296 51.742396 
L 32.697884 52.914519 
L 34.748531 56.592164 
L 35.834176 58.514714 
L 37.521006 61.468299 
L 39.496608 64.875547 
L 40.582888 66.725125 
L 41.204695 67.77623 
L 43.481754 71.577967 
L 44.386392 73.067662 
L 46.484753 76.477837 
L 46.934912 77.201178 
L 48.487261 79.673253 
L 50.218805 82.389851 
L 51.829287 84.877858 
L 52.36147 85.691829 
L 54.8691 89.472485 
L 55.410727 90.277212 
L 56.803556 92.32727 
L 58.394658 94.635058 
L 59.644363 96.422173 
L 61.281945 98.730006 
L 62.988335 101.093823 
L 63.595259 101.924495 
L 65.417281 104.386437 
L 67.425007 107.044078 
L 68.190469 108.042078 
L 69.462366 109.68175 
L 71.325978 112.042266 
L 72.749081 113.811223 
L 73.455592 114.67863 
L 75.759398 117.457275 
L 76.213758 117.996283 
L 78.023851 120.114158 
L 80.122384 122.510605 
L 80.620277 123.069895 
L 82.217439 124.839976 
L 83.767863 126.523209 
L 85.670252 128.541377 
L 86.680319 129.591788 
L 88.097003 131.040364 
L 89.266393 132.214358 
L 90.744493 133.670171 
L 92.405515 135.268697 
L 93.4825 136.283981 
L 95.107793 137.784616 
L 96.294639 138.85646 
L 98.165909 140.505308 
L 99.719544 141.836056 
L 100.369849 142.382774 
L 101.452172 143.279225 
L 103.023976 144.551131 
L 104.706007 145.872924 
L 105.499906 146.482677 
L 106.928187 147.55687 
L 109.146696 149.167274 
L 110.60424 150.186813 
L 111.501745 150.79943 
L 113.125592 151.878424 
L 114.863503 152.991246 
L 116.353918 153.911033 
L 117.056406 154.333498 
L 119.260417 155.612946 
L 119.63053 155.820957 
L 121.210355 156.686724 
L 123.011965 157.630278 
L 124.729078 158.486182 
L 125.836255 159.0156 
L 127.663392 159.850774 
L 127.930333 159.968777 
L 129.60515 160.685778 
L 131.54864 161.467292 
L 133.168386 162.077169 
L 133.701262 162.269572 
L 135.668536 162.94456 
L 136.988176 163.366185 
L 138.11494 163.706388 
L 139.615788 164.131213 
L 141.50536 164.620054 
L 143.026041 164.976215 
L 144.202377 165.228939 
L 145.835068 165.546765 
L 146.414891 165.650422 
L 148.295668 165.953415 
L 148.870294 166.035854 
L 151.493056 166.351895 
L 151.575583 166.360236 
L 154.216278 166.575477 
L 155.192802 166.629703 
L 156.182168 166.670672 
L 157.236579 166.698856 
L 159.392384 166.706774 
L 160.041751 166.696075 
L 162.331266 166.610028 
L 163.45644 166.540144 
L 164.268166 166.478436 
L 166.56432 166.252625 
L 168.312624 166.029905 
L 168.59049 165.990464 
L 170.408091 165.705109 
L 172.461271 165.325688 
L 173.662822 165.075556 
L 174.986705 164.775945 
L 176.223134 164.473389 
L 176.969818 164.280038 
L 179.045165 163.700572 
L 180.153688 163.365707 
L 181.377462 162.975526 
L 183.244502 162.338803 
L 184.69449 161.809764 
L 185.99668 161.30891 
L 186.627342 161.057586 
L 188.677829 160.200965 
L 189.496264 159.842187 
L 191.866767 158.748734 
L 192.701075 158.344685 
L 193.669464 157.863162 
L 195.2948 157.0247 
L 197.019522 156.093468 
L 198.866257 155.048986 
L 199.510439 154.673122 
L 201.074934 153.735461 
L 202.14653 153.072924 
L 204.165577 151.779786 
L 205.528801 150.873566 
L 206.489253 150.219064 
L 208.090069 149.098735 
L 209.613291 147.998533 
L 210.744341 147.160028 
L 212.215838 146.041627 
L 213.222856 145.258323 
L 215.904009 143.101778 
L 217.278314 141.956346 
L 217.524546 141.748254 
L 219.386652 140.146387 
L 220.750319 138.941704 
L 222.495197 137.361297 
L 223.513571 136.418701 
L 224.35033 135.633059 
L 227.008074 133.070963 
L 228.410403 131.678209 
L 229.893079 130.174933 
L 230.932566 129.102173 
L 231.476416 128.534731 
L 233.398367 126.495364 
L 234.9568 124.802767 
L 235.587768 124.107557 
L 237.401549 122.077258 
L 239.447624 119.730213 
L 239.832916 119.281517 
L 241.888016 116.852208 
L 243.39692 115.029927 
L 244.756009 113.360577 
L 245.381231 112.583716 
L 247.242153 110.238222 
L 249.512575 107.309225 
L 249.931721 106.760402 
L 251.445478 104.757296 
L 252.54781 103.277903 
L 254.444781 100.691195 
L 255.918162 98.646426 
L 257.842932 95.928239 
L 259.026459 94.230424 
L 260.329703 92.337592 
L 261.812329 90.15456 
L 262.756447 88.747976 
L 264.27332 86.461268 
L 265.376398 84.777604 
L 267.231877 81.906097 
L 268.235525 80.332259 
L 269.421672 78.453584 
L 270.896652 76.089253 
L 273.239914 72.268837 
L 273.489072 71.857974 
L 275.782599 68.034054 
L 276.130368 67.447634 
L 278.026901 64.21906 
L 279.002619 62.537911 
L 281.424698 58.305594 
L 282.131196 57.055189 
L 283.175362 55.194031 
L 285.00951 51.886864 
L 286.987142 48.266834 
L 287.555397 47.216261 
L 289.742724 43.1291 
L 290.919922 40.900985 
L 292.079891 38.686005 
L 294.284437 34.423116 
L 294.704433 33.603061 
L 296.670025 29.731502 
L 297.798914 27.482875 
z
" clip-path="url(#p71055dcaaa)" style="fill: #008000; opacity: 0.5"/>
   </g>
   <g id="matplotlib.axis_1">
    <g id="xtick_1">
     <g id="line2d_1">
      <defs>
       <path id="meb8cdf3f78" d="M 0 0 
L 0 3.5 
" style="stroke: #000000; stroke-width: 0.8"/>
      </defs>
      <g>
       <use xlink:href="#meb8cdf3f78" x="19.341406" y="166.71163" style="stroke: #000000; stroke-width: 0.8"/>
      </g>
     </g>
     <g id="text_1">
      <!-- −1.0 -->
      <g transform="translate(7.2 181.310067)scale(0.1 -0.1)">
       <defs>
        <path id="DejaVuSans-2212" d="M 678 2272 
L 4684 2272 
L 4684 1741 
L 678 1741 
L 678 2272 
z
" transform="scale(0.015625)"/>
        <path id="DejaVuSans-31" d="M 794 531 
L 1825 531 
L 1825 4091 
L 703 3866 
L 703 4441 
L 1819 4666 
L 2450 4666 
L 2450 531 
L 3481 531 
L 3481 0 
L 794 0 
L 794 531 
z
" transform="scale(0.015625)"/>
        <path id="DejaVuSans-2e" d="M 684 794 
L 1344 794 
L 1344 0 
L 684 0 
L 684 794 
z
" transform="scale(0.015625)"/>
        <path id="DejaVuSans-30" d="M 2034 4250 
Q 1547 4250 1301 3770 
Q 1056 3291 1056 2328 
Q 1056 1369 1301 889 
Q 1547 409 2034 409 
Q 2525 409 2770 889 
Q 3016 1369 3016 2328 
Q 3016 3291 2770 3770 
Q 2525 4250 2034 4250 
z
M 2034 4750 
Q 2819 4750 3233 4129 
Q 3647 3509 3647 2328 
Q 3647 1150 3233 529 
Q 2819 -91 2034 -91 
Q 1250 -91 836 529 
Q 422 1150 422 2328 
Q 422 3509 836 4129 
Q 1250 4750 2034 4750 
z
" transform="scale(0.015625)"/>
       </defs>
       <use xlink:href="#DejaVuSans-2212"/>
       <use xlink:href="#DejaVuSans-31" x="83.789062"/>
       <use xlink:href="#DejaVuSans-2e" x="147.412109"/>
       <use xlink:href="#DejaVuSans-30" x="179.199219"/>
      </g>
     </g>
    </g>
    <g id="xtick_2">
     <g id="line2d_2">
      <g>
       <use xlink:href="#meb8cdf3f78" x="88.955783" y="166.71163" style="stroke: #000000; stroke-width: 0.8"/>
      </g>
     </g>
     <g id="text_2">
      <!-- −0.5 -->
      <g transform="translate(76.814377 181.310067)scale(0.1 -0.1)">
       <defs>
        <path id="DejaVuSans-35" d="M 691 4666 
L 3169 4666 
L 3169 4134 
L 1269 4134 
L 1269 2991 
Q 1406 3038 1543 3061 
Q 1681 3084 1819 3084 
Q 2600 3084 3056 2656 
Q 3513 2228 3513 1497 
Q 3513 744 3044 326 
Q 2575 -91 1722 -91 
Q 1428 -91 1123 -41 
Q 819 9 494 109 
L 494 744 
Q 775 591 1075 516 
Q 1375 441 1709 441 
Q 2250 441 2565 725 
Q 2881 1009 2881 1497 
Q 2881 1984 2565 2268 
Q 2250 2553 1709 2553 
Q 1456 2553 1204 2497 
Q 953 2441 691 2322 
L 691 4666 
z
" transform="scale(0.015625)"/>
       </defs>
       <use xlink:href="#DejaVuSans-2212"/>
       <use xlink:href="#DejaVuSans-30" x="83.789062"/>
       <use xlink:href="#DejaVuSans-2e" x="147.412109"/>
       <use xlink:href="#DejaVuSans-35" x="179.199219"/>
      </g>
     </g>
    </g>
    <g id="xtick_3">
     <g id="line2d_3">
      <g>
       <use xlink:href="#meb8cdf3f78" x="158.57016" y="166.71163" style="stroke: #000000; stroke-width: 0.8"/>
      </g>
     </g>
    </g>
    <g id="xtick_4">
     <g id="line2d_4">
      <g>
       <use xlink:href="#meb8cdf3f78" x="228.184537" y="166.71163" style="stroke: #000000; stroke-width: 0.8"/>
      </g>
     </g>
     <g id="text_3">
      <!-- 0.5 -->
      <g transform="translate(220.232975 181.310067)scale(0.1 -0.1)">
       <use xlink:href="#DejaVuSans-30"/>
       <use xlink:href="#DejaVuSans-2e" x="63.623047"/>
       <use xlink:href="#DejaVuSans-35" x="95.410156"/>
      </g>
     </g>
    </g>
    <g id="xtick_5">
     <g id="line2d_5">
      <g>
       <use xlink:href="#meb8cdf3f78" x="297.798914" y="166.71163" style="stroke: #000000; stroke-width: 0.8"/>
      </g>
     </g>
     <g id="text_4">
      <!-- 1.0 -->
      <g transform="translate(289.847352 181.310067)scale(0.1 -0.1)">
       <use xlink:href="#DejaVuSans-31"/>
       <use xlink:href="#DejaVuSans-2e" x="63.623047"/>
       <use xlink:href="#DejaVuSans-30" x="95.410156"/>
      </g>
     </g>
    </g>
    <g id="xtick_6">
     <g id="line2d_6">
      <defs>
       <path id="m008486454b" d="M 0 0 
L 0 2 
" style="stroke: #000000; stroke-width: 0.6"/>
      </defs>
      <g>
       <use xlink:href="#m008486454b" x="33.264282" y="166.71163" style="stroke: #000000; stroke-width: 0.6"/>
      </g>
     </g>
    </g>
    <g id="xtick_7">
     <g id="line2d_7">
      <g>
       <use xlink:href="#m008486454b" x="47.187157" y="166.71163" style="stroke: #000000; stroke-width: 0.6"/>
      </g>
     </g>
    </g>
    <g id="xtick_8">
     <g id="line2d_8">
      <g>
       <use xlink:href="#m008486454b" x="61.110032" y="166.71163" style="stroke: #000000; stroke-width: 0.6"/>
      </g>
     </g>
    </g>
    <g id="xtick_9">
     <g id="line2d_9">
      <g>
       <use xlink:href="#m008486454b" x="75.032908" y="166.71163" style="stroke: #000000; stroke-width: 0.6"/>
      </g>
     </g>
    </g>
    <g id="xtick_10">
     <g id="line2d_10">
      <g>
       <use xlink:href="#m008486454b" x="102.878659" y="166.71163" style="stroke: #000000; stroke-width: 0.6"/>
      </g>
     </g>
    </g>
    <g id="xtick_11">
     <g id="line2d_11">
      <g>
       <use xlink:href="#m008486454b" x="116.801534" y="166.71163" style="stroke: #000000; stroke-width: 0.6"/>
      </g>
     </g>
    </g>
    <g id="xtick_12">
     <g id="line2d_12">
      <g>
       <use xlink:href="#m008486454b" x="130.72441" y="166.71163" style="stroke: #000000; stroke-width: 0.6"/>
      </g>
     </g>
    </g>
    <g id="xtick_13">
     <g id="line2d_13">
      <g>
       <use xlink:href="#m008486454b" x="144.647285" y="166.71163" style="stroke: #000000; stroke-width: 0.6"/>
      </g>
     </g>
    </g>
    <g id="xtick_14">
     <g id="line2d_14">
      <g>
       <use xlink:href="#m008486454b" x="172.493036" y="166.71163" style="stroke: #000000; stroke-width: 0.6"/>
      </g>
     </g>
    </g>
    <g id="xtick_15">
     <g id="line2d_15">
      <g>
       <use xlink:href="#m008486454b" x="186.415911" y="166.71163" style="stroke: #000000; stroke-width: 0.6"/>
      </g>
     </g>
    </g>
    <g id="xtick_16">
     <g id="line2d_16">
      <g>
       <use xlink:href="#m008486454b" x="200.338787" y="166.71163" style="stroke: #000000; stroke-width: 0.6"/>
      </g>
     </g>
    </g>
    <g id="xtick_17">
     <g id="line2d_17">
      <g>
       <use xlink:href="#m008486454b" x="214.261662" y="166.71163" style="stroke: #000000; stroke-width: 0.6"/>
      </g>
     </g>
    </g>
    <g id="xtick_18">
     <g id="line2d_18">
      <g>
       <use xlink:href="#m008486454b" x="242.107413" y="166.71163" style="stroke: #000000; stroke-width: 0.6"/>
      </g>
     </g>
    </g>
    <g id="xtick_19">
     <g id="line2d_19">
      <g>
       <use xlink:href="#m008486454b" x="256.030288" y="166.71163" style="stroke: #000000; stroke-width: 0.6"/>
      </g>
     </g>
    </g>
    <g id="xtick_20">
     <g id="line2d_20">
      <g>
       <use xlink:href="#m008486454b" x="269.953164" y="166.71163" style="stroke: #000000; stroke-width: 0.6"/>
      </g>
     </g>
    </g>
    <g id="xtick_21">
     <g id="line2d_21">
      <g>
       <use xlink:href="#m008486454b" x="283.876039" y="166.71163" style="stroke: #000000; stroke-width: 0.6"/>
      </g>
     </g>
    </g>
   </g>
   <g id="matplotlib.axis_2">
    <g id="ytick_1">
     <g id="line2d_22">
      <defs>
       <path id="m0bfa766c35" d="M 0 0 
L -3.5 0 
" style="stroke: #000000; stroke-width: 0.8"/>
      </defs>
      <g>
       <use xlink:href="#m0bfa766c35" x="158.57016" y="305.940384" style="stroke: #000000; stroke-width: 0.8"/>
      </g>
     </g>
     <g id="text_5">
      <!-- −1.0 -->
      <g transform="translate(127.287348 309.739602)scale(0.1 -0.1)">
       <use xlink:href="#DejaVuSans-2212"/>
       <use xlink:href="#DejaVuSans-31" x="83.789062"/>
       <use xlink:href="#DejaVuSans-2e" x="147.412109"/>
       <use xlink:href="#DejaVuSans-30" x="179.199219"/>
      </g>
     </g>
    </g>
    <g id="ytick_2">
     <g id="line2d_23">
      <g>
       <use xlink:href="#m0bfa766c35" x="158.57016" y="236.326007" style="stroke: #000000; stroke-width: 0.8"/>
      </g>
     </g>
     <g id="text_6">
      <!-- −0.5 -->
      <g transform="translate(127.287348 240.125225)scale(0.1 -0.1)">
       <use xlink:href="#DejaVuSans-2212"/>
       <use xlink:href="#DejaVuSans-30" x="83.789062"/>
       <use xlink:href="#DejaVuSans-2e" x="147.412109"/>
       <use xlink:href="#DejaVuSans-35" x="179.199219"/>
      </g>
     </g>
    </g>
    <g id="ytick_3">
     <g id="line2d_24">
      <g>
       <use xlink:href="#m0bfa766c35" x="158.57016" y="166.71163" style="stroke: #000000; stroke-width: 0.8"/>
      </g>
     </g>
    </g>
    <g id="ytick_4">
     <g id="line2d_25">
      <g>
       <use xlink:href="#m0bfa766c35" x="158.57016" y="97.097252" style="stroke: #000000; stroke-width: 0.8"/>
      </g>
     </g>
     <g id="text_7">
      <!-- 0.5 -->
      <g transform="translate(135.667035 100.896471)scale(0.1 -0.1)">
       <use xlink:href="#DejaVuSans-30"/>
       <use xlink:href="#DejaVuSans-2e" x="63.623047"/>
       <use xlink:href="#DejaVuSans-35" x="95.410156"/>
      </g>
     </g>
    </g>
    <g id="ytick_5">
     <g id="line2d_26">
      <g>
       <use xlink:href="#m0bfa766c35" x="158.57016" y="27.482875" style="stroke: #000000; stroke-width: 0.8"/>
      </g>
     </g>
     <g id="text_8">
      <!-- 1.0 -->
      <g transform="translate(135.667035 31.282094)scale(0.1 -0.1)">
       <use xlink:href="#DejaVuSans-31"/>
       <use xlink:href="#DejaVuSans-2e" x="63.623047"/>
       <use xlink:href="#DejaVuSans-30" x="95.410156"/>
      </g>
     </g>
    </g>
    <g id="ytick_6">
     <g id="line2d_27">
      <defs>
       <path id="mb8115cfa69" d="M 0 0 
L -2 0 
" style="stroke: #000000; stroke-width: 0.6"/>
      </defs>
      <g>
       <use xlink:href="#mb8115cfa69" x="158.57016" y="319.863259" style="stroke: #000000; stroke-width: 0.6"/>
      </g>
     </g>
    </g>
    <g id="ytick_7">
     <g id="line2d_28">
      <g>
       <use xlink:href="#mb8115cfa69" x="158.57016" y="292.017508" style="stroke: #000000; stroke-width: 0.6"/>
      </g>
     </g>
    </g>
    <g id="ytick_8">
     <g id="line2d_29">
      <g>
       <use xlink:href="#mb8115cfa69" x="158.57016" y="278.094633" style="stroke: #000000; stroke-width: 0.6"/>
      </g>
     </g>
    </g>
    <g id="ytick_9">
     <g id="line2d_30">
      <g>
       <use xlink:href="#mb8115cfa69" x="158.57016" y="264.171757" style="stroke: #000000; stroke-width: 0.6"/>
      </g>
     </g>
    </g>
    <g id="ytick_10">
     <g id="line2d_31">
      <g>
       <use xlink:href="#mb8115cfa69" x="158.57016" y="250.248882" style="stroke: #000000; stroke-width: 0.6"/>
      </g>
     </g>
    </g>
    <g id="ytick_11">
     <g id="line2d_32">
      <g>
       <use xlink:href="#mb8115cfa69" x="158.57016" y="222.403131" style="stroke: #000000; stroke-width: 0.6"/>
      </g>
     </g>
    </g>
    <g id="ytick_12">
     <g id="line2d_33">
      <g>
       <use xlink:href="#mb8115cfa69" x="158.57016" y="208.480256" style="stroke: #000000; stroke-width: 0.6"/>
      </g>
     </g>
    </g>
    <g id="ytick_13">
     <g id="line2d_34">
      <g>
       <use xlink:href="#mb8115cfa69" x="158.57016" y="194.55738" style="stroke: #000000; stroke-width: 0.6"/>
      </g>
     </g>
    </g>
    <g id="ytick_14">
     <g id="line2d_35">
      <g>
       <use xlink:href="#mb8115cfa69" x="158.57016" y="180.634505" style="stroke: #000000; stroke-width: 0.6"/>
      </g>
     </g>
    </g>
    <g id="ytick_15">
     <g id="line2d_36">
      <g>
       <use xlink:href="#mb8115cfa69" x="158.57016" y="152.788754" style="stroke: #000000; stroke-width: 0.6"/>
      </g>
     </g>
    </g>
    <g id="ytick_16">
     <g id="line2d_37">
      <g>
       <use xlink:href="#mb8115cfa69" x="158.57016" y="138.865879" style="stroke: #000000; stroke-width: 0.6"/>
      </g>
     </g>
    </g>
    <g id="ytick_17">
     <g id="line2d_38">
      <g>
       <use xlink:href="#mb8115cfa69" x="158.57016" y="124.943003" style="stroke: #000000; stroke-width: 0.6"/>
      </g>
     </g>
    </g>
    <g id="ytick_18">
     <g id="line2d_39">
      <g>
       <use xlink:href="#mb8115cfa69" x="158.57016" y="111.020128" style="stroke: #000000; stroke-width: 0.6"/>
      </g>
     </g>
    </g>
    <g id="ytick_19">
     <g id="line2d_40">
      <g>
       <use xlink:href="#mb8115cfa69" x="158.57016" y="83.174377" style="stroke: #000000; stroke-width: 0.6"/>
      </g>
     </g>
    </g>
    <g id="ytick_20">
     <g id="line2d_41">
      <g>
       <use xlink:href="#mb8115cfa69" x="158.57016" y="69.251502" style="stroke: #000000; stroke-width: 0.6"/>
      </g>
     </g>
    </g>
    <g id="ytick_21">
     <g id="line2d_42">
      <g>
       <use xlink:href="#mb8115cfa69" x="158.57016" y="55.328626" style="stroke: #000000; stroke-width: 0.6"/>
      </g>
     </g>
    </g>
    <g id="ytick_22">
     <g id="line2d_43">
      <g>
       <use xlink:href="#mb8115cfa69" x="158.57016" y="41.405751" style="stroke: #000000; stroke-width: 0.6"/>
      </g>
     </g>
    </g>
    <g id="ytick_23">
     <g id="line2d_44">
      <g>
       <use xlink:href="#mb8115cfa69" x="158.57016" y="13.56" style="stroke: #000000; stroke-width: 0.6"/>
      </g>
     </g>
    </g>
   </g>
   <g id="line2d_45">
    <path d="M 19.341406 27.482875 
L 25.434337 39.402098 
L 30.033417 48.045808 
L 35.834176 58.514714 
L 41.204695 67.77623 
L 46.934912 77.201178 
L 52.36147 85.691829 
L 58.394658 94.635058 
L 63.595259 101.924495 
L 69.462366 109.68175 
L 73.455592 114.67863 
L 78.023851 120.114158 
L 83.767863 126.523209 
L 89.266393 132.214358 
L 93.4825 136.283981 
L 98.165909 140.505308 
L 103.023976 144.551131 
L 106.928187 147.55687 
L 111.501745 150.79943 
L 116.353918 153.911033 
L 119.63053 155.820957 
L 123.011965 157.630278 
L 127.930333 159.968777 
L 131.54864 161.467292 
L 135.668536 162.94456 
L 139.615788 164.131213 
L 144.202377 165.228939 
L 148.870294 166.035854 
L 154.216278 166.575477 
L 157.236579 166.698856 
L 162.331266 166.610028 
L 166.56432 166.252625 
L 170.408091 165.705109 
L 174.986705 164.775945 
L 179.045165 163.700572 
L 183.244502 162.338803 
L 186.627342 161.057586 
L 191.866767 158.748734 
L 195.2948 157.0247 
L 199.510439 154.673122 
L 204.165577 151.779786 
L 208.090069 149.098735 
L 213.222856 145.258323 
L 217.524546 141.748254 
L 222.495197 137.361297 
L 227.008074 133.070963 
L 231.476416 128.534731 
L 235.587768 124.107557 
L 239.832916 119.281517 
L 245.381231 112.583716 
L 249.931721 106.760402 
L 254.444781 100.691195 
L 260.329703 92.337592 
L 265.376398 84.777604 
L 270.896652 76.089253 
L 276.130368 67.447634 
L 282.131196 57.055189 
L 287.555397 47.216261 
L 294.284437 34.423116 
L 297.798914 27.482875 
L 297.798914 27.482875 
" clip-path="url(#p71055dcaaa)" style="fill: none; stroke: #0000ff; stroke-linecap: square"/>
   </g>
   <g id="line2d_46">
    <path d="M 19.341406 305.940384 
L 25.914091 293.105296 
L 31.244454 283.151912 
L 37.323751 272.298237 
L 41.4858 265.173671 
L 47.759422 254.90476 
L 53.578603 245.885125 
L 58.839818 238.149036 
L 64.199561 230.676937 
L 69.425055 223.789278 
L 74.748978 217.175275 
L 78.985505 212.203075 
L 84.463968 206.155549 
L 89.494766 200.981921 
L 94.549485 196.14985 
L 99.881403 191.450559 
L 104.438736 187.757649 
L 108.741786 184.544633 
L 113.885469 181.052932 
L 118.197477 178.418648 
L 122.385931 176.115567 
L 127.301951 173.733893 
L 130.782188 172.257692 
L 135.546274 170.519028 
L 139.491747 169.325931 
L 142.812884 168.494966 
L 146.238001 167.803948 
L 150.382648 167.193106 
L 154.543721 166.828073 
L 157.352877 166.722272 
L 162.167594 166.804581 
L 164.402292 166.955931 
L 168.526905 167.423672 
L 171.95805 167.998976 
L 175.375353 168.74005 
L 179.768906 169.939316 
L 184.350018 171.485076 
L 189.046183 173.382579 
L 192.786247 175.120385 
L 196.488199 177.038359 
L 200.754454 179.492859 
L 204.938757 182.154178 
L 209.547684 185.376653 
L 214.316585 189.03219 
L 219.255361 193.162298 
L 223.786434 197.259646 
L 227.500089 200.837735 
L 231.505884 204.919397 
L 237.105897 211.011831 
L 242.44801 217.243531 
L 247.64488 223.69918 
L 251.908998 229.285907 
L 257.567833 237.103262 
L 262.172776 243.804195 
L 268.492561 253.49639 
L 273.636638 261.809041 
L 280.386661 273.293491 
L 286.175609 283.664127 
L 291.036278 292.743587 
L 295.732501 301.838226 
L 297.798914 305.940384 
L 297.798914 305.940384 
" clip-path="url(#p71055dcaaa)" style="fill: none; stroke: #ff0000; stroke-linecap: square"/>
   </g>
   <g id="patch_4">
    <path d="M 158.57016 325.989324 
L 158.57016 7.433935 
" style="fill: none; stroke: #000000; stroke-width: 0.8; stroke-linejoin: miter; stroke-linecap: square"/>
   </g>
   <g id="patch_5">
    <path d="M 13.772256 166.71163 
L 303.368065 166.71163 
" style="fill: none; stroke: #000000; stroke-width: 0.8; stroke-linejoin: miter; stroke-linecap: square"/>
   </g>
   <g id="text_9">
    <!-- $y=x^2$ -->
    <g transform="translate(281.778914 17.4)scale(0.12 -0.12)">
     <defs>
      <path id="Cmmi10-79" d="M 538 -916 
Q 672 -1147 1006 -1147 
Q 1309 -1147 1531 -934 
Q 1753 -722 1889 -420 
Q 2025 -119 2100 197 
Q 1816 -72 1484 -72 
Q 1231 -72 1053 15 
Q 875 103 776 276 
Q 678 450 678 697 
Q 678 906 734 1126 
Q 791 1347 892 1617 
Q 994 1888 1069 2088 
Q 1153 2322 1153 2472 
Q 1153 2663 1013 2663 
Q 759 2663 595 2402 
Q 431 2141 353 1819 
Q 341 1778 300 1778 
L 225 1778 
Q 172 1778 172 1838 
L 172 1856 
Q 275 2238 487 2533 
Q 700 2828 1025 2828 
Q 1253 2828 1411 2678 
Q 1569 2528 1569 2297 
Q 1569 2178 1516 2047 
Q 1488 1969 1388 1706 
Q 1288 1444 1234 1272 
Q 1181 1100 1147 934 
Q 1113 769 1113 603 
Q 1113 391 1203 244 
Q 1294 97 1491 97 
Q 1888 97 2203 581 
L 2688 2553 
Q 2709 2638 2787 2698 
Q 2866 2759 2956 2759 
Q 3034 2759 3092 2709 
Q 3150 2659 3150 2578 
Q 3150 2541 3144 2528 
L 2509 -19 
Q 2425 -347 2200 -647 
Q 1975 -947 1658 -1130 
Q 1341 -1313 997 -1313 
Q 831 -1313 668 -1248 
Q 506 -1184 406 -1056 
Q 306 -928 306 -756 
Q 306 -581 409 -453 
Q 513 -325 684 -325 
Q 788 -325 858 -389 
Q 928 -453 928 -556 
Q 928 -703 818 -812 
Q 709 -922 563 -922 
Q 556 -919 550 -917 
Q 544 -916 538 -916 
z
" transform="scale(0.015625)"/>
      <path id="Cmr10-3d" d="M 481 850 
Q 428 850 393 890 
Q 359 931 359 978 
Q 359 1031 393 1068 
Q 428 1106 481 1106 
L 4500 1106 
Q 4547 1106 4581 1068 
Q 4616 1031 4616 978 
Q 4616 931 4581 890 
Q 4547 850 4500 850 
L 481 850 
z
M 481 2094 
Q 428 2094 393 2131 
Q 359 2169 359 2222 
Q 359 2269 393 2309 
Q 428 2350 481 2350 
L 4500 2350 
Q 4547 2350 4581 2309 
Q 4616 2269 4616 2222 
Q 4616 2169 4581 2131 
Q 4547 2094 4500 2094 
L 481 2094 
z
" transform="scale(0.015625)"/>
      <path id="Cmmi10-78" d="M 500 184 
Q 613 97 819 97 
Q 1019 97 1172 289 
Q 1325 481 1381 709 
L 1672 1844 
Q 1741 2153 1741 2266 
Q 1741 2425 1652 2544 
Q 1563 2663 1403 2663 
Q 1200 2663 1022 2536 
Q 844 2409 722 2214 
Q 600 2019 550 1819 
Q 538 1778 500 1778 
L 422 1778 
Q 372 1778 372 1838 
L 372 1856 
Q 434 2094 584 2320 
Q 734 2547 951 2687 
Q 1169 2828 1416 2828 
Q 1650 2828 1839 2703 
Q 2028 2578 2106 2363 
Q 2216 2559 2386 2693 
Q 2556 2828 2759 2828 
Q 2897 2828 3040 2779 
Q 3184 2731 3275 2631 
Q 3366 2531 3366 2381 
Q 3366 2219 3261 2101 
Q 3156 1984 2994 1984 
Q 2891 1984 2822 2050 
Q 2753 2116 2753 2216 
Q 2753 2350 2845 2451 
Q 2938 2553 3066 2572 
Q 2950 2663 2747 2663 
Q 2541 2663 2389 2472 
Q 2238 2281 2175 2047 
L 1894 916 
Q 1825 659 1825 494 
Q 1825 331 1917 214 
Q 2009 97 2163 97 
Q 2463 97 2698 361 
Q 2934 625 3009 941 
Q 3022 978 3059 978 
L 3138 978 
Q 3163 978 3178 961 
Q 3194 944 3194 922 
Q 3194 916 3188 903 
Q 3097 522 2806 225 
Q 2516 -72 2150 -72 
Q 1916 -72 1727 54 
Q 1538 181 1459 397 
Q 1359 209 1182 68 
Q 1006 -72 806 -72 
Q 669 -72 523 -23 
Q 378 25 287 125 
Q 197 225 197 378 
Q 197 528 301 651 
Q 406 775 563 775 
Q 669 775 741 711 
Q 813 647 813 544 
Q 813 409 723 309 
Q 634 209 500 184 
z
" transform="scale(0.015625)"/>
      <path id="Cmr10-32" d="M 319 0 
L 319 172 
Q 319 188 331 206 
L 1325 1306 
Q 1550 1550 1690 1715 
Q 1831 1881 1968 2097 
Q 2106 2313 2186 2536 
Q 2266 2759 2266 3009 
Q 2266 3272 2169 3511 
Q 2072 3750 1880 3894 
Q 1688 4038 1416 4038 
Q 1138 4038 916 3870 
Q 694 3703 603 3438 
Q 628 3444 672 3444 
Q 816 3444 917 3347 
Q 1019 3250 1019 3097 
Q 1019 2950 917 2848 
Q 816 2747 672 2747 
Q 522 2747 420 2851 
Q 319 2956 319 3097 
Q 319 3338 409 3548 
Q 500 3759 670 3923 
Q 841 4088 1055 4175 
Q 1269 4263 1509 4263 
Q 1875 4263 2190 4108 
Q 2506 3953 2690 3670 
Q 2875 3388 2875 3009 
Q 2875 2731 2753 2481 
Q 2631 2231 2440 2026 
Q 2250 1822 1953 1562 
Q 1656 1303 1563 1216 
L 838 519 
L 1453 519 
Q 1906 519 2211 526 
Q 2516 534 2534 550 
Q 2609 631 2688 1141 
L 2875 1141 
L 2694 0 
L 319 0 
z
" transform="scale(0.015625)"/>
     </defs>
     <use xlink:href="#Cmmi10-79" transform="translate(0 0.109375)"/>
     <use xlink:href="#Cmr10-3d" transform="translate(66.582031 0.109375)"/>
     <use xlink:href="#Cmmi10-78" transform="translate(161.826172 0.109375)"/>
     <use xlink:href="#Cmr10-32" transform="translate(225.209531 38.373438)scale(0.7)"/>
    </g>
   </g>
   <g id="text_10">
    <!-- $y=-x^2$ -->
    <g transform="translate(274.998914 323.703259)scale(0.12 -0.12)">
     <defs>
      <path id="Cmsy10-a1" d="M 653 1472 
Q 600 1472 565 1512 
Q 531 1553 531 1600 
Q 531 1647 565 1687 
Q 600 1728 653 1728 
L 4325 1728 
Q 4375 1728 4408 1687 
Q 4441 1647 4441 1600 
Q 4441 1553 4408 1512 
Q 4375 1472 4325 1472 
L 653 1472 
z
" transform="scale(0.015625)"/>
     </defs>
     <use xlink:href="#Cmmi10-79" transform="translate(0 0.109375)"/>
     <use xlink:href="#Cmr10-3d" transform="translate(66.582031 0.109375)"/>
     <use xlink:href="#Cmsy10-a1" transform="translate(179.384766 0.109375)"/>
     <use xlink:href="#Cmmi10-78" transform="translate(274.628906 0.109375)"/>
     <use xlink:href="#Cmr10-32" transform="translate(338.012266 38.373438)scale(0.7)"/>
    </g>
   </g>
   <g id="text_11">
    <!-- $\mathcal{R}$ -->
    <g transform="translate(56.010032 142.177129)scale(0.12 -0.12)">
     <defs>
      <path id="Cmsy10-52" d="M 738 -91 
Q 738 -78 744 -56 
Q 966 475 1128 959 
Q 1291 1444 1428 1991 
Q 1678 2959 1766 3994 
Q 1425 3994 1094 3872 
Q 922 3803 833 3695 
Q 744 3588 684 3397 
Q 622 3291 472 3197 
Q 322 3103 206 3103 
L 166 3103 
Q 122 3131 122 3169 
Q 234 3556 581 3828 
Q 928 4100 1387 4236 
Q 1847 4372 2259 4372 
L 2931 4372 
Q 3378 4372 3739 4331 
Q 4100 4291 4392 4112 
Q 4684 3934 4684 3572 
Q 4684 3281 4548 3014 
Q 4413 2747 4189 2533 
Q 3966 2319 3697 2158 
Q 3428 1997 3156 1900 
Q 3253 1784 3383 1501 
Q 3513 1219 3659 911 
Q 3806 603 3951 420 
Q 4097 238 4256 238 
Q 4444 238 4551 308 
Q 4659 378 4775 520 
Q 4891 663 4997 745 
Q 5103 828 5281 844 
L 5319 844 
Q 5363 822 5363 794 
Q 5363 784 5356 768 
Q 5350 753 5344 738 
Q 5188 503 4936 297 
Q 4684 91 4393 -25 
Q 4103 -141 3828 -141 
L 3788 -141 
Q 3541 -141 3372 98 
Q 3203 338 3003 811 
Q 2803 1284 2651 1515 
Q 2500 1747 2278 1747 
Q 2266 1753 2250 1765 
Q 2234 1778 2234 1797 
Q 2234 1900 2420 2006 
Q 2606 2113 2719 2125 
Q 3072 2125 3395 2262 
Q 3719 2400 3917 2667 
Q 4116 2934 4116 3291 
Q 4116 3613 3833 3767 
Q 3550 3922 3203 3958 
Q 2856 3994 2450 3994 
L 2309 3994 
Q 2209 3041 1954 2070 
Q 1700 1100 1300 153 
Q 1238 41 1092 -43 
Q 947 -128 813 -141 
L 781 -141 
Q 769 -134 753 -121 
Q 738 -109 738 -91 
z
" transform="scale(0.015625)"/>
     </defs>
     <use xlink:href="#Cmsy10-52" transform="translate(0 0.6875)"/>
    </g>
   </g>
  </g>
 </g>
 <defs>
  <clipPath id="p71055dcaaa">
   <rect x="13.772256" y="7.433935" width="289.595809" height="318.555389"/>
  </clipPath>
 </defs>
</svg>
