<?xml version="1.0" encoding="utf-8" standalone="no"?>
<!DOCTYPE svg PUBLIC "-//W3C//DTD SVG 1.1//EN"
  "http://www.w3.org/Graphics/SVG/1.1/DTD/svg11.dtd">
<svg xmlns:xlink="http://www.w3.org/1999/xlink" width="330.329311pt" height="336.275663pt" viewBox="0 0 330.329311 336.275663" xmlns="http://www.w3.org/2000/svg" version="1.1">
 <metadata>
  <rdf:RDF xmlns:dc="http://purl.org/dc/elements/1.1/" xmlns:cc="http://creativecommons.org/ns#" xmlns:rdf="http://www.w3.org/1999/02/22-rdf-syntax-ns#">
   <cc:Work>
    <dc:type rdf:resource="http://purl.org/dc/dcmitype/StillImage"/>
    <dc:date>2022-10-03T18:02:42.782629</dc:date>
    <dc:format>image/svg+xml</dc:format>
    <dc:creator>
     <cc:Agent>
      <dc:title>Matplotlib v3.5.1, https://matplotlib.org/</dc:title>
     </cc:Agent>
    </dc:creator>
   </cc:Work>
  </rdf:RDF>
 </metadata>
 <defs>
  <style type="text/css">*{stroke-linejoin: round; stroke-linecap: butt}</style>
 </defs>
 <g id="figure_1">
  <g id="patch_1">
   <path d="M 0 336.275663 
L 330.329311 336.275663 
L 330.329311 0 
L 0 0 
z
" style="fill: #ffffff"/>
  </g>
  <g id="axes_1">
   <g id="patch_2">
    <path d="M 30.103125 312.397538 
L 320.767447 312.397538 
L 320.767447 7.2 
L 30.103125 7.2 
z
" style="fill: #ffffff"/>
   </g>
   <g id="patch_3">
    <path d="M 315.177749 27.04343 
L 313.130406 29.090773 
L 312.433162 29.788016 
L 310.866014 31.355164 
L 310.220739 32.000439 
L 308.148786 34.072393 
L 307.016674 35.204505 
L 304.662594 37.558584 
L 303.601683 38.619496 
L 303.096691 39.124487 
L 301.245795 40.975384 
L 299.383754 42.837425 
L 298.689637 43.531541 
L 296.744923 45.476256 
L 295.173242 47.047936 
L 294.47322 47.747958 
L 292.725592 49.495586 
L 291.587093 50.634086 
L 289.435723 52.785456 
L 288.431113 53.790066 
L 287.454692 54.766486 
L 285.747 56.474179 
L 283.584745 58.636433 
L 283.116272 59.104907 
L 282.127679 60.0935 
L 279.378805 62.842374 
L 279.152521 63.068657 
L 276.920715 65.300463 
L 275.318071 66.903107 
L 273.975666 68.245512 
L 273.292581 68.928598 
L 271.795323 70.425856 
L 269.73862 72.482559 
L 268.593333 73.627845 
L 267.719196 74.501983 
L 265.996997 76.224181 
L 264.722619 77.49856 
L 263.70994 78.511238 
L 261.913826 80.307353 
L 260.69609 81.525088 
L 258.911925 83.309253 
L 257.667298 84.553881 
L 256.41312 85.808058 
L 254.604296 87.616882 
L 252.872913 89.348265 
L 252.158675 90.062504 
L 250.390276 91.830903 
L 249.513654 92.707525 
L 248.235983 93.985196 
L 245.88423 96.336949 
L 245.109589 97.111589 
L 243.789618 98.43156 
L 242.677998 99.543181 
L 240.866793 101.354386 
L 238.789209 103.431969 
L 238.467582 103.753596 
L 236.811009 105.41017 
L 234.850254 107.370925 
L 233.275576 108.945603 
L 232.548626 109.672553 
L 231.341199 110.879979 
L 229.661835 112.559343 
L 227.77702 114.444159 
L 227.313669 114.907509 
L 224.628627 117.592551 
L 223.249262 118.971917 
L 222.491902 119.729277 
L 220.4273 121.793878 
L 219.935389 122.285789 
L 218.50013 123.721049 
L 216.350122 125.871056 
L 214.878938 127.34224 
L 213.915106 128.306073 
L 212.709017 129.512162 
L 211.828061 130.393118 
L 209.57002 132.651159 
L 208.17482 134.046358 
L 207.630274 134.590904 
L 205.836877 136.384301 
L 203.980666 138.240512 
L 202.510428 139.710751 
L 201.389113 140.832066 
L 200.060848 142.16033 
L 197.996045 144.225133 
L 197.562244 144.658934 
L 195.714794 146.506385 
L 194.123378 148.097801 
L 192.964619 149.256559 
L 191.756587 150.464592 
L 189.49356 152.727618 
L 188.167655 154.053523 
L 187.709628 154.51155 
L 185.386549 156.834629 
L 185.173285 157.047894 
L 182.975985 159.245194 
L 181.529857 160.691322 
L 180.763374 161.457804 
L 179.105227 163.115951 
L 177.603484 164.617694 
L 176.553028 165.668151 
L 174.813937 167.407241 
L 173.442607 168.778572 
L 172.329301 169.891878 
L 170.946404 171.274774 
L 168.907448 173.31373 
L 167.550187 174.670992 
L 166.703262 175.517917 
L 164.321562 177.899617 
L 162.838691 179.382487 
L 161.625686 180.595492 
L 160.465137 181.756041 
L 159.556813 182.664365 
L 158.47765 183.743529 
L 156.264778 185.9564 
L 155.324622 186.896557 
L 153.824025 188.397154 
L 152.808535 189.412644 
L 150.311481 191.909697 
L 149.077994 193.143185 
L 147.662124 194.559054 
L 146.659481 195.561697 
L 145.18713 197.034049 
L 143.942974 198.278204 
L 142.541291 199.679888 
L 141.070406 201.150773 
L 140.210753 202.010426 
L 137.949844 204.271334 
L 137.0358 205.185379 
L 135.319381 206.901798 
L 133.447789 208.77339 
L 132.002383 210.218795 
L 131.761057 210.460122 
L 129.740237 212.480941 
L 128.761327 213.459852 
L 127.010153 215.211026 
L 125.118516 217.102662 
L 124.11823 218.102949 
L 123.087625 219.133554 
L 120.750876 221.470303 
L 119.554866 222.666313 
L 118.31129 223.909889 
L 116.746509 225.47467 
L 115.896498 226.324681 
L 114.763372 227.457807 
L 112.47753 229.743649 
L 111.877983 230.343195 
L 110.305009 231.91617 
L 108.850328 233.370851 
L 107.245445 234.975734 
L 105.298318 236.922861 
L 104.177795 238.043384 
L 103.292535 238.928643 
L 101.24676 240.974418 
L 100.5999 241.621278 
L 99.051737 243.169441 
L 98.012849 244.208329 
L 96.154612 246.066567 
L 95.060584 247.160594 
L 92.599588 249.62159 
L 92.135964 250.085215 
L 89.861404 252.359775 
L 89.554291 252.666888 
L 87.472768 254.748411 
L 86.767683 255.453495 
L 85.336978 256.884201 
L 83.403531 258.817648 
L 81.512841 260.708337 
L 80.062566 262.158613 
L 79.052766 263.168412 
L 78.397855 263.823324 
L 76.24605 265.975128 
L 74.960235 267.260943 
L 72.938845 269.282333 
L 72.400432 269.820747 
L 70.131246 272.089932 
L 69.364401 272.856778 
L 68.39712 273.824058 
L 66.272186 275.948993 
L 65.352305 276.868873 
L 64.04862 278.172559 
L 62.847412 279.373766 
L 61.614643 280.606536 
L 59.375297 282.845881 
L 58.662235 283.558944 
L 56.47859 285.742588 
L 54.91805 287.303129 
L 53.833863 288.387316 
L 51.897233 290.323946 
L 50.559134 291.662044 
L 50.025862 292.195317 
L 48.053435 294.167744 
L 47.240175 294.981004 
L 45.07955 297.141629 
L 44.311567 297.909612 
L 42.765469 299.45571 
L 41.67675 300.544429 
L 40.11197 302.109209 
L 38.096711 304.124468 
L 36.614279 305.6069 
L 35.692824 306.528355 
L 35.692824 27.04343 
L 36.543969 27.04343 
L 38.347802 27.04343 
L 39.934726 27.04343 
L 41.898196 27.04343 
L 43.18963 27.04343 
L 43.460871 27.04343 
L 46.12723 27.04343 
L 47.321863 27.04343 
L 48.961491 27.04343 
L 50.305292 27.04343 
L 50.494026 27.04343 
L 52.35117 27.04343 
L 54.12222 27.04343 
L 55.333795 27.04343 
L 56.078788 27.04343 
L 58.294767 27.04343 
L 59.400236 27.04343 
L 60.571572 27.04343 
L 62.29556 27.04343 
L 64.131709 27.04343 
L 65.653318 27.04343 
L 66.456903 27.04343 
L 67.766004 27.04343 
L 69.911546 27.04343 
L 70.277948 27.04343 
L 72.663153 27.04343 
L 74.006766 27.04343 
L 75.538529 27.04343 
L 76.775364 27.04343 
L 77.417544 27.04343 
L 79.364463 27.04343 
L 80.042082 27.04343 
L 81.362269 27.04343 
L 83.192221 27.04343 
L 85.414676 27.04343 
L 85.979889 27.04343 
L 87.753906 27.04343 
L 88.428838 27.04343 
L 90.506487 27.04343 
L 92.074203 27.04343 
L 93.645799 27.04343 
L 94.174181 27.04343 
L 95.840157 27.04343 
L 96.896045 27.04343 
L 98.518016 27.04343 
L 99.760004 27.04343 
L 101.722984 27.04343 
L 103.23684 27.04343 
L 104.660538 27.04343 
L 105.754938 27.04343 
L 106.975531 27.04343 
L 109.185568 27.04343 
L 109.760505 27.04343 
L 111.487129 27.04343 
L 112.822986 27.04343 
L 113.840075 27.04343 
L 115.126521 27.04343 
L 116.53606 27.04343 
L 118.972794 27.04343 
L 119.291756 27.04343 
L 121.598607 27.04343 
L 122.915792 27.04343 
L 123.659816 27.04343 
L 125.539407 27.04343 
L 127.632577 27.04343 
L 128.822447 27.04343 
L 130.300863 27.04343 
L 130.831254 27.04343 
L 132.628599 27.04343 
L 133.751609 27.04343 
L 135.782456 27.04343 
L 136.302466 27.04343 
L 137.594401 27.04343 
L 139.075684 27.04343 
L 140.689618 27.04343 
L 141.884406 27.04343 
L 144.301696 27.04343 
L 144.808385 27.04343 
L 146.502908 27.04343 
L 147.744532 27.04343 
L 149.660981 27.04343 
L 150.892559 27.04343 
L 151.763888 27.04343 
L 154.211234 27.04343 
L 154.437885 27.04343 
L 157.078504 27.04343 
L 158.248368 27.04343 
L 158.989067 27.04343 
L 160.326114 27.04343 
L 162.428497 27.04343 
L 163.170186 27.04343 
L 165.432308 27.04343 
L 166.112126 27.04343 
L 168.142875 27.04343 
L 169.779414 27.04343 
L 169.875326 27.04343 
L 171.975991 27.04343 
L 173.024651 27.04343 
L 174.728359 27.04343 
L 176.501119 27.04343 
L 177.507678 27.04343 
L 179.205765 27.04343 
L 179.65993 27.04343 
L 181.421251 27.04343 
L 182.475629 27.04343 
L 184.770913 27.04343 
L 186.065166 27.04343 
L 187.755594 27.04343 
L 189.464015 27.04343 
L 190.484449 27.04343 
L 191.391111 27.04343 
L 193.495961 27.04343 
L 194.107796 27.04343 
L 195.217499 27.04343 
L 196.904714 27.04343 
L 198.982406 27.04343 
L 200.317085 27.04343 
L 200.818125 27.04343 
L 202.181361 27.04343 
L 204.438071 27.04343 
L 206.294831 27.04343 
L 206.439302 27.04343 
L 208.775365 27.04343 
L 210.021543 27.04343 
L 210.651845 27.04343 
L 213.027423 27.04343 
L 214.424665 27.04343 
L 215.631112 27.04343 
L 217.324599 27.04343 
L 218.264516 27.04343 
L 220.05314 27.04343 
L 221.030454 27.04343 
L 222.364164 27.04343 
L 223.297459 27.04343 
L 225.273453 27.04343 
L 226.508809 27.04343 
L 227.913857 27.04343 
L 230.13975 27.04343 
L 231.228806 27.04343 
L 232.782937 27.04343 
L 234.332804 27.04343 
L 235.190111 27.04343 
L 236.209328 27.04343 
L 238.391405 27.04343 
L 238.997324 27.04343 
L 240.166483 27.04343 
L 242.725204 27.04343 
L 243.355145 27.04343 
L 245.424428 27.04343 
L 245.988759 27.04343 
L 248.151879 27.04343 
L 248.865674 27.04343 
L 250.884634 27.04343 
L 252.216222 27.04343 
L 253.661047 27.04343 
L 255.062747 27.04343 
L 256.839533 27.04343 
L 258.287088 27.04343 
L 258.813704 27.04343 
L 259.815285 27.04343 
L 261.648237 27.04343 
L 262.65697 27.04343 
L 265.292169 27.04343 
L 265.896234 27.04343 
L 267.746668 27.04343 
L 268.40697 27.04343 
L 270.307836 27.04343 
L 272.085102 27.04343 
L 272.85713 27.04343 
L 274.756621 27.04343 
L 276.08913 27.04343 
L 276.828654 27.04343 
L 278.824612 27.04343 
L 280.529616 27.04343 
L 281.660739 27.04343 
L 282.383692 27.04343 
L 283.624386 27.04343 
L 285.96693 27.04343 
L 287.200002 27.04343 
L 288.767947 27.04343 
L 289.739565 27.04343 
L 291.146199 27.04343 
L 293.380221 27.04343 
L 293.676401 27.04343 
L 295.69268 27.04343 
L 297.249336 27.04343 
L 298.117614 27.04343 
L 300.078162 27.04343 
L 301.201129 27.04343 
L 302.36569 27.04343 
L 304.381981 27.04343 
L 305.633726 27.04343 
L 306.955872 27.04343 
L 307.625171 27.04343 
L 309.542596 27.04343 
L 311.592528 27.04343 
L 312.490346 27.04343 
L 313.701896 27.04343 
z
" clip-path="url(#p02f9b2e764)" style="fill: #008000; opacity: 0.5"/>
   </g>
   <g id="matplotlib.axis_1">
    <g id="xtick_1">
     <g id="line2d_1">
      <defs>
       <path id="mac822c6711" d="M 0 0 
L 0 3.5 
" style="stroke: #000000; stroke-width: 0.8"/>
      </defs>
      <g>
       <use xlink:href="#mac822c6711" x="35.692824" y="312.397538" style="stroke: #000000; stroke-width: 0.8"/>
      </g>
     </g>
     <g id="text_1">
      <!-- 0.0 -->
      <g transform="translate(27.741261 326.995976)scale(0.1 -0.1)">
       <defs>
        <path id="DejaVuSans-30" d="M 2034 4250 
Q 1547 4250 1301 3770 
Q 1056 3291 1056 2328 
Q 1056 1369 1301 889 
Q 1547 409 2034 409 
Q 2525 409 2770 889 
Q 3016 1369 3016 2328 
Q 3016 3291 2770 3770 
Q 2525 4250 2034 4250 
z
M 2034 4750 
Q 2819 4750 3233 4129 
Q 3647 3509 3647 2328 
Q 3647 1150 3233 529 
Q 2819 -91 2034 -91 
Q 1250 -91 836 529 
Q 422 1150 422 2328 
Q 422 3509 836 4129 
Q 1250 4750 2034 4750 
z
" transform="scale(0.015625)"/>
        <path id="DejaVuSans-2e" d="M 684 794 
L 1344 794 
L 1344 0 
L 684 0 
L 684 794 
z
" transform="scale(0.015625)"/>
       </defs>
       <use xlink:href="#DejaVuSans-30"/>
       <use xlink:href="#DejaVuSans-2e" x="63.623047"/>
       <use xlink:href="#DejaVuSans-30" x="95.410156"/>
      </g>
     </g>
    </g>
    <g id="xtick_2">
     <g id="line2d_2">
      <g>
       <use xlink:href="#mac822c6711" x="91.589809" y="312.397538" style="stroke: #000000; stroke-width: 0.8"/>
      </g>
     </g>
     <g id="text_2">
      <!-- 0.2 -->
      <g transform="translate(83.638246 326.995976)scale(0.1 -0.1)">
       <defs>
        <path id="DejaVuSans-32" d="M 1228 531 
L 3431 531 
L 3431 0 
L 469 0 
L 469 531 
Q 828 903 1448 1529 
Q 2069 2156 2228 2338 
Q 2531 2678 2651 2914 
Q 2772 3150 2772 3378 
Q 2772 3750 2511 3984 
Q 2250 4219 1831 4219 
Q 1534 4219 1204 4116 
Q 875 4013 500 3803 
L 500 4441 
Q 881 4594 1212 4672 
Q 1544 4750 1819 4750 
Q 2544 4750 2975 4387 
Q 3406 4025 3406 3419 
Q 3406 3131 3298 2873 
Q 3191 2616 2906 2266 
Q 2828 2175 2409 1742 
Q 1991 1309 1228 531 
z
" transform="scale(0.015625)"/>
       </defs>
       <use xlink:href="#DejaVuSans-30"/>
       <use xlink:href="#DejaVuSans-2e" x="63.623047"/>
       <use xlink:href="#DejaVuSans-32" x="95.410156"/>
      </g>
     </g>
    </g>
    <g id="xtick_3">
     <g id="line2d_3">
      <g>
       <use xlink:href="#mac822c6711" x="147.486794" y="312.397538" style="stroke: #000000; stroke-width: 0.8"/>
      </g>
     </g>
     <g id="text_3">
      <!-- 0.4 -->
      <g transform="translate(139.535231 326.995976)scale(0.1 -0.1)">
       <defs>
        <path id="DejaVuSans-34" d="M 2419 4116 
L 825 1625 
L 2419 1625 
L 2419 4116 
z
M 2253 4666 
L 3047 4666 
L 3047 1625 
L 3713 1625 
L 3713 1100 
L 3047 1100 
L 3047 0 
L 2419 0 
L 2419 1100 
L 313 1100 
L 313 1709 
L 2253 4666 
z
" transform="scale(0.015625)"/>
       </defs>
       <use xlink:href="#DejaVuSans-30"/>
       <use xlink:href="#DejaVuSans-2e" x="63.623047"/>
       <use xlink:href="#DejaVuSans-34" x="95.410156"/>
      </g>
     </g>
    </g>
    <g id="xtick_4">
     <g id="line2d_4">
      <g>
       <use xlink:href="#mac822c6711" x="203.383779" y="312.397538" style="stroke: #000000; stroke-width: 0.8"/>
      </g>
     </g>
     <g id="text_4">
      <!-- 0.6 -->
      <g transform="translate(195.432216 326.995976)scale(0.1 -0.1)">
       <defs>
        <path id="DejaVuSans-36" d="M 2113 2584 
Q 1688 2584 1439 2293 
Q 1191 2003 1191 1497 
Q 1191 994 1439 701 
Q 1688 409 2113 409 
Q 2538 409 2786 701 
Q 3034 994 3034 1497 
Q 3034 2003 2786 2293 
Q 2538 2584 2113 2584 
z
M 3366 4563 
L 3366 3988 
Q 3128 4100 2886 4159 
Q 2644 4219 2406 4219 
Q 1781 4219 1451 3797 
Q 1122 3375 1075 2522 
Q 1259 2794 1537 2939 
Q 1816 3084 2150 3084 
Q 2853 3084 3261 2657 
Q 3669 2231 3669 1497 
Q 3669 778 3244 343 
Q 2819 -91 2113 -91 
Q 1303 -91 875 529 
Q 447 1150 447 2328 
Q 447 3434 972 4092 
Q 1497 4750 2381 4750 
Q 2619 4750 2861 4703 
Q 3103 4656 3366 4563 
z
" transform="scale(0.015625)"/>
       </defs>
       <use xlink:href="#DejaVuSans-30"/>
       <use xlink:href="#DejaVuSans-2e" x="63.623047"/>
       <use xlink:href="#DejaVuSans-36" x="95.410156"/>
      </g>
     </g>
    </g>
    <g id="xtick_5">
     <g id="line2d_5">
      <g>
       <use xlink:href="#mac822c6711" x="259.280764" y="312.397538" style="stroke: #000000; stroke-width: 0.8"/>
      </g>
     </g>
     <g id="text_5">
      <!-- 0.8 -->
      <g transform="translate(251.329201 326.995976)scale(0.1 -0.1)">
       <defs>
        <path id="DejaVuSans-38" d="M 2034 2216 
Q 1584 2216 1326 1975 
Q 1069 1734 1069 1313 
Q 1069 891 1326 650 
Q 1584 409 2034 409 
Q 2484 409 2743 651 
Q 3003 894 3003 1313 
Q 3003 1734 2745 1975 
Q 2488 2216 2034 2216 
z
M 1403 2484 
Q 997 2584 770 2862 
Q 544 3141 544 3541 
Q 544 4100 942 4425 
Q 1341 4750 2034 4750 
Q 2731 4750 3128 4425 
Q 3525 4100 3525 3541 
Q 3525 3141 3298 2862 
Q 3072 2584 2669 2484 
Q 3125 2378 3379 2068 
Q 3634 1759 3634 1313 
Q 3634 634 3220 271 
Q 2806 -91 2034 -91 
Q 1263 -91 848 271 
Q 434 634 434 1313 
Q 434 1759 690 2068 
Q 947 2378 1403 2484 
z
M 1172 3481 
Q 1172 3119 1398 2916 
Q 1625 2713 2034 2713 
Q 2441 2713 2670 2916 
Q 2900 3119 2900 3481 
Q 2900 3844 2670 4047 
Q 2441 4250 2034 4250 
Q 1625 4250 1398 4047 
Q 1172 3844 1172 3481 
z
" transform="scale(0.015625)"/>
       </defs>
       <use xlink:href="#DejaVuSans-30"/>
       <use xlink:href="#DejaVuSans-2e" x="63.623047"/>
       <use xlink:href="#DejaVuSans-38" x="95.410156"/>
      </g>
     </g>
    </g>
    <g id="xtick_6">
     <g id="line2d_6">
      <g>
       <use xlink:href="#mac822c6711" x="315.177749" y="312.397538" style="stroke: #000000; stroke-width: 0.8"/>
      </g>
     </g>
     <g id="text_6">
      <!-- 1.0 -->
      <g transform="translate(307.226186 326.995976)scale(0.1 -0.1)">
       <defs>
        <path id="DejaVuSans-31" d="M 794 531 
L 1825 531 
L 1825 4091 
L 703 3866 
L 703 4441 
L 1819 4666 
L 2450 4666 
L 2450 531 
L 3481 531 
L 3481 0 
L 794 0 
L 794 531 
z
" transform="scale(0.015625)"/>
       </defs>
       <use xlink:href="#DejaVuSans-31"/>
       <use xlink:href="#DejaVuSans-2e" x="63.623047"/>
       <use xlink:href="#DejaVuSans-30" x="95.410156"/>
      </g>
     </g>
    </g>
    <g id="xtick_7">
     <g id="line2d_7">
      <defs>
       <path id="m5f87e7e75c" d="M 0 0 
L 0 2 
" style="stroke: #000000; stroke-width: 0.6"/>
      </defs>
      <g>
       <use xlink:href="#m5f87e7e75c" x="49.66707" y="312.397538" style="stroke: #000000; stroke-width: 0.6"/>
      </g>
     </g>
    </g>
    <g id="xtick_8">
     <g id="line2d_8">
      <g>
       <use xlink:href="#m5f87e7e75c" x="63.641316" y="312.397538" style="stroke: #000000; stroke-width: 0.6"/>
      </g>
     </g>
    </g>
    <g id="xtick_9">
     <g id="line2d_9">
      <g>
       <use xlink:href="#m5f87e7e75c" x="77.615562" y="312.397538" style="stroke: #000000; stroke-width: 0.6"/>
      </g>
     </g>
    </g>
    <g id="xtick_10">
     <g id="line2d_10">
      <g>
       <use xlink:href="#m5f87e7e75c" x="105.564055" y="312.397538" style="stroke: #000000; stroke-width: 0.6"/>
      </g>
     </g>
    </g>
    <g id="xtick_11">
     <g id="line2d_11">
      <g>
       <use xlink:href="#m5f87e7e75c" x="119.538301" y="312.397538" style="stroke: #000000; stroke-width: 0.6"/>
      </g>
     </g>
    </g>
    <g id="xtick_12">
     <g id="line2d_12">
      <g>
       <use xlink:href="#m5f87e7e75c" x="133.512547" y="312.397538" style="stroke: #000000; stroke-width: 0.6"/>
      </g>
     </g>
    </g>
    <g id="xtick_13">
     <g id="line2d_13">
      <g>
       <use xlink:href="#m5f87e7e75c" x="161.46104" y="312.397538" style="stroke: #000000; stroke-width: 0.6"/>
      </g>
     </g>
    </g>
    <g id="xtick_14">
     <g id="line2d_14">
      <g>
       <use xlink:href="#m5f87e7e75c" x="175.435286" y="312.397538" style="stroke: #000000; stroke-width: 0.6"/>
      </g>
     </g>
    </g>
    <g id="xtick_15">
     <g id="line2d_15">
      <g>
       <use xlink:href="#m5f87e7e75c" x="189.409532" y="312.397538" style="stroke: #000000; stroke-width: 0.6"/>
      </g>
     </g>
    </g>
    <g id="xtick_16">
     <g id="line2d_16">
      <g>
       <use xlink:href="#m5f87e7e75c" x="217.358025" y="312.397538" style="stroke: #000000; stroke-width: 0.6"/>
      </g>
     </g>
    </g>
    <g id="xtick_17">
     <g id="line2d_17">
      <g>
       <use xlink:href="#m5f87e7e75c" x="231.332271" y="312.397538" style="stroke: #000000; stroke-width: 0.6"/>
      </g>
     </g>
    </g>
    <g id="xtick_18">
     <g id="line2d_18">
      <g>
       <use xlink:href="#m5f87e7e75c" x="245.306518" y="312.397538" style="stroke: #000000; stroke-width: 0.6"/>
      </g>
     </g>
    </g>
    <g id="xtick_19">
     <g id="line2d_19">
      <g>
       <use xlink:href="#m5f87e7e75c" x="273.25501" y="312.397538" style="stroke: #000000; stroke-width: 0.6"/>
      </g>
     </g>
    </g>
    <g id="xtick_20">
     <g id="line2d_20">
      <g>
       <use xlink:href="#m5f87e7e75c" x="287.229256" y="312.397538" style="stroke: #000000; stroke-width: 0.6"/>
      </g>
     </g>
    </g>
    <g id="xtick_21">
     <g id="line2d_21">
      <g>
       <use xlink:href="#m5f87e7e75c" x="301.203503" y="312.397538" style="stroke: #000000; stroke-width: 0.6"/>
      </g>
     </g>
    </g>
   </g>
   <g id="matplotlib.axis_2">
    <g id="ytick_1">
     <g id="line2d_22">
      <defs>
       <path id="mad22b35095" d="M 0 0 
L -3.5 0 
" style="stroke: #000000; stroke-width: 0.8"/>
      </defs>
      <g>
       <use xlink:href="#mad22b35095" x="30.103125" y="306.528355" style="stroke: #000000; stroke-width: 0.8"/>
      </g>
     </g>
     <g id="text_7">
      <!-- 0.0 -->
      <g transform="translate(7.2 310.327574)scale(0.1 -0.1)">
       <use xlink:href="#DejaVuSans-30"/>
       <use xlink:href="#DejaVuSans-2e" x="63.623047"/>
       <use xlink:href="#DejaVuSans-30" x="95.410156"/>
      </g>
     </g>
    </g>
    <g id="ytick_2">
     <g id="line2d_23">
      <g>
       <use xlink:href="#mad22b35095" x="30.103125" y="250.63137" style="stroke: #000000; stroke-width: 0.8"/>
      </g>
     </g>
     <g id="text_8">
      <!-- 0.2 -->
      <g transform="translate(7.2 254.430589)scale(0.1 -0.1)">
       <use xlink:href="#DejaVuSans-30"/>
       <use xlink:href="#DejaVuSans-2e" x="63.623047"/>
       <use xlink:href="#DejaVuSans-32" x="95.410156"/>
      </g>
     </g>
    </g>
    <g id="ytick_3">
     <g id="line2d_24">
      <g>
       <use xlink:href="#mad22b35095" x="30.103125" y="194.734385" style="stroke: #000000; stroke-width: 0.8"/>
      </g>
     </g>
     <g id="text_9">
      <!-- 0.4 -->
      <g transform="translate(7.2 198.533604)scale(0.1 -0.1)">
       <use xlink:href="#DejaVuSans-30"/>
       <use xlink:href="#DejaVuSans-2e" x="63.623047"/>
       <use xlink:href="#DejaVuSans-34" x="95.410156"/>
      </g>
     </g>
    </g>
    <g id="ytick_4">
     <g id="line2d_25">
      <g>
       <use xlink:href="#mad22b35095" x="30.103125" y="138.8374" style="stroke: #000000; stroke-width: 0.8"/>
      </g>
     </g>
     <g id="text_10">
      <!-- 0.6 -->
      <g transform="translate(7.2 142.636619)scale(0.1 -0.1)">
       <use xlink:href="#DejaVuSans-30"/>
       <use xlink:href="#DejaVuSans-2e" x="63.623047"/>
       <use xlink:href="#DejaVuSans-36" x="95.410156"/>
      </g>
     </g>
    </g>
    <g id="ytick_5">
     <g id="line2d_26">
      <g>
       <use xlink:href="#mad22b35095" x="30.103125" y="82.940415" style="stroke: #000000; stroke-width: 0.8"/>
      </g>
     </g>
     <g id="text_11">
      <!-- 0.8 -->
      <g transform="translate(7.2 86.739634)scale(0.1 -0.1)">
       <use xlink:href="#DejaVuSans-30"/>
       <use xlink:href="#DejaVuSans-2e" x="63.623047"/>
       <use xlink:href="#DejaVuSans-38" x="95.410156"/>
      </g>
     </g>
    </g>
    <g id="ytick_6">
     <g id="line2d_27">
      <g>
       <use xlink:href="#mad22b35095" x="30.103125" y="27.04343" style="stroke: #000000; stroke-width: 0.8"/>
      </g>
     </g>
     <g id="text_12">
      <!-- 1.0 -->
      <g transform="translate(7.2 30.842648)scale(0.1 -0.1)">
       <use xlink:href="#DejaVuSans-31"/>
       <use xlink:href="#DejaVuSans-2e" x="63.623047"/>
       <use xlink:href="#DejaVuSans-30" x="95.410156"/>
      </g>
     </g>
    </g>
    <g id="ytick_7">
     <g id="line2d_28">
      <defs>
       <path id="mdb69ad0df9" d="M 0 0 
L -2 0 
" style="stroke: #000000; stroke-width: 0.6"/>
      </defs>
      <g>
       <use xlink:href="#mdb69ad0df9" x="30.103125" y="292.554109" style="stroke: #000000; stroke-width: 0.6"/>
      </g>
     </g>
    </g>
    <g id="ytick_8">
     <g id="line2d_29">
      <g>
       <use xlink:href="#mdb69ad0df9" x="30.103125" y="278.579862" style="stroke: #000000; stroke-width: 0.6"/>
      </g>
     </g>
    </g>
    <g id="ytick_9">
     <g id="line2d_30">
      <g>
       <use xlink:href="#mdb69ad0df9" x="30.103125" y="264.605616" style="stroke: #000000; stroke-width: 0.6"/>
      </g>
     </g>
    </g>
    <g id="ytick_10">
     <g id="line2d_31">
      <g>
       <use xlink:href="#mdb69ad0df9" x="30.103125" y="236.657124" style="stroke: #000000; stroke-width: 0.6"/>
      </g>
     </g>
    </g>
    <g id="ytick_11">
     <g id="line2d_32">
      <g>
       <use xlink:href="#mdb69ad0df9" x="30.103125" y="222.682877" style="stroke: #000000; stroke-width: 0.6"/>
      </g>
     </g>
    </g>
    <g id="ytick_12">
     <g id="line2d_33">
      <g>
       <use xlink:href="#mdb69ad0df9" x="30.103125" y="208.708631" style="stroke: #000000; stroke-width: 0.6"/>
      </g>
     </g>
    </g>
    <g id="ytick_13">
     <g id="line2d_34">
      <g>
       <use xlink:href="#mdb69ad0df9" x="30.103125" y="180.760139" style="stroke: #000000; stroke-width: 0.6"/>
      </g>
     </g>
    </g>
    <g id="ytick_14">
     <g id="line2d_35">
      <g>
       <use xlink:href="#mdb69ad0df9" x="30.103125" y="166.785892" style="stroke: #000000; stroke-width: 0.6"/>
      </g>
     </g>
    </g>
    <g id="ytick_15">
     <g id="line2d_36">
      <g>
       <use xlink:href="#mdb69ad0df9" x="30.103125" y="152.811646" style="stroke: #000000; stroke-width: 0.6"/>
      </g>
     </g>
    </g>
    <g id="ytick_16">
     <g id="line2d_37">
      <g>
       <use xlink:href="#mdb69ad0df9" x="30.103125" y="124.863154" style="stroke: #000000; stroke-width: 0.6"/>
      </g>
     </g>
    </g>
    <g id="ytick_17">
     <g id="line2d_38">
      <g>
       <use xlink:href="#mdb69ad0df9" x="30.103125" y="110.888907" style="stroke: #000000; stroke-width: 0.6"/>
      </g>
     </g>
    </g>
    <g id="ytick_18">
     <g id="line2d_39">
      <g>
       <use xlink:href="#mdb69ad0df9" x="30.103125" y="96.914661" style="stroke: #000000; stroke-width: 0.6"/>
      </g>
     </g>
    </g>
    <g id="ytick_19">
     <g id="line2d_40">
      <g>
       <use xlink:href="#mdb69ad0df9" x="30.103125" y="68.966168" style="stroke: #000000; stroke-width: 0.6"/>
      </g>
     </g>
    </g>
    <g id="ytick_20">
     <g id="line2d_41">
      <g>
       <use xlink:href="#mdb69ad0df9" x="30.103125" y="54.991922" style="stroke: #000000; stroke-width: 0.6"/>
      </g>
     </g>
    </g>
    <g id="ytick_21">
     <g id="line2d_42">
      <g>
       <use xlink:href="#mdb69ad0df9" x="30.103125" y="41.017676" style="stroke: #000000; stroke-width: 0.6"/>
      </g>
     </g>
    </g>
    <g id="ytick_22">
     <g id="line2d_43">
      <g>
       <use xlink:href="#mdb69ad0df9" x="30.103125" y="13.069183" style="stroke: #000000; stroke-width: 0.6"/>
      </g>
     </g>
    </g>
   </g>
   <g id="line2d_44">
    <path d="M 35.692824 27.04343 
L 315.177749 27.04343 
L 315.177749 27.04343 
" clip-path="url(#p02f9b2e764)" style="fill: none; stroke: #0000ff; stroke-linecap: square"/>
   </g>
   <g id="line2d_45">
    <path d="M 35.692824 306.528355 
L 315.177749 27.04343 
L 315.177749 27.04343 
" clip-path="url(#p02f9b2e764)" style="fill: none; stroke: #ff0000; stroke-linecap: square"/>
   </g>
   <g id="PathCollection_1">
    <path d="M 36.161758 27.04343 
L 36.161758 306.528355 
L 36.161758 306.528355 
" clip-path="url(#p02f9b2e764)" style="fill: none; stroke: #ffa500; stroke-width: 1.5"/>
   </g>
   <g id="patch_4">
    <path d="M 30.103125 312.397538 
L 30.103125 7.2 
" style="fill: none; stroke: #000000; stroke-width: 0.8; stroke-linejoin: miter; stroke-linecap: square"/>
   </g>
   <g id="patch_5">
    <path d="M 320.767447 312.397538 
L 320.767447 7.2 
" style="fill: none; stroke: #000000; stroke-width: 0.8; stroke-linejoin: miter; stroke-linecap: square"/>
   </g>
   <g id="patch_6">
    <path d="M 30.103125 312.397538 
L 320.767447 312.397538 
" style="fill: none; stroke: #000000; stroke-width: 0.8; stroke-linejoin: miter; stroke-linecap: square"/>
   </g>
   <g id="patch_7">
    <path d="M 30.103125 7.2 
L 320.767447 7.2 
" style="fill: none; stroke: #000000; stroke-width: 0.8; stroke-linejoin: miter; stroke-linecap: square"/>
   </g>
   <g id="text_13">
    <!-- $y=1$ -->
    <g transform="translate(162.715286 16.356058)scale(0.12 -0.12)">
     <defs>
      <path id="Cmmi10-79" d="M 538 -916 
Q 672 -1147 1006 -1147 
Q 1309 -1147 1531 -934 
Q 1753 -722 1889 -420 
Q 2025 -119 2100 197 
Q 1816 -72 1484 -72 
Q 1231 -72 1053 15 
Q 875 103 776 276 
Q 678 450 678 697 
Q 678 906 734 1126 
Q 791 1347 892 1617 
Q 994 1888 1069 2088 
Q 1153 2322 1153 2472 
Q 1153 2663 1013 2663 
Q 759 2663 595 2402 
Q 431 2141 353 1819 
Q 341 1778 300 1778 
L 225 1778 
Q 172 1778 172 1838 
L 172 1856 
Q 275 2238 487 2533 
Q 700 2828 1025 2828 
Q 1253 2828 1411 2678 
Q 1569 2528 1569 2297 
Q 1569 2178 1516 2047 
Q 1488 1969 1388 1706 
Q 1288 1444 1234 1272 
Q 1181 1100 1147 934 
Q 1113 769 1113 603 
Q 1113 391 1203 244 
Q 1294 97 1491 97 
Q 1888 97 2203 581 
L 2688 2553 
Q 2709 2638 2787 2698 
Q 2866 2759 2956 2759 
Q 3034 2759 3092 2709 
Q 3150 2659 3150 2578 
Q 3150 2541 3144 2528 
L 2509 -19 
Q 2425 -347 2200 -647 
Q 1975 -947 1658 -1130 
Q 1341 -1313 997 -1313 
Q 831 -1313 668 -1248 
Q 506 -1184 406 -1056 
Q 306 -928 306 -756 
Q 306 -581 409 -453 
Q 513 -325 684 -325 
Q 788 -325 858 -389 
Q 928 -453 928 -556 
Q 928 -703 818 -812 
Q 709 -922 563 -922 
Q 556 -919 550 -917 
Q 544 -916 538 -916 
z
" transform="scale(0.015625)"/>
      <path id="Cmr10-3d" d="M 481 850 
Q 428 850 393 890 
Q 359 931 359 978 
Q 359 1031 393 1068 
Q 428 1106 481 1106 
L 4500 1106 
Q 4547 1106 4581 1068 
Q 4616 1031 4616 978 
Q 4616 931 4581 890 
Q 4547 850 4500 850 
L 481 850 
z
M 481 2094 
Q 428 2094 393 2131 
Q 359 2169 359 2222 
Q 359 2269 393 2309 
Q 428 2350 481 2350 
L 4500 2350 
Q 4547 2350 4581 2309 
Q 4616 2269 4616 2222 
Q 4616 2169 4581 2131 
Q 4547 2094 4500 2094 
L 481 2094 
z
" transform="scale(0.015625)"/>
      <path id="Cmr10-31" d="M 594 0 
L 594 225 
Q 1394 225 1394 428 
L 1394 3788 
Q 1063 3628 556 3628 
L 556 3853 
Q 1341 3853 1741 4263 
L 1831 4263 
Q 1853 4263 1873 4245 
Q 1894 4228 1894 4206 
L 1894 428 
Q 1894 225 2694 225 
L 2694 0 
L 594 0 
z
" transform="scale(0.015625)"/>
     </defs>
     <use xlink:href="#Cmmi10-79" transform="translate(0 0.390625)"/>
     <use xlink:href="#Cmr10-3d" transform="translate(66.582031 0.390625)"/>
     <use xlink:href="#Cmr10-31" transform="translate(161.826172 0.390625)"/>
    </g>
   </g>
   <g id="text_14">
    <!-- $y=x$ -->
    <g transform="translate(162.295286 142.124275)scale(0.12 -0.12)">
     <defs>
      <path id="Cmmi10-78" d="M 500 184 
Q 613 97 819 97 
Q 1019 97 1172 289 
Q 1325 481 1381 709 
L 1672 1844 
Q 1741 2153 1741 2266 
Q 1741 2425 1652 2544 
Q 1563 2663 1403 2663 
Q 1200 2663 1022 2536 
Q 844 2409 722 2214 
Q 600 2019 550 1819 
Q 538 1778 500 1778 
L 422 1778 
Q 372 1778 372 1838 
L 372 1856 
Q 434 2094 584 2320 
Q 734 2547 951 2687 
Q 1169 2828 1416 2828 
Q 1650 2828 1839 2703 
Q 2028 2578 2106 2363 
Q 2216 2559 2386 2693 
Q 2556 2828 2759 2828 
Q 2897 2828 3040 2779 
Q 3184 2731 3275 2631 
Q 3366 2531 3366 2381 
Q 3366 2219 3261 2101 
Q 3156 1984 2994 1984 
Q 2891 1984 2822 2050 
Q 2753 2116 2753 2216 
Q 2753 2350 2845 2451 
Q 2938 2553 3066 2572 
Q 2950 2663 2747 2663 
Q 2541 2663 2389 2472 
Q 2238 2281 2175 2047 
L 1894 916 
Q 1825 659 1825 494 
Q 1825 331 1917 214 
Q 2009 97 2163 97 
Q 2463 97 2698 361 
Q 2934 625 3009 941 
Q 3022 978 3059 978 
L 3138 978 
Q 3163 978 3178 961 
Q 3194 944 3194 922 
Q 3194 916 3188 903 
Q 3097 522 2806 225 
Q 2516 -72 2150 -72 
Q 1916 -72 1727 54 
Q 1538 181 1459 397 
Q 1359 209 1182 68 
Q 1006 -72 806 -72 
Q 669 -72 523 -23 
Q 378 25 287 125 
Q 197 225 197 378 
Q 197 528 301 651 
Q 406 775 563 775 
Q 669 775 741 711 
Q 813 647 813 544 
Q 813 409 723 309 
Q 634 209 500 184 
z
" transform="scale(0.015625)"/>
     </defs>
     <use xlink:href="#Cmmi10-79" transform="translate(0 0.8125)"/>
     <use xlink:href="#Cmr10-3d" transform="translate(66.582031 0.8125)"/>
     <use xlink:href="#Cmmi10-78" transform="translate(161.826172 0.8125)"/>
    </g>
   </g>
   <g id="text_15">
    <!-- $\mathcal{R}$ -->
    <g transform="translate(86.489809 86.251665)scale(0.12 -0.12)">
     <defs>
      <path id="Cmsy10-52" d="M 738 -91 
Q 738 -78 744 -56 
Q 966 475 1128 959 
Q 1291 1444 1428 1991 
Q 1678 2959 1766 3994 
Q 1425 3994 1094 3872 
Q 922 3803 833 3695 
Q 744 3588 684 3397 
Q 622 3291 472 3197 
Q 322 3103 206 3103 
L 166 3103 
Q 122 3131 122 3169 
Q 234 3556 581 3828 
Q 928 4100 1387 4236 
Q 1847 4372 2259 4372 
L 2931 4372 
Q 3378 4372 3739 4331 
Q 4100 4291 4392 4112 
Q 4684 3934 4684 3572 
Q 4684 3281 4548 3014 
Q 4413 2747 4189 2533 
Q 3966 2319 3697 2158 
Q 3428 1997 3156 1900 
Q 3253 1784 3383 1501 
Q 3513 1219 3659 911 
Q 3806 603 3951 420 
Q 4097 238 4256 238 
Q 4444 238 4551 308 
Q 4659 378 4775 520 
Q 4891 663 4997 745 
Q 5103 828 5281 844 
L 5319 844 
Q 5363 822 5363 794 
Q 5363 784 5356 768 
Q 5350 753 5344 738 
Q 5188 503 4936 297 
Q 4684 91 4393 -25 
Q 4103 -141 3828 -141 
L 3788 -141 
Q 3541 -141 3372 98 
Q 3203 338 3003 811 
Q 2803 1284 2651 1515 
Q 2500 1747 2278 1747 
Q 2266 1753 2250 1765 
Q 2234 1778 2234 1797 
Q 2234 1900 2420 2006 
Q 2606 2113 2719 2125 
Q 3072 2125 3395 2262 
Q 3719 2400 3917 2667 
Q 4116 2934 4116 3291 
Q 4116 3613 3833 3767 
Q 3550 3922 3203 3958 
Q 2856 3994 2450 3994 
L 2309 3994 
Q 2209 3041 1954 2070 
Q 1700 1100 1300 153 
Q 1238 41 1092 -43 
Q 947 -128 813 -141 
L 781 -141 
Q 769 -134 753 -121 
Q 738 -109 738 -91 
z
" transform="scale(0.015625)"/>
     </defs>
     <use xlink:href="#Cmsy10-52" transform="translate(0 0.6875)"/>
    </g>
   </g>
   <g id="text_16">
    <!-- $x=0$ -->
    <g transform="translate(50.441316 142.14865)scale(0.12 -0.12)">
     <defs>
      <path id="Cmr10-30" d="M 1600 -141 
Q 816 -141 533 504 
Q 250 1150 250 2041 
Q 250 2597 351 3087 
Q 453 3578 754 3920 
Q 1056 4263 1600 4263 
Q 2022 4263 2290 4056 
Q 2559 3850 2700 3523 
Q 2841 3197 2892 2823 
Q 2944 2450 2944 2041 
Q 2944 1491 2842 1011 
Q 2741 531 2444 195 
Q 2147 -141 1600 -141 
z
M 1600 25 
Q 1956 25 2131 390 
Q 2306 756 2347 1200 
Q 2388 1644 2388 2144 
Q 2388 2625 2347 3031 
Q 2306 3438 2132 3767 
Q 1959 4097 1600 4097 
Q 1238 4097 1063 3765 
Q 888 3434 847 3029 
Q 806 2625 806 2144 
Q 806 1788 823 1472 
Q 841 1156 916 820 
Q 991 484 1158 254 
Q 1325 25 1600 25 
z
" transform="scale(0.015625)"/>
     </defs>
     <use xlink:href="#Cmmi10-78" transform="translate(0 0.390625)"/>
     <use xlink:href="#Cmr10-3d" transform="translate(74.638672 0.390625)"/>
     <use xlink:href="#Cmr10-30" transform="translate(169.882812 0.390625)"/>
    </g>
   </g>
  </g>
 </g>
 <defs>
  <clipPath id="p02f9b2e764">
   <rect x="30.103125" y="7.2" width="290.664322" height="305.197538"/>
  </clipPath>
 </defs>
</svg>
