<?xml version="1.0" encoding="utf-8" standalone="no"?>
<!DOCTYPE svg PUBLIC "-//W3C//DTD SVG 1.1//EN"
  "http://www.w3.org/Graphics/SVG/1.1/DTD/svg11.dtd">
<svg xmlns:xlink="http://www.w3.org/1999/xlink" width="330.329311pt" height="336.275663pt" viewBox="0 0 330.329311 336.275663" xmlns="http://www.w3.org/2000/svg" version="1.1">
 <metadata>
  <rdf:RDF xmlns:dc="http://purl.org/dc/elements/1.1/" xmlns:cc="http://creativecommons.org/ns#" xmlns:rdf="http://www.w3.org/1999/02/22-rdf-syntax-ns#">
   <cc:Work>
    <dc:type rdf:resource="http://purl.org/dc/dcmitype/StillImage"/>
    <dc:date>2022-10-11T15:41:35.235909</dc:date>
    <dc:format>image/svg+xml</dc:format>
    <dc:creator>
     <cc:Agent>
      <dc:title>Matplotlib v3.5.1, https://matplotlib.org/</dc:title>
     </cc:Agent>
    </dc:creator>
   </cc:Work>
  </rdf:RDF>
 </metadata>
 <defs>
  <style type="text/css">*{stroke-linejoin: round; stroke-linecap: butt}</style>
 </defs>
 <g id="figure_1">
  <g id="patch_1">
   <path d="M 0 336.275663 
L 330.329311 336.275663 
L 330.329311 0 
L 0 0 
z
" style="fill: #ffffff"/>
  </g>
  <g id="axes_1">
   <g id="patch_2">
    <path d="M 30.103125 312.397538 
L 320.767447 312.397538 
L 320.767447 7.2 
L 30.103125 7.2 
z
" style="fill: #ffffff"/>
   </g>
   <g id="patch_3">
    <path d="M 315.177749 27.04343 
L 313.149125 29.072054 
L 312.026014 30.195164 
L 311.467601 30.753578 
L 309.368611 32.852567 
L 308.187407 34.033771 
L 306.766493 35.454685 
L 305.14933 37.071849 
L 304.143738 38.077441 
L 302.569462 39.651716 
L 300.700597 41.520581 
L 299.174988 43.046191 
L 298.063222 44.157956 
L 297.529648 44.69153 
L 295.242247 46.978931 
L 293.409684 48.811495 
L 293.169878 49.051301 
L 291.313583 50.907595 
L 290.056426 52.164752 
L 288.504364 53.716814 
L 286.843952 55.377227 
L 285.642419 56.578759 
L 284.269676 57.951503 
L 282.244231 59.976948 
L 281.142616 61.078562 
L 280.683329 61.53785 
L 278.06457 64.156608 
L 277.153902 65.067276 
L 275.179975 67.041204 
L 275.109736 67.111443 
L 273.650729 68.570449 
L 270.957358 71.263821 
L 270.661084 71.560094 
L 268.966873 73.254306 
L 267.986409 74.23477 
L 265.621833 76.599345 
L 265.102731 77.118448 
L 262.701825 79.519354 
L 261.683522 80.537657 
L 260.435303 81.785875 
L 259.2458 82.975379 
L 258.231793 83.989386 
L 255.585291 86.635887 
L 254.780391 87.440788 
L 253.424487 88.796691 
L 251.835547 90.385631 
L 250.575757 91.645422 
L 249.86496 92.356219 
L 247.54231 94.678869 
L 246.374961 95.846217 
L 245.506051 96.715127 
L 243.954769 98.266409 
L 241.485762 100.735416 
L 240.432321 101.788857 
L 239.364993 102.856185 
L 238.001336 104.219843 
L 236.326405 105.894773 
L 235.091258 107.129921 
L 233.425572 108.795606 
L 232.634303 109.586876 
L 231.15436 111.066819 
L 230.023723 112.197456 
L 227.980901 114.240277 
L 226.627056 115.594123 
L 224.832639 117.388539 
L 224.496466 117.724712 
L 223.054286 119.166893 
L 221.452765 120.768414 
L 220.250425 121.970753 
L 218.928384 123.292795 
L 216.586249 125.63493 
L 214.822504 127.398675 
L 213.637039 128.58414 
L 213.189955 129.031223 
L 211.720962 130.500216 
L 210.086709 132.134469 
L 208.859886 133.361293 
L 207.650406 134.570773 
L 205.39662 136.824559 
L 204.589328 137.63185 
L 203.140117 139.081062 
L 201.414918 140.80626 
L 199.564333 142.656846 
L 198.888526 143.332652 
L 197.295846 144.925333 
L 195.170357 147.050822 
L 193.776621 148.444558 
L 193.305303 148.915875 
L 191.49772 150.723458 
L 190.799889 151.421289 
L 188.138145 154.083033 
L 187.084219 155.13696 
L 185.314238 156.90694 
L 184.904638 157.31654 
L 183.637195 158.583984 
L 181.867805 160.353373 
L 180.914404 161.306775 
L 179.179977 163.041202 
L 177.50547 164.715709 
L 176.310357 165.910821 
L 174.62984 167.591338 
L 173.948345 168.272834 
L 171.892483 170.328696 
L 170.121334 172.099844 
L 169.808105 172.413074 
L 167.359449 174.86173 
L 165.842264 176.378915 
L 165.281061 176.940118 
L 163.646949 178.57423 
L 161.869258 180.351921 
L 160.520128 181.70105 
L 158.914724 183.306454 
L 158.308898 183.91228 
L 155.985625 186.235554 
L 155.098678 187.1225 
L 153.57835 188.642829 
L 152.82882 189.392359 
L 151.449054 190.772124 
L 148.941433 193.279745 
L 147.873013 194.348166 
L 146.716371 195.504808 
L 144.86423 197.356949 
L 143.165544 199.055634 
L 142.169449 200.051729 
L 141.252144 200.969035 
L 139.930567 202.290611 
L 138.49773 203.723449 
L 136.357829 205.863349 
L 135.075005 207.146173 
L 133.778369 208.442809 
L 132.32817 209.893008 
L 130.787962 211.433217 
L 129.42399 212.797189 
L 128.521936 213.699243 
L 127.202274 215.018904 
L 126.209298 216.011881 
L 124.151389 218.069789 
L 122.19586 220.025319 
L 121.342103 220.879075 
L 119.374239 222.84694 
L 118.425486 223.795693 
L 117.72493 224.496248 
L 115.405658 226.81552 
L 114.46342 227.757758 
L 112.643064 229.578114 
L 112.214497 230.006681 
L 110.165949 232.05523 
L 109.05844 233.162738 
L 107.832834 234.388345 
L 106.318239 235.902939 
L 104.388717 237.832462 
L 102.466273 239.754906 
L 102.160534 240.060644 
L 100.0091 242.212078 
L 98.791238 243.42994 
L 96.857219 245.363959 
L 95.937024 246.284155 
L 94.795741 247.425437 
L 92.803247 249.417931 
L 92.32562 249.895558 
L 90.863797 251.357382 
L 88.670786 253.550392 
L 86.957004 255.264175 
L 86.129146 256.092032 
L 85.159428 257.061751 
L 83.743469 258.477709 
L 82.349653 259.871525 
L 80.042378 262.1788 
L 79.627405 262.593773 
L 78.370144 263.851035 
L 76.013432 266.207747 
L 74.584274 267.636905 
L 73.102647 269.118532 
L 71.823086 270.398093 
L 70.488759 271.732419 
L 69.394465 272.826714 
L 67.62685 274.594329 
L 65.907442 276.313737 
L 65.104916 277.116263 
L 63.349911 278.871268 
L 62.725686 279.495492 
L 60.43451 281.786669 
L 59.809172 282.412007 
L 58.323232 283.897947 
L 57.398583 284.822596 
L 55.513426 286.707752 
L 53.481349 288.739829 
L 51.903176 290.318002 
L 51.667722 290.553456 
L 49.363846 292.857333 
L 47.873295 294.347883 
L 47.35322 294.867958 
L 45.6724 296.548779 
L 43.729103 298.492076 
L 43.041167 299.180012 
L 42.011167 300.210012 
L 40.279707 301.941472 
L 38.188399 304.032779 
L 36.437361 305.783817 
L 35.692824 306.528355 
L 35.692824 27.04343 
L 37.103562 27.04343 
L 38.441727 27.04343 
L 40.034623 27.04343 
L 41.380954 27.04343 
L 42.625318 27.04343 
L 44.425908 27.04343 
L 45.495265 27.04343 
L 46.858279 27.04343 
L 48.331287 27.04343 
L 49.127503 27.04343 
L 51.556823 27.04343 
L 52.101607 27.04343 
L 54.482198 27.04343 
L 56.005561 27.04343 
L 56.631868 27.04343 
L 58.121094 27.04343 
L 59.630846 27.04343 
L 60.628966 27.04343 
L 62.856029 27.04343 
L 63.866093 27.04343 
L 64.832424 27.04343 
L 66.126179 27.04343 
L 67.869054 27.04343 
L 68.744891 27.04343 
L 70.357009 27.04343 
L 71.869612 27.04343 
L 73.476375 27.04343 
L 75.213839 27.04343 
L 76.999832 27.04343 
L 77.589508 27.04343 
L 79.804181 27.04343 
L 81.071289 27.04343 
L 82.629929 27.04343 
L 83.555156 27.04343 
L 85.278663 27.04343 
L 86.634945 27.04343 
L 87.769947 27.04343 
L 89.30488 27.04343 
L 90.516382 27.04343 
L 92.26113 27.04343 
L 93.314771 27.04343 
L 95.3268 27.04343 
L 96.676996 27.04343 
L 97.045384 27.04343 
L 98.349094 27.04343 
L 100.433491 27.04343 
L 101.01854 27.04343 
L 103.466032 27.04343 
L 104.277009 27.04343 
L 105.750335 27.04343 
L 107.096818 27.04343 
L 109.268823 27.04343 
L 109.661586 27.04343 
L 111.288814 27.04343 
L 112.494324 27.04343 
L 113.791016 27.04343 
L 115.787629 27.04343 
L 117.459937 27.04343 
L 118.130243 27.04343 
L 120.297659 27.04343 
L 121.03407 27.04343 
L 122.635381 27.04343 
L 124.351303 27.04343 
L 124.917067 27.04343 
L 126.616299 27.04343 
L 128.542584 27.04343 
L 129.157953 27.04343 
L 131.056344 27.04343 
L 132.498881 27.04343 
L 133.57284 27.04343 
L 136.038499 27.04343 
L 136.68541 27.04343 
L 138.559264 27.04343 
L 140.322188 27.04343 
L 141.169068 27.04343 
L 142.961381 27.04343 
L 143.37983 27.04343 
L 144.761266 27.04343 
L 146.923953 27.04343 
L 148.156358 27.04343 
L 149.157066 27.04343 
L 151.368845 27.04343 
L 152.710231 27.04343 
L 153.822606 27.04343 
L 154.860882 27.04343 
L 156.655058 27.04343 
L 158.145297 27.04343 
L 158.595157 27.04343 
L 160.688227 27.04343 
L 162.777064 27.04343 
L 163.247435 27.04343 
L 164.578056 27.04343 
L 166.892517 27.04343 
L 167.682674 27.04343 
L 169.601786 27.04343 
L 170.101475 27.04343 
L 172.269977 27.04343 
L 173.127302 27.04343 
L 175.016519 27.04343 
L 175.93043 27.04343 
L 177.070813 27.04343 
L 179.453754 27.04343 
L 180.974736 27.04343 
L 182.274951 27.04343 
L 183.223939 27.04343 
L 184.965512 27.04343 
L 185.899929 27.04343 
L 186.954607 27.04343 
L 189.222474 27.04343 
L 190.536368 27.04343 
L 192.259022 27.04343 
L 193.066751 27.04343 
L 194.30862 27.04343 
L 195.919716 27.04343 
L 196.639756 27.04343 
L 197.945934 27.04343 
L 199.316713 27.04343 
L 202.054707 27.04343 
L 203.010354 27.04343 
L 204.139958 27.04343 
L 205.602179 27.04343 
L 206.587875 27.04343 
L 208.708333 27.04343 
L 210.294619 27.04343 
L 210.782839 27.04343 
L 212.865933 27.04343 
L 213.520354 27.04343 
L 215.199413 27.04343 
L 216.536794 27.04343 
L 217.777149 27.04343 
L 219.537243 27.04343 
L 220.895644 27.04343 
L 222.967011 27.04343 
L 223.360266 27.04343 
L 225.694163 27.04343 
L 226.108731 27.04343 
L 227.758749 27.04343 
L 229.09237 27.04343 
L 230.620964 27.04343 
L 232.372015 27.04343 
L 234.336875 27.04343 
L 234.9847 27.04343 
L 237.223561 27.04343 
L 238.040659 27.04343 
L 239.740239 27.04343 
L 240.717106 27.04343 
L 242.087542 27.04343 
L 243.607264 27.04343 
L 245.378457 27.04343 
L 246.400427 27.04343 
L 247.063356 27.04343 
L 249.735532 27.04343 
L 251.080184 27.04343 
L 251.732788 27.04343 
L 253.609362 27.04343 
L 254.261032 27.04343 
L 256.135344 27.04343 
L 258.231913 27.04343 
L 258.540107 27.04343 
L 260.924386 27.04343 
L 261.893254 27.04343 
L 262.525627 27.04343 
L 264.144617 27.04343 
L 265.591317 27.04343 
L 268.102225 27.04343 
L 268.408996 27.04343 
L 270.477855 27.04343 
L 271.596432 27.04343 
L 272.627557 27.04343 
L 273.778746 27.04343 
L 276.200314 27.04343 
L 276.748175 27.04343 
L 278.517135 27.04343 
L 280.739084 27.04343 
L 281.532898 27.04343 
L 282.516029 27.04343 
L 284.621179 27.04343 
L 286.053467 27.04343 
L 286.950348 27.04343 
L 288.784338 27.04343 
L 290.247977 27.04343 
L 291.93699 27.04343 
L 292.910373 27.04343 
L 294.679834 27.04343 
L 295.822139 27.04343 
L 297.22027 27.04343 
L 298.896247 27.04343 
L 299.24788 27.04343 
L 300.925318 27.04343 
L 302.181318 27.04343 
L 304.542437 27.04343 
L 304.666806 27.04343 
L 306.816857 27.04343 
L 308.435028 27.04343 
L 310.225188 27.04343 
L 310.401589 27.04343 
L 311.781964 27.04343 
L 313.426648 27.04343 
z
" clip-path="url(#p22bb2f9372)" style="fill: #008000; opacity: 0.5"/>
   </g>
   <g id="matplotlib.axis_1">
    <g id="xtick_1">
     <g id="line2d_1">
      <defs>
       <path id="m0d8914286e" d="M 0 0 
L 0 3.5 
" style="stroke: #000000; stroke-width: 0.8"/>
      </defs>
      <g>
       <use xlink:href="#m0d8914286e" x="35.692824" y="312.397538" style="stroke: #000000; stroke-width: 0.8"/>
      </g>
     </g>
     <g id="text_1">
      <!-- 0.0 -->
      <g transform="translate(27.741261 326.995976)scale(0.1 -0.1)">
       <defs>
        <path id="DejaVuSans-30" d="M 2034 4250 
Q 1547 4250 1301 3770 
Q 1056 3291 1056 2328 
Q 1056 1369 1301 889 
Q 1547 409 2034 409 
Q 2525 409 2770 889 
Q 3016 1369 3016 2328 
Q 3016 3291 2770 3770 
Q 2525 4250 2034 4250 
z
M 2034 4750 
Q 2819 4750 3233 4129 
Q 3647 3509 3647 2328 
Q 3647 1150 3233 529 
Q 2819 -91 2034 -91 
Q 1250 -91 836 529 
Q 422 1150 422 2328 
Q 422 3509 836 4129 
Q 1250 4750 2034 4750 
z
" transform="scale(0.015625)"/>
        <path id="DejaVuSans-2e" d="M 684 794 
L 1344 794 
L 1344 0 
L 684 0 
L 684 794 
z
" transform="scale(0.015625)"/>
       </defs>
       <use xlink:href="#DejaVuSans-30"/>
       <use xlink:href="#DejaVuSans-2e" x="63.623047"/>
       <use xlink:href="#DejaVuSans-30" x="95.410156"/>
      </g>
     </g>
    </g>
    <g id="xtick_2">
     <g id="line2d_2">
      <g>
       <use xlink:href="#m0d8914286e" x="91.589809" y="312.397538" style="stroke: #000000; stroke-width: 0.8"/>
      </g>
     </g>
     <g id="text_2">
      <!-- 0.2 -->
      <g transform="translate(83.638246 326.995976)scale(0.1 -0.1)">
       <defs>
        <path id="DejaVuSans-32" d="M 1228 531 
L 3431 531 
L 3431 0 
L 469 0 
L 469 531 
Q 828 903 1448 1529 
Q 2069 2156 2228 2338 
Q 2531 2678 2651 2914 
Q 2772 3150 2772 3378 
Q 2772 3750 2511 3984 
Q 2250 4219 1831 4219 
Q 1534 4219 1204 4116 
Q 875 4013 500 3803 
L 500 4441 
Q 881 4594 1212 4672 
Q 1544 4750 1819 4750 
Q 2544 4750 2975 4387 
Q 3406 4025 3406 3419 
Q 3406 3131 3298 2873 
Q 3191 2616 2906 2266 
Q 2828 2175 2409 1742 
Q 1991 1309 1228 531 
z
" transform="scale(0.015625)"/>
       </defs>
       <use xlink:href="#DejaVuSans-30"/>
       <use xlink:href="#DejaVuSans-2e" x="63.623047"/>
       <use xlink:href="#DejaVuSans-32" x="95.410156"/>
      </g>
     </g>
    </g>
    <g id="xtick_3">
     <g id="line2d_3">
      <g>
       <use xlink:href="#m0d8914286e" x="147.486794" y="312.397538" style="stroke: #000000; stroke-width: 0.8"/>
      </g>
     </g>
     <g id="text_3">
      <!-- 0.4 -->
      <g transform="translate(139.535231 326.995976)scale(0.1 -0.1)">
       <defs>
        <path id="DejaVuSans-34" d="M 2419 4116 
L 825 1625 
L 2419 1625 
L 2419 4116 
z
M 2253 4666 
L 3047 4666 
L 3047 1625 
L 3713 1625 
L 3713 1100 
L 3047 1100 
L 3047 0 
L 2419 0 
L 2419 1100 
L 313 1100 
L 313 1709 
L 2253 4666 
z
" transform="scale(0.015625)"/>
       </defs>
       <use xlink:href="#DejaVuSans-30"/>
       <use xlink:href="#DejaVuSans-2e" x="63.623047"/>
       <use xlink:href="#DejaVuSans-34" x="95.410156"/>
      </g>
     </g>
    </g>
    <g id="xtick_4">
     <g id="line2d_4">
      <g>
       <use xlink:href="#m0d8914286e" x="203.383779" y="312.397538" style="stroke: #000000; stroke-width: 0.8"/>
      </g>
     </g>
     <g id="text_4">
      <!-- 0.6 -->
      <g transform="translate(195.432216 326.995976)scale(0.1 -0.1)">
       <defs>
        <path id="DejaVuSans-36" d="M 2113 2584 
Q 1688 2584 1439 2293 
Q 1191 2003 1191 1497 
Q 1191 994 1439 701 
Q 1688 409 2113 409 
Q 2538 409 2786 701 
Q 3034 994 3034 1497 
Q 3034 2003 2786 2293 
Q 2538 2584 2113 2584 
z
M 3366 4563 
L 3366 3988 
Q 3128 4100 2886 4159 
Q 2644 4219 2406 4219 
Q 1781 4219 1451 3797 
Q 1122 3375 1075 2522 
Q 1259 2794 1537 2939 
Q 1816 3084 2150 3084 
Q 2853 3084 3261 2657 
Q 3669 2231 3669 1497 
Q 3669 778 3244 343 
Q 2819 -91 2113 -91 
Q 1303 -91 875 529 
Q 447 1150 447 2328 
Q 447 3434 972 4092 
Q 1497 4750 2381 4750 
Q 2619 4750 2861 4703 
Q 3103 4656 3366 4563 
z
" transform="scale(0.015625)"/>
       </defs>
       <use xlink:href="#DejaVuSans-30"/>
       <use xlink:href="#DejaVuSans-2e" x="63.623047"/>
       <use xlink:href="#DejaVuSans-36" x="95.410156"/>
      </g>
     </g>
    </g>
    <g id="xtick_5">
     <g id="line2d_5">
      <g>
       <use xlink:href="#m0d8914286e" x="259.280764" y="312.397538" style="stroke: #000000; stroke-width: 0.8"/>
      </g>
     </g>
     <g id="text_5">
      <!-- 0.8 -->
      <g transform="translate(251.329201 326.995976)scale(0.1 -0.1)">
       <defs>
        <path id="DejaVuSans-38" d="M 2034 2216 
Q 1584 2216 1326 1975 
Q 1069 1734 1069 1313 
Q 1069 891 1326 650 
Q 1584 409 2034 409 
Q 2484 409 2743 651 
Q 3003 894 3003 1313 
Q 3003 1734 2745 1975 
Q 2488 2216 2034 2216 
z
M 1403 2484 
Q 997 2584 770 2862 
Q 544 3141 544 3541 
Q 544 4100 942 4425 
Q 1341 4750 2034 4750 
Q 2731 4750 3128 4425 
Q 3525 4100 3525 3541 
Q 3525 3141 3298 2862 
Q 3072 2584 2669 2484 
Q 3125 2378 3379 2068 
Q 3634 1759 3634 1313 
Q 3634 634 3220 271 
Q 2806 -91 2034 -91 
Q 1263 -91 848 271 
Q 434 634 434 1313 
Q 434 1759 690 2068 
Q 947 2378 1403 2484 
z
M 1172 3481 
Q 1172 3119 1398 2916 
Q 1625 2713 2034 2713 
Q 2441 2713 2670 2916 
Q 2900 3119 2900 3481 
Q 2900 3844 2670 4047 
Q 2441 4250 2034 4250 
Q 1625 4250 1398 4047 
Q 1172 3844 1172 3481 
z
" transform="scale(0.015625)"/>
       </defs>
       <use xlink:href="#DejaVuSans-30"/>
       <use xlink:href="#DejaVuSans-2e" x="63.623047"/>
       <use xlink:href="#DejaVuSans-38" x="95.410156"/>
      </g>
     </g>
    </g>
    <g id="xtick_6">
     <g id="line2d_6">
      <g>
       <use xlink:href="#m0d8914286e" x="315.177749" y="312.397538" style="stroke: #000000; stroke-width: 0.8"/>
      </g>
     </g>
     <g id="text_6">
      <!-- 1.0 -->
      <g transform="translate(307.226186 326.995976)scale(0.1 -0.1)">
       <defs>
        <path id="DejaVuSans-31" d="M 794 531 
L 1825 531 
L 1825 4091 
L 703 3866 
L 703 4441 
L 1819 4666 
L 2450 4666 
L 2450 531 
L 3481 531 
L 3481 0 
L 794 0 
L 794 531 
z
" transform="scale(0.015625)"/>
       </defs>
       <use xlink:href="#DejaVuSans-31"/>
       <use xlink:href="#DejaVuSans-2e" x="63.623047"/>
       <use xlink:href="#DejaVuSans-30" x="95.410156"/>
      </g>
     </g>
    </g>
    <g id="xtick_7">
     <g id="line2d_7">
      <defs>
       <path id="me157b5f66b" d="M 0 0 
L 0 2 
" style="stroke: #000000; stroke-width: 0.6"/>
      </defs>
      <g>
       <use xlink:href="#me157b5f66b" x="49.66707" y="312.397538" style="stroke: #000000; stroke-width: 0.6"/>
      </g>
     </g>
    </g>
    <g id="xtick_8">
     <g id="line2d_8">
      <g>
       <use xlink:href="#me157b5f66b" x="63.641316" y="312.397538" style="stroke: #000000; stroke-width: 0.6"/>
      </g>
     </g>
    </g>
    <g id="xtick_9">
     <g id="line2d_9">
      <g>
       <use xlink:href="#me157b5f66b" x="77.615562" y="312.397538" style="stroke: #000000; stroke-width: 0.6"/>
      </g>
     </g>
    </g>
    <g id="xtick_10">
     <g id="line2d_10">
      <g>
       <use xlink:href="#me157b5f66b" x="105.564055" y="312.397538" style="stroke: #000000; stroke-width: 0.6"/>
      </g>
     </g>
    </g>
    <g id="xtick_11">
     <g id="line2d_11">
      <g>
       <use xlink:href="#me157b5f66b" x="119.538301" y="312.397538" style="stroke: #000000; stroke-width: 0.6"/>
      </g>
     </g>
    </g>
    <g id="xtick_12">
     <g id="line2d_12">
      <g>
       <use xlink:href="#me157b5f66b" x="133.512547" y="312.397538" style="stroke: #000000; stroke-width: 0.6"/>
      </g>
     </g>
    </g>
    <g id="xtick_13">
     <g id="line2d_13">
      <g>
       <use xlink:href="#me157b5f66b" x="161.46104" y="312.397538" style="stroke: #000000; stroke-width: 0.6"/>
      </g>
     </g>
    </g>
    <g id="xtick_14">
     <g id="line2d_14">
      <g>
       <use xlink:href="#me157b5f66b" x="175.435286" y="312.397538" style="stroke: #000000; stroke-width: 0.6"/>
      </g>
     </g>
    </g>
    <g id="xtick_15">
     <g id="line2d_15">
      <g>
       <use xlink:href="#me157b5f66b" x="189.409532" y="312.397538" style="stroke: #000000; stroke-width: 0.6"/>
      </g>
     </g>
    </g>
    <g id="xtick_16">
     <g id="line2d_16">
      <g>
       <use xlink:href="#me157b5f66b" x="217.358025" y="312.397538" style="stroke: #000000; stroke-width: 0.6"/>
      </g>
     </g>
    </g>
    <g id="xtick_17">
     <g id="line2d_17">
      <g>
       <use xlink:href="#me157b5f66b" x="231.332271" y="312.397538" style="stroke: #000000; stroke-width: 0.6"/>
      </g>
     </g>
    </g>
    <g id="xtick_18">
     <g id="line2d_18">
      <g>
       <use xlink:href="#me157b5f66b" x="245.306518" y="312.397538" style="stroke: #000000; stroke-width: 0.6"/>
      </g>
     </g>
    </g>
    <g id="xtick_19">
     <g id="line2d_19">
      <g>
       <use xlink:href="#me157b5f66b" x="273.25501" y="312.397538" style="stroke: #000000; stroke-width: 0.6"/>
      </g>
     </g>
    </g>
    <g id="xtick_20">
     <g id="line2d_20">
      <g>
       <use xlink:href="#me157b5f66b" x="287.229256" y="312.397538" style="stroke: #000000; stroke-width: 0.6"/>
      </g>
     </g>
    </g>
    <g id="xtick_21">
     <g id="line2d_21">
      <g>
       <use xlink:href="#me157b5f66b" x="301.203503" y="312.397538" style="stroke: #000000; stroke-width: 0.6"/>
      </g>
     </g>
    </g>
   </g>
   <g id="matplotlib.axis_2">
    <g id="ytick_1">
     <g id="line2d_22">
      <defs>
       <path id="mbe80a9bcab" d="M 0 0 
L -3.5 0 
" style="stroke: #000000; stroke-width: 0.8"/>
      </defs>
      <g>
       <use xlink:href="#mbe80a9bcab" x="30.103125" y="306.528355" style="stroke: #000000; stroke-width: 0.8"/>
      </g>
     </g>
     <g id="text_7">
      <!-- 0.0 -->
      <g transform="translate(7.2 310.327574)scale(0.1 -0.1)">
       <use xlink:href="#DejaVuSans-30"/>
       <use xlink:href="#DejaVuSans-2e" x="63.623047"/>
       <use xlink:href="#DejaVuSans-30" x="95.410156"/>
      </g>
     </g>
    </g>
    <g id="ytick_2">
     <g id="line2d_23">
      <g>
       <use xlink:href="#mbe80a9bcab" x="30.103125" y="250.63137" style="stroke: #000000; stroke-width: 0.8"/>
      </g>
     </g>
     <g id="text_8">
      <!-- 0.2 -->
      <g transform="translate(7.2 254.430589)scale(0.1 -0.1)">
       <use xlink:href="#DejaVuSans-30"/>
       <use xlink:href="#DejaVuSans-2e" x="63.623047"/>
       <use xlink:href="#DejaVuSans-32" x="95.410156"/>
      </g>
     </g>
    </g>
    <g id="ytick_3">
     <g id="line2d_24">
      <g>
       <use xlink:href="#mbe80a9bcab" x="30.103125" y="194.734385" style="stroke: #000000; stroke-width: 0.8"/>
      </g>
     </g>
     <g id="text_9">
      <!-- 0.4 -->
      <g transform="translate(7.2 198.533604)scale(0.1 -0.1)">
       <use xlink:href="#DejaVuSans-30"/>
       <use xlink:href="#DejaVuSans-2e" x="63.623047"/>
       <use xlink:href="#DejaVuSans-34" x="95.410156"/>
      </g>
     </g>
    </g>
    <g id="ytick_4">
     <g id="line2d_25">
      <g>
       <use xlink:href="#mbe80a9bcab" x="30.103125" y="138.8374" style="stroke: #000000; stroke-width: 0.8"/>
      </g>
     </g>
     <g id="text_10">
      <!-- 0.6 -->
      <g transform="translate(7.2 142.636619)scale(0.1 -0.1)">
       <use xlink:href="#DejaVuSans-30"/>
       <use xlink:href="#DejaVuSans-2e" x="63.623047"/>
       <use xlink:href="#DejaVuSans-36" x="95.410156"/>
      </g>
     </g>
    </g>
    <g id="ytick_5">
     <g id="line2d_26">
      <g>
       <use xlink:href="#mbe80a9bcab" x="30.103125" y="82.940415" style="stroke: #000000; stroke-width: 0.8"/>
      </g>
     </g>
     <g id="text_11">
      <!-- 0.8 -->
      <g transform="translate(7.2 86.739634)scale(0.1 -0.1)">
       <use xlink:href="#DejaVuSans-30"/>
       <use xlink:href="#DejaVuSans-2e" x="63.623047"/>
       <use xlink:href="#DejaVuSans-38" x="95.410156"/>
      </g>
     </g>
    </g>
    <g id="ytick_6">
     <g id="line2d_27">
      <g>
       <use xlink:href="#mbe80a9bcab" x="30.103125" y="27.04343" style="stroke: #000000; stroke-width: 0.8"/>
      </g>
     </g>
     <g id="text_12">
      <!-- 1.0 -->
      <g transform="translate(7.2 30.842648)scale(0.1 -0.1)">
       <use xlink:href="#DejaVuSans-31"/>
       <use xlink:href="#DejaVuSans-2e" x="63.623047"/>
       <use xlink:href="#DejaVuSans-30" x="95.410156"/>
      </g>
     </g>
    </g>
    <g id="ytick_7">
     <g id="line2d_28">
      <defs>
       <path id="mf169f26eda" d="M 0 0 
L -2 0 
" style="stroke: #000000; stroke-width: 0.6"/>
      </defs>
      <g>
       <use xlink:href="#mf169f26eda" x="30.103125" y="292.554109" style="stroke: #000000; stroke-width: 0.6"/>
      </g>
     </g>
    </g>
    <g id="ytick_8">
     <g id="line2d_29">
      <g>
       <use xlink:href="#mf169f26eda" x="30.103125" y="278.579862" style="stroke: #000000; stroke-width: 0.6"/>
      </g>
     </g>
    </g>
    <g id="ytick_9">
     <g id="line2d_30">
      <g>
       <use xlink:href="#mf169f26eda" x="30.103125" y="264.605616" style="stroke: #000000; stroke-width: 0.6"/>
      </g>
     </g>
    </g>
    <g id="ytick_10">
     <g id="line2d_31">
      <g>
       <use xlink:href="#mf169f26eda" x="30.103125" y="236.657124" style="stroke: #000000; stroke-width: 0.6"/>
      </g>
     </g>
    </g>
    <g id="ytick_11">
     <g id="line2d_32">
      <g>
       <use xlink:href="#mf169f26eda" x="30.103125" y="222.682877" style="stroke: #000000; stroke-width: 0.6"/>
      </g>
     </g>
    </g>
    <g id="ytick_12">
     <g id="line2d_33">
      <g>
       <use xlink:href="#mf169f26eda" x="30.103125" y="208.708631" style="stroke: #000000; stroke-width: 0.6"/>
      </g>
     </g>
    </g>
    <g id="ytick_13">
     <g id="line2d_34">
      <g>
       <use xlink:href="#mf169f26eda" x="30.103125" y="180.760139" style="stroke: #000000; stroke-width: 0.6"/>
      </g>
     </g>
    </g>
    <g id="ytick_14">
     <g id="line2d_35">
      <g>
       <use xlink:href="#mf169f26eda" x="30.103125" y="166.785892" style="stroke: #000000; stroke-width: 0.6"/>
      </g>
     </g>
    </g>
    <g id="ytick_15">
     <g id="line2d_36">
      <g>
       <use xlink:href="#mf169f26eda" x="30.103125" y="152.811646" style="stroke: #000000; stroke-width: 0.6"/>
      </g>
     </g>
    </g>
    <g id="ytick_16">
     <g id="line2d_37">
      <g>
       <use xlink:href="#mf169f26eda" x="30.103125" y="124.863154" style="stroke: #000000; stroke-width: 0.6"/>
      </g>
     </g>
    </g>
    <g id="ytick_17">
     <g id="line2d_38">
      <g>
       <use xlink:href="#mf169f26eda" x="30.103125" y="110.888907" style="stroke: #000000; stroke-width: 0.6"/>
      </g>
     </g>
    </g>
    <g id="ytick_18">
     <g id="line2d_39">
      <g>
       <use xlink:href="#mf169f26eda" x="30.103125" y="96.914661" style="stroke: #000000; stroke-width: 0.6"/>
      </g>
     </g>
    </g>
    <g id="ytick_19">
     <g id="line2d_40">
      <g>
       <use xlink:href="#mf169f26eda" x="30.103125" y="68.966168" style="stroke: #000000; stroke-width: 0.6"/>
      </g>
     </g>
    </g>
    <g id="ytick_20">
     <g id="line2d_41">
      <g>
       <use xlink:href="#mf169f26eda" x="30.103125" y="54.991922" style="stroke: #000000; stroke-width: 0.6"/>
      </g>
     </g>
    </g>
    <g id="ytick_21">
     <g id="line2d_42">
      <g>
       <use xlink:href="#mf169f26eda" x="30.103125" y="41.017676" style="stroke: #000000; stroke-width: 0.6"/>
      </g>
     </g>
    </g>
    <g id="ytick_22">
     <g id="line2d_43">
      <g>
       <use xlink:href="#mf169f26eda" x="30.103125" y="13.069183" style="stroke: #000000; stroke-width: 0.6"/>
      </g>
     </g>
    </g>
   </g>
   <g id="line2d_44">
    <path d="M 35.692824 27.04343 
L 315.177749 27.04343 
L 315.177749 27.04343 
" clip-path="url(#p22bb2f9372)" style="fill: none; stroke: #0000ff; stroke-linecap: square"/>
   </g>
   <g id="line2d_45">
    <path d="M 35.692824 306.528355 
L 315.177749 27.04343 
L 315.177749 27.04343 
" clip-path="url(#p22bb2f9372)" style="fill: none; stroke: #ff0000; stroke-linecap: square"/>
   </g>
   <g id="PathCollection_1">
    <path d="M 36.161758 27.04343 
L 36.161758 306.528355 
L 36.161758 306.528355 
" clip-path="url(#p22bb2f9372)" style="fill: none; stroke: #ffa500; stroke-width: 1.5"/>
   </g>
   <g id="patch_4">
    <path d="M 30.103125 312.397538 
L 30.103125 7.2 
" style="fill: none; stroke: #000000; stroke-width: 0.8; stroke-linejoin: miter; stroke-linecap: square"/>
   </g>
   <g id="patch_5">
    <path d="M 320.767447 312.397538 
L 320.767447 7.2 
" style="fill: none; stroke: #000000; stroke-width: 0.8; stroke-linejoin: miter; stroke-linecap: square"/>
   </g>
   <g id="patch_6">
    <path d="M 30.103125 312.397538 
L 320.767447 312.397538 
" style="fill: none; stroke: #000000; stroke-width: 0.8; stroke-linejoin: miter; stroke-linecap: square"/>
   </g>
   <g id="patch_7">
    <path d="M 30.103125 7.2 
L 320.767447 7.2 
" style="fill: none; stroke: #000000; stroke-width: 0.8; stroke-linejoin: miter; stroke-linecap: square"/>
   </g>
   <g id="text_13">
    <!-- $y=1$ -->
    <g transform="translate(162.715286 16.356058)scale(0.12 -0.12)">
     <defs>
      <path id="Cmmi10-79" d="M 538 -916 
Q 672 -1147 1006 -1147 
Q 1309 -1147 1531 -934 
Q 1753 -722 1889 -420 
Q 2025 -119 2100 197 
Q 1816 -72 1484 -72 
Q 1231 -72 1053 15 
Q 875 103 776 276 
Q 678 450 678 697 
Q 678 906 734 1126 
Q 791 1347 892 1617 
Q 994 1888 1069 2088 
Q 1153 2322 1153 2472 
Q 1153 2663 1013 2663 
Q 759 2663 595 2402 
Q 431 2141 353 1819 
Q 341 1778 300 1778 
L 225 1778 
Q 172 1778 172 1838 
L 172 1856 
Q 275 2238 487 2533 
Q 700 2828 1025 2828 
Q 1253 2828 1411 2678 
Q 1569 2528 1569 2297 
Q 1569 2178 1516 2047 
Q 1488 1969 1388 1706 
Q 1288 1444 1234 1272 
Q 1181 1100 1147 934 
Q 1113 769 1113 603 
Q 1113 391 1203 244 
Q 1294 97 1491 97 
Q 1888 97 2203 581 
L 2688 2553 
Q 2709 2638 2787 2698 
Q 2866 2759 2956 2759 
Q 3034 2759 3092 2709 
Q 3150 2659 3150 2578 
Q 3150 2541 3144 2528 
L 2509 -19 
Q 2425 -347 2200 -647 
Q 1975 -947 1658 -1130 
Q 1341 -1313 997 -1313 
Q 831 -1313 668 -1248 
Q 506 -1184 406 -1056 
Q 306 -928 306 -756 
Q 306 -581 409 -453 
Q 513 -325 684 -325 
Q 788 -325 858 -389 
Q 928 -453 928 -556 
Q 928 -703 818 -812 
Q 709 -922 563 -922 
Q 556 -919 550 -917 
Q 544 -916 538 -916 
z
" transform="scale(0.015625)"/>
      <path id="Cmr10-3d" d="M 481 850 
Q 428 850 393 890 
Q 359 931 359 978 
Q 359 1031 393 1068 
Q 428 1106 481 1106 
L 4500 1106 
Q 4547 1106 4581 1068 
Q 4616 1031 4616 978 
Q 4616 931 4581 890 
Q 4547 850 4500 850 
L 481 850 
z
M 481 2094 
Q 428 2094 393 2131 
Q 359 2169 359 2222 
Q 359 2269 393 2309 
Q 428 2350 481 2350 
L 4500 2350 
Q 4547 2350 4581 2309 
Q 4616 2269 4616 2222 
Q 4616 2169 4581 2131 
Q 4547 2094 4500 2094 
L 481 2094 
z
" transform="scale(0.015625)"/>
      <path id="Cmr10-31" d="M 594 0 
L 594 225 
Q 1394 225 1394 428 
L 1394 3788 
Q 1063 3628 556 3628 
L 556 3853 
Q 1341 3853 1741 4263 
L 1831 4263 
Q 1853 4263 1873 4245 
Q 1894 4228 1894 4206 
L 1894 428 
Q 1894 225 2694 225 
L 2694 0 
L 594 0 
z
" transform="scale(0.015625)"/>
     </defs>
     <use xlink:href="#Cmmi10-79" transform="translate(0 0.390625)"/>
     <use xlink:href="#Cmr10-3d" transform="translate(66.582031 0.390625)"/>
     <use xlink:href="#Cmr10-31" transform="translate(161.826172 0.390625)"/>
    </g>
   </g>
   <g id="text_14">
    <!-- $y=x$ -->
    <g transform="translate(162.295286 142.124275)scale(0.12 -0.12)">
     <defs>
      <path id="Cmmi10-78" d="M 500 184 
Q 613 97 819 97 
Q 1019 97 1172 289 
Q 1325 481 1381 709 
L 1672 1844 
Q 1741 2153 1741 2266 
Q 1741 2425 1652 2544 
Q 1563 2663 1403 2663 
Q 1200 2663 1022 2536 
Q 844 2409 722 2214 
Q 600 2019 550 1819 
Q 538 1778 500 1778 
L 422 1778 
Q 372 1778 372 1838 
L 372 1856 
Q 434 2094 584 2320 
Q 734 2547 951 2687 
Q 1169 2828 1416 2828 
Q 1650 2828 1839 2703 
Q 2028 2578 2106 2363 
Q 2216 2559 2386 2693 
Q 2556 2828 2759 2828 
Q 2897 2828 3040 2779 
Q 3184 2731 3275 2631 
Q 3366 2531 3366 2381 
Q 3366 2219 3261 2101 
Q 3156 1984 2994 1984 
Q 2891 1984 2822 2050 
Q 2753 2116 2753 2216 
Q 2753 2350 2845 2451 
Q 2938 2553 3066 2572 
Q 2950 2663 2747 2663 
Q 2541 2663 2389 2472 
Q 2238 2281 2175 2047 
L 1894 916 
Q 1825 659 1825 494 
Q 1825 331 1917 214 
Q 2009 97 2163 97 
Q 2463 97 2698 361 
Q 2934 625 3009 941 
Q 3022 978 3059 978 
L 3138 978 
Q 3163 978 3178 961 
Q 3194 944 3194 922 
Q 3194 916 3188 903 
Q 3097 522 2806 225 
Q 2516 -72 2150 -72 
Q 1916 -72 1727 54 
Q 1538 181 1459 397 
Q 1359 209 1182 68 
Q 1006 -72 806 -72 
Q 669 -72 523 -23 
Q 378 25 287 125 
Q 197 225 197 378 
Q 197 528 301 651 
Q 406 775 563 775 
Q 669 775 741 711 
Q 813 647 813 544 
Q 813 409 723 309 
Q 634 209 500 184 
z
" transform="scale(0.015625)"/>
     </defs>
     <use xlink:href="#Cmmi10-79" transform="translate(0 0.8125)"/>
     <use xlink:href="#Cmr10-3d" transform="translate(66.582031 0.8125)"/>
     <use xlink:href="#Cmmi10-78" transform="translate(161.826172 0.8125)"/>
    </g>
   </g>
   <g id="text_15">
    <!-- $\mathcal{R}$ -->
    <g transform="translate(86.489809 86.251665)scale(0.12 -0.12)">
     <defs>
      <path id="Cmsy10-52" d="M 738 -91 
Q 738 -78 744 -56 
Q 966 475 1128 959 
Q 1291 1444 1428 1991 
Q 1678 2959 1766 3994 
Q 1425 3994 1094 3872 
Q 922 3803 833 3695 
Q 744 3588 684 3397 
Q 622 3291 472 3197 
Q 322 3103 206 3103 
L 166 3103 
Q 122 3131 122 3169 
Q 234 3556 581 3828 
Q 928 4100 1387 4236 
Q 1847 4372 2259 4372 
L 2931 4372 
Q 3378 4372 3739 4331 
Q 4100 4291 4392 4112 
Q 4684 3934 4684 3572 
Q 4684 3281 4548 3014 
Q 4413 2747 4189 2533 
Q 3966 2319 3697 2158 
Q 3428 1997 3156 1900 
Q 3253 1784 3383 1501 
Q 3513 1219 3659 911 
Q 3806 603 3951 420 
Q 4097 238 4256 238 
Q 4444 238 4551 308 
Q 4659 378 4775 520 
Q 4891 663 4997 745 
Q 5103 828 5281 844 
L 5319 844 
Q 5363 822 5363 794 
Q 5363 784 5356 768 
Q 5350 753 5344 738 
Q 5188 503 4936 297 
Q 4684 91 4393 -25 
Q 4103 -141 3828 -141 
L 3788 -141 
Q 3541 -141 3372 98 
Q 3203 338 3003 811 
Q 2803 1284 2651 1515 
Q 2500 1747 2278 1747 
Q 2266 1753 2250 1765 
Q 2234 1778 2234 1797 
Q 2234 1900 2420 2006 
Q 2606 2113 2719 2125 
Q 3072 2125 3395 2262 
Q 3719 2400 3917 2667 
Q 4116 2934 4116 3291 
Q 4116 3613 3833 3767 
Q 3550 3922 3203 3958 
Q 2856 3994 2450 3994 
L 2309 3994 
Q 2209 3041 1954 2070 
Q 1700 1100 1300 153 
Q 1238 41 1092 -43 
Q 947 -128 813 -141 
L 781 -141 
Q 769 -134 753 -121 
Q 738 -109 738 -91 
z
" transform="scale(0.015625)"/>
     </defs>
     <use xlink:href="#Cmsy10-52" transform="translate(0 0.6875)"/>
    </g>
   </g>
   <g id="text_16">
    <!-- $x=0$ -->
    <g transform="translate(50.441316 142.14865)scale(0.12 -0.12)">
     <defs>
      <path id="Cmr10-30" d="M 1600 -141 
Q 816 -141 533 504 
Q 250 1150 250 2041 
Q 250 2597 351 3087 
Q 453 3578 754 3920 
Q 1056 4263 1600 4263 
Q 2022 4263 2290 4056 
Q 2559 3850 2700 3523 
Q 2841 3197 2892 2823 
Q 2944 2450 2944 2041 
Q 2944 1491 2842 1011 
Q 2741 531 2444 195 
Q 2147 -141 1600 -141 
z
M 1600 25 
Q 1956 25 2131 390 
Q 2306 756 2347 1200 
Q 2388 1644 2388 2144 
Q 2388 2625 2347 3031 
Q 2306 3438 2132 3767 
Q 1959 4097 1600 4097 
Q 1238 4097 1063 3765 
Q 888 3434 847 3029 
Q 806 2625 806 2144 
Q 806 1788 823 1472 
Q 841 1156 916 820 
Q 991 484 1158 254 
Q 1325 25 1600 25 
z
" transform="scale(0.015625)"/>
     </defs>
     <use xlink:href="#Cmmi10-78" transform="translate(0 0.390625)"/>
     <use xlink:href="#Cmr10-3d" transform="translate(74.638672 0.390625)"/>
     <use xlink:href="#Cmr10-30" transform="translate(169.882812 0.390625)"/>
    </g>
   </g>
  </g>
 </g>
 <defs>
  <clipPath id="p22bb2f9372">
   <rect x="30.103125" y="7.2" width="290.664322" height="305.197538"/>
  </clipPath>
 </defs>
</svg>
