<?xml version="1.0" encoding="utf-8" standalone="no"?>
<!DOCTYPE svg PUBLIC "-//W3C//DTD SVG 1.1//EN"
  "http://www.w3.org/Graphics/SVG/1.1/DTD/svg11.dtd">
<svg xmlns:xlink="http://www.w3.org/1999/xlink" width="330.329311pt" height="336.275663pt" viewBox="0 0 330.329311 336.275663" xmlns="http://www.w3.org/2000/svg" version="1.1">
 <metadata>
  <rdf:RDF xmlns:dc="http://purl.org/dc/elements/1.1/" xmlns:cc="http://creativecommons.org/ns#" xmlns:rdf="http://www.w3.org/1999/02/22-rdf-syntax-ns#">
   <cc:Work>
    <dc:type rdf:resource="http://purl.org/dc/dcmitype/StillImage"/>
    <dc:date>2022-10-20T20:46:02.164521</dc:date>
    <dc:format>image/svg+xml</dc:format>
    <dc:creator>
     <cc:Agent>
      <dc:title>Matplotlib v3.5.1, https://matplotlib.org/</dc:title>
     </cc:Agent>
    </dc:creator>
   </cc:Work>
  </rdf:RDF>
 </metadata>
 <defs>
  <style type="text/css">*{stroke-linejoin: round; stroke-linecap: butt}</style>
 </defs>
 <g id="figure_1">
  <g id="patch_1">
   <path d="M 0 336.275663 
L 330.329311 336.275663 
L 330.329311 0 
L 0 0 
z
" style="fill: #ffffff"/>
  </g>
  <g id="axes_1">
   <g id="patch_2">
    <path d="M 30.103125 312.397538 
L 320.767447 312.397538 
L 320.767447 7.2 
L 30.103125 7.2 
z
" style="fill: #ffffff"/>
   </g>
   <g id="patch_3">
    <path d="M 315.177749 27.04343 
L 314.473439 27.74774 
L 312.754432 29.466746 
L 311.407868 30.81331 
L 309.636408 32.584771 
L 307.870001 34.351177 
L 306.760246 35.460932 
L 305.318599 36.902579 
L 303.730392 38.490786 
L 302.976115 39.245063 
L 301.609267 40.611911 
L 299.776165 42.445014 
L 298.711368 43.50981 
L 296.238842 45.982336 
L 295.464012 46.757167 
L 293.62082 48.600358 
L 292.848648 49.37253 
L 290.963154 51.258024 
L 289.840971 52.380207 
L 288.904958 53.31622 
L 286.69205 55.529128 
L 285.314386 56.906792 
L 284.447941 57.773238 
L 282.61228 59.608899 
L 281.062142 61.159037 
L 280.405311 61.815868 
L 278.525166 63.696013 
L 277.84039 64.380788 
L 275.364535 66.856644 
L 275.146704 67.074474 
L 272.522654 69.698524 
L 271.292056 70.929123 
L 270.532421 71.688757 
L 268.527668 73.693511 
L 267.163196 75.057983 
L 265.561215 76.659963 
L 265.272827 76.948351 
L 262.789672 79.431507 
L 261.552244 80.668934 
L 260.847006 81.374173 
L 259.007767 83.213411 
L 257.333127 84.888051 
L 256.282022 85.939157 
L 254.635914 87.585265 
L 253.917723 88.303455 
L 252.249717 89.971461 
L 250.892497 91.328682 
L 249.16159 93.059589 
L 248.179665 94.041513 
L 246.934137 95.287042 
L 245.071247 97.149931 
L 243.597981 98.623198 
L 241.795993 100.425186 
L 240.988119 101.23306 
L 238.787449 103.43373 
L 237.902651 104.318528 
L 236.316376 105.904803 
L 234.517482 107.703697 
L 234.172404 108.048774 
L 232.728819 109.492359 
L 231.226572 110.994607 
L 229.470286 112.750893 
L 228.021062 114.200116 
L 226.690967 115.530212 
L 224.859292 117.361887 
L 223.441002 118.780177 
L 221.807932 120.413247 
L 220.568679 121.652499 
L 219.820533 122.400646 
L 218.142991 124.078188 
L 217.120643 125.100536 
L 215.935493 126.285685 
L 214.65272 127.568459 
L 213.225039 128.996139 
L 211.31839 130.902788 
L 210.509671 131.711508 
L 208.55814 133.663038 
L 207.294143 134.927035 
L 205.304305 136.916873 
L 204.537364 137.683815 
L 202.466271 139.754907 
L 201.433388 140.787791 
L 200.554547 141.666631 
L 198.238117 143.983061 
L 197.665709 144.55547 
L 195.620312 146.600866 
L 193.831776 148.389403 
L 192.984503 149.236676 
L 191.953967 150.267211 
L 189.930072 152.291107 
L 188.554183 153.666996 
L 187.115256 155.105923 
L 186.582272 155.638906 
L 184.376126 157.845053 
L 182.611293 159.609886 
L 182.352568 159.868611 
L 180.470836 161.750342 
L 178.888577 163.332602 
L 177.392457 164.828721 
L 176.003621 166.217557 
L 174.121544 168.099635 
L 173.678119 168.54306 
L 171.336326 170.884852 
L 171.021906 171.199272 
L 168.4959 173.725278 
L 167.693072 174.528107 
L 165.724244 176.496934 
L 165.249647 176.971531 
L 163.406592 178.814587 
L 161.844607 180.376572 
L 160.062048 182.159131 
L 158.872346 183.348832 
L 157.281226 184.939953 
L 156.830197 185.390982 
L 155.01893 187.202249 
L 153.081073 189.140106 
L 152.206961 190.014217 
L 151.445941 190.775237 
L 149.749297 192.471882 
L 148.158095 194.063083 
L 147.314846 194.906332 
L 145.497295 196.723884 
L 143.808884 198.412294 
L 142.6941 199.527079 
L 140.836456 201.384722 
L 140.077548 202.14363 
L 138.724977 203.496201 
L 136.284138 205.93704 
L 135.418258 206.802921 
L 133.768531 208.452647 
L 132.411858 209.80932 
L 130.57783 211.643349 
L 129.962473 212.258705 
L 127.967174 214.254004 
L 126.653027 215.568151 
L 125.232643 216.988536 
L 123.677553 218.543626 
L 122.36952 219.851658 
L 120.998929 221.22225 
L 119.829866 222.391313 
L 118.522204 223.698975 
L 117.565107 224.656072 
L 116.178792 226.042386 
L 114.63065 227.590528 
L 113.37435 228.846829 
L 112.19637 230.024809 
L 109.937944 232.283235 
L 109.240919 232.980259 
L 107.538181 234.682998 
L 105.647107 236.574072 
L 104.717149 237.50403 
L 102.674565 239.546614 
L 101.028942 241.192236 
L 100.491077 241.730102 
L 98.445873 243.775306 
L 96.96045 245.260728 
L 96.058332 246.162846 
L 94.130515 248.090663 
L 93.476651 248.744527 
L 92.034933 250.186246 
L 90.23665 251.984528 
L 88.41256 253.808618 
L 86.968231 255.252948 
L 86.867544 255.353635 
L 84.996639 257.22454 
L 83.475882 258.745296 
L 82.453684 259.767494 
L 80.409858 261.81132 
L 78.731239 263.489939 
L 77.801432 264.419747 
L 76.649961 265.571218 
L 74.837992 267.383186 
L 73.805522 268.415657 
L 72.834874 269.386305 
L 70.179273 272.041906 
L 69.80571 272.415468 
L 67.535358 274.68582 
L 66.805051 275.416127 
L 65.136831 277.084347 
L 63.188858 279.03232 
L 62.002656 280.218522 
L 60.431322 281.789856 
L 59.563735 282.657443 
L 57.69026 284.530918 
L 56.110608 286.110571 
L 55.373451 286.847728 
L 54.377707 287.843471 
L 52.26351 289.957669 
L 51.284203 290.936976 
L 50.301783 291.919396 
L 48.268712 293.952467 
L 47.247776 294.973402 
L 46.161728 296.059451 
L 43.98675 298.234429 
L 42.296607 299.924571 
L 40.92949 301.291688 
L 39.9059 302.315278 
L 39.101832 303.119347 
L 36.644824 305.576355 
L 35.692824 306.528355 
L 35.692824 27.04343 
L 36.645448 27.04343 
L 38.595838 27.04343 
L 39.963816 27.04343 
L 41.444831 27.04343 
L 42.379355 27.04343 
L 43.760679 27.04343 
L 45.010079 27.04343 
L 46.78771 27.04343 
L 47.916264 27.04343 
L 49.161266 27.04343 
L 51.406787 27.04343 
L 53.068883 27.04343 
L 54.534639 27.04343 
L 55.972571 27.04343 
L 56.522371 27.04343 
L 58.290432 27.04343 
L 59.616222 27.04343 
L 61.459541 27.04343 
L 62.218778 27.04343 
L 63.574844 27.04343 
L 65.118018 27.04343 
L 67.243083 27.04343 
L 68.406783 27.04343 
L 68.84824 27.04343 
L 71.373905 27.04343 
L 72.161051 27.04343 
L 73.263275 27.04343 
L 74.475008 27.04343 
L 76.007355 27.04343 
L 77.734702 27.04343 
L 78.918662 27.04343 
L 80.810464 27.04343 
L 81.879989 27.04343 
L 83.913155 27.04343 
L 84.890417 27.04343 
L 86.26503 27.04343 
L 87.751358 27.04343 
L 88.905215 27.04343 
L 91.105177 27.04343 
L 91.223029 27.04343 
L 93.431218 27.04343 
L 94.218319 27.04343 
L 96.084522 27.04343 
L 97.394257 27.04343 
L 98.752232 27.04343 
L 99.831279 27.04343 
L 102.329365 27.04343 
L 102.6306 27.04343 
L 104.838922 27.04343 
L 106.610437 27.04343 
L 107.848527 27.04343 
L 108.1311 27.04343 
L 109.457181 27.04343 
L 112.228067 27.04343 
L 112.270653 27.04343 
L 113.707285 27.04343 
L 115.398932 27.04343 
L 116.580086 27.04343 
L 118.560189 27.04343 
L 119.409695 27.04343 
L 121.035104 27.04343 
L 122.887672 27.04343 
L 124.84021 27.04343 
L 125.172598 27.04343 
L 127.44923 27.04343 
L 128.974252 27.04343 
L 129.184601 27.04343 
L 131.082539 27.04343 
L 132.095299 27.04343 
L 134.677774 27.04343 
L 134.761314 27.04343 
L 136.690961 27.04343 
L 138.78122 27.04343 
L 139.313964 27.04343 
L 141.166332 27.04343 
L 143.082154 27.04343 
L 143.962372 27.04343 
L 144.902713 27.04343 
L 146.711375 27.04343 
L 147.43418 27.04343 
L 150.060894 27.04343 
L 151.41553 27.04343 
L 151.863148 27.04343 
L 154.083231 27.04343 
L 154.700444 27.04343 
L 156.872857 27.04343 
L 157.953023 27.04343 
L 158.750666 27.04343 
L 160.787577 27.04343 
L 162.500538 27.04343 
L 163.81209 27.04343 
L 164.8906 27.04343 
L 166.698916 27.04343 
L 168.378596 27.04343 
L 168.858809 27.04343 
L 170.784674 27.04343 
L 171.732879 27.04343 
L 172.850984 27.04343 
L 174.421523 27.04343 
L 176.041986 27.04343 
L 177.945301 27.04343 
L 178.584547 27.04343 
L 180.471417 27.04343 
L 181.87772 27.04343 
L 183.57527 27.04343 
L 184.665029 27.04343 
L 186.517094 27.04343 
L 187.90705 27.04343 
L 189.077441 27.04343 
L 189.980318 27.04343 
L 191.171056 27.04343 
L 192.551298 27.04343 
L 194.50395 27.04343 
L 195.210608 27.04343 
L 197.334494 27.04343 
L 197.98363 27.04343 
L 200.240825 27.04343 
L 201.278907 27.04343 
L 202.845475 27.04343 
L 204.083062 27.04343 
L 205.584262 27.04343 
L 206.644786 27.04343 
L 209.041524 27.04343 
L 210.37053 27.04343 
L 211.447353 27.04343 
L 211.967751 27.04343 
L 214.430468 27.04343 
L 215.50374 27.04343 
L 216.64322 27.04343 
L 218.274813 27.04343 
L 219.486131 27.04343 
L 220.452109 27.04343 
L 222.007091 27.04343 
L 223.763963 27.04343 
L 225.391394 27.04343 
L 227.1076 27.04343 
L 228.635401 27.04343 
L 228.848438 27.04343 
L 230.210427 27.04343 
L 231.734249 27.04343 
L 234.201654 27.04343 
L 234.762444 27.04343 
L 235.923202 27.04343 
L 237.988968 27.04343 
L 239.753237 27.04343 
L 240.660067 27.04343 
L 241.827502 27.04343 
L 244.084614 27.04343 
L 244.383615 27.04343 
L 247.028204 27.04343 
L 247.238175 27.04343 
L 249.49217 27.04343 
L 250.403196 27.04343 
L 252.34504 27.04343 
L 253.081655 27.04343 
L 254.841124 27.04343 
L 256.003969 27.04343 
L 257.420234 27.04343 
L 259.561888 27.04343 
L 260.660315 27.04343 
L 261.224865 27.04343 
L 262.981019 27.04343 
L 264.276276 27.04343 
L 266.023483 27.04343 
L 267.885498 27.04343 
L 268.654178 27.04343 
L 270.876963 27.04343 
L 271.051288 27.04343 
L 272.589061 27.04343 
L 274.02602 27.04343 
L 276.364185 27.04343 
L 277.257932 27.04343 
L 278.75363 27.04343 
L 280.035411 27.04343 
L 281.902087 27.04343 
L 282.96995 27.04343 
L 283.946515 27.04343 
L 286.348458 27.04343 
L 286.777251 27.04343 
L 288.826308 27.04343 
L 289.284832 27.04343 
L 291.678715 27.04343 
L 292.944341 27.04343 
L 294.373775 27.04343 
L 294.826539 27.04343 
L 297.51473 27.04343 
L 298.402067 27.04343 
L 299.713299 27.04343 
L 300.557201 27.04343 
L 302.057193 27.04343 
L 303.721803 27.04343 
L 304.684433 27.04343 
L 307.371314 27.04343 
L 307.810606 27.04343 
L 309.018197 27.04343 
L 310.41939 27.04343 
L 312.375141 27.04343 
L 313.434146 27.04343 
z
" clip-path="url(#pda85fd5658)" style="fill: #008000; opacity: 0.5"/>
   </g>
   <g id="matplotlib.axis_1">
    <g id="xtick_1">
     <g id="line2d_1">
      <defs>
       <path id="mf7626b65f6" d="M 0 0 
L 0 3.5 
" style="stroke: #000000; stroke-width: 0.8"/>
      </defs>
      <g>
       <use xlink:href="#mf7626b65f6" x="35.692824" y="312.397538" style="stroke: #000000; stroke-width: 0.8"/>
      </g>
     </g>
     <g id="text_1">
      <!-- 0.0 -->
      <g transform="translate(27.741261 326.995976)scale(0.1 -0.1)">
       <defs>
        <path id="DejaVuSans-30" d="M 2034 4250 
Q 1547 4250 1301 3770 
Q 1056 3291 1056 2328 
Q 1056 1369 1301 889 
Q 1547 409 2034 409 
Q 2525 409 2770 889 
Q 3016 1369 3016 2328 
Q 3016 3291 2770 3770 
Q 2525 4250 2034 4250 
z
M 2034 4750 
Q 2819 4750 3233 4129 
Q 3647 3509 3647 2328 
Q 3647 1150 3233 529 
Q 2819 -91 2034 -91 
Q 1250 -91 836 529 
Q 422 1150 422 2328 
Q 422 3509 836 4129 
Q 1250 4750 2034 4750 
z
" transform="scale(0.015625)"/>
        <path id="DejaVuSans-2e" d="M 684 794 
L 1344 794 
L 1344 0 
L 684 0 
L 684 794 
z
" transform="scale(0.015625)"/>
       </defs>
       <use xlink:href="#DejaVuSans-30"/>
       <use xlink:href="#DejaVuSans-2e" x="63.623047"/>
       <use xlink:href="#DejaVuSans-30" x="95.410156"/>
      </g>
     </g>
    </g>
    <g id="xtick_2">
     <g id="line2d_2">
      <g>
       <use xlink:href="#mf7626b65f6" x="91.589809" y="312.397538" style="stroke: #000000; stroke-width: 0.8"/>
      </g>
     </g>
     <g id="text_2">
      <!-- 0.2 -->
      <g transform="translate(83.638246 326.995976)scale(0.1 -0.1)">
       <defs>
        <path id="DejaVuSans-32" d="M 1228 531 
L 3431 531 
L 3431 0 
L 469 0 
L 469 531 
Q 828 903 1448 1529 
Q 2069 2156 2228 2338 
Q 2531 2678 2651 2914 
Q 2772 3150 2772 3378 
Q 2772 3750 2511 3984 
Q 2250 4219 1831 4219 
Q 1534 4219 1204 4116 
Q 875 4013 500 3803 
L 500 4441 
Q 881 4594 1212 4672 
Q 1544 4750 1819 4750 
Q 2544 4750 2975 4387 
Q 3406 4025 3406 3419 
Q 3406 3131 3298 2873 
Q 3191 2616 2906 2266 
Q 2828 2175 2409 1742 
Q 1991 1309 1228 531 
z
" transform="scale(0.015625)"/>
       </defs>
       <use xlink:href="#DejaVuSans-30"/>
       <use xlink:href="#DejaVuSans-2e" x="63.623047"/>
       <use xlink:href="#DejaVuSans-32" x="95.410156"/>
      </g>
     </g>
    </g>
    <g id="xtick_3">
     <g id="line2d_3">
      <g>
       <use xlink:href="#mf7626b65f6" x="147.486794" y="312.397538" style="stroke: #000000; stroke-width: 0.8"/>
      </g>
     </g>
     <g id="text_3">
      <!-- 0.4 -->
      <g transform="translate(139.535231 326.995976)scale(0.1 -0.1)">
       <defs>
        <path id="DejaVuSans-34" d="M 2419 4116 
L 825 1625 
L 2419 1625 
L 2419 4116 
z
M 2253 4666 
L 3047 4666 
L 3047 1625 
L 3713 1625 
L 3713 1100 
L 3047 1100 
L 3047 0 
L 2419 0 
L 2419 1100 
L 313 1100 
L 313 1709 
L 2253 4666 
z
" transform="scale(0.015625)"/>
       </defs>
       <use xlink:href="#DejaVuSans-30"/>
       <use xlink:href="#DejaVuSans-2e" x="63.623047"/>
       <use xlink:href="#DejaVuSans-34" x="95.410156"/>
      </g>
     </g>
    </g>
    <g id="xtick_4">
     <g id="line2d_4">
      <g>
       <use xlink:href="#mf7626b65f6" x="203.383779" y="312.397538" style="stroke: #000000; stroke-width: 0.8"/>
      </g>
     </g>
     <g id="text_4">
      <!-- 0.6 -->
      <g transform="translate(195.432216 326.995976)scale(0.1 -0.1)">
       <defs>
        <path id="DejaVuSans-36" d="M 2113 2584 
Q 1688 2584 1439 2293 
Q 1191 2003 1191 1497 
Q 1191 994 1439 701 
Q 1688 409 2113 409 
Q 2538 409 2786 701 
Q 3034 994 3034 1497 
Q 3034 2003 2786 2293 
Q 2538 2584 2113 2584 
z
M 3366 4563 
L 3366 3988 
Q 3128 4100 2886 4159 
Q 2644 4219 2406 4219 
Q 1781 4219 1451 3797 
Q 1122 3375 1075 2522 
Q 1259 2794 1537 2939 
Q 1816 3084 2150 3084 
Q 2853 3084 3261 2657 
Q 3669 2231 3669 1497 
Q 3669 778 3244 343 
Q 2819 -91 2113 -91 
Q 1303 -91 875 529 
Q 447 1150 447 2328 
Q 447 3434 972 4092 
Q 1497 4750 2381 4750 
Q 2619 4750 2861 4703 
Q 3103 4656 3366 4563 
z
" transform="scale(0.015625)"/>
       </defs>
       <use xlink:href="#DejaVuSans-30"/>
       <use xlink:href="#DejaVuSans-2e" x="63.623047"/>
       <use xlink:href="#DejaVuSans-36" x="95.410156"/>
      </g>
     </g>
    </g>
    <g id="xtick_5">
     <g id="line2d_5">
      <g>
       <use xlink:href="#mf7626b65f6" x="259.280764" y="312.397538" style="stroke: #000000; stroke-width: 0.8"/>
      </g>
     </g>
     <g id="text_5">
      <!-- 0.8 -->
      <g transform="translate(251.329201 326.995976)scale(0.1 -0.1)">
       <defs>
        <path id="DejaVuSans-38" d="M 2034 2216 
Q 1584 2216 1326 1975 
Q 1069 1734 1069 1313 
Q 1069 891 1326 650 
Q 1584 409 2034 409 
Q 2484 409 2743 651 
Q 3003 894 3003 1313 
Q 3003 1734 2745 1975 
Q 2488 2216 2034 2216 
z
M 1403 2484 
Q 997 2584 770 2862 
Q 544 3141 544 3541 
Q 544 4100 942 4425 
Q 1341 4750 2034 4750 
Q 2731 4750 3128 4425 
Q 3525 4100 3525 3541 
Q 3525 3141 3298 2862 
Q 3072 2584 2669 2484 
Q 3125 2378 3379 2068 
Q 3634 1759 3634 1313 
Q 3634 634 3220 271 
Q 2806 -91 2034 -91 
Q 1263 -91 848 271 
Q 434 634 434 1313 
Q 434 1759 690 2068 
Q 947 2378 1403 2484 
z
M 1172 3481 
Q 1172 3119 1398 2916 
Q 1625 2713 2034 2713 
Q 2441 2713 2670 2916 
Q 2900 3119 2900 3481 
Q 2900 3844 2670 4047 
Q 2441 4250 2034 4250 
Q 1625 4250 1398 4047 
Q 1172 3844 1172 3481 
z
" transform="scale(0.015625)"/>
       </defs>
       <use xlink:href="#DejaVuSans-30"/>
       <use xlink:href="#DejaVuSans-2e" x="63.623047"/>
       <use xlink:href="#DejaVuSans-38" x="95.410156"/>
      </g>
     </g>
    </g>
    <g id="xtick_6">
     <g id="line2d_6">
      <g>
       <use xlink:href="#mf7626b65f6" x="315.177749" y="312.397538" style="stroke: #000000; stroke-width: 0.8"/>
      </g>
     </g>
     <g id="text_6">
      <!-- 1.0 -->
      <g transform="translate(307.226186 326.995976)scale(0.1 -0.1)">
       <defs>
        <path id="DejaVuSans-31" d="M 794 531 
L 1825 531 
L 1825 4091 
L 703 3866 
L 703 4441 
L 1819 4666 
L 2450 4666 
L 2450 531 
L 3481 531 
L 3481 0 
L 794 0 
L 794 531 
z
" transform="scale(0.015625)"/>
       </defs>
       <use xlink:href="#DejaVuSans-31"/>
       <use xlink:href="#DejaVuSans-2e" x="63.623047"/>
       <use xlink:href="#DejaVuSans-30" x="95.410156"/>
      </g>
     </g>
    </g>
    <g id="xtick_7">
     <g id="line2d_7">
      <defs>
       <path id="m18ca16be5d" d="M 0 0 
L 0 2 
" style="stroke: #000000; stroke-width: 0.6"/>
      </defs>
      <g>
       <use xlink:href="#m18ca16be5d" x="49.66707" y="312.397538" style="stroke: #000000; stroke-width: 0.6"/>
      </g>
     </g>
    </g>
    <g id="xtick_8">
     <g id="line2d_8">
      <g>
       <use xlink:href="#m18ca16be5d" x="63.641316" y="312.397538" style="stroke: #000000; stroke-width: 0.6"/>
      </g>
     </g>
    </g>
    <g id="xtick_9">
     <g id="line2d_9">
      <g>
       <use xlink:href="#m18ca16be5d" x="77.615562" y="312.397538" style="stroke: #000000; stroke-width: 0.6"/>
      </g>
     </g>
    </g>
    <g id="xtick_10">
     <g id="line2d_10">
      <g>
       <use xlink:href="#m18ca16be5d" x="105.564055" y="312.397538" style="stroke: #000000; stroke-width: 0.6"/>
      </g>
     </g>
    </g>
    <g id="xtick_11">
     <g id="line2d_11">
      <g>
       <use xlink:href="#m18ca16be5d" x="119.538301" y="312.397538" style="stroke: #000000; stroke-width: 0.6"/>
      </g>
     </g>
    </g>
    <g id="xtick_12">
     <g id="line2d_12">
      <g>
       <use xlink:href="#m18ca16be5d" x="133.512547" y="312.397538" style="stroke: #000000; stroke-width: 0.6"/>
      </g>
     </g>
    </g>
    <g id="xtick_13">
     <g id="line2d_13">
      <g>
       <use xlink:href="#m18ca16be5d" x="161.46104" y="312.397538" style="stroke: #000000; stroke-width: 0.6"/>
      </g>
     </g>
    </g>
    <g id="xtick_14">
     <g id="line2d_14">
      <g>
       <use xlink:href="#m18ca16be5d" x="175.435286" y="312.397538" style="stroke: #000000; stroke-width: 0.6"/>
      </g>
     </g>
    </g>
    <g id="xtick_15">
     <g id="line2d_15">
      <g>
       <use xlink:href="#m18ca16be5d" x="189.409532" y="312.397538" style="stroke: #000000; stroke-width: 0.6"/>
      </g>
     </g>
    </g>
    <g id="xtick_16">
     <g id="line2d_16">
      <g>
       <use xlink:href="#m18ca16be5d" x="217.358025" y="312.397538" style="stroke: #000000; stroke-width: 0.6"/>
      </g>
     </g>
    </g>
    <g id="xtick_17">
     <g id="line2d_17">
      <g>
       <use xlink:href="#m18ca16be5d" x="231.332271" y="312.397538" style="stroke: #000000; stroke-width: 0.6"/>
      </g>
     </g>
    </g>
    <g id="xtick_18">
     <g id="line2d_18">
      <g>
       <use xlink:href="#m18ca16be5d" x="245.306518" y="312.397538" style="stroke: #000000; stroke-width: 0.6"/>
      </g>
     </g>
    </g>
    <g id="xtick_19">
     <g id="line2d_19">
      <g>
       <use xlink:href="#m18ca16be5d" x="273.25501" y="312.397538" style="stroke: #000000; stroke-width: 0.6"/>
      </g>
     </g>
    </g>
    <g id="xtick_20">
     <g id="line2d_20">
      <g>
       <use xlink:href="#m18ca16be5d" x="287.229256" y="312.397538" style="stroke: #000000; stroke-width: 0.6"/>
      </g>
     </g>
    </g>
    <g id="xtick_21">
     <g id="line2d_21">
      <g>
       <use xlink:href="#m18ca16be5d" x="301.203503" y="312.397538" style="stroke: #000000; stroke-width: 0.6"/>
      </g>
     </g>
    </g>
   </g>
   <g id="matplotlib.axis_2">
    <g id="ytick_1">
     <g id="line2d_22">
      <defs>
       <path id="m44ae1ac885" d="M 0 0 
L -3.5 0 
" style="stroke: #000000; stroke-width: 0.8"/>
      </defs>
      <g>
       <use xlink:href="#m44ae1ac885" x="30.103125" y="306.528355" style="stroke: #000000; stroke-width: 0.8"/>
      </g>
     </g>
     <g id="text_7">
      <!-- 0.0 -->
      <g transform="translate(7.2 310.327574)scale(0.1 -0.1)">
       <use xlink:href="#DejaVuSans-30"/>
       <use xlink:href="#DejaVuSans-2e" x="63.623047"/>
       <use xlink:href="#DejaVuSans-30" x="95.410156"/>
      </g>
     </g>
    </g>
    <g id="ytick_2">
     <g id="line2d_23">
      <g>
       <use xlink:href="#m44ae1ac885" x="30.103125" y="250.63137" style="stroke: #000000; stroke-width: 0.8"/>
      </g>
     </g>
     <g id="text_8">
      <!-- 0.2 -->
      <g transform="translate(7.2 254.430589)scale(0.1 -0.1)">
       <use xlink:href="#DejaVuSans-30"/>
       <use xlink:href="#DejaVuSans-2e" x="63.623047"/>
       <use xlink:href="#DejaVuSans-32" x="95.410156"/>
      </g>
     </g>
    </g>
    <g id="ytick_3">
     <g id="line2d_24">
      <g>
       <use xlink:href="#m44ae1ac885" x="30.103125" y="194.734385" style="stroke: #000000; stroke-width: 0.8"/>
      </g>
     </g>
     <g id="text_9">
      <!-- 0.4 -->
      <g transform="translate(7.2 198.533604)scale(0.1 -0.1)">
       <use xlink:href="#DejaVuSans-30"/>
       <use xlink:href="#DejaVuSans-2e" x="63.623047"/>
       <use xlink:href="#DejaVuSans-34" x="95.410156"/>
      </g>
     </g>
    </g>
    <g id="ytick_4">
     <g id="line2d_25">
      <g>
       <use xlink:href="#m44ae1ac885" x="30.103125" y="138.8374" style="stroke: #000000; stroke-width: 0.8"/>
      </g>
     </g>
     <g id="text_10">
      <!-- 0.6 -->
      <g transform="translate(7.2 142.636619)scale(0.1 -0.1)">
       <use xlink:href="#DejaVuSans-30"/>
       <use xlink:href="#DejaVuSans-2e" x="63.623047"/>
       <use xlink:href="#DejaVuSans-36" x="95.410156"/>
      </g>
     </g>
    </g>
    <g id="ytick_5">
     <g id="line2d_26">
      <g>
       <use xlink:href="#m44ae1ac885" x="30.103125" y="82.940415" style="stroke: #000000; stroke-width: 0.8"/>
      </g>
     </g>
     <g id="text_11">
      <!-- 0.8 -->
      <g transform="translate(7.2 86.739634)scale(0.1 -0.1)">
       <use xlink:href="#DejaVuSans-30"/>
       <use xlink:href="#DejaVuSans-2e" x="63.623047"/>
       <use xlink:href="#DejaVuSans-38" x="95.410156"/>
      </g>
     </g>
    </g>
    <g id="ytick_6">
     <g id="line2d_27">
      <g>
       <use xlink:href="#m44ae1ac885" x="30.103125" y="27.04343" style="stroke: #000000; stroke-width: 0.8"/>
      </g>
     </g>
     <g id="text_12">
      <!-- 1.0 -->
      <g transform="translate(7.2 30.842648)scale(0.1 -0.1)">
       <use xlink:href="#DejaVuSans-31"/>
       <use xlink:href="#DejaVuSans-2e" x="63.623047"/>
       <use xlink:href="#DejaVuSans-30" x="95.410156"/>
      </g>
     </g>
    </g>
    <g id="ytick_7">
     <g id="line2d_28">
      <defs>
       <path id="m3147b0676c" d="M 0 0 
L -2 0 
" style="stroke: #000000; stroke-width: 0.6"/>
      </defs>
      <g>
       <use xlink:href="#m3147b0676c" x="30.103125" y="292.554109" style="stroke: #000000; stroke-width: 0.6"/>
      </g>
     </g>
    </g>
    <g id="ytick_8">
     <g id="line2d_29">
      <g>
       <use xlink:href="#m3147b0676c" x="30.103125" y="278.579862" style="stroke: #000000; stroke-width: 0.6"/>
      </g>
     </g>
    </g>
    <g id="ytick_9">
     <g id="line2d_30">
      <g>
       <use xlink:href="#m3147b0676c" x="30.103125" y="264.605616" style="stroke: #000000; stroke-width: 0.6"/>
      </g>
     </g>
    </g>
    <g id="ytick_10">
     <g id="line2d_31">
      <g>
       <use xlink:href="#m3147b0676c" x="30.103125" y="236.657124" style="stroke: #000000; stroke-width: 0.6"/>
      </g>
     </g>
    </g>
    <g id="ytick_11">
     <g id="line2d_32">
      <g>
       <use xlink:href="#m3147b0676c" x="30.103125" y="222.682877" style="stroke: #000000; stroke-width: 0.6"/>
      </g>
     </g>
    </g>
    <g id="ytick_12">
     <g id="line2d_33">
      <g>
       <use xlink:href="#m3147b0676c" x="30.103125" y="208.708631" style="stroke: #000000; stroke-width: 0.6"/>
      </g>
     </g>
    </g>
    <g id="ytick_13">
     <g id="line2d_34">
      <g>
       <use xlink:href="#m3147b0676c" x="30.103125" y="180.760139" style="stroke: #000000; stroke-width: 0.6"/>
      </g>
     </g>
    </g>
    <g id="ytick_14">
     <g id="line2d_35">
      <g>
       <use xlink:href="#m3147b0676c" x="30.103125" y="166.785892" style="stroke: #000000; stroke-width: 0.6"/>
      </g>
     </g>
    </g>
    <g id="ytick_15">
     <g id="line2d_36">
      <g>
       <use xlink:href="#m3147b0676c" x="30.103125" y="152.811646" style="stroke: #000000; stroke-width: 0.6"/>
      </g>
     </g>
    </g>
    <g id="ytick_16">
     <g id="line2d_37">
      <g>
       <use xlink:href="#m3147b0676c" x="30.103125" y="124.863154" style="stroke: #000000; stroke-width: 0.6"/>
      </g>
     </g>
    </g>
    <g id="ytick_17">
     <g id="line2d_38">
      <g>
       <use xlink:href="#m3147b0676c" x="30.103125" y="110.888907" style="stroke: #000000; stroke-width: 0.6"/>
      </g>
     </g>
    </g>
    <g id="ytick_18">
     <g id="line2d_39">
      <g>
       <use xlink:href="#m3147b0676c" x="30.103125" y="96.914661" style="stroke: #000000; stroke-width: 0.6"/>
      </g>
     </g>
    </g>
    <g id="ytick_19">
     <g id="line2d_40">
      <g>
       <use xlink:href="#m3147b0676c" x="30.103125" y="68.966168" style="stroke: #000000; stroke-width: 0.6"/>
      </g>
     </g>
    </g>
    <g id="ytick_20">
     <g id="line2d_41">
      <g>
       <use xlink:href="#m3147b0676c" x="30.103125" y="54.991922" style="stroke: #000000; stroke-width: 0.6"/>
      </g>
     </g>
    </g>
    <g id="ytick_21">
     <g id="line2d_42">
      <g>
       <use xlink:href="#m3147b0676c" x="30.103125" y="41.017676" style="stroke: #000000; stroke-width: 0.6"/>
      </g>
     </g>
    </g>
    <g id="ytick_22">
     <g id="line2d_43">
      <g>
       <use xlink:href="#m3147b0676c" x="30.103125" y="13.069183" style="stroke: #000000; stroke-width: 0.6"/>
      </g>
     </g>
    </g>
   </g>
   <g id="line2d_44">
    <path d="M 35.692824 27.04343 
L 315.177749 27.04343 
L 315.177749 27.04343 
" clip-path="url(#pda85fd5658)" style="fill: none; stroke: #0000ff; stroke-linecap: square"/>
   </g>
   <g id="line2d_45">
    <path d="M 35.692824 306.528355 
L 315.177749 27.04343 
L 315.177749 27.04343 
" clip-path="url(#pda85fd5658)" style="fill: none; stroke: #ff0000; stroke-linecap: square"/>
   </g>
   <g id="PathCollection_1">
    <path d="M 36.161758 27.04343 
L 36.161758 306.528355 
L 36.161758 306.528355 
" clip-path="url(#pda85fd5658)" style="fill: none; stroke: #ffa500; stroke-width: 1.5"/>
   </g>
   <g id="patch_4">
    <path d="M 30.103125 312.397538 
L 30.103125 7.2 
" style="fill: none; stroke: #000000; stroke-width: 0.8; stroke-linejoin: miter; stroke-linecap: square"/>
   </g>
   <g id="patch_5">
    <path d="M 320.767447 312.397538 
L 320.767447 7.2 
" style="fill: none; stroke: #000000; stroke-width: 0.8; stroke-linejoin: miter; stroke-linecap: square"/>
   </g>
   <g id="patch_6">
    <path d="M 30.103125 312.397538 
L 320.767447 312.397538 
" style="fill: none; stroke: #000000; stroke-width: 0.8; stroke-linejoin: miter; stroke-linecap: square"/>
   </g>
   <g id="patch_7">
    <path d="M 30.103125 7.2 
L 320.767447 7.2 
" style="fill: none; stroke: #000000; stroke-width: 0.8; stroke-linejoin: miter; stroke-linecap: square"/>
   </g>
   <g id="text_13">
    <!-- $y=1$ -->
    <g transform="translate(162.715286 16.356058)scale(0.12 -0.12)">
     <defs>
      <path id="Cmmi10-79" d="M 538 -916 
Q 672 -1147 1006 -1147 
Q 1309 -1147 1531 -934 
Q 1753 -722 1889 -420 
Q 2025 -119 2100 197 
Q 1816 -72 1484 -72 
Q 1231 -72 1053 15 
Q 875 103 776 276 
Q 678 450 678 697 
Q 678 906 734 1126 
Q 791 1347 892 1617 
Q 994 1888 1069 2088 
Q 1153 2322 1153 2472 
Q 1153 2663 1013 2663 
Q 759 2663 595 2402 
Q 431 2141 353 1819 
Q 341 1778 300 1778 
L 225 1778 
Q 172 1778 172 1838 
L 172 1856 
Q 275 2238 487 2533 
Q 700 2828 1025 2828 
Q 1253 2828 1411 2678 
Q 1569 2528 1569 2297 
Q 1569 2178 1516 2047 
Q 1488 1969 1388 1706 
Q 1288 1444 1234 1272 
Q 1181 1100 1147 934 
Q 1113 769 1113 603 
Q 1113 391 1203 244 
Q 1294 97 1491 97 
Q 1888 97 2203 581 
L 2688 2553 
Q 2709 2638 2787 2698 
Q 2866 2759 2956 2759 
Q 3034 2759 3092 2709 
Q 3150 2659 3150 2578 
Q 3150 2541 3144 2528 
L 2509 -19 
Q 2425 -347 2200 -647 
Q 1975 -947 1658 -1130 
Q 1341 -1313 997 -1313 
Q 831 -1313 668 -1248 
Q 506 -1184 406 -1056 
Q 306 -928 306 -756 
Q 306 -581 409 -453 
Q 513 -325 684 -325 
Q 788 -325 858 -389 
Q 928 -453 928 -556 
Q 928 -703 818 -812 
Q 709 -922 563 -922 
Q 556 -919 550 -917 
Q 544 -916 538 -916 
z
" transform="scale(0.015625)"/>
      <path id="Cmr10-3d" d="M 481 850 
Q 428 850 393 890 
Q 359 931 359 978 
Q 359 1031 393 1068 
Q 428 1106 481 1106 
L 4500 1106 
Q 4547 1106 4581 1068 
Q 4616 1031 4616 978 
Q 4616 931 4581 890 
Q 4547 850 4500 850 
L 481 850 
z
M 481 2094 
Q 428 2094 393 2131 
Q 359 2169 359 2222 
Q 359 2269 393 2309 
Q 428 2350 481 2350 
L 4500 2350 
Q 4547 2350 4581 2309 
Q 4616 2269 4616 2222 
Q 4616 2169 4581 2131 
Q 4547 2094 4500 2094 
L 481 2094 
z
" transform="scale(0.015625)"/>
      <path id="Cmr10-31" d="M 594 0 
L 594 225 
Q 1394 225 1394 428 
L 1394 3788 
Q 1063 3628 556 3628 
L 556 3853 
Q 1341 3853 1741 4263 
L 1831 4263 
Q 1853 4263 1873 4245 
Q 1894 4228 1894 4206 
L 1894 428 
Q 1894 225 2694 225 
L 2694 0 
L 594 0 
z
" transform="scale(0.015625)"/>
     </defs>
     <use xlink:href="#Cmmi10-79" transform="translate(0 0.390625)"/>
     <use xlink:href="#Cmr10-3d" transform="translate(66.582031 0.390625)"/>
     <use xlink:href="#Cmr10-31" transform="translate(161.826172 0.390625)"/>
    </g>
   </g>
   <g id="text_14">
    <!-- $y=x$ -->
    <g transform="translate(162.295286 142.124275)scale(0.12 -0.12)">
     <defs>
      <path id="Cmmi10-78" d="M 500 184 
Q 613 97 819 97 
Q 1019 97 1172 289 
Q 1325 481 1381 709 
L 1672 1844 
Q 1741 2153 1741 2266 
Q 1741 2425 1652 2544 
Q 1563 2663 1403 2663 
Q 1200 2663 1022 2536 
Q 844 2409 722 2214 
Q 600 2019 550 1819 
Q 538 1778 500 1778 
L 422 1778 
Q 372 1778 372 1838 
L 372 1856 
Q 434 2094 584 2320 
Q 734 2547 951 2687 
Q 1169 2828 1416 2828 
Q 1650 2828 1839 2703 
Q 2028 2578 2106 2363 
Q 2216 2559 2386 2693 
Q 2556 2828 2759 2828 
Q 2897 2828 3040 2779 
Q 3184 2731 3275 2631 
Q 3366 2531 3366 2381 
Q 3366 2219 3261 2101 
Q 3156 1984 2994 1984 
Q 2891 1984 2822 2050 
Q 2753 2116 2753 2216 
Q 2753 2350 2845 2451 
Q 2938 2553 3066 2572 
Q 2950 2663 2747 2663 
Q 2541 2663 2389 2472 
Q 2238 2281 2175 2047 
L 1894 916 
Q 1825 659 1825 494 
Q 1825 331 1917 214 
Q 2009 97 2163 97 
Q 2463 97 2698 361 
Q 2934 625 3009 941 
Q 3022 978 3059 978 
L 3138 978 
Q 3163 978 3178 961 
Q 3194 944 3194 922 
Q 3194 916 3188 903 
Q 3097 522 2806 225 
Q 2516 -72 2150 -72 
Q 1916 -72 1727 54 
Q 1538 181 1459 397 
Q 1359 209 1182 68 
Q 1006 -72 806 -72 
Q 669 -72 523 -23 
Q 378 25 287 125 
Q 197 225 197 378 
Q 197 528 301 651 
Q 406 775 563 775 
Q 669 775 741 711 
Q 813 647 813 544 
Q 813 409 723 309 
Q 634 209 500 184 
z
" transform="scale(0.015625)"/>
     </defs>
     <use xlink:href="#Cmmi10-79" transform="translate(0 0.8125)"/>
     <use xlink:href="#Cmr10-3d" transform="translate(66.582031 0.8125)"/>
     <use xlink:href="#Cmmi10-78" transform="translate(161.826172 0.8125)"/>
    </g>
   </g>
   <g id="text_15">
    <!-- $\mathcal{R}$ -->
    <g transform="translate(86.489809 86.251665)scale(0.12 -0.12)">
     <defs>
      <path id="Cmsy10-52" d="M 738 -91 
Q 738 -78 744 -56 
Q 966 475 1128 959 
Q 1291 1444 1428 1991 
Q 1678 2959 1766 3994 
Q 1425 3994 1094 3872 
Q 922 3803 833 3695 
Q 744 3588 684 3397 
Q 622 3291 472 3197 
Q 322 3103 206 3103 
L 166 3103 
Q 122 3131 122 3169 
Q 234 3556 581 3828 
Q 928 4100 1387 4236 
Q 1847 4372 2259 4372 
L 2931 4372 
Q 3378 4372 3739 4331 
Q 4100 4291 4392 4112 
Q 4684 3934 4684 3572 
Q 4684 3281 4548 3014 
Q 4413 2747 4189 2533 
Q 3966 2319 3697 2158 
Q 3428 1997 3156 1900 
Q 3253 1784 3383 1501 
Q 3513 1219 3659 911 
Q 3806 603 3951 420 
Q 4097 238 4256 238 
Q 4444 238 4551 308 
Q 4659 378 4775 520 
Q 4891 663 4997 745 
Q 5103 828 5281 844 
L 5319 844 
Q 5363 822 5363 794 
Q 5363 784 5356 768 
Q 5350 753 5344 738 
Q 5188 503 4936 297 
Q 4684 91 4393 -25 
Q 4103 -141 3828 -141 
L 3788 -141 
Q 3541 -141 3372 98 
Q 3203 338 3003 811 
Q 2803 1284 2651 1515 
Q 2500 1747 2278 1747 
Q 2266 1753 2250 1765 
Q 2234 1778 2234 1797 
Q 2234 1900 2420 2006 
Q 2606 2113 2719 2125 
Q 3072 2125 3395 2262 
Q 3719 2400 3917 2667 
Q 4116 2934 4116 3291 
Q 4116 3613 3833 3767 
Q 3550 3922 3203 3958 
Q 2856 3994 2450 3994 
L 2309 3994 
Q 2209 3041 1954 2070 
Q 1700 1100 1300 153 
Q 1238 41 1092 -43 
Q 947 -128 813 -141 
L 781 -141 
Q 769 -134 753 -121 
Q 738 -109 738 -91 
z
" transform="scale(0.015625)"/>
     </defs>
     <use xlink:href="#Cmsy10-52" transform="translate(0 0.6875)"/>
    </g>
   </g>
   <g id="text_16">
    <!-- $x=0$ -->
    <g transform="translate(50.441316 142.14865)scale(0.12 -0.12)">
     <defs>
      <path id="Cmr10-30" d="M 1600 -141 
Q 816 -141 533 504 
Q 250 1150 250 2041 
Q 250 2597 351 3087 
Q 453 3578 754 3920 
Q 1056 4263 1600 4263 
Q 2022 4263 2290 4056 
Q 2559 3850 2700 3523 
Q 2841 3197 2892 2823 
Q 2944 2450 2944 2041 
Q 2944 1491 2842 1011 
Q 2741 531 2444 195 
Q 2147 -141 1600 -141 
z
M 1600 25 
Q 1956 25 2131 390 
Q 2306 756 2347 1200 
Q 2388 1644 2388 2144 
Q 2388 2625 2347 3031 
Q 2306 3438 2132 3767 
Q 1959 4097 1600 4097 
Q 1238 4097 1063 3765 
Q 888 3434 847 3029 
Q 806 2625 806 2144 
Q 806 1788 823 1472 
Q 841 1156 916 820 
Q 991 484 1158 254 
Q 1325 25 1600 25 
z
" transform="scale(0.015625)"/>
     </defs>
     <use xlink:href="#Cmmi10-78" transform="translate(0 0.390625)"/>
     <use xlink:href="#Cmr10-3d" transform="translate(74.638672 0.390625)"/>
     <use xlink:href="#Cmr10-30" transform="translate(169.882812 0.390625)"/>
    </g>
   </g>
  </g>
 </g>
 <defs>
  <clipPath id="pda85fd5658">
   <rect x="30.103125" y="7.2" width="290.664322" height="305.197538"/>
  </clipPath>
 </defs>
</svg>
