<?xml version="1.0" encoding="utf-8" standalone="no"?>
<!DOCTYPE svg PUBLIC "-//W3C//DTD SVG 1.1//EN"
  "http://www.w3.org/Graphics/SVG/1.1/DTD/svg11.dtd">
<svg xmlns:xlink="http://www.w3.org/1999/xlink" width="282.955979pt" height="337.380906pt" viewBox="0 0 282.955979 337.380906" xmlns="http://www.w3.org/2000/svg" version="1.1">
 <metadata>
  <rdf:RDF xmlns:dc="http://purl.org/dc/elements/1.1/" xmlns:cc="http://creativecommons.org/ns#" xmlns:rdf="http://www.w3.org/1999/02/22-rdf-syntax-ns#">
   <cc:Work>
    <dc:type rdf:resource="http://purl.org/dc/dcmitype/StillImage"/>
    <dc:date>2022-10-27T19:59:03.972888</dc:date>
    <dc:format>image/svg+xml</dc:format>
    <dc:creator>
     <cc:Agent>
      <dc:title>Matplotlib v3.5.1, https://matplotlib.org/</dc:title>
     </cc:Agent>
    </dc:creator>
   </cc:Work>
  </rdf:RDF>
 </metadata>
 <defs>
  <style type="text/css">*{stroke-linejoin: round; stroke-linecap: butt}</style>
 </defs>
 <g id="figure_1">
  <g id="patch_1">
   <path d="M 0 337.380906 
L 282.955979 337.380906 
L 282.955979 0 
L 0 0 
z
" style="fill: #ffffff"/>
  </g>
  <g id="axes_1">
   <g id="patch_2">
    <path d="M 14.397064 330.180906 
L 272.773188 330.180906 
L 272.773188 7.2 
L 14.397064 7.2 
z
" style="fill: #ffffff"/>
   </g>
   <g id="matplotlib.axis_1">
    <g id="xtick_1">
     <g id="line2d_1">
      <defs>
       <path id="mebdc3e9440" d="M 0 0 
L 0 3.5 
" style="stroke: #000000; stroke-width: 0.8"/>
      </defs>
      <g>
       <use xlink:href="#mebdc3e9440" x="19.341406" y="199.758416" style="stroke: #000000; stroke-width: 0.8"/>
      </g>
     </g>
     <g id="text_1">
      <!-- −2.0 -->
      <g transform="translate(7.2 214.356854)scale(0.1 -0.1)">
       <defs>
        <path id="DejaVuSans-2212" d="M 678 2272 
L 4684 2272 
L 4684 1741 
L 678 1741 
L 678 2272 
z
" transform="scale(0.015625)"/>
        <path id="DejaVuSans-32" d="M 1228 531 
L 3431 531 
L 3431 0 
L 469 0 
L 469 531 
Q 828 903 1448 1529 
Q 2069 2156 2228 2338 
Q 2531 2678 2651 2914 
Q 2772 3150 2772 3378 
Q 2772 3750 2511 3984 
Q 2250 4219 1831 4219 
Q 1534 4219 1204 4116 
Q 875 4013 500 3803 
L 500 4441 
Q 881 4594 1212 4672 
Q 1544 4750 1819 4750 
Q 2544 4750 2975 4387 
Q 3406 4025 3406 3419 
Q 3406 3131 3298 2873 
Q 3191 2616 2906 2266 
Q 2828 2175 2409 1742 
Q 1991 1309 1228 531 
z
" transform="scale(0.015625)"/>
        <path id="DejaVuSans-2e" d="M 684 794 
L 1344 794 
L 1344 0 
L 684 0 
L 684 794 
z
" transform="scale(0.015625)"/>
        <path id="DejaVuSans-30" d="M 2034 4250 
Q 1547 4250 1301 3770 
Q 1056 3291 1056 2328 
Q 1056 1369 1301 889 
Q 1547 409 2034 409 
Q 2525 409 2770 889 
Q 3016 1369 3016 2328 
Q 3016 3291 2770 3770 
Q 2525 4250 2034 4250 
z
M 2034 4750 
Q 2819 4750 3233 4129 
Q 3647 3509 3647 2328 
Q 3647 1150 3233 529 
Q 2819 -91 2034 -91 
Q 1250 -91 836 529 
Q 422 1150 422 2328 
Q 422 3509 836 4129 
Q 1250 4750 2034 4750 
z
" transform="scale(0.015625)"/>
       </defs>
       <use xlink:href="#DejaVuSans-2212"/>
       <use xlink:href="#DejaVuSans-32" x="83.789062"/>
       <use xlink:href="#DejaVuSans-2e" x="147.412109"/>
       <use xlink:href="#DejaVuSans-30" x="179.199219"/>
      </g>
     </g>
    </g>
    <g id="xtick_2">
     <g id="line2d_2">
      <g>
       <use xlink:href="#mebdc3e9440" x="50.399283" y="199.758416" style="stroke: #000000; stroke-width: 0.8"/>
      </g>
     </g>
     <g id="text_2">
      <!-- −1.5 -->
      <g transform="translate(38.257876 214.356854)scale(0.1 -0.1)">
       <defs>
        <path id="DejaVuSans-31" d="M 794 531 
L 1825 531 
L 1825 4091 
L 703 3866 
L 703 4441 
L 1819 4666 
L 2450 4666 
L 2450 531 
L 3481 531 
L 3481 0 
L 794 0 
L 794 531 
z
" transform="scale(0.015625)"/>
        <path id="DejaVuSans-35" d="M 691 4666 
L 3169 4666 
L 3169 4134 
L 1269 4134 
L 1269 2991 
Q 1406 3038 1543 3061 
Q 1681 3084 1819 3084 
Q 2600 3084 3056 2656 
Q 3513 2228 3513 1497 
Q 3513 744 3044 326 
Q 2575 -91 1722 -91 
Q 1428 -91 1123 -41 
Q 819 9 494 109 
L 494 744 
Q 775 591 1075 516 
Q 1375 441 1709 441 
Q 2250 441 2565 725 
Q 2881 1009 2881 1497 
Q 2881 1984 2565 2268 
Q 2250 2553 1709 2553 
Q 1456 2553 1204 2497 
Q 953 2441 691 2322 
L 691 4666 
z
" transform="scale(0.015625)"/>
       </defs>
       <use xlink:href="#DejaVuSans-2212"/>
       <use xlink:href="#DejaVuSans-31" x="83.789062"/>
       <use xlink:href="#DejaVuSans-2e" x="147.412109"/>
       <use xlink:href="#DejaVuSans-35" x="179.199219"/>
      </g>
     </g>
    </g>
    <g id="xtick_3">
     <g id="line2d_3">
      <g>
       <use xlink:href="#mebdc3e9440" x="81.457159" y="199.758416" style="stroke: #000000; stroke-width: 0.8"/>
      </g>
     </g>
     <g id="text_3">
      <!-- −1.0 -->
      <g transform="translate(69.315753 214.356854)scale(0.1 -0.1)">
       <use xlink:href="#DejaVuSans-2212"/>
       <use xlink:href="#DejaVuSans-31" x="83.789062"/>
       <use xlink:href="#DejaVuSans-2e" x="147.412109"/>
       <use xlink:href="#DejaVuSans-30" x="179.199219"/>
      </g>
     </g>
    </g>
    <g id="xtick_4">
     <g id="line2d_4">
      <g>
       <use xlink:href="#mebdc3e9440" x="112.515035" y="199.758416" style="stroke: #000000; stroke-width: 0.8"/>
      </g>
     </g>
     <g id="text_4">
      <!-- −0.5 -->
      <g transform="translate(100.373629 214.356854)scale(0.1 -0.1)">
       <use xlink:href="#DejaVuSans-2212"/>
       <use xlink:href="#DejaVuSans-30" x="83.789062"/>
       <use xlink:href="#DejaVuSans-2e" x="147.412109"/>
       <use xlink:href="#DejaVuSans-35" x="179.199219"/>
      </g>
     </g>
    </g>
    <g id="xtick_5">
     <g id="line2d_5">
      <g>
       <use xlink:href="#mebdc3e9440" x="143.572911" y="199.758416" style="stroke: #000000; stroke-width: 0.8"/>
      </g>
     </g>
    </g>
    <g id="xtick_6">
     <g id="line2d_6">
      <g>
       <use xlink:href="#mebdc3e9440" x="174.630788" y="199.758416" style="stroke: #000000; stroke-width: 0.8"/>
      </g>
     </g>
     <g id="text_5">
      <!-- 0.5 -->
      <g transform="translate(166.679225 214.356854)scale(0.1 -0.1)">
       <use xlink:href="#DejaVuSans-30"/>
       <use xlink:href="#DejaVuSans-2e" x="63.623047"/>
       <use xlink:href="#DejaVuSans-35" x="95.410156"/>
      </g>
     </g>
    </g>
    <g id="xtick_7">
     <g id="line2d_7">
      <g>
       <use xlink:href="#mebdc3e9440" x="205.688664" y="199.758416" style="stroke: #000000; stroke-width: 0.8"/>
      </g>
     </g>
     <g id="text_6">
      <!-- 1.0 -->
      <g transform="translate(197.737102 214.356854)scale(0.1 -0.1)">
       <use xlink:href="#DejaVuSans-31"/>
       <use xlink:href="#DejaVuSans-2e" x="63.623047"/>
       <use xlink:href="#DejaVuSans-30" x="95.410156"/>
      </g>
     </g>
    </g>
    <g id="xtick_8">
     <g id="line2d_8">
      <g>
       <use xlink:href="#mebdc3e9440" x="236.74654" y="199.758416" style="stroke: #000000; stroke-width: 0.8"/>
      </g>
     </g>
     <g id="text_7">
      <!-- 1.5 -->
      <g transform="translate(228.794978 214.356854)scale(0.1 -0.1)">
       <use xlink:href="#DejaVuSans-31"/>
       <use xlink:href="#DejaVuSans-2e" x="63.623047"/>
       <use xlink:href="#DejaVuSans-35" x="95.410156"/>
      </g>
     </g>
    </g>
    <g id="xtick_9">
     <g id="line2d_9">
      <g>
       <use xlink:href="#mebdc3e9440" x="267.804417" y="199.758416" style="stroke: #000000; stroke-width: 0.8"/>
      </g>
     </g>
     <g id="text_8">
      <!-- 2.0 -->
      <g transform="translate(259.852854 214.356854)scale(0.1 -0.1)">
       <use xlink:href="#DejaVuSans-32"/>
       <use xlink:href="#DejaVuSans-2e" x="63.623047"/>
       <use xlink:href="#DejaVuSans-30" x="95.410156"/>
      </g>
     </g>
    </g>
    <g id="xtick_10">
     <g id="line2d_10">
      <defs>
       <path id="m0ec44fc284" d="M 0 0 
L 0 2 
" style="stroke: #000000; stroke-width: 0.6"/>
      </defs>
      <g>
       <use xlink:href="#m0ec44fc284" x="25.552982" y="199.758416" style="stroke: #000000; stroke-width: 0.6"/>
      </g>
     </g>
    </g>
    <g id="xtick_11">
     <g id="line2d_11">
      <g>
       <use xlink:href="#m0ec44fc284" x="31.764557" y="199.758416" style="stroke: #000000; stroke-width: 0.6"/>
      </g>
     </g>
    </g>
    <g id="xtick_12">
     <g id="line2d_12">
      <g>
       <use xlink:href="#m0ec44fc284" x="37.976132" y="199.758416" style="stroke: #000000; stroke-width: 0.6"/>
      </g>
     </g>
    </g>
    <g id="xtick_13">
     <g id="line2d_13">
      <g>
       <use xlink:href="#m0ec44fc284" x="44.187707" y="199.758416" style="stroke: #000000; stroke-width: 0.6"/>
      </g>
     </g>
    </g>
    <g id="xtick_14">
     <g id="line2d_14">
      <g>
       <use xlink:href="#m0ec44fc284" x="56.610858" y="199.758416" style="stroke: #000000; stroke-width: 0.6"/>
      </g>
     </g>
    </g>
    <g id="xtick_15">
     <g id="line2d_15">
      <g>
       <use xlink:href="#m0ec44fc284" x="62.822433" y="199.758416" style="stroke: #000000; stroke-width: 0.6"/>
      </g>
     </g>
    </g>
    <g id="xtick_16">
     <g id="line2d_16">
      <g>
       <use xlink:href="#m0ec44fc284" x="69.034008" y="199.758416" style="stroke: #000000; stroke-width: 0.6"/>
      </g>
     </g>
    </g>
    <g id="xtick_17">
     <g id="line2d_17">
      <g>
       <use xlink:href="#m0ec44fc284" x="75.245584" y="199.758416" style="stroke: #000000; stroke-width: 0.6"/>
      </g>
     </g>
    </g>
    <g id="xtick_18">
     <g id="line2d_18">
      <g>
       <use xlink:href="#m0ec44fc284" x="87.668734" y="199.758416" style="stroke: #000000; stroke-width: 0.6"/>
      </g>
     </g>
    </g>
    <g id="xtick_19">
     <g id="line2d_19">
      <g>
       <use xlink:href="#m0ec44fc284" x="93.880309" y="199.758416" style="stroke: #000000; stroke-width: 0.6"/>
      </g>
     </g>
    </g>
    <g id="xtick_20">
     <g id="line2d_20">
      <g>
       <use xlink:href="#m0ec44fc284" x="100.091885" y="199.758416" style="stroke: #000000; stroke-width: 0.6"/>
      </g>
     </g>
    </g>
    <g id="xtick_21">
     <g id="line2d_21">
      <g>
       <use xlink:href="#m0ec44fc284" x="106.30346" y="199.758416" style="stroke: #000000; stroke-width: 0.6"/>
      </g>
     </g>
    </g>
    <g id="xtick_22">
     <g id="line2d_22">
      <g>
       <use xlink:href="#m0ec44fc284" x="118.72661" y="199.758416" style="stroke: #000000; stroke-width: 0.6"/>
      </g>
     </g>
    </g>
    <g id="xtick_23">
     <g id="line2d_23">
      <g>
       <use xlink:href="#m0ec44fc284" x="124.938186" y="199.758416" style="stroke: #000000; stroke-width: 0.6"/>
      </g>
     </g>
    </g>
    <g id="xtick_24">
     <g id="line2d_24">
      <g>
       <use xlink:href="#m0ec44fc284" x="131.149761" y="199.758416" style="stroke: #000000; stroke-width: 0.6"/>
      </g>
     </g>
    </g>
    <g id="xtick_25">
     <g id="line2d_25">
      <g>
       <use xlink:href="#m0ec44fc284" x="137.361336" y="199.758416" style="stroke: #000000; stroke-width: 0.6"/>
      </g>
     </g>
    </g>
    <g id="xtick_26">
     <g id="line2d_26">
      <g>
       <use xlink:href="#m0ec44fc284" x="149.784487" y="199.758416" style="stroke: #000000; stroke-width: 0.6"/>
      </g>
     </g>
    </g>
    <g id="xtick_27">
     <g id="line2d_27">
      <g>
       <use xlink:href="#m0ec44fc284" x="155.996062" y="199.758416" style="stroke: #000000; stroke-width: 0.6"/>
      </g>
     </g>
    </g>
    <g id="xtick_28">
     <g id="line2d_28">
      <g>
       <use xlink:href="#m0ec44fc284" x="162.207637" y="199.758416" style="stroke: #000000; stroke-width: 0.6"/>
      </g>
     </g>
    </g>
    <g id="xtick_29">
     <g id="line2d_29">
      <g>
       <use xlink:href="#m0ec44fc284" x="168.419212" y="199.758416" style="stroke: #000000; stroke-width: 0.6"/>
      </g>
     </g>
    </g>
    <g id="xtick_30">
     <g id="line2d_30">
      <g>
       <use xlink:href="#m0ec44fc284" x="180.842363" y="199.758416" style="stroke: #000000; stroke-width: 0.6"/>
      </g>
     </g>
    </g>
    <g id="xtick_31">
     <g id="line2d_31">
      <g>
       <use xlink:href="#m0ec44fc284" x="187.053938" y="199.758416" style="stroke: #000000; stroke-width: 0.6"/>
      </g>
     </g>
    </g>
    <g id="xtick_32">
     <g id="line2d_32">
      <g>
       <use xlink:href="#m0ec44fc284" x="193.265513" y="199.758416" style="stroke: #000000; stroke-width: 0.6"/>
      </g>
     </g>
    </g>
    <g id="xtick_33">
     <g id="line2d_33">
      <g>
       <use xlink:href="#m0ec44fc284" x="199.477089" y="199.758416" style="stroke: #000000; stroke-width: 0.6"/>
      </g>
     </g>
    </g>
    <g id="xtick_34">
     <g id="line2d_34">
      <g>
       <use xlink:href="#m0ec44fc284" x="211.900239" y="199.758416" style="stroke: #000000; stroke-width: 0.6"/>
      </g>
     </g>
    </g>
    <g id="xtick_35">
     <g id="line2d_35">
      <g>
       <use xlink:href="#m0ec44fc284" x="218.111815" y="199.758416" style="stroke: #000000; stroke-width: 0.6"/>
      </g>
     </g>
    </g>
    <g id="xtick_36">
     <g id="line2d_36">
      <g>
       <use xlink:href="#m0ec44fc284" x="224.32339" y="199.758416" style="stroke: #000000; stroke-width: 0.6"/>
      </g>
     </g>
    </g>
    <g id="xtick_37">
     <g id="line2d_37">
      <g>
       <use xlink:href="#m0ec44fc284" x="230.534965" y="199.758416" style="stroke: #000000; stroke-width: 0.6"/>
      </g>
     </g>
    </g>
    <g id="xtick_38">
     <g id="line2d_38">
      <g>
       <use xlink:href="#m0ec44fc284" x="242.958116" y="199.758416" style="stroke: #000000; stroke-width: 0.6"/>
      </g>
     </g>
    </g>
    <g id="xtick_39">
     <g id="line2d_39">
      <g>
       <use xlink:href="#m0ec44fc284" x="249.169691" y="199.758416" style="stroke: #000000; stroke-width: 0.6"/>
      </g>
     </g>
    </g>
    <g id="xtick_40">
     <g id="line2d_40">
      <g>
       <use xlink:href="#m0ec44fc284" x="255.381266" y="199.758416" style="stroke: #000000; stroke-width: 0.6"/>
      </g>
     </g>
    </g>
    <g id="xtick_41">
     <g id="line2d_41">
      <g>
       <use xlink:href="#m0ec44fc284" x="261.592841" y="199.758416" style="stroke: #000000; stroke-width: 0.6"/>
      </g>
     </g>
    </g>
   </g>
   <g id="matplotlib.axis_2">
    <g id="ytick_1">
     <g id="line2d_42">
      <defs>
       <path id="m4d6484663e" d="M 0 0 
L -3.5 0 
" style="stroke: #000000; stroke-width: 0.8"/>
      </defs>
      <g>
       <use xlink:href="#m4d6484663e" x="143.572911" y="323.989922" style="stroke: #000000; stroke-width: 0.8"/>
      </g>
     </g>
     <g id="text_9">
      <!-- −2 -->
      <g transform="translate(121.830724 327.78914)scale(0.1 -0.1)">
       <use xlink:href="#DejaVuSans-2212"/>
       <use xlink:href="#DejaVuSans-32" x="83.789062"/>
      </g>
     </g>
    </g>
    <g id="ytick_2">
     <g id="line2d_43">
      <g>
       <use xlink:href="#m4d6484663e" x="143.572911" y="261.874169" style="stroke: #000000; stroke-width: 0.8"/>
      </g>
     </g>
     <g id="text_10">
      <!-- −1 -->
      <g transform="translate(121.830724 265.673388)scale(0.1 -0.1)">
       <use xlink:href="#DejaVuSans-2212"/>
       <use xlink:href="#DejaVuSans-31" x="83.789062"/>
      </g>
     </g>
    </g>
    <g id="ytick_3">
     <g id="line2d_44">
      <g>
       <use xlink:href="#m4d6484663e" x="143.572911" y="199.758416" style="stroke: #000000; stroke-width: 0.8"/>
      </g>
     </g>
    </g>
    <g id="ytick_4">
     <g id="line2d_45">
      <g>
       <use xlink:href="#m4d6484663e" x="143.572911" y="137.642664" style="stroke: #000000; stroke-width: 0.8"/>
      </g>
     </g>
     <g id="text_11">
      <!-- 1 -->
      <g transform="translate(130.210411 141.441883)scale(0.1 -0.1)">
       <use xlink:href="#DejaVuSans-31"/>
      </g>
     </g>
    </g>
    <g id="ytick_5">
     <g id="line2d_46">
      <g>
       <use xlink:href="#m4d6484663e" x="143.572911" y="75.526911" style="stroke: #000000; stroke-width: 0.8"/>
      </g>
     </g>
     <g id="text_12">
      <!-- 2 -->
      <g transform="translate(130.210411 79.32613)scale(0.1 -0.1)">
       <use xlink:href="#DejaVuSans-32"/>
      </g>
     </g>
    </g>
    <g id="ytick_6">
     <g id="line2d_47">
      <g>
       <use xlink:href="#m4d6484663e" x="143.572911" y="13.411159" style="stroke: #000000; stroke-width: 0.8"/>
      </g>
     </g>
     <g id="text_13">
      <!-- 3 -->
      <g transform="translate(130.210411 17.210377)scale(0.1 -0.1)">
       <defs>
        <path id="DejaVuSans-33" d="M 2597 2516 
Q 3050 2419 3304 2112 
Q 3559 1806 3559 1356 
Q 3559 666 3084 287 
Q 2609 -91 1734 -91 
Q 1441 -91 1130 -33 
Q 819 25 488 141 
L 488 750 
Q 750 597 1062 519 
Q 1375 441 1716 441 
Q 2309 441 2620 675 
Q 2931 909 2931 1356 
Q 2931 1769 2642 2001 
Q 2353 2234 1838 2234 
L 1294 2234 
L 1294 2753 
L 1863 2753 
Q 2328 2753 2575 2939 
Q 2822 3125 2822 3475 
Q 2822 3834 2567 4026 
Q 2313 4219 1838 4219 
Q 1578 4219 1281 4162 
Q 984 4106 628 3988 
L 628 4550 
Q 988 4650 1302 4700 
Q 1616 4750 1894 4750 
Q 2613 4750 3031 4423 
Q 3450 4097 3450 3541 
Q 3450 3153 3228 2886 
Q 3006 2619 2597 2516 
z
" transform="scale(0.015625)"/>
       </defs>
       <use xlink:href="#DejaVuSans-33"/>
      </g>
     </g>
    </g>
    <g id="ytick_7">
     <g id="line2d_48">
      <defs>
       <path id="m4c4cf32493" d="M 0 0 
L -2 0 
" style="stroke: #000000; stroke-width: 0.6"/>
      </defs>
      <g>
       <use xlink:href="#m4c4cf32493" x="143.572911" y="311.566771" style="stroke: #000000; stroke-width: 0.6"/>
      </g>
     </g>
    </g>
    <g id="ytick_8">
     <g id="line2d_49">
      <g>
       <use xlink:href="#m4c4cf32493" x="143.572911" y="299.143621" style="stroke: #000000; stroke-width: 0.6"/>
      </g>
     </g>
    </g>
    <g id="ytick_9">
     <g id="line2d_50">
      <g>
       <use xlink:href="#m4c4cf32493" x="143.572911" y="286.72047" style="stroke: #000000; stroke-width: 0.6"/>
      </g>
     </g>
    </g>
    <g id="ytick_10">
     <g id="line2d_51">
      <g>
       <use xlink:href="#m4c4cf32493" x="143.572911" y="274.297319" style="stroke: #000000; stroke-width: 0.6"/>
      </g>
     </g>
    </g>
    <g id="ytick_11">
     <g id="line2d_52">
      <g>
       <use xlink:href="#m4c4cf32493" x="143.572911" y="249.451018" style="stroke: #000000; stroke-width: 0.6"/>
      </g>
     </g>
    </g>
    <g id="ytick_12">
     <g id="line2d_53">
      <g>
       <use xlink:href="#m4c4cf32493" x="143.572911" y="237.027868" style="stroke: #000000; stroke-width: 0.6"/>
      </g>
     </g>
    </g>
    <g id="ytick_13">
     <g id="line2d_54">
      <g>
       <use xlink:href="#m4c4cf32493" x="143.572911" y="224.604717" style="stroke: #000000; stroke-width: 0.6"/>
      </g>
     </g>
    </g>
    <g id="ytick_14">
     <g id="line2d_55">
      <g>
       <use xlink:href="#m4c4cf32493" x="143.572911" y="212.181567" style="stroke: #000000; stroke-width: 0.6"/>
      </g>
     </g>
    </g>
    <g id="ytick_15">
     <g id="line2d_56">
      <g>
       <use xlink:href="#m4c4cf32493" x="143.572911" y="187.335266" style="stroke: #000000; stroke-width: 0.6"/>
      </g>
     </g>
    </g>
    <g id="ytick_16">
     <g id="line2d_57">
      <g>
       <use xlink:href="#m4c4cf32493" x="143.572911" y="174.912115" style="stroke: #000000; stroke-width: 0.6"/>
      </g>
     </g>
    </g>
    <g id="ytick_17">
     <g id="line2d_58">
      <g>
       <use xlink:href="#m4c4cf32493" x="143.572911" y="162.488965" style="stroke: #000000; stroke-width: 0.6"/>
      </g>
     </g>
    </g>
    <g id="ytick_18">
     <g id="line2d_59">
      <g>
       <use xlink:href="#m4c4cf32493" x="143.572911" y="150.065814" style="stroke: #000000; stroke-width: 0.6"/>
      </g>
     </g>
    </g>
    <g id="ytick_19">
     <g id="line2d_60">
      <g>
       <use xlink:href="#m4c4cf32493" x="143.572911" y="125.219513" style="stroke: #000000; stroke-width: 0.6"/>
      </g>
     </g>
    </g>
    <g id="ytick_20">
     <g id="line2d_61">
      <g>
       <use xlink:href="#m4c4cf32493" x="143.572911" y="112.796363" style="stroke: #000000; stroke-width: 0.6"/>
      </g>
     </g>
    </g>
    <g id="ytick_21">
     <g id="line2d_62">
      <g>
       <use xlink:href="#m4c4cf32493" x="143.572911" y="100.373212" style="stroke: #000000; stroke-width: 0.6"/>
      </g>
     </g>
    </g>
    <g id="ytick_22">
     <g id="line2d_63">
      <g>
       <use xlink:href="#m4c4cf32493" x="143.572911" y="87.950062" style="stroke: #000000; stroke-width: 0.6"/>
      </g>
     </g>
    </g>
    <g id="ytick_23">
     <g id="line2d_64">
      <g>
       <use xlink:href="#m4c4cf32493" x="143.572911" y="63.103761" style="stroke: #000000; stroke-width: 0.6"/>
      </g>
     </g>
    </g>
    <g id="ytick_24">
     <g id="line2d_65">
      <g>
       <use xlink:href="#m4c4cf32493" x="143.572911" y="50.68061" style="stroke: #000000; stroke-width: 0.6"/>
      </g>
     </g>
    </g>
    <g id="ytick_25">
     <g id="line2d_66">
      <g>
       <use xlink:href="#m4c4cf32493" x="143.572911" y="38.25746" style="stroke: #000000; stroke-width: 0.6"/>
      </g>
     </g>
    </g>
    <g id="ytick_26">
     <g id="line2d_67">
      <g>
       <use xlink:href="#m4c4cf32493" x="143.572911" y="25.834309" style="stroke: #000000; stroke-width: 0.6"/>
      </g>
     </g>
    </g>
   </g>
   <g id="line2d_68">
    <path d="M 205.688664 199.758416 
L 209.367044 197.793908 
L 211.702063 196.411552 
L 216.106474 193.495078 
L 220.573146 190.081937 
L 225.485901 185.715011 
L 227.083403 184.13636 
L 232.163203 178.49869 
L 234.20572 175.921178 
L 236.608532 172.610233 
L 238.380797 169.94216 
L 241.325947 164.983032 
L 243.350892 161.088246 
L 245.073237 157.359899 
L 247.029239 152.489207 
L 248.818582 147.149503 
L 250.044404 142.699722 
L 251.059006 138.162561 
L 251.84859 133.605891 
L 252.64539 126.406647 
L 252.867053 122.045733 
L 252.894929 117.653853 
L 252.505185 110.287338 
L 252.080253 106.409396 
L 250.999143 99.780416 
L 250.098426 95.663084 
L 249.023995 91.56811 
L 247.642783 87.100343 
L 244.872413 79.745904 
L 243.265823 76.11815 
L 241.517039 72.541378 
L 238.976863 67.878224 
L 237.11501 64.778631 
L 235.143267 61.73574 
L 232.477384 57.950711 
L 229.817614 54.492216 
L 226.044339 50.039479 
L 223.439857 47.231094 
L 220.731431 44.51039 
L 217.878802 41.842125 
L 213.954008 38.46636 
L 209.898748 35.298821 
L 203.448924 30.849087 
L 200.165937 28.832745 
L 196.809458 26.929547 
L 193.26366 25.082395 
L 187.242504 22.304577 
L 180.730469 19.772334 
L 177.68918 18.747619 
L 173.116344 17.387317 
L 166.014955 15.687344 
L 159.925292 14.61363 
L 155.753091 14.076645 
L 151.562253 13.696978 
L 147.358571 13.475266 
L 143.519715 13.411171 
L 139.680926 13.478919 
L 135.525 13.701189 
L 130.768488 14.146845 
L 126.855363 14.668254 
L 120.608415 15.795764 
L 115.81212 16.914156 
L 111.07409 18.242046 
L 103.98503 20.662385 
L 99.906565 22.303195 
L 95.90138 24.101901 
L 92.430637 25.818882 
L 86.185291 29.306348 
L 82.867903 31.383669 
L 78.828265 34.144293 
L 74.924237 37.075516 
L 71.859145 39.576522 
L 68.862502 42.208957 
L 65.704 45.205536 
L 62.675628 48.318356 
L 57.427702 54.36833 
L 55.293696 57.111161 
L 53.254487 59.914825 
L 51.057685 63.165635 
L 47.680352 68.73311 
L 45.376072 73.037627 
L 43.687478 76.533936 
L 42.134424 80.078119 
L 40.166894 85.176377 
L 38.279612 91.019291 
L 36.913772 96.225789 
L 36.225872 99.383046 
L 35.538069 103.166926 
L 34.996257 106.957628 
L 34.55631 111.279582 
L 34.241206 119.959542 
L 34.493654 126.313398 
L 35.314989 133.724832 
L 35.808631 136.699409 
L 37.394445 143.844203 
L 38.542506 147.852391 
L 40.483748 153.467189 
L 42.521658 158.375356 
L 43.678595 160.849725 
L 47.302399 167.570331 
L 49.341844 170.833763 
L 52.306627 175.079414 
L 54.864377 178.354847 
L 59.80355 183.872481 
L 65.836544 189.470995 
L 67.787061 191.058778 
L 70.417416 193.048642 
L 76.132351 196.830539 
L 78.852299 198.393568 
L 83.713737 200.841175 
L 88.003876 202.656923 
L 93.341468 204.494521 
L 97.726857 205.670987 
L 105.018377 206.985824 
L 109.021997 207.372519 
L 113.754989 207.522399 
L 118.499556 207.332324 
L 122.298542 206.92638 
L 125.712118 206.360691 
L 130.550477 205.213208 
L 132.500669 204.62868 
L 139.072846 202.084751 
L 141.949823 200.658716 
L 146.180345 198.15149 
L 148.34081 196.652684 
L 151.528512 194.115985 
L 154.592859 191.226624 
L 156.644738 188.973324 
L 159.653448 185.024614 
L 161.870888 181.372509 
L 163.23681 178.59935 
L 164.619468 175.050114 
L 165.441063 172.232432 
L 165.857061 170.355458 
L 166.312264 167.30155 
L 166.489634 164.372015 
L 166.333092 160.609508 
L 165.957368 158.009958 
L 165.278516 155.186936 
L 163.992147 151.68798 
L 162.900645 149.515207 
L 161.618014 147.463425 
L 160.51176 145.988023 
L 159.314718 144.618523 
L 157.072876 142.532411 
L 154.097915 140.483092 
L 152.967396 139.876255 
L 150.800594 138.93866 
L 149.060476 138.381061 
L 147.287699 137.978219 
L 144.768108 137.677184 
L 143.135644 137.647281 
L 141.505296 137.746119 
L 139.852479 137.979247 
L 136.704894 138.809715 
L 135.458625 139.288226 
L 133.798614 140.070624 
L 132.270634 140.951717 
L 129.975231 142.612422 
L 128.228524 144.207191 
L 127.036154 145.504464 
L 125.927456 146.903686 
L 124.368933 149.297282 
L 123.015422 152.002942 
L 122.026756 154.663159 
L 121.142817 158.257099 
L 120.748709 161.323672 
L 120.677017 165.118824 
L 120.886343 167.776598 
L 121.479638 171.275345 
L 121.778815 172.524296 
L 122.454345 174.832479 
L 123.29054 177.135495 
L 125.049872 180.950017 
L 126.333817 183.219499 
L 127.570868 185.14011 
L 130.181152 188.593891 
L 132.052432 190.70358 
L 134.300488 192.935556 
L 136.089962 194.519444 
L 138.129182 196.149297 
L 140.282235 197.6949 
L 142.563533 199.160837 
L 145.821219 200.986515 
L 148.327702 202.201188 
L 151.664803 203.589729 
L 156.208509 205.10304 
L 159.602982 205.975607 
L 164.311975 206.850477 
L 168.027413 207.28184 
L 173.706856 207.522856 
L 176.165801 207.475117 
L 181.346304 207.079886 
L 184.979933 206.565655 
L 192.621907 204.840806 
L 198.079533 203.059152 
L 203.247629 200.92571 
L 205.688664 199.758416 
L 205.688664 199.758416 
" clip-path="url(#p10af7edc2b)" style="fill: none; stroke: #ff0000; stroke-width: 2; stroke-linecap: square"/>
   </g>
   <g id="line2d_69">
    <path d="M 267.804417 199.758416 
L 267.683541 194.279513 
L 267.241074 187.940949 
L 266.766422 183.732634 
L 265.536577 176.129385 
L 263.890847 168.822011 
L 261.843944 161.73961 
L 260.347259 157.364801 
L 257.326816 149.823297 
L 256.297396 147.54101 
L 252.512495 140.045486 
L 251.038782 137.432231 
L 247.451463 131.620957 
L 244.75484 127.677321 
L 242.59334 124.735609 
L 237.416983 118.35352 
L 233.254675 113.789537 
L 228.940373 109.503979 
L 222.766382 104.040805 
L 216.482426 99.171789 
L 211.061004 95.456814 
L 207.472439 93.220549 
L 200.297547 89.233385 
L 196.070325 87.164063 
L 188.869956 84.079358 
L 185.334849 82.756675 
L 180.649653 81.188681 
L 175.194426 79.61872 
L 168.585947 78.071051 
L 163.145572 77.078435 
L 158.676142 76.448403 
L 151.160458 75.758836 
L 145.560082 75.542805 
L 141.906383 75.53809 
L 135.403349 75.795821 
L 132.686706 76.004801 
L 124.688836 76.970556 
L 120.258795 77.734161 
L 115.179436 78.815135 
L 107.881773 80.764259 
L 104.851228 81.715636 
L 99.667791 83.543928 
L 95.466945 85.218978 
L 89.91513 87.712402 
L 83.869898 90.813398 
L 79.5106 93.318353 
L 74.870123 96.252891 
L 71.808322 98.351757 
L 66.186692 102.57385 
L 64.224665 104.169072 
L 57.7425 109.944122 
L 54.272801 113.393162 
L 49.980322 118.064511 
L 45.10614 124.010401 
L 42.286438 127.824299 
L 39.652589 131.684681 
L 36.461059 136.82577 
L 32.676598 143.763107 
L 31.055801 147.095651 
L 28.151086 153.809869 
L 26.169047 159.140694 
L 24.668769 163.768533 
L 23.244486 168.862834 
L 22.292431 172.841656 
L 21.488904 176.759243 
L 20.670277 181.636348 
L 19.81393 188.933385 
L 19.365836 197.294832 
L 19.387956 203.158961 
L 19.7432 209.741877 
L 20.345116 215.518404 
L 20.903789 219.399021 
L 22.619737 228.109723 
L 24.740153 235.983302 
L 26.500503 241.321839 
L 28.7087 247.083672 
L 30.591307 251.417142 
L 34.070654 258.433134 
L 34.859571 259.882259 
L 37.586258 264.568108 
L 39.524936 267.636879 
L 44.41641 274.601286 
L 48.987815 280.301116 
L 53.643333 285.468029 
L 56.834174 288.695801 
L 59.748969 291.448185 
L 64.477999 295.557486 
L 68.750106 298.930059 
L 74.243733 302.845428 
L 79.862078 306.409233 
L 81.002805 307.082452 
L 85.057286 309.345772 
L 88.61855 311.174237 
L 96.516397 314.732984 
L 99.999399 316.097644 
L 106.703666 318.392836 
L 111.223674 319.704211 
L 115.083609 320.679161 
L 122.923534 322.261764 
L 131.642738 323.415757 
L 134.053436 323.624661 
L 141.333443 323.969735 
L 146.769265 323.948795 
L 152.938553 323.636387 
L 156.651023 323.299624 
L 162.383313 322.557584 
L 165.717038 322.000408 
L 173.556123 320.317422 
L 179.958117 318.542185 
L 183.560241 317.378484 
L 189.157105 315.324623 
L 193.773561 313.395389 
L 200.510225 310.174037 
L 206.045462 307.139268 
L 208.775229 305.503982 
L 214.685377 301.623445 
L 219.178681 298.33445 
L 224.827847 293.732362 
L 230.183673 288.820433 
L 233.783418 285.172299 
L 237.079723 281.550488 
L 240.430061 277.554042 
L 244.493216 272.205355 
L 248.122364 266.86191 
L 251.971132 260.448552 
L 255.102918 254.480664 
L 257.894675 248.379412 
L 259.122657 245.384321 
L 261.692831 238.244146 
L 263.05958 233.764339 
L 264.042351 230.099496 
L 265.421286 223.974951 
L 266.509513 217.648608 
L 267.29659 210.979747 
L 267.515701 208.223161 
L 267.804417 199.758416 
L 267.804417 199.758416 
" clip-path="url(#p10af7edc2b)" style="fill: none; stroke: #0000ff; stroke-width: 2; stroke-linecap: square"/>
   </g>
   <g id="patch_3">
    <path d="M 143.572911 330.180906 
L 143.572911 7.2 
" style="fill: none; stroke: #000000; stroke-width: 0.8; stroke-linejoin: miter; stroke-linecap: square"/>
   </g>
   <g id="patch_4">
    <path d="M 14.397064 199.758416 
L 272.773188 199.758416 
" style="fill: none; stroke: #000000; stroke-width: 0.8; stroke-linejoin: miter; stroke-linecap: square"/>
   </g>
  </g>
 </g>
 <defs>
  <clipPath id="p10af7edc2b">
   <rect x="14.397064" y="7.2" width="258.376124" height="322.980906"/>
  </clipPath>
 </defs>
</svg>
