<?xml version="1.0" encoding="utf-8" standalone="no"?>
<!DOCTYPE svg PUBLIC "-//W3C//DTD SVG 1.1//EN"
  "http://www.w3.org/Graphics/SVG/1.1/DTD/svg11.dtd">
<svg xmlns:xlink="http://www.w3.org/1999/xlink" width="327.798914pt" height="333.423259pt" viewBox="0 0 327.798914 333.423259" xmlns="http://www.w3.org/2000/svg" version="1.1">
 <metadata>
  <rdf:RDF xmlns:dc="http://purl.org/dc/elements/1.1/" xmlns:cc="http://creativecommons.org/ns#" xmlns:rdf="http://www.w3.org/1999/02/22-rdf-syntax-ns#">
   <cc:Work>
    <dc:type rdf:resource="http://purl.org/dc/dcmitype/StillImage"/>
    <dc:date>2022-11-10T16:46:56.970445</dc:date>
    <dc:format>image/svg+xml</dc:format>
    <dc:creator>
     <cc:Agent>
      <dc:title>Matplotlib v3.5.1, https://matplotlib.org/</dc:title>
     </cc:Agent>
    </dc:creator>
   </cc:Work>
  </rdf:RDF>
 </metadata>
 <defs>
  <style type="text/css">*{stroke-linejoin: round; stroke-linecap: butt}</style>
 </defs>
 <g id="figure_1">
  <g id="patch_1">
   <path d="M -0 333.423259 
L 327.798914 333.423259 
L 327.798914 0 
L -0 0 
z
" style="fill: #ffffff"/>
  </g>
  <g id="axes_1">
   <g id="patch_2">
    <path d="M 13.772256 325.989324 
L 303.368065 325.989324 
L 303.368065 7.433935 
L 13.772256 7.433935 
z
" style="fill: #ffffff"/>
   </g>
   <g id="patch_3">
    <path d="M 297.798914 305.940384 
L 296.625875 303.604189 
L 295.018662 300.435397 
L 294.116175 298.672317 
L 292.675141 295.881396 
L 291.052455 292.774371 
L 289.435267 289.715503 
L 288.491438 287.947638 
L 286.34767 283.979733 
L 285.57192 282.560163 
L 284.447931 280.518674 
L 282.673276 277.332338 
L 280.455785 273.414483 
L 279.066472 270.995844 
L 277.995062 269.149572 
L 277.080547 267.586709 
L 275.832219 265.472768 
L 274.387385 263.054009 
L 273.043586 260.831305 
L 271.659395 258.568912 
L 269.18079 254.586519 
L 268.488627 253.490179 
L 267.486282 251.91473 
L 265.21626 248.400148 
L 264.780806 247.734414 
L 262.959454 244.979403 
L 261.119259 242.244286 
L 259.537589 239.932292 
L 258.589541 238.563716 
L 256.83573 236.065997 
L 256.094391 235.023492 
L 254.813968 233.241497 
L 253.534709 231.48464 
L 251.973357 229.372229 
L 250.107566 226.893858 
L 248.974629 225.413354 
L 247.30792 223.26884 
L 245.926915 221.522164 
L 244.557613 219.817341 
L 243.813002 218.901581 
L 241.921559 216.611205 
L 240.523338 214.951115 
L 238.971818 213.141884 
L 237.779735 211.775286 
L 236.690994 210.544993 
L 234.802877 208.451766 
L 233.554685 207.096096 
L 231.90211 205.335654 
L 230.522073 203.895599 
L 229.125503 202.466143 
L 227.446047 200.784245 
L 226.083926 199.4499 
L 225.640762 199.021519 
L 224.073161 197.528849 
L 222.860558 196.398422 
L 220.303022 194.083462 
L 219.613889 193.475762 
L 218.4471 192.462402 
L 216.565994 190.869834 
L 214.930906 189.526842 
L 213.895971 188.696638 
L 212.120197 187.307996 
L 210.69631 186.227249 
L 209.564274 185.388803 
L 208.242914 184.433417 
L 207.084566 183.616525 
L 204.838802 182.087672 
L 204.714088 182.004893 
L 202.721608 180.712691 
L 200.660122 179.43576 
L 199.643964 178.828791 
L 198.018963 177.888976 
L 196.484647 177.036424 
L 196.035151 176.793064 
L 193.856359 175.65458 
L 192.233458 174.850879 
L 191.141838 174.331566 
L 190.372042 173.975644 
L 188.823221 173.285327 
L 187.842751 172.866138 
L 186.482379 172.307398 
L 184.408006 171.506575 
L 183.658687 171.232493 
L 181.308955 170.425322 
L 179.643305 169.901182 
L 179.107287 169.740986 
L 177.332511 169.240028 
L 176.133835 168.927283 
L 175.113361 168.677297 
L 173.123045 168.23277 
L 171.775737 167.964153 
L 169.986446 167.647726 
L 168.598113 167.433893 
L 167.477715 167.281516 
L 165.64306 167.070937 
L 164.198874 166.939186 
L 163.267214 166.87009 
L 162.237603 166.808234 
L 160.070647 166.7278 
L 159.029848 166.713147 
L 158.303778 166.712139 
L 156.528963 166.741555 
L 154.636321 166.822778 
L 153.527894 166.894239 
L 151.841304 167.036832 
L 150.821491 167.142876 
L 149.344977 167.322883 
L 147.544109 167.584824 
L 147.152236 167.647995 
L 144.755001 168.082457 
L 144.264585 168.181509 
L 141.978075 168.688932 
L 140.910839 168.95148 
L 139.757024 169.253734 
L 138.849474 169.504914 
L 137.104673 170.021055 
L 135.794459 170.437387 
L 133.980976 171.054324 
L 132.800412 171.481333 
L 131.386112 172.019243 
L 130.044473 172.556075 
L 128.56736 173.177019 
L 126.512224 174.093088 
L 125.842553 174.404697 
L 124.111335 175.240117 
L 122.641113 175.983396 
L 121.759057 176.444226 
L 119.495723 177.677839 
L 118.905547 178.011605 
L 117.336339 178.923389 
L 115.474815 180.050891 
L 114.049924 180.947564 
L 112.762392 181.782882 
L 111.448817 182.659635 
L 109.611329 183.927665 
L 109.452725 184.039389 
L 107.27961 185.606581 
L 106.139488 186.455937 
L 104.033549 188.073897 
L 103.705716 188.331497 
L 102.59001 189.219747 
L 100.657642 190.800474 
L 99.782 191.534431 
L 97.215227 193.749348 
L 96.526322 194.359926 
L 95.049996 195.691356 
L 92.984395 197.606775 
L 92.272695 198.280926 
L 90.025567 200.457254 
L 89.514771 200.962075 
L 88.585983 201.889601 
L 86.878131 203.627474 
L 85.395212 205.170446 
L 83.970903 206.682175 
L 81.883254 208.950617 
L 81.220289 209.684094 
L 79.697338 211.392932 
L 78.403702 212.870637 
L 76.309364 215.313936 
L 75.800985 215.916525 
L 73.677148 218.474095 
L 72.152912 220.34955 
L 70.976122 221.820329 
L 69.333484 223.906599 
L 68.813306 224.575344 
L 67.595767 226.155818 
L 65.410345 229.046104 
L 64.686831 230.018089 
L 63.010655 232.298793 
L 61.316521 234.644942 
L 59.521524 237.175755 
L 58.47676 238.670104 
L 57.621879 239.904524 
L 55.518595 242.986285 
L 53.649025 245.77895 
L 52.586896 247.387869 
L 52.056332 248.197639 
L 50.063941 251.274618 
L 48.421284 253.854369 
L 47.182033 255.82623 
L 46.206076 257.394675 
L 45.188178 259.045098 
L 43.431203 261.928882 
L 42.354703 263.717687 
L 39.986371 267.711708 
L 38.944649 269.494011 
L 37.053496 272.769461 
L 35.684733 275.172186 
L 34.830769 276.684867 
L 32.989189 279.98263 
L 32.022443 281.733307 
L 30.044575 285.356849 
L 28.598217 288.042213 
L 28.080886 289.010007 
L 25.664993 293.580418 
L 24.633581 295.557193 
L 23.76403 297.235622 
L 22.819615 299.070858 
L 20.648648 303.338173 
L 19.341406 305.940384 
L 19.341406 27.482875 
L 21.067151 30.912974 
L 22.623031 33.968777 
L 22.889348 34.488347 
L 24.659837 37.916576 
L 26.949105 42.282575 
L 27.992625 44.247754 
L 28.78813 45.73536 
L 30.305292 48.547271 
L 32.271011 52.141366 
L 33.613673 54.564366 
L 34.341227 55.86651 
L 35.966555 58.747983 
L 37.317648 61.114392 
L 39.511744 64.901436 
L 39.950135 65.649816 
L 42.019053 69.144422 
L 42.529396 69.996989 
L 45.141655 74.302372 
L 45.393045 74.711529 
L 46.642384 76.731459 
L 49.114437 80.662196 
L 50.486202 82.805527 
L 51.277919 84.030253 
L 52.330272 85.644224 
L 54.367646 88.723687 
L 56.004356 91.154362 
L 57.086229 92.739924 
L 59.049922 95.574903 
L 59.267585 95.885732 
L 61.415946 98.917147 
L 62.951675 101.04348 
L 64.076484 102.579368 
L 66.037435 105.213519 
L 66.654885 106.031507 
L 68.298073 108.181696 
L 69.328167 109.509844 
L 71.218843 111.907917 
L 72.402687 113.383324 
L 73.362313 114.564518 
L 75.253804 116.854003 
L 76.845723 118.741052 
L 77.576597 119.595232 
L 79.974636 122.343952 
L 81.136348 123.645847 
L 82.038196 124.643153 
L 84.369538 127.167124 
L 85.25123 128.101318 
L 86.857656 129.774696 
L 88.416144 131.36271 
L 89.924722 132.866637 
L 91.125774 134.040611 
L 92.756807 135.601694 
L 94.133072 136.88921 
L 95.235648 137.901054 
L 95.925499 138.525256 
L 97.035578 139.515345 
L 98.599016 140.879767 
L 100.921371 142.841683 
L 102.337299 143.999836 
L 103.383268 144.836888 
L 104.725939 145.888343 
L 106.106731 146.942643 
L 107.775614 148.180357 
L 108.447532 148.667383 
L 110.736616 150.277898 
L 111.252915 150.630743 
L 113.757863 152.288301 
L 113.959783 152.417989 
L 116.308826 153.883673 
L 117.597435 154.654033 
L 118.290799 155.058671 
L 120.128778 156.097875 
L 121.589937 156.889399 
L 122.823986 157.534007 
L 124.233193 158.243355 
L 126.109359 159.143483 
L 127.558719 159.804224 
L 128.926911 160.400273 
L 129.689642 160.720882 
L 130.76826 161.160006 
L 132.395987 161.791041 
L 133.856482 162.32485 
L 135.164077 162.776776 
L 136.851821 163.323779 
L 137.770566 163.604347 
L 140.328823 164.321704 
L 140.867801 164.460848 
L 142.448225 164.844797 
L 143.229716 165.021395 
L 144.886414 165.366757 
L 146.280762 165.626873 
L 147.909559 165.895358 
L 149.754785 166.153477 
L 151.096555 166.310457 
L 152.356716 166.434338 
L 153.72798 166.543225 
L 155.209567 166.630514 
L 156.251755 166.673024 
L 158.376442 166.71136 
L 158.830637 166.711142 
L 161.280781 166.658857 
L 161.543422 166.648135 
L 162.954012 166.573597 
L 164.687726 166.44283 
L 166.265839 166.286261 
L 167.297371 166.164586 
L 168.879943 165.948198 
L 171.097929 165.584384 
L 172.491416 165.319666 
L 173.090231 165.197341 
L 175.093552 164.750666 
L 175.546408 164.641705 
L 177.484288 164.142159 
L 179.446874 163.581262 
L 180.218164 163.345687 
L 181.074044 163.074272 
L 183.176503 162.362872 
L 184.767215 161.782435 
L 186.114558 161.262368 
L 187.826437 160.563979 
L 188.069372 160.461459 
L 189.594071 159.798668 
L 191.743576 158.807547 
L 192.703685 158.343405 
L 194.637647 157.368275 
L 195.506562 156.912664 
L 197.604707 155.767799 
L 198.699814 155.145132 
L 200.481577 154.095221 
L 201.077066 153.734159 
L 203.317511 152.330078 
L 203.653106 152.113553 
L 205.52934 150.873202 
L 207.31658 149.644656 
L 208.806799 148.585203 
L 210.210938 147.557756 
L 210.876636 147.060751 
L 212.008758 146.200897 
L 214.469712 144.268278 
L 215.781769 143.202346 
L 216.429912 142.666662 
L 217.758281 141.549919 
L 219.496598 140.050249 
L 220.877739 138.827774 
L 222.71236 137.161542 
L 223.302205 136.615564 
L 224.536663 135.456739 
L 226.897021 133.180051 
L 227.744171 132.343415 
L 229.648601 130.424982 
L 231.223002 128.799667 
L 232.649843 127.295925 
L 233.308237 126.592187 
L 234.166698 125.665248 
L 236.03157 123.615144 
L 238.144177 121.232345 
L 238.561759 120.753768 
L 240.800464 118.145349 
L 241.130241 117.755026 
L 242.77071 115.790162 
L 244.782489 113.327789 
L 246.296335 111.436541 
L 247.726021 109.620208 
L 248.253137 108.943129 
L 250.031567 106.629293 
L 251.361936 104.868703 
L 253.583976 101.871394 
L 254.881708 100.088077 
L 255.914182 98.651992 
L 257.215746 96.819805 
L 258.479736 95.01722 
L 259.948112 92.894342 
L 261.440474 90.70505 
L 263.323356 87.897221 
L 264.119288 86.694981 
L 266.210286 83.493212 
L 267.178894 81.988778 
L 267.977681 80.73797 
L 269.925747 77.649088 
L 270.765558 76.300656 
L 272.597388 73.324249 
L 273.323615 72.130913 
L 274.926981 69.469434 
L 276.622306 66.615143 
L 278.883706 62.743528 
L 279.4798 61.710754 
L 280.920782 59.193073 
L 282.3695 56.631808 
L 284.367587 53.049817 
L 284.747867 52.361589 
L 287.069217 48.115384 
L 287.344403 47.606882 
L 288.912553 44.688421 
L 290.964617 40.815997 
L 291.984637 38.868622 
L 293.01813 36.880283 
L 294.938557 33.144827 
L 297.060618 28.955554 
L 297.798914 27.482875 
z
" clip-path="url(#pddea90c1e9)" style="fill: #008000; opacity: 0.5"/>
   </g>
   <g id="matplotlib.axis_1">
    <g id="xtick_1">
     <g id="line2d_1">
      <defs>
       <path id="mf6f101c27a" d="M 0 0 
L 0 3.5 
" style="stroke: #000000; stroke-width: 0.8"/>
      </defs>
      <g>
       <use xlink:href="#mf6f101c27a" x="19.341406" y="166.71163" style="stroke: #000000; stroke-width: 0.8"/>
      </g>
     </g>
     <g id="text_1">
      <!-- −1.0 -->
      <g transform="translate(7.2 181.310067)scale(0.1 -0.1)">
       <defs>
        <path id="DejaVuSans-2212" d="M 678 2272 
L 4684 2272 
L 4684 1741 
L 678 1741 
L 678 2272 
z
" transform="scale(0.015625)"/>
        <path id="DejaVuSans-31" d="M 794 531 
L 1825 531 
L 1825 4091 
L 703 3866 
L 703 4441 
L 1819 4666 
L 2450 4666 
L 2450 531 
L 3481 531 
L 3481 0 
L 794 0 
L 794 531 
z
" transform="scale(0.015625)"/>
        <path id="DejaVuSans-2e" d="M 684 794 
L 1344 794 
L 1344 0 
L 684 0 
L 684 794 
z
" transform="scale(0.015625)"/>
        <path id="DejaVuSans-30" d="M 2034 4250 
Q 1547 4250 1301 3770 
Q 1056 3291 1056 2328 
Q 1056 1369 1301 889 
Q 1547 409 2034 409 
Q 2525 409 2770 889 
Q 3016 1369 3016 2328 
Q 3016 3291 2770 3770 
Q 2525 4250 2034 4250 
z
M 2034 4750 
Q 2819 4750 3233 4129 
Q 3647 3509 3647 2328 
Q 3647 1150 3233 529 
Q 2819 -91 2034 -91 
Q 1250 -91 836 529 
Q 422 1150 422 2328 
Q 422 3509 836 4129 
Q 1250 4750 2034 4750 
z
" transform="scale(0.015625)"/>
       </defs>
       <use xlink:href="#DejaVuSans-2212"/>
       <use xlink:href="#DejaVuSans-31" x="83.789062"/>
       <use xlink:href="#DejaVuSans-2e" x="147.412109"/>
       <use xlink:href="#DejaVuSans-30" x="179.199219"/>
      </g>
     </g>
    </g>
    <g id="xtick_2">
     <g id="line2d_2">
      <g>
       <use xlink:href="#mf6f101c27a" x="88.955783" y="166.71163" style="stroke: #000000; stroke-width: 0.8"/>
      </g>
     </g>
     <g id="text_2">
      <!-- −0.5 -->
      <g transform="translate(76.814377 181.310067)scale(0.1 -0.1)">
       <defs>
        <path id="DejaVuSans-35" d="M 691 4666 
L 3169 4666 
L 3169 4134 
L 1269 4134 
L 1269 2991 
Q 1406 3038 1543 3061 
Q 1681 3084 1819 3084 
Q 2600 3084 3056 2656 
Q 3513 2228 3513 1497 
Q 3513 744 3044 326 
Q 2575 -91 1722 -91 
Q 1428 -91 1123 -41 
Q 819 9 494 109 
L 494 744 
Q 775 591 1075 516 
Q 1375 441 1709 441 
Q 2250 441 2565 725 
Q 2881 1009 2881 1497 
Q 2881 1984 2565 2268 
Q 2250 2553 1709 2553 
Q 1456 2553 1204 2497 
Q 953 2441 691 2322 
L 691 4666 
z
" transform="scale(0.015625)"/>
       </defs>
       <use xlink:href="#DejaVuSans-2212"/>
       <use xlink:href="#DejaVuSans-30" x="83.789062"/>
       <use xlink:href="#DejaVuSans-2e" x="147.412109"/>
       <use xlink:href="#DejaVuSans-35" x="179.199219"/>
      </g>
     </g>
    </g>
    <g id="xtick_3">
     <g id="line2d_3">
      <g>
       <use xlink:href="#mf6f101c27a" x="158.57016" y="166.71163" style="stroke: #000000; stroke-width: 0.8"/>
      </g>
     </g>
    </g>
    <g id="xtick_4">
     <g id="line2d_4">
      <g>
       <use xlink:href="#mf6f101c27a" x="228.184537" y="166.71163" style="stroke: #000000; stroke-width: 0.8"/>
      </g>
     </g>
     <g id="text_3">
      <!-- 0.5 -->
      <g transform="translate(220.232975 181.310067)scale(0.1 -0.1)">
       <use xlink:href="#DejaVuSans-30"/>
       <use xlink:href="#DejaVuSans-2e" x="63.623047"/>
       <use xlink:href="#DejaVuSans-35" x="95.410156"/>
      </g>
     </g>
    </g>
    <g id="xtick_5">
     <g id="line2d_5">
      <g>
       <use xlink:href="#mf6f101c27a" x="297.798914" y="166.71163" style="stroke: #000000; stroke-width: 0.8"/>
      </g>
     </g>
     <g id="text_4">
      <!-- 1.0 -->
      <g transform="translate(289.847352 181.310067)scale(0.1 -0.1)">
       <use xlink:href="#DejaVuSans-31"/>
       <use xlink:href="#DejaVuSans-2e" x="63.623047"/>
       <use xlink:href="#DejaVuSans-30" x="95.410156"/>
      </g>
     </g>
    </g>
    <g id="xtick_6">
     <g id="line2d_6">
      <defs>
       <path id="m2cf4d4084e" d="M 0 0 
L 0 2 
" style="stroke: #000000; stroke-width: 0.6"/>
      </defs>
      <g>
       <use xlink:href="#m2cf4d4084e" x="33.264282" y="166.71163" style="stroke: #000000; stroke-width: 0.6"/>
      </g>
     </g>
    </g>
    <g id="xtick_7">
     <g id="line2d_7">
      <g>
       <use xlink:href="#m2cf4d4084e" x="47.187157" y="166.71163" style="stroke: #000000; stroke-width: 0.6"/>
      </g>
     </g>
    </g>
    <g id="xtick_8">
     <g id="line2d_8">
      <g>
       <use xlink:href="#m2cf4d4084e" x="61.110032" y="166.71163" style="stroke: #000000; stroke-width: 0.6"/>
      </g>
     </g>
    </g>
    <g id="xtick_9">
     <g id="line2d_9">
      <g>
       <use xlink:href="#m2cf4d4084e" x="75.032908" y="166.71163" style="stroke: #000000; stroke-width: 0.6"/>
      </g>
     </g>
    </g>
    <g id="xtick_10">
     <g id="line2d_10">
      <g>
       <use xlink:href="#m2cf4d4084e" x="102.878659" y="166.71163" style="stroke: #000000; stroke-width: 0.6"/>
      </g>
     </g>
    </g>
    <g id="xtick_11">
     <g id="line2d_11">
      <g>
       <use xlink:href="#m2cf4d4084e" x="116.801534" y="166.71163" style="stroke: #000000; stroke-width: 0.6"/>
      </g>
     </g>
    </g>
    <g id="xtick_12">
     <g id="line2d_12">
      <g>
       <use xlink:href="#m2cf4d4084e" x="130.72441" y="166.71163" style="stroke: #000000; stroke-width: 0.6"/>
      </g>
     </g>
    </g>
    <g id="xtick_13">
     <g id="line2d_13">
      <g>
       <use xlink:href="#m2cf4d4084e" x="144.647285" y="166.71163" style="stroke: #000000; stroke-width: 0.6"/>
      </g>
     </g>
    </g>
    <g id="xtick_14">
     <g id="line2d_14">
      <g>
       <use xlink:href="#m2cf4d4084e" x="172.493036" y="166.71163" style="stroke: #000000; stroke-width: 0.6"/>
      </g>
     </g>
    </g>
    <g id="xtick_15">
     <g id="line2d_15">
      <g>
       <use xlink:href="#m2cf4d4084e" x="186.415911" y="166.71163" style="stroke: #000000; stroke-width: 0.6"/>
      </g>
     </g>
    </g>
    <g id="xtick_16">
     <g id="line2d_16">
      <g>
       <use xlink:href="#m2cf4d4084e" x="200.338787" y="166.71163" style="stroke: #000000; stroke-width: 0.6"/>
      </g>
     </g>
    </g>
    <g id="xtick_17">
     <g id="line2d_17">
      <g>
       <use xlink:href="#m2cf4d4084e" x="214.261662" y="166.71163" style="stroke: #000000; stroke-width: 0.6"/>
      </g>
     </g>
    </g>
    <g id="xtick_18">
     <g id="line2d_18">
      <g>
       <use xlink:href="#m2cf4d4084e" x="242.107413" y="166.71163" style="stroke: #000000; stroke-width: 0.6"/>
      </g>
     </g>
    </g>
    <g id="xtick_19">
     <g id="line2d_19">
      <g>
       <use xlink:href="#m2cf4d4084e" x="256.030288" y="166.71163" style="stroke: #000000; stroke-width: 0.6"/>
      </g>
     </g>
    </g>
    <g id="xtick_20">
     <g id="line2d_20">
      <g>
       <use xlink:href="#m2cf4d4084e" x="269.953164" y="166.71163" style="stroke: #000000; stroke-width: 0.6"/>
      </g>
     </g>
    </g>
    <g id="xtick_21">
     <g id="line2d_21">
      <g>
       <use xlink:href="#m2cf4d4084e" x="283.876039" y="166.71163" style="stroke: #000000; stroke-width: 0.6"/>
      </g>
     </g>
    </g>
   </g>
   <g id="matplotlib.axis_2">
    <g id="ytick_1">
     <g id="line2d_22">
      <defs>
       <path id="m65ad8a1a6d" d="M 0 0 
L -3.5 0 
" style="stroke: #000000; stroke-width: 0.8"/>
      </defs>
      <g>
       <use xlink:href="#m65ad8a1a6d" x="158.57016" y="305.940384" style="stroke: #000000; stroke-width: 0.8"/>
      </g>
     </g>
     <g id="text_5">
      <!-- −1.0 -->
      <g transform="translate(127.287348 309.739602)scale(0.1 -0.1)">
       <use xlink:href="#DejaVuSans-2212"/>
       <use xlink:href="#DejaVuSans-31" x="83.789062"/>
       <use xlink:href="#DejaVuSans-2e" x="147.412109"/>
       <use xlink:href="#DejaVuSans-30" x="179.199219"/>
      </g>
     </g>
    </g>
    <g id="ytick_2">
     <g id="line2d_23">
      <g>
       <use xlink:href="#m65ad8a1a6d" x="158.57016" y="236.326007" style="stroke: #000000; stroke-width: 0.8"/>
      </g>
     </g>
     <g id="text_6">
      <!-- −0.5 -->
      <g transform="translate(127.287348 240.125225)scale(0.1 -0.1)">
       <use xlink:href="#DejaVuSans-2212"/>
       <use xlink:href="#DejaVuSans-30" x="83.789062"/>
       <use xlink:href="#DejaVuSans-2e" x="147.412109"/>
       <use xlink:href="#DejaVuSans-35" x="179.199219"/>
      </g>
     </g>
    </g>
    <g id="ytick_3">
     <g id="line2d_24">
      <g>
       <use xlink:href="#m65ad8a1a6d" x="158.57016" y="166.71163" style="stroke: #000000; stroke-width: 0.8"/>
      </g>
     </g>
    </g>
    <g id="ytick_4">
     <g id="line2d_25">
      <g>
       <use xlink:href="#m65ad8a1a6d" x="158.57016" y="97.097252" style="stroke: #000000; stroke-width: 0.8"/>
      </g>
     </g>
     <g id="text_7">
      <!-- 0.5 -->
      <g transform="translate(135.667035 100.896471)scale(0.1 -0.1)">
       <use xlink:href="#DejaVuSans-30"/>
       <use xlink:href="#DejaVuSans-2e" x="63.623047"/>
       <use xlink:href="#DejaVuSans-35" x="95.410156"/>
      </g>
     </g>
    </g>
    <g id="ytick_5">
     <g id="line2d_26">
      <g>
       <use xlink:href="#m65ad8a1a6d" x="158.57016" y="27.482875" style="stroke: #000000; stroke-width: 0.8"/>
      </g>
     </g>
     <g id="text_8">
      <!-- 1.0 -->
      <g transform="translate(135.667035 31.282094)scale(0.1 -0.1)">
       <use xlink:href="#DejaVuSans-31"/>
       <use xlink:href="#DejaVuSans-2e" x="63.623047"/>
       <use xlink:href="#DejaVuSans-30" x="95.410156"/>
      </g>
     </g>
    </g>
    <g id="ytick_6">
     <g id="line2d_27">
      <defs>
       <path id="me33ea3acd2" d="M 0 0 
L -2 0 
" style="stroke: #000000; stroke-width: 0.6"/>
      </defs>
      <g>
       <use xlink:href="#me33ea3acd2" x="158.57016" y="319.863259" style="stroke: #000000; stroke-width: 0.6"/>
      </g>
     </g>
    </g>
    <g id="ytick_7">
     <g id="line2d_28">
      <g>
       <use xlink:href="#me33ea3acd2" x="158.57016" y="292.017508" style="stroke: #000000; stroke-width: 0.6"/>
      </g>
     </g>
    </g>
    <g id="ytick_8">
     <g id="line2d_29">
      <g>
       <use xlink:href="#me33ea3acd2" x="158.57016" y="278.094633" style="stroke: #000000; stroke-width: 0.6"/>
      </g>
     </g>
    </g>
    <g id="ytick_9">
     <g id="line2d_30">
      <g>
       <use xlink:href="#me33ea3acd2" x="158.57016" y="264.171757" style="stroke: #000000; stroke-width: 0.6"/>
      </g>
     </g>
    </g>
    <g id="ytick_10">
     <g id="line2d_31">
      <g>
       <use xlink:href="#me33ea3acd2" x="158.57016" y="250.248882" style="stroke: #000000; stroke-width: 0.6"/>
      </g>
     </g>
    </g>
    <g id="ytick_11">
     <g id="line2d_32">
      <g>
       <use xlink:href="#me33ea3acd2" x="158.57016" y="222.403131" style="stroke: #000000; stroke-width: 0.6"/>
      </g>
     </g>
    </g>
    <g id="ytick_12">
     <g id="line2d_33">
      <g>
       <use xlink:href="#me33ea3acd2" x="158.57016" y="208.480256" style="stroke: #000000; stroke-width: 0.6"/>
      </g>
     </g>
    </g>
    <g id="ytick_13">
     <g id="line2d_34">
      <g>
       <use xlink:href="#me33ea3acd2" x="158.57016" y="194.55738" style="stroke: #000000; stroke-width: 0.6"/>
      </g>
     </g>
    </g>
    <g id="ytick_14">
     <g id="line2d_35">
      <g>
       <use xlink:href="#me33ea3acd2" x="158.57016" y="180.634505" style="stroke: #000000; stroke-width: 0.6"/>
      </g>
     </g>
    </g>
    <g id="ytick_15">
     <g id="line2d_36">
      <g>
       <use xlink:href="#me33ea3acd2" x="158.57016" y="152.788754" style="stroke: #000000; stroke-width: 0.6"/>
      </g>
     </g>
    </g>
    <g id="ytick_16">
     <g id="line2d_37">
      <g>
       <use xlink:href="#me33ea3acd2" x="158.57016" y="138.865879" style="stroke: #000000; stroke-width: 0.6"/>
      </g>
     </g>
    </g>
    <g id="ytick_17">
     <g id="line2d_38">
      <g>
       <use xlink:href="#me33ea3acd2" x="158.57016" y="124.943003" style="stroke: #000000; stroke-width: 0.6"/>
      </g>
     </g>
    </g>
    <g id="ytick_18">
     <g id="line2d_39">
      <g>
       <use xlink:href="#me33ea3acd2" x="158.57016" y="111.020128" style="stroke: #000000; stroke-width: 0.6"/>
      </g>
     </g>
    </g>
    <g id="ytick_19">
     <g id="line2d_40">
      <g>
       <use xlink:href="#me33ea3acd2" x="158.57016" y="83.174377" style="stroke: #000000; stroke-width: 0.6"/>
      </g>
     </g>
    </g>
    <g id="ytick_20">
     <g id="line2d_41">
      <g>
       <use xlink:href="#me33ea3acd2" x="158.57016" y="69.251502" style="stroke: #000000; stroke-width: 0.6"/>
      </g>
     </g>
    </g>
    <g id="ytick_21">
     <g id="line2d_42">
      <g>
       <use xlink:href="#me33ea3acd2" x="158.57016" y="55.328626" style="stroke: #000000; stroke-width: 0.6"/>
      </g>
     </g>
    </g>
    <g id="ytick_22">
     <g id="line2d_43">
      <g>
       <use xlink:href="#me33ea3acd2" x="158.57016" y="41.405751" style="stroke: #000000; stroke-width: 0.6"/>
      </g>
     </g>
    </g>
    <g id="ytick_23">
     <g id="line2d_44">
      <g>
       <use xlink:href="#me33ea3acd2" x="158.57016" y="13.56" style="stroke: #000000; stroke-width: 0.6"/>
      </g>
     </g>
    </g>
   </g>
   <g id="line2d_45">
    <path d="M 19.341406 27.482875 
L 24.659837 37.916576 
L 30.305292 48.547271 
L 35.966555 58.747983 
L 42.019053 69.144422 
L 46.642384 76.731459 
L 52.330272 85.644224 
L 57.086229 92.739924 
L 62.951675 101.04348 
L 68.298073 108.181696 
L 73.362313 114.564518 
L 77.576597 119.595232 
L 82.038196 124.643153 
L 86.857656 129.774696 
L 91.125774 134.040611 
L 95.925499 138.525256 
L 100.921371 142.841683 
L 106.106731 146.942643 
L 111.252915 150.630743 
L 116.308826 153.883673 
L 120.128778 156.097875 
L 124.233193 158.243355 
L 128.926911 160.400273 
L 132.395987 161.791041 
L 136.851821 163.323779 
L 140.867801 164.460848 
L 144.886414 165.366757 
L 147.909559 165.895358 
L 152.356716 166.434338 
L 156.251755 166.673024 
L 161.280781 166.658857 
L 164.687726 166.44283 
L 168.879943 165.948198 
L 173.090231 165.197341 
L 177.484288 164.142159 
L 181.074044 163.074272 
L 186.114558 161.262368 
L 189.594071 159.798668 
L 194.637647 157.368275 
L 198.699814 155.145132 
L 203.653106 152.113553 
L 208.806799 148.585203 
L 212.008758 146.200897 
L 217.758281 141.549919 
L 222.71236 137.161542 
L 226.897021 133.180051 
L 231.223002 128.799667 
L 236.03157 123.615144 
L 241.130241 117.755026 
L 246.296335 111.436541 
L 251.361936 104.868703 
L 257.215746 96.819805 
L 261.440474 90.70505 
L 267.178894 81.988778 
L 272.597388 73.324249 
L 276.622306 66.615143 
L 282.3695 56.631808 
L 288.912553 44.688421 
L 294.938557 33.144827 
L 297.798914 27.482875 
L 297.798914 27.482875 
" clip-path="url(#pddea90c1e9)" style="fill: none; stroke: #0000ff; stroke-linecap: square"/>
   </g>
   <g id="line2d_46">
    <path d="M 19.341406 305.940384 
L 24.790353 295.255744 
L 30.881235 283.817192 
L 35.577978 275.360716 
L 41.603711 264.975458 
L 47.989545 254.538836 
L 52.837942 247.006121 
L 57.695901 239.797224 
L 62.390849 233.152359 
L 67.274297 226.576668 
L 72.68211 219.694631 
L 78.468726 212.795787 
L 81.697917 209.15503 
L 87.285943 203.208685 
L 92.472554 198.090878 
L 96.036178 194.798493 
L 101.279546 190.285887 
L 105.836621 186.684703 
L 109.637547 183.909231 
L 114.579947 180.610618 
L 119.213344 177.83691 
L 122.667017 175.970031 
L 126.978163 173.880079 
L 130.616588 172.323992 
L 134.867047 170.746985 
L 139.146496 169.421406 
L 142.713234 168.517594 
L 146.200424 167.810615 
L 149.172613 167.345937 
L 153.57039 166.891174 
L 157.862179 166.71523 
L 162.261405 166.809492 
L 166.932701 167.213911 
L 170.980454 167.817833 
L 174.343246 168.498546 
L 177.581227 169.307506 
L 182.081513 170.681957 
L 185.972128 172.104681 
L 189.758435 173.698034 
L 192.644536 175.050877 
L 198.052932 177.908234 
L 203.532615 181.231779 
L 208.351973 184.511321 
L 213.040451 188.021973 
L 217.557038 191.702529 
L 221.832465 195.456548 
L 227.520657 200.858103 
L 231.45328 204.864302 
L 237.109675 211.016094 
L 241.691934 216.336646 
L 245.983588 221.593305 
L 250.936948 227.989369 
L 256.702885 235.878603 
L 262.557852 244.378345 
L 267.756237 252.337616 
L 273.332143 261.306404 
L 279.956398 272.541915 
L 285.614301 282.637494 
L 290.242784 291.238204 
L 296.402851 303.162255 
L 297.798914 305.940384 
L 297.798914 305.940384 
" clip-path="url(#pddea90c1e9)" style="fill: none; stroke: #ff0000; stroke-linecap: square"/>
   </g>
   <g id="patch_4">
    <path d="M 158.57016 325.989324 
L 158.57016 7.433935 
" style="fill: none; stroke: #000000; stroke-width: 0.8; stroke-linejoin: miter; stroke-linecap: square"/>
   </g>
   <g id="patch_5">
    <path d="M 13.772256 166.71163 
L 303.368065 166.71163 
" style="fill: none; stroke: #000000; stroke-width: 0.8; stroke-linejoin: miter; stroke-linecap: square"/>
   </g>
   <g id="text_9">
    <!-- $y=x^2$ -->
    <g transform="translate(281.778914 17.4)scale(0.12 -0.12)">
     <defs>
      <path id="Cmmi10-79" d="M 538 -916 
Q 672 -1147 1006 -1147 
Q 1309 -1147 1531 -934 
Q 1753 -722 1889 -420 
Q 2025 -119 2100 197 
Q 1816 -72 1484 -72 
Q 1231 -72 1053 15 
Q 875 103 776 276 
Q 678 450 678 697 
Q 678 906 734 1126 
Q 791 1347 892 1617 
Q 994 1888 1069 2088 
Q 1153 2322 1153 2472 
Q 1153 2663 1013 2663 
Q 759 2663 595 2402 
Q 431 2141 353 1819 
Q 341 1778 300 1778 
L 225 1778 
Q 172 1778 172 1838 
L 172 1856 
Q 275 2238 487 2533 
Q 700 2828 1025 2828 
Q 1253 2828 1411 2678 
Q 1569 2528 1569 2297 
Q 1569 2178 1516 2047 
Q 1488 1969 1388 1706 
Q 1288 1444 1234 1272 
Q 1181 1100 1147 934 
Q 1113 769 1113 603 
Q 1113 391 1203 244 
Q 1294 97 1491 97 
Q 1888 97 2203 581 
L 2688 2553 
Q 2709 2638 2787 2698 
Q 2866 2759 2956 2759 
Q 3034 2759 3092 2709 
Q 3150 2659 3150 2578 
Q 3150 2541 3144 2528 
L 2509 -19 
Q 2425 -347 2200 -647 
Q 1975 -947 1658 -1130 
Q 1341 -1313 997 -1313 
Q 831 -1313 668 -1248 
Q 506 -1184 406 -1056 
Q 306 -928 306 -756 
Q 306 -581 409 -453 
Q 513 -325 684 -325 
Q 788 -325 858 -389 
Q 928 -453 928 -556 
Q 928 -703 818 -812 
Q 709 -922 563 -922 
Q 556 -919 550 -917 
Q 544 -916 538 -916 
z
" transform="scale(0.015625)"/>
      <path id="Cmr10-3d" d="M 481 850 
Q 428 850 393 890 
Q 359 931 359 978 
Q 359 1031 393 1068 
Q 428 1106 481 1106 
L 4500 1106 
Q 4547 1106 4581 1068 
Q 4616 1031 4616 978 
Q 4616 931 4581 890 
Q 4547 850 4500 850 
L 481 850 
z
M 481 2094 
Q 428 2094 393 2131 
Q 359 2169 359 2222 
Q 359 2269 393 2309 
Q 428 2350 481 2350 
L 4500 2350 
Q 4547 2350 4581 2309 
Q 4616 2269 4616 2222 
Q 4616 2169 4581 2131 
Q 4547 2094 4500 2094 
L 481 2094 
z
" transform="scale(0.015625)"/>
      <path id="Cmmi10-78" d="M 500 184 
Q 613 97 819 97 
Q 1019 97 1172 289 
Q 1325 481 1381 709 
L 1672 1844 
Q 1741 2153 1741 2266 
Q 1741 2425 1652 2544 
Q 1563 2663 1403 2663 
Q 1200 2663 1022 2536 
Q 844 2409 722 2214 
Q 600 2019 550 1819 
Q 538 1778 500 1778 
L 422 1778 
Q 372 1778 372 1838 
L 372 1856 
Q 434 2094 584 2320 
Q 734 2547 951 2687 
Q 1169 2828 1416 2828 
Q 1650 2828 1839 2703 
Q 2028 2578 2106 2363 
Q 2216 2559 2386 2693 
Q 2556 2828 2759 2828 
Q 2897 2828 3040 2779 
Q 3184 2731 3275 2631 
Q 3366 2531 3366 2381 
Q 3366 2219 3261 2101 
Q 3156 1984 2994 1984 
Q 2891 1984 2822 2050 
Q 2753 2116 2753 2216 
Q 2753 2350 2845 2451 
Q 2938 2553 3066 2572 
Q 2950 2663 2747 2663 
Q 2541 2663 2389 2472 
Q 2238 2281 2175 2047 
L 1894 916 
Q 1825 659 1825 494 
Q 1825 331 1917 214 
Q 2009 97 2163 97 
Q 2463 97 2698 361 
Q 2934 625 3009 941 
Q 3022 978 3059 978 
L 3138 978 
Q 3163 978 3178 961 
Q 3194 944 3194 922 
Q 3194 916 3188 903 
Q 3097 522 2806 225 
Q 2516 -72 2150 -72 
Q 1916 -72 1727 54 
Q 1538 181 1459 397 
Q 1359 209 1182 68 
Q 1006 -72 806 -72 
Q 669 -72 523 -23 
Q 378 25 287 125 
Q 197 225 197 378 
Q 197 528 301 651 
Q 406 775 563 775 
Q 669 775 741 711 
Q 813 647 813 544 
Q 813 409 723 309 
Q 634 209 500 184 
z
" transform="scale(0.015625)"/>
      <path id="Cmr10-32" d="M 319 0 
L 319 172 
Q 319 188 331 206 
L 1325 1306 
Q 1550 1550 1690 1715 
Q 1831 1881 1968 2097 
Q 2106 2313 2186 2536 
Q 2266 2759 2266 3009 
Q 2266 3272 2169 3511 
Q 2072 3750 1880 3894 
Q 1688 4038 1416 4038 
Q 1138 4038 916 3870 
Q 694 3703 603 3438 
Q 628 3444 672 3444 
Q 816 3444 917 3347 
Q 1019 3250 1019 3097 
Q 1019 2950 917 2848 
Q 816 2747 672 2747 
Q 522 2747 420 2851 
Q 319 2956 319 3097 
Q 319 3338 409 3548 
Q 500 3759 670 3923 
Q 841 4088 1055 4175 
Q 1269 4263 1509 4263 
Q 1875 4263 2190 4108 
Q 2506 3953 2690 3670 
Q 2875 3388 2875 3009 
Q 2875 2731 2753 2481 
Q 2631 2231 2440 2026 
Q 2250 1822 1953 1562 
Q 1656 1303 1563 1216 
L 838 519 
L 1453 519 
Q 1906 519 2211 526 
Q 2516 534 2534 550 
Q 2609 631 2688 1141 
L 2875 1141 
L 2694 0 
L 319 0 
z
" transform="scale(0.015625)"/>
     </defs>
     <use xlink:href="#Cmmi10-79" transform="translate(0 0.109375)"/>
     <use xlink:href="#Cmr10-3d" transform="translate(66.582031 0.109375)"/>
     <use xlink:href="#Cmmi10-78" transform="translate(161.826172 0.109375)"/>
     <use xlink:href="#Cmr10-32" transform="translate(225.209531 38.373438)scale(0.7)"/>
    </g>
   </g>
   <g id="text_10">
    <!-- $y=-x^2$ -->
    <g transform="translate(274.998914 323.703259)scale(0.12 -0.12)">
     <defs>
      <path id="Cmsy10-a1" d="M 653 1472 
Q 600 1472 565 1512 
Q 531 1553 531 1600 
Q 531 1647 565 1687 
Q 600 1728 653 1728 
L 4325 1728 
Q 4375 1728 4408 1687 
Q 4441 1647 4441 1600 
Q 4441 1553 4408 1512 
Q 4375 1472 4325 1472 
L 653 1472 
z
" transform="scale(0.015625)"/>
     </defs>
     <use xlink:href="#Cmmi10-79" transform="translate(0 0.109375)"/>
     <use xlink:href="#Cmr10-3d" transform="translate(66.582031 0.109375)"/>
     <use xlink:href="#Cmsy10-a1" transform="translate(179.384766 0.109375)"/>
     <use xlink:href="#Cmmi10-78" transform="translate(274.628906 0.109375)"/>
     <use xlink:href="#Cmr10-32" transform="translate(338.012266 38.373438)scale(0.7)"/>
    </g>
   </g>
   <g id="text_11">
    <!-- $\mathcal{R}$ -->
    <g transform="translate(56.010032 142.177129)scale(0.12 -0.12)">
     <defs>
      <path id="Cmsy10-52" d="M 738 -91 
Q 738 -78 744 -56 
Q 966 475 1128 959 
Q 1291 1444 1428 1991 
Q 1678 2959 1766 3994 
Q 1425 3994 1094 3872 
Q 922 3803 833 3695 
Q 744 3588 684 3397 
Q 622 3291 472 3197 
Q 322 3103 206 3103 
L 166 3103 
Q 122 3131 122 3169 
Q 234 3556 581 3828 
Q 928 4100 1387 4236 
Q 1847 4372 2259 4372 
L 2931 4372 
Q 3378 4372 3739 4331 
Q 4100 4291 4392 4112 
Q 4684 3934 4684 3572 
Q 4684 3281 4548 3014 
Q 4413 2747 4189 2533 
Q 3966 2319 3697 2158 
Q 3428 1997 3156 1900 
Q 3253 1784 3383 1501 
Q 3513 1219 3659 911 
Q 3806 603 3951 420 
Q 4097 238 4256 238 
Q 4444 238 4551 308 
Q 4659 378 4775 520 
Q 4891 663 4997 745 
Q 5103 828 5281 844 
L 5319 844 
Q 5363 822 5363 794 
Q 5363 784 5356 768 
Q 5350 753 5344 738 
Q 5188 503 4936 297 
Q 4684 91 4393 -25 
Q 4103 -141 3828 -141 
L 3788 -141 
Q 3541 -141 3372 98 
Q 3203 338 3003 811 
Q 2803 1284 2651 1515 
Q 2500 1747 2278 1747 
Q 2266 1753 2250 1765 
Q 2234 1778 2234 1797 
Q 2234 1900 2420 2006 
Q 2606 2113 2719 2125 
Q 3072 2125 3395 2262 
Q 3719 2400 3917 2667 
Q 4116 2934 4116 3291 
Q 4116 3613 3833 3767 
Q 3550 3922 3203 3958 
Q 2856 3994 2450 3994 
L 2309 3994 
Q 2209 3041 1954 2070 
Q 1700 1100 1300 153 
Q 1238 41 1092 -43 
Q 947 -128 813 -141 
L 781 -141 
Q 769 -134 753 -121 
Q 738 -109 738 -91 
z
" transform="scale(0.015625)"/>
     </defs>
     <use xlink:href="#Cmsy10-52" transform="translate(0 0.6875)"/>
    </g>
   </g>
  </g>
 </g>
 <defs>
  <clipPath id="pddea90c1e9">
   <rect x="13.772256" y="7.433935" width="289.595809" height="318.555389"/>
  </clipPath>
 </defs>
</svg>
