<?xml version="1.0" encoding="utf-8" standalone="no"?>
<!DOCTYPE svg PUBLIC "-//W3C//DTD SVG 1.1//EN"
  "http://www.w3.org/Graphics/SVG/1.1/DTD/svg11.dtd">
<svg xmlns:xlink="http://www.w3.org/1999/xlink" width="282.95918pt" height="337.392163pt" viewBox="0 0 282.95918 337.392163" xmlns="http://www.w3.org/2000/svg" version="1.1">
 <metadata>
  <rdf:RDF xmlns:dc="http://purl.org/dc/elements/1.1/" xmlns:cc="http://creativecommons.org/ns#" xmlns:rdf="http://www.w3.org/1999/02/22-rdf-syntax-ns#">
   <cc:Work>
    <dc:type rdf:resource="http://purl.org/dc/dcmitype/StillImage"/>
    <dc:date>2022-11-21T11:06:20.078876</dc:date>
    <dc:format>image/svg+xml</dc:format>
    <dc:creator>
     <cc:Agent>
      <dc:title>Matplotlib v3.5.1, https://matplotlib.org/</dc:title>
     </cc:Agent>
    </dc:creator>
   </cc:Work>
  </rdf:RDF>
 </metadata>
 <defs>
  <style type="text/css">*{stroke-linejoin: round; stroke-linecap: butt}</style>
 </defs>
 <g id="figure_1">
  <g id="patch_1">
   <path d="M 0 337.392163 
L 282.95918 337.392163 
L 282.95918 0 
L 0 0 
z
" style="fill: #ffffff"/>
  </g>
  <g id="axes_1">
   <g id="patch_2">
    <path d="M 14.376364 330.192163 
L 272.776858 330.192163 
L 272.776858 7.2 
L 14.376364 7.2 
z
" style="fill: #ffffff"/>
   </g>
   <g id="matplotlib.axis_1">
    <g id="xtick_1">
     <g id="line2d_1">
      <defs>
       <path id="m7b0e309af0" d="M 0 0 
L 0 3.5 
" style="stroke: #000000; stroke-width: 0.8"/>
      </defs>
      <g>
       <use xlink:href="#m7b0e309af0" x="19.341406" y="199.754194" style="stroke: #000000; stroke-width: 0.8"/>
      </g>
     </g>
     <g id="text_1">
      <!-- −2.0 -->
      <g transform="translate(7.2 214.352631)scale(0.1 -0.1)">
       <defs>
        <path id="DejaVuSans-2212" d="M 678 2272 
L 4684 2272 
L 4684 1741 
L 678 1741 
L 678 2272 
z
" transform="scale(0.015625)"/>
        <path id="DejaVuSans-32" d="M 1228 531 
L 3431 531 
L 3431 0 
L 469 0 
L 469 531 
Q 828 903 1448 1529 
Q 2069 2156 2228 2338 
Q 2531 2678 2651 2914 
Q 2772 3150 2772 3378 
Q 2772 3750 2511 3984 
Q 2250 4219 1831 4219 
Q 1534 4219 1204 4116 
Q 875 4013 500 3803 
L 500 4441 
Q 881 4594 1212 4672 
Q 1544 4750 1819 4750 
Q 2544 4750 2975 4387 
Q 3406 4025 3406 3419 
Q 3406 3131 3298 2873 
Q 3191 2616 2906 2266 
Q 2828 2175 2409 1742 
Q 1991 1309 1228 531 
z
" transform="scale(0.015625)"/>
        <path id="DejaVuSans-2e" d="M 684 794 
L 1344 794 
L 1344 0 
L 684 0 
L 684 794 
z
" transform="scale(0.015625)"/>
        <path id="DejaVuSans-30" d="M 2034 4250 
Q 1547 4250 1301 3770 
Q 1056 3291 1056 2328 
Q 1056 1369 1301 889 
Q 1547 409 2034 409 
Q 2525 409 2770 889 
Q 3016 1369 3016 2328 
Q 3016 3291 2770 3770 
Q 2525 4250 2034 4250 
z
M 2034 4750 
Q 2819 4750 3233 4129 
Q 3647 3509 3647 2328 
Q 3647 1150 3233 529 
Q 2819 -91 2034 -91 
Q 1250 -91 836 529 
Q 422 1150 422 2328 
Q 422 3509 836 4129 
Q 1250 4750 2034 4750 
z
" transform="scale(0.015625)"/>
       </defs>
       <use xlink:href="#DejaVuSans-2212"/>
       <use xlink:href="#DejaVuSans-32" x="83.789062"/>
       <use xlink:href="#DejaVuSans-2e" x="147.412109"/>
       <use xlink:href="#DejaVuSans-30" x="179.199219"/>
      </g>
     </g>
    </g>
    <g id="xtick_2">
     <g id="line2d_2">
      <g>
       <use xlink:href="#m7b0e309af0" x="50.399683" y="199.754194" style="stroke: #000000; stroke-width: 0.8"/>
      </g>
     </g>
     <g id="text_2">
      <!-- −1.5 -->
      <g transform="translate(38.258276 214.352631)scale(0.1 -0.1)">
       <defs>
        <path id="DejaVuSans-31" d="M 794 531 
L 1825 531 
L 1825 4091 
L 703 3866 
L 703 4441 
L 1819 4666 
L 2450 4666 
L 2450 531 
L 3481 531 
L 3481 0 
L 794 0 
L 794 531 
z
" transform="scale(0.015625)"/>
        <path id="DejaVuSans-35" d="M 691 4666 
L 3169 4666 
L 3169 4134 
L 1269 4134 
L 1269 2991 
Q 1406 3038 1543 3061 
Q 1681 3084 1819 3084 
Q 2600 3084 3056 2656 
Q 3513 2228 3513 1497 
Q 3513 744 3044 326 
Q 2575 -91 1722 -91 
Q 1428 -91 1123 -41 
Q 819 9 494 109 
L 494 744 
Q 775 591 1075 516 
Q 1375 441 1709 441 
Q 2250 441 2565 725 
Q 2881 1009 2881 1497 
Q 2881 1984 2565 2268 
Q 2250 2553 1709 2553 
Q 1456 2553 1204 2497 
Q 953 2441 691 2322 
L 691 4666 
z
" transform="scale(0.015625)"/>
       </defs>
       <use xlink:href="#DejaVuSans-2212"/>
       <use xlink:href="#DejaVuSans-31" x="83.789062"/>
       <use xlink:href="#DejaVuSans-2e" x="147.412109"/>
       <use xlink:href="#DejaVuSans-35" x="179.199219"/>
      </g>
     </g>
    </g>
    <g id="xtick_3">
     <g id="line2d_3">
      <g>
       <use xlink:href="#m7b0e309af0" x="81.457959" y="199.754194" style="stroke: #000000; stroke-width: 0.8"/>
      </g>
     </g>
     <g id="text_3">
      <!-- −1.0 -->
      <g transform="translate(69.316553 214.352631)scale(0.1 -0.1)">
       <use xlink:href="#DejaVuSans-2212"/>
       <use xlink:href="#DejaVuSans-31" x="83.789062"/>
       <use xlink:href="#DejaVuSans-2e" x="147.412109"/>
       <use xlink:href="#DejaVuSans-30" x="179.199219"/>
      </g>
     </g>
    </g>
    <g id="xtick_4">
     <g id="line2d_4">
      <g>
       <use xlink:href="#m7b0e309af0" x="112.516236" y="199.754194" style="stroke: #000000; stroke-width: 0.8"/>
      </g>
     </g>
     <g id="text_4">
      <!-- −0.5 -->
      <g transform="translate(100.374829 214.352631)scale(0.1 -0.1)">
       <use xlink:href="#DejaVuSans-2212"/>
       <use xlink:href="#DejaVuSans-30" x="83.789062"/>
       <use xlink:href="#DejaVuSans-2e" x="147.412109"/>
       <use xlink:href="#DejaVuSans-35" x="179.199219"/>
      </g>
     </g>
    </g>
    <g id="xtick_5">
     <g id="line2d_5">
      <g>
       <use xlink:href="#m7b0e309af0" x="143.574512" y="199.754194" style="stroke: #000000; stroke-width: 0.8"/>
      </g>
     </g>
    </g>
    <g id="xtick_6">
     <g id="line2d_6">
      <g>
       <use xlink:href="#m7b0e309af0" x="174.632788" y="199.754194" style="stroke: #000000; stroke-width: 0.8"/>
      </g>
     </g>
     <g id="text_5">
      <!-- 0.5 -->
      <g transform="translate(166.681226 214.352631)scale(0.1 -0.1)">
       <use xlink:href="#DejaVuSans-30"/>
       <use xlink:href="#DejaVuSans-2e" x="63.623047"/>
       <use xlink:href="#DejaVuSans-35" x="95.410156"/>
      </g>
     </g>
    </g>
    <g id="xtick_7">
     <g id="line2d_7">
      <g>
       <use xlink:href="#m7b0e309af0" x="205.691065" y="199.754194" style="stroke: #000000; stroke-width: 0.8"/>
      </g>
     </g>
     <g id="text_6">
      <!-- 1.0 -->
      <g transform="translate(197.739502 214.352631)scale(0.1 -0.1)">
       <use xlink:href="#DejaVuSans-31"/>
       <use xlink:href="#DejaVuSans-2e" x="63.623047"/>
       <use xlink:href="#DejaVuSans-30" x="95.410156"/>
      </g>
     </g>
    </g>
    <g id="xtick_8">
     <g id="line2d_8">
      <g>
       <use xlink:href="#m7b0e309af0" x="236.749341" y="199.754194" style="stroke: #000000; stroke-width: 0.8"/>
      </g>
     </g>
     <g id="text_7">
      <!-- 1.5 -->
      <g transform="translate(228.797779 214.352631)scale(0.1 -0.1)">
       <use xlink:href="#DejaVuSans-31"/>
       <use xlink:href="#DejaVuSans-2e" x="63.623047"/>
       <use xlink:href="#DejaVuSans-35" x="95.410156"/>
      </g>
     </g>
    </g>
    <g id="xtick_9">
     <g id="line2d_9">
      <g>
       <use xlink:href="#m7b0e309af0" x="267.807618" y="199.754194" style="stroke: #000000; stroke-width: 0.8"/>
      </g>
     </g>
     <g id="text_8">
      <!-- 2.0 -->
      <g transform="translate(259.856055 214.352631)scale(0.1 -0.1)">
       <use xlink:href="#DejaVuSans-32"/>
       <use xlink:href="#DejaVuSans-2e" x="63.623047"/>
       <use xlink:href="#DejaVuSans-30" x="95.410156"/>
      </g>
     </g>
    </g>
    <g id="xtick_10">
     <g id="line2d_10">
      <defs>
       <path id="me02948d6d2" d="M 0 0 
L 0 2 
" style="stroke: #000000; stroke-width: 0.6"/>
      </defs>
      <g>
       <use xlink:href="#me02948d6d2" x="25.553062" y="199.754194" style="stroke: #000000; stroke-width: 0.6"/>
      </g>
     </g>
    </g>
    <g id="xtick_11">
     <g id="line2d_11">
      <g>
       <use xlink:href="#me02948d6d2" x="31.764717" y="199.754194" style="stroke: #000000; stroke-width: 0.6"/>
      </g>
     </g>
    </g>
    <g id="xtick_12">
     <g id="line2d_12">
      <g>
       <use xlink:href="#me02948d6d2" x="37.976372" y="199.754194" style="stroke: #000000; stroke-width: 0.6"/>
      </g>
     </g>
    </g>
    <g id="xtick_13">
     <g id="line2d_13">
      <g>
       <use xlink:href="#me02948d6d2" x="44.188027" y="199.754194" style="stroke: #000000; stroke-width: 0.6"/>
      </g>
     </g>
    </g>
    <g id="xtick_14">
     <g id="line2d_14">
      <g>
       <use xlink:href="#me02948d6d2" x="56.611338" y="199.754194" style="stroke: #000000; stroke-width: 0.6"/>
      </g>
     </g>
    </g>
    <g id="xtick_15">
     <g id="line2d_15">
      <g>
       <use xlink:href="#me02948d6d2" x="62.822993" y="199.754194" style="stroke: #000000; stroke-width: 0.6"/>
      </g>
     </g>
    </g>
    <g id="xtick_16">
     <g id="line2d_16">
      <g>
       <use xlink:href="#me02948d6d2" x="69.034649" y="199.754194" style="stroke: #000000; stroke-width: 0.6"/>
      </g>
     </g>
    </g>
    <g id="xtick_17">
     <g id="line2d_17">
      <g>
       <use xlink:href="#me02948d6d2" x="75.246304" y="199.754194" style="stroke: #000000; stroke-width: 0.6"/>
      </g>
     </g>
    </g>
    <g id="xtick_18">
     <g id="line2d_18">
      <g>
       <use xlink:href="#me02948d6d2" x="87.669614" y="199.754194" style="stroke: #000000; stroke-width: 0.6"/>
      </g>
     </g>
    </g>
    <g id="xtick_19">
     <g id="line2d_19">
      <g>
       <use xlink:href="#me02948d6d2" x="93.88127" y="199.754194" style="stroke: #000000; stroke-width: 0.6"/>
      </g>
     </g>
    </g>
    <g id="xtick_20">
     <g id="line2d_20">
      <g>
       <use xlink:href="#me02948d6d2" x="100.092925" y="199.754194" style="stroke: #000000; stroke-width: 0.6"/>
      </g>
     </g>
    </g>
    <g id="xtick_21">
     <g id="line2d_21">
      <g>
       <use xlink:href="#me02948d6d2" x="106.30458" y="199.754194" style="stroke: #000000; stroke-width: 0.6"/>
      </g>
     </g>
    </g>
    <g id="xtick_22">
     <g id="line2d_22">
      <g>
       <use xlink:href="#me02948d6d2" x="118.727891" y="199.754194" style="stroke: #000000; stroke-width: 0.6"/>
      </g>
     </g>
    </g>
    <g id="xtick_23">
     <g id="line2d_23">
      <g>
       <use xlink:href="#me02948d6d2" x="124.939546" y="199.754194" style="stroke: #000000; stroke-width: 0.6"/>
      </g>
     </g>
    </g>
    <g id="xtick_24">
     <g id="line2d_24">
      <g>
       <use xlink:href="#me02948d6d2" x="131.151201" y="199.754194" style="stroke: #000000; stroke-width: 0.6"/>
      </g>
     </g>
    </g>
    <g id="xtick_25">
     <g id="line2d_25">
      <g>
       <use xlink:href="#me02948d6d2" x="137.362857" y="199.754194" style="stroke: #000000; stroke-width: 0.6"/>
      </g>
     </g>
    </g>
    <g id="xtick_26">
     <g id="line2d_26">
      <g>
       <use xlink:href="#me02948d6d2" x="149.786167" y="199.754194" style="stroke: #000000; stroke-width: 0.6"/>
      </g>
     </g>
    </g>
    <g id="xtick_27">
     <g id="line2d_27">
      <g>
       <use xlink:href="#me02948d6d2" x="155.997823" y="199.754194" style="stroke: #000000; stroke-width: 0.6"/>
      </g>
     </g>
    </g>
    <g id="xtick_28">
     <g id="line2d_28">
      <g>
       <use xlink:href="#me02948d6d2" x="162.209478" y="199.754194" style="stroke: #000000; stroke-width: 0.6"/>
      </g>
     </g>
    </g>
    <g id="xtick_29">
     <g id="line2d_29">
      <g>
       <use xlink:href="#me02948d6d2" x="168.421133" y="199.754194" style="stroke: #000000; stroke-width: 0.6"/>
      </g>
     </g>
    </g>
    <g id="xtick_30">
     <g id="line2d_30">
      <g>
       <use xlink:href="#me02948d6d2" x="180.844444" y="199.754194" style="stroke: #000000; stroke-width: 0.6"/>
      </g>
     </g>
    </g>
    <g id="xtick_31">
     <g id="line2d_31">
      <g>
       <use xlink:href="#me02948d6d2" x="187.056099" y="199.754194" style="stroke: #000000; stroke-width: 0.6"/>
      </g>
     </g>
    </g>
    <g id="xtick_32">
     <g id="line2d_32">
      <g>
       <use xlink:href="#me02948d6d2" x="193.267754" y="199.754194" style="stroke: #000000; stroke-width: 0.6"/>
      </g>
     </g>
    </g>
    <g id="xtick_33">
     <g id="line2d_33">
      <g>
       <use xlink:href="#me02948d6d2" x="199.47941" y="199.754194" style="stroke: #000000; stroke-width: 0.6"/>
      </g>
     </g>
    </g>
    <g id="xtick_34">
     <g id="line2d_34">
      <g>
       <use xlink:href="#me02948d6d2" x="211.90272" y="199.754194" style="stroke: #000000; stroke-width: 0.6"/>
      </g>
     </g>
    </g>
    <g id="xtick_35">
     <g id="line2d_35">
      <g>
       <use xlink:href="#me02948d6d2" x="218.114375" y="199.754194" style="stroke: #000000; stroke-width: 0.6"/>
      </g>
     </g>
    </g>
    <g id="xtick_36">
     <g id="line2d_36">
      <g>
       <use xlink:href="#me02948d6d2" x="224.326031" y="199.754194" style="stroke: #000000; stroke-width: 0.6"/>
      </g>
     </g>
    </g>
    <g id="xtick_37">
     <g id="line2d_37">
      <g>
       <use xlink:href="#me02948d6d2" x="230.537686" y="199.754194" style="stroke: #000000; stroke-width: 0.6"/>
      </g>
     </g>
    </g>
    <g id="xtick_38">
     <g id="line2d_38">
      <g>
       <use xlink:href="#me02948d6d2" x="242.960997" y="199.754194" style="stroke: #000000; stroke-width: 0.6"/>
      </g>
     </g>
    </g>
    <g id="xtick_39">
     <g id="line2d_39">
      <g>
       <use xlink:href="#me02948d6d2" x="249.172652" y="199.754194" style="stroke: #000000; stroke-width: 0.6"/>
      </g>
     </g>
    </g>
    <g id="xtick_40">
     <g id="line2d_40">
      <g>
       <use xlink:href="#me02948d6d2" x="255.384307" y="199.754194" style="stroke: #000000; stroke-width: 0.6"/>
      </g>
     </g>
    </g>
    <g id="xtick_41">
     <g id="line2d_41">
      <g>
       <use xlink:href="#me02948d6d2" x="261.595962" y="199.754194" style="stroke: #000000; stroke-width: 0.6"/>
      </g>
     </g>
    </g>
   </g>
   <g id="matplotlib.axis_2">
    <g id="ytick_1">
     <g id="line2d_42">
      <defs>
       <path id="m42c7b62b76" d="M 0 0 
L -3.5 0 
" style="stroke: #000000; stroke-width: 0.8"/>
      </defs>
      <g>
       <use xlink:href="#m42c7b62b76" x="143.574512" y="323.9873" style="stroke: #000000; stroke-width: 0.8"/>
      </g>
     </g>
     <g id="text_9">
      <!-- −2 -->
      <g transform="translate(121.832325 327.786518)scale(0.1 -0.1)">
       <use xlink:href="#DejaVuSans-2212"/>
       <use xlink:href="#DejaVuSans-32" x="83.789062"/>
      </g>
     </g>
    </g>
    <g id="ytick_2">
     <g id="line2d_43">
      <g>
       <use xlink:href="#m42c7b62b76" x="143.574512" y="261.870747" style="stroke: #000000; stroke-width: 0.8"/>
      </g>
     </g>
     <g id="text_10">
      <!-- −1 -->
      <g transform="translate(121.832325 265.669965)scale(0.1 -0.1)">
       <use xlink:href="#DejaVuSans-2212"/>
       <use xlink:href="#DejaVuSans-31" x="83.789062"/>
      </g>
     </g>
    </g>
    <g id="ytick_3">
     <g id="line2d_44">
      <g>
       <use xlink:href="#m42c7b62b76" x="143.574512" y="199.754194" style="stroke: #000000; stroke-width: 0.8"/>
      </g>
     </g>
    </g>
    <g id="ytick_4">
     <g id="line2d_45">
      <g>
       <use xlink:href="#m42c7b62b76" x="143.574512" y="137.637641" style="stroke: #000000; stroke-width: 0.8"/>
      </g>
     </g>
     <g id="text_11">
      <!-- 1 -->
      <g transform="translate(130.212012 141.43686)scale(0.1 -0.1)">
       <use xlink:href="#DejaVuSans-31"/>
      </g>
     </g>
    </g>
    <g id="ytick_5">
     <g id="line2d_46">
      <g>
       <use xlink:href="#m42c7b62b76" x="143.574512" y="75.521088" style="stroke: #000000; stroke-width: 0.8"/>
      </g>
     </g>
     <g id="text_12">
      <!-- 2 -->
      <g transform="translate(130.212012 79.320307)scale(0.1 -0.1)">
       <use xlink:href="#DejaVuSans-32"/>
      </g>
     </g>
    </g>
    <g id="ytick_6">
     <g id="line2d_47">
      <g>
       <use xlink:href="#m42c7b62b76" x="143.574512" y="13.404535" style="stroke: #000000; stroke-width: 0.8"/>
      </g>
     </g>
     <g id="text_13">
      <!-- 3 -->
      <g transform="translate(130.212012 17.203754)scale(0.1 -0.1)">
       <defs>
        <path id="DejaVuSans-33" d="M 2597 2516 
Q 3050 2419 3304 2112 
Q 3559 1806 3559 1356 
Q 3559 666 3084 287 
Q 2609 -91 1734 -91 
Q 1441 -91 1130 -33 
Q 819 25 488 141 
L 488 750 
Q 750 597 1062 519 
Q 1375 441 1716 441 
Q 2309 441 2620 675 
Q 2931 909 2931 1356 
Q 2931 1769 2642 2001 
Q 2353 2234 1838 2234 
L 1294 2234 
L 1294 2753 
L 1863 2753 
Q 2328 2753 2575 2939 
Q 2822 3125 2822 3475 
Q 2822 3834 2567 4026 
Q 2313 4219 1838 4219 
Q 1578 4219 1281 4162 
Q 984 4106 628 3988 
L 628 4550 
Q 988 4650 1302 4700 
Q 1616 4750 1894 4750 
Q 2613 4750 3031 4423 
Q 3450 4097 3450 3541 
Q 3450 3153 3228 2886 
Q 3006 2619 2597 2516 
z
" transform="scale(0.015625)"/>
       </defs>
       <use xlink:href="#DejaVuSans-33"/>
      </g>
     </g>
    </g>
    <g id="ytick_7">
     <g id="line2d_48">
      <defs>
       <path id="me9405343a3" d="M 0 0 
L -2 0 
" style="stroke: #000000; stroke-width: 0.6"/>
      </defs>
      <g>
       <use xlink:href="#me9405343a3" x="143.574512" y="311.563989" style="stroke: #000000; stroke-width: 0.6"/>
      </g>
     </g>
    </g>
    <g id="ytick_8">
     <g id="line2d_49">
      <g>
       <use xlink:href="#me9405343a3" x="143.574512" y="299.140678" style="stroke: #000000; stroke-width: 0.6"/>
      </g>
     </g>
    </g>
    <g id="ytick_9">
     <g id="line2d_50">
      <g>
       <use xlink:href="#me9405343a3" x="143.574512" y="286.717368" style="stroke: #000000; stroke-width: 0.6"/>
      </g>
     </g>
    </g>
    <g id="ytick_10">
     <g id="line2d_51">
      <g>
       <use xlink:href="#me9405343a3" x="143.574512" y="274.294057" style="stroke: #000000; stroke-width: 0.6"/>
      </g>
     </g>
    </g>
    <g id="ytick_11">
     <g id="line2d_52">
      <g>
       <use xlink:href="#me9405343a3" x="143.574512" y="249.447436" style="stroke: #000000; stroke-width: 0.6"/>
      </g>
     </g>
    </g>
    <g id="ytick_12">
     <g id="line2d_53">
      <g>
       <use xlink:href="#me9405343a3" x="143.574512" y="237.024126" style="stroke: #000000; stroke-width: 0.6"/>
      </g>
     </g>
    </g>
    <g id="ytick_13">
     <g id="line2d_54">
      <g>
       <use xlink:href="#me9405343a3" x="143.574512" y="224.600815" style="stroke: #000000; stroke-width: 0.6"/>
      </g>
     </g>
    </g>
    <g id="ytick_14">
     <g id="line2d_55">
      <g>
       <use xlink:href="#me9405343a3" x="143.574512" y="212.177504" style="stroke: #000000; stroke-width: 0.6"/>
      </g>
     </g>
    </g>
    <g id="ytick_15">
     <g id="line2d_56">
      <g>
       <use xlink:href="#me9405343a3" x="143.574512" y="187.330883" style="stroke: #000000; stroke-width: 0.6"/>
      </g>
     </g>
    </g>
    <g id="ytick_16">
     <g id="line2d_57">
      <g>
       <use xlink:href="#me9405343a3" x="143.574512" y="174.907573" style="stroke: #000000; stroke-width: 0.6"/>
      </g>
     </g>
    </g>
    <g id="ytick_17">
     <g id="line2d_58">
      <g>
       <use xlink:href="#me9405343a3" x="143.574512" y="162.484262" style="stroke: #000000; stroke-width: 0.6"/>
      </g>
     </g>
    </g>
    <g id="ytick_18">
     <g id="line2d_59">
      <g>
       <use xlink:href="#me9405343a3" x="143.574512" y="150.060952" style="stroke: #000000; stroke-width: 0.6"/>
      </g>
     </g>
    </g>
    <g id="ytick_19">
     <g id="line2d_60">
      <g>
       <use xlink:href="#me9405343a3" x="143.574512" y="125.21433" style="stroke: #000000; stroke-width: 0.6"/>
      </g>
     </g>
    </g>
    <g id="ytick_20">
     <g id="line2d_61">
      <g>
       <use xlink:href="#me9405343a3" x="143.574512" y="112.79102" style="stroke: #000000; stroke-width: 0.6"/>
      </g>
     </g>
    </g>
    <g id="ytick_21">
     <g id="line2d_62">
      <g>
       <use xlink:href="#me9405343a3" x="143.574512" y="100.367709" style="stroke: #000000; stroke-width: 0.6"/>
      </g>
     </g>
    </g>
    <g id="ytick_22">
     <g id="line2d_63">
      <g>
       <use xlink:href="#me9405343a3" x="143.574512" y="87.944399" style="stroke: #000000; stroke-width: 0.6"/>
      </g>
     </g>
    </g>
    <g id="ytick_23">
     <g id="line2d_64">
      <g>
       <use xlink:href="#me9405343a3" x="143.574512" y="63.097778" style="stroke: #000000; stroke-width: 0.6"/>
      </g>
     </g>
    </g>
    <g id="ytick_24">
     <g id="line2d_65">
      <g>
       <use xlink:href="#me9405343a3" x="143.574512" y="50.674467" style="stroke: #000000; stroke-width: 0.6"/>
      </g>
     </g>
    </g>
    <g id="ytick_25">
     <g id="line2d_66">
      <g>
       <use xlink:href="#me9405343a3" x="143.574512" y="38.251156" style="stroke: #000000; stroke-width: 0.6"/>
      </g>
     </g>
    </g>
    <g id="ytick_26">
     <g id="line2d_67">
      <g>
       <use xlink:href="#me9405343a3" x="143.574512" y="25.827846" style="stroke: #000000; stroke-width: 0.6"/>
      </g>
     </g>
    </g>
   </g>
   <g id="line2d_68">
    <path d="M 205.691065 199.754194 
L 210.859853 196.919922 
L 212.900502 195.656439 
L 217.721494 192.314617 
L 220.330435 190.277988 
L 223.212206 187.820824 
L 226.024849 185.190002 
L 229.629148 181.435522 
L 233.156596 177.269124 
L 237.868054 170.73558 
L 241.081023 165.424926 
L 242.913262 161.971097 
L 245.278269 156.88696 
L 247.366602 151.563211 
L 248.594454 147.885523 
L 250.64232 140.162267 
L 251.989808 132.637654 
L 252.510594 128.084652 
L 252.818254 123.482794 
L 252.868432 116.334372 
L 252.55652 110.836257 
L 251.84604 104.68448 
L 251.129623 100.432731 
L 250.229115 96.195041 
L 248.152571 88.652621 
L 246.300764 83.313867 
L 244.932949 79.877499 
L 243.439212 76.480325 
L 240.103488 69.866956 
L 238.326141 66.756811 
L 236.439393 63.699878 
L 233.840606 59.832761 
L 230.180102 54.937256 
L 227.666001 51.884279 
L 225.034802 48.918092 
L 222.729961 46.490326 
L 218.730187 42.609906 
L 214.172417 38.637492 
L 209.348492 34.883981 
L 205.929283 32.472381 
L 202.414294 30.188631 
L 199.424926 28.391386 
L 195.069283 25.995004 
L 190.513995 23.752049 
L 185.853213 21.717075 
L 181.421192 20.011488 
L 178.051854 18.857487 
L 174.644558 17.811099 
L 169.109276 16.360647 
L 161.317503 14.821613 
L 157.511895 14.276712 
L 153.688475 13.862944 
L 149.553475 13.564514 
L 142.336648 13.411388 
L 138.086748 13.539292 
L 133.044798 13.901494 
L 128.282518 14.455359 
L 123.550612 15.212655 
L 119.893417 15.942062 
L 116.26471 16.792772 
L 108.685611 18.992011 
L 104.068322 20.624698 
L 99.432192 22.500288 
L 92.510761 25.771548 
L 86.749799 28.963049 
L 83.009802 31.285557 
L 79.372332 33.751116 
L 76.724811 35.683994 
L 73.061663 38.567481 
L 69.975088 41.203142 
L 66.995133 43.945809 
L 64.516939 46.390497 
L 62.123313 48.908216 
L 57.330536 54.48383 
L 54.888454 57.647898 
L 52.57234 60.891592 
L 50.489218 64.045322 
L 47.3266 69.358539 
L 44.372849 75.06967 
L 43.046252 77.949324 
L 41.329977 82.062669 
L 39.797043 86.228202 
L 38.575962 90.013283 
L 37.180323 95.112227 
L 35.951532 100.792708 
L 35.394907 104.071012 
L 34.728497 109.355871 
L 34.360002 114.311171 
L 34.238663 119.248145 
L 34.392265 124.722689 
L 34.784297 129.568572 
L 35.431339 134.4741 
L 35.934742 137.371949 
L 37.126498 142.794172 
L 38.262509 146.928502 
L 39.520907 150.821008 
L 41.205299 155.292622 
L 44.825736 163.123161 
L 45.964644 165.239379 
L 48.716992 169.861646 
L 51.790704 174.372777 
L 54.182168 177.507319 
L 56.830774 180.662858 
L 62.486372 186.494506 
L 64.484432 188.305512 
L 69.787525 192.582506 
L 74.236133 195.648504 
L 81.692705 199.871068 
L 86.892009 202.211543 
L 92.606967 204.264012 
L 95.506438 205.107713 
L 101.357191 206.420254 
L 106.09995 207.109411 
L 109.822015 207.41714 
L 115.88636 207.475676 
L 118.416659 207.334602 
L 126.149946 206.270031 
L 129.43385 205.511754 
L 133.351806 204.346686 
L 136.145522 203.329302 
L 138.876938 202.170949 
L 142.587703 200.310201 
L 147.627248 197.162697 
L 150.138462 195.271255 
L 153.769046 192.051307 
L 154.979117 190.821915 
L 157.186026 188.324212 
L 159.534785 185.19714 
L 161.45239 182.127334 
L 162.693424 179.766194 
L 163.954157 176.8855 
L 164.857729 174.313809 
L 165.497907 172.004509 
L 166.045265 169.307749 
L 166.44228 165.706036 
L 166.492951 163.371168 
L 166.348368 160.739944 
L 165.900329 157.701993 
L 165.487637 155.923614 
L 164.94607 154.121822 
L 163.761113 151.175764 
L 162.809919 149.346858 
L 161.870816 147.827385 
L 160.432183 145.883151 
L 158.258914 143.560833 
L 156.025659 141.722844 
L 153.542326 140.168246 
L 151.18346 139.078344 
L 149.354933 138.458351 
L 146.626259 137.863586 
L 144.550115 137.660636 
L 142.197924 137.683445 
L 139.445613 138.052859 
L 137.143912 138.657603 
L 135.294165 139.353791 
L 132.705937 140.679798 
L 131.414672 141.516116 
L 129.614407 142.912065 
L 127.389523 145.096348 
L 126.398856 146.279892 
L 124.382693 149.27083 
L 123.753441 150.431 
L 122.370396 153.639521 
L 121.922865 154.999889 
L 121.368006 157.133563 
L 120.876059 160.042948 
L 120.702327 162.032993 
L 120.653857 164.064162 
L 120.812928 167.079471 
L 121.247288 170.126428 
L 122.198568 174.012113 
L 122.670357 175.464435 
L 123.822262 178.39595 
L 126.002512 182.657625 
L 128.387854 186.291336 
L 130.123176 188.518149 
L 132.25112 190.907262 
L 134.007365 192.6551 
L 137.354459 195.544921 
L 139.695709 197.284986 
L 142.138188 198.894726 
L 144.374005 200.206745 
L 147.576564 201.848406 
L 154.086611 204.442924 
L 160.475316 206.161855 
L 165.917751 207.059807 
L 170.593233 207.447976 
L 176.608716 207.452869 
L 184.256174 206.679877 
L 189.415861 205.668084 
L 194.584677 204.250635 
L 198.207377 203.008402 
L 202.282277 201.355335 
L 205.691065 199.754194 
L 205.691065 199.754194 
" clip-path="url(#p5f6a0c1fa7)" style="fill: none; stroke: #ff0000; stroke-width: 2; stroke-linecap: square"/>
   </g>
   <g id="line2d_69">
    <path d="M 267.807618 199.754194 
L 267.787869 197.539119 
L 267.570062 192.075124 
L 266.868533 184.507918 
L 265.828119 177.66528 
L 265.040443 173.679451 
L 263.611838 167.740059 
L 262.078664 162.463034 
L 259.509954 155.112982 
L 256.6912 148.388062 
L 253.927852 142.692781 
L 250.764485 136.951533 
L 245.818011 129.184148 
L 241.854197 123.760983 
L 240.095264 121.539048 
L 234.733663 115.351151 
L 229.309359 109.84646 
L 223.592872 104.723006 
L 220.536725 102.231466 
L 217.158764 99.658128 
L 213.526883 97.087109 
L 206.086945 92.394703 
L 201.535964 89.870917 
L 194.914345 86.625567 
L 193.383957 85.943457 
L 188.683652 84.000014 
L 181.107061 81.326274 
L 174.894906 79.53399 
L 171.144832 78.618972 
L 164.52428 77.300236 
L 157.979215 76.359019 
L 151.695766 75.78682 
L 142.969441 75.522562 
L 139.424944 75.590408 
L 132.509458 76.014834 
L 128.563247 76.431339 
L 124.959425 76.923648 
L 118.522179 78.073279 
L 112.648392 79.431961 
L 107.197772 80.966158 
L 101.739668 82.776801 
L 96.962318 84.597049 
L 91.907731 86.774513 
L 85.14792 90.117531 
L 80.979317 92.442936 
L 76.539382 95.158994 
L 73.123619 97.428555 
L 66.988615 101.935664 
L 63.738804 104.569509 
L 58.739032 108.997344 
L 53.415244 114.283901 
L 49.578075 118.522831 
L 47.298709 121.237735 
L 43.767678 125.778113 
L 40.349421 130.627896 
L 36.30248 137.091799 
L 34.185033 140.866111 
L 30.951589 147.314306 
L 27.562592 155.312107 
L 25.135111 162.25789 
L 23.218404 168.960172 
L 21.507908 176.65422 
L 20.500217 182.825445 
L 19.697846 190.350149 
L 19.544463 192.654081 
L 19.345604 198.732949 
L 19.443687 204.79431 
L 20.060857 213.104912 
L 20.439037 216.232041 
L 21.731424 224.005512 
L 23.751298 232.560626 
L 24.360349 234.709136 
L 27.131133 243.053201 
L 29.970557 250.033474 
L 32.572294 255.542833 
L 35.762298 261.482558 
L 39.633149 267.79872 
L 43.533988 273.413939 
L 47.904681 279.007888 
L 51.617605 283.287372 
L 57.965465 289.781721 
L 61.020595 292.591231 
L 65.512888 296.39915 
L 70.52846 300.24369 
L 73.741539 302.50253 
L 77.683245 305.073734 
L 82.085494 307.703095 
L 85.489806 309.572368 
L 92.58849 313.04272 
L 95.119913 314.148322 
L 100.475938 316.271907 
L 104.177528 317.574999 
L 108.517215 318.938297 
L 114.560648 320.551794 
L 121.476571 322.00617 
L 129.184373 323.151068 
L 138.816507 323.896153 
L 144.847683 323.980776 
L 153.518964 323.58865 
L 157.549602 323.198762 
L 162.225875 322.579237 
L 167.485828 321.664462 
L 174.594225 320.052332 
L 179.92236 318.551073 
L 185.289064 316.774537 
L 191.163672 314.511052 
L 197.626319 311.612438 
L 203.192907 308.747366 
L 208.297478 305.795706 
L 211.277674 303.91823 
L 214.958546 301.431055 
L 220.027381 297.676732 
L 222.983363 295.295279 
L 228.068949 290.82864 
L 231.035594 287.983575 
L 234.104182 284.832061 
L 239.71614 278.43489 
L 242.865824 274.420785 
L 247.102816 268.425548 
L 249.102839 265.310557 
L 251.042903 262.079226 
L 253.607214 257.431478 
L 255.724753 253.19751 
L 258.842262 246.092196 
L 261.687246 238.267136 
L 262.644585 235.196854 
L 264.3487 228.865359 
L 265.326227 224.460155 
L 266.318261 218.933259 
L 267.127139 212.739301 
L 267.537073 207.948583 
L 267.747628 203.614496 
L 267.807618 199.754194 
L 267.807618 199.754194 
" clip-path="url(#p5f6a0c1fa7)" style="fill: none; stroke: #0000ff; stroke-width: 2; stroke-linecap: square"/>
   </g>
   <g id="patch_3">
    <path d="M 143.574512 330.192163 
L 143.574512 7.2 
" style="fill: none; stroke: #000000; stroke-width: 0.8; stroke-linejoin: miter; stroke-linecap: square"/>
   </g>
   <g id="patch_4">
    <path d="M 14.376364 199.754194 
L 272.776858 199.754194 
" style="fill: none; stroke: #000000; stroke-width: 0.8; stroke-linejoin: miter; stroke-linecap: square"/>
   </g>
  </g>
 </g>
 <defs>
  <clipPath id="p5f6a0c1fa7">
   <rect x="14.376364" y="7.2" width="258.400494" height="322.992163"/>
  </clipPath>
 </defs>
</svg>
