<?xml version="1.0" encoding="utf-8" standalone="no"?>
<!DOCTYPE svg PUBLIC "-//W3C//DTD SVG 1.1//EN"
  "http://www.w3.org/Graphics/SVG/1.1/DTD/svg11.dtd">
<svg xmlns:xlink="http://www.w3.org/1999/xlink" width="327.798914pt" height="333.423259pt" viewBox="0 0 327.798914 333.423259" xmlns="http://www.w3.org/2000/svg" version="1.1">
 <metadata>
  <rdf:RDF xmlns:dc="http://purl.org/dc/elements/1.1/" xmlns:cc="http://creativecommons.org/ns#" xmlns:rdf="http://www.w3.org/1999/02/22-rdf-syntax-ns#">
   <cc:Work>
    <dc:type rdf:resource="http://purl.org/dc/dcmitype/StillImage"/>
    <dc:date>2022-10-11T15:42:10.849084</dc:date>
    <dc:format>image/svg+xml</dc:format>
    <dc:creator>
     <cc:Agent>
      <dc:title>Matplotlib v3.5.1, https://matplotlib.org/</dc:title>
     </cc:Agent>
    </dc:creator>
   </cc:Work>
  </rdf:RDF>
 </metadata>
 <defs>
  <style type="text/css">*{stroke-linejoin: round; stroke-linecap: butt}</style>
 </defs>
 <g id="figure_1">
  <g id="patch_1">
   <path d="M -0 333.423259 
L 327.798914 333.423259 
L 327.798914 0 
L -0 0 
z
" style="fill: #ffffff"/>
  </g>
  <g id="axes_1">
   <g id="patch_2">
    <path d="M 13.772256 325.989324 
L 303.368065 325.989324 
L 303.368065 7.433935 
L 13.772256 7.433935 
z
" style="fill: #ffffff"/>
   </g>
   <g id="patch_3">
    <path d="M 297.798914 305.940384 
L 296.747582 303.845658 
L 294.649468 299.712733 
L 293.864401 298.182543 
L 291.670135 293.952611 
L 291.283776 293.21498 
L 289.385554 289.622068 
L 288.619045 288.185908 
L 286.237992 283.778506 
L 284.974366 281.472573 
L 283.116668 278.124194 
L 282.148401 276.398609 
L 281.676908 275.56322 
L 279.607454 271.934337 
L 278.433057 269.902339 
L 276.445885 266.509165 
L 275.751398 265.336677 
L 274.288026 262.888777 
L 272.369238 259.725678 
L 270.944995 257.412028 
L 269.875656 255.694062 
L 268.853025 254.066504 
L 267.573861 252.051808 
L 265.975778 249.567838 
L 264.90049 247.917118 
L 262.764449 244.687259 
L 260.896334 241.916251 
L 260.295737 241.036025 
L 258.924542 239.04584 
L 257.367615 236.818822 
L 256.161102 235.116981 
L 253.820651 231.875295 
L 252.797956 230.483495 
L 251.127658 228.242672 
L 250.291892 227.136475 
L 248.736743 225.104831 
L 248.082605 224.260645 
L 246.331926 222.031578 
L 244.712072 220.008299 
L 243.223302 218.181992 
L 241.487938 216.093367 
L 240.035798 214.378867 
L 238.878335 213.033978 
L 238.302288 212.371825 
L 235.912315 209.67552 
L 235.529849 209.251647 
L 233.4342 206.966421 
L 231.44381 204.854388 
L 231.04601 204.4391 
L 229.629151 202.97842 
L 228.35498 201.689469 
L 226.853023 200.200038 
L 224.39784 197.83511 
L 223.545198 197.034069 
L 222.837865 196.377469 
L 221.309176 194.982974 
L 219.095975 193.023538 
L 217.962118 192.046947 
L 216.834079 191.093692 
L 214.614806 189.271641 
L 213.900613 188.700327 
L 212.643101 187.712197 
L 210.449052 186.042546 
L 209.437409 185.295988 
L 207.697418 184.046321 
L 207.456568 183.876768 
L 204.959697 182.168128 
L 203.761747 181.380148 
L 202.85934 180.800181 
L 201.830709 180.153358 
L 199.753229 178.893346 
L 198.315288 178.057527 
L 196.474593 177.030949 
L 195.052466 176.271139 
L 194.543064 176.006044 
L 192.365409 174.914812 
L 191.055459 174.291203 
L 190.459989 174.015876 
L 188.575626 173.178167 
L 186.586427 172.349195 
L 185.462503 171.905945 
L 184.069971 171.381932 
L 183.531264 171.186687 
L 181.714103 170.558838 
L 180.421508 170.141103 
L 178.514668 169.568679 
L 177.677553 169.333878 
L 176.201154 168.9443 
L 174.54993 168.545683 
L 173.038685 168.215185 
L 172.111413 168.028639 
L 170.844481 167.793726 
L 168.533137 167.424563 
L 168.04686 167.356668 
L 165.779687 167.084952 
L 165.339028 167.040711 
L 163.216214 166.866668 
L 161.727195 166.783216 
L 160.158502 166.72975 
L 159.414305 166.716748 
L 157.57818 166.718697 
L 156.119554 166.754763 
L 154.721832 166.817999 
L 153.277868 166.912797 
L 152.552358 166.971733 
L 150.73589 167.152456 
L 149.89816 167.251774 
L 148.528061 167.435932 
L 146.624117 167.736619 
L 145.298352 167.976748 
L 143.608641 168.319394 
L 141.812293 168.728642 
L 141.326102 168.847378 
L 139.571276 169.30418 
L 138.895614 169.491858 
L 136.625324 170.170512 
L 134.817081 170.764016 
L 133.478738 171.233536 
L 132.573985 171.56552 
L 131.90148 171.819903 
L 129.574982 172.75004 
L 128.174968 173.347239 
L 126.744981 173.986291 
L 126.125475 174.272263 
L 124.918719 174.845147 
L 122.351427 176.13351 
L 121.791651 176.426999 
L 119.801933 177.506637 
L 118.518293 178.23333 
L 116.960189 179.147205 
L 115.75055 179.880741 
L 114.067672 180.936216 
L 112.78807 181.76599 
L 111.818891 182.410119 
L 110.581703 183.251978 
L 109.09292 184.294185 
L 106.998185 185.814499 
L 105.956261 186.594178 
L 104.000529 188.099773 
L 102.73911 189.100009 
L 101.423628 190.167461 
L 100.162871 191.213834 
L 98.863647 192.316023 
L 98.249442 192.84552 
L 96.773351 194.1402 
L 95.563278 195.224901 
L 94.090412 196.573549 
L 91.70959 198.819479 
L 90.455119 200.035629 
L 89.350158 201.12556 
L 87.633935 202.853216 
L 86.328631 204.195543 
L 85.607626 204.947491 
L 83.515588 207.171583 
L 82.229822 208.569701 
L 80.70789 210.255315 
L 79.850528 211.219537 
L 77.588864 213.813756 
L 77.370126 214.068554 
L 75.676163 216.065047 
L 74.03667 218.036595 
L 72.259001 220.217935 
L 71.372642 221.322527 
L 70.384133 222.567732 
L 68.966015 224.378617 
L 67.595803 226.155771 
L 65.830014 228.485756 
L 64.666958 230.044893 
L 62.130352 233.512748 
L 61.203632 234.802743 
L 59.925129 236.602668 
L 58.932905 238.015742 
L 57.332663 240.324519 
L 55.499409 243.014689 
L 53.881064 245.429614 
L 53.344886 246.238006 
L 51.240023 249.451424 
L 50.631176 250.392795 
L 48.109913 254.347738 
L 46.803997 256.432142 
L 46.068558 257.616778 
L 44.840591 259.612087 
L 43.772237 261.365663 
L 41.930571 264.427033 
L 40.026214 267.64385 
L 39.556915 268.444585 
L 37.082365 272.719074 
L 36.350501 274.000137 
L 34.443214 277.374825 
L 33.176003 279.645877 
L 31.900877 281.954401 
L 31.106173 283.404967 
L 29.423499 286.506282 
L 27.657168 289.805539 
L 25.764347 293.390806 
L 25.368734 294.146656 
L 23.382853 297.974802 
L 21.988867 300.695804 
L 20.119233 304.389076 
L 19.341406 305.940384 
L 19.341406 27.482875 
L 21.105246 30.988209 
L 22.471181 33.672069 
L 24.106338 36.849665 
L 25.637277 39.789919 
L 25.736496 39.979315 
L 27.85646 43.992214 
L 29.672884 47.379183 
L 30.630468 49.145649 
L 31.860111 51.39467 
L 33.228562 53.872035 
L 34.703472 56.512004 
L 36.221414 59.196369 
L 37.810713 61.971454 
L 39.555549 64.97634 
L 40.030944 65.787465 
L 41.866039 68.888073 
L 42.861202 70.549287 
L 44.513428 73.275915 
L 45.840388 75.437369 
L 47.316414 77.811917 
L 48.092623 79.048083 
L 50.044862 82.1189 
L 51.762903 84.776039 
L 52.603738 86.061029 
L 54.778614 89.337633 
L 55.024951 89.704474 
L 57.478125 93.310128 
L 58.914716 95.381482 
L 59.968951 96.882673 
L 60.680644 97.887072 
L 62.889494 100.958043 
L 64.136724 102.661111 
L 65.95374 105.10222 
L 66.773732 106.188325 
L 68.964338 109.042484 
L 69.47352 109.696027 
L 70.967579 111.59218 
L 72.319523 113.280336 
L 74.084706 115.444979 
L 75.415655 117.047522 
L 76.403894 118.220961 
L 78.47247 120.63178 
L 78.923455 121.149219 
L 81.27069 123.795149 
L 82.234264 124.858428 
L 83.578607 126.319592 
L 85.66129 128.531992 
L 86.135334 129.026856 
L 88.186899 131.131311 
L 88.662845 131.610886 
L 91.399866 134.305619 
L 92.629942 135.481641 
L 93.160479 135.982155 
L 94.335118 137.075936 
L 96.723434 139.23873 
L 97.382986 139.821564 
L 98.92619 141.16085 
L 100.22024 142.257534 
L 101.576823 143.381388 
L 103.303214 144.773379 
L 104.204016 145.482698 
L 105.644678 146.592892 
L 107.91579 148.282497 
L 109.189527 149.197668 
L 109.789132 149.620413 
L 111.806258 151.004655 
L 113.232122 151.947885 
L 114.50636 152.766102 
L 115.336319 153.286493 
L 116.65186 154.091076 
L 119.338459 155.656971 
L 120.736902 156.431027 
L 120.986505 156.566232 
L 122.944746 157.595911 
L 124.268434 158.260729 
L 126.102215 159.140151 
L 127.598399 159.821889 
L 128.86046 160.371946 
L 129.983871 160.842325 
L 131.620742 161.495242 
L 132.859739 161.963862 
L 134.505172 162.552118 
L 135.572792 162.912996 
L 136.753809 163.293132 
L 137.742665 163.596005 
L 140.324218 164.320497 
L 140.641715 164.402989 
L 142.403169 164.834348 
L 143.508588 165.08229 
L 144.972219 165.38357 
L 146.645846 165.690366 
L 147.891582 165.892603 
L 148.964816 166.04896 
L 150.67524 166.263951 
L 152.395937 166.437828 
L 153.960003 166.558977 
L 155.544027 166.645857 
L 156.065662 166.666578 
L 157.659645 166.705675 
L 159.69063 166.702612 
L 160.310212 166.689883 
L 161.4781 166.650894 
L 163.76477 166.517819 
L 164.807183 166.43223 
L 166.929424 166.209741 
L 167.812601 166.098087 
L 169.195591 165.900735 
L 169.776815 165.809595 
L 171.777081 165.458851 
L 172.817352 165.253723 
L 174.492736 164.890681 
L 176.516531 164.39837 
L 177.754651 164.068176 
L 178.1636 163.954276 
L 179.983425 163.418288 
L 181.841823 162.821842 
L 182.990178 162.428482 
L 183.913818 162.098351 
L 186.272282 161.199783 
L 186.674732 161.03847 
L 188.408247 160.317035 
L 190.439573 159.416732 
L 190.991152 159.162035 
L 193.370137 158.013438 
L 194.565541 157.405596 
L 195.954654 156.673471 
L 197.446536 155.85631 
L 198.178823 155.44351 
L 199.344168 154.770708 
L 200.586537 154.03195 
L 202.347441 152.94687 
L 204.507628 151.554912 
L 205.728647 150.738472 
L 206.27898 150.363487 
L 208.128809 149.071167 
L 210.331633 147.468118 
L 210.588538 147.276624 
L 212.988116 145.442217 
L 214.094396 144.568641 
L 215.628104 143.328465 
L 217.109812 142.098245 
L 217.913388 141.417869 
L 219.771501 139.809112 
L 221.221985 138.51881 
L 221.911207 137.895109 
L 223.59199 136.3455 
L 225.285504 134.74311 
L 226.068323 133.98849 
L 228.496175 131.592106 
L 229.409433 130.668769 
L 231.209615 128.813636 
L 231.409639 128.604633 
L 232.815568 127.119373 
L 234.838482 124.932495 
L 235.798788 123.873776 
L 238.044529 121.346178 
L 239.511062 119.656482 
L 240.405436 118.610845 
L 241.815357 116.939132 
L 243.900555 114.414413 
L 244.719931 113.405235 
L 246.286773 111.44859 
L 247.640913 109.729154 
L 248.183713 109.032532 
L 249.678625 107.092104 
L 252.17444 103.780942 
L 253.504749 101.979483 
L 254.343997 100.829924 
L 255.746224 98.88665 
L 257.257341 96.760852 
L 258.055889 95.624229 
L 259.735431 93.20374 
L 261.189008 91.076192 
L 262.360873 89.338876 
L 263.82072 87.147029 
L 265.665155 84.333977 
L 267.635557 81.274819 
L 268.39156 80.086277 
L 269.415045 78.464138 
L 270.525128 76.687735 
L 273.269867 72.219491 
L 274.671482 69.896019 
L 275.838151 67.940498 
L 277.056418 65.877622 
L 278.135813 64.032083 
L 280.189054 60.475275 
L 280.394275 60.116444 
L 283.074752 55.374044 
L 283.131907 55.271799 
L 285.429375 51.123003 
L 286.15816 49.791114 
L 288.388126 45.668356 
L 289.877854 42.874348 
L 290.515715 41.668283 
L 292.558067 37.767294 
L 293.429587 36.08441 
L 295.529448 31.984816 
L 296.68558 29.700642 
L 297.798914 27.482875 
z
" clip-path="url(#pe58106566e)" style="fill: #008000; opacity: 0.5"/>
   </g>
   <g id="matplotlib.axis_1">
    <g id="xtick_1">
     <g id="line2d_1">
      <defs>
       <path id="m5e19a60df8" d="M 0 0 
L 0 3.5 
" style="stroke: #000000; stroke-width: 0.8"/>
      </defs>
      <g>
       <use xlink:href="#m5e19a60df8" x="19.341406" y="166.71163" style="stroke: #000000; stroke-width: 0.8"/>
      </g>
     </g>
     <g id="text_1">
      <!-- −1.0 -->
      <g transform="translate(7.2 181.310067)scale(0.1 -0.1)">
       <defs>
        <path id="DejaVuSans-2212" d="M 678 2272 
L 4684 2272 
L 4684 1741 
L 678 1741 
L 678 2272 
z
" transform="scale(0.015625)"/>
        <path id="DejaVuSans-31" d="M 794 531 
L 1825 531 
L 1825 4091 
L 703 3866 
L 703 4441 
L 1819 4666 
L 2450 4666 
L 2450 531 
L 3481 531 
L 3481 0 
L 794 0 
L 794 531 
z
" transform="scale(0.015625)"/>
        <path id="DejaVuSans-2e" d="M 684 794 
L 1344 794 
L 1344 0 
L 684 0 
L 684 794 
z
" transform="scale(0.015625)"/>
        <path id="DejaVuSans-30" d="M 2034 4250 
Q 1547 4250 1301 3770 
Q 1056 3291 1056 2328 
Q 1056 1369 1301 889 
Q 1547 409 2034 409 
Q 2525 409 2770 889 
Q 3016 1369 3016 2328 
Q 3016 3291 2770 3770 
Q 2525 4250 2034 4250 
z
M 2034 4750 
Q 2819 4750 3233 4129 
Q 3647 3509 3647 2328 
Q 3647 1150 3233 529 
Q 2819 -91 2034 -91 
Q 1250 -91 836 529 
Q 422 1150 422 2328 
Q 422 3509 836 4129 
Q 1250 4750 2034 4750 
z
" transform="scale(0.015625)"/>
       </defs>
       <use xlink:href="#DejaVuSans-2212"/>
       <use xlink:href="#DejaVuSans-31" x="83.789062"/>
       <use xlink:href="#DejaVuSans-2e" x="147.412109"/>
       <use xlink:href="#DejaVuSans-30" x="179.199219"/>
      </g>
     </g>
    </g>
    <g id="xtick_2">
     <g id="line2d_2">
      <g>
       <use xlink:href="#m5e19a60df8" x="88.955783" y="166.71163" style="stroke: #000000; stroke-width: 0.8"/>
      </g>
     </g>
     <g id="text_2">
      <!-- −0.5 -->
      <g transform="translate(76.814377 181.310067)scale(0.1 -0.1)">
       <defs>
        <path id="DejaVuSans-35" d="M 691 4666 
L 3169 4666 
L 3169 4134 
L 1269 4134 
L 1269 2991 
Q 1406 3038 1543 3061 
Q 1681 3084 1819 3084 
Q 2600 3084 3056 2656 
Q 3513 2228 3513 1497 
Q 3513 744 3044 326 
Q 2575 -91 1722 -91 
Q 1428 -91 1123 -41 
Q 819 9 494 109 
L 494 744 
Q 775 591 1075 516 
Q 1375 441 1709 441 
Q 2250 441 2565 725 
Q 2881 1009 2881 1497 
Q 2881 1984 2565 2268 
Q 2250 2553 1709 2553 
Q 1456 2553 1204 2497 
Q 953 2441 691 2322 
L 691 4666 
z
" transform="scale(0.015625)"/>
       </defs>
       <use xlink:href="#DejaVuSans-2212"/>
       <use xlink:href="#DejaVuSans-30" x="83.789062"/>
       <use xlink:href="#DejaVuSans-2e" x="147.412109"/>
       <use xlink:href="#DejaVuSans-35" x="179.199219"/>
      </g>
     </g>
    </g>
    <g id="xtick_3">
     <g id="line2d_3">
      <g>
       <use xlink:href="#m5e19a60df8" x="158.57016" y="166.71163" style="stroke: #000000; stroke-width: 0.8"/>
      </g>
     </g>
    </g>
    <g id="xtick_4">
     <g id="line2d_4">
      <g>
       <use xlink:href="#m5e19a60df8" x="228.184537" y="166.71163" style="stroke: #000000; stroke-width: 0.8"/>
      </g>
     </g>
     <g id="text_3">
      <!-- 0.5 -->
      <g transform="translate(220.232975 181.310067)scale(0.1 -0.1)">
       <use xlink:href="#DejaVuSans-30"/>
       <use xlink:href="#DejaVuSans-2e" x="63.623047"/>
       <use xlink:href="#DejaVuSans-35" x="95.410156"/>
      </g>
     </g>
    </g>
    <g id="xtick_5">
     <g id="line2d_5">
      <g>
       <use xlink:href="#m5e19a60df8" x="297.798914" y="166.71163" style="stroke: #000000; stroke-width: 0.8"/>
      </g>
     </g>
     <g id="text_4">
      <!-- 1.0 -->
      <g transform="translate(289.847352 181.310067)scale(0.1 -0.1)">
       <use xlink:href="#DejaVuSans-31"/>
       <use xlink:href="#DejaVuSans-2e" x="63.623047"/>
       <use xlink:href="#DejaVuSans-30" x="95.410156"/>
      </g>
     </g>
    </g>
    <g id="xtick_6">
     <g id="line2d_6">
      <defs>
       <path id="m9638e720e2" d="M 0 0 
L 0 2 
" style="stroke: #000000; stroke-width: 0.6"/>
      </defs>
      <g>
       <use xlink:href="#m9638e720e2" x="33.264282" y="166.71163" style="stroke: #000000; stroke-width: 0.6"/>
      </g>
     </g>
    </g>
    <g id="xtick_7">
     <g id="line2d_7">
      <g>
       <use xlink:href="#m9638e720e2" x="47.187157" y="166.71163" style="stroke: #000000; stroke-width: 0.6"/>
      </g>
     </g>
    </g>
    <g id="xtick_8">
     <g id="line2d_8">
      <g>
       <use xlink:href="#m9638e720e2" x="61.110032" y="166.71163" style="stroke: #000000; stroke-width: 0.6"/>
      </g>
     </g>
    </g>
    <g id="xtick_9">
     <g id="line2d_9">
      <g>
       <use xlink:href="#m9638e720e2" x="75.032908" y="166.71163" style="stroke: #000000; stroke-width: 0.6"/>
      </g>
     </g>
    </g>
    <g id="xtick_10">
     <g id="line2d_10">
      <g>
       <use xlink:href="#m9638e720e2" x="102.878659" y="166.71163" style="stroke: #000000; stroke-width: 0.6"/>
      </g>
     </g>
    </g>
    <g id="xtick_11">
     <g id="line2d_11">
      <g>
       <use xlink:href="#m9638e720e2" x="116.801534" y="166.71163" style="stroke: #000000; stroke-width: 0.6"/>
      </g>
     </g>
    </g>
    <g id="xtick_12">
     <g id="line2d_12">
      <g>
       <use xlink:href="#m9638e720e2" x="130.72441" y="166.71163" style="stroke: #000000; stroke-width: 0.6"/>
      </g>
     </g>
    </g>
    <g id="xtick_13">
     <g id="line2d_13">
      <g>
       <use xlink:href="#m9638e720e2" x="144.647285" y="166.71163" style="stroke: #000000; stroke-width: 0.6"/>
      </g>
     </g>
    </g>
    <g id="xtick_14">
     <g id="line2d_14">
      <g>
       <use xlink:href="#m9638e720e2" x="172.493036" y="166.71163" style="stroke: #000000; stroke-width: 0.6"/>
      </g>
     </g>
    </g>
    <g id="xtick_15">
     <g id="line2d_15">
      <g>
       <use xlink:href="#m9638e720e2" x="186.415911" y="166.71163" style="stroke: #000000; stroke-width: 0.6"/>
      </g>
     </g>
    </g>
    <g id="xtick_16">
     <g id="line2d_16">
      <g>
       <use xlink:href="#m9638e720e2" x="200.338787" y="166.71163" style="stroke: #000000; stroke-width: 0.6"/>
      </g>
     </g>
    </g>
    <g id="xtick_17">
     <g id="line2d_17">
      <g>
       <use xlink:href="#m9638e720e2" x="214.261662" y="166.71163" style="stroke: #000000; stroke-width: 0.6"/>
      </g>
     </g>
    </g>
    <g id="xtick_18">
     <g id="line2d_18">
      <g>
       <use xlink:href="#m9638e720e2" x="242.107413" y="166.71163" style="stroke: #000000; stroke-width: 0.6"/>
      </g>
     </g>
    </g>
    <g id="xtick_19">
     <g id="line2d_19">
      <g>
       <use xlink:href="#m9638e720e2" x="256.030288" y="166.71163" style="stroke: #000000; stroke-width: 0.6"/>
      </g>
     </g>
    </g>
    <g id="xtick_20">
     <g id="line2d_20">
      <g>
       <use xlink:href="#m9638e720e2" x="269.953164" y="166.71163" style="stroke: #000000; stroke-width: 0.6"/>
      </g>
     </g>
    </g>
    <g id="xtick_21">
     <g id="line2d_21">
      <g>
       <use xlink:href="#m9638e720e2" x="283.876039" y="166.71163" style="stroke: #000000; stroke-width: 0.6"/>
      </g>
     </g>
    </g>
   </g>
   <g id="matplotlib.axis_2">
    <g id="ytick_1">
     <g id="line2d_22">
      <defs>
       <path id="m61b2a5ed53" d="M 0 0 
L -3.5 0 
" style="stroke: #000000; stroke-width: 0.8"/>
      </defs>
      <g>
       <use xlink:href="#m61b2a5ed53" x="158.57016" y="305.940384" style="stroke: #000000; stroke-width: 0.8"/>
      </g>
     </g>
     <g id="text_5">
      <!-- −1.0 -->
      <g transform="translate(127.287348 309.739602)scale(0.1 -0.1)">
       <use xlink:href="#DejaVuSans-2212"/>
       <use xlink:href="#DejaVuSans-31" x="83.789062"/>
       <use xlink:href="#DejaVuSans-2e" x="147.412109"/>
       <use xlink:href="#DejaVuSans-30" x="179.199219"/>
      </g>
     </g>
    </g>
    <g id="ytick_2">
     <g id="line2d_23">
      <g>
       <use xlink:href="#m61b2a5ed53" x="158.57016" y="236.326007" style="stroke: #000000; stroke-width: 0.8"/>
      </g>
     </g>
     <g id="text_6">
      <!-- −0.5 -->
      <g transform="translate(127.287348 240.125225)scale(0.1 -0.1)">
       <use xlink:href="#DejaVuSans-2212"/>
       <use xlink:href="#DejaVuSans-30" x="83.789062"/>
       <use xlink:href="#DejaVuSans-2e" x="147.412109"/>
       <use xlink:href="#DejaVuSans-35" x="179.199219"/>
      </g>
     </g>
    </g>
    <g id="ytick_3">
     <g id="line2d_24">
      <g>
       <use xlink:href="#m61b2a5ed53" x="158.57016" y="166.71163" style="stroke: #000000; stroke-width: 0.8"/>
      </g>
     </g>
    </g>
    <g id="ytick_4">
     <g id="line2d_25">
      <g>
       <use xlink:href="#m61b2a5ed53" x="158.57016" y="97.097252" style="stroke: #000000; stroke-width: 0.8"/>
      </g>
     </g>
     <g id="text_7">
      <!-- 0.5 -->
      <g transform="translate(135.667035 100.896471)scale(0.1 -0.1)">
       <use xlink:href="#DejaVuSans-30"/>
       <use xlink:href="#DejaVuSans-2e" x="63.623047"/>
       <use xlink:href="#DejaVuSans-35" x="95.410156"/>
      </g>
     </g>
    </g>
    <g id="ytick_5">
     <g id="line2d_26">
      <g>
       <use xlink:href="#m61b2a5ed53" x="158.57016" y="27.482875" style="stroke: #000000; stroke-width: 0.8"/>
      </g>
     </g>
     <g id="text_8">
      <!-- 1.0 -->
      <g transform="translate(135.667035 31.282094)scale(0.1 -0.1)">
       <use xlink:href="#DejaVuSans-31"/>
       <use xlink:href="#DejaVuSans-2e" x="63.623047"/>
       <use xlink:href="#DejaVuSans-30" x="95.410156"/>
      </g>
     </g>
    </g>
    <g id="ytick_6">
     <g id="line2d_27">
      <defs>
       <path id="m4711e42b7f" d="M 0 0 
L -2 0 
" style="stroke: #000000; stroke-width: 0.6"/>
      </defs>
      <g>
       <use xlink:href="#m4711e42b7f" x="158.57016" y="319.863259" style="stroke: #000000; stroke-width: 0.6"/>
      </g>
     </g>
    </g>
    <g id="ytick_7">
     <g id="line2d_28">
      <g>
       <use xlink:href="#m4711e42b7f" x="158.57016" y="292.017508" style="stroke: #000000; stroke-width: 0.6"/>
      </g>
     </g>
    </g>
    <g id="ytick_8">
     <g id="line2d_29">
      <g>
       <use xlink:href="#m4711e42b7f" x="158.57016" y="278.094633" style="stroke: #000000; stroke-width: 0.6"/>
      </g>
     </g>
    </g>
    <g id="ytick_9">
     <g id="line2d_30">
      <g>
       <use xlink:href="#m4711e42b7f" x="158.57016" y="264.171757" style="stroke: #000000; stroke-width: 0.6"/>
      </g>
     </g>
    </g>
    <g id="ytick_10">
     <g id="line2d_31">
      <g>
       <use xlink:href="#m4711e42b7f" x="158.57016" y="250.248882" style="stroke: #000000; stroke-width: 0.6"/>
      </g>
     </g>
    </g>
    <g id="ytick_11">
     <g id="line2d_32">
      <g>
       <use xlink:href="#m4711e42b7f" x="158.57016" y="222.403131" style="stroke: #000000; stroke-width: 0.6"/>
      </g>
     </g>
    </g>
    <g id="ytick_12">
     <g id="line2d_33">
      <g>
       <use xlink:href="#m4711e42b7f" x="158.57016" y="208.480256" style="stroke: #000000; stroke-width: 0.6"/>
      </g>
     </g>
    </g>
    <g id="ytick_13">
     <g id="line2d_34">
      <g>
       <use xlink:href="#m4711e42b7f" x="158.57016" y="194.55738" style="stroke: #000000; stroke-width: 0.6"/>
      </g>
     </g>
    </g>
    <g id="ytick_14">
     <g id="line2d_35">
      <g>
       <use xlink:href="#m4711e42b7f" x="158.57016" y="180.634505" style="stroke: #000000; stroke-width: 0.6"/>
      </g>
     </g>
    </g>
    <g id="ytick_15">
     <g id="line2d_36">
      <g>
       <use xlink:href="#m4711e42b7f" x="158.57016" y="152.788754" style="stroke: #000000; stroke-width: 0.6"/>
      </g>
     </g>
    </g>
    <g id="ytick_16">
     <g id="line2d_37">
      <g>
       <use xlink:href="#m4711e42b7f" x="158.57016" y="138.865879" style="stroke: #000000; stroke-width: 0.6"/>
      </g>
     </g>
    </g>
    <g id="ytick_17">
     <g id="line2d_38">
      <g>
       <use xlink:href="#m4711e42b7f" x="158.57016" y="124.943003" style="stroke: #000000; stroke-width: 0.6"/>
      </g>
     </g>
    </g>
    <g id="ytick_18">
     <g id="line2d_39">
      <g>
       <use xlink:href="#m4711e42b7f" x="158.57016" y="111.020128" style="stroke: #000000; stroke-width: 0.6"/>
      </g>
     </g>
    </g>
    <g id="ytick_19">
     <g id="line2d_40">
      <g>
       <use xlink:href="#m4711e42b7f" x="158.57016" y="83.174377" style="stroke: #000000; stroke-width: 0.6"/>
      </g>
     </g>
    </g>
    <g id="ytick_20">
     <g id="line2d_41">
      <g>
       <use xlink:href="#m4711e42b7f" x="158.57016" y="69.251502" style="stroke: #000000; stroke-width: 0.6"/>
      </g>
     </g>
    </g>
    <g id="ytick_21">
     <g id="line2d_42">
      <g>
       <use xlink:href="#m4711e42b7f" x="158.57016" y="55.328626" style="stroke: #000000; stroke-width: 0.6"/>
      </g>
     </g>
    </g>
    <g id="ytick_22">
     <g id="line2d_43">
      <g>
       <use xlink:href="#m4711e42b7f" x="158.57016" y="41.405751" style="stroke: #000000; stroke-width: 0.6"/>
      </g>
     </g>
    </g>
    <g id="ytick_23">
     <g id="line2d_44">
      <g>
       <use xlink:href="#m4711e42b7f" x="158.57016" y="13.56" style="stroke: #000000; stroke-width: 0.6"/>
      </g>
     </g>
    </g>
   </g>
   <g id="line2d_45">
    <path d="M 19.341406 27.482875 
L 25.736496 39.979315 
L 31.860111 51.39467 
L 37.810713 61.971454 
L 42.861202 70.549287 
L 48.092623 79.048083 
L 52.603738 86.061029 
L 58.914716 95.381482 
L 64.136724 102.661111 
L 69.47352 109.696027 
L 74.084706 115.444979 
L 78.923455 121.149219 
L 83.578607 126.319592 
L 88.662845 131.610886 
L 94.335118 137.075936 
L 100.22024 142.257534 
L 104.204016 145.482698 
L 109.189527 149.197668 
L 113.232122 151.947885 
L 116.65186 154.091076 
L 120.986505 156.566232 
L 126.102215 159.140151 
L 129.983871 160.842325 
L 134.505172 162.552118 
L 137.742665 163.596005 
L 142.403169 164.834348 
L 146.645846 165.690366 
L 150.67524 166.263951 
L 155.544027 166.645857 
L 159.69063 166.702612 
L 163.76477 166.517819 
L 167.812601 166.098087 
L 171.777081 165.458851 
L 174.492736 164.890681 
L 178.1636 163.954276 
L 182.990178 162.428482 
L 186.674732 161.03847 
L 190.991152 159.162035 
L 195.954654 156.673471 
L 200.586537 154.03195 
L 205.728647 150.738472 
L 210.331633 147.468118 
L 214.094396 144.568641 
L 217.913388 141.417869 
L 221.911207 137.895109 
L 226.068323 133.98849 
L 231.409639 128.604633 
L 235.798788 123.873776 
L 241.815357 116.939132 
L 247.640913 109.729154 
L 252.17444 103.780942 
L 257.257341 96.760852 
L 262.360873 89.338876 
L 268.39156 80.086277 
L 273.269867 72.219491 
L 278.135813 64.032083 
L 283.131907 55.271799 
L 289.877854 42.874348 
L 295.529448 31.984816 
L 297.798914 27.482875 
L 297.798914 27.482875 
" clip-path="url(#pe58106566e)" style="fill: none; stroke: #0000ff; stroke-linecap: square"/>
   </g>
   <g id="line2d_46">
    <path d="M 19.341406 305.940384 
L 25.061071 294.736024 
L 30.872441 283.833323 
L 36.699464 273.388348 
L 42.58498 263.333639 
L 48.521947 253.695165 
L 54.281862 244.828031 
L 59.7231 236.889241 
L 64.025058 230.913715 
L 69.302247 223.946649 
L 74.506491 217.467671 
L 79.166108 211.996841 
L 85.058661 205.525024 
L 89.891005 200.589878 
L 93.83247 196.812944 
L 99.180931 192.044619 
L 103.075375 188.831135 
L 107.083266 185.75152 
L 112.198786 182.156028 
L 115.602585 179.971911 
L 120.23575 177.266396 
L 123.725501 175.432172 
L 128.380715 173.25771 
L 132.548992 171.574858 
L 136.959929 170.065837 
L 141.338872 168.844216 
L 145.61823 167.916499 
L 148.704847 167.410655 
L 152.675695 166.961181 
L 157.227321 166.724581 
L 162.085366 166.80038 
L 165.569169 167.063469 
L 169.90456 167.634346 
L 175.128847 168.680979 
L 179.157359 169.755776 
L 182.567654 170.847842 
L 186.638738 172.370267 
L 191.646948 174.569733 
L 195.299569 176.401075 
L 199.936092 179.001765 
L 204.617377 181.940855 
L 207.83786 184.145573 
L 212.942552 187.94544 
L 216.304605 190.652561 
L 220.482229 194.242611 
L 225.746538 199.12351 
L 229.959766 203.316682 
L 234.674875 208.311712 
L 239.609006 213.880726 
L 244.660222 219.944159 
L 250.231986 227.057571 
L 255.411329 234.069928 
L 261.288208 242.49337 
L 265.072938 248.180732 
L 270.904802 257.347158 
L 275.205931 264.420634 
L 281.46549 275.189667 
L 286.610588 284.462816 
L 292.075334 294.728514 
L 297.798914 305.940384 
L 297.798914 305.940384 
" clip-path="url(#pe58106566e)" style="fill: none; stroke: #ff0000; stroke-linecap: square"/>
   </g>
   <g id="patch_4">
    <path d="M 158.57016 325.989324 
L 158.57016 7.433935 
" style="fill: none; stroke: #000000; stroke-width: 0.8; stroke-linejoin: miter; stroke-linecap: square"/>
   </g>
   <g id="patch_5">
    <path d="M 13.772256 166.71163 
L 303.368065 166.71163 
" style="fill: none; stroke: #000000; stroke-width: 0.8; stroke-linejoin: miter; stroke-linecap: square"/>
   </g>
   <g id="text_9">
    <!-- $y=x^2$ -->
    <g transform="translate(281.778914 17.4)scale(0.12 -0.12)">
     <defs>
      <path id="Cmmi10-79" d="M 538 -916 
Q 672 -1147 1006 -1147 
Q 1309 -1147 1531 -934 
Q 1753 -722 1889 -420 
Q 2025 -119 2100 197 
Q 1816 -72 1484 -72 
Q 1231 -72 1053 15 
Q 875 103 776 276 
Q 678 450 678 697 
Q 678 906 734 1126 
Q 791 1347 892 1617 
Q 994 1888 1069 2088 
Q 1153 2322 1153 2472 
Q 1153 2663 1013 2663 
Q 759 2663 595 2402 
Q 431 2141 353 1819 
Q 341 1778 300 1778 
L 225 1778 
Q 172 1778 172 1838 
L 172 1856 
Q 275 2238 487 2533 
Q 700 2828 1025 2828 
Q 1253 2828 1411 2678 
Q 1569 2528 1569 2297 
Q 1569 2178 1516 2047 
Q 1488 1969 1388 1706 
Q 1288 1444 1234 1272 
Q 1181 1100 1147 934 
Q 1113 769 1113 603 
Q 1113 391 1203 244 
Q 1294 97 1491 97 
Q 1888 97 2203 581 
L 2688 2553 
Q 2709 2638 2787 2698 
Q 2866 2759 2956 2759 
Q 3034 2759 3092 2709 
Q 3150 2659 3150 2578 
Q 3150 2541 3144 2528 
L 2509 -19 
Q 2425 -347 2200 -647 
Q 1975 -947 1658 -1130 
Q 1341 -1313 997 -1313 
Q 831 -1313 668 -1248 
Q 506 -1184 406 -1056 
Q 306 -928 306 -756 
Q 306 -581 409 -453 
Q 513 -325 684 -325 
Q 788 -325 858 -389 
Q 928 -453 928 -556 
Q 928 -703 818 -812 
Q 709 -922 563 -922 
Q 556 -919 550 -917 
Q 544 -916 538 -916 
z
" transform="scale(0.015625)"/>
      <path id="Cmr10-3d" d="M 481 850 
Q 428 850 393 890 
Q 359 931 359 978 
Q 359 1031 393 1068 
Q 428 1106 481 1106 
L 4500 1106 
Q 4547 1106 4581 1068 
Q 4616 1031 4616 978 
Q 4616 931 4581 890 
Q 4547 850 4500 850 
L 481 850 
z
M 481 2094 
Q 428 2094 393 2131 
Q 359 2169 359 2222 
Q 359 2269 393 2309 
Q 428 2350 481 2350 
L 4500 2350 
Q 4547 2350 4581 2309 
Q 4616 2269 4616 2222 
Q 4616 2169 4581 2131 
Q 4547 2094 4500 2094 
L 481 2094 
z
" transform="scale(0.015625)"/>
      <path id="Cmmi10-78" d="M 500 184 
Q 613 97 819 97 
Q 1019 97 1172 289 
Q 1325 481 1381 709 
L 1672 1844 
Q 1741 2153 1741 2266 
Q 1741 2425 1652 2544 
Q 1563 2663 1403 2663 
Q 1200 2663 1022 2536 
Q 844 2409 722 2214 
Q 600 2019 550 1819 
Q 538 1778 500 1778 
L 422 1778 
Q 372 1778 372 1838 
L 372 1856 
Q 434 2094 584 2320 
Q 734 2547 951 2687 
Q 1169 2828 1416 2828 
Q 1650 2828 1839 2703 
Q 2028 2578 2106 2363 
Q 2216 2559 2386 2693 
Q 2556 2828 2759 2828 
Q 2897 2828 3040 2779 
Q 3184 2731 3275 2631 
Q 3366 2531 3366 2381 
Q 3366 2219 3261 2101 
Q 3156 1984 2994 1984 
Q 2891 1984 2822 2050 
Q 2753 2116 2753 2216 
Q 2753 2350 2845 2451 
Q 2938 2553 3066 2572 
Q 2950 2663 2747 2663 
Q 2541 2663 2389 2472 
Q 2238 2281 2175 2047 
L 1894 916 
Q 1825 659 1825 494 
Q 1825 331 1917 214 
Q 2009 97 2163 97 
Q 2463 97 2698 361 
Q 2934 625 3009 941 
Q 3022 978 3059 978 
L 3138 978 
Q 3163 978 3178 961 
Q 3194 944 3194 922 
Q 3194 916 3188 903 
Q 3097 522 2806 225 
Q 2516 -72 2150 -72 
Q 1916 -72 1727 54 
Q 1538 181 1459 397 
Q 1359 209 1182 68 
Q 1006 -72 806 -72 
Q 669 -72 523 -23 
Q 378 25 287 125 
Q 197 225 197 378 
Q 197 528 301 651 
Q 406 775 563 775 
Q 669 775 741 711 
Q 813 647 813 544 
Q 813 409 723 309 
Q 634 209 500 184 
z
" transform="scale(0.015625)"/>
      <path id="Cmr10-32" d="M 319 0 
L 319 172 
Q 319 188 331 206 
L 1325 1306 
Q 1550 1550 1690 1715 
Q 1831 1881 1968 2097 
Q 2106 2313 2186 2536 
Q 2266 2759 2266 3009 
Q 2266 3272 2169 3511 
Q 2072 3750 1880 3894 
Q 1688 4038 1416 4038 
Q 1138 4038 916 3870 
Q 694 3703 603 3438 
Q 628 3444 672 3444 
Q 816 3444 917 3347 
Q 1019 3250 1019 3097 
Q 1019 2950 917 2848 
Q 816 2747 672 2747 
Q 522 2747 420 2851 
Q 319 2956 319 3097 
Q 319 3338 409 3548 
Q 500 3759 670 3923 
Q 841 4088 1055 4175 
Q 1269 4263 1509 4263 
Q 1875 4263 2190 4108 
Q 2506 3953 2690 3670 
Q 2875 3388 2875 3009 
Q 2875 2731 2753 2481 
Q 2631 2231 2440 2026 
Q 2250 1822 1953 1562 
Q 1656 1303 1563 1216 
L 838 519 
L 1453 519 
Q 1906 519 2211 526 
Q 2516 534 2534 550 
Q 2609 631 2688 1141 
L 2875 1141 
L 2694 0 
L 319 0 
z
" transform="scale(0.015625)"/>
     </defs>
     <use xlink:href="#Cmmi10-79" transform="translate(0 0.109375)"/>
     <use xlink:href="#Cmr10-3d" transform="translate(66.582031 0.109375)"/>
     <use xlink:href="#Cmmi10-78" transform="translate(161.826172 0.109375)"/>
     <use xlink:href="#Cmr10-32" transform="translate(225.209531 38.373438)scale(0.7)"/>
    </g>
   </g>
   <g id="text_10">
    <!-- $y=-x^2$ -->
    <g transform="translate(274.998914 323.703259)scale(0.12 -0.12)">
     <defs>
      <path id="Cmsy10-a1" d="M 653 1472 
Q 600 1472 565 1512 
Q 531 1553 531 1600 
Q 531 1647 565 1687 
Q 600 1728 653 1728 
L 4325 1728 
Q 4375 1728 4408 1687 
Q 4441 1647 4441 1600 
Q 4441 1553 4408 1512 
Q 4375 1472 4325 1472 
L 653 1472 
z
" transform="scale(0.015625)"/>
     </defs>
     <use xlink:href="#Cmmi10-79" transform="translate(0 0.109375)"/>
     <use xlink:href="#Cmr10-3d" transform="translate(66.582031 0.109375)"/>
     <use xlink:href="#Cmsy10-a1" transform="translate(179.384766 0.109375)"/>
     <use xlink:href="#Cmmi10-78" transform="translate(274.628906 0.109375)"/>
     <use xlink:href="#Cmr10-32" transform="translate(338.012266 38.373438)scale(0.7)"/>
    </g>
   </g>
   <g id="text_11">
    <!-- $\mathcal{R}$ -->
    <g transform="translate(56.010032 142.177129)scale(0.12 -0.12)">
     <defs>
      <path id="Cmsy10-52" d="M 738 -91 
Q 738 -78 744 -56 
Q 966 475 1128 959 
Q 1291 1444 1428 1991 
Q 1678 2959 1766 3994 
Q 1425 3994 1094 3872 
Q 922 3803 833 3695 
Q 744 3588 684 3397 
Q 622 3291 472 3197 
Q 322 3103 206 3103 
L 166 3103 
Q 122 3131 122 3169 
Q 234 3556 581 3828 
Q 928 4100 1387 4236 
Q 1847 4372 2259 4372 
L 2931 4372 
Q 3378 4372 3739 4331 
Q 4100 4291 4392 4112 
Q 4684 3934 4684 3572 
Q 4684 3281 4548 3014 
Q 4413 2747 4189 2533 
Q 3966 2319 3697 2158 
Q 3428 1997 3156 1900 
Q 3253 1784 3383 1501 
Q 3513 1219 3659 911 
Q 3806 603 3951 420 
Q 4097 238 4256 238 
Q 4444 238 4551 308 
Q 4659 378 4775 520 
Q 4891 663 4997 745 
Q 5103 828 5281 844 
L 5319 844 
Q 5363 822 5363 794 
Q 5363 784 5356 768 
Q 5350 753 5344 738 
Q 5188 503 4936 297 
Q 4684 91 4393 -25 
Q 4103 -141 3828 -141 
L 3788 -141 
Q 3541 -141 3372 98 
Q 3203 338 3003 811 
Q 2803 1284 2651 1515 
Q 2500 1747 2278 1747 
Q 2266 1753 2250 1765 
Q 2234 1778 2234 1797 
Q 2234 1900 2420 2006 
Q 2606 2113 2719 2125 
Q 3072 2125 3395 2262 
Q 3719 2400 3917 2667 
Q 4116 2934 4116 3291 
Q 4116 3613 3833 3767 
Q 3550 3922 3203 3958 
Q 2856 3994 2450 3994 
L 2309 3994 
Q 2209 3041 1954 2070 
Q 1700 1100 1300 153 
Q 1238 41 1092 -43 
Q 947 -128 813 -141 
L 781 -141 
Q 769 -134 753 -121 
Q 738 -109 738 -91 
z
" transform="scale(0.015625)"/>
     </defs>
     <use xlink:href="#Cmsy10-52" transform="translate(0 0.6875)"/>
    </g>
   </g>
  </g>
 </g>
 <defs>
  <clipPath id="pe58106566e">
   <rect x="13.772256" y="7.433935" width="289.595809" height="318.555389"/>
  </clipPath>
 </defs>
</svg>
