<?xml version="1.0" encoding="utf-8" standalone="no"?>
<!DOCTYPE svg PUBLIC "-//W3C//DTD SVG 1.1//EN"
  "http://www.w3.org/Graphics/SVG/1.1/DTD/svg11.dtd">
<svg xmlns:xlink="http://www.w3.org/1999/xlink" width="316.509125pt" height="335.425604pt" viewBox="0 0 316.509125 335.425604" xmlns="http://www.w3.org/2000/svg" version="1.1">
 <metadata>
  <rdf:RDF xmlns:dc="http://purl.org/dc/elements/1.1/" xmlns:cc="http://creativecommons.org/ns#" xmlns:rdf="http://www.w3.org/1999/02/22-rdf-syntax-ns#">
   <cc:Work>
    <dc:type rdf:resource="http://purl.org/dc/dcmitype/StillImage"/>
    <dc:date>2022-10-11T15:42:05.033314</dc:date>
    <dc:format>image/svg+xml</dc:format>
    <dc:creator>
     <cc:Agent>
      <dc:title>Matplotlib v3.5.1, https://matplotlib.org/</dc:title>
     </cc:Agent>
    </dc:creator>
   </cc:Work>
  </rdf:RDF>
 </metadata>
 <defs>
  <style type="text/css">*{stroke-linejoin: round; stroke-linecap: butt}</style>
 </defs>
 <g id="figure_1">
  <g id="patch_1">
   <path d="M 0 335.425604 
L 316.509125 335.425604 
L 316.509125 0 
L 0 0 
z
" style="fill: #ffffff"/>
  </g>
  <g id="axes_1">
   <g id="patch_2">
    <path d="M 24.678036 317.515077 
L 306.782652 317.515077 
L 306.782652 7.2 
L 24.678036 7.2 
z
" style="fill: #ffffff"/>
   </g>
   <g id="patch_3">
    <path d="M 301.357563 40.293041 
L 299.675697 43.646345 
L 298.795156 45.39365 
L 297.589353 47.777115 
L 295.563536 51.757335 
L 294.651074 53.540209 
L 293.493945 55.792312 
L 291.317168 60.002189 
L 290.422032 61.723241 
L 288.970057 64.502347 
L 288.033783 66.286149 
L 285.710307 70.684944 
L 285.084677 71.862583 
L 283.38082 75.05516 
L 282.200943 77.253396 
L 281.473914 78.602816 
L 279.017455 83.13336 
L 278.765196 83.596092 
L 276.324914 88.048208 
L 276.069013 88.512536 
L 273.527725 93.097464 
L 272.680306 94.61577 
L 270.81696 97.935673 
L 269.797445 99.741296 
L 268.336255 102.315791 
L 267.156323 104.383242 
L 266.558846 105.426213 
L 264.668386 108.708912 
L 263.591587 110.566945 
L 261.505029 114.143 
L 260.66352 115.576139 
L 259.423809 117.677928 
L 257.285863 121.275951 
L 256.913374 121.899379 
L 255.095256 124.927642 
L 253.278139 127.929887 
L 251.930866 130.140137 
L 250.989076 131.67723 
L 249.934728 133.39027 
L 248.109704 136.336085 
L 246.40819 139.060417 
L 245.681129 140.218022 
L 243.444653 143.754436 
L 243.143473 144.227857 
L 241.935589 146.119797 
L 240.324459 148.626609 
L 238.151717 151.976941 
L 237.064852 153.639809 
L 236.054425 155.177916 
L 235.189119 156.489132 
L 232.951765 159.853847 
L 231.986799 161.293651 
L 230.003718 164.231007 
L 228.954955 165.772721 
L 228.144947 166.957906 
L 225.812715 170.343361 
L 225.602662 170.646304 
L 223.931749 173.044546 
L 222.801737 174.654769 
L 220.894775 177.350767 
L 219.335162 179.535763 
L 218.274327 181.01173 
L 216.44679 183.534968 
L 215.252047 185.171212 
L 213.862235 187.061367 
L 212.632756 188.721595 
L 211.603659 190.102669 
L 209.676417 192.66807 
L 209.058194 193.485201 
L 206.842765 196.390284 
L 205.821118 197.717772 
L 204.295899 199.685263 
L 203.334245 200.916953 
L 201.81248 202.852105 
L 199.889681 205.272814 
L 198.871265 206.543907 
L 198.420387 207.104209 
L 196.712062 209.21353 
L 194.608066 211.781828 
L 193.814517 212.742019 
L 191.881058 215.062055 
L 190.424256 216.791924 
L 189.995978 217.297503 
L 188.337854 219.242152 
L 187.200035 220.56486 
L 184.824223 223.295953 
L 183.611506 224.673976 
L 182.99489 225.370486 
L 181.441203 227.11305 
L 180.477466 228.185 
L 178.509394 230.352787 
L 177.75347 231.177829 
L 176.554532 232.477751 
L 173.923644 235.29309 
L 172.884841 236.390669 
L 171.813631 237.514156 
L 170.428224 238.954627 
L 169.703197 239.702829 
L 168.331773 241.107492 
L 166.287996 243.175071 
L 164.716088 244.744333 
L 164.090188 245.364108 
L 162.784259 246.647957 
L 160.371774 248.986583 
L 159.960755 249.380739 
L 158.386882 250.878528 
L 156.394951 252.747979 
L 155.685396 253.406838 
L 153.501449 255.411453 
L 152.663123 256.1716 
L 151.552222 257.17092 
L 150.311145 258.276579 
L 148.058229 260.254654 
L 146.915292 261.243851 
L 146.262778 261.804275 
L 144.977214 262.89922 
L 142.646833 264.852995 
L 141.45888 265.833558 
L 140.896429 266.294187 
L 139.240542 267.636766 
L 137.727789 268.845622 
L 136.379469 269.908856 
L 135.016459 270.970051 
L 133.217275 272.349861 
L 132.867131 272.615615 
L 130.512003 274.379635 
L 129.242524 275.313527 
L 128.365293 275.951919 
L 126.477059 277.306804 
L 125.008744 278.342211 
L 124.113727 278.965549 
L 122.677471 279.953491 
L 121.357964 280.847721 
L 120.490048 281.428909 
L 119.361413 282.176377 
L 116.770726 283.856603 
L 116.076808 284.298251 
L 114.379102 285.363796 
L 112.942245 286.249019 
L 111.933879 286.861165 
L 109.982525 288.024478 
L 108.560322 288.854646 
L 107.744435 289.324163 
L 106.294822 290.146264 
L 104.452226 291.168868 
L 103.740089 291.557383 
L 101.981192 292.500946 
L 100.687283 293.180505 
L 99.098612 293.997989 
L 98.907422 294.095115 
L 97.396202 294.853344 
L 95.328805 295.863351 
L 94.433703 296.290869 
L 92.155873 297.35216 
L 90.886309 297.927074 
L 90.358049 298.162792 
L 88.617998 298.92468 
L 87.480564 299.410644 
L 85.309215 300.311857 
L 85.245394 300.33782 
L 83.794415 300.919986 
L 81.704252 301.731322 
L 80.781257 302.079347 
L 79.108564 302.694046 
L 77.431852 303.289519 
L 76.640225 303.563456 
L 74.852203 304.165185 
L 73.660556 304.553125 
L 72.432568 304.94194 
L 71.248384 305.306356 
L 69.74321 305.754629 
L 68.554751 306.096776 
L 66.492205 306.665844 
L 65.067341 307.040654 
L 64.677982 307.14047 
L 63.285222 307.48837 
L 60.823484 308.068309 
L 60.627683 308.112518 
L 58.41437 308.592591 
L 57.964824 308.685686 
L 56.075807 309.060588 
L 55.125587 309.239227 
L 53.059535 309.604666 
L 52.507837 309.696925 
L 50.869047 309.957741 
L 48.634822 310.281421 
L 47.267958 310.461298 
L 46.448713 310.562506 
L 44.934799 310.736512 
L 43.885793 310.84717 
L 41.88818 311.03546 
L 41.487184 311.069711 
L 39.425611 311.227084 
L 37.866962 311.325263 
L 37.203445 311.361622 
L 35.58974 311.436503 
L 34.098871 311.488619 
L 33.44879 311.506214 
L 31.221876 311.542865 
L 30.103125 311.547479 
L 30.103125 40.293041 
L 31.848931 40.293041 
L 33.272973 40.293041 
L 34.386647 40.293041 
L 36.035191 40.293041 
L 37.008829 40.293041 
L 37.903107 40.293041 
L 39.48227 40.293041 
L 41.093407 40.293041 
L 43.00135 40.293041 
L 43.171824 40.293041 
L 45.160247 40.293041 
L 45.818426 40.293041 
L 47.389578 40.293041 
L 49.311832 40.293041 
L 50.831512 40.293041 
L 51.334753 40.293041 
L 53.373839 40.293041 
L 54.357389 40.293041 
L 56.037768 40.293041 
L 57.766645 40.293041 
L 58.146779 40.293041 
L 59.956991 40.293041 
L 61.190752 40.293041 
L 63.498675 40.293041 
L 63.601739 40.293041 
L 64.952026 40.293041 
L 66.238679 40.293041 
L 68.229121 40.293041 
L 69.675108 40.293041 
L 71.479351 40.293041 
L 72.574058 40.293041 
L 73.741207 40.293041 
L 75.153591 40.293041 
L 76.03357 40.293041 
L 77.719792 40.293041 
L 79.148451 40.293041 
L 79.99503 40.293041 
L 82.269166 40.293041 
L 83.560041 40.293041 
L 85.295395 40.293041 
L 85.760438 40.293041 
L 87.326148 40.293041 
L 88.933893 40.293041 
L 90.063263 40.293041 
L 91.662694 40.293041 
L 93.113211 40.293041 
L 94.294853 40.293041 
L 95.413743 40.293041 
L 97.378116 40.293041 
L 97.751162 40.293041 
L 100.097934 40.293041 
L 100.837122 40.293041 
L 102.669907 40.293041 
L 103.52087 40.293041 
L 105.194906 40.293041 
L 105.82641 40.293041 
L 107.562823 40.293041 
L 109.409817 40.293041 
L 110.244446 40.293041 
L 112.411386 40.293041 
L 113.647672 40.293041 
L 114.150293 40.293041 
L 116.429398 40.293041 
L 117.848453 40.293041 
L 118.885169 40.293041 
L 120.305283 40.293041 
L 121.440188 40.293041 
L 122.943973 40.293041 
L 124.123967 40.293041 
L 125.953039 40.293041 
L 126.474907 40.293041 
L 128.646726 40.293041 
L 129.271292 40.293041 
L 131.353507 40.293041 
L 132.885773 40.293041 
L 133.325417 40.293041 
L 134.905443 40.293041 
L 136.862386 40.293041 
L 138.040448 40.293041 
L 139.318361 40.293041 
L 140.658601 40.293041 
L 141.844446 40.293041 
L 143.743512 40.293041 
L 144.031097 40.293041 
L 145.745378 40.293041 
L 146.84081 40.293041 
L 148.876959 40.293041 
L 150.607229 40.293041 
L 150.991817 40.293041 
L 152.357546 40.293041 
L 153.785128 40.293041 
L 155.423126 40.293041 
L 156.962215 40.293041 
L 157.862501 40.293041 
L 159.512554 40.293041 
L 161.187512 40.293041 
L 161.770283 40.293041 
L 164.05376 40.293041 
L 165.542461 40.293041 
L 165.996946 40.293041 
L 168.312991 40.293041 
L 169.754517 40.293041 
L 171.050565 40.293041 
L 172.22328 40.293041 
L 173.142116 40.293041 
L 175.19559 40.293041 
L 175.468997 40.293041 
L 177.208982 40.293041 
L 178.419924 40.293041 
L 180.241323 40.293041 
L 181.249345 40.293041 
L 182.949493 40.293041 
L 184.682692 40.293041 
L 185.49018 40.293041 
L 187.053307 40.293041 
L 187.675443 40.293041 
L 189.949152 40.293041 
L 191.535081 40.293041 
L 192.153481 40.293041 
L 193.649822 40.293041 
L 194.434113 40.293041 
L 195.806989 40.293041 
L 198.413885 40.293041 
L 199.638369 40.293041 
L 199.980163 40.293041 
L 201.641962 40.293041 
L 203.482896 40.293041 
L 204.618836 40.293041 
L 206.185334 40.293041 
L 207.197446 40.293041 
L 208.385358 40.293041 
L 210.071792 40.293041 
L 211.187215 40.293041 
L 212.507304 40.293041 
L 213.872114 40.293041 
L 215.450272 40.293041 
L 216.596198 40.293041 
L 218.205265 40.293041 
L 220.047299 40.293041 
L 220.85371 40.293041 
L 222.210074 40.293041 
L 223.629041 40.293041 
L 224.765044 40.293041 
L 226.025319 40.293041 
L 228.343812 40.293041 
L 228.592644 40.293041 
L 230.930869 40.293041 
L 231.713729 40.293041 
L 232.895636 40.293041 
L 234.559715 40.293041 
L 235.909399 40.293041 
L 237.346094 40.293041 
L 238.439838 40.293041 
L 240.001654 40.293041 
L 241.276023 40.293041 
L 242.411777 40.293041 
L 244.468473 40.293041 
L 244.90019 40.293041 
L 246.923483 40.293041 
L 248.017328 40.293041 
L 249.442928 40.293041 
L 250.515828 40.293041 
L 251.919743 40.293041 
L 254.019037 40.293041 
L 255.056932 40.293041 
L 255.850341 40.293041 
L 257.112082 40.293041 
L 259.098744 40.293041 
L 260.912452 40.293041 
L 261.331672 40.293041 
L 263.765394 40.293041 
L 265.009229 40.293041 
L 265.305178 40.293041 
L 267.29002 40.293041 
L 268.725895 40.293041 
L 269.914681 40.293041 
L 271.143646 40.293041 
L 272.541322 40.293041 
L 273.767922 40.293041 
L 275.701807 40.293041 
L 277.397658 40.293041 
L 277.971536 40.293041 
L 279.942973 40.293041 
L 280.804603 40.293041 
L 282.283618 40.293041 
L 283.631911 40.293041 
L 284.749286 40.293041 
L 286.305627 40.293041 
L 288.358927 40.293041 
L 289.032521 40.293041 
L 289.970975 40.293041 
L 291.755999 40.293041 
L 292.939848 40.293041 
L 294.038981 40.293041 
L 295.722785 40.293041 
L 297.634272 40.293041 
L 298.019674 40.293041 
L 299.938056 40.293041 
z
" clip-path="url(#p0eeafaa078)" style="fill: #008000; opacity: 0.5"/>
   </g>
   <g id="matplotlib.axis_1">
    <g id="xtick_1">
     <g id="line2d_1">
      <defs>
       <path id="md44e22d843" d="M 0 0 
L 0 3.5 
" style="stroke: #000000; stroke-width: 0.8"/>
      </defs>
      <g>
       <use xlink:href="#md44e22d843" x="30.103125" y="311.547479" style="stroke: #000000; stroke-width: 0.8"/>
      </g>
     </g>
    </g>
    <g id="xtick_2">
     <g id="line2d_2">
      <g>
       <use xlink:href="#md44e22d843" x="84.354013" y="311.547479" style="stroke: #000000; stroke-width: 0.8"/>
      </g>
     </g>
     <g id="text_1">
      <!-- 0.2 -->
      <g transform="translate(76.40245 326.145917)scale(0.1 -0.1)">
       <defs>
        <path id="DejaVuSans-30" d="M 2034 4250 
Q 1547 4250 1301 3770 
Q 1056 3291 1056 2328 
Q 1056 1369 1301 889 
Q 1547 409 2034 409 
Q 2525 409 2770 889 
Q 3016 1369 3016 2328 
Q 3016 3291 2770 3770 
Q 2525 4250 2034 4250 
z
M 2034 4750 
Q 2819 4750 3233 4129 
Q 3647 3509 3647 2328 
Q 3647 1150 3233 529 
Q 2819 -91 2034 -91 
Q 1250 -91 836 529 
Q 422 1150 422 2328 
Q 422 3509 836 4129 
Q 1250 4750 2034 4750 
z
" transform="scale(0.015625)"/>
        <path id="DejaVuSans-2e" d="M 684 794 
L 1344 794 
L 1344 0 
L 684 0 
L 684 794 
z
" transform="scale(0.015625)"/>
        <path id="DejaVuSans-32" d="M 1228 531 
L 3431 531 
L 3431 0 
L 469 0 
L 469 531 
Q 828 903 1448 1529 
Q 2069 2156 2228 2338 
Q 2531 2678 2651 2914 
Q 2772 3150 2772 3378 
Q 2772 3750 2511 3984 
Q 2250 4219 1831 4219 
Q 1534 4219 1204 4116 
Q 875 4013 500 3803 
L 500 4441 
Q 881 4594 1212 4672 
Q 1544 4750 1819 4750 
Q 2544 4750 2975 4387 
Q 3406 4025 3406 3419 
Q 3406 3131 3298 2873 
Q 3191 2616 2906 2266 
Q 2828 2175 2409 1742 
Q 1991 1309 1228 531 
z
" transform="scale(0.015625)"/>
       </defs>
       <use xlink:href="#DejaVuSans-30"/>
       <use xlink:href="#DejaVuSans-2e" x="63.623047"/>
       <use xlink:href="#DejaVuSans-32" x="95.410156"/>
      </g>
     </g>
    </g>
    <g id="xtick_3">
     <g id="line2d_3">
      <g>
       <use xlink:href="#md44e22d843" x="138.6049" y="311.547479" style="stroke: #000000; stroke-width: 0.8"/>
      </g>
     </g>
     <g id="text_2">
      <!-- 0.4 -->
      <g transform="translate(130.653338 326.145917)scale(0.1 -0.1)">
       <defs>
        <path id="DejaVuSans-34" d="M 2419 4116 
L 825 1625 
L 2419 1625 
L 2419 4116 
z
M 2253 4666 
L 3047 4666 
L 3047 1625 
L 3713 1625 
L 3713 1100 
L 3047 1100 
L 3047 0 
L 2419 0 
L 2419 1100 
L 313 1100 
L 313 1709 
L 2253 4666 
z
" transform="scale(0.015625)"/>
       </defs>
       <use xlink:href="#DejaVuSans-30"/>
       <use xlink:href="#DejaVuSans-2e" x="63.623047"/>
       <use xlink:href="#DejaVuSans-34" x="95.410156"/>
      </g>
     </g>
    </g>
    <g id="xtick_4">
     <g id="line2d_4">
      <g>
       <use xlink:href="#md44e22d843" x="192.855788" y="311.547479" style="stroke: #000000; stroke-width: 0.8"/>
      </g>
     </g>
     <g id="text_3">
      <!-- 0.6 -->
      <g transform="translate(184.904225 326.145917)scale(0.1 -0.1)">
       <defs>
        <path id="DejaVuSans-36" d="M 2113 2584 
Q 1688 2584 1439 2293 
Q 1191 2003 1191 1497 
Q 1191 994 1439 701 
Q 1688 409 2113 409 
Q 2538 409 2786 701 
Q 3034 994 3034 1497 
Q 3034 2003 2786 2293 
Q 2538 2584 2113 2584 
z
M 3366 4563 
L 3366 3988 
Q 3128 4100 2886 4159 
Q 2644 4219 2406 4219 
Q 1781 4219 1451 3797 
Q 1122 3375 1075 2522 
Q 1259 2794 1537 2939 
Q 1816 3084 2150 3084 
Q 2853 3084 3261 2657 
Q 3669 2231 3669 1497 
Q 3669 778 3244 343 
Q 2819 -91 2113 -91 
Q 1303 -91 875 529 
Q 447 1150 447 2328 
Q 447 3434 972 4092 
Q 1497 4750 2381 4750 
Q 2619 4750 2861 4703 
Q 3103 4656 3366 4563 
z
" transform="scale(0.015625)"/>
       </defs>
       <use xlink:href="#DejaVuSans-30"/>
       <use xlink:href="#DejaVuSans-2e" x="63.623047"/>
       <use xlink:href="#DejaVuSans-36" x="95.410156"/>
      </g>
     </g>
    </g>
    <g id="xtick_5">
     <g id="line2d_5">
      <g>
       <use xlink:href="#md44e22d843" x="247.106675" y="311.547479" style="stroke: #000000; stroke-width: 0.8"/>
      </g>
     </g>
     <g id="text_4">
      <!-- 0.8 -->
      <g transform="translate(239.155113 326.145917)scale(0.1 -0.1)">
       <defs>
        <path id="DejaVuSans-38" d="M 2034 2216 
Q 1584 2216 1326 1975 
Q 1069 1734 1069 1313 
Q 1069 891 1326 650 
Q 1584 409 2034 409 
Q 2484 409 2743 651 
Q 3003 894 3003 1313 
Q 3003 1734 2745 1975 
Q 2488 2216 2034 2216 
z
M 1403 2484 
Q 997 2584 770 2862 
Q 544 3141 544 3541 
Q 544 4100 942 4425 
Q 1341 4750 2034 4750 
Q 2731 4750 3128 4425 
Q 3525 4100 3525 3541 
Q 3525 3141 3298 2862 
Q 3072 2584 2669 2484 
Q 3125 2378 3379 2068 
Q 3634 1759 3634 1313 
Q 3634 634 3220 271 
Q 2806 -91 2034 -91 
Q 1263 -91 848 271 
Q 434 634 434 1313 
Q 434 1759 690 2068 
Q 947 2378 1403 2484 
z
M 1172 3481 
Q 1172 3119 1398 2916 
Q 1625 2713 2034 2713 
Q 2441 2713 2670 2916 
Q 2900 3119 2900 3481 
Q 2900 3844 2670 4047 
Q 2441 4250 2034 4250 
Q 1625 4250 1398 4047 
Q 1172 3844 1172 3481 
z
" transform="scale(0.015625)"/>
       </defs>
       <use xlink:href="#DejaVuSans-30"/>
       <use xlink:href="#DejaVuSans-2e" x="63.623047"/>
       <use xlink:href="#DejaVuSans-38" x="95.410156"/>
      </g>
     </g>
    </g>
    <g id="xtick_6">
     <g id="line2d_6">
      <g>
       <use xlink:href="#md44e22d843" x="301.357563" y="311.547479" style="stroke: #000000; stroke-width: 0.8"/>
      </g>
     </g>
     <g id="text_5">
      <!-- 1.0 -->
      <g transform="translate(293.406 326.145917)scale(0.1 -0.1)">
       <defs>
        <path id="DejaVuSans-31" d="M 794 531 
L 1825 531 
L 1825 4091 
L 703 3866 
L 703 4441 
L 1819 4666 
L 2450 4666 
L 2450 531 
L 3481 531 
L 3481 0 
L 794 0 
L 794 531 
z
" transform="scale(0.015625)"/>
       </defs>
       <use xlink:href="#DejaVuSans-31"/>
       <use xlink:href="#DejaVuSans-2e" x="63.623047"/>
       <use xlink:href="#DejaVuSans-30" x="95.410156"/>
      </g>
     </g>
    </g>
    <g id="xtick_7">
     <g id="line2d_7">
      <defs>
       <path id="m58d7841f50" d="M 0 0 
L 0 2 
" style="stroke: #000000; stroke-width: 0.6"/>
      </defs>
      <g>
       <use xlink:href="#m58d7841f50" x="43.665847" y="311.547479" style="stroke: #000000; stroke-width: 0.6"/>
      </g>
     </g>
    </g>
    <g id="xtick_8">
     <g id="line2d_8">
      <g>
       <use xlink:href="#m58d7841f50" x="57.228569" y="311.547479" style="stroke: #000000; stroke-width: 0.6"/>
      </g>
     </g>
    </g>
    <g id="xtick_9">
     <g id="line2d_9">
      <g>
       <use xlink:href="#m58d7841f50" x="70.791291" y="311.547479" style="stroke: #000000; stroke-width: 0.6"/>
      </g>
     </g>
    </g>
    <g id="xtick_10">
     <g id="line2d_10">
      <g>
       <use xlink:href="#m58d7841f50" x="97.916734" y="311.547479" style="stroke: #000000; stroke-width: 0.6"/>
      </g>
     </g>
    </g>
    <g id="xtick_11">
     <g id="line2d_11">
      <g>
       <use xlink:href="#m58d7841f50" x="111.479456" y="311.547479" style="stroke: #000000; stroke-width: 0.6"/>
      </g>
     </g>
    </g>
    <g id="xtick_12">
     <g id="line2d_12">
      <g>
       <use xlink:href="#m58d7841f50" x="125.042178" y="311.547479" style="stroke: #000000; stroke-width: 0.6"/>
      </g>
     </g>
    </g>
    <g id="xtick_13">
     <g id="line2d_13">
      <g>
       <use xlink:href="#m58d7841f50" x="152.167622" y="311.547479" style="stroke: #000000; stroke-width: 0.6"/>
      </g>
     </g>
    </g>
    <g id="xtick_14">
     <g id="line2d_14">
      <g>
       <use xlink:href="#m58d7841f50" x="165.730344" y="311.547479" style="stroke: #000000; stroke-width: 0.6"/>
      </g>
     </g>
    </g>
    <g id="xtick_15">
     <g id="line2d_15">
      <g>
       <use xlink:href="#m58d7841f50" x="179.293066" y="311.547479" style="stroke: #000000; stroke-width: 0.6"/>
      </g>
     </g>
    </g>
    <g id="xtick_16">
     <g id="line2d_16">
      <g>
       <use xlink:href="#m58d7841f50" x="206.41851" y="311.547479" style="stroke: #000000; stroke-width: 0.6"/>
      </g>
     </g>
    </g>
    <g id="xtick_17">
     <g id="line2d_17">
      <g>
       <use xlink:href="#m58d7841f50" x="219.981232" y="311.547479" style="stroke: #000000; stroke-width: 0.6"/>
      </g>
     </g>
    </g>
    <g id="xtick_18">
     <g id="line2d_18">
      <g>
       <use xlink:href="#m58d7841f50" x="233.543953" y="311.547479" style="stroke: #000000; stroke-width: 0.6"/>
      </g>
     </g>
    </g>
    <g id="xtick_19">
     <g id="line2d_19">
      <g>
       <use xlink:href="#m58d7841f50" x="260.669397" y="311.547479" style="stroke: #000000; stroke-width: 0.6"/>
      </g>
     </g>
    </g>
    <g id="xtick_20">
     <g id="line2d_20">
      <g>
       <use xlink:href="#m58d7841f50" x="274.232119" y="311.547479" style="stroke: #000000; stroke-width: 0.6"/>
      </g>
     </g>
    </g>
    <g id="xtick_21">
     <g id="line2d_21">
      <g>
       <use xlink:href="#m58d7841f50" x="287.794841" y="311.547479" style="stroke: #000000; stroke-width: 0.6"/>
      </g>
     </g>
    </g>
   </g>
   <g id="matplotlib.axis_2">
    <g id="ytick_1">
     <g id="line2d_22">
      <defs>
       <path id="m8db5040ca1" d="M 0 0 
L -3.5 0 
" style="stroke: #000000; stroke-width: 0.8"/>
      </defs>
      <g>
       <use xlink:href="#m8db5040ca1" x="30.103125" y="311.547479" style="stroke: #000000; stroke-width: 0.8"/>
      </g>
     </g>
    </g>
    <g id="ytick_2">
     <g id="line2d_23">
      <g>
       <use xlink:href="#m8db5040ca1" x="30.103125" y="257.296592" style="stroke: #000000; stroke-width: 0.8"/>
      </g>
     </g>
     <g id="text_6">
      <!-- 0.2 -->
      <g transform="translate(7.2 261.09581)scale(0.1 -0.1)">
       <use xlink:href="#DejaVuSans-30"/>
       <use xlink:href="#DejaVuSans-2e" x="63.623047"/>
       <use xlink:href="#DejaVuSans-32" x="95.410156"/>
      </g>
     </g>
    </g>
    <g id="ytick_3">
     <g id="line2d_24">
      <g>
       <use xlink:href="#m8db5040ca1" x="30.103125" y="203.045704" style="stroke: #000000; stroke-width: 0.8"/>
      </g>
     </g>
     <g id="text_7">
      <!-- 0.4 -->
      <g transform="translate(7.2 206.844923)scale(0.1 -0.1)">
       <use xlink:href="#DejaVuSans-30"/>
       <use xlink:href="#DejaVuSans-2e" x="63.623047"/>
       <use xlink:href="#DejaVuSans-34" x="95.410156"/>
      </g>
     </g>
    </g>
    <g id="ytick_4">
     <g id="line2d_25">
      <g>
       <use xlink:href="#m8db5040ca1" x="30.103125" y="148.794817" style="stroke: #000000; stroke-width: 0.8"/>
      </g>
     </g>
     <g id="text_8">
      <!-- 0.6 -->
      <g transform="translate(7.2 152.594035)scale(0.1 -0.1)">
       <use xlink:href="#DejaVuSans-30"/>
       <use xlink:href="#DejaVuSans-2e" x="63.623047"/>
       <use xlink:href="#DejaVuSans-36" x="95.410156"/>
      </g>
     </g>
    </g>
    <g id="ytick_5">
     <g id="line2d_26">
      <g>
       <use xlink:href="#m8db5040ca1" x="30.103125" y="94.543929" style="stroke: #000000; stroke-width: 0.8"/>
      </g>
     </g>
     <g id="text_9">
      <!-- 0.8 -->
      <g transform="translate(7.2 98.343148)scale(0.1 -0.1)">
       <use xlink:href="#DejaVuSans-30"/>
       <use xlink:href="#DejaVuSans-2e" x="63.623047"/>
       <use xlink:href="#DejaVuSans-38" x="95.410156"/>
      </g>
     </g>
    </g>
    <g id="ytick_6">
     <g id="line2d_27">
      <g>
       <use xlink:href="#m8db5040ca1" x="30.103125" y="40.293041" style="stroke: #000000; stroke-width: 0.8"/>
      </g>
     </g>
     <g id="text_10">
      <!-- 1.0 -->
      <g transform="translate(7.2 44.09226)scale(0.1 -0.1)">
       <use xlink:href="#DejaVuSans-31"/>
       <use xlink:href="#DejaVuSans-2e" x="63.623047"/>
       <use xlink:href="#DejaVuSans-30" x="95.410156"/>
      </g>
     </g>
    </g>
    <g id="ytick_7">
     <g id="line2d_28">
      <defs>
       <path id="m0de4599041" d="M 0 0 
L -2 0 
" style="stroke: #000000; stroke-width: 0.6"/>
      </defs>
      <g>
       <use xlink:href="#m0de4599041" x="30.103125" y="297.984757" style="stroke: #000000; stroke-width: 0.6"/>
      </g>
     </g>
    </g>
    <g id="ytick_8">
     <g id="line2d_29">
      <g>
       <use xlink:href="#m0de4599041" x="30.103125" y="284.422036" style="stroke: #000000; stroke-width: 0.6"/>
      </g>
     </g>
    </g>
    <g id="ytick_9">
     <g id="line2d_30">
      <g>
       <use xlink:href="#m0de4599041" x="30.103125" y="270.859314" style="stroke: #000000; stroke-width: 0.6"/>
      </g>
     </g>
    </g>
    <g id="ytick_10">
     <g id="line2d_31">
      <g>
       <use xlink:href="#m0de4599041" x="30.103125" y="243.73387" style="stroke: #000000; stroke-width: 0.6"/>
      </g>
     </g>
    </g>
    <g id="ytick_11">
     <g id="line2d_32">
      <g>
       <use xlink:href="#m0de4599041" x="30.103125" y="230.171148" style="stroke: #000000; stroke-width: 0.6"/>
      </g>
     </g>
    </g>
    <g id="ytick_12">
     <g id="line2d_33">
      <g>
       <use xlink:href="#m0de4599041" x="30.103125" y="216.608426" style="stroke: #000000; stroke-width: 0.6"/>
      </g>
     </g>
    </g>
    <g id="ytick_13">
     <g id="line2d_34">
      <g>
       <use xlink:href="#m0de4599041" x="30.103125" y="189.482982" style="stroke: #000000; stroke-width: 0.6"/>
      </g>
     </g>
    </g>
    <g id="ytick_14">
     <g id="line2d_35">
      <g>
       <use xlink:href="#m0de4599041" x="30.103125" y="175.92026" style="stroke: #000000; stroke-width: 0.6"/>
      </g>
     </g>
    </g>
    <g id="ytick_15">
     <g id="line2d_36">
      <g>
       <use xlink:href="#m0de4599041" x="30.103125" y="162.357538" style="stroke: #000000; stroke-width: 0.6"/>
      </g>
     </g>
    </g>
    <g id="ytick_16">
     <g id="line2d_37">
      <g>
       <use xlink:href="#m0de4599041" x="30.103125" y="135.232095" style="stroke: #000000; stroke-width: 0.6"/>
      </g>
     </g>
    </g>
    <g id="ytick_17">
     <g id="line2d_38">
      <g>
       <use xlink:href="#m0de4599041" x="30.103125" y="121.669373" style="stroke: #000000; stroke-width: 0.6"/>
      </g>
     </g>
    </g>
    <g id="ytick_18">
     <g id="line2d_39">
      <g>
       <use xlink:href="#m0de4599041" x="30.103125" y="108.106651" style="stroke: #000000; stroke-width: 0.6"/>
      </g>
     </g>
    </g>
    <g id="ytick_19">
     <g id="line2d_40">
      <g>
       <use xlink:href="#m0de4599041" x="30.103125" y="80.981207" style="stroke: #000000; stroke-width: 0.6"/>
      </g>
     </g>
    </g>
    <g id="ytick_20">
     <g id="line2d_41">
      <g>
       <use xlink:href="#m0de4599041" x="30.103125" y="67.418485" style="stroke: #000000; stroke-width: 0.6"/>
      </g>
     </g>
    </g>
    <g id="ytick_21">
     <g id="line2d_42">
      <g>
       <use xlink:href="#m0de4599041" x="30.103125" y="53.855763" style="stroke: #000000; stroke-width: 0.6"/>
      </g>
     </g>
    </g>
    <g id="ytick_22">
     <g id="line2d_43">
      <g>
       <use xlink:href="#m0de4599041" x="30.103125" y="26.73032" style="stroke: #000000; stroke-width: 0.6"/>
      </g>
     </g>
    </g>
    <g id="ytick_23">
     <g id="line2d_44">
      <g>
       <use xlink:href="#m0de4599041" x="30.103125" y="13.167598" style="stroke: #000000; stroke-width: 0.6"/>
      </g>
     </g>
    </g>
   </g>
   <g id="line2d_45">
    <path d="M 30.103125 40.293041 
L 301.357563 40.293041 
L 301.357563 40.293041 
" clip-path="url(#p0eeafaa078)" style="fill: none; stroke: #0000ff; stroke-linecap: square"/>
   </g>
   <g id="line2d_46">
    <path d="M 30.103125 311.547479 
L 35.080394 311.456151 
L 41.247795 311.089593 
L 47.184713 310.471808 
L 51.290324 309.892585 
L 57.609869 308.758139 
L 63.797734 307.362012 
L 70.031015 305.670206 
L 75.184198 304.05524 
L 81.212001 301.917712 
L 86.280958 299.912835 
L 91.220602 297.776844 
L 96.359516 295.363747 
L 102.946127 291.98613 
L 108.547292 288.862183 
L 114.846058 285.072835 
L 121.252385 280.918718 
L 127.676598 276.449132 
L 134.187474 271.608772 
L 140.054038 266.979717 
L 146.34421 261.734507 
L 152.314405 256.486272 
L 159.393519 249.922659 
L 166.479264 242.982882 
L 172.825746 236.452868 
L 180.48486 228.176802 
L 187.239187 220.519505 
L 194.204741 212.27043 
L 200.15524 204.94011 
L 206.631789 196.665048 
L 214.112015 186.722714 
L 220.320892 178.156855 
L 227.926606 167.276551 
L 234.230526 157.935261 
L 242.750689 144.844265 
L 250.37136 132.681851 
L 257.548005 120.836596 
L 266.144306 106.1483 
L 274.134064 92.007849 
L 281.661741 78.254569 
L 289.958819 62.611527 
L 296.781776 49.367426 
L 301.357563 40.293041 
L 301.357563 40.293041 
" clip-path="url(#p0eeafaa078)" style="fill: none; stroke: #ff0000; stroke-linecap: square"/>
   </g>
   <g id="patch_4">
    <path d="M 30.103125 317.515077 
L 30.103125 7.2 
" style="fill: none; stroke: #000000; stroke-width: 0.8; stroke-linejoin: miter; stroke-linecap: square"/>
   </g>
   <g id="patch_5">
    <path d="M 24.678036 311.547479 
L 306.782652 311.547479 
" style="fill: none; stroke: #000000; stroke-width: 0.8; stroke-linejoin: miter; stroke-linecap: square"/>
   </g>
   <g id="text_11">
    <!-- $y=1$ -->
    <g transform="translate(153.010344 16.454473)scale(0.12 -0.12)">
     <defs>
      <path id="Cmmi10-79" d="M 538 -916 
Q 672 -1147 1006 -1147 
Q 1309 -1147 1531 -934 
Q 1753 -722 1889 -420 
Q 2025 -119 2100 197 
Q 1816 -72 1484 -72 
Q 1231 -72 1053 15 
Q 875 103 776 276 
Q 678 450 678 697 
Q 678 906 734 1126 
Q 791 1347 892 1617 
Q 994 1888 1069 2088 
Q 1153 2322 1153 2472 
Q 1153 2663 1013 2663 
Q 759 2663 595 2402 
Q 431 2141 353 1819 
Q 341 1778 300 1778 
L 225 1778 
Q 172 1778 172 1838 
L 172 1856 
Q 275 2238 487 2533 
Q 700 2828 1025 2828 
Q 1253 2828 1411 2678 
Q 1569 2528 1569 2297 
Q 1569 2178 1516 2047 
Q 1488 1969 1388 1706 
Q 1288 1444 1234 1272 
Q 1181 1100 1147 934 
Q 1113 769 1113 603 
Q 1113 391 1203 244 
Q 1294 97 1491 97 
Q 1888 97 2203 581 
L 2688 2553 
Q 2709 2638 2787 2698 
Q 2866 2759 2956 2759 
Q 3034 2759 3092 2709 
Q 3150 2659 3150 2578 
Q 3150 2541 3144 2528 
L 2509 -19 
Q 2425 -347 2200 -647 
Q 1975 -947 1658 -1130 
Q 1341 -1313 997 -1313 
Q 831 -1313 668 -1248 
Q 506 -1184 406 -1056 
Q 306 -928 306 -756 
Q 306 -581 409 -453 
Q 513 -325 684 -325 
Q 788 -325 858 -389 
Q 928 -453 928 -556 
Q 928 -703 818 -812 
Q 709 -922 563 -922 
Q 556 -919 550 -917 
Q 544 -916 538 -916 
z
" transform="scale(0.015625)"/>
      <path id="Cmr10-3d" d="M 481 850 
Q 428 850 393 890 
Q 359 931 359 978 
Q 359 1031 393 1068 
Q 428 1106 481 1106 
L 4500 1106 
Q 4547 1106 4581 1068 
Q 4616 1031 4616 978 
Q 4616 931 4581 890 
Q 4547 850 4500 850 
L 481 850 
z
M 481 2094 
Q 428 2094 393 2131 
Q 359 2169 359 2222 
Q 359 2269 393 2309 
Q 428 2350 481 2350 
L 4500 2350 
Q 4547 2350 4581 2309 
Q 4616 2269 4616 2222 
Q 4616 2169 4581 2131 
Q 4547 2094 4500 2094 
L 481 2094 
z
" transform="scale(0.015625)"/>
      <path id="Cmr10-31" d="M 594 0 
L 594 225 
Q 1394 225 1394 428 
L 1394 3788 
Q 1063 3628 556 3628 
L 556 3853 
Q 1341 3853 1741 4263 
L 1831 4263 
Q 1853 4263 1873 4245 
Q 1894 4228 1894 4206 
L 1894 428 
Q 1894 225 2694 225 
L 2694 0 
L 594 0 
z
" transform="scale(0.015625)"/>
     </defs>
     <use xlink:href="#Cmmi10-79" transform="translate(0 0.390625)"/>
     <use xlink:href="#Cmr10-3d" transform="translate(66.582031 0.390625)"/>
     <use xlink:href="#Cmr10-31" transform="translate(161.826172 0.390625)"/>
    </g>
   </g>
   <g id="text_12">
    <!-- $y=x^2$ -->
    <g transform="translate(149.710344 220.448426)scale(0.12 -0.12)">
     <defs>
      <path id="Cmmi10-78" d="M 500 184 
Q 613 97 819 97 
Q 1019 97 1172 289 
Q 1325 481 1381 709 
L 1672 1844 
Q 1741 2153 1741 2266 
Q 1741 2425 1652 2544 
Q 1563 2663 1403 2663 
Q 1200 2663 1022 2536 
Q 844 2409 722 2214 
Q 600 2019 550 1819 
Q 538 1778 500 1778 
L 422 1778 
Q 372 1778 372 1838 
L 372 1856 
Q 434 2094 584 2320 
Q 734 2547 951 2687 
Q 1169 2828 1416 2828 
Q 1650 2828 1839 2703 
Q 2028 2578 2106 2363 
Q 2216 2559 2386 2693 
Q 2556 2828 2759 2828 
Q 2897 2828 3040 2779 
Q 3184 2731 3275 2631 
Q 3366 2531 3366 2381 
Q 3366 2219 3261 2101 
Q 3156 1984 2994 1984 
Q 2891 1984 2822 2050 
Q 2753 2116 2753 2216 
Q 2753 2350 2845 2451 
Q 2938 2553 3066 2572 
Q 2950 2663 2747 2663 
Q 2541 2663 2389 2472 
Q 2238 2281 2175 2047 
L 1894 916 
Q 1825 659 1825 494 
Q 1825 331 1917 214 
Q 2009 97 2163 97 
Q 2463 97 2698 361 
Q 2934 625 3009 941 
Q 3022 978 3059 978 
L 3138 978 
Q 3163 978 3178 961 
Q 3194 944 3194 922 
Q 3194 916 3188 903 
Q 3097 522 2806 225 
Q 2516 -72 2150 -72 
Q 1916 -72 1727 54 
Q 1538 181 1459 397 
Q 1359 209 1182 68 
Q 1006 -72 806 -72 
Q 669 -72 523 -23 
Q 378 25 287 125 
Q 197 225 197 378 
Q 197 528 301 651 
Q 406 775 563 775 
Q 669 775 741 711 
Q 813 647 813 544 
Q 813 409 723 309 
Q 634 209 500 184 
z
" transform="scale(0.015625)"/>
      <path id="Cmr10-32" d="M 319 0 
L 319 172 
Q 319 188 331 206 
L 1325 1306 
Q 1550 1550 1690 1715 
Q 1831 1881 1968 2097 
Q 2106 2313 2186 2536 
Q 2266 2759 2266 3009 
Q 2266 3272 2169 3511 
Q 2072 3750 1880 3894 
Q 1688 4038 1416 4038 
Q 1138 4038 916 3870 
Q 694 3703 603 3438 
Q 628 3444 672 3444 
Q 816 3444 917 3347 
Q 1019 3250 1019 3097 
Q 1019 2950 917 2848 
Q 816 2747 672 2747 
Q 522 2747 420 2851 
Q 319 2956 319 3097 
Q 319 3338 409 3548 
Q 500 3759 670 3923 
Q 841 4088 1055 4175 
Q 1269 4263 1509 4263 
Q 1875 4263 2190 4108 
Q 2506 3953 2690 3670 
Q 2875 3388 2875 3009 
Q 2875 2731 2753 2481 
Q 2631 2231 2440 2026 
Q 2250 1822 1953 1562 
Q 1656 1303 1563 1216 
L 838 519 
L 1453 519 
Q 1906 519 2211 526 
Q 2516 534 2534 550 
Q 2609 631 2688 1141 
L 2875 1141 
L 2694 0 
L 319 0 
z
" transform="scale(0.015625)"/>
     </defs>
     <use xlink:href="#Cmmi10-79" transform="translate(0 0.109375)"/>
     <use xlink:href="#Cmr10-3d" transform="translate(66.582031 0.109375)"/>
     <use xlink:href="#Cmmi10-78" transform="translate(161.826172 0.109375)"/>
     <use xlink:href="#Cmr10-32" transform="translate(225.209531 38.373438)scale(0.7)"/>
    </g>
   </g>
   <g id="text_13">
    <!-- $\mathcal{R}$ -->
    <g transform="translate(79.254013 97.855179)scale(0.12 -0.12)">
     <defs>
      <path id="Cmsy10-52" d="M 738 -91 
Q 738 -78 744 -56 
Q 966 475 1128 959 
Q 1291 1444 1428 1991 
Q 1678 2959 1766 3994 
Q 1425 3994 1094 3872 
Q 922 3803 833 3695 
Q 744 3588 684 3397 
Q 622 3291 472 3197 
Q 322 3103 206 3103 
L 166 3103 
Q 122 3131 122 3169 
Q 234 3556 581 3828 
Q 928 4100 1387 4236 
Q 1847 4372 2259 4372 
L 2931 4372 
Q 3378 4372 3739 4331 
Q 4100 4291 4392 4112 
Q 4684 3934 4684 3572 
Q 4684 3281 4548 3014 
Q 4413 2747 4189 2533 
Q 3966 2319 3697 2158 
Q 3428 1997 3156 1900 
Q 3253 1784 3383 1501 
Q 3513 1219 3659 911 
Q 3806 603 3951 420 
Q 4097 238 4256 238 
Q 4444 238 4551 308 
Q 4659 378 4775 520 
Q 4891 663 4997 745 
Q 5103 828 5281 844 
L 5319 844 
Q 5363 822 5363 794 
Q 5363 784 5356 768 
Q 5350 753 5344 738 
Q 5188 503 4936 297 
Q 4684 91 4393 -25 
Q 4103 -141 3828 -141 
L 3788 -141 
Q 3541 -141 3372 98 
Q 3203 338 3003 811 
Q 2803 1284 2651 1515 
Q 2500 1747 2278 1747 
Q 2266 1753 2250 1765 
Q 2234 1778 2234 1797 
Q 2234 1900 2420 2006 
Q 2606 2113 2719 2125 
Q 3072 2125 3395 2262 
Q 3719 2400 3917 2667 
Q 4116 2934 4116 3291 
Q 4116 3613 3833 3767 
Q 3550 3922 3203 3958 
Q 2856 3994 2450 3994 
L 2309 3994 
Q 2209 3041 1954 2070 
Q 1700 1100 1300 153 
Q 1238 41 1092 -43 
Q 947 -128 813 -141 
L 781 -141 
Q 769 -134 753 -121 
Q 738 -109 738 -91 
z
" transform="scale(0.015625)"/>
     </defs>
     <use xlink:href="#Cmsy10-52" transform="translate(0 0.6875)"/>
    </g>
   </g>
  </g>
 </g>
 <defs>
  <clipPath id="p0eeafaa078">
   <rect x="24.678036" y="7.2" width="282.104615" height="310.315077"/>
  </clipPath>
 </defs>
</svg>
