<?xml version="1.0" encoding="utf-8" standalone="no"?>
<!DOCTYPE svg PUBLIC "-//W3C//DTD SVG 1.1//EN"
  "http://www.w3.org/Graphics/SVG/1.1/DTD/svg11.dtd">
<svg xmlns:xlink="http://www.w3.org/1999/xlink" width="282.954077pt" height="337.396877pt" viewBox="0 0 282.954077 337.396877" xmlns="http://www.w3.org/2000/svg" version="1.1">
 <metadata>
  <rdf:RDF xmlns:dc="http://purl.org/dc/elements/1.1/" xmlns:cc="http://creativecommons.org/ns#" xmlns:rdf="http://www.w3.org/1999/02/22-rdf-syntax-ns#">
   <cc:Work>
    <dc:type rdf:resource="http://purl.org/dc/dcmitype/StillImage"/>
    <dc:date>2022-10-11T15:41:52.825149</dc:date>
    <dc:format>image/svg+xml</dc:format>
    <dc:creator>
     <cc:Agent>
      <dc:title>Matplotlib v3.5.1, https://matplotlib.org/</dc:title>
     </cc:Agent>
    </dc:creator>
   </cc:Work>
  </rdf:RDF>
 </metadata>
 <defs>
  <style type="text/css">*{stroke-linejoin: round; stroke-linecap: butt}</style>
 </defs>
 <g id="figure_1">
  <g id="patch_1">
   <path d="M 0 337.396877 
L 282.954077 337.396877 
L 282.954077 0 
L 0 0 
z
" style="fill: #ffffff"/>
  </g>
  <g id="axes_1">
   <g id="patch_2">
    <path d="M 14.372242 330.196877 
L 272.771736 330.196877 
L 272.771736 7.2 
L 14.372242 7.2 
z
" style="fill: #ffffff"/>
   </g>
   <g id="matplotlib.axis_1">
    <g id="xtick_1">
     <g id="line2d_1">
      <defs>
       <path id="mde88c2fd87" d="M 0 0 
L 0 3.5 
" style="stroke: #000000; stroke-width: 0.8"/>
      </defs>
      <g>
       <use xlink:href="#mde88c2fd87" x="19.341406" y="199.755647" style="stroke: #000000; stroke-width: 0.8"/>
      </g>
     </g>
     <g id="text_1">
      <!-- −2.0 -->
      <g transform="translate(7.2 214.354085)scale(0.1 -0.1)">
       <defs>
        <path id="DejaVuSans-2212" d="M 678 2272 
L 4684 2272 
L 4684 1741 
L 678 1741 
L 678 2272 
z
" transform="scale(0.015625)"/>
        <path id="DejaVuSans-32" d="M 1228 531 
L 3431 531 
L 3431 0 
L 469 0 
L 469 531 
Q 828 903 1448 1529 
Q 2069 2156 2228 2338 
Q 2531 2678 2651 2914 
Q 2772 3150 2772 3378 
Q 2772 3750 2511 3984 
Q 2250 4219 1831 4219 
Q 1534 4219 1204 4116 
Q 875 4013 500 3803 
L 500 4441 
Q 881 4594 1212 4672 
Q 1544 4750 1819 4750 
Q 2544 4750 2975 4387 
Q 3406 4025 3406 3419 
Q 3406 3131 3298 2873 
Q 3191 2616 2906 2266 
Q 2828 2175 2409 1742 
Q 1991 1309 1228 531 
z
" transform="scale(0.015625)"/>
        <path id="DejaVuSans-2e" d="M 684 794 
L 1344 794 
L 1344 0 
L 684 0 
L 684 794 
z
" transform="scale(0.015625)"/>
        <path id="DejaVuSans-30" d="M 2034 4250 
Q 1547 4250 1301 3770 
Q 1056 3291 1056 2328 
Q 1056 1369 1301 889 
Q 1547 409 2034 409 
Q 2525 409 2770 889 
Q 3016 1369 3016 2328 
Q 3016 3291 2770 3770 
Q 2525 4250 2034 4250 
z
M 2034 4750 
Q 2819 4750 3233 4129 
Q 3647 3509 3647 2328 
Q 3647 1150 3233 529 
Q 2819 -91 2034 -91 
Q 1250 -91 836 529 
Q 422 1150 422 2328 
Q 422 3509 836 4129 
Q 1250 4750 2034 4750 
z
" transform="scale(0.015625)"/>
       </defs>
       <use xlink:href="#DejaVuSans-2212"/>
       <use xlink:href="#DejaVuSans-32" x="83.789062"/>
       <use xlink:href="#DejaVuSans-2e" x="147.412109"/>
       <use xlink:href="#DejaVuSans-30" x="179.199219"/>
      </g>
     </g>
    </g>
    <g id="xtick_2">
     <g id="line2d_2">
      <g>
       <use xlink:href="#mde88c2fd87" x="50.399045" y="199.755647" style="stroke: #000000; stroke-width: 0.8"/>
      </g>
     </g>
     <g id="text_2">
      <!-- −1.5 -->
      <g transform="translate(38.257639 214.354085)scale(0.1 -0.1)">
       <defs>
        <path id="DejaVuSans-31" d="M 794 531 
L 1825 531 
L 1825 4091 
L 703 3866 
L 703 4441 
L 1819 4666 
L 2450 4666 
L 2450 531 
L 3481 531 
L 3481 0 
L 794 0 
L 794 531 
z
" transform="scale(0.015625)"/>
        <path id="DejaVuSans-35" d="M 691 4666 
L 3169 4666 
L 3169 4134 
L 1269 4134 
L 1269 2991 
Q 1406 3038 1543 3061 
Q 1681 3084 1819 3084 
Q 2600 3084 3056 2656 
Q 3513 2228 3513 1497 
Q 3513 744 3044 326 
Q 2575 -91 1722 -91 
Q 1428 -91 1123 -41 
Q 819 9 494 109 
L 494 744 
Q 775 591 1075 516 
Q 1375 441 1709 441 
Q 2250 441 2565 725 
Q 2881 1009 2881 1497 
Q 2881 1984 2565 2268 
Q 2250 2553 1709 2553 
Q 1456 2553 1204 2497 
Q 953 2441 691 2322 
L 691 4666 
z
" transform="scale(0.015625)"/>
       </defs>
       <use xlink:href="#DejaVuSans-2212"/>
       <use xlink:href="#DejaVuSans-31" x="83.789062"/>
       <use xlink:href="#DejaVuSans-2e" x="147.412109"/>
       <use xlink:href="#DejaVuSans-35" x="179.199219"/>
      </g>
     </g>
    </g>
    <g id="xtick_3">
     <g id="line2d_3">
      <g>
       <use xlink:href="#mde88c2fd87" x="81.456683" y="199.755647" style="stroke: #000000; stroke-width: 0.8"/>
      </g>
     </g>
     <g id="text_3">
      <!-- −1.0 -->
      <g transform="translate(69.315277 214.354085)scale(0.1 -0.1)">
       <use xlink:href="#DejaVuSans-2212"/>
       <use xlink:href="#DejaVuSans-31" x="83.789062"/>
       <use xlink:href="#DejaVuSans-2e" x="147.412109"/>
       <use xlink:href="#DejaVuSans-30" x="179.199219"/>
      </g>
     </g>
    </g>
    <g id="xtick_4">
     <g id="line2d_4">
      <g>
       <use xlink:href="#mde88c2fd87" x="112.514322" y="199.755647" style="stroke: #000000; stroke-width: 0.8"/>
      </g>
     </g>
     <g id="text_4">
      <!-- −0.5 -->
      <g transform="translate(100.372916 214.354085)scale(0.1 -0.1)">
       <use xlink:href="#DejaVuSans-2212"/>
       <use xlink:href="#DejaVuSans-30" x="83.789062"/>
       <use xlink:href="#DejaVuSans-2e" x="147.412109"/>
       <use xlink:href="#DejaVuSans-35" x="179.199219"/>
      </g>
     </g>
    </g>
    <g id="xtick_5">
     <g id="line2d_5">
      <g>
       <use xlink:href="#mde88c2fd87" x="143.57196" y="199.755647" style="stroke: #000000; stroke-width: 0.8"/>
      </g>
     </g>
    </g>
    <g id="xtick_6">
     <g id="line2d_6">
      <g>
       <use xlink:href="#mde88c2fd87" x="174.629599" y="199.755647" style="stroke: #000000; stroke-width: 0.8"/>
      </g>
     </g>
     <g id="text_5">
      <!-- 0.5 -->
      <g transform="translate(166.678036 214.354085)scale(0.1 -0.1)">
       <use xlink:href="#DejaVuSans-30"/>
       <use xlink:href="#DejaVuSans-2e" x="63.623047"/>
       <use xlink:href="#DejaVuSans-35" x="95.410156"/>
      </g>
     </g>
    </g>
    <g id="xtick_7">
     <g id="line2d_7">
      <g>
       <use xlink:href="#mde88c2fd87" x="205.687237" y="199.755647" style="stroke: #000000; stroke-width: 0.8"/>
      </g>
     </g>
     <g id="text_6">
      <!-- 1.0 -->
      <g transform="translate(197.735675 214.354085)scale(0.1 -0.1)">
       <use xlink:href="#DejaVuSans-31"/>
       <use xlink:href="#DejaVuSans-2e" x="63.623047"/>
       <use xlink:href="#DejaVuSans-30" x="95.410156"/>
      </g>
     </g>
    </g>
    <g id="xtick_8">
     <g id="line2d_8">
      <g>
       <use xlink:href="#mde88c2fd87" x="236.744876" y="199.755647" style="stroke: #000000; stroke-width: 0.8"/>
      </g>
     </g>
     <g id="text_7">
      <!-- 1.5 -->
      <g transform="translate(228.793314 214.354085)scale(0.1 -0.1)">
       <use xlink:href="#DejaVuSans-31"/>
       <use xlink:href="#DejaVuSans-2e" x="63.623047"/>
       <use xlink:href="#DejaVuSans-35" x="95.410156"/>
      </g>
     </g>
    </g>
    <g id="xtick_9">
     <g id="line2d_9">
      <g>
       <use xlink:href="#mde88c2fd87" x="267.802515" y="199.755647" style="stroke: #000000; stroke-width: 0.8"/>
      </g>
     </g>
     <g id="text_8">
      <!-- 2.0 -->
      <g transform="translate(259.850952 214.354085)scale(0.1 -0.1)">
       <use xlink:href="#DejaVuSans-32"/>
       <use xlink:href="#DejaVuSans-2e" x="63.623047"/>
       <use xlink:href="#DejaVuSans-30" x="95.410156"/>
      </g>
     </g>
    </g>
    <g id="xtick_10">
     <g id="line2d_10">
      <defs>
       <path id="m51a81402ba" d="M 0 0 
L 0 2 
" style="stroke: #000000; stroke-width: 0.6"/>
      </defs>
      <g>
       <use xlink:href="#m51a81402ba" x="25.552934" y="199.755647" style="stroke: #000000; stroke-width: 0.6"/>
      </g>
     </g>
    </g>
    <g id="xtick_11">
     <g id="line2d_11">
      <g>
       <use xlink:href="#m51a81402ba" x="31.764462" y="199.755647" style="stroke: #000000; stroke-width: 0.6"/>
      </g>
     </g>
    </g>
    <g id="xtick_12">
     <g id="line2d_12">
      <g>
       <use xlink:href="#m51a81402ba" x="37.975989" y="199.755647" style="stroke: #000000; stroke-width: 0.6"/>
      </g>
     </g>
    </g>
    <g id="xtick_13">
     <g id="line2d_13">
      <g>
       <use xlink:href="#m51a81402ba" x="44.187517" y="199.755647" style="stroke: #000000; stroke-width: 0.6"/>
      </g>
     </g>
    </g>
    <g id="xtick_14">
     <g id="line2d_14">
      <g>
       <use xlink:href="#m51a81402ba" x="56.610572" y="199.755647" style="stroke: #000000; stroke-width: 0.6"/>
      </g>
     </g>
    </g>
    <g id="xtick_15">
     <g id="line2d_15">
      <g>
       <use xlink:href="#m51a81402ba" x="62.8221" y="199.755647" style="stroke: #000000; stroke-width: 0.6"/>
      </g>
     </g>
    </g>
    <g id="xtick_16">
     <g id="line2d_16">
      <g>
       <use xlink:href="#m51a81402ba" x="69.033628" y="199.755647" style="stroke: #000000; stroke-width: 0.6"/>
      </g>
     </g>
    </g>
    <g id="xtick_17">
     <g id="line2d_17">
      <g>
       <use xlink:href="#m51a81402ba" x="75.245156" y="199.755647" style="stroke: #000000; stroke-width: 0.6"/>
      </g>
     </g>
    </g>
    <g id="xtick_18">
     <g id="line2d_18">
      <g>
       <use xlink:href="#m51a81402ba" x="87.668211" y="199.755647" style="stroke: #000000; stroke-width: 0.6"/>
      </g>
     </g>
    </g>
    <g id="xtick_19">
     <g id="line2d_19">
      <g>
       <use xlink:href="#m51a81402ba" x="93.879739" y="199.755647" style="stroke: #000000; stroke-width: 0.6"/>
      </g>
     </g>
    </g>
    <g id="xtick_20">
     <g id="line2d_20">
      <g>
       <use xlink:href="#m51a81402ba" x="100.091266" y="199.755647" style="stroke: #000000; stroke-width: 0.6"/>
      </g>
     </g>
    </g>
    <g id="xtick_21">
     <g id="line2d_21">
      <g>
       <use xlink:href="#m51a81402ba" x="106.302794" y="199.755647" style="stroke: #000000; stroke-width: 0.6"/>
      </g>
     </g>
    </g>
    <g id="xtick_22">
     <g id="line2d_22">
      <g>
       <use xlink:href="#m51a81402ba" x="118.72585" y="199.755647" style="stroke: #000000; stroke-width: 0.6"/>
      </g>
     </g>
    </g>
    <g id="xtick_23">
     <g id="line2d_23">
      <g>
       <use xlink:href="#m51a81402ba" x="124.937377" y="199.755647" style="stroke: #000000; stroke-width: 0.6"/>
      </g>
     </g>
    </g>
    <g id="xtick_24">
     <g id="line2d_24">
      <g>
       <use xlink:href="#m51a81402ba" x="131.148905" y="199.755647" style="stroke: #000000; stroke-width: 0.6"/>
      </g>
     </g>
    </g>
    <g id="xtick_25">
     <g id="line2d_25">
      <g>
       <use xlink:href="#m51a81402ba" x="137.360433" y="199.755647" style="stroke: #000000; stroke-width: 0.6"/>
      </g>
     </g>
    </g>
    <g id="xtick_26">
     <g id="line2d_26">
      <g>
       <use xlink:href="#m51a81402ba" x="149.783488" y="199.755647" style="stroke: #000000; stroke-width: 0.6"/>
      </g>
     </g>
    </g>
    <g id="xtick_27">
     <g id="line2d_27">
      <g>
       <use xlink:href="#m51a81402ba" x="155.995016" y="199.755647" style="stroke: #000000; stroke-width: 0.6"/>
      </g>
     </g>
    </g>
    <g id="xtick_28">
     <g id="line2d_28">
      <g>
       <use xlink:href="#m51a81402ba" x="162.206544" y="199.755647" style="stroke: #000000; stroke-width: 0.6"/>
      </g>
     </g>
    </g>
    <g id="xtick_29">
     <g id="line2d_29">
      <g>
       <use xlink:href="#m51a81402ba" x="168.418071" y="199.755647" style="stroke: #000000; stroke-width: 0.6"/>
      </g>
     </g>
    </g>
    <g id="xtick_30">
     <g id="line2d_30">
      <g>
       <use xlink:href="#m51a81402ba" x="180.841127" y="199.755647" style="stroke: #000000; stroke-width: 0.6"/>
      </g>
     </g>
    </g>
    <g id="xtick_31">
     <g id="line2d_31">
      <g>
       <use xlink:href="#m51a81402ba" x="187.052654" y="199.755647" style="stroke: #000000; stroke-width: 0.6"/>
      </g>
     </g>
    </g>
    <g id="xtick_32">
     <g id="line2d_32">
      <g>
       <use xlink:href="#m51a81402ba" x="193.264182" y="199.755647" style="stroke: #000000; stroke-width: 0.6"/>
      </g>
     </g>
    </g>
    <g id="xtick_33">
     <g id="line2d_33">
      <g>
       <use xlink:href="#m51a81402ba" x="199.47571" y="199.755647" style="stroke: #000000; stroke-width: 0.6"/>
      </g>
     </g>
    </g>
    <g id="xtick_34">
     <g id="line2d_34">
      <g>
       <use xlink:href="#m51a81402ba" x="211.898765" y="199.755647" style="stroke: #000000; stroke-width: 0.6"/>
      </g>
     </g>
    </g>
    <g id="xtick_35">
     <g id="line2d_35">
      <g>
       <use xlink:href="#m51a81402ba" x="218.110293" y="199.755647" style="stroke: #000000; stroke-width: 0.6"/>
      </g>
     </g>
    </g>
    <g id="xtick_36">
     <g id="line2d_36">
      <g>
       <use xlink:href="#m51a81402ba" x="224.321821" y="199.755647" style="stroke: #000000; stroke-width: 0.6"/>
      </g>
     </g>
    </g>
    <g id="xtick_37">
     <g id="line2d_37">
      <g>
       <use xlink:href="#m51a81402ba" x="230.533348" y="199.755647" style="stroke: #000000; stroke-width: 0.6"/>
      </g>
     </g>
    </g>
    <g id="xtick_38">
     <g id="line2d_38">
      <g>
       <use xlink:href="#m51a81402ba" x="242.956404" y="199.755647" style="stroke: #000000; stroke-width: 0.6"/>
      </g>
     </g>
    </g>
    <g id="xtick_39">
     <g id="line2d_39">
      <g>
       <use xlink:href="#m51a81402ba" x="249.167931" y="199.755647" style="stroke: #000000; stroke-width: 0.6"/>
      </g>
     </g>
    </g>
    <g id="xtick_40">
     <g id="line2d_40">
      <g>
       <use xlink:href="#m51a81402ba" x="255.379459" y="199.755647" style="stroke: #000000; stroke-width: 0.6"/>
      </g>
     </g>
    </g>
    <g id="xtick_41">
     <g id="line2d_41">
      <g>
       <use xlink:href="#m51a81402ba" x="261.590987" y="199.755647" style="stroke: #000000; stroke-width: 0.6"/>
      </g>
     </g>
    </g>
   </g>
   <g id="matplotlib.axis_2">
    <g id="ytick_1">
     <g id="line2d_42">
      <defs>
       <path id="m336dbba712" d="M 0 0 
L -3.5 0 
" style="stroke: #000000; stroke-width: 0.8"/>
      </defs>
      <g>
       <use xlink:href="#m336dbba712" x="143.57196" y="323.986201" style="stroke: #000000; stroke-width: 0.8"/>
      </g>
     </g>
     <g id="text_9">
      <!-- −2 -->
      <g transform="translate(121.829773 327.78542)scale(0.1 -0.1)">
       <use xlink:href="#DejaVuSans-2212"/>
       <use xlink:href="#DejaVuSans-32" x="83.789062"/>
      </g>
     </g>
    </g>
    <g id="ytick_2">
     <g id="line2d_43">
      <g>
       <use xlink:href="#m336dbba712" x="143.57196" y="261.870924" style="stroke: #000000; stroke-width: 0.8"/>
      </g>
     </g>
     <g id="text_10">
      <!-- −1 -->
      <g transform="translate(121.829773 265.670143)scale(0.1 -0.1)">
       <use xlink:href="#DejaVuSans-2212"/>
       <use xlink:href="#DejaVuSans-31" x="83.789062"/>
      </g>
     </g>
    </g>
    <g id="ytick_3">
     <g id="line2d_44">
      <g>
       <use xlink:href="#m336dbba712" x="143.57196" y="199.755647" style="stroke: #000000; stroke-width: 0.8"/>
      </g>
     </g>
    </g>
    <g id="ytick_4">
     <g id="line2d_45">
      <g>
       <use xlink:href="#m336dbba712" x="143.57196" y="137.64037" style="stroke: #000000; stroke-width: 0.8"/>
      </g>
     </g>
     <g id="text_11">
      <!-- 1 -->
      <g transform="translate(130.20946 141.439589)scale(0.1 -0.1)">
       <use xlink:href="#DejaVuSans-31"/>
      </g>
     </g>
    </g>
    <g id="ytick_5">
     <g id="line2d_46">
      <g>
       <use xlink:href="#m336dbba712" x="143.57196" y="75.525093" style="stroke: #000000; stroke-width: 0.8"/>
      </g>
     </g>
     <g id="text_12">
      <!-- 2 -->
      <g transform="translate(130.20946 79.324312)scale(0.1 -0.1)">
       <use xlink:href="#DejaVuSans-32"/>
      </g>
     </g>
    </g>
    <g id="ytick_6">
     <g id="line2d_47">
      <g>
       <use xlink:href="#m336dbba712" x="143.57196" y="13.409816" style="stroke: #000000; stroke-width: 0.8"/>
      </g>
     </g>
     <g id="text_13">
      <!-- 3 -->
      <g transform="translate(130.20946 17.209035)scale(0.1 -0.1)">
       <defs>
        <path id="DejaVuSans-33" d="M 2597 2516 
Q 3050 2419 3304 2112 
Q 3559 1806 3559 1356 
Q 3559 666 3084 287 
Q 2609 -91 1734 -91 
Q 1441 -91 1130 -33 
Q 819 25 488 141 
L 488 750 
Q 750 597 1062 519 
Q 1375 441 1716 441 
Q 2309 441 2620 675 
Q 2931 909 2931 1356 
Q 2931 1769 2642 2001 
Q 2353 2234 1838 2234 
L 1294 2234 
L 1294 2753 
L 1863 2753 
Q 2328 2753 2575 2939 
Q 2822 3125 2822 3475 
Q 2822 3834 2567 4026 
Q 2313 4219 1838 4219 
Q 1578 4219 1281 4162 
Q 984 4106 628 3988 
L 628 4550 
Q 988 4650 1302 4700 
Q 1616 4750 1894 4750 
Q 2613 4750 3031 4423 
Q 3450 4097 3450 3541 
Q 3450 3153 3228 2886 
Q 3006 2619 2597 2516 
z
" transform="scale(0.015625)"/>
       </defs>
       <use xlink:href="#DejaVuSans-33"/>
      </g>
     </g>
    </g>
    <g id="ytick_7">
     <g id="line2d_48">
      <defs>
       <path id="m3b540009f4" d="M 0 0 
L -2 0 
" style="stroke: #000000; stroke-width: 0.6"/>
      </defs>
      <g>
       <use xlink:href="#m3b540009f4" x="143.57196" y="311.563146" style="stroke: #000000; stroke-width: 0.6"/>
      </g>
     </g>
    </g>
    <g id="ytick_8">
     <g id="line2d_49">
      <g>
       <use xlink:href="#m3b540009f4" x="143.57196" y="299.140091" style="stroke: #000000; stroke-width: 0.6"/>
      </g>
     </g>
    </g>
    <g id="ytick_9">
     <g id="line2d_50">
      <g>
       <use xlink:href="#m3b540009f4" x="143.57196" y="286.717035" style="stroke: #000000; stroke-width: 0.6"/>
      </g>
     </g>
    </g>
    <g id="ytick_10">
     <g id="line2d_51">
      <g>
       <use xlink:href="#m3b540009f4" x="143.57196" y="274.29398" style="stroke: #000000; stroke-width: 0.6"/>
      </g>
     </g>
    </g>
    <g id="ytick_11">
     <g id="line2d_52">
      <g>
       <use xlink:href="#m3b540009f4" x="143.57196" y="249.447869" style="stroke: #000000; stroke-width: 0.6"/>
      </g>
     </g>
    </g>
    <g id="ytick_12">
     <g id="line2d_53">
      <g>
       <use xlink:href="#m3b540009f4" x="143.57196" y="237.024814" style="stroke: #000000; stroke-width: 0.6"/>
      </g>
     </g>
    </g>
    <g id="ytick_13">
     <g id="line2d_54">
      <g>
       <use xlink:href="#m3b540009f4" x="143.57196" y="224.601758" style="stroke: #000000; stroke-width: 0.6"/>
      </g>
     </g>
    </g>
    <g id="ytick_14">
     <g id="line2d_55">
      <g>
       <use xlink:href="#m3b540009f4" x="143.57196" y="212.178703" style="stroke: #000000; stroke-width: 0.6"/>
      </g>
     </g>
    </g>
    <g id="ytick_15">
     <g id="line2d_56">
      <g>
       <use xlink:href="#m3b540009f4" x="143.57196" y="187.332592" style="stroke: #000000; stroke-width: 0.6"/>
      </g>
     </g>
    </g>
    <g id="ytick_16">
     <g id="line2d_57">
      <g>
       <use xlink:href="#m3b540009f4" x="143.57196" y="174.909537" style="stroke: #000000; stroke-width: 0.6"/>
      </g>
     </g>
    </g>
    <g id="ytick_17">
     <g id="line2d_58">
      <g>
       <use xlink:href="#m3b540009f4" x="143.57196" y="162.486481" style="stroke: #000000; stroke-width: 0.6"/>
      </g>
     </g>
    </g>
    <g id="ytick_18">
     <g id="line2d_59">
      <g>
       <use xlink:href="#m3b540009f4" x="143.57196" y="150.063426" style="stroke: #000000; stroke-width: 0.6"/>
      </g>
     </g>
    </g>
    <g id="ytick_19">
     <g id="line2d_60">
      <g>
       <use xlink:href="#m3b540009f4" x="143.57196" y="125.217315" style="stroke: #000000; stroke-width: 0.6"/>
      </g>
     </g>
    </g>
    <g id="ytick_20">
     <g id="line2d_61">
      <g>
       <use xlink:href="#m3b540009f4" x="143.57196" y="112.794259" style="stroke: #000000; stroke-width: 0.6"/>
      </g>
     </g>
    </g>
    <g id="ytick_21">
     <g id="line2d_62">
      <g>
       <use xlink:href="#m3b540009f4" x="143.57196" y="100.371204" style="stroke: #000000; stroke-width: 0.6"/>
      </g>
     </g>
    </g>
    <g id="ytick_22">
     <g id="line2d_63">
      <g>
       <use xlink:href="#m3b540009f4" x="143.57196" y="87.948149" style="stroke: #000000; stroke-width: 0.6"/>
      </g>
     </g>
    </g>
    <g id="ytick_23">
     <g id="line2d_64">
      <g>
       <use xlink:href="#m3b540009f4" x="143.57196" y="63.102038" style="stroke: #000000; stroke-width: 0.6"/>
      </g>
     </g>
    </g>
    <g id="ytick_24">
     <g id="line2d_65">
      <g>
       <use xlink:href="#m3b540009f4" x="143.57196" y="50.678982" style="stroke: #000000; stroke-width: 0.6"/>
      </g>
     </g>
    </g>
    <g id="ytick_25">
     <g id="line2d_66">
      <g>
       <use xlink:href="#m3b540009f4" x="143.57196" y="38.255927" style="stroke: #000000; stroke-width: 0.6"/>
      </g>
     </g>
    </g>
    <g id="ytick_26">
     <g id="line2d_67">
      <g>
       <use xlink:href="#m3b540009f4" x="143.57196" y="25.832872" style="stroke: #000000; stroke-width: 0.6"/>
      </g>
     </g>
    </g>
   </g>
   <g id="line2d_68">
    <path d="M 205.687237 199.755647 
L 208.806679 198.10612 
L 215.865779 193.661685 
L 221.629808 189.196421 
L 225.541032 185.657736 
L 229.027676 182.091939 
L 232.284179 178.346922 
L 233.95321 176.246171 
L 237.527515 171.247873 
L 241.097922 165.388657 
L 245.565554 156.200205 
L 248.419605 148.429327 
L 249.875552 143.357231 
L 250.847894 139.187009 
L 251.524992 135.621405 
L 252.130318 131.544502 
L 252.585074 127.163643 
L 252.842901 122.739767 
L 252.905439 119.381326 
L 252.819577 115.090934 
L 252.413091 109.332552 
L 251.914036 105.192764 
L 251.243955 101.072721 
L 249.879676 94.776043 
L 248.763404 90.67176 
L 247.472964 86.599597 
L 245.728774 81.849063 
L 243.584945 76.811905 
L 241.182834 71.896335 
L 238.851523 67.662996 
L 235.634518 62.473712 
L 233.481243 59.336066 
L 231.21142 56.268706 
L 226.876528 50.980451 
L 223.656123 47.456856 
L 220.273706 44.069056 
L 217.121497 41.164988 
L 211.898492 36.822086 
L 209.05249 34.675088 
L 205.91924 32.473066 
L 202.705772 30.378138 
L 197.971392 27.570211 
L 195.352357 26.149987 
L 189.889011 23.470956 
L 186.02815 21.795419 
L 182.101847 20.265739 
L 178.41496 18.982321 
L 172.542585 17.23052 
L 166.553282 15.797975 
L 162.192541 14.971624 
L 155.681127 14.067547 
L 151.438975 13.686941 
L 147.184488 13.468193 
L 142.962284 13.411478 
L 138.45693 13.526882 
L 134.222518 13.801428 
L 130.002649 14.236377 
L 126.50515 14.720321 
L 123.026043 15.314333 
L 118.979923 16.148957 
L 112.206496 17.902493 
L 106.508634 19.73782 
L 103.612354 20.802932 
L 97.768552 23.237941 
L 92.601983 25.728816 
L 87.969473 28.253682 
L 83.426704 31.020376 
L 79.621153 33.57961 
L 75.933253 36.289796 
L 72.283454 39.217279 
L 69.424057 41.698807 
L 66.658174 44.272822 
L 62.843079 48.137631 
L 60.182382 51.077811 
L 56.031281 56.14027 
L 54.39824 58.316823 
L 51.356766 62.705506 
L 47.990948 68.185405 
L 45.805671 72.195649 
L 43.803339 76.280915 
L 42.398573 79.447181 
L 40.844156 83.327411 
L 39.580868 86.865941 
L 38.450564 90.434787 
L 37.032536 95.722438 
L 36.22259 99.396711 
L 35.424104 103.882644 
L 34.628469 110.420195 
L 34.286229 116.139857 
L 34.245897 120.442885 
L 34.416465 125.147542 
L 34.933065 130.891412 
L 35.549252 135.207004 
L 36.354303 139.463019 
L 38.24541 146.875159 
L 40.309667 153.005686 
L 41.675563 156.431374 
L 43.689893 160.870879 
L 46.11046 165.503992 
L 50.645937 172.764948 
L 55.467697 179.079966 
L 56.859501 180.698165 
L 59.787169 183.853375 
L 65.867301 189.49442 
L 68.389864 191.527313 
L 72.149043 194.267288 
L 77.234826 197.479049 
L 81.636706 199.845366 
L 86.942419 202.23394 
L 93.139836 204.430673 
L 95.857718 205.202887 
L 102.616198 206.637279 
L 106.551733 207.159183 
L 109.862687 207.420765 
L 114.065981 207.517642 
L 119.499001 207.244901 
L 121.559536 207.020561 
L 128.405392 205.770718 
L 130.519044 205.218987 
L 134.955756 203.782979 
L 137.001494 202.984743 
L 140.923164 201.188372 
L 143.145834 199.99909 
L 146.817319 197.722897 
L 150.444429 195.02296 
L 152.288601 193.441465 
L 153.985402 191.836815 
L 156.628778 188.988118 
L 158.4632 186.692644 
L 160.887651 183.089995 
L 162.370225 180.413834 
L 163.330657 178.382249 
L 164.934814 174.055792 
L 165.425295 172.288412 
L 165.958982 169.798314 
L 166.293927 167.460665 
L 166.492769 163.691145 
L 166.30986 160.395785 
L 165.753349 157.024883 
L 165.34928 155.433157 
L 164.106443 151.947726 
L 162.987464 149.670672 
L 162.014405 148.05191 
L 160.004359 145.380823 
L 158.357879 143.659124 
L 155.843236 141.597203 
L 154.438458 140.681354 
L 151.660855 139.275294 
L 149.202019 138.418259 
L 147.604424 138.036268 
L 145.595317 137.739436 
L 143.775676 137.641372 
L 141.572926 137.737064 
L 140.234964 137.910782 
L 138.232117 138.338974 
L 136.475782 138.888383 
L 134.449309 139.740583 
L 132.040418 141.09615 
L 130.789998 141.969027 
L 129.825642 142.733624 
L 128.285833 144.14631 
L 126.673618 145.935948 
L 124.883918 148.435799 
L 123.408477 151.130205 
L 122.647802 152.89391 
L 121.801817 155.407953 
L 121.042706 158.83815 
L 120.814323 160.58372 
L 120.654786 163.319196 
L 120.694182 165.51403 
L 120.865053 167.596478 
L 121.377144 170.797617 
L 121.912332 173.027375 
L 122.903323 176.124493 
L 124.521798 179.908318 
L 126.142893 182.900691 
L 128.129843 185.939037 
L 130.083625 188.474895 
L 131.749338 190.377142 
L 133.653793 192.32138 
L 135.895616 194.352818 
L 138.583306 196.487385 
L 141.009324 198.178118 
L 145.499485 200.816845 
L 148.918986 202.463229 
L 152.552708 203.915873 
L 155.228791 204.808802 
L 158.151687 205.625732 
L 163.33301 206.696811 
L 165.32861 206.987954 
L 169.075543 207.361071 
L 174.857383 207.508959 
L 178.098588 207.371296 
L 181.59285 207.0482 
L 184.521771 206.638242 
L 190.942218 205.29253 
L 194.057544 204.414337 
L 197.892734 203.124677 
L 202.111596 201.429957 
L 205.687237 199.755647 
L 205.687237 199.755647 
" clip-path="url(#p68252012df)" style="fill: none; stroke: #ff0000; stroke-width: 2; stroke-linecap: square"/>
   </g>
   <g id="line2d_69">
    <path d="M 267.802515 199.755647 
L 267.694342 194.572513 
L 267.351727 189.182097 
L 266.826698 184.215373 
L 266.334603 180.714527 
L 265.084843 173.912853 
L 263.602532 167.726092 
L 262.671563 164.421311 
L 260.142363 156.807169 
L 259.571778 155.289111 
L 256.07459 147.064198 
L 253.7297 142.323053 
L 251.610404 138.429264 
L 249.060391 134.139935 
L 246.73902 130.547351 
L 244.397022 127.177844 
L 240.343288 121.854809 
L 237.812345 118.811343 
L 234.303272 114.89659 
L 231.883458 112.381109 
L 225.43486 106.312101 
L 220.612451 102.297998 
L 216.382076 99.09822 
L 210.166424 94.882352 
L 205.601628 92.11945 
L 200.67131 89.424804 
L 195.878214 87.073411 
L 188.665972 83.998312 
L 181.332861 81.403018 
L 177.884369 80.357619 
L 174.135084 79.34333 
L 168.378919 78.027075 
L 164.152537 77.241687 
L 158.405409 76.413848 
L 152.260477 75.829297 
L 147.964348 75.602768 
L 141.88388 75.536563 
L 138.662559 75.622137 
L 132.296523 76.037843 
L 123.428521 77.169056 
L 116.976974 78.405175 
L 107.521634 80.87081 
L 101.356987 82.917612 
L 97.478256 84.392737 
L 93.41746 86.099338 
L 88.645758 88.327003 
L 83.724395 90.891055 
L 79.714557 93.193635 
L 73.799449 96.969329 
L 69.066742 100.346377 
L 65.952427 102.758541 
L 62.701728 105.451691 
L 56.607656 111.040145 
L 55.404357 112.235911 
L 49.251509 118.904655 
L 46.573517 122.137784 
L 42.767511 127.149218 
L 40.988915 129.684617 
L 35.958011 137.687391 
L 33.871316 141.45471 
L 30.477867 148.345953 
L 29.43629 150.701807 
L 27.218987 156.221567 
L 26.168284 159.14029 
L 24.740913 163.528408 
L 22.697544 171.074537 
L 21.986671 174.255689 
L 20.781913 180.892063 
L 20.124668 185.827378 
L 19.746757 189.728207 
L 19.445767 194.664604 
L 19.341463 199.636971 
L 19.407301 203.801374 
L 19.939039 211.926568 
L 20.913807 219.45864 
L 22.570888 227.897628 
L 24.068961 233.700658 
L 25.941363 239.709034 
L 26.775925 242.086685 
L 28.776904 247.245917 
L 31.840276 254.062749 
L 33.979007 258.258768 
L 37.128457 263.810398 
L 39.181216 267.104019 
L 43.026981 272.720966 
L 46.374011 277.12353 
L 51.476078 283.131777 
L 56.160308 288.03041 
L 58.90999 290.67089 
L 66.153287 296.913146 
L 72.018254 301.310055 
L 76.099905 304.066492 
L 80.896049 307.016827 
L 88.280061 311.003283 
L 95.443407 314.284565 
L 102.220811 316.902192 
L 108.557492 318.949681 
L 115.898731 320.864784 
L 123.978716 322.43138 
L 126.326454 322.78338 
L 133.257327 323.557259 
L 138.527956 323.883761 
L 144.018652 323.985398 
L 151.398496 323.73942 
L 157.027379 323.255373 
L 166.462191 321.85916 
L 173.266713 320.385048 
L 176.277385 319.603825 
L 184.080208 317.196324 
L 188.152426 315.711728 
L 194.77959 312.941376 
L 203.132789 308.77738 
L 205.281683 307.575593 
L 210.946625 304.129424 
L 216.712528 300.173215 
L 222.561018 295.640784 
L 226.128151 292.587248 
L 231.037508 287.977008 
L 234.236075 284.686495 
L 238.283884 280.1477 
L 240.761808 277.133707 
L 245.307197 271.052017 
L 249.151073 265.225348 
L 252.5736 259.353242 
L 253.271615 258.058446 
L 256.830804 250.801361 
L 259.761745 243.723413 
L 262.586709 235.374745 
L 264.552194 227.98708 
L 266.206081 219.607679 
L 267.075952 213.171854 
L 267.717341 204.3551 
L 267.802515 199.755647 
L 267.802515 199.755647 
" clip-path="url(#p68252012df)" style="fill: none; stroke: #0000ff; stroke-width: 2; stroke-linecap: square"/>
   </g>
   <g id="patch_3">
    <path d="M 143.57196 330.196877 
L 143.57196 7.2 
" style="fill: none; stroke: #000000; stroke-width: 0.8; stroke-linejoin: miter; stroke-linecap: square"/>
   </g>
   <g id="patch_4">
    <path d="M 14.372242 199.755647 
L 272.771736 199.755647 
" style="fill: none; stroke: #000000; stroke-width: 0.8; stroke-linejoin: miter; stroke-linecap: square"/>
   </g>
  </g>
 </g>
 <defs>
  <clipPath id="p68252012df">
   <rect x="14.372242" y="7.2" width="258.399494" height="322.996877"/>
  </clipPath>
 </defs>
</svg>
